M48
; DRILL file {KiCad (5.1.12)-1} date 12/10/21 19:42:50
; FORMAT={-:-/ absolute / inch / decimal}
; #@! TF.CreationDate,2021-12-10T19:42:50+00:00
; #@! TF.GenerationSoftware,Kicad,Pcbnew,(5.1.12)-1
; #@! TF.FileFunction,Plated,1,2,PTH
FMAT,2
INCH
T1C0.0157
T2C0.0535
%
G90
G05
T1
X2.955Y-2.935
X2.955Y-3.01
X3.01Y-2.935
X3.01Y-3.01
X3.17Y-3.28
X3.21Y-3.22
X3.25Y-3.175
X3.29Y-3.115
X3.325Y-3.06
X3.64Y-2.805
X3.64Y-2.94
X3.74Y-2.81
X3.74Y-2.94
X3.84Y-2.94
X3.84Y-3.005
X3.895Y-2.94
X3.895Y-3.005
T2
X4.075Y-2.775
X4.075Y-3.375
X4.175Y-2.775
X4.175Y-3.375
X4.275Y-2.775
X4.275Y-3.375
X4.375Y-2.775
X4.375Y-3.375
X4.475Y-2.775
X4.475Y-3.375
X4.575Y-2.775
X4.575Y-3.375
X4.675Y-2.775
X4.675Y-3.375
X4.775Y-2.775
X4.775Y-3.375
X4.875Y-2.775
X4.875Y-3.375
X4.975Y-2.775
X4.975Y-3.375
X5.075Y-2.775
X5.075Y-3.375
X5.175Y-2.775
X5.175Y-3.375
X5.275Y-2.775
X5.275Y-3.375
X5.375Y-2.775
X5.375Y-3.375
X5.475Y-2.775
X5.475Y-3.375
X5.575Y-2.775
X5.575Y-3.375
X5.675Y-2.775
X5.675Y-3.375
X5.775Y-2.775
X5.775Y-3.375
X5.875Y-2.775
X5.875Y-3.375
X5.975Y-2.775
X5.975Y-3.375
X6.075Y-2.775
X6.075Y-3.375
X6.175Y-2.775
X6.175Y-3.375
X6.275Y-2.775
X6.275Y-3.375
X6.375Y-2.775
X6.375Y-3.375
T0
M30
