  0
SECTION
  2
HEADER
  9
$ANGBASE
  50
0.0
  9
$ANGDIR
  70
1
  9
$MEASUREMENT
  70
1
  0
ENDSEC
  0
SECTION
  2
TABLES
  0
TABLE
  2
LTYPE
  70
4
  0
LTYPE
  5
40F
  2
CONTINUOUS
  70
0
  3
Solid line
  72
65
  73
0
  40
0.0
  0
LTYPE
  5
410
  2
DASHDOT
 70
0
  3
Dash Dot ____ _ ____ _
 72
65
 73
4
 40
2.0
 49
1.25
 49
-0.25
 49
0.25
 49
-0.25
  0
LTYPE
  5
411
  2
DASHED
 70
0
  3
Dashed __ __ __ __ __
 72
65
 73
2
 40
0.75
 49
0.5
 49
-0.25
  0
LTYPE
  5
43B
  2
DOTTED
 70
0
  3
Dotted .  .  .  .
 72
65
 73
2
 40
0.2
 49
0.0
 49
-0.2
  0
ENDTAB
  0
TABLE
  2
STYLE
  70
4
  0
STYLE
  2
KICAD
  70
0
  40
0
  41
1
  42
1
  50
0
  71
0
  3
isocp.shx
  0
STYLE
  2
KICADB
  70
0
  40
0
  41
1
  42
1
  50
0
  71
0
  3
isocp.shx
  0
STYLE
  2
KICADI
  70
0
  40
0
  41
1
  42
1
  50
15
  71
0
  3
isocp.shx
  0
STYLE
  2
KICADBI
  70
0
  40
0
  41
1
  42
1
  50
15
  71
0
  3
isocp.shx
  0
ENDTAB
  0
TABLE
  2
LAYER
  70
1
  0
LAYER
  2
BLACK
  70
0
  62
7
  6
CONTINUOUS
  0
ENDTAB
  0
ENDSEC
  0
SECTION
  2
ENTITIES
0
LINE
8
BLACK
6
CONTINUOUS
10
163.026
20
-67.9359
11
163.034
21
-67.9395
0
LINE
8
BLACK
6
CONTINUOUS
10
163.034
20
-67.9395
11
163.043
21
-67.9429
0
LINE
8
BLACK
6
CONTINUOUS
10
163.043
20
-67.9429
11
163.239
21
-68.0477
0
LINE
8
BLACK
6
CONTINUOUS
10
163.239
20
-68.0477
11
163.239
21
-68.0477
0
LINE
8
BLACK
6
CONTINUOUS
10
163.239
20
-68.0477
11
163.239
21
-68.0477
0
LINE
8
BLACK
6
CONTINUOUS
10
163.239
20
-68.0477
11
163.241
21
-68.0483
0
LINE
8
BLACK
6
CONTINUOUS
10
163.241
20
-68.0483
11
163.248
21
-68.0535
0
LINE
8
BLACK
6
CONTINUOUS
10
163.248
20
-68.0535
11
163.256
21
-68.0585
0
LINE
8
BLACK
6
CONTINUOUS
10
163.256
20
-68.0585
11
163.429
21
-68.1995
0
LINE
8
BLACK
6
CONTINUOUS
10
163.429
20
-68.1995
11
163.43
21
-68.2004
0
LINE
8
BLACK
6
CONTINUOUS
10
163.43
20
-68.2004
11
163.436
21
-68.2068
0
LINE
8
BLACK
6
CONTINUOUS
10
163.436
20
-68.2068
11
163.442
21
-68.2132
0
LINE
8
BLACK
6
CONTINUOUS
10
163.442
20
-68.2132
11
163.585
21
-68.3851
0
LINE
8
BLACK
6
CONTINUOUS
10
163.585
20
-68.3851
11
163.586
21
-68.3862
0
LINE
8
BLACK
6
CONTINUOUS
10
163.586
20
-68.3862
11
163.59
21
-68.3938
0
LINE
8
BLACK
6
CONTINUOUS
10
163.59
20
-68.3938
11
163.596
21
-68.4013
0
LINE
8
BLACK
6
CONTINUOUS
10
163.596
20
-68.4013
11
163.702
21
-68.5975
0
LINE
8
BLACK
6
CONTINUOUS
10
163.702
20
-68.5975
11
163.702
21
-68.5987
0
LINE
8
BLACK
6
CONTINUOUS
10
163.702
20
-68.5987
11
163.706
21
-68.6071
0
LINE
8
BLACK
6
CONTINUOUS
10
163.706
20
-68.6071
11
163.709
21
-68.6155
0
LINE
8
BLACK
6
CONTINUOUS
10
163.709
20
-68.6155
11
163.775
21
-68.8286
0
LINE
8
BLACK
6
CONTINUOUS
10
163.775
20
-68.8286
11
163.776
21
-68.8299
0
LINE
8
BLACK
6
CONTINUOUS
10
163.776
20
-68.8299
11
163.777
21
-68.8389
0
LINE
8
BLACK
6
CONTINUOUS
10
163.777
20
-68.8389
11
163.779
21
-68.8477
0
LINE
8
BLACK
6
CONTINUOUS
10
163.779
20
-68.8477
11
163.802
21
-69.0696
0
LINE
8
BLACK
6
CONTINUOUS
10
163.802
20
-69.0696
11
163.803
21
-69.071
0
LINE
8
BLACK
6
CONTINUOUS
10
163.803
20
-69.071
11
163.803
21
-69.0753
0
LINE
8
BLACK
6
CONTINUOUS
10
163.803
20
-69.0753
11
163.803
21
-69.0797
0
LINE
8
BLACK
6
CONTINUOUS
10
163.803
20
-69.0797
11
163.803
21
-69.0829
0
LINE
8
BLACK
6
CONTINUOUS
10
163.803
20
-69.0829
11
163.803
21
-69.0831
0
LINE
8
BLACK
6
CONTINUOUS
10
163.803
20
-69.0831
11
163.803
21
-87.1269
0
LINE
8
BLACK
6
CONTINUOUS
10
163.803
20
-87.1269
11
163.803
21
-87.1317
0
LINE
8
BLACK
6
CONTINUOUS
10
163.803
20
-87.1317
11
163.803
21
-87.1318
0
LINE
8
BLACK
6
CONTINUOUS
10
163.803
20
-87.1318
11
163.781
21
-87.3538
0
LINE
8
BLACK
6
CONTINUOUS
10
163.781
20
-87.3538
11
163.781
21
-87.3552
0
LINE
8
BLACK
6
CONTINUOUS
10
163.781
20
-87.3552
11
163.779
21
-87.364
0
LINE
8
BLACK
6
CONTINUOUS
10
163.779
20
-87.364
11
163.777
21
-87.3729
0
LINE
8
BLACK
6
CONTINUOUS
10
163.777
20
-87.3729
11
163.712
21
-87.5865
0
LINE
8
BLACK
6
CONTINUOUS
10
163.712
20
-87.5865
11
163.712
21
-87.5878
0
LINE
8
BLACK
6
CONTINUOUS
10
163.712
20
-87.5878
11
163.709
21
-87.5961
0
LINE
8
BLACK
6
CONTINUOUS
10
163.709
20
-87.5961
11
163.705
21
-87.6045
0
LINE
8
BLACK
6
CONTINUOUS
10
163.705
20
-87.6045
11
163.6
21
-87.8015
0
LINE
8
BLACK
6
CONTINUOUS
10
163.6
20
-87.8015
11
163.6
21
-87.8027
0
LINE
8
BLACK
6
CONTINUOUS
10
163.6
20
-87.8027
11
163.595
21
-87.8102
0
LINE
8
BLACK
6
CONTINUOUS
10
163.595
20
-87.8102
11
163.59
21
-87.8177
0
LINE
8
BLACK
6
CONTINUOUS
10
163.59
20
-87.8177
11
163.449
21
-87.9906
0
LINE
8
BLACK
6
CONTINUOUS
10
163.449
20
-87.9906
11
163.449
21
-87.9906
0
LINE
8
BLACK
6
CONTINUOUS
10
163.449
20
-87.9906
11
163.449
21
-87.9906
0
LINE
8
BLACK
6
CONTINUOUS
10
163.449
20
-87.9906
11
163.448
21
-87.9917
0
LINE
8
BLACK
6
CONTINUOUS
10
163.448
20
-87.9917
11
163.441
21
-87.998
0
LINE
8
BLACK
6
CONTINUOUS
10
163.441
20
-87.998
11
163.435
21
-88.0044
0
LINE
8
BLACK
6
CONTINUOUS
10
163.435
20
-88.0044
11
163.263
21
-88.1466
0
LINE
8
BLACK
6
CONTINUOUS
10
163.263
20
-88.1466
11
163.263
21
-88.1466
0
LINE
8
BLACK
6
CONTINUOUS
10
163.263
20
-88.1466
11
163.263
21
-88.1467
0
LINE
8
BLACK
6
CONTINUOUS
10
163.263
20
-88.1467
11
163.262
21
-88.1475
0
LINE
8
BLACK
6
CONTINUOUS
10
163.262
20
-88.1475
11
163.254
21
-88.1524
0
LINE
8
BLACK
6
CONTINUOUS
10
163.254
20
-88.1524
11
163.247
21
-88.1576
0
LINE
8
BLACK
6
CONTINUOUS
10
163.247
20
-88.1576
11
163.05
21
-88.2637
0
LINE
8
BLACK
6
CONTINUOUS
10
163.05
20
-88.2637
11
163.05
21
-88.2637
0
LINE
8
BLACK
6
CONTINUOUS
10
163.05
20
-88.2637
11
163.05
21
-88.2637
0
LINE
8
BLACK
6
CONTINUOUS
10
163.05
20
-88.2637
11
163.049
21
-88.2643
0
LINE
8
BLACK
6
CONTINUOUS
10
163.049
20
-88.2643
11
163.041
21
-88.2677
0
LINE
8
BLACK
6
CONTINUOUS
10
163.041
20
-88.2677
11
163.033
21
-88.2712
0
LINE
8
BLACK
6
CONTINUOUS
10
163.033
20
-88.2712
11
162.819
21
-88.3372
0
LINE
8
BLACK
6
CONTINUOUS
10
162.819
20
-88.3372
11
162.818
21
-88.3376
0
LINE
8
BLACK
6
CONTINUOUS
10
162.818
20
-88.3376
11
162.809
21
-88.3393
0
LINE
8
BLACK
6
CONTINUOUS
10
162.809
20
-88.3393
11
162.8
21
-88.3411
0
LINE
8
BLACK
6
CONTINUOUS
10
162.8
20
-88.3411
11
162.578
21
-88.3644
0
LINE
8
BLACK
6
CONTINUOUS
10
162.578
20
-88.3644
11
162.577
21
-88.3646
0
LINE
8
BLACK
6
CONTINUOUS
10
162.577
20
-88.3646
11
162.573
21
-88.3645
0
LINE
8
BLACK
6
CONTINUOUS
10
162.573
20
-88.3645
11
162.568
21
-88.365
0
LINE
8
BLACK
6
CONTINUOUS
10
162.568
20
-88.365
11
162.565
21
-88.365
0
LINE
8
BLACK
6
CONTINUOUS
10
162.565
20
-88.365
11
162.565
21
-88.365
0
LINE
8
BLACK
6
CONTINUOUS
10
162.565
20
-88.365
11
75.4331
21
-88.365
0
LINE
8
BLACK
6
CONTINUOUS
10
75.4331
20
-88.365
11
75.4283
21
-88.3645
0
LINE
8
BLACK
6
CONTINUOUS
10
75.4283
20
-88.3645
11
75.4282
21
-88.3645
0
LINE
8
BLACK
6
CONTINUOUS
10
75.4282
20
-88.3645
11
75.2062
21
-88.3428
0
LINE
8
BLACK
6
CONTINUOUS
10
75.2062
20
-88.3428
11
75.2062
21
-88.3428
0
LINE
8
BLACK
6
CONTINUOUS
10
75.2062
20
-88.3428
11
75.2048
21
-88.3426
0
LINE
8
BLACK
6
CONTINUOUS
10
75.2048
20
-88.3426
11
75.196
21
-88.3407
0
LINE
8
BLACK
6
CONTINUOUS
10
75.196
20
-88.3407
11
75.1871
21
-88.339
0
LINE
8
BLACK
6
CONTINUOUS
10
75.1871
20
-88.339
11
74.9735
21
-88.2745
0
LINE
8
BLACK
6
CONTINUOUS
10
74.9735
20
-88.2745
11
74.9735
21
-88.2745
0
LINE
8
BLACK
6
CONTINUOUS
10
74.9735
20
-88.2745
11
74.9722
21
-88.2741
0
LINE
8
BLACK
6
CONTINUOUS
10
74.9722
20
-88.2741
11
74.9639
21
-88.2705
0
LINE
8
BLACK
6
CONTINUOUS
10
74.9639
20
-88.2705
11
74.9555
21
-88.2671
0
LINE
8
BLACK
6
CONTINUOUS
10
74.9555
20
-88.2671
11
74.7585
21
-88.1623
0
LINE
8
BLACK
6
CONTINUOUS
10
74.7585
20
-88.1623
11
74.7573
21
-88.1617
0
LINE
8
BLACK
6
CONTINUOUS
10
74.7573
20
-88.1617
11
74.7498
21
-88.1565
0
LINE
8
BLACK
6
CONTINUOUS
10
74.7498
20
-88.1565
11
74.7423
21
-88.1515
0
LINE
8
BLACK
6
CONTINUOUS
10
74.7423
20
-88.1515
11
74.5694
21
-88.0105
0
LINE
8
BLACK
6
CONTINUOUS
10
74.5694
20
-88.0105
11
74.5694
21
-88.0105
0
LINE
8
BLACK
6
CONTINUOUS
10
74.5694
20
-88.0105
11
74.5694
21
-88.0105
0
LINE
8
BLACK
6
CONTINUOUS
10
74.5694
20
-88.0105
11
74.5683
21
-88.0096
0
LINE
8
BLACK
6
CONTINUOUS
10
74.5683
20
-88.0096
11
74.562
21
-88.0032
0
LINE
8
BLACK
6
CONTINUOUS
10
74.562
20
-88.0032
11
74.5556
21
-87.9968
0
LINE
8
BLACK
6
CONTINUOUS
10
74.5556
20
-87.9968
11
74.4134
21
-87.8249
0
LINE
8
BLACK
6
CONTINUOUS
10
74.4134
20
-87.8249
11
74.4134
21
-87.8249
0
LINE
8
BLACK
6
CONTINUOUS
10
74.4134
20
-87.8249
11
74.4133
21
-87.8249
0
LINE
8
BLACK
6
CONTINUOUS
10
74.4133
20
-87.8249
11
74.4125
21
-87.8238
0
LINE
8
BLACK
6
CONTINUOUS
10
74.4125
20
-87.8238
11
74.4076
21
-87.8163
0
LINE
8
BLACK
6
CONTINUOUS
10
74.4076
20
-87.8163
11
74.4024
21
-87.8087
0
LINE
8
BLACK
6
CONTINUOUS
10
74.4024
20
-87.8087
11
74.2963
21
-87.6125
0
LINE
8
BLACK
6
CONTINUOUS
10
74.2963
20
-87.6125
11
74.2957
21
-87.6113
0
LINE
8
BLACK
6
CONTINUOUS
10
74.2957
20
-87.6113
11
74.2923
21
-87.6029
0
LINE
8
BLACK
6
CONTINUOUS
10
74.2923
20
-87.6029
11
74.2888
21
-87.5945
0
LINE
8
BLACK
6
CONTINUOUS
10
74.2888
20
-87.5945
11
74.2228
21
-87.3814
0
LINE
8
BLACK
6
CONTINUOUS
10
74.2228
20
-87.3814
11
74.2224
21
-87.3801
0
LINE
8
BLACK
6
CONTINUOUS
10
74.2224
20
-87.3801
11
74.2207
21
-87.3712
0
LINE
8
BLACK
6
CONTINUOUS
10
74.2207
20
-87.3712
11
74.2189
21
-87.3623
0
LINE
8
BLACK
6
CONTINUOUS
10
74.2189
20
-87.3623
11
74.1956
21
-87.1404
0
LINE
8
BLACK
6
CONTINUOUS
10
74.1956
20
-87.1404
11
74.1954
21
-87.139
0
LINE
8
BLACK
6
CONTINUOUS
10
74.1954
20
-87.139
11
74.1955
21
-87.1347
0
LINE
8
BLACK
6
CONTINUOUS
10
74.1955
20
-87.1347
11
74.195
21
-87.1303
0
LINE
8
BLACK
6
CONTINUOUS
10
74.195
20
-87.1303
11
74.195
21
-87.1271
0
LINE
8
BLACK
6
CONTINUOUS
10
74.195
20
-87.1271
11
74.195
21
-87.1269
0
LINE
8
BLACK
6
CONTINUOUS
10
74.195
20
-87.1269
11
74.195
21
-69.0831
0
LINE
8
BLACK
6
CONTINUOUS
10
74.195
20
-69.0831
11
74.1955
21
-69.0783
0
LINE
8
BLACK
6
CONTINUOUS
10
74.1955
20
-69.0783
11
74.1955
21
-69.0782
0
LINE
8
BLACK
6
CONTINUOUS
10
74.1955
20
-69.0782
11
74.2172
21
-68.8562
0
LINE
8
BLACK
6
CONTINUOUS
10
74.2172
20
-68.8562
11
74.2174
21
-68.8548
0
LINE
8
BLACK
6
CONTINUOUS
10
74.2174
20
-68.8548
11
74.2193
21
-68.846
0
LINE
8
BLACK
6
CONTINUOUS
10
74.2193
20
-68.846
11
74.221
21
-68.8371
0
LINE
8
BLACK
6
CONTINUOUS
10
74.221
20
-68.8371
11
74.2855
21
-68.6235
0
LINE
8
BLACK
6
CONTINUOUS
10
74.2855
20
-68.6235
11
74.2859
21
-68.6222
0
LINE
8
BLACK
6
CONTINUOUS
10
74.2859
20
-68.6222
11
74.2895
21
-68.6139
0
LINE
8
BLACK
6
CONTINUOUS
10
74.2895
20
-68.6139
11
74.2929
21
-68.6055
0
LINE
8
BLACK
6
CONTINUOUS
10
74.2929
20
-68.6055
11
74.3977
21
-68.4085
0
LINE
8
BLACK
6
CONTINUOUS
10
74.3977
20
-68.4085
11
74.3977
21
-68.4085
0
LINE
8
BLACK
6
CONTINUOUS
10
74.3977
20
-68.4085
11
74.3977
21
-68.4085
0
LINE
8
BLACK
6
CONTINUOUS
10
74.3977
20
-68.4085
11
74.3983
21
-68.4073
0
LINE
8
BLACK
6
CONTINUOUS
10
74.3983
20
-68.4073
11
74.4035
21
-68.3998
0
LINE
8
BLACK
6
CONTINUOUS
10
74.4035
20
-68.3998
11
74.4085
21
-68.3923
0
LINE
8
BLACK
6
CONTINUOUS
10
74.4085
20
-68.3923
11
74.5495
21
-68.2194
0
LINE
8
BLACK
6
CONTINUOUS
10
74.5495
20
-68.2194
11
74.5504
21
-68.2183
0
LINE
8
BLACK
6
CONTINUOUS
10
74.5504
20
-68.2183
11
74.5568
21
-68.212
0
LINE
8
BLACK
6
CONTINUOUS
10
74.5568
20
-68.212
11
74.5632
21
-68.2056
0
LINE
8
BLACK
6
CONTINUOUS
10
74.5632
20
-68.2056
11
74.7351
21
-68.0634
0
LINE
8
BLACK
6
CONTINUOUS
10
74.7351
20
-68.0634
11
74.7362
21
-68.0625
0
LINE
8
BLACK
6
CONTINUOUS
10
74.7362
20
-68.0625
11
74.7438
21
-68.0575
0
LINE
8
BLACK
6
CONTINUOUS
10
74.7438
20
-68.0575
11
74.7513
21
-68.0524
0
LINE
8
BLACK
6
CONTINUOUS
10
74.7513
20
-68.0524
11
74.9475
21
-67.9463
0
LINE
8
BLACK
6
CONTINUOUS
10
74.9475
20
-67.9463
11
74.9487
21
-67.9457
0
LINE
8
BLACK
6
CONTINUOUS
10
74.9487
20
-67.9457
11
74.9571
21
-67.9423
0
LINE
8
BLACK
6
CONTINUOUS
10
74.9571
20
-67.9423
11
74.9655
21
-67.9388
0
LINE
8
BLACK
6
CONTINUOUS
10
74.9655
20
-67.9388
11
75.1786
21
-67.8728
0
LINE
8
BLACK
6
CONTINUOUS
10
75.1786
20
-67.8728
11
75.1799
21
-67.8724
0
LINE
8
BLACK
6
CONTINUOUS
10
75.1799
20
-67.8724
11
75.1889
21
-67.8707
0
LINE
8
BLACK
6
CONTINUOUS
10
75.1889
20
-67.8707
11
75.1977
21
-67.8689
0
LINE
8
BLACK
6
CONTINUOUS
10
75.1977
20
-67.8689
11
75.4196
21
-67.8456
0
LINE
8
BLACK
6
CONTINUOUS
10
75.4196
20
-67.8456
11
75.421
21
-67.8454
0
LINE
8
BLACK
6
CONTINUOUS
10
75.421
20
-67.8454
11
75.4253
21
-67.8455
0
LINE
8
BLACK
6
CONTINUOUS
10
75.4253
20
-67.8455
11
75.4297
21
-67.845
0
LINE
8
BLACK
6
CONTINUOUS
10
75.4297
20
-67.845
11
75.4329
21
-67.845
0
LINE
8
BLACK
6
CONTINUOUS
10
75.4329
20
-67.845
11
75.4331
21
-67.845
0
LINE
8
BLACK
6
CONTINUOUS
10
75.4331
20
-67.845
11
162.565
21
-67.845
0
LINE
8
BLACK
6
CONTINUOUS
10
162.565
20
-67.845
11
162.57
21
-67.8455
0
LINE
8
BLACK
6
CONTINUOUS
10
162.57
20
-67.8455
11
162.57
21
-67.8455
0
LINE
8
BLACK
6
CONTINUOUS
10
162.57
20
-67.8455
11
162.792
21
-67.8672
0
LINE
8
BLACK
6
CONTINUOUS
10
162.792
20
-67.8672
11
162.793
21
-67.8674
0
LINE
8
BLACK
6
CONTINUOUS
10
162.793
20
-67.8674
11
162.802
21
-67.8693
0
LINE
8
BLACK
6
CONTINUOUS
10
162.802
20
-67.8693
11
162.811
21
-67.871
0
LINE
8
BLACK
6
CONTINUOUS
10
162.811
20
-67.871
11
163.024
21
-67.9355
0
LINE
8
BLACK
6
CONTINUOUS
10
163.024
20
-67.9355
11
163.024
21
-67.9355
0
LINE
8
BLACK
6
CONTINUOUS
10
163.024
20
-67.9355
11
163.026
21
-67.9359
0
LINE
8
BLACK
6
CONTINUOUS
10
75.4381
20
-68.045
11
75.4354
21
-68.045
0
LINE
8
BLACK
6
CONTINUOUS
10
75.4354
20
-68.045
11
75.2284
21
-68.0668
0
LINE
8
BLACK
6
CONTINUOUS
10
75.2284
20
-68.0668
11
75.034
21
-68.1269
0
LINE
8
BLACK
6
CONTINUOUS
10
75.034
20
-68.1269
11
74.855
21
-68.2237
0
LINE
8
BLACK
6
CONTINUOUS
10
74.855
20
-68.2237
11
74.6983
21
-68.3534
0
LINE
8
BLACK
6
CONTINUOUS
10
74.6983
20
-68.3534
11
74.5697
21
-68.5111
0
LINE
8
BLACK
6
CONTINUOUS
10
74.5697
20
-68.5111
11
74.4741
21
-68.6907
0
LINE
8
BLACK
6
CONTINUOUS
10
74.4741
20
-68.6907
11
74.4153
21
-68.8855
0
LINE
8
BLACK
6
CONTINUOUS
10
74.4153
20
-68.8855
11
74.395
21
-69.0929
0
LINE
8
BLACK
6
CONTINUOUS
10
74.395
20
-69.0929
11
74.395
21
-87.1219
0
LINE
8
BLACK
6
CONTINUOUS
10
74.395
20
-87.1219
11
74.395
21
-87.1246
0
LINE
8
BLACK
6
CONTINUOUS
10
74.395
20
-87.1246
11
74.4168
21
-87.3316
0
LINE
8
BLACK
6
CONTINUOUS
10
74.4168
20
-87.3316
11
74.4769
21
-87.526
0
LINE
8
BLACK
6
CONTINUOUS
10
74.4769
20
-87.526
11
74.5737
21
-87.705
0
LINE
8
BLACK
6
CONTINUOUS
10
74.5737
20
-87.705
11
74.7034
21
-87.8617
0
LINE
8
BLACK
6
CONTINUOUS
10
74.7034
20
-87.8617
11
74.8611
21
-87.9903
0
LINE
8
BLACK
6
CONTINUOUS
10
74.8611
20
-87.9903
11
75.0407
21
-88.0859
0
LINE
8
BLACK
6
CONTINUOUS
10
75.0407
20
-88.0859
11
75.2355
21
-88.1447
0
LINE
8
BLACK
6
CONTINUOUS
10
75.2355
20
-88.1447
11
75.4429
21
-88.165
0
LINE
8
BLACK
6
CONTINUOUS
10
75.4429
20
-88.165
11
162.56
21
-88.165
0
LINE
8
BLACK
6
CONTINUOUS
10
162.56
20
-88.165
11
162.563
21
-88.165
0
LINE
8
BLACK
6
CONTINUOUS
10
162.563
20
-88.165
11
162.77
21
-88.1432
0
LINE
8
BLACK
6
CONTINUOUS
10
162.77
20
-88.1432
11
162.964
21
-88.0831
0
LINE
8
BLACK
6
CONTINUOUS
10
162.964
20
-88.0831
11
163.143
21
-87.9863
0
LINE
8
BLACK
6
CONTINUOUS
10
163.143
20
-87.9863
11
163.3
21
-87.8566
0
LINE
8
BLACK
6
CONTINUOUS
10
163.3
20
-87.8566
11
163.428
21
-87.6989
0
LINE
8
BLACK
6
CONTINUOUS
10
163.428
20
-87.6989
11
163.524
21
-87.5193
0
LINE
8
BLACK
6
CONTINUOUS
10
163.524
20
-87.5193
11
163.583
21
-87.3245
0
LINE
8
BLACK
6
CONTINUOUS
10
163.583
20
-87.3245
11
163.603
21
-87.1171
0
LINE
8
BLACK
6
CONTINUOUS
10
163.603
20
-87.1171
11
163.603
21
-69.0881
0
LINE
8
BLACK
6
CONTINUOUS
10
163.603
20
-69.0881
11
163.603
21
-69.0854
0
LINE
8
BLACK
6
CONTINUOUS
10
163.603
20
-69.0854
11
163.581
21
-68.8784
0
LINE
8
BLACK
6
CONTINUOUS
10
163.581
20
-68.8784
11
163.521
21
-68.684
0
LINE
8
BLACK
6
CONTINUOUS
10
163.521
20
-68.684
11
163.424
21
-68.505
0
LINE
8
BLACK
6
CONTINUOUS
10
163.424
20
-68.505
11
163.295
21
-68.3483
0
LINE
8
BLACK
6
CONTINUOUS
10
163.295
20
-68.3483
11
163.137
21
-68.2197
0
LINE
8
BLACK
6
CONTINUOUS
10
163.137
20
-68.2197
11
162.957
21
-68.1241
0
LINE
8
BLACK
6
CONTINUOUS
10
162.957
20
-68.1241
11
162.762
21
-68.0653
0
LINE
8
BLACK
6
CONTINUOUS
10
162.762
20
-68.0653
11
162.555
21
-68.045
0
LINE
8
BLACK
6
CONTINUOUS
10
162.555
20
-68.045
11
75.4381
21
-68.045
  0
ENDSEC
  0
EOF
