  0
SECTION
  2
HEADER
  9
$ANGBASE
  50
0.0
  9
$ANGDIR
  70
1
  9
$MEASUREMENT
  70
1
  0
ENDSEC
  0
SECTION
  2
TABLES
  0
TABLE
  2
LTYPE
  70
4
  0
LTYPE
  5
40F
  2
CONTINUOUS
  70
0
  3
Solid line
  72
65
  73
0
  40
0.0
  0
LTYPE
  5
410
  2
DASHDOT
 70
0
  3
Dash Dot ____ _ ____ _
 72
65
 73
4
 40
2.0
 49
1.25
 49
-0.25
 49
0.25
 49
-0.25
  0
LTYPE
  5
411
  2
DASHED
 70
0
  3
Dashed __ __ __ __ __
 72
65
 73
2
 40
0.75
 49
0.5
 49
-0.25
  0
LTYPE
  5
43B
  2
DOTTED
 70
0
  3
Dotted .  .  .  .
 72
65
 73
2
 40
0.2
 49
0.0
 49
-0.2
  0
ENDTAB
  0
TABLE
  2
STYLE
  70
4
  0
STYLE
  2
KICAD
  70
0
  40
0
  41
1
  42
1
  50
0
  71
0
  3
isocp.shx
  0
STYLE
  2
KICADB
  70
0
  40
0
  41
1
  42
1
  50
0
  71
0
  3
isocp.shx
  0
STYLE
  2
KICADI
  70
0
  40
0
  41
1
  42
1
  50
15
  71
0
  3
isocp.shx
  0
STYLE
  2
KICADBI
  70
0
  40
0
  41
1
  42
1
  50
15
  71
0
  3
isocp.shx
  0
ENDTAB
  0
TABLE
  2
LAYER
  70
1
  0
LAYER
  2
BLACK
  70
0
  62
7
  6
CONTINUOUS
  0
ENDTAB
  0
ENDSEC
  0
SECTION
  2
ENTITIES
0
LINE
8
BLACK
6
CONTINUOUS
10
144.422
20
-84.8115
11
144.595
21
-84.8831
0
LINE
8
BLACK
6
CONTINUOUS
10
144.595
20
-84.8831
11
144.751
21
-84.9871
0
LINE
8
BLACK
6
CONTINUOUS
10
144.751
20
-84.9871
11
144.883
21
-85.1194
0
LINE
8
BLACK
6
CONTINUOUS
10
144.883
20
-85.1194
11
144.987
21
-85.275
0
LINE
8
BLACK
6
CONTINUOUS
10
144.987
20
-85.275
11
145.058
21
-85.4479
0
LINE
8
BLACK
6
CONTINUOUS
10
145.058
20
-85.4479
11
145.095
21
-85.6314
0
LINE
8
BLACK
6
CONTINUOUS
10
145.095
20
-85.6314
11
145.095
21
-85.8186
0
LINE
8
BLACK
6
CONTINUOUS
10
145.095
20
-85.8186
11
145.058
21
-86.0021
0
LINE
8
BLACK
6
CONTINUOUS
10
145.058
20
-86.0021
11
144.987
21
-86.175
0
LINE
8
BLACK
6
CONTINUOUS
10
144.987
20
-86.175
11
144.883
21
-86.3306
0
LINE
8
BLACK
6
CONTINUOUS
10
144.883
20
-86.3306
11
144.751
21
-86.4629
0
LINE
8
BLACK
6
CONTINUOUS
10
144.751
20
-86.4629
11
144.595
21
-86.5669
0
LINE
8
BLACK
6
CONTINUOUS
10
144.595
20
-86.5669
11
144.422
21
-86.6385
0
LINE
8
BLACK
6
CONTINUOUS
10
144.422
20
-86.6385
11
144.239
21
-86.675
0
LINE
8
BLACK
6
CONTINUOUS
10
144.239
20
-86.675
11
144.051
21
-86.675
0
LINE
8
BLACK
6
CONTINUOUS
10
144.051
20
-86.675
11
143.868
21
-86.6385
0
LINE
8
BLACK
6
CONTINUOUS
10
143.868
20
-86.6385
11
143.695
21
-86.5669
0
LINE
8
BLACK
6
CONTINUOUS
10
143.695
20
-86.5669
11
143.539
21
-86.4629
0
LINE
8
BLACK
6
CONTINUOUS
10
143.539
20
-86.4629
11
143.407
21
-86.3306
0
LINE
8
BLACK
6
CONTINUOUS
10
143.407
20
-86.3306
11
143.303
21
-86.175
0
LINE
8
BLACK
6
CONTINUOUS
10
143.303
20
-86.175
11
143.232
21
-86.0021
0
LINE
8
BLACK
6
CONTINUOUS
10
143.232
20
-86.0021
11
143.195
21
-85.8186
0
LINE
8
BLACK
6
CONTINUOUS
10
143.195
20
-85.8186
11
143.195
21
-85.6314
0
LINE
8
BLACK
6
CONTINUOUS
10
143.195
20
-85.6314
11
143.232
21
-85.4479
0
LINE
8
BLACK
6
CONTINUOUS
10
143.232
20
-85.4479
11
143.303
21
-85.275
0
LINE
8
BLACK
6
CONTINUOUS
10
143.303
20
-85.275
11
143.407
21
-85.1194
0
LINE
8
BLACK
6
CONTINUOUS
10
143.407
20
-85.1194
11
143.539
21
-84.9871
0
LINE
8
BLACK
6
CONTINUOUS
10
143.539
20
-84.9871
11
143.695
21
-84.8831
0
LINE
8
BLACK
6
CONTINUOUS
10
143.695
20
-84.8831
11
143.868
21
-84.8115
0
LINE
8
BLACK
6
CONTINUOUS
10
143.868
20
-84.8115
11
144.051
21
-84.775
0
LINE
8
BLACK
6
CONTINUOUS
10
144.051
20
-84.775
11
144.239
21
-84.775
0
LINE
8
BLACK
6
CONTINUOUS
10
144.239
20
-84.775
11
144.422
21
-84.8115
0
LINE
8
BLACK
6
CONTINUOUS
10
124.102
20
-84.8115
11
124.275
21
-84.8831
0
LINE
8
BLACK
6
CONTINUOUS
10
124.275
20
-84.8831
11
124.431
21
-84.9871
0
LINE
8
BLACK
6
CONTINUOUS
10
124.431
20
-84.9871
11
124.563
21
-85.1194
0
LINE
8
BLACK
6
CONTINUOUS
10
124.563
20
-85.1194
11
124.667
21
-85.275
0
LINE
8
BLACK
6
CONTINUOUS
10
124.667
20
-85.275
11
124.738
21
-85.4479
0
LINE
8
BLACK
6
CONTINUOUS
10
124.738
20
-85.4479
11
124.775
21
-85.6314
0
LINE
8
BLACK
6
CONTINUOUS
10
124.775
20
-85.6314
11
124.775
21
-85.8186
0
LINE
8
BLACK
6
CONTINUOUS
10
124.775
20
-85.8186
11
124.738
21
-86.0021
0
LINE
8
BLACK
6
CONTINUOUS
10
124.738
20
-86.0021
11
124.667
21
-86.175
0
LINE
8
BLACK
6
CONTINUOUS
10
124.667
20
-86.175
11
124.563
21
-86.3306
0
LINE
8
BLACK
6
CONTINUOUS
10
124.563
20
-86.3306
11
124.431
21
-86.4629
0
LINE
8
BLACK
6
CONTINUOUS
10
124.431
20
-86.4629
11
124.275
21
-86.5669
0
LINE
8
BLACK
6
CONTINUOUS
10
124.275
20
-86.5669
11
124.102
21
-86.6385
0
LINE
8
BLACK
6
CONTINUOUS
10
124.102
20
-86.6385
11
123.919
21
-86.675
0
LINE
8
BLACK
6
CONTINUOUS
10
123.919
20
-86.675
11
123.731
21
-86.675
0
LINE
8
BLACK
6
CONTINUOUS
10
123.731
20
-86.675
11
123.548
21
-86.6385
0
LINE
8
BLACK
6
CONTINUOUS
10
123.548
20
-86.6385
11
123.375
21
-86.5669
0
LINE
8
BLACK
6
CONTINUOUS
10
123.375
20
-86.5669
11
123.219
21
-86.4629
0
LINE
8
BLACK
6
CONTINUOUS
10
123.219
20
-86.4629
11
123.087
21
-86.3306
0
LINE
8
BLACK
6
CONTINUOUS
10
123.087
20
-86.3306
11
122.983
21
-86.175
0
LINE
8
BLACK
6
CONTINUOUS
10
122.983
20
-86.175
11
122.912
21
-86.0021
0
LINE
8
BLACK
6
CONTINUOUS
10
122.912
20
-86.0021
11
122.875
21
-85.8186
0
LINE
8
BLACK
6
CONTINUOUS
10
122.875
20
-85.8186
11
122.875
21
-85.6314
0
LINE
8
BLACK
6
CONTINUOUS
10
122.875
20
-85.6314
11
122.912
21
-85.4479
0
LINE
8
BLACK
6
CONTINUOUS
10
122.912
20
-85.4479
11
122.983
21
-85.275
0
LINE
8
BLACK
6
CONTINUOUS
10
122.983
20
-85.275
11
123.087
21
-85.1194
0
LINE
8
BLACK
6
CONTINUOUS
10
123.087
20
-85.1194
11
123.219
21
-84.9871
0
LINE
8
BLACK
6
CONTINUOUS
10
123.219
20
-84.9871
11
123.375
21
-84.8831
0
LINE
8
BLACK
6
CONTINUOUS
10
123.375
20
-84.8831
11
123.548
21
-84.8115
0
LINE
8
BLACK
6
CONTINUOUS
10
123.548
20
-84.8115
11
123.731
21
-84.775
0
LINE
8
BLACK
6
CONTINUOUS
10
123.731
20
-84.775
11
123.919
21
-84.775
0
LINE
8
BLACK
6
CONTINUOUS
10
123.919
20
-84.775
11
124.102
21
-84.8115
0
LINE
8
BLACK
6
CONTINUOUS
10
126.642
20
-84.8115
11
126.815
21
-84.8831
0
LINE
8
BLACK
6
CONTINUOUS
10
126.815
20
-84.8831
11
126.971
21
-84.9871
0
LINE
8
BLACK
6
CONTINUOUS
10
126.971
20
-84.9871
11
127.103
21
-85.1194
0
LINE
8
BLACK
6
CONTINUOUS
10
127.103
20
-85.1194
11
127.207
21
-85.275
0
LINE
8
BLACK
6
CONTINUOUS
10
127.207
20
-85.275
11
127.278
21
-85.4479
0
LINE
8
BLACK
6
CONTINUOUS
10
127.278
20
-85.4479
11
127.315
21
-85.6314
0
LINE
8
BLACK
6
CONTINUOUS
10
127.315
20
-85.6314
11
127.315
21
-85.8186
0
LINE
8
BLACK
6
CONTINUOUS
10
127.315
20
-85.8186
11
127.278
21
-86.0021
0
LINE
8
BLACK
6
CONTINUOUS
10
127.278
20
-86.0021
11
127.207
21
-86.175
0
LINE
8
BLACK
6
CONTINUOUS
10
127.207
20
-86.175
11
127.103
21
-86.3306
0
LINE
8
BLACK
6
CONTINUOUS
10
127.103
20
-86.3306
11
126.971
21
-86.4629
0
LINE
8
BLACK
6
CONTINUOUS
10
126.971
20
-86.4629
11
126.815
21
-86.5669
0
LINE
8
BLACK
6
CONTINUOUS
10
126.815
20
-86.5669
11
126.642
21
-86.6385
0
LINE
8
BLACK
6
CONTINUOUS
10
126.642
20
-86.6385
11
126.459
21
-86.675
0
LINE
8
BLACK
6
CONTINUOUS
10
126.459
20
-86.675
11
126.271
21
-86.675
0
LINE
8
BLACK
6
CONTINUOUS
10
126.271
20
-86.675
11
126.088
21
-86.6385
0
LINE
8
BLACK
6
CONTINUOUS
10
126.088
20
-86.6385
11
125.915
21
-86.5669
0
LINE
8
BLACK
6
CONTINUOUS
10
125.915
20
-86.5669
11
125.759
21
-86.4629
0
LINE
8
BLACK
6
CONTINUOUS
10
125.759
20
-86.4629
11
125.627
21
-86.3306
0
LINE
8
BLACK
6
CONTINUOUS
10
125.627
20
-86.3306
11
125.523
21
-86.175
0
LINE
8
BLACK
6
CONTINUOUS
10
125.523
20
-86.175
11
125.452
21
-86.0021
0
LINE
8
BLACK
6
CONTINUOUS
10
125.452
20
-86.0021
11
125.415
21
-85.8186
0
LINE
8
BLACK
6
CONTINUOUS
10
125.415
20
-85.8186
11
125.415
21
-85.6314
0
LINE
8
BLACK
6
CONTINUOUS
10
125.415
20
-85.6314
11
125.452
21
-85.4479
0
LINE
8
BLACK
6
CONTINUOUS
10
125.452
20
-85.4479
11
125.523
21
-85.275
0
LINE
8
BLACK
6
CONTINUOUS
10
125.523
20
-85.275
11
125.627
21
-85.1194
0
LINE
8
BLACK
6
CONTINUOUS
10
125.627
20
-85.1194
11
125.759
21
-84.9871
0
LINE
8
BLACK
6
CONTINUOUS
10
125.759
20
-84.9871
11
125.915
21
-84.8831
0
LINE
8
BLACK
6
CONTINUOUS
10
125.915
20
-84.8831
11
126.088
21
-84.8115
0
LINE
8
BLACK
6
CONTINUOUS
10
126.088
20
-84.8115
11
126.271
21
-84.775
0
LINE
8
BLACK
6
CONTINUOUS
10
126.271
20
-84.775
11
126.459
21
-84.775
0
LINE
8
BLACK
6
CONTINUOUS
10
126.459
20
-84.775
11
126.642
21
-84.8115
0
LINE
8
BLACK
6
CONTINUOUS
10
129.182
20
-84.8115
11
129.355
21
-84.8831
0
LINE
8
BLACK
6
CONTINUOUS
10
129.355
20
-84.8831
11
129.511
21
-84.9871
0
LINE
8
BLACK
6
CONTINUOUS
10
129.511
20
-84.9871
11
129.643
21
-85.1194
0
LINE
8
BLACK
6
CONTINUOUS
10
129.643
20
-85.1194
11
129.747
21
-85.275
0
LINE
8
BLACK
6
CONTINUOUS
10
129.747
20
-85.275
11
129.818
21
-85.4479
0
LINE
8
BLACK
6
CONTINUOUS
10
129.818
20
-85.4479
11
129.855
21
-85.6314
0
LINE
8
BLACK
6
CONTINUOUS
10
129.855
20
-85.6314
11
129.855
21
-85.8186
0
LINE
8
BLACK
6
CONTINUOUS
10
129.855
20
-85.8186
11
129.818
21
-86.0021
0
LINE
8
BLACK
6
CONTINUOUS
10
129.818
20
-86.0021
11
129.747
21
-86.175
0
LINE
8
BLACK
6
CONTINUOUS
10
129.747
20
-86.175
11
129.643
21
-86.3306
0
LINE
8
BLACK
6
CONTINUOUS
10
129.643
20
-86.3306
11
129.511
21
-86.4629
0
LINE
8
BLACK
6
CONTINUOUS
10
129.511
20
-86.4629
11
129.355
21
-86.5669
0
LINE
8
BLACK
6
CONTINUOUS
10
129.355
20
-86.5669
11
129.182
21
-86.6385
0
LINE
8
BLACK
6
CONTINUOUS
10
129.182
20
-86.6385
11
128.999
21
-86.675
0
LINE
8
BLACK
6
CONTINUOUS
10
128.999
20
-86.675
11
128.811
21
-86.675
0
LINE
8
BLACK
6
CONTINUOUS
10
128.811
20
-86.675
11
128.628
21
-86.6385
0
LINE
8
BLACK
6
CONTINUOUS
10
128.628
20
-86.6385
11
128.455
21
-86.5669
0
LINE
8
BLACK
6
CONTINUOUS
10
128.455
20
-86.5669
11
128.299
21
-86.4629
0
LINE
8
BLACK
6
CONTINUOUS
10
128.299
20
-86.4629
11
128.167
21
-86.3306
0
LINE
8
BLACK
6
CONTINUOUS
10
128.167
20
-86.3306
11
128.063
21
-86.175
0
LINE
8
BLACK
6
CONTINUOUS
10
128.063
20
-86.175
11
127.992
21
-86.0021
0
LINE
8
BLACK
6
CONTINUOUS
10
127.992
20
-86.0021
11
127.955
21
-85.8186
0
LINE
8
BLACK
6
CONTINUOUS
10
127.955
20
-85.8186
11
127.955
21
-85.6314
0
LINE
8
BLACK
6
CONTINUOUS
10
127.955
20
-85.6314
11
127.992
21
-85.4479
0
LINE
8
BLACK
6
CONTINUOUS
10
127.992
20
-85.4479
11
128.063
21
-85.275
0
LINE
8
BLACK
6
CONTINUOUS
10
128.063
20
-85.275
11
128.167
21
-85.1194
0
LINE
8
BLACK
6
CONTINUOUS
10
128.167
20
-85.1194
11
128.299
21
-84.9871
0
LINE
8
BLACK
6
CONTINUOUS
10
128.299
20
-84.9871
11
128.455
21
-84.8831
0
LINE
8
BLACK
6
CONTINUOUS
10
128.455
20
-84.8831
11
128.628
21
-84.8115
0
LINE
8
BLACK
6
CONTINUOUS
10
128.628
20
-84.8115
11
128.811
21
-84.775
0
LINE
8
BLACK
6
CONTINUOUS
10
128.811
20
-84.775
11
128.999
21
-84.775
0
LINE
8
BLACK
6
CONTINUOUS
10
128.999
20
-84.775
11
129.182
21
-84.8115
0
LINE
8
BLACK
6
CONTINUOUS
10
131.722
20
-84.8115
11
131.895
21
-84.8831
0
LINE
8
BLACK
6
CONTINUOUS
10
131.895
20
-84.8831
11
132.051
21
-84.9871
0
LINE
8
BLACK
6
CONTINUOUS
10
132.051
20
-84.9871
11
132.183
21
-85.1194
0
LINE
8
BLACK
6
CONTINUOUS
10
132.183
20
-85.1194
11
132.287
21
-85.275
0
LINE
8
BLACK
6
CONTINUOUS
10
132.287
20
-85.275
11
132.358
21
-85.4479
0
LINE
8
BLACK
6
CONTINUOUS
10
132.358
20
-85.4479
11
132.395
21
-85.6314
0
LINE
8
BLACK
6
CONTINUOUS
10
132.395
20
-85.6314
11
132.395
21
-85.8186
0
LINE
8
BLACK
6
CONTINUOUS
10
132.395
20
-85.8186
11
132.358
21
-86.0021
0
LINE
8
BLACK
6
CONTINUOUS
10
132.358
20
-86.0021
11
132.287
21
-86.175
0
LINE
8
BLACK
6
CONTINUOUS
10
132.287
20
-86.175
11
132.183
21
-86.3306
0
LINE
8
BLACK
6
CONTINUOUS
10
132.183
20
-86.3306
11
132.051
21
-86.4629
0
LINE
8
BLACK
6
CONTINUOUS
10
132.051
20
-86.4629
11
131.895
21
-86.5669
0
LINE
8
BLACK
6
CONTINUOUS
10
131.895
20
-86.5669
11
131.722
21
-86.6385
0
LINE
8
BLACK
6
CONTINUOUS
10
131.722
20
-86.6385
11
131.539
21
-86.675
0
LINE
8
BLACK
6
CONTINUOUS
10
131.539
20
-86.675
11
131.351
21
-86.675
0
LINE
8
BLACK
6
CONTINUOUS
10
131.351
20
-86.675
11
131.168
21
-86.6385
0
LINE
8
BLACK
6
CONTINUOUS
10
131.168
20
-86.6385
11
130.995
21
-86.5669
0
LINE
8
BLACK
6
CONTINUOUS
10
130.995
20
-86.5669
11
130.839
21
-86.4629
0
LINE
8
BLACK
6
CONTINUOUS
10
130.839
20
-86.4629
11
130.707
21
-86.3306
0
LINE
8
BLACK
6
CONTINUOUS
10
130.707
20
-86.3306
11
130.603
21
-86.175
0
LINE
8
BLACK
6
CONTINUOUS
10
130.603
20
-86.175
11
130.532
21
-86.0021
0
LINE
8
BLACK
6
CONTINUOUS
10
130.532
20
-86.0021
11
130.495
21
-85.8186
0
LINE
8
BLACK
6
CONTINUOUS
10
130.495
20
-85.8186
11
130.495
21
-85.6314
0
LINE
8
BLACK
6
CONTINUOUS
10
130.495
20
-85.6314
11
130.532
21
-85.4479
0
LINE
8
BLACK
6
CONTINUOUS
10
130.532
20
-85.4479
11
130.603
21
-85.275
0
LINE
8
BLACK
6
CONTINUOUS
10
130.603
20
-85.275
11
130.707
21
-85.1194
0
LINE
8
BLACK
6
CONTINUOUS
10
130.707
20
-85.1194
11
130.839
21
-84.9871
0
LINE
8
BLACK
6
CONTINUOUS
10
130.839
20
-84.9871
11
130.995
21
-84.8831
0
LINE
8
BLACK
6
CONTINUOUS
10
130.995
20
-84.8831
11
131.168
21
-84.8115
0
LINE
8
BLACK
6
CONTINUOUS
10
131.168
20
-84.8115
11
131.351
21
-84.775
0
LINE
8
BLACK
6
CONTINUOUS
10
131.351
20
-84.775
11
131.539
21
-84.775
0
LINE
8
BLACK
6
CONTINUOUS
10
131.539
20
-84.775
11
131.722
21
-84.8115
0
LINE
8
BLACK
6
CONTINUOUS
10
134.262
20
-84.8115
11
134.435
21
-84.8831
0
LINE
8
BLACK
6
CONTINUOUS
10
134.435
20
-84.8831
11
134.591
21
-84.9871
0
LINE
8
BLACK
6
CONTINUOUS
10
134.591
20
-84.9871
11
134.723
21
-85.1194
0
LINE
8
BLACK
6
CONTINUOUS
10
134.723
20
-85.1194
11
134.827
21
-85.275
0
LINE
8
BLACK
6
CONTINUOUS
10
134.827
20
-85.275
11
134.898
21
-85.4479
0
LINE
8
BLACK
6
CONTINUOUS
10
134.898
20
-85.4479
11
134.935
21
-85.6314
0
LINE
8
BLACK
6
CONTINUOUS
10
134.935
20
-85.6314
11
134.935
21
-85.8186
0
LINE
8
BLACK
6
CONTINUOUS
10
134.935
20
-85.8186
11
134.898
21
-86.0021
0
LINE
8
BLACK
6
CONTINUOUS
10
134.898
20
-86.0021
11
134.827
21
-86.175
0
LINE
8
BLACK
6
CONTINUOUS
10
134.827
20
-86.175
11
134.723
21
-86.3306
0
LINE
8
BLACK
6
CONTINUOUS
10
134.723
20
-86.3306
11
134.591
21
-86.4629
0
LINE
8
BLACK
6
CONTINUOUS
10
134.591
20
-86.4629
11
134.435
21
-86.5669
0
LINE
8
BLACK
6
CONTINUOUS
10
134.435
20
-86.5669
11
134.262
21
-86.6385
0
LINE
8
BLACK
6
CONTINUOUS
10
134.262
20
-86.6385
11
134.079
21
-86.675
0
LINE
8
BLACK
6
CONTINUOUS
10
134.079
20
-86.675
11
133.891
21
-86.675
0
LINE
8
BLACK
6
CONTINUOUS
10
133.891
20
-86.675
11
133.708
21
-86.6385
0
LINE
8
BLACK
6
CONTINUOUS
10
133.708
20
-86.6385
11
133.535
21
-86.5669
0
LINE
8
BLACK
6
CONTINUOUS
10
133.535
20
-86.5669
11
133.379
21
-86.4629
0
LINE
8
BLACK
6
CONTINUOUS
10
133.379
20
-86.4629
11
133.247
21
-86.3306
0
LINE
8
BLACK
6
CONTINUOUS
10
133.247
20
-86.3306
11
133.143
21
-86.175
0
LINE
8
BLACK
6
CONTINUOUS
10
133.143
20
-86.175
11
133.072
21
-86.0021
0
LINE
8
BLACK
6
CONTINUOUS
10
133.072
20
-86.0021
11
133.035
21
-85.8186
0
LINE
8
BLACK
6
CONTINUOUS
10
133.035
20
-85.8186
11
133.035
21
-85.6314
0
LINE
8
BLACK
6
CONTINUOUS
10
133.035
20
-85.6314
11
133.072
21
-85.4479
0
LINE
8
BLACK
6
CONTINUOUS
10
133.072
20
-85.4479
11
133.143
21
-85.275
0
LINE
8
BLACK
6
CONTINUOUS
10
133.143
20
-85.275
11
133.247
21
-85.1194
0
LINE
8
BLACK
6
CONTINUOUS
10
133.247
20
-85.1194
11
133.379
21
-84.9871
0
LINE
8
BLACK
6
CONTINUOUS
10
133.379
20
-84.9871
11
133.535
21
-84.8831
0
LINE
8
BLACK
6
CONTINUOUS
10
133.535
20
-84.8831
11
133.708
21
-84.8115
0
LINE
8
BLACK
6
CONTINUOUS
10
133.708
20
-84.8115
11
133.891
21
-84.775
0
LINE
8
BLACK
6
CONTINUOUS
10
133.891
20
-84.775
11
134.079
21
-84.775
0
LINE
8
BLACK
6
CONTINUOUS
10
134.079
20
-84.775
11
134.262
21
-84.8115
0
LINE
8
BLACK
6
CONTINUOUS
10
136.802
20
-84.8115
11
136.975
21
-84.8831
0
LINE
8
BLACK
6
CONTINUOUS
10
136.975
20
-84.8831
11
137.131
21
-84.9871
0
LINE
8
BLACK
6
CONTINUOUS
10
137.131
20
-84.9871
11
137.263
21
-85.1194
0
LINE
8
BLACK
6
CONTINUOUS
10
137.263
20
-85.1194
11
137.367
21
-85.275
0
LINE
8
BLACK
6
CONTINUOUS
10
137.367
20
-85.275
11
137.438
21
-85.4479
0
LINE
8
BLACK
6
CONTINUOUS
10
137.438
20
-85.4479
11
137.475
21
-85.6314
0
LINE
8
BLACK
6
CONTINUOUS
10
137.475
20
-85.6314
11
137.475
21
-85.8186
0
LINE
8
BLACK
6
CONTINUOUS
10
137.475
20
-85.8186
11
137.438
21
-86.0021
0
LINE
8
BLACK
6
CONTINUOUS
10
137.438
20
-86.0021
11
137.367
21
-86.175
0
LINE
8
BLACK
6
CONTINUOUS
10
137.367
20
-86.175
11
137.263
21
-86.3306
0
LINE
8
BLACK
6
CONTINUOUS
10
137.263
20
-86.3306
11
137.131
21
-86.4629
0
LINE
8
BLACK
6
CONTINUOUS
10
137.131
20
-86.4629
11
136.975
21
-86.5669
0
LINE
8
BLACK
6
CONTINUOUS
10
136.975
20
-86.5669
11
136.802
21
-86.6385
0
LINE
8
BLACK
6
CONTINUOUS
10
136.802
20
-86.6385
11
136.619
21
-86.675
0
LINE
8
BLACK
6
CONTINUOUS
10
136.619
20
-86.675
11
136.431
21
-86.675
0
LINE
8
BLACK
6
CONTINUOUS
10
136.431
20
-86.675
11
136.248
21
-86.6385
0
LINE
8
BLACK
6
CONTINUOUS
10
136.248
20
-86.6385
11
136.075
21
-86.5669
0
LINE
8
BLACK
6
CONTINUOUS
10
136.075
20
-86.5669
11
135.919
21
-86.4629
0
LINE
8
BLACK
6
CONTINUOUS
10
135.919
20
-86.4629
11
135.787
21
-86.3306
0
LINE
8
BLACK
6
CONTINUOUS
10
135.787
20
-86.3306
11
135.683
21
-86.175
0
LINE
8
BLACK
6
CONTINUOUS
10
135.683
20
-86.175
11
135.612
21
-86.0021
0
LINE
8
BLACK
6
CONTINUOUS
10
135.612
20
-86.0021
11
135.575
21
-85.8186
0
LINE
8
BLACK
6
CONTINUOUS
10
135.575
20
-85.8186
11
135.575
21
-85.6314
0
LINE
8
BLACK
6
CONTINUOUS
10
135.575
20
-85.6314
11
135.612
21
-85.4479
0
LINE
8
BLACK
6
CONTINUOUS
10
135.612
20
-85.4479
11
135.683
21
-85.275
0
LINE
8
BLACK
6
CONTINUOUS
10
135.683
20
-85.275
11
135.787
21
-85.1194
0
LINE
8
BLACK
6
CONTINUOUS
10
135.787
20
-85.1194
11
135.919
21
-84.9871
0
LINE
8
BLACK
6
CONTINUOUS
10
135.919
20
-84.9871
11
136.075
21
-84.8831
0
LINE
8
BLACK
6
CONTINUOUS
10
136.075
20
-84.8831
11
136.248
21
-84.8115
0
LINE
8
BLACK
6
CONTINUOUS
10
136.248
20
-84.8115
11
136.431
21
-84.775
0
LINE
8
BLACK
6
CONTINUOUS
10
136.431
20
-84.775
11
136.619
21
-84.775
0
LINE
8
BLACK
6
CONTINUOUS
10
136.619
20
-84.775
11
136.802
21
-84.8115
0
LINE
8
BLACK
6
CONTINUOUS
10
139.342
20
-84.8115
11
139.515
21
-84.8831
0
LINE
8
BLACK
6
CONTINUOUS
10
139.515
20
-84.8831
11
139.671
21
-84.9871
0
LINE
8
BLACK
6
CONTINUOUS
10
139.671
20
-84.9871
11
139.803
21
-85.1194
0
LINE
8
BLACK
6
CONTINUOUS
10
139.803
20
-85.1194
11
139.907
21
-85.275
0
LINE
8
BLACK
6
CONTINUOUS
10
139.907
20
-85.275
11
139.978
21
-85.4479
0
LINE
8
BLACK
6
CONTINUOUS
10
139.978
20
-85.4479
11
140.015
21
-85.6314
0
LINE
8
BLACK
6
CONTINUOUS
10
140.015
20
-85.6314
11
140.015
21
-85.8186
0
LINE
8
BLACK
6
CONTINUOUS
10
140.015
20
-85.8186
11
139.978
21
-86.0021
0
LINE
8
BLACK
6
CONTINUOUS
10
139.978
20
-86.0021
11
139.907
21
-86.175
0
LINE
8
BLACK
6
CONTINUOUS
10
139.907
20
-86.175
11
139.803
21
-86.3306
0
LINE
8
BLACK
6
CONTINUOUS
10
139.803
20
-86.3306
11
139.671
21
-86.4629
0
LINE
8
BLACK
6
CONTINUOUS
10
139.671
20
-86.4629
11
139.515
21
-86.5669
0
LINE
8
BLACK
6
CONTINUOUS
10
139.515
20
-86.5669
11
139.342
21
-86.6385
0
LINE
8
BLACK
6
CONTINUOUS
10
139.342
20
-86.6385
11
139.159
21
-86.675
0
LINE
8
BLACK
6
CONTINUOUS
10
139.159
20
-86.675
11
138.971
21
-86.675
0
LINE
8
BLACK
6
CONTINUOUS
10
138.971
20
-86.675
11
138.788
21
-86.6385
0
LINE
8
BLACK
6
CONTINUOUS
10
138.788
20
-86.6385
11
138.615
21
-86.5669
0
LINE
8
BLACK
6
CONTINUOUS
10
138.615
20
-86.5669
11
138.459
21
-86.4629
0
LINE
8
BLACK
6
CONTINUOUS
10
138.459
20
-86.4629
11
138.327
21
-86.3306
0
LINE
8
BLACK
6
CONTINUOUS
10
138.327
20
-86.3306
11
138.223
21
-86.175
0
LINE
8
BLACK
6
CONTINUOUS
10
138.223
20
-86.175
11
138.152
21
-86.0021
0
LINE
8
BLACK
6
CONTINUOUS
10
138.152
20
-86.0021
11
138.115
21
-85.8186
0
LINE
8
BLACK
6
CONTINUOUS
10
138.115
20
-85.8186
11
138.115
21
-85.6314
0
LINE
8
BLACK
6
CONTINUOUS
10
138.115
20
-85.6314
11
138.152
21
-85.4479
0
LINE
8
BLACK
6
CONTINUOUS
10
138.152
20
-85.4479
11
138.223
21
-85.275
0
LINE
8
BLACK
6
CONTINUOUS
10
138.223
20
-85.275
11
138.327
21
-85.1194
0
LINE
8
BLACK
6
CONTINUOUS
10
138.327
20
-85.1194
11
138.459
21
-84.9871
0
LINE
8
BLACK
6
CONTINUOUS
10
138.459
20
-84.9871
11
138.615
21
-84.8831
0
LINE
8
BLACK
6
CONTINUOUS
10
138.615
20
-84.8831
11
138.788
21
-84.8115
0
LINE
8
BLACK
6
CONTINUOUS
10
138.788
20
-84.8115
11
138.971
21
-84.775
0
LINE
8
BLACK
6
CONTINUOUS
10
138.971
20
-84.775
11
139.159
21
-84.775
0
LINE
8
BLACK
6
CONTINUOUS
10
139.159
20
-84.775
11
139.342
21
-84.8115
0
LINE
8
BLACK
6
CONTINUOUS
10
141.882
20
-84.8115
11
142.055
21
-84.8831
0
LINE
8
BLACK
6
CONTINUOUS
10
142.055
20
-84.8831
11
142.211
21
-84.9871
0
LINE
8
BLACK
6
CONTINUOUS
10
142.211
20
-84.9871
11
142.343
21
-85.1194
0
LINE
8
BLACK
6
CONTINUOUS
10
142.343
20
-85.1194
11
142.447
21
-85.275
0
LINE
8
BLACK
6
CONTINUOUS
10
142.447
20
-85.275
11
142.518
21
-85.4479
0
LINE
8
BLACK
6
CONTINUOUS
10
142.518
20
-85.4479
11
142.555
21
-85.6314
0
LINE
8
BLACK
6
CONTINUOUS
10
142.555
20
-85.6314
11
142.555
21
-85.8186
0
LINE
8
BLACK
6
CONTINUOUS
10
142.555
20
-85.8186
11
142.518
21
-86.0021
0
LINE
8
BLACK
6
CONTINUOUS
10
142.518
20
-86.0021
11
142.447
21
-86.175
0
LINE
8
BLACK
6
CONTINUOUS
10
142.447
20
-86.175
11
142.343
21
-86.3306
0
LINE
8
BLACK
6
CONTINUOUS
10
142.343
20
-86.3306
11
142.211
21
-86.4629
0
LINE
8
BLACK
6
CONTINUOUS
10
142.211
20
-86.4629
11
142.055
21
-86.5669
0
LINE
8
BLACK
6
CONTINUOUS
10
142.055
20
-86.5669
11
141.882
21
-86.6385
0
LINE
8
BLACK
6
CONTINUOUS
10
141.882
20
-86.6385
11
141.699
21
-86.675
0
LINE
8
BLACK
6
CONTINUOUS
10
141.699
20
-86.675
11
141.511
21
-86.675
0
LINE
8
BLACK
6
CONTINUOUS
10
141.511
20
-86.675
11
141.328
21
-86.6385
0
LINE
8
BLACK
6
CONTINUOUS
10
141.328
20
-86.6385
11
141.155
21
-86.5669
0
LINE
8
BLACK
6
CONTINUOUS
10
141.155
20
-86.5669
11
140.999
21
-86.4629
0
LINE
8
BLACK
6
CONTINUOUS
10
140.999
20
-86.4629
11
140.867
21
-86.3306
0
LINE
8
BLACK
6
CONTINUOUS
10
140.867
20
-86.3306
11
140.763
21
-86.175
0
LINE
8
BLACK
6
CONTINUOUS
10
140.763
20
-86.175
11
140.692
21
-86.0021
0
LINE
8
BLACK
6
CONTINUOUS
10
140.692
20
-86.0021
11
140.655
21
-85.8186
0
LINE
8
BLACK
6
CONTINUOUS
10
140.655
20
-85.8186
11
140.655
21
-85.6314
0
LINE
8
BLACK
6
CONTINUOUS
10
140.655
20
-85.6314
11
140.692
21
-85.4479
0
LINE
8
BLACK
6
CONTINUOUS
10
140.692
20
-85.4479
11
140.763
21
-85.275
0
LINE
8
BLACK
6
CONTINUOUS
10
140.763
20
-85.275
11
140.867
21
-85.1194
0
LINE
8
BLACK
6
CONTINUOUS
10
140.867
20
-85.1194
11
140.999
21
-84.9871
0
LINE
8
BLACK
6
CONTINUOUS
10
140.999
20
-84.9871
11
141.155
21
-84.8831
0
LINE
8
BLACK
6
CONTINUOUS
10
141.155
20
-84.8831
11
141.328
21
-84.8115
0
LINE
8
BLACK
6
CONTINUOUS
10
141.328
20
-84.8115
11
141.511
21
-84.775
0
LINE
8
BLACK
6
CONTINUOUS
10
141.511
20
-84.775
11
141.699
21
-84.775
0
LINE
8
BLACK
6
CONTINUOUS
10
141.699
20
-84.775
11
141.882
21
-84.8115
0
LINE
8
BLACK
6
CONTINUOUS
10
103.782
20
-84.8115
11
103.955
21
-84.8831
0
LINE
8
BLACK
6
CONTINUOUS
10
103.955
20
-84.8831
11
104.111
21
-84.9871
0
LINE
8
BLACK
6
CONTINUOUS
10
104.111
20
-84.9871
11
104.243
21
-85.1194
0
LINE
8
BLACK
6
CONTINUOUS
10
104.243
20
-85.1194
11
104.347
21
-85.275
0
LINE
8
BLACK
6
CONTINUOUS
10
104.347
20
-85.275
11
104.418
21
-85.4479
0
LINE
8
BLACK
6
CONTINUOUS
10
104.418
20
-85.4479
11
104.455
21
-85.6314
0
LINE
8
BLACK
6
CONTINUOUS
10
104.455
20
-85.6314
11
104.455
21
-85.8186
0
LINE
8
BLACK
6
CONTINUOUS
10
104.455
20
-85.8186
11
104.418
21
-86.0021
0
LINE
8
BLACK
6
CONTINUOUS
10
104.418
20
-86.0021
11
104.347
21
-86.175
0
LINE
8
BLACK
6
CONTINUOUS
10
104.347
20
-86.175
11
104.243
21
-86.3306
0
LINE
8
BLACK
6
CONTINUOUS
10
104.243
20
-86.3306
11
104.111
21
-86.4629
0
LINE
8
BLACK
6
CONTINUOUS
10
104.111
20
-86.4629
11
103.955
21
-86.5669
0
LINE
8
BLACK
6
CONTINUOUS
10
103.955
20
-86.5669
11
103.782
21
-86.6385
0
LINE
8
BLACK
6
CONTINUOUS
10
103.782
20
-86.6385
11
103.599
21
-86.675
0
LINE
8
BLACK
6
CONTINUOUS
10
103.599
20
-86.675
11
103.411
21
-86.675
0
LINE
8
BLACK
6
CONTINUOUS
10
103.411
20
-86.675
11
103.228
21
-86.6385
0
LINE
8
BLACK
6
CONTINUOUS
10
103.228
20
-86.6385
11
103.055
21
-86.5669
0
LINE
8
BLACK
6
CONTINUOUS
10
103.055
20
-86.5669
11
102.899
21
-86.4629
0
LINE
8
BLACK
6
CONTINUOUS
10
102.899
20
-86.4629
11
102.767
21
-86.3306
0
LINE
8
BLACK
6
CONTINUOUS
10
102.767
20
-86.3306
11
102.663
21
-86.175
0
LINE
8
BLACK
6
CONTINUOUS
10
102.663
20
-86.175
11
102.592
21
-86.0021
0
LINE
8
BLACK
6
CONTINUOUS
10
102.592
20
-86.0021
11
102.555
21
-85.8186
0
LINE
8
BLACK
6
CONTINUOUS
10
102.555
20
-85.8186
11
102.555
21
-85.6314
0
LINE
8
BLACK
6
CONTINUOUS
10
102.555
20
-85.6314
11
102.592
21
-85.4479
0
LINE
8
BLACK
6
CONTINUOUS
10
102.592
20
-85.4479
11
102.663
21
-85.275
0
LINE
8
BLACK
6
CONTINUOUS
10
102.663
20
-85.275
11
102.767
21
-85.1194
0
LINE
8
BLACK
6
CONTINUOUS
10
102.767
20
-85.1194
11
102.899
21
-84.9871
0
LINE
8
BLACK
6
CONTINUOUS
10
102.899
20
-84.9871
11
103.055
21
-84.8831
0
LINE
8
BLACK
6
CONTINUOUS
10
103.055
20
-84.8831
11
103.228
21
-84.8115
0
LINE
8
BLACK
6
CONTINUOUS
10
103.228
20
-84.8115
11
103.411
21
-84.775
0
LINE
8
BLACK
6
CONTINUOUS
10
103.411
20
-84.775
11
103.599
21
-84.775
0
LINE
8
BLACK
6
CONTINUOUS
10
103.599
20
-84.775
11
103.782
21
-84.8115
0
LINE
8
BLACK
6
CONTINUOUS
10
146.962
20
-84.8115
11
147.135
21
-84.8831
0
LINE
8
BLACK
6
CONTINUOUS
10
147.135
20
-84.8831
11
147.291
21
-84.9871
0
LINE
8
BLACK
6
CONTINUOUS
10
147.291
20
-84.9871
11
147.423
21
-85.1194
0
LINE
8
BLACK
6
CONTINUOUS
10
147.423
20
-85.1194
11
147.527
21
-85.275
0
LINE
8
BLACK
6
CONTINUOUS
10
147.527
20
-85.275
11
147.598
21
-85.4479
0
LINE
8
BLACK
6
CONTINUOUS
10
147.598
20
-85.4479
11
147.635
21
-85.6314
0
LINE
8
BLACK
6
CONTINUOUS
10
147.635
20
-85.6314
11
147.635
21
-85.8186
0
LINE
8
BLACK
6
CONTINUOUS
10
147.635
20
-85.8186
11
147.598
21
-86.0021
0
LINE
8
BLACK
6
CONTINUOUS
10
147.598
20
-86.0021
11
147.527
21
-86.175
0
LINE
8
BLACK
6
CONTINUOUS
10
147.527
20
-86.175
11
147.423
21
-86.3306
0
LINE
8
BLACK
6
CONTINUOUS
10
147.423
20
-86.3306
11
147.291
21
-86.4629
0
LINE
8
BLACK
6
CONTINUOUS
10
147.291
20
-86.4629
11
147.135
21
-86.5669
0
LINE
8
BLACK
6
CONTINUOUS
10
147.135
20
-86.5669
11
146.962
21
-86.6385
0
LINE
8
BLACK
6
CONTINUOUS
10
146.962
20
-86.6385
11
146.779
21
-86.675
0
LINE
8
BLACK
6
CONTINUOUS
10
146.779
20
-86.675
11
146.591
21
-86.675
0
LINE
8
BLACK
6
CONTINUOUS
10
146.591
20
-86.675
11
146.408
21
-86.6385
0
LINE
8
BLACK
6
CONTINUOUS
10
146.408
20
-86.6385
11
146.235
21
-86.5669
0
LINE
8
BLACK
6
CONTINUOUS
10
146.235
20
-86.5669
11
146.079
21
-86.4629
0
LINE
8
BLACK
6
CONTINUOUS
10
146.079
20
-86.4629
11
145.947
21
-86.3306
0
LINE
8
BLACK
6
CONTINUOUS
10
145.947
20
-86.3306
11
145.843
21
-86.175
0
LINE
8
BLACK
6
CONTINUOUS
10
145.843
20
-86.175
11
145.772
21
-86.0021
0
LINE
8
BLACK
6
CONTINUOUS
10
145.772
20
-86.0021
11
145.735
21
-85.8186
0
LINE
8
BLACK
6
CONTINUOUS
10
145.735
20
-85.8186
11
145.735
21
-85.6314
0
LINE
8
BLACK
6
CONTINUOUS
10
145.735
20
-85.6314
11
145.772
21
-85.4479
0
LINE
8
BLACK
6
CONTINUOUS
10
145.772
20
-85.4479
11
145.843
21
-85.275
0
LINE
8
BLACK
6
CONTINUOUS
10
145.843
20
-85.275
11
145.947
21
-85.1194
0
LINE
8
BLACK
6
CONTINUOUS
10
145.947
20
-85.1194
11
146.079
21
-84.9871
0
LINE
8
BLACK
6
CONTINUOUS
10
146.079
20
-84.9871
11
146.235
21
-84.8831
0
LINE
8
BLACK
6
CONTINUOUS
10
146.235
20
-84.8831
11
146.408
21
-84.8115
0
LINE
8
BLACK
6
CONTINUOUS
10
146.408
20
-84.8115
11
146.591
21
-84.775
0
LINE
8
BLACK
6
CONTINUOUS
10
146.591
20
-84.775
11
146.779
21
-84.775
0
LINE
8
BLACK
6
CONTINUOUS
10
146.779
20
-84.775
11
146.962
21
-84.8115
0
LINE
8
BLACK
6
CONTINUOUS
10
149.502
20
-84.8115
11
149.675
21
-84.8831
0
LINE
8
BLACK
6
CONTINUOUS
10
149.675
20
-84.8831
11
149.831
21
-84.9871
0
LINE
8
BLACK
6
CONTINUOUS
10
149.831
20
-84.9871
11
149.963
21
-85.1194
0
LINE
8
BLACK
6
CONTINUOUS
10
149.963
20
-85.1194
11
150.067
21
-85.275
0
LINE
8
BLACK
6
CONTINUOUS
10
150.067
20
-85.275
11
150.138
21
-85.4479
0
LINE
8
BLACK
6
CONTINUOUS
10
150.138
20
-85.4479
11
150.175
21
-85.6314
0
LINE
8
BLACK
6
CONTINUOUS
10
150.175
20
-85.6314
11
150.175
21
-85.8186
0
LINE
8
BLACK
6
CONTINUOUS
10
150.175
20
-85.8186
11
150.138
21
-86.0021
0
LINE
8
BLACK
6
CONTINUOUS
10
150.138
20
-86.0021
11
150.067
21
-86.175
0
LINE
8
BLACK
6
CONTINUOUS
10
150.067
20
-86.175
11
149.963
21
-86.3306
0
LINE
8
BLACK
6
CONTINUOUS
10
149.963
20
-86.3306
11
149.831
21
-86.4629
0
LINE
8
BLACK
6
CONTINUOUS
10
149.831
20
-86.4629
11
149.675
21
-86.5669
0
LINE
8
BLACK
6
CONTINUOUS
10
149.675
20
-86.5669
11
149.502
21
-86.6385
0
LINE
8
BLACK
6
CONTINUOUS
10
149.502
20
-86.6385
11
149.319
21
-86.675
0
LINE
8
BLACK
6
CONTINUOUS
10
149.319
20
-86.675
11
149.131
21
-86.675
0
LINE
8
BLACK
6
CONTINUOUS
10
149.131
20
-86.675
11
148.948
21
-86.6385
0
LINE
8
BLACK
6
CONTINUOUS
10
148.948
20
-86.6385
11
148.775
21
-86.5669
0
LINE
8
BLACK
6
CONTINUOUS
10
148.775
20
-86.5669
11
148.619
21
-86.4629
0
LINE
8
BLACK
6
CONTINUOUS
10
148.619
20
-86.4629
11
148.487
21
-86.3306
0
LINE
8
BLACK
6
CONTINUOUS
10
148.487
20
-86.3306
11
148.383
21
-86.175
0
LINE
8
BLACK
6
CONTINUOUS
10
148.383
20
-86.175
11
148.312
21
-86.0021
0
LINE
8
BLACK
6
CONTINUOUS
10
148.312
20
-86.0021
11
148.275
21
-85.8186
0
LINE
8
BLACK
6
CONTINUOUS
10
148.275
20
-85.8186
11
148.275
21
-85.6314
0
LINE
8
BLACK
6
CONTINUOUS
10
148.275
20
-85.6314
11
148.312
21
-85.4479
0
LINE
8
BLACK
6
CONTINUOUS
10
148.312
20
-85.4479
11
148.383
21
-85.275
0
LINE
8
BLACK
6
CONTINUOUS
10
148.383
20
-85.275
11
148.487
21
-85.1194
0
LINE
8
BLACK
6
CONTINUOUS
10
148.487
20
-85.1194
11
148.619
21
-84.9871
0
LINE
8
BLACK
6
CONTINUOUS
10
148.619
20
-84.9871
11
148.775
21
-84.8831
0
LINE
8
BLACK
6
CONTINUOUS
10
148.775
20
-84.8831
11
148.948
21
-84.8115
0
LINE
8
BLACK
6
CONTINUOUS
10
148.948
20
-84.8115
11
149.131
21
-84.775
0
LINE
8
BLACK
6
CONTINUOUS
10
149.131
20
-84.775
11
149.319
21
-84.775
0
LINE
8
BLACK
6
CONTINUOUS
10
149.319
20
-84.775
11
149.502
21
-84.8115
0
LINE
8
BLACK
6
CONTINUOUS
10
152.042
20
-84.8115
11
152.215
21
-84.8831
0
LINE
8
BLACK
6
CONTINUOUS
10
152.215
20
-84.8831
11
152.371
21
-84.9871
0
LINE
8
BLACK
6
CONTINUOUS
10
152.371
20
-84.9871
11
152.503
21
-85.1194
0
LINE
8
BLACK
6
CONTINUOUS
10
152.503
20
-85.1194
11
152.607
21
-85.275
0
LINE
8
BLACK
6
CONTINUOUS
10
152.607
20
-85.275
11
152.678
21
-85.4479
0
LINE
8
BLACK
6
CONTINUOUS
10
152.678
20
-85.4479
11
152.715
21
-85.6314
0
LINE
8
BLACK
6
CONTINUOUS
10
152.715
20
-85.6314
11
152.715
21
-85.8186
0
LINE
8
BLACK
6
CONTINUOUS
10
152.715
20
-85.8186
11
152.678
21
-86.0021
0
LINE
8
BLACK
6
CONTINUOUS
10
152.678
20
-86.0021
11
152.607
21
-86.175
0
LINE
8
BLACK
6
CONTINUOUS
10
152.607
20
-86.175
11
152.503
21
-86.3306
0
LINE
8
BLACK
6
CONTINUOUS
10
152.503
20
-86.3306
11
152.371
21
-86.4629
0
LINE
8
BLACK
6
CONTINUOUS
10
152.371
20
-86.4629
11
152.215
21
-86.5669
0
LINE
8
BLACK
6
CONTINUOUS
10
152.215
20
-86.5669
11
152.042
21
-86.6385
0
LINE
8
BLACK
6
CONTINUOUS
10
152.042
20
-86.6385
11
151.859
21
-86.675
0
LINE
8
BLACK
6
CONTINUOUS
10
151.859
20
-86.675
11
151.671
21
-86.675
0
LINE
8
BLACK
6
CONTINUOUS
10
151.671
20
-86.675
11
151.488
21
-86.6385
0
LINE
8
BLACK
6
CONTINUOUS
10
151.488
20
-86.6385
11
151.315
21
-86.5669
0
LINE
8
BLACK
6
CONTINUOUS
10
151.315
20
-86.5669
11
151.159
21
-86.4629
0
LINE
8
BLACK
6
CONTINUOUS
10
151.159
20
-86.4629
11
151.027
21
-86.3306
0
LINE
8
BLACK
6
CONTINUOUS
10
151.027
20
-86.3306
11
150.923
21
-86.175
0
LINE
8
BLACK
6
CONTINUOUS
10
150.923
20
-86.175
11
150.852
21
-86.0021
0
LINE
8
BLACK
6
CONTINUOUS
10
150.852
20
-86.0021
11
150.815
21
-85.8186
0
LINE
8
BLACK
6
CONTINUOUS
10
150.815
20
-85.8186
11
150.815
21
-85.6314
0
LINE
8
BLACK
6
CONTINUOUS
10
150.815
20
-85.6314
11
150.852
21
-85.4479
0
LINE
8
BLACK
6
CONTINUOUS
10
150.852
20
-85.4479
11
150.923
21
-85.275
0
LINE
8
BLACK
6
CONTINUOUS
10
150.923
20
-85.275
11
151.027
21
-85.1194
0
LINE
8
BLACK
6
CONTINUOUS
10
151.027
20
-85.1194
11
151.159
21
-84.9871
0
LINE
8
BLACK
6
CONTINUOUS
10
151.159
20
-84.9871
11
151.315
21
-84.8831
0
LINE
8
BLACK
6
CONTINUOUS
10
151.315
20
-84.8831
11
151.488
21
-84.8115
0
LINE
8
BLACK
6
CONTINUOUS
10
151.488
20
-84.8115
11
151.671
21
-84.775
0
LINE
8
BLACK
6
CONTINUOUS
10
151.671
20
-84.775
11
151.859
21
-84.775
0
LINE
8
BLACK
6
CONTINUOUS
10
151.859
20
-84.775
11
152.042
21
-84.8115
0
LINE
8
BLACK
6
CONTINUOUS
10
154.582
20
-84.8115
11
154.755
21
-84.8831
0
LINE
8
BLACK
6
CONTINUOUS
10
154.755
20
-84.8831
11
154.911
21
-84.9871
0
LINE
8
BLACK
6
CONTINUOUS
10
154.911
20
-84.9871
11
155.043
21
-85.1194
0
LINE
8
BLACK
6
CONTINUOUS
10
155.043
20
-85.1194
11
155.147
21
-85.275
0
LINE
8
BLACK
6
CONTINUOUS
10
155.147
20
-85.275
11
155.218
21
-85.4479
0
LINE
8
BLACK
6
CONTINUOUS
10
155.218
20
-85.4479
11
155.255
21
-85.6314
0
LINE
8
BLACK
6
CONTINUOUS
10
155.255
20
-85.6314
11
155.255
21
-85.8186
0
LINE
8
BLACK
6
CONTINUOUS
10
155.255
20
-85.8186
11
155.218
21
-86.0021
0
LINE
8
BLACK
6
CONTINUOUS
10
155.218
20
-86.0021
11
155.147
21
-86.175
0
LINE
8
BLACK
6
CONTINUOUS
10
155.147
20
-86.175
11
155.043
21
-86.3306
0
LINE
8
BLACK
6
CONTINUOUS
10
155.043
20
-86.3306
11
154.911
21
-86.4629
0
LINE
8
BLACK
6
CONTINUOUS
10
154.911
20
-86.4629
11
154.755
21
-86.5669
0
LINE
8
BLACK
6
CONTINUOUS
10
154.755
20
-86.5669
11
154.582
21
-86.6385
0
LINE
8
BLACK
6
CONTINUOUS
10
154.582
20
-86.6385
11
154.399
21
-86.675
0
LINE
8
BLACK
6
CONTINUOUS
10
154.399
20
-86.675
11
154.211
21
-86.675
0
LINE
8
BLACK
6
CONTINUOUS
10
154.211
20
-86.675
11
154.028
21
-86.6385
0
LINE
8
BLACK
6
CONTINUOUS
10
154.028
20
-86.6385
11
153.855
21
-86.5669
0
LINE
8
BLACK
6
CONTINUOUS
10
153.855
20
-86.5669
11
153.699
21
-86.4629
0
LINE
8
BLACK
6
CONTINUOUS
10
153.699
20
-86.4629
11
153.567
21
-86.3306
0
LINE
8
BLACK
6
CONTINUOUS
10
153.567
20
-86.3306
11
153.463
21
-86.175
0
LINE
8
BLACK
6
CONTINUOUS
10
153.463
20
-86.175
11
153.392
21
-86.0021
0
LINE
8
BLACK
6
CONTINUOUS
10
153.392
20
-86.0021
11
153.355
21
-85.8186
0
LINE
8
BLACK
6
CONTINUOUS
10
153.355
20
-85.8186
11
153.355
21
-85.6314
0
LINE
8
BLACK
6
CONTINUOUS
10
153.355
20
-85.6314
11
153.392
21
-85.4479
0
LINE
8
BLACK
6
CONTINUOUS
10
153.392
20
-85.4479
11
153.463
21
-85.275
0
LINE
8
BLACK
6
CONTINUOUS
10
153.463
20
-85.275
11
153.567
21
-85.1194
0
LINE
8
BLACK
6
CONTINUOUS
10
153.567
20
-85.1194
11
153.699
21
-84.9871
0
LINE
8
BLACK
6
CONTINUOUS
10
153.699
20
-84.9871
11
153.855
21
-84.8831
0
LINE
8
BLACK
6
CONTINUOUS
10
153.855
20
-84.8831
11
154.028
21
-84.8115
0
LINE
8
BLACK
6
CONTINUOUS
10
154.028
20
-84.8115
11
154.211
21
-84.775
0
LINE
8
BLACK
6
CONTINUOUS
10
154.211
20
-84.775
11
154.399
21
-84.775
0
LINE
8
BLACK
6
CONTINUOUS
10
154.399
20
-84.775
11
154.582
21
-84.8115
0
LINE
8
BLACK
6
CONTINUOUS
10
157.122
20
-84.8115
11
157.295
21
-84.8831
0
LINE
8
BLACK
6
CONTINUOUS
10
157.295
20
-84.8831
11
157.451
21
-84.9871
0
LINE
8
BLACK
6
CONTINUOUS
10
157.451
20
-84.9871
11
157.583
21
-85.1194
0
LINE
8
BLACK
6
CONTINUOUS
10
157.583
20
-85.1194
11
157.687
21
-85.275
0
LINE
8
BLACK
6
CONTINUOUS
10
157.687
20
-85.275
11
157.758
21
-85.4479
0
LINE
8
BLACK
6
CONTINUOUS
10
157.758
20
-85.4479
11
157.795
21
-85.6314
0
LINE
8
BLACK
6
CONTINUOUS
10
157.795
20
-85.6314
11
157.795
21
-85.8186
0
LINE
8
BLACK
6
CONTINUOUS
10
157.795
20
-85.8186
11
157.758
21
-86.0021
0
LINE
8
BLACK
6
CONTINUOUS
10
157.758
20
-86.0021
11
157.687
21
-86.175
0
LINE
8
BLACK
6
CONTINUOUS
10
157.687
20
-86.175
11
157.583
21
-86.3306
0
LINE
8
BLACK
6
CONTINUOUS
10
157.583
20
-86.3306
11
157.451
21
-86.4629
0
LINE
8
BLACK
6
CONTINUOUS
10
157.451
20
-86.4629
11
157.295
21
-86.5669
0
LINE
8
BLACK
6
CONTINUOUS
10
157.295
20
-86.5669
11
157.122
21
-86.6385
0
LINE
8
BLACK
6
CONTINUOUS
10
157.122
20
-86.6385
11
156.939
21
-86.675
0
LINE
8
BLACK
6
CONTINUOUS
10
156.939
20
-86.675
11
156.751
21
-86.675
0
LINE
8
BLACK
6
CONTINUOUS
10
156.751
20
-86.675
11
156.568
21
-86.6385
0
LINE
8
BLACK
6
CONTINUOUS
10
156.568
20
-86.6385
11
156.395
21
-86.5669
0
LINE
8
BLACK
6
CONTINUOUS
10
156.395
20
-86.5669
11
156.239
21
-86.4629
0
LINE
8
BLACK
6
CONTINUOUS
10
156.239
20
-86.4629
11
156.107
21
-86.3306
0
LINE
8
BLACK
6
CONTINUOUS
10
156.107
20
-86.3306
11
156.003
21
-86.175
0
LINE
8
BLACK
6
CONTINUOUS
10
156.003
20
-86.175
11
155.932
21
-86.0021
0
LINE
8
BLACK
6
CONTINUOUS
10
155.932
20
-86.0021
11
155.895
21
-85.8186
0
LINE
8
BLACK
6
CONTINUOUS
10
155.895
20
-85.8186
11
155.895
21
-85.6314
0
LINE
8
BLACK
6
CONTINUOUS
10
155.895
20
-85.6314
11
155.932
21
-85.4479
0
LINE
8
BLACK
6
CONTINUOUS
10
155.932
20
-85.4479
11
156.003
21
-85.275
0
LINE
8
BLACK
6
CONTINUOUS
10
156.003
20
-85.275
11
156.107
21
-85.1194
0
LINE
8
BLACK
6
CONTINUOUS
10
156.107
20
-85.1194
11
156.239
21
-84.9871
0
LINE
8
BLACK
6
CONTINUOUS
10
156.239
20
-84.9871
11
156.395
21
-84.8831
0
LINE
8
BLACK
6
CONTINUOUS
10
156.395
20
-84.8831
11
156.568
21
-84.8115
0
LINE
8
BLACK
6
CONTINUOUS
10
156.568
20
-84.8115
11
156.751
21
-84.775
0
LINE
8
BLACK
6
CONTINUOUS
10
156.751
20
-84.775
11
156.939
21
-84.775
0
LINE
8
BLACK
6
CONTINUOUS
10
156.939
20
-84.775
11
157.122
21
-84.8115
0
LINE
8
BLACK
6
CONTINUOUS
10
159.662
20
-84.8115
11
159.835
21
-84.8831
0
LINE
8
BLACK
6
CONTINUOUS
10
159.835
20
-84.8831
11
159.991
21
-84.9871
0
LINE
8
BLACK
6
CONTINUOUS
10
159.991
20
-84.9871
11
160.123
21
-85.1194
0
LINE
8
BLACK
6
CONTINUOUS
10
160.123
20
-85.1194
11
160.227
21
-85.275
0
LINE
8
BLACK
6
CONTINUOUS
10
160.227
20
-85.275
11
160.298
21
-85.4479
0
LINE
8
BLACK
6
CONTINUOUS
10
160.298
20
-85.4479
11
160.335
21
-85.6314
0
LINE
8
BLACK
6
CONTINUOUS
10
160.335
20
-85.6314
11
160.335
21
-85.8186
0
LINE
8
BLACK
6
CONTINUOUS
10
160.335
20
-85.8186
11
160.298
21
-86.0021
0
LINE
8
BLACK
6
CONTINUOUS
10
160.298
20
-86.0021
11
160.227
21
-86.175
0
LINE
8
BLACK
6
CONTINUOUS
10
160.227
20
-86.175
11
160.123
21
-86.3306
0
LINE
8
BLACK
6
CONTINUOUS
10
160.123
20
-86.3306
11
159.991
21
-86.4629
0
LINE
8
BLACK
6
CONTINUOUS
10
159.991
20
-86.4629
11
159.835
21
-86.5669
0
LINE
8
BLACK
6
CONTINUOUS
10
159.835
20
-86.5669
11
159.662
21
-86.6385
0
LINE
8
BLACK
6
CONTINUOUS
10
159.662
20
-86.6385
11
159.479
21
-86.675
0
LINE
8
BLACK
6
CONTINUOUS
10
159.479
20
-86.675
11
159.291
21
-86.675
0
LINE
8
BLACK
6
CONTINUOUS
10
159.291
20
-86.675
11
159.108
21
-86.6385
0
LINE
8
BLACK
6
CONTINUOUS
10
159.108
20
-86.6385
11
158.935
21
-86.5669
0
LINE
8
BLACK
6
CONTINUOUS
10
158.935
20
-86.5669
11
158.779
21
-86.4629
0
LINE
8
BLACK
6
CONTINUOUS
10
158.779
20
-86.4629
11
158.647
21
-86.3306
0
LINE
8
BLACK
6
CONTINUOUS
10
158.647
20
-86.3306
11
158.543
21
-86.175
0
LINE
8
BLACK
6
CONTINUOUS
10
158.543
20
-86.175
11
158.472
21
-86.0021
0
LINE
8
BLACK
6
CONTINUOUS
10
158.472
20
-86.0021
11
158.435
21
-85.8186
0
LINE
8
BLACK
6
CONTINUOUS
10
158.435
20
-85.8186
11
158.435
21
-85.6314
0
LINE
8
BLACK
6
CONTINUOUS
10
158.435
20
-85.6314
11
158.472
21
-85.4479
0
LINE
8
BLACK
6
CONTINUOUS
10
158.472
20
-85.4479
11
158.543
21
-85.275
0
LINE
8
BLACK
6
CONTINUOUS
10
158.543
20
-85.275
11
158.647
21
-85.1194
0
LINE
8
BLACK
6
CONTINUOUS
10
158.647
20
-85.1194
11
158.779
21
-84.9871
0
LINE
8
BLACK
6
CONTINUOUS
10
158.779
20
-84.9871
11
158.935
21
-84.8831
0
LINE
8
BLACK
6
CONTINUOUS
10
158.935
20
-84.8831
11
159.108
21
-84.8115
0
LINE
8
BLACK
6
CONTINUOUS
10
159.108
20
-84.8115
11
159.291
21
-84.775
0
LINE
8
BLACK
6
CONTINUOUS
10
159.291
20
-84.775
11
159.479
21
-84.775
0
LINE
8
BLACK
6
CONTINUOUS
10
159.479
20
-84.775
11
159.662
21
-84.8115
0
LINE
8
BLACK
6
CONTINUOUS
10
162.202
20
-84.8115
11
162.375
21
-84.8831
0
LINE
8
BLACK
6
CONTINUOUS
10
162.375
20
-84.8831
11
162.531
21
-84.9871
0
LINE
8
BLACK
6
CONTINUOUS
10
162.531
20
-84.9871
11
162.663
21
-85.1194
0
LINE
8
BLACK
6
CONTINUOUS
10
162.663
20
-85.1194
11
162.767
21
-85.275
0
LINE
8
BLACK
6
CONTINUOUS
10
162.767
20
-85.275
11
162.838
21
-85.4479
0
LINE
8
BLACK
6
CONTINUOUS
10
162.838
20
-85.4479
11
162.875
21
-85.6314
0
LINE
8
BLACK
6
CONTINUOUS
10
162.875
20
-85.6314
11
162.875
21
-85.8186
0
LINE
8
BLACK
6
CONTINUOUS
10
162.875
20
-85.8186
11
162.838
21
-86.0021
0
LINE
8
BLACK
6
CONTINUOUS
10
162.838
20
-86.0021
11
162.767
21
-86.175
0
LINE
8
BLACK
6
CONTINUOUS
10
162.767
20
-86.175
11
162.663
21
-86.3306
0
LINE
8
BLACK
6
CONTINUOUS
10
162.663
20
-86.3306
11
162.531
21
-86.4629
0
LINE
8
BLACK
6
CONTINUOUS
10
162.531
20
-86.4629
11
162.375
21
-86.5669
0
LINE
8
BLACK
6
CONTINUOUS
10
162.375
20
-86.5669
11
162.202
21
-86.6385
0
LINE
8
BLACK
6
CONTINUOUS
10
162.202
20
-86.6385
11
162.019
21
-86.675
0
LINE
8
BLACK
6
CONTINUOUS
10
162.019
20
-86.675
11
161.831
21
-86.675
0
LINE
8
BLACK
6
CONTINUOUS
10
161.831
20
-86.675
11
161.648
21
-86.6385
0
LINE
8
BLACK
6
CONTINUOUS
10
161.648
20
-86.6385
11
161.475
21
-86.5669
0
LINE
8
BLACK
6
CONTINUOUS
10
161.475
20
-86.5669
11
161.319
21
-86.4629
0
LINE
8
BLACK
6
CONTINUOUS
10
161.319
20
-86.4629
11
161.187
21
-86.3306
0
LINE
8
BLACK
6
CONTINUOUS
10
161.187
20
-86.3306
11
161.083
21
-86.175
0
LINE
8
BLACK
6
CONTINUOUS
10
161.083
20
-86.175
11
161.012
21
-86.0021
0
LINE
8
BLACK
6
CONTINUOUS
10
161.012
20
-86.0021
11
160.975
21
-85.8186
0
LINE
8
BLACK
6
CONTINUOUS
10
160.975
20
-85.8186
11
160.975
21
-85.6314
0
LINE
8
BLACK
6
CONTINUOUS
10
160.975
20
-85.6314
11
161.012
21
-85.4479
0
LINE
8
BLACK
6
CONTINUOUS
10
161.012
20
-85.4479
11
161.083
21
-85.275
0
LINE
8
BLACK
6
CONTINUOUS
10
161.083
20
-85.275
11
161.187
21
-85.1194
0
LINE
8
BLACK
6
CONTINUOUS
10
161.187
20
-85.1194
11
161.319
21
-84.9871
0
LINE
8
BLACK
6
CONTINUOUS
10
161.319
20
-84.9871
11
161.475
21
-84.8831
0
LINE
8
BLACK
6
CONTINUOUS
10
161.475
20
-84.8831
11
161.648
21
-84.8115
0
LINE
8
BLACK
6
CONTINUOUS
10
161.648
20
-84.8115
11
161.831
21
-84.775
0
LINE
8
BLACK
6
CONTINUOUS
10
161.831
20
-84.775
11
162.019
21
-84.775
0
LINE
8
BLACK
6
CONTINUOUS
10
162.019
20
-84.775
11
162.202
21
-84.8115
0
LINE
8
BLACK
6
CONTINUOUS
10
111.402
20
-84.8115
11
111.575
21
-84.8831
0
LINE
8
BLACK
6
CONTINUOUS
10
111.575
20
-84.8831
11
111.731
21
-84.9871
0
LINE
8
BLACK
6
CONTINUOUS
10
111.731
20
-84.9871
11
111.863
21
-85.1194
0
LINE
8
BLACK
6
CONTINUOUS
10
111.863
20
-85.1194
11
111.967
21
-85.275
0
LINE
8
BLACK
6
CONTINUOUS
10
111.967
20
-85.275
11
112.038
21
-85.4479
0
LINE
8
BLACK
6
CONTINUOUS
10
112.038
20
-85.4479
11
112.075
21
-85.6314
0
LINE
8
BLACK
6
CONTINUOUS
10
112.075
20
-85.6314
11
112.075
21
-85.8186
0
LINE
8
BLACK
6
CONTINUOUS
10
112.075
20
-85.8186
11
112.038
21
-86.0021
0
LINE
8
BLACK
6
CONTINUOUS
10
112.038
20
-86.0021
11
111.967
21
-86.175
0
LINE
8
BLACK
6
CONTINUOUS
10
111.967
20
-86.175
11
111.863
21
-86.3306
0
LINE
8
BLACK
6
CONTINUOUS
10
111.863
20
-86.3306
11
111.731
21
-86.4629
0
LINE
8
BLACK
6
CONTINUOUS
10
111.731
20
-86.4629
11
111.575
21
-86.5669
0
LINE
8
BLACK
6
CONTINUOUS
10
111.575
20
-86.5669
11
111.402
21
-86.6385
0
LINE
8
BLACK
6
CONTINUOUS
10
111.402
20
-86.6385
11
111.219
21
-86.675
0
LINE
8
BLACK
6
CONTINUOUS
10
111.219
20
-86.675
11
111.031
21
-86.675
0
LINE
8
BLACK
6
CONTINUOUS
10
111.031
20
-86.675
11
110.848
21
-86.6385
0
LINE
8
BLACK
6
CONTINUOUS
10
110.848
20
-86.6385
11
110.675
21
-86.5669
0
LINE
8
BLACK
6
CONTINUOUS
10
110.675
20
-86.5669
11
110.519
21
-86.4629
0
LINE
8
BLACK
6
CONTINUOUS
10
110.519
20
-86.4629
11
110.387
21
-86.3306
0
LINE
8
BLACK
6
CONTINUOUS
10
110.387
20
-86.3306
11
110.283
21
-86.175
0
LINE
8
BLACK
6
CONTINUOUS
10
110.283
20
-86.175
11
110.212
21
-86.0021
0
LINE
8
BLACK
6
CONTINUOUS
10
110.212
20
-86.0021
11
110.175
21
-85.8186
0
LINE
8
BLACK
6
CONTINUOUS
10
110.175
20
-85.8186
11
110.175
21
-85.6314
0
LINE
8
BLACK
6
CONTINUOUS
10
110.175
20
-85.6314
11
110.212
21
-85.4479
0
LINE
8
BLACK
6
CONTINUOUS
10
110.212
20
-85.4479
11
110.283
21
-85.275
0
LINE
8
BLACK
6
CONTINUOUS
10
110.283
20
-85.275
11
110.387
21
-85.1194
0
LINE
8
BLACK
6
CONTINUOUS
10
110.387
20
-85.1194
11
110.519
21
-84.9871
0
LINE
8
BLACK
6
CONTINUOUS
10
110.519
20
-84.9871
11
110.675
21
-84.8831
0
LINE
8
BLACK
6
CONTINUOUS
10
110.675
20
-84.8831
11
110.848
21
-84.8115
0
LINE
8
BLACK
6
CONTINUOUS
10
110.848
20
-84.8115
11
111.031
21
-84.775
0
LINE
8
BLACK
6
CONTINUOUS
10
111.031
20
-84.775
11
111.219
21
-84.775
0
LINE
8
BLACK
6
CONTINUOUS
10
111.219
20
-84.775
11
111.402
21
-84.8115
0
LINE
8
BLACK
6
CONTINUOUS
10
121.562
20
-84.8115
11
121.735
21
-84.8831
0
LINE
8
BLACK
6
CONTINUOUS
10
121.735
20
-84.8831
11
121.891
21
-84.9871
0
LINE
8
BLACK
6
CONTINUOUS
10
121.891
20
-84.9871
11
122.023
21
-85.1194
0
LINE
8
BLACK
6
CONTINUOUS
10
122.023
20
-85.1194
11
122.127
21
-85.275
0
LINE
8
BLACK
6
CONTINUOUS
10
122.127
20
-85.275
11
122.198
21
-85.4479
0
LINE
8
BLACK
6
CONTINUOUS
10
122.198
20
-85.4479
11
122.235
21
-85.6314
0
LINE
8
BLACK
6
CONTINUOUS
10
122.235
20
-85.6314
11
122.235
21
-85.8186
0
LINE
8
BLACK
6
CONTINUOUS
10
122.235
20
-85.8186
11
122.198
21
-86.0021
0
LINE
8
BLACK
6
CONTINUOUS
10
122.198
20
-86.0021
11
122.127
21
-86.175
0
LINE
8
BLACK
6
CONTINUOUS
10
122.127
20
-86.175
11
122.023
21
-86.3306
0
LINE
8
BLACK
6
CONTINUOUS
10
122.023
20
-86.3306
11
121.891
21
-86.4629
0
LINE
8
BLACK
6
CONTINUOUS
10
121.891
20
-86.4629
11
121.735
21
-86.5669
0
LINE
8
BLACK
6
CONTINUOUS
10
121.735
20
-86.5669
11
121.562
21
-86.6385
0
LINE
8
BLACK
6
CONTINUOUS
10
121.562
20
-86.6385
11
121.379
21
-86.675
0
LINE
8
BLACK
6
CONTINUOUS
10
121.379
20
-86.675
11
121.191
21
-86.675
0
LINE
8
BLACK
6
CONTINUOUS
10
121.191
20
-86.675
11
121.008
21
-86.6385
0
LINE
8
BLACK
6
CONTINUOUS
10
121.008
20
-86.6385
11
120.835
21
-86.5669
0
LINE
8
BLACK
6
CONTINUOUS
10
120.835
20
-86.5669
11
120.679
21
-86.4629
0
LINE
8
BLACK
6
CONTINUOUS
10
120.679
20
-86.4629
11
120.547
21
-86.3306
0
LINE
8
BLACK
6
CONTINUOUS
10
120.547
20
-86.3306
11
120.443
21
-86.175
0
LINE
8
BLACK
6
CONTINUOUS
10
120.443
20
-86.175
11
120.372
21
-86.0021
0
LINE
8
BLACK
6
CONTINUOUS
10
120.372
20
-86.0021
11
120.335
21
-85.8186
0
LINE
8
BLACK
6
CONTINUOUS
10
120.335
20
-85.8186
11
120.335
21
-85.6314
0
LINE
8
BLACK
6
CONTINUOUS
10
120.335
20
-85.6314
11
120.372
21
-85.4479
0
LINE
8
BLACK
6
CONTINUOUS
10
120.372
20
-85.4479
11
120.443
21
-85.275
0
LINE
8
BLACK
6
CONTINUOUS
10
120.443
20
-85.275
11
120.547
21
-85.1194
0
LINE
8
BLACK
6
CONTINUOUS
10
120.547
20
-85.1194
11
120.679
21
-84.9871
0
LINE
8
BLACK
6
CONTINUOUS
10
120.679
20
-84.9871
11
120.835
21
-84.8831
0
LINE
8
BLACK
6
CONTINUOUS
10
120.835
20
-84.8831
11
121.008
21
-84.8115
0
LINE
8
BLACK
6
CONTINUOUS
10
121.008
20
-84.8115
11
121.191
21
-84.775
0
LINE
8
BLACK
6
CONTINUOUS
10
121.191
20
-84.775
11
121.379
21
-84.775
0
LINE
8
BLACK
6
CONTINUOUS
10
121.379
20
-84.775
11
121.562
21
-84.8115
0
LINE
8
BLACK
6
CONTINUOUS
10
113.942
20
-84.8115
11
114.115
21
-84.8831
0
LINE
8
BLACK
6
CONTINUOUS
10
114.115
20
-84.8831
11
114.271
21
-84.9871
0
LINE
8
BLACK
6
CONTINUOUS
10
114.271
20
-84.9871
11
114.403
21
-85.1194
0
LINE
8
BLACK
6
CONTINUOUS
10
114.403
20
-85.1194
11
114.507
21
-85.275
0
LINE
8
BLACK
6
CONTINUOUS
10
114.507
20
-85.275
11
114.578
21
-85.4479
0
LINE
8
BLACK
6
CONTINUOUS
10
114.578
20
-85.4479
11
114.615
21
-85.6314
0
LINE
8
BLACK
6
CONTINUOUS
10
114.615
20
-85.6314
11
114.615
21
-85.8186
0
LINE
8
BLACK
6
CONTINUOUS
10
114.615
20
-85.8186
11
114.578
21
-86.0021
0
LINE
8
BLACK
6
CONTINUOUS
10
114.578
20
-86.0021
11
114.507
21
-86.175
0
LINE
8
BLACK
6
CONTINUOUS
10
114.507
20
-86.175
11
114.403
21
-86.3306
0
LINE
8
BLACK
6
CONTINUOUS
10
114.403
20
-86.3306
11
114.271
21
-86.4629
0
LINE
8
BLACK
6
CONTINUOUS
10
114.271
20
-86.4629
11
114.115
21
-86.5669
0
LINE
8
BLACK
6
CONTINUOUS
10
114.115
20
-86.5669
11
113.942
21
-86.6385
0
LINE
8
BLACK
6
CONTINUOUS
10
113.942
20
-86.6385
11
113.759
21
-86.675
0
LINE
8
BLACK
6
CONTINUOUS
10
113.759
20
-86.675
11
113.571
21
-86.675
0
LINE
8
BLACK
6
CONTINUOUS
10
113.571
20
-86.675
11
113.388
21
-86.6385
0
LINE
8
BLACK
6
CONTINUOUS
10
113.388
20
-86.6385
11
113.215
21
-86.5669
0
LINE
8
BLACK
6
CONTINUOUS
10
113.215
20
-86.5669
11
113.059
21
-86.4629
0
LINE
8
BLACK
6
CONTINUOUS
10
113.059
20
-86.4629
11
112.927
21
-86.3306
0
LINE
8
BLACK
6
CONTINUOUS
10
112.927
20
-86.3306
11
112.823
21
-86.175
0
LINE
8
BLACK
6
CONTINUOUS
10
112.823
20
-86.175
11
112.752
21
-86.0021
0
LINE
8
BLACK
6
CONTINUOUS
10
112.752
20
-86.0021
11
112.715
21
-85.8186
0
LINE
8
BLACK
6
CONTINUOUS
10
112.715
20
-85.8186
11
112.715
21
-85.6314
0
LINE
8
BLACK
6
CONTINUOUS
10
112.715
20
-85.6314
11
112.752
21
-85.4479
0
LINE
8
BLACK
6
CONTINUOUS
10
112.752
20
-85.4479
11
112.823
21
-85.275
0
LINE
8
BLACK
6
CONTINUOUS
10
112.823
20
-85.275
11
112.927
21
-85.1194
0
LINE
8
BLACK
6
CONTINUOUS
10
112.927
20
-85.1194
11
113.059
21
-84.9871
0
LINE
8
BLACK
6
CONTINUOUS
10
113.059
20
-84.9871
11
113.215
21
-84.8831
0
LINE
8
BLACK
6
CONTINUOUS
10
113.215
20
-84.8831
11
113.388
21
-84.8115
0
LINE
8
BLACK
6
CONTINUOUS
10
113.388
20
-84.8115
11
113.571
21
-84.775
0
LINE
8
BLACK
6
CONTINUOUS
10
113.571
20
-84.775
11
113.759
21
-84.775
0
LINE
8
BLACK
6
CONTINUOUS
10
113.759
20
-84.775
11
113.942
21
-84.8115
0
LINE
8
BLACK
6
CONTINUOUS
10
119.022
20
-84.8115
11
119.195
21
-84.8831
0
LINE
8
BLACK
6
CONTINUOUS
10
119.195
20
-84.8831
11
119.351
21
-84.9871
0
LINE
8
BLACK
6
CONTINUOUS
10
119.351
20
-84.9871
11
119.483
21
-85.1194
0
LINE
8
BLACK
6
CONTINUOUS
10
119.483
20
-85.1194
11
119.587
21
-85.275
0
LINE
8
BLACK
6
CONTINUOUS
10
119.587
20
-85.275
11
119.658
21
-85.4479
0
LINE
8
BLACK
6
CONTINUOUS
10
119.658
20
-85.4479
11
119.695
21
-85.6314
0
LINE
8
BLACK
6
CONTINUOUS
10
119.695
20
-85.6314
11
119.695
21
-85.8186
0
LINE
8
BLACK
6
CONTINUOUS
10
119.695
20
-85.8186
11
119.658
21
-86.0021
0
LINE
8
BLACK
6
CONTINUOUS
10
119.658
20
-86.0021
11
119.587
21
-86.175
0
LINE
8
BLACK
6
CONTINUOUS
10
119.587
20
-86.175
11
119.483
21
-86.3306
0
LINE
8
BLACK
6
CONTINUOUS
10
119.483
20
-86.3306
11
119.351
21
-86.4629
0
LINE
8
BLACK
6
CONTINUOUS
10
119.351
20
-86.4629
11
119.195
21
-86.5669
0
LINE
8
BLACK
6
CONTINUOUS
10
119.195
20
-86.5669
11
119.022
21
-86.6385
0
LINE
8
BLACK
6
CONTINUOUS
10
119.022
20
-86.6385
11
118.839
21
-86.675
0
LINE
8
BLACK
6
CONTINUOUS
10
118.839
20
-86.675
11
118.651
21
-86.675
0
LINE
8
BLACK
6
CONTINUOUS
10
118.651
20
-86.675
11
118.468
21
-86.6385
0
LINE
8
BLACK
6
CONTINUOUS
10
118.468
20
-86.6385
11
118.295
21
-86.5669
0
LINE
8
BLACK
6
CONTINUOUS
10
118.295
20
-86.5669
11
118.139
21
-86.4629
0
LINE
8
BLACK
6
CONTINUOUS
10
118.139
20
-86.4629
11
118.007
21
-86.3306
0
LINE
8
BLACK
6
CONTINUOUS
10
118.007
20
-86.3306
11
117.903
21
-86.175
0
LINE
8
BLACK
6
CONTINUOUS
10
117.903
20
-86.175
11
117.832
21
-86.0021
0
LINE
8
BLACK
6
CONTINUOUS
10
117.832
20
-86.0021
11
117.795
21
-85.8186
0
LINE
8
BLACK
6
CONTINUOUS
10
117.795
20
-85.8186
11
117.795
21
-85.6314
0
LINE
8
BLACK
6
CONTINUOUS
10
117.795
20
-85.6314
11
117.832
21
-85.4479
0
LINE
8
BLACK
6
CONTINUOUS
10
117.832
20
-85.4479
11
117.903
21
-85.275
0
LINE
8
BLACK
6
CONTINUOUS
10
117.903
20
-85.275
11
118.007
21
-85.1194
0
LINE
8
BLACK
6
CONTINUOUS
10
118.007
20
-85.1194
11
118.139
21
-84.9871
0
LINE
8
BLACK
6
CONTINUOUS
10
118.139
20
-84.9871
11
118.295
21
-84.8831
0
LINE
8
BLACK
6
CONTINUOUS
10
118.295
20
-84.8831
11
118.468
21
-84.8115
0
LINE
8
BLACK
6
CONTINUOUS
10
118.468
20
-84.8115
11
118.651
21
-84.775
0
LINE
8
BLACK
6
CONTINUOUS
10
118.651
20
-84.775
11
118.839
21
-84.775
0
LINE
8
BLACK
6
CONTINUOUS
10
118.839
20
-84.775
11
119.022
21
-84.8115
0
LINE
8
BLACK
6
CONTINUOUS
10
106.322
20
-84.8115
11
106.495
21
-84.8831
0
LINE
8
BLACK
6
CONTINUOUS
10
106.495
20
-84.8831
11
106.651
21
-84.9871
0
LINE
8
BLACK
6
CONTINUOUS
10
106.651
20
-84.9871
11
106.783
21
-85.1194
0
LINE
8
BLACK
6
CONTINUOUS
10
106.783
20
-85.1194
11
106.887
21
-85.275
0
LINE
8
BLACK
6
CONTINUOUS
10
106.887
20
-85.275
11
106.958
21
-85.4479
0
LINE
8
BLACK
6
CONTINUOUS
10
106.958
20
-85.4479
11
106.995
21
-85.6314
0
LINE
8
BLACK
6
CONTINUOUS
10
106.995
20
-85.6314
11
106.995
21
-85.8186
0
LINE
8
BLACK
6
CONTINUOUS
10
106.995
20
-85.8186
11
106.958
21
-86.0021
0
LINE
8
BLACK
6
CONTINUOUS
10
106.958
20
-86.0021
11
106.887
21
-86.175
0
LINE
8
BLACK
6
CONTINUOUS
10
106.887
20
-86.175
11
106.783
21
-86.3306
0
LINE
8
BLACK
6
CONTINUOUS
10
106.783
20
-86.3306
11
106.651
21
-86.4629
0
LINE
8
BLACK
6
CONTINUOUS
10
106.651
20
-86.4629
11
106.495
21
-86.5669
0
LINE
8
BLACK
6
CONTINUOUS
10
106.495
20
-86.5669
11
106.322
21
-86.6385
0
LINE
8
BLACK
6
CONTINUOUS
10
106.322
20
-86.6385
11
106.139
21
-86.675
0
LINE
8
BLACK
6
CONTINUOUS
10
106.139
20
-86.675
11
105.951
21
-86.675
0
LINE
8
BLACK
6
CONTINUOUS
10
105.951
20
-86.675
11
105.768
21
-86.6385
0
LINE
8
BLACK
6
CONTINUOUS
10
105.768
20
-86.6385
11
105.595
21
-86.5669
0
LINE
8
BLACK
6
CONTINUOUS
10
105.595
20
-86.5669
11
105.439
21
-86.4629
0
LINE
8
BLACK
6
CONTINUOUS
10
105.439
20
-86.4629
11
105.307
21
-86.3306
0
LINE
8
BLACK
6
CONTINUOUS
10
105.307
20
-86.3306
11
105.203
21
-86.175
0
LINE
8
BLACK
6
CONTINUOUS
10
105.203
20
-86.175
11
105.132
21
-86.0021
0
LINE
8
BLACK
6
CONTINUOUS
10
105.132
20
-86.0021
11
105.095
21
-85.8186
0
LINE
8
BLACK
6
CONTINUOUS
10
105.095
20
-85.8186
11
105.095
21
-85.6314
0
LINE
8
BLACK
6
CONTINUOUS
10
105.095
20
-85.6314
11
105.132
21
-85.4479
0
LINE
8
BLACK
6
CONTINUOUS
10
105.132
20
-85.4479
11
105.203
21
-85.275
0
LINE
8
BLACK
6
CONTINUOUS
10
105.203
20
-85.275
11
105.307
21
-85.1194
0
LINE
8
BLACK
6
CONTINUOUS
10
105.307
20
-85.1194
11
105.439
21
-84.9871
0
LINE
8
BLACK
6
CONTINUOUS
10
105.439
20
-84.9871
11
105.595
21
-84.8831
0
LINE
8
BLACK
6
CONTINUOUS
10
105.595
20
-84.8831
11
105.768
21
-84.8115
0
LINE
8
BLACK
6
CONTINUOUS
10
105.768
20
-84.8115
11
105.951
21
-84.775
0
LINE
8
BLACK
6
CONTINUOUS
10
105.951
20
-84.775
11
106.139
21
-84.775
0
LINE
8
BLACK
6
CONTINUOUS
10
106.139
20
-84.775
11
106.322
21
-84.8115
0
LINE
8
BLACK
6
CONTINUOUS
10
108.862
20
-84.8115
11
109.035
21
-84.8831
0
LINE
8
BLACK
6
CONTINUOUS
10
109.035
20
-84.8831
11
109.191
21
-84.9871
0
LINE
8
BLACK
6
CONTINUOUS
10
109.191
20
-84.9871
11
109.323
21
-85.1194
0
LINE
8
BLACK
6
CONTINUOUS
10
109.323
20
-85.1194
11
109.427
21
-85.275
0
LINE
8
BLACK
6
CONTINUOUS
10
109.427
20
-85.275
11
109.498
21
-85.4479
0
LINE
8
BLACK
6
CONTINUOUS
10
109.498
20
-85.4479
11
109.535
21
-85.6314
0
LINE
8
BLACK
6
CONTINUOUS
10
109.535
20
-85.6314
11
109.535
21
-85.8186
0
LINE
8
BLACK
6
CONTINUOUS
10
109.535
20
-85.8186
11
109.498
21
-86.0021
0
LINE
8
BLACK
6
CONTINUOUS
10
109.498
20
-86.0021
11
109.427
21
-86.175
0
LINE
8
BLACK
6
CONTINUOUS
10
109.427
20
-86.175
11
109.323
21
-86.3306
0
LINE
8
BLACK
6
CONTINUOUS
10
109.323
20
-86.3306
11
109.191
21
-86.4629
0
LINE
8
BLACK
6
CONTINUOUS
10
109.191
20
-86.4629
11
109.035
21
-86.5669
0
LINE
8
BLACK
6
CONTINUOUS
10
109.035
20
-86.5669
11
108.862
21
-86.6385
0
LINE
8
BLACK
6
CONTINUOUS
10
108.862
20
-86.6385
11
108.679
21
-86.675
0
LINE
8
BLACK
6
CONTINUOUS
10
108.679
20
-86.675
11
108.491
21
-86.675
0
LINE
8
BLACK
6
CONTINUOUS
10
108.491
20
-86.675
11
108.308
21
-86.6385
0
LINE
8
BLACK
6
CONTINUOUS
10
108.308
20
-86.6385
11
108.135
21
-86.5669
0
LINE
8
BLACK
6
CONTINUOUS
10
108.135
20
-86.5669
11
107.979
21
-86.4629
0
LINE
8
BLACK
6
CONTINUOUS
10
107.979
20
-86.4629
11
107.847
21
-86.3306
0
LINE
8
BLACK
6
CONTINUOUS
10
107.847
20
-86.3306
11
107.743
21
-86.175
0
LINE
8
BLACK
6
CONTINUOUS
10
107.743
20
-86.175
11
107.672
21
-86.0021
0
LINE
8
BLACK
6
CONTINUOUS
10
107.672
20
-86.0021
11
107.635
21
-85.8186
0
LINE
8
BLACK
6
CONTINUOUS
10
107.635
20
-85.8186
11
107.635
21
-85.6314
0
LINE
8
BLACK
6
CONTINUOUS
10
107.635
20
-85.6314
11
107.672
21
-85.4479
0
LINE
8
BLACK
6
CONTINUOUS
10
107.672
20
-85.4479
11
107.743
21
-85.275
0
LINE
8
BLACK
6
CONTINUOUS
10
107.743
20
-85.275
11
107.847
21
-85.1194
0
LINE
8
BLACK
6
CONTINUOUS
10
107.847
20
-85.1194
11
107.979
21
-84.9871
0
LINE
8
BLACK
6
CONTINUOUS
10
107.979
20
-84.9871
11
108.135
21
-84.8831
0
LINE
8
BLACK
6
CONTINUOUS
10
108.135
20
-84.8831
11
108.308
21
-84.8115
0
LINE
8
BLACK
6
CONTINUOUS
10
108.308
20
-84.8115
11
108.491
21
-84.775
0
LINE
8
BLACK
6
CONTINUOUS
10
108.491
20
-84.775
11
108.679
21
-84.775
0
LINE
8
BLACK
6
CONTINUOUS
10
108.679
20
-84.775
11
108.862
21
-84.8115
0
LINE
8
BLACK
6
CONTINUOUS
10
116.482
20
-84.8115
11
116.655
21
-84.8831
0
LINE
8
BLACK
6
CONTINUOUS
10
116.655
20
-84.8831
11
116.811
21
-84.9871
0
LINE
8
BLACK
6
CONTINUOUS
10
116.811
20
-84.9871
11
116.943
21
-85.1194
0
LINE
8
BLACK
6
CONTINUOUS
10
116.943
20
-85.1194
11
117.047
21
-85.275
0
LINE
8
BLACK
6
CONTINUOUS
10
117.047
20
-85.275
11
117.118
21
-85.4479
0
LINE
8
BLACK
6
CONTINUOUS
10
117.118
20
-85.4479
11
117.155
21
-85.6314
0
LINE
8
BLACK
6
CONTINUOUS
10
117.155
20
-85.6314
11
117.155
21
-85.8186
0
LINE
8
BLACK
6
CONTINUOUS
10
117.155
20
-85.8186
11
117.118
21
-86.0021
0
LINE
8
BLACK
6
CONTINUOUS
10
117.118
20
-86.0021
11
117.047
21
-86.175
0
LINE
8
BLACK
6
CONTINUOUS
10
117.047
20
-86.175
11
116.943
21
-86.3306
0
LINE
8
BLACK
6
CONTINUOUS
10
116.943
20
-86.3306
11
116.811
21
-86.4629
0
LINE
8
BLACK
6
CONTINUOUS
10
116.811
20
-86.4629
11
116.655
21
-86.5669
0
LINE
8
BLACK
6
CONTINUOUS
10
116.655
20
-86.5669
11
116.482
21
-86.6385
0
LINE
8
BLACK
6
CONTINUOUS
10
116.482
20
-86.6385
11
116.299
21
-86.675
0
LINE
8
BLACK
6
CONTINUOUS
10
116.299
20
-86.675
11
116.111
21
-86.675
0
LINE
8
BLACK
6
CONTINUOUS
10
116.111
20
-86.675
11
115.928
21
-86.6385
0
LINE
8
BLACK
6
CONTINUOUS
10
115.928
20
-86.6385
11
115.755
21
-86.5669
0
LINE
8
BLACK
6
CONTINUOUS
10
115.755
20
-86.5669
11
115.599
21
-86.4629
0
LINE
8
BLACK
6
CONTINUOUS
10
115.599
20
-86.4629
11
115.467
21
-86.3306
0
LINE
8
BLACK
6
CONTINUOUS
10
115.467
20
-86.3306
11
115.363
21
-86.175
0
LINE
8
BLACK
6
CONTINUOUS
10
115.363
20
-86.175
11
115.292
21
-86.0021
0
LINE
8
BLACK
6
CONTINUOUS
10
115.292
20
-86.0021
11
115.255
21
-85.8186
0
LINE
8
BLACK
6
CONTINUOUS
10
115.255
20
-85.8186
11
115.255
21
-85.6314
0
LINE
8
BLACK
6
CONTINUOUS
10
115.255
20
-85.6314
11
115.292
21
-85.4479
0
LINE
8
BLACK
6
CONTINUOUS
10
115.292
20
-85.4479
11
115.363
21
-85.275
0
LINE
8
BLACK
6
CONTINUOUS
10
115.363
20
-85.275
11
115.467
21
-85.1194
0
LINE
8
BLACK
6
CONTINUOUS
10
115.467
20
-85.1194
11
115.599
21
-84.9871
0
LINE
8
BLACK
6
CONTINUOUS
10
115.599
20
-84.9871
11
115.755
21
-84.8831
0
LINE
8
BLACK
6
CONTINUOUS
10
115.755
20
-84.8831
11
115.928
21
-84.8115
0
LINE
8
BLACK
6
CONTINUOUS
10
115.928
20
-84.8115
11
116.111
21
-84.775
0
LINE
8
BLACK
6
CONTINUOUS
10
116.111
20
-84.775
11
116.299
21
-84.775
0
LINE
8
BLACK
6
CONTINUOUS
10
116.299
20
-84.775
11
116.482
21
-84.8115
0
LINE
8
BLACK
6
CONTINUOUS
10
157.122
20
-69.5715
11
157.295
21
-69.6431
0
LINE
8
BLACK
6
CONTINUOUS
10
157.295
20
-69.6431
11
157.451
21
-69.7471
0
LINE
8
BLACK
6
CONTINUOUS
10
157.451
20
-69.7471
11
157.583
21
-69.8794
0
LINE
8
BLACK
6
CONTINUOUS
10
157.583
20
-69.8794
11
157.687
21
-70.035
0
LINE
8
BLACK
6
CONTINUOUS
10
157.687
20
-70.035
11
157.758
21
-70.2079
0
LINE
8
BLACK
6
CONTINUOUS
10
157.758
20
-70.2079
11
157.795
21
-70.3914
0
LINE
8
BLACK
6
CONTINUOUS
10
157.795
20
-70.3914
11
157.795
21
-70.5786
0
LINE
8
BLACK
6
CONTINUOUS
10
157.795
20
-70.5786
11
157.758
21
-70.7621
0
LINE
8
BLACK
6
CONTINUOUS
10
157.758
20
-70.7621
11
157.687
21
-70.935
0
LINE
8
BLACK
6
CONTINUOUS
10
157.687
20
-70.935
11
157.583
21
-71.0906
0
LINE
8
BLACK
6
CONTINUOUS
10
157.583
20
-71.0906
11
157.451
21
-71.2229
0
LINE
8
BLACK
6
CONTINUOUS
10
157.451
20
-71.2229
11
157.295
21
-71.3269
0
LINE
8
BLACK
6
CONTINUOUS
10
157.295
20
-71.3269
11
157.122
21
-71.3985
0
LINE
8
BLACK
6
CONTINUOUS
10
157.122
20
-71.3985
11
156.939
21
-71.435
0
LINE
8
BLACK
6
CONTINUOUS
10
156.939
20
-71.435
11
156.751
21
-71.435
0
LINE
8
BLACK
6
CONTINUOUS
10
156.751
20
-71.435
11
156.568
21
-71.3985
0
LINE
8
BLACK
6
CONTINUOUS
10
156.568
20
-71.3985
11
156.395
21
-71.3269
0
LINE
8
BLACK
6
CONTINUOUS
10
156.395
20
-71.3269
11
156.239
21
-71.2229
0
LINE
8
BLACK
6
CONTINUOUS
10
156.239
20
-71.2229
11
156.107
21
-71.0906
0
LINE
8
BLACK
6
CONTINUOUS
10
156.107
20
-71.0906
11
156.003
21
-70.935
0
LINE
8
BLACK
6
CONTINUOUS
10
156.003
20
-70.935
11
155.932
21
-70.7621
0
LINE
8
BLACK
6
CONTINUOUS
10
155.932
20
-70.7621
11
155.895
21
-70.5786
0
LINE
8
BLACK
6
CONTINUOUS
10
155.895
20
-70.5786
11
155.895
21
-70.3914
0
LINE
8
BLACK
6
CONTINUOUS
10
155.895
20
-70.3914
11
155.932
21
-70.2079
0
LINE
8
BLACK
6
CONTINUOUS
10
155.932
20
-70.2079
11
156.003
21
-70.035
0
LINE
8
BLACK
6
CONTINUOUS
10
156.003
20
-70.035
11
156.107
21
-69.8794
0
LINE
8
BLACK
6
CONTINUOUS
10
156.107
20
-69.8794
11
156.239
21
-69.7471
0
LINE
8
BLACK
6
CONTINUOUS
10
156.239
20
-69.7471
11
156.395
21
-69.6431
0
LINE
8
BLACK
6
CONTINUOUS
10
156.395
20
-69.6431
11
156.568
21
-69.5715
0
LINE
8
BLACK
6
CONTINUOUS
10
156.568
20
-69.5715
11
156.751
21
-69.535
0
LINE
8
BLACK
6
CONTINUOUS
10
156.751
20
-69.535
11
156.939
21
-69.535
0
LINE
8
BLACK
6
CONTINUOUS
10
156.939
20
-69.535
11
157.122
21
-69.5715
0
LINE
8
BLACK
6
CONTINUOUS
10
116.482
20
-69.5715
11
116.655
21
-69.6431
0
LINE
8
BLACK
6
CONTINUOUS
10
116.655
20
-69.6431
11
116.811
21
-69.7471
0
LINE
8
BLACK
6
CONTINUOUS
10
116.811
20
-69.7471
11
116.943
21
-69.8794
0
LINE
8
BLACK
6
CONTINUOUS
10
116.943
20
-69.8794
11
117.047
21
-70.035
0
LINE
8
BLACK
6
CONTINUOUS
10
117.047
20
-70.035
11
117.118
21
-70.2079
0
LINE
8
BLACK
6
CONTINUOUS
10
117.118
20
-70.2079
11
117.155
21
-70.3914
0
LINE
8
BLACK
6
CONTINUOUS
10
117.155
20
-70.3914
11
117.155
21
-70.5786
0
LINE
8
BLACK
6
CONTINUOUS
10
117.155
20
-70.5786
11
117.118
21
-70.7621
0
LINE
8
BLACK
6
CONTINUOUS
10
117.118
20
-70.7621
11
117.047
21
-70.935
0
LINE
8
BLACK
6
CONTINUOUS
10
117.047
20
-70.935
11
116.943
21
-71.0906
0
LINE
8
BLACK
6
CONTINUOUS
10
116.943
20
-71.0906
11
116.811
21
-71.2229
0
LINE
8
BLACK
6
CONTINUOUS
10
116.811
20
-71.2229
11
116.655
21
-71.3269
0
LINE
8
BLACK
6
CONTINUOUS
10
116.655
20
-71.3269
11
116.482
21
-71.3985
0
LINE
8
BLACK
6
CONTINUOUS
10
116.482
20
-71.3985
11
116.299
21
-71.435
0
LINE
8
BLACK
6
CONTINUOUS
10
116.299
20
-71.435
11
116.111
21
-71.435
0
LINE
8
BLACK
6
CONTINUOUS
10
116.111
20
-71.435
11
115.928
21
-71.3985
0
LINE
8
BLACK
6
CONTINUOUS
10
115.928
20
-71.3985
11
115.755
21
-71.3269
0
LINE
8
BLACK
6
CONTINUOUS
10
115.755
20
-71.3269
11
115.599
21
-71.2229
0
LINE
8
BLACK
6
CONTINUOUS
10
115.599
20
-71.2229
11
115.467
21
-71.0906
0
LINE
8
BLACK
6
CONTINUOUS
10
115.467
20
-71.0906
11
115.363
21
-70.935
0
LINE
8
BLACK
6
CONTINUOUS
10
115.363
20
-70.935
11
115.292
21
-70.7621
0
LINE
8
BLACK
6
CONTINUOUS
10
115.292
20
-70.7621
11
115.255
21
-70.5786
0
LINE
8
BLACK
6
CONTINUOUS
10
115.255
20
-70.5786
11
115.255
21
-70.3914
0
LINE
8
BLACK
6
CONTINUOUS
10
115.255
20
-70.3914
11
115.292
21
-70.2079
0
LINE
8
BLACK
6
CONTINUOUS
10
115.292
20
-70.2079
11
115.363
21
-70.035
0
LINE
8
BLACK
6
CONTINUOUS
10
115.363
20
-70.035
11
115.467
21
-69.8794
0
LINE
8
BLACK
6
CONTINUOUS
10
115.467
20
-69.8794
11
115.599
21
-69.7471
0
LINE
8
BLACK
6
CONTINUOUS
10
115.599
20
-69.7471
11
115.755
21
-69.6431
0
LINE
8
BLACK
6
CONTINUOUS
10
115.755
20
-69.6431
11
115.928
21
-69.5715
0
LINE
8
BLACK
6
CONTINUOUS
10
115.928
20
-69.5715
11
116.111
21
-69.535
0
LINE
8
BLACK
6
CONTINUOUS
10
116.111
20
-69.535
11
116.299
21
-69.535
0
LINE
8
BLACK
6
CONTINUOUS
10
116.299
20
-69.535
11
116.482
21
-69.5715
0
LINE
8
BLACK
6
CONTINUOUS
10
154.582
20
-69.5715
11
154.755
21
-69.6431
0
LINE
8
BLACK
6
CONTINUOUS
10
154.755
20
-69.6431
11
154.911
21
-69.7471
0
LINE
8
BLACK
6
CONTINUOUS
10
154.911
20
-69.7471
11
155.043
21
-69.8794
0
LINE
8
BLACK
6
CONTINUOUS
10
155.043
20
-69.8794
11
155.147
21
-70.035
0
LINE
8
BLACK
6
CONTINUOUS
10
155.147
20
-70.035
11
155.218
21
-70.2079
0
LINE
8
BLACK
6
CONTINUOUS
10
155.218
20
-70.2079
11
155.255
21
-70.3914
0
LINE
8
BLACK
6
CONTINUOUS
10
155.255
20
-70.3914
11
155.255
21
-70.5786
0
LINE
8
BLACK
6
CONTINUOUS
10
155.255
20
-70.5786
11
155.218
21
-70.7621
0
LINE
8
BLACK
6
CONTINUOUS
10
155.218
20
-70.7621
11
155.147
21
-70.935
0
LINE
8
BLACK
6
CONTINUOUS
10
155.147
20
-70.935
11
155.043
21
-71.0906
0
LINE
8
BLACK
6
CONTINUOUS
10
155.043
20
-71.0906
11
154.911
21
-71.2229
0
LINE
8
BLACK
6
CONTINUOUS
10
154.911
20
-71.2229
11
154.755
21
-71.3269
0
LINE
8
BLACK
6
CONTINUOUS
10
154.755
20
-71.3269
11
154.582
21
-71.3985
0
LINE
8
BLACK
6
CONTINUOUS
10
154.582
20
-71.3985
11
154.399
21
-71.435
0
LINE
8
BLACK
6
CONTINUOUS
10
154.399
20
-71.435
11
154.211
21
-71.435
0
LINE
8
BLACK
6
CONTINUOUS
10
154.211
20
-71.435
11
154.028
21
-71.3985
0
LINE
8
BLACK
6
CONTINUOUS
10
154.028
20
-71.3985
11
153.855
21
-71.3269
0
LINE
8
BLACK
6
CONTINUOUS
10
153.855
20
-71.3269
11
153.699
21
-71.2229
0
LINE
8
BLACK
6
CONTINUOUS
10
153.699
20
-71.2229
11
153.567
21
-71.0906
0
LINE
8
BLACK
6
CONTINUOUS
10
153.567
20
-71.0906
11
153.463
21
-70.935
0
LINE
8
BLACK
6
CONTINUOUS
10
153.463
20
-70.935
11
153.392
21
-70.7621
0
LINE
8
BLACK
6
CONTINUOUS
10
153.392
20
-70.7621
11
153.355
21
-70.5786
0
LINE
8
BLACK
6
CONTINUOUS
10
153.355
20
-70.5786
11
153.355
21
-70.3914
0
LINE
8
BLACK
6
CONTINUOUS
10
153.355
20
-70.3914
11
153.392
21
-70.2079
0
LINE
8
BLACK
6
CONTINUOUS
10
153.392
20
-70.2079
11
153.463
21
-70.035
0
LINE
8
BLACK
6
CONTINUOUS
10
153.463
20
-70.035
11
153.567
21
-69.8794
0
LINE
8
BLACK
6
CONTINUOUS
10
153.567
20
-69.8794
11
153.699
21
-69.7471
0
LINE
8
BLACK
6
CONTINUOUS
10
153.699
20
-69.7471
11
153.855
21
-69.6431
0
LINE
8
BLACK
6
CONTINUOUS
10
153.855
20
-69.6431
11
154.028
21
-69.5715
0
LINE
8
BLACK
6
CONTINUOUS
10
154.028
20
-69.5715
11
154.211
21
-69.535
0
LINE
8
BLACK
6
CONTINUOUS
10
154.211
20
-69.535
11
154.399
21
-69.535
0
LINE
8
BLACK
6
CONTINUOUS
10
154.399
20
-69.535
11
154.582
21
-69.5715
0
LINE
8
BLACK
6
CONTINUOUS
10
113.942
20
-69.5715
11
114.115
21
-69.6431
0
LINE
8
BLACK
6
CONTINUOUS
10
114.115
20
-69.6431
11
114.271
21
-69.7471
0
LINE
8
BLACK
6
CONTINUOUS
10
114.271
20
-69.7471
11
114.403
21
-69.8794
0
LINE
8
BLACK
6
CONTINUOUS
10
114.403
20
-69.8794
11
114.507
21
-70.035
0
LINE
8
BLACK
6
CONTINUOUS
10
114.507
20
-70.035
11
114.578
21
-70.2079
0
LINE
8
BLACK
6
CONTINUOUS
10
114.578
20
-70.2079
11
114.615
21
-70.3914
0
LINE
8
BLACK
6
CONTINUOUS
10
114.615
20
-70.3914
11
114.615
21
-70.5786
0
LINE
8
BLACK
6
CONTINUOUS
10
114.615
20
-70.5786
11
114.578
21
-70.7621
0
LINE
8
BLACK
6
CONTINUOUS
10
114.578
20
-70.7621
11
114.507
21
-70.935
0
LINE
8
BLACK
6
CONTINUOUS
10
114.507
20
-70.935
11
114.403
21
-71.0906
0
LINE
8
BLACK
6
CONTINUOUS
10
114.403
20
-71.0906
11
114.271
21
-71.2229
0
LINE
8
BLACK
6
CONTINUOUS
10
114.271
20
-71.2229
11
114.115
21
-71.3269
0
LINE
8
BLACK
6
CONTINUOUS
10
114.115
20
-71.3269
11
113.942
21
-71.3985
0
LINE
8
BLACK
6
CONTINUOUS
10
113.942
20
-71.3985
11
113.759
21
-71.435
0
LINE
8
BLACK
6
CONTINUOUS
10
113.759
20
-71.435
11
113.571
21
-71.435
0
LINE
8
BLACK
6
CONTINUOUS
10
113.571
20
-71.435
11
113.388
21
-71.3985
0
LINE
8
BLACK
6
CONTINUOUS
10
113.388
20
-71.3985
11
113.215
21
-71.3269
0
LINE
8
BLACK
6
CONTINUOUS
10
113.215
20
-71.3269
11
113.059
21
-71.2229
0
LINE
8
BLACK
6
CONTINUOUS
10
113.059
20
-71.2229
11
112.927
21
-71.0906
0
LINE
8
BLACK
6
CONTINUOUS
10
112.927
20
-71.0906
11
112.823
21
-70.935
0
LINE
8
BLACK
6
CONTINUOUS
10
112.823
20
-70.935
11
112.752
21
-70.7621
0
LINE
8
BLACK
6
CONTINUOUS
10
112.752
20
-70.7621
11
112.715
21
-70.5786
0
LINE
8
BLACK
6
CONTINUOUS
10
112.715
20
-70.5786
11
112.715
21
-70.3914
0
LINE
8
BLACK
6
CONTINUOUS
10
112.715
20
-70.3914
11
112.752
21
-70.2079
0
LINE
8
BLACK
6
CONTINUOUS
10
112.752
20
-70.2079
11
112.823
21
-70.035
0
LINE
8
BLACK
6
CONTINUOUS
10
112.823
20
-70.035
11
112.927
21
-69.8794
0
LINE
8
BLACK
6
CONTINUOUS
10
112.927
20
-69.8794
11
113.059
21
-69.7471
0
LINE
8
BLACK
6
CONTINUOUS
10
113.059
20
-69.7471
11
113.215
21
-69.6431
0
LINE
8
BLACK
6
CONTINUOUS
10
113.215
20
-69.6431
11
113.388
21
-69.5715
0
LINE
8
BLACK
6
CONTINUOUS
10
113.388
20
-69.5715
11
113.571
21
-69.535
0
LINE
8
BLACK
6
CONTINUOUS
10
113.571
20
-69.535
11
113.759
21
-69.535
0
LINE
8
BLACK
6
CONTINUOUS
10
113.759
20
-69.535
11
113.942
21
-69.5715
0
LINE
8
BLACK
6
CONTINUOUS
10
111.402
20
-69.5715
11
111.575
21
-69.6431
0
LINE
8
BLACK
6
CONTINUOUS
10
111.575
20
-69.6431
11
111.731
21
-69.7471
0
LINE
8
BLACK
6
CONTINUOUS
10
111.731
20
-69.7471
11
111.863
21
-69.8794
0
LINE
8
BLACK
6
CONTINUOUS
10
111.863
20
-69.8794
11
111.967
21
-70.035
0
LINE
8
BLACK
6
CONTINUOUS
10
111.967
20
-70.035
11
112.038
21
-70.2079
0
LINE
8
BLACK
6
CONTINUOUS
10
112.038
20
-70.2079
11
112.075
21
-70.3914
0
LINE
8
BLACK
6
CONTINUOUS
10
112.075
20
-70.3914
11
112.075
21
-70.5786
0
LINE
8
BLACK
6
CONTINUOUS
10
112.075
20
-70.5786
11
112.038
21
-70.7621
0
LINE
8
BLACK
6
CONTINUOUS
10
112.038
20
-70.7621
11
111.967
21
-70.935
0
LINE
8
BLACK
6
CONTINUOUS
10
111.967
20
-70.935
11
111.863
21
-71.0906
0
LINE
8
BLACK
6
CONTINUOUS
10
111.863
20
-71.0906
11
111.731
21
-71.2229
0
LINE
8
BLACK
6
CONTINUOUS
10
111.731
20
-71.2229
11
111.575
21
-71.3269
0
LINE
8
BLACK
6
CONTINUOUS
10
111.575
20
-71.3269
11
111.402
21
-71.3985
0
LINE
8
BLACK
6
CONTINUOUS
10
111.402
20
-71.3985
11
111.219
21
-71.435
0
LINE
8
BLACK
6
CONTINUOUS
10
111.219
20
-71.435
11
111.031
21
-71.435
0
LINE
8
BLACK
6
CONTINUOUS
10
111.031
20
-71.435
11
110.848
21
-71.3985
0
LINE
8
BLACK
6
CONTINUOUS
10
110.848
20
-71.3985
11
110.675
21
-71.3269
0
LINE
8
BLACK
6
CONTINUOUS
10
110.675
20
-71.3269
11
110.519
21
-71.2229
0
LINE
8
BLACK
6
CONTINUOUS
10
110.519
20
-71.2229
11
110.387
21
-71.0906
0
LINE
8
BLACK
6
CONTINUOUS
10
110.387
20
-71.0906
11
110.283
21
-70.935
0
LINE
8
BLACK
6
CONTINUOUS
10
110.283
20
-70.935
11
110.212
21
-70.7621
0
LINE
8
BLACK
6
CONTINUOUS
10
110.212
20
-70.7621
11
110.175
21
-70.5786
0
LINE
8
BLACK
6
CONTINUOUS
10
110.175
20
-70.5786
11
110.175
21
-70.3914
0
LINE
8
BLACK
6
CONTINUOUS
10
110.175
20
-70.3914
11
110.212
21
-70.2079
0
LINE
8
BLACK
6
CONTINUOUS
10
110.212
20
-70.2079
11
110.283
21
-70.035
0
LINE
8
BLACK
6
CONTINUOUS
10
110.283
20
-70.035
11
110.387
21
-69.8794
0
LINE
8
BLACK
6
CONTINUOUS
10
110.387
20
-69.8794
11
110.519
21
-69.7471
0
LINE
8
BLACK
6
CONTINUOUS
10
110.519
20
-69.7471
11
110.675
21
-69.6431
0
LINE
8
BLACK
6
CONTINUOUS
10
110.675
20
-69.6431
11
110.848
21
-69.5715
0
LINE
8
BLACK
6
CONTINUOUS
10
110.848
20
-69.5715
11
111.031
21
-69.535
0
LINE
8
BLACK
6
CONTINUOUS
10
111.031
20
-69.535
11
111.219
21
-69.535
0
LINE
8
BLACK
6
CONTINUOUS
10
111.219
20
-69.535
11
111.402
21
-69.5715
0
LINE
8
BLACK
6
CONTINUOUS
10
121.562
20
-69.5715
11
121.735
21
-69.6431
0
LINE
8
BLACK
6
CONTINUOUS
10
121.735
20
-69.6431
11
121.891
21
-69.7471
0
LINE
8
BLACK
6
CONTINUOUS
10
121.891
20
-69.7471
11
122.023
21
-69.8794
0
LINE
8
BLACK
6
CONTINUOUS
10
122.023
20
-69.8794
11
122.127
21
-70.035
0
LINE
8
BLACK
6
CONTINUOUS
10
122.127
20
-70.035
11
122.198
21
-70.2079
0
LINE
8
BLACK
6
CONTINUOUS
10
122.198
20
-70.2079
11
122.235
21
-70.3914
0
LINE
8
BLACK
6
CONTINUOUS
10
122.235
20
-70.3914
11
122.235
21
-70.5786
0
LINE
8
BLACK
6
CONTINUOUS
10
122.235
20
-70.5786
11
122.198
21
-70.7621
0
LINE
8
BLACK
6
CONTINUOUS
10
122.198
20
-70.7621
11
122.127
21
-70.935
0
LINE
8
BLACK
6
CONTINUOUS
10
122.127
20
-70.935
11
122.023
21
-71.0906
0
LINE
8
BLACK
6
CONTINUOUS
10
122.023
20
-71.0906
11
121.891
21
-71.2229
0
LINE
8
BLACK
6
CONTINUOUS
10
121.891
20
-71.2229
11
121.735
21
-71.3269
0
LINE
8
BLACK
6
CONTINUOUS
10
121.735
20
-71.3269
11
121.562
21
-71.3985
0
LINE
8
BLACK
6
CONTINUOUS
10
121.562
20
-71.3985
11
121.379
21
-71.435
0
LINE
8
BLACK
6
CONTINUOUS
10
121.379
20
-71.435
11
121.191
21
-71.435
0
LINE
8
BLACK
6
CONTINUOUS
10
121.191
20
-71.435
11
121.008
21
-71.3985
0
LINE
8
BLACK
6
CONTINUOUS
10
121.008
20
-71.3985
11
120.835
21
-71.3269
0
LINE
8
BLACK
6
CONTINUOUS
10
120.835
20
-71.3269
11
120.679
21
-71.2229
0
LINE
8
BLACK
6
CONTINUOUS
10
120.679
20
-71.2229
11
120.547
21
-71.0906
0
LINE
8
BLACK
6
CONTINUOUS
10
120.547
20
-71.0906
11
120.443
21
-70.935
0
LINE
8
BLACK
6
CONTINUOUS
10
120.443
20
-70.935
11
120.372
21
-70.7621
0
LINE
8
BLACK
6
CONTINUOUS
10
120.372
20
-70.7621
11
120.335
21
-70.5786
0
LINE
8
BLACK
6
CONTINUOUS
10
120.335
20
-70.5786
11
120.335
21
-70.3914
0
LINE
8
BLACK
6
CONTINUOUS
10
120.335
20
-70.3914
11
120.372
21
-70.2079
0
LINE
8
BLACK
6
CONTINUOUS
10
120.372
20
-70.2079
11
120.443
21
-70.035
0
LINE
8
BLACK
6
CONTINUOUS
10
120.443
20
-70.035
11
120.547
21
-69.8794
0
LINE
8
BLACK
6
CONTINUOUS
10
120.547
20
-69.8794
11
120.679
21
-69.7471
0
LINE
8
BLACK
6
CONTINUOUS
10
120.679
20
-69.7471
11
120.835
21
-69.6431
0
LINE
8
BLACK
6
CONTINUOUS
10
120.835
20
-69.6431
11
121.008
21
-69.5715
0
LINE
8
BLACK
6
CONTINUOUS
10
121.008
20
-69.5715
11
121.191
21
-69.535
0
LINE
8
BLACK
6
CONTINUOUS
10
121.191
20
-69.535
11
121.379
21
-69.535
0
LINE
8
BLACK
6
CONTINUOUS
10
121.379
20
-69.535
11
121.562
21
-69.5715
0
LINE
8
BLACK
6
CONTINUOUS
10
108.862
20
-69.5715
11
109.035
21
-69.6431
0
LINE
8
BLACK
6
CONTINUOUS
10
109.035
20
-69.6431
11
109.191
21
-69.7471
0
LINE
8
BLACK
6
CONTINUOUS
10
109.191
20
-69.7471
11
109.323
21
-69.8794
0
LINE
8
BLACK
6
CONTINUOUS
10
109.323
20
-69.8794
11
109.427
21
-70.035
0
LINE
8
BLACK
6
CONTINUOUS
10
109.427
20
-70.035
11
109.498
21
-70.2079
0
LINE
8
BLACK
6
CONTINUOUS
10
109.498
20
-70.2079
11
109.535
21
-70.3914
0
LINE
8
BLACK
6
CONTINUOUS
10
109.535
20
-70.3914
11
109.535
21
-70.5786
0
LINE
8
BLACK
6
CONTINUOUS
10
109.535
20
-70.5786
11
109.498
21
-70.7621
0
LINE
8
BLACK
6
CONTINUOUS
10
109.498
20
-70.7621
11
109.427
21
-70.935
0
LINE
8
BLACK
6
CONTINUOUS
10
109.427
20
-70.935
11
109.323
21
-71.0906
0
LINE
8
BLACK
6
CONTINUOUS
10
109.323
20
-71.0906
11
109.191
21
-71.2229
0
LINE
8
BLACK
6
CONTINUOUS
10
109.191
20
-71.2229
11
109.035
21
-71.3269
0
LINE
8
BLACK
6
CONTINUOUS
10
109.035
20
-71.3269
11
108.862
21
-71.3985
0
LINE
8
BLACK
6
CONTINUOUS
10
108.862
20
-71.3985
11
108.679
21
-71.435
0
LINE
8
BLACK
6
CONTINUOUS
10
108.679
20
-71.435
11
108.491
21
-71.435
0
LINE
8
BLACK
6
CONTINUOUS
10
108.491
20
-71.435
11
108.308
21
-71.3985
0
LINE
8
BLACK
6
CONTINUOUS
10
108.308
20
-71.3985
11
108.135
21
-71.3269
0
LINE
8
BLACK
6
CONTINUOUS
10
108.135
20
-71.3269
11
107.979
21
-71.2229
0
LINE
8
BLACK
6
CONTINUOUS
10
107.979
20
-71.2229
11
107.847
21
-71.0906
0
LINE
8
BLACK
6
CONTINUOUS
10
107.847
20
-71.0906
11
107.743
21
-70.935
0
LINE
8
BLACK
6
CONTINUOUS
10
107.743
20
-70.935
11
107.672
21
-70.7621
0
LINE
8
BLACK
6
CONTINUOUS
10
107.672
20
-70.7621
11
107.635
21
-70.5786
0
LINE
8
BLACK
6
CONTINUOUS
10
107.635
20
-70.5786
11
107.635
21
-70.3914
0
LINE
8
BLACK
6
CONTINUOUS
10
107.635
20
-70.3914
11
107.672
21
-70.2079
0
LINE
8
BLACK
6
CONTINUOUS
10
107.672
20
-70.2079
11
107.743
21
-70.035
0
LINE
8
BLACK
6
CONTINUOUS
10
107.743
20
-70.035
11
107.847
21
-69.8794
0
LINE
8
BLACK
6
CONTINUOUS
10
107.847
20
-69.8794
11
107.979
21
-69.7471
0
LINE
8
BLACK
6
CONTINUOUS
10
107.979
20
-69.7471
11
108.135
21
-69.6431
0
LINE
8
BLACK
6
CONTINUOUS
10
108.135
20
-69.6431
11
108.308
21
-69.5715
0
LINE
8
BLACK
6
CONTINUOUS
10
108.308
20
-69.5715
11
108.491
21
-69.535
0
LINE
8
BLACK
6
CONTINUOUS
10
108.491
20
-69.535
11
108.679
21
-69.535
0
LINE
8
BLACK
6
CONTINUOUS
10
108.679
20
-69.535
11
108.862
21
-69.5715
0
LINE
8
BLACK
6
CONTINUOUS
10
106.322
20
-69.5715
11
106.495
21
-69.6431
0
LINE
8
BLACK
6
CONTINUOUS
10
106.495
20
-69.6431
11
106.651
21
-69.7471
0
LINE
8
BLACK
6
CONTINUOUS
10
106.651
20
-69.7471
11
106.783
21
-69.8794
0
LINE
8
BLACK
6
CONTINUOUS
10
106.783
20
-69.8794
11
106.887
21
-70.035
0
LINE
8
BLACK
6
CONTINUOUS
10
106.887
20
-70.035
11
106.958
21
-70.2079
0
LINE
8
BLACK
6
CONTINUOUS
10
106.958
20
-70.2079
11
106.995
21
-70.3914
0
LINE
8
BLACK
6
CONTINUOUS
10
106.995
20
-70.3914
11
106.995
21
-70.5786
0
LINE
8
BLACK
6
CONTINUOUS
10
106.995
20
-70.5786
11
106.958
21
-70.7621
0
LINE
8
BLACK
6
CONTINUOUS
10
106.958
20
-70.7621
11
106.887
21
-70.935
0
LINE
8
BLACK
6
CONTINUOUS
10
106.887
20
-70.935
11
106.783
21
-71.0906
0
LINE
8
BLACK
6
CONTINUOUS
10
106.783
20
-71.0906
11
106.651
21
-71.2229
0
LINE
8
BLACK
6
CONTINUOUS
10
106.651
20
-71.2229
11
106.495
21
-71.3269
0
LINE
8
BLACK
6
CONTINUOUS
10
106.495
20
-71.3269
11
106.322
21
-71.3985
0
LINE
8
BLACK
6
CONTINUOUS
10
106.322
20
-71.3985
11
106.139
21
-71.435
0
LINE
8
BLACK
6
CONTINUOUS
10
106.139
20
-71.435
11
105.951
21
-71.435
0
LINE
8
BLACK
6
CONTINUOUS
10
105.951
20
-71.435
11
105.768
21
-71.3985
0
LINE
8
BLACK
6
CONTINUOUS
10
105.768
20
-71.3985
11
105.595
21
-71.3269
0
LINE
8
BLACK
6
CONTINUOUS
10
105.595
20
-71.3269
11
105.439
21
-71.2229
0
LINE
8
BLACK
6
CONTINUOUS
10
105.439
20
-71.2229
11
105.307
21
-71.0906
0
LINE
8
BLACK
6
CONTINUOUS
10
105.307
20
-71.0906
11
105.203
21
-70.935
0
LINE
8
BLACK
6
CONTINUOUS
10
105.203
20
-70.935
11
105.132
21
-70.7621
0
LINE
8
BLACK
6
CONTINUOUS
10
105.132
20
-70.7621
11
105.095
21
-70.5786
0
LINE
8
BLACK
6
CONTINUOUS
10
105.095
20
-70.5786
11
105.095
21
-70.3914
0
LINE
8
BLACK
6
CONTINUOUS
10
105.095
20
-70.3914
11
105.132
21
-70.2079
0
LINE
8
BLACK
6
CONTINUOUS
10
105.132
20
-70.2079
11
105.203
21
-70.035
0
LINE
8
BLACK
6
CONTINUOUS
10
105.203
20
-70.035
11
105.307
21
-69.8794
0
LINE
8
BLACK
6
CONTINUOUS
10
105.307
20
-69.8794
11
105.439
21
-69.7471
0
LINE
8
BLACK
6
CONTINUOUS
10
105.439
20
-69.7471
11
105.595
21
-69.6431
0
LINE
8
BLACK
6
CONTINUOUS
10
105.595
20
-69.6431
11
105.768
21
-69.5715
0
LINE
8
BLACK
6
CONTINUOUS
10
105.768
20
-69.5715
11
105.951
21
-69.535
0
LINE
8
BLACK
6
CONTINUOUS
10
105.951
20
-69.535
11
106.139
21
-69.535
0
LINE
8
BLACK
6
CONTINUOUS
10
106.139
20
-69.535
11
106.322
21
-69.5715
0
LINE
8
BLACK
6
CONTINUOUS
10
159.662
20
-69.5715
11
159.835
21
-69.6431
0
LINE
8
BLACK
6
CONTINUOUS
10
159.835
20
-69.6431
11
159.991
21
-69.7471
0
LINE
8
BLACK
6
CONTINUOUS
10
159.991
20
-69.7471
11
160.123
21
-69.8794
0
LINE
8
BLACK
6
CONTINUOUS
10
160.123
20
-69.8794
11
160.227
21
-70.035
0
LINE
8
BLACK
6
CONTINUOUS
10
160.227
20
-70.035
11
160.298
21
-70.2079
0
LINE
8
BLACK
6
CONTINUOUS
10
160.298
20
-70.2079
11
160.335
21
-70.3914
0
LINE
8
BLACK
6
CONTINUOUS
10
160.335
20
-70.3914
11
160.335
21
-70.5786
0
LINE
8
BLACK
6
CONTINUOUS
10
160.335
20
-70.5786
11
160.298
21
-70.7621
0
LINE
8
BLACK
6
CONTINUOUS
10
160.298
20
-70.7621
11
160.227
21
-70.935
0
LINE
8
BLACK
6
CONTINUOUS
10
160.227
20
-70.935
11
160.123
21
-71.0906
0
LINE
8
BLACK
6
CONTINUOUS
10
160.123
20
-71.0906
11
159.991
21
-71.2229
0
LINE
8
BLACK
6
CONTINUOUS
10
159.991
20
-71.2229
11
159.835
21
-71.3269
0
LINE
8
BLACK
6
CONTINUOUS
10
159.835
20
-71.3269
11
159.662
21
-71.3985
0
LINE
8
BLACK
6
CONTINUOUS
10
159.662
20
-71.3985
11
159.479
21
-71.435
0
LINE
8
BLACK
6
CONTINUOUS
10
159.479
20
-71.435
11
159.291
21
-71.435
0
LINE
8
BLACK
6
CONTINUOUS
10
159.291
20
-71.435
11
159.108
21
-71.3985
0
LINE
8
BLACK
6
CONTINUOUS
10
159.108
20
-71.3985
11
158.935
21
-71.3269
0
LINE
8
BLACK
6
CONTINUOUS
10
158.935
20
-71.3269
11
158.779
21
-71.2229
0
LINE
8
BLACK
6
CONTINUOUS
10
158.779
20
-71.2229
11
158.647
21
-71.0906
0
LINE
8
BLACK
6
CONTINUOUS
10
158.647
20
-71.0906
11
158.543
21
-70.935
0
LINE
8
BLACK
6
CONTINUOUS
10
158.543
20
-70.935
11
158.472
21
-70.7621
0
LINE
8
BLACK
6
CONTINUOUS
10
158.472
20
-70.7621
11
158.435
21
-70.5786
0
LINE
8
BLACK
6
CONTINUOUS
10
158.435
20
-70.5786
11
158.435
21
-70.3914
0
LINE
8
BLACK
6
CONTINUOUS
10
158.435
20
-70.3914
11
158.472
21
-70.2079
0
LINE
8
BLACK
6
CONTINUOUS
10
158.472
20
-70.2079
11
158.543
21
-70.035
0
LINE
8
BLACK
6
CONTINUOUS
10
158.543
20
-70.035
11
158.647
21
-69.8794
0
LINE
8
BLACK
6
CONTINUOUS
10
158.647
20
-69.8794
11
158.779
21
-69.7471
0
LINE
8
BLACK
6
CONTINUOUS
10
158.779
20
-69.7471
11
158.935
21
-69.6431
0
LINE
8
BLACK
6
CONTINUOUS
10
158.935
20
-69.6431
11
159.108
21
-69.5715
0
LINE
8
BLACK
6
CONTINUOUS
10
159.108
20
-69.5715
11
159.291
21
-69.535
0
LINE
8
BLACK
6
CONTINUOUS
10
159.291
20
-69.535
11
159.479
21
-69.535
0
LINE
8
BLACK
6
CONTINUOUS
10
159.479
20
-69.535
11
159.662
21
-69.5715
0
LINE
8
BLACK
6
CONTINUOUS
10
103.782
20
-69.5715
11
103.955
21
-69.6431
0
LINE
8
BLACK
6
CONTINUOUS
10
103.955
20
-69.6431
11
104.111
21
-69.7471
0
LINE
8
BLACK
6
CONTINUOUS
10
104.111
20
-69.7471
11
104.243
21
-69.8794
0
LINE
8
BLACK
6
CONTINUOUS
10
104.243
20
-69.8794
11
104.347
21
-70.035
0
LINE
8
BLACK
6
CONTINUOUS
10
104.347
20
-70.035
11
104.418
21
-70.2079
0
LINE
8
BLACK
6
CONTINUOUS
10
104.418
20
-70.2079
11
104.455
21
-70.3914
0
LINE
8
BLACK
6
CONTINUOUS
10
104.455
20
-70.3914
11
104.455
21
-70.5786
0
LINE
8
BLACK
6
CONTINUOUS
10
104.455
20
-70.5786
11
104.418
21
-70.7621
0
LINE
8
BLACK
6
CONTINUOUS
10
104.418
20
-70.7621
11
104.347
21
-70.935
0
LINE
8
BLACK
6
CONTINUOUS
10
104.347
20
-70.935
11
104.243
21
-71.0906
0
LINE
8
BLACK
6
CONTINUOUS
10
104.243
20
-71.0906
11
104.111
21
-71.2229
0
LINE
8
BLACK
6
CONTINUOUS
10
104.111
20
-71.2229
11
103.955
21
-71.3269
0
LINE
8
BLACK
6
CONTINUOUS
10
103.955
20
-71.3269
11
103.782
21
-71.3985
0
LINE
8
BLACK
6
CONTINUOUS
10
103.782
20
-71.3985
11
103.599
21
-71.435
0
LINE
8
BLACK
6
CONTINUOUS
10
103.599
20
-71.435
11
103.411
21
-71.435
0
LINE
8
BLACK
6
CONTINUOUS
10
103.411
20
-71.435
11
103.228
21
-71.3985
0
LINE
8
BLACK
6
CONTINUOUS
10
103.228
20
-71.3985
11
103.055
21
-71.3269
0
LINE
8
BLACK
6
CONTINUOUS
10
103.055
20
-71.3269
11
102.899
21
-71.2229
0
LINE
8
BLACK
6
CONTINUOUS
10
102.899
20
-71.2229
11
102.767
21
-71.0906
0
LINE
8
BLACK
6
CONTINUOUS
10
102.767
20
-71.0906
11
102.663
21
-70.935
0
LINE
8
BLACK
6
CONTINUOUS
10
102.663
20
-70.935
11
102.592
21
-70.7621
0
LINE
8
BLACK
6
CONTINUOUS
10
102.592
20
-70.7621
11
102.555
21
-70.5786
0
LINE
8
BLACK
6
CONTINUOUS
10
102.555
20
-70.5786
11
102.555
21
-70.3914
0
LINE
8
BLACK
6
CONTINUOUS
10
102.555
20
-70.3914
11
102.592
21
-70.2079
0
LINE
8
BLACK
6
CONTINUOUS
10
102.592
20
-70.2079
11
102.663
21
-70.035
0
LINE
8
BLACK
6
CONTINUOUS
10
102.663
20
-70.035
11
102.767
21
-69.8794
0
LINE
8
BLACK
6
CONTINUOUS
10
102.767
20
-69.8794
11
102.899
21
-69.7471
0
LINE
8
BLACK
6
CONTINUOUS
10
102.899
20
-69.7471
11
103.055
21
-69.6431
0
LINE
8
BLACK
6
CONTINUOUS
10
103.055
20
-69.6431
11
103.228
21
-69.5715
0
LINE
8
BLACK
6
CONTINUOUS
10
103.228
20
-69.5715
11
103.411
21
-69.535
0
LINE
8
BLACK
6
CONTINUOUS
10
103.411
20
-69.535
11
103.599
21
-69.535
0
LINE
8
BLACK
6
CONTINUOUS
10
103.599
20
-69.535
11
103.782
21
-69.5715
0
LINE
8
BLACK
6
CONTINUOUS
10
162.875
20
-71.435
11
160.975
21
-71.435
0
LINE
8
BLACK
6
CONTINUOUS
10
160.975
20
-71.435
11
160.975
21
-69.535
0
LINE
8
BLACK
6
CONTINUOUS
10
160.975
20
-69.535
11
162.875
21
-69.535
0
LINE
8
BLACK
6
CONTINUOUS
10
162.875
20
-69.535
11
162.875
21
-71.435
0
LINE
8
BLACK
6
CONTINUOUS
10
119.022
20
-69.5715
11
119.195
21
-69.6431
0
LINE
8
BLACK
6
CONTINUOUS
10
119.195
20
-69.6431
11
119.351
21
-69.7471
0
LINE
8
BLACK
6
CONTINUOUS
10
119.351
20
-69.7471
11
119.483
21
-69.8794
0
LINE
8
BLACK
6
CONTINUOUS
10
119.483
20
-69.8794
11
119.587
21
-70.035
0
LINE
8
BLACK
6
CONTINUOUS
10
119.587
20
-70.035
11
119.658
21
-70.2079
0
LINE
8
BLACK
6
CONTINUOUS
10
119.658
20
-70.2079
11
119.695
21
-70.3914
0
LINE
8
BLACK
6
CONTINUOUS
10
119.695
20
-70.3914
11
119.695
21
-70.5786
0
LINE
8
BLACK
6
CONTINUOUS
10
119.695
20
-70.5786
11
119.658
21
-70.7621
0
LINE
8
BLACK
6
CONTINUOUS
10
119.658
20
-70.7621
11
119.587
21
-70.935
0
LINE
8
BLACK
6
CONTINUOUS
10
119.587
20
-70.935
11
119.483
21
-71.0906
0
LINE
8
BLACK
6
CONTINUOUS
10
119.483
20
-71.0906
11
119.351
21
-71.2229
0
LINE
8
BLACK
6
CONTINUOUS
10
119.351
20
-71.2229
11
119.195
21
-71.3269
0
LINE
8
BLACK
6
CONTINUOUS
10
119.195
20
-71.3269
11
119.022
21
-71.3985
0
LINE
8
BLACK
6
CONTINUOUS
10
119.022
20
-71.3985
11
118.839
21
-71.435
0
LINE
8
BLACK
6
CONTINUOUS
10
118.839
20
-71.435
11
118.651
21
-71.435
0
LINE
8
BLACK
6
CONTINUOUS
10
118.651
20
-71.435
11
118.468
21
-71.3985
0
LINE
8
BLACK
6
CONTINUOUS
10
118.468
20
-71.3985
11
118.295
21
-71.3269
0
LINE
8
BLACK
6
CONTINUOUS
10
118.295
20
-71.3269
11
118.139
21
-71.2229
0
LINE
8
BLACK
6
CONTINUOUS
10
118.139
20
-71.2229
11
118.007
21
-71.0906
0
LINE
8
BLACK
6
CONTINUOUS
10
118.007
20
-71.0906
11
117.903
21
-70.935
0
LINE
8
BLACK
6
CONTINUOUS
10
117.903
20
-70.935
11
117.832
21
-70.7621
0
LINE
8
BLACK
6
CONTINUOUS
10
117.832
20
-70.7621
11
117.795
21
-70.5786
0
LINE
8
BLACK
6
CONTINUOUS
10
117.795
20
-70.5786
11
117.795
21
-70.3914
0
LINE
8
BLACK
6
CONTINUOUS
10
117.795
20
-70.3914
11
117.832
21
-70.2079
0
LINE
8
BLACK
6
CONTINUOUS
10
117.832
20
-70.2079
11
117.903
21
-70.035
0
LINE
8
BLACK
6
CONTINUOUS
10
117.903
20
-70.035
11
118.007
21
-69.8794
0
LINE
8
BLACK
6
CONTINUOUS
10
118.007
20
-69.8794
11
118.139
21
-69.7471
0
LINE
8
BLACK
6
CONTINUOUS
10
118.139
20
-69.7471
11
118.295
21
-69.6431
0
LINE
8
BLACK
6
CONTINUOUS
10
118.295
20
-69.6431
11
118.468
21
-69.5715
0
LINE
8
BLACK
6
CONTINUOUS
10
118.468
20
-69.5715
11
118.651
21
-69.535
0
LINE
8
BLACK
6
CONTINUOUS
10
118.651
20
-69.535
11
118.839
21
-69.535
0
LINE
8
BLACK
6
CONTINUOUS
10
118.839
20
-69.535
11
119.022
21
-69.5715
0
LINE
8
BLACK
6
CONTINUOUS
10
152.042
20
-69.5715
11
152.215
21
-69.6431
0
LINE
8
BLACK
6
CONTINUOUS
10
152.215
20
-69.6431
11
152.371
21
-69.7471
0
LINE
8
BLACK
6
CONTINUOUS
10
152.371
20
-69.7471
11
152.503
21
-69.8794
0
LINE
8
BLACK
6
CONTINUOUS
10
152.503
20
-69.8794
11
152.607
21
-70.035
0
LINE
8
BLACK
6
CONTINUOUS
10
152.607
20
-70.035
11
152.678
21
-70.2079
0
LINE
8
BLACK
6
CONTINUOUS
10
152.678
20
-70.2079
11
152.715
21
-70.3914
0
LINE
8
BLACK
6
CONTINUOUS
10
152.715
20
-70.3914
11
152.715
21
-70.5786
0
LINE
8
BLACK
6
CONTINUOUS
10
152.715
20
-70.5786
11
152.678
21
-70.7621
0
LINE
8
BLACK
6
CONTINUOUS
10
152.678
20
-70.7621
11
152.607
21
-70.935
0
LINE
8
BLACK
6
CONTINUOUS
10
152.607
20
-70.935
11
152.503
21
-71.0906
0
LINE
8
BLACK
6
CONTINUOUS
10
152.503
20
-71.0906
11
152.371
21
-71.2229
0
LINE
8
BLACK
6
CONTINUOUS
10
152.371
20
-71.2229
11
152.215
21
-71.3269
0
LINE
8
BLACK
6
CONTINUOUS
10
152.215
20
-71.3269
11
152.042
21
-71.3985
0
LINE
8
BLACK
6
CONTINUOUS
10
152.042
20
-71.3985
11
151.859
21
-71.435
0
LINE
8
BLACK
6
CONTINUOUS
10
151.859
20
-71.435
11
151.671
21
-71.435
0
LINE
8
BLACK
6
CONTINUOUS
10
151.671
20
-71.435
11
151.488
21
-71.3985
0
LINE
8
BLACK
6
CONTINUOUS
10
151.488
20
-71.3985
11
151.315
21
-71.3269
0
LINE
8
BLACK
6
CONTINUOUS
10
151.315
20
-71.3269
11
151.159
21
-71.2229
0
LINE
8
BLACK
6
CONTINUOUS
10
151.159
20
-71.2229
11
151.027
21
-71.0906
0
LINE
8
BLACK
6
CONTINUOUS
10
151.027
20
-71.0906
11
150.923
21
-70.935
0
LINE
8
BLACK
6
CONTINUOUS
10
150.923
20
-70.935
11
150.852
21
-70.7621
0
LINE
8
BLACK
6
CONTINUOUS
10
150.852
20
-70.7621
11
150.815
21
-70.5786
0
LINE
8
BLACK
6
CONTINUOUS
10
150.815
20
-70.5786
11
150.815
21
-70.3914
0
LINE
8
BLACK
6
CONTINUOUS
10
150.815
20
-70.3914
11
150.852
21
-70.2079
0
LINE
8
BLACK
6
CONTINUOUS
10
150.852
20
-70.2079
11
150.923
21
-70.035
0
LINE
8
BLACK
6
CONTINUOUS
10
150.923
20
-70.035
11
151.027
21
-69.8794
0
LINE
8
BLACK
6
CONTINUOUS
10
151.027
20
-69.8794
11
151.159
21
-69.7471
0
LINE
8
BLACK
6
CONTINUOUS
10
151.159
20
-69.7471
11
151.315
21
-69.6431
0
LINE
8
BLACK
6
CONTINUOUS
10
151.315
20
-69.6431
11
151.488
21
-69.5715
0
LINE
8
BLACK
6
CONTINUOUS
10
151.488
20
-69.5715
11
151.671
21
-69.535
0
LINE
8
BLACK
6
CONTINUOUS
10
151.671
20
-69.535
11
151.859
21
-69.535
0
LINE
8
BLACK
6
CONTINUOUS
10
151.859
20
-69.535
11
152.042
21
-69.5715
0
LINE
8
BLACK
6
CONTINUOUS
10
141.882
20
-69.5715
11
142.055
21
-69.6431
0
LINE
8
BLACK
6
CONTINUOUS
10
142.055
20
-69.6431
11
142.211
21
-69.7471
0
LINE
8
BLACK
6
CONTINUOUS
10
142.211
20
-69.7471
11
142.343
21
-69.8794
0
LINE
8
BLACK
6
CONTINUOUS
10
142.343
20
-69.8794
11
142.447
21
-70.035
0
LINE
8
BLACK
6
CONTINUOUS
10
142.447
20
-70.035
11
142.518
21
-70.2079
0
LINE
8
BLACK
6
CONTINUOUS
10
142.518
20
-70.2079
11
142.555
21
-70.3914
0
LINE
8
BLACK
6
CONTINUOUS
10
142.555
20
-70.3914
11
142.555
21
-70.5786
0
LINE
8
BLACK
6
CONTINUOUS
10
142.555
20
-70.5786
11
142.518
21
-70.7621
0
LINE
8
BLACK
6
CONTINUOUS
10
142.518
20
-70.7621
11
142.447
21
-70.935
0
LINE
8
BLACK
6
CONTINUOUS
10
142.447
20
-70.935
11
142.343
21
-71.0906
0
LINE
8
BLACK
6
CONTINUOUS
10
142.343
20
-71.0906
11
142.211
21
-71.2229
0
LINE
8
BLACK
6
CONTINUOUS
10
142.211
20
-71.2229
11
142.055
21
-71.3269
0
LINE
8
BLACK
6
CONTINUOUS
10
142.055
20
-71.3269
11
141.882
21
-71.3985
0
LINE
8
BLACK
6
CONTINUOUS
10
141.882
20
-71.3985
11
141.699
21
-71.435
0
LINE
8
BLACK
6
CONTINUOUS
10
141.699
20
-71.435
11
141.511
21
-71.435
0
LINE
8
BLACK
6
CONTINUOUS
10
141.511
20
-71.435
11
141.328
21
-71.3985
0
LINE
8
BLACK
6
CONTINUOUS
10
141.328
20
-71.3985
11
141.155
21
-71.3269
0
LINE
8
BLACK
6
CONTINUOUS
10
141.155
20
-71.3269
11
140.999
21
-71.2229
0
LINE
8
BLACK
6
CONTINUOUS
10
140.999
20
-71.2229
11
140.867
21
-71.0906
0
LINE
8
BLACK
6
CONTINUOUS
10
140.867
20
-71.0906
11
140.763
21
-70.935
0
LINE
8
BLACK
6
CONTINUOUS
10
140.763
20
-70.935
11
140.692
21
-70.7621
0
LINE
8
BLACK
6
CONTINUOUS
10
140.692
20
-70.7621
11
140.655
21
-70.5786
0
LINE
8
BLACK
6
CONTINUOUS
10
140.655
20
-70.5786
11
140.655
21
-70.3914
0
LINE
8
BLACK
6
CONTINUOUS
10
140.655
20
-70.3914
11
140.692
21
-70.2079
0
LINE
8
BLACK
6
CONTINUOUS
10
140.692
20
-70.2079
11
140.763
21
-70.035
0
LINE
8
BLACK
6
CONTINUOUS
10
140.763
20
-70.035
11
140.867
21
-69.8794
0
LINE
8
BLACK
6
CONTINUOUS
10
140.867
20
-69.8794
11
140.999
21
-69.7471
0
LINE
8
BLACK
6
CONTINUOUS
10
140.999
20
-69.7471
11
141.155
21
-69.6431
0
LINE
8
BLACK
6
CONTINUOUS
10
141.155
20
-69.6431
11
141.328
21
-69.5715
0
LINE
8
BLACK
6
CONTINUOUS
10
141.328
20
-69.5715
11
141.511
21
-69.535
0
LINE
8
BLACK
6
CONTINUOUS
10
141.511
20
-69.535
11
141.699
21
-69.535
0
LINE
8
BLACK
6
CONTINUOUS
10
141.699
20
-69.535
11
141.882
21
-69.5715
0
LINE
8
BLACK
6
CONTINUOUS
10
124.102
20
-69.5715
11
124.275
21
-69.6431
0
LINE
8
BLACK
6
CONTINUOUS
10
124.275
20
-69.6431
11
124.431
21
-69.7471
0
LINE
8
BLACK
6
CONTINUOUS
10
124.431
20
-69.7471
11
124.563
21
-69.8794
0
LINE
8
BLACK
6
CONTINUOUS
10
124.563
20
-69.8794
11
124.667
21
-70.035
0
LINE
8
BLACK
6
CONTINUOUS
10
124.667
20
-70.035
11
124.738
21
-70.2079
0
LINE
8
BLACK
6
CONTINUOUS
10
124.738
20
-70.2079
11
124.775
21
-70.3914
0
LINE
8
BLACK
6
CONTINUOUS
10
124.775
20
-70.3914
11
124.775
21
-70.5786
0
LINE
8
BLACK
6
CONTINUOUS
10
124.775
20
-70.5786
11
124.738
21
-70.7621
0
LINE
8
BLACK
6
CONTINUOUS
10
124.738
20
-70.7621
11
124.667
21
-70.935
0
LINE
8
BLACK
6
CONTINUOUS
10
124.667
20
-70.935
11
124.563
21
-71.0906
0
LINE
8
BLACK
6
CONTINUOUS
10
124.563
20
-71.0906
11
124.431
21
-71.2229
0
LINE
8
BLACK
6
CONTINUOUS
10
124.431
20
-71.2229
11
124.275
21
-71.3269
0
LINE
8
BLACK
6
CONTINUOUS
10
124.275
20
-71.3269
11
124.102
21
-71.3985
0
LINE
8
BLACK
6
CONTINUOUS
10
124.102
20
-71.3985
11
123.919
21
-71.435
0
LINE
8
BLACK
6
CONTINUOUS
10
123.919
20
-71.435
11
123.731
21
-71.435
0
LINE
8
BLACK
6
CONTINUOUS
10
123.731
20
-71.435
11
123.548
21
-71.3985
0
LINE
8
BLACK
6
CONTINUOUS
10
123.548
20
-71.3985
11
123.375
21
-71.3269
0
LINE
8
BLACK
6
CONTINUOUS
10
123.375
20
-71.3269
11
123.219
21
-71.2229
0
LINE
8
BLACK
6
CONTINUOUS
10
123.219
20
-71.2229
11
123.087
21
-71.0906
0
LINE
8
BLACK
6
CONTINUOUS
10
123.087
20
-71.0906
11
122.983
21
-70.935
0
LINE
8
BLACK
6
CONTINUOUS
10
122.983
20
-70.935
11
122.912
21
-70.7621
0
LINE
8
BLACK
6
CONTINUOUS
10
122.912
20
-70.7621
11
122.875
21
-70.5786
0
LINE
8
BLACK
6
CONTINUOUS
10
122.875
20
-70.5786
11
122.875
21
-70.3914
0
LINE
8
BLACK
6
CONTINUOUS
10
122.875
20
-70.3914
11
122.912
21
-70.2079
0
LINE
8
BLACK
6
CONTINUOUS
10
122.912
20
-70.2079
11
122.983
21
-70.035
0
LINE
8
BLACK
6
CONTINUOUS
10
122.983
20
-70.035
11
123.087
21
-69.8794
0
LINE
8
BLACK
6
CONTINUOUS
10
123.087
20
-69.8794
11
123.219
21
-69.7471
0
LINE
8
BLACK
6
CONTINUOUS
10
123.219
20
-69.7471
11
123.375
21
-69.6431
0
LINE
8
BLACK
6
CONTINUOUS
10
123.375
20
-69.6431
11
123.548
21
-69.5715
0
LINE
8
BLACK
6
CONTINUOUS
10
123.548
20
-69.5715
11
123.731
21
-69.535
0
LINE
8
BLACK
6
CONTINUOUS
10
123.731
20
-69.535
11
123.919
21
-69.535
0
LINE
8
BLACK
6
CONTINUOUS
10
123.919
20
-69.535
11
124.102
21
-69.5715
0
LINE
8
BLACK
6
CONTINUOUS
10
149.502
20
-69.5715
11
149.675
21
-69.6431
0
LINE
8
BLACK
6
CONTINUOUS
10
149.675
20
-69.6431
11
149.831
21
-69.7471
0
LINE
8
BLACK
6
CONTINUOUS
10
149.831
20
-69.7471
11
149.963
21
-69.8794
0
LINE
8
BLACK
6
CONTINUOUS
10
149.963
20
-69.8794
11
150.067
21
-70.035
0
LINE
8
BLACK
6
CONTINUOUS
10
150.067
20
-70.035
11
150.138
21
-70.2079
0
LINE
8
BLACK
6
CONTINUOUS
10
150.138
20
-70.2079
11
150.175
21
-70.3914
0
LINE
8
BLACK
6
CONTINUOUS
10
150.175
20
-70.3914
11
150.175
21
-70.5786
0
LINE
8
BLACK
6
CONTINUOUS
10
150.175
20
-70.5786
11
150.138
21
-70.7621
0
LINE
8
BLACK
6
CONTINUOUS
10
150.138
20
-70.7621
11
150.067
21
-70.935
0
LINE
8
BLACK
6
CONTINUOUS
10
150.067
20
-70.935
11
149.963
21
-71.0906
0
LINE
8
BLACK
6
CONTINUOUS
10
149.963
20
-71.0906
11
149.831
21
-71.2229
0
LINE
8
BLACK
6
CONTINUOUS
10
149.831
20
-71.2229
11
149.675
21
-71.3269
0
LINE
8
BLACK
6
CONTINUOUS
10
149.675
20
-71.3269
11
149.502
21
-71.3985
0
LINE
8
BLACK
6
CONTINUOUS
10
149.502
20
-71.3985
11
149.319
21
-71.435
0
LINE
8
BLACK
6
CONTINUOUS
10
149.319
20
-71.435
11
149.131
21
-71.435
0
LINE
8
BLACK
6
CONTINUOUS
10
149.131
20
-71.435
11
148.948
21
-71.3985
0
LINE
8
BLACK
6
CONTINUOUS
10
148.948
20
-71.3985
11
148.775
21
-71.3269
0
LINE
8
BLACK
6
CONTINUOUS
10
148.775
20
-71.3269
11
148.619
21
-71.2229
0
LINE
8
BLACK
6
CONTINUOUS
10
148.619
20
-71.2229
11
148.487
21
-71.0906
0
LINE
8
BLACK
6
CONTINUOUS
10
148.487
20
-71.0906
11
148.383
21
-70.935
0
LINE
8
BLACK
6
CONTINUOUS
10
148.383
20
-70.935
11
148.312
21
-70.7621
0
LINE
8
BLACK
6
CONTINUOUS
10
148.312
20
-70.7621
11
148.275
21
-70.5786
0
LINE
8
BLACK
6
CONTINUOUS
10
148.275
20
-70.5786
11
148.275
21
-70.3914
0
LINE
8
BLACK
6
CONTINUOUS
10
148.275
20
-70.3914
11
148.312
21
-70.2079
0
LINE
8
BLACK
6
CONTINUOUS
10
148.312
20
-70.2079
11
148.383
21
-70.035
0
LINE
8
BLACK
6
CONTINUOUS
10
148.383
20
-70.035
11
148.487
21
-69.8794
0
LINE
8
BLACK
6
CONTINUOUS
10
148.487
20
-69.8794
11
148.619
21
-69.7471
0
LINE
8
BLACK
6
CONTINUOUS
10
148.619
20
-69.7471
11
148.775
21
-69.6431
0
LINE
8
BLACK
6
CONTINUOUS
10
148.775
20
-69.6431
11
148.948
21
-69.5715
0
LINE
8
BLACK
6
CONTINUOUS
10
148.948
20
-69.5715
11
149.131
21
-69.535
0
LINE
8
BLACK
6
CONTINUOUS
10
149.131
20
-69.535
11
149.319
21
-69.535
0
LINE
8
BLACK
6
CONTINUOUS
10
149.319
20
-69.535
11
149.502
21
-69.5715
0
LINE
8
BLACK
6
CONTINUOUS
10
126.642
20
-69.5715
11
126.815
21
-69.6431
0
LINE
8
BLACK
6
CONTINUOUS
10
126.815
20
-69.6431
11
126.971
21
-69.7471
0
LINE
8
BLACK
6
CONTINUOUS
10
126.971
20
-69.7471
11
127.103
21
-69.8794
0
LINE
8
BLACK
6
CONTINUOUS
10
127.103
20
-69.8794
11
127.207
21
-70.035
0
LINE
8
BLACK
6
CONTINUOUS
10
127.207
20
-70.035
11
127.278
21
-70.2079
0
LINE
8
BLACK
6
CONTINUOUS
10
127.278
20
-70.2079
11
127.315
21
-70.3914
0
LINE
8
BLACK
6
CONTINUOUS
10
127.315
20
-70.3914
11
127.315
21
-70.5786
0
LINE
8
BLACK
6
CONTINUOUS
10
127.315
20
-70.5786
11
127.278
21
-70.7621
0
LINE
8
BLACK
6
CONTINUOUS
10
127.278
20
-70.7621
11
127.207
21
-70.935
0
LINE
8
BLACK
6
CONTINUOUS
10
127.207
20
-70.935
11
127.103
21
-71.0906
0
LINE
8
BLACK
6
CONTINUOUS
10
127.103
20
-71.0906
11
126.971
21
-71.2229
0
LINE
8
BLACK
6
CONTINUOUS
10
126.971
20
-71.2229
11
126.815
21
-71.3269
0
LINE
8
BLACK
6
CONTINUOUS
10
126.815
20
-71.3269
11
126.642
21
-71.3985
0
LINE
8
BLACK
6
CONTINUOUS
10
126.642
20
-71.3985
11
126.459
21
-71.435
0
LINE
8
BLACK
6
CONTINUOUS
10
126.459
20
-71.435
11
126.271
21
-71.435
0
LINE
8
BLACK
6
CONTINUOUS
10
126.271
20
-71.435
11
126.088
21
-71.3985
0
LINE
8
BLACK
6
CONTINUOUS
10
126.088
20
-71.3985
11
125.915
21
-71.3269
0
LINE
8
BLACK
6
CONTINUOUS
10
125.915
20
-71.3269
11
125.759
21
-71.2229
0
LINE
8
BLACK
6
CONTINUOUS
10
125.759
20
-71.2229
11
125.627
21
-71.0906
0
LINE
8
BLACK
6
CONTINUOUS
10
125.627
20
-71.0906
11
125.523
21
-70.935
0
LINE
8
BLACK
6
CONTINUOUS
10
125.523
20
-70.935
11
125.452
21
-70.7621
0
LINE
8
BLACK
6
CONTINUOUS
10
125.452
20
-70.7621
11
125.415
21
-70.5786
0
LINE
8
BLACK
6
CONTINUOUS
10
125.415
20
-70.5786
11
125.415
21
-70.3914
0
LINE
8
BLACK
6
CONTINUOUS
10
125.415
20
-70.3914
11
125.452
21
-70.2079
0
LINE
8
BLACK
6
CONTINUOUS
10
125.452
20
-70.2079
11
125.523
21
-70.035
0
LINE
8
BLACK
6
CONTINUOUS
10
125.523
20
-70.035
11
125.627
21
-69.8794
0
LINE
8
BLACK
6
CONTINUOUS
10
125.627
20
-69.8794
11
125.759
21
-69.7471
0
LINE
8
BLACK
6
CONTINUOUS
10
125.759
20
-69.7471
11
125.915
21
-69.6431
0
LINE
8
BLACK
6
CONTINUOUS
10
125.915
20
-69.6431
11
126.088
21
-69.5715
0
LINE
8
BLACK
6
CONTINUOUS
10
126.088
20
-69.5715
11
126.271
21
-69.535
0
LINE
8
BLACK
6
CONTINUOUS
10
126.271
20
-69.535
11
126.459
21
-69.535
0
LINE
8
BLACK
6
CONTINUOUS
10
126.459
20
-69.535
11
126.642
21
-69.5715
0
LINE
8
BLACK
6
CONTINUOUS
10
129.182
20
-69.5715
11
129.355
21
-69.6431
0
LINE
8
BLACK
6
CONTINUOUS
10
129.355
20
-69.6431
11
129.511
21
-69.7471
0
LINE
8
BLACK
6
CONTINUOUS
10
129.511
20
-69.7471
11
129.643
21
-69.8794
0
LINE
8
BLACK
6
CONTINUOUS
10
129.643
20
-69.8794
11
129.747
21
-70.035
0
LINE
8
BLACK
6
CONTINUOUS
10
129.747
20
-70.035
11
129.818
21
-70.2079
0
LINE
8
BLACK
6
CONTINUOUS
10
129.818
20
-70.2079
11
129.855
21
-70.3914
0
LINE
8
BLACK
6
CONTINUOUS
10
129.855
20
-70.3914
11
129.855
21
-70.5786
0
LINE
8
BLACK
6
CONTINUOUS
10
129.855
20
-70.5786
11
129.818
21
-70.7621
0
LINE
8
BLACK
6
CONTINUOUS
10
129.818
20
-70.7621
11
129.747
21
-70.935
0
LINE
8
BLACK
6
CONTINUOUS
10
129.747
20
-70.935
11
129.643
21
-71.0906
0
LINE
8
BLACK
6
CONTINUOUS
10
129.643
20
-71.0906
11
129.511
21
-71.2229
0
LINE
8
BLACK
6
CONTINUOUS
10
129.511
20
-71.2229
11
129.355
21
-71.3269
0
LINE
8
BLACK
6
CONTINUOUS
10
129.355
20
-71.3269
11
129.182
21
-71.3985
0
LINE
8
BLACK
6
CONTINUOUS
10
129.182
20
-71.3985
11
128.999
21
-71.435
0
LINE
8
BLACK
6
CONTINUOUS
10
128.999
20
-71.435
11
128.811
21
-71.435
0
LINE
8
BLACK
6
CONTINUOUS
10
128.811
20
-71.435
11
128.628
21
-71.3985
0
LINE
8
BLACK
6
CONTINUOUS
10
128.628
20
-71.3985
11
128.455
21
-71.3269
0
LINE
8
BLACK
6
CONTINUOUS
10
128.455
20
-71.3269
11
128.299
21
-71.2229
0
LINE
8
BLACK
6
CONTINUOUS
10
128.299
20
-71.2229
11
128.167
21
-71.0906
0
LINE
8
BLACK
6
CONTINUOUS
10
128.167
20
-71.0906
11
128.063
21
-70.935
0
LINE
8
BLACK
6
CONTINUOUS
10
128.063
20
-70.935
11
127.992
21
-70.7621
0
LINE
8
BLACK
6
CONTINUOUS
10
127.992
20
-70.7621
11
127.955
21
-70.5786
0
LINE
8
BLACK
6
CONTINUOUS
10
127.955
20
-70.5786
11
127.955
21
-70.3914
0
LINE
8
BLACK
6
CONTINUOUS
10
127.955
20
-70.3914
11
127.992
21
-70.2079
0
LINE
8
BLACK
6
CONTINUOUS
10
127.992
20
-70.2079
11
128.063
21
-70.035
0
LINE
8
BLACK
6
CONTINUOUS
10
128.063
20
-70.035
11
128.167
21
-69.8794
0
LINE
8
BLACK
6
CONTINUOUS
10
128.167
20
-69.8794
11
128.299
21
-69.7471
0
LINE
8
BLACK
6
CONTINUOUS
10
128.299
20
-69.7471
11
128.455
21
-69.6431
0
LINE
8
BLACK
6
CONTINUOUS
10
128.455
20
-69.6431
11
128.628
21
-69.5715
0
LINE
8
BLACK
6
CONTINUOUS
10
128.628
20
-69.5715
11
128.811
21
-69.535
0
LINE
8
BLACK
6
CONTINUOUS
10
128.811
20
-69.535
11
128.999
21
-69.535
0
LINE
8
BLACK
6
CONTINUOUS
10
128.999
20
-69.535
11
129.182
21
-69.5715
0
LINE
8
BLACK
6
CONTINUOUS
10
146.962
20
-69.5715
11
147.135
21
-69.6431
0
LINE
8
BLACK
6
CONTINUOUS
10
147.135
20
-69.6431
11
147.291
21
-69.7471
0
LINE
8
BLACK
6
CONTINUOUS
10
147.291
20
-69.7471
11
147.423
21
-69.8794
0
LINE
8
BLACK
6
CONTINUOUS
10
147.423
20
-69.8794
11
147.527
21
-70.035
0
LINE
8
BLACK
6
CONTINUOUS
10
147.527
20
-70.035
11
147.598
21
-70.2079
0
LINE
8
BLACK
6
CONTINUOUS
10
147.598
20
-70.2079
11
147.635
21
-70.3914
0
LINE
8
BLACK
6
CONTINUOUS
10
147.635
20
-70.3914
11
147.635
21
-70.5786
0
LINE
8
BLACK
6
CONTINUOUS
10
147.635
20
-70.5786
11
147.598
21
-70.7621
0
LINE
8
BLACK
6
CONTINUOUS
10
147.598
20
-70.7621
11
147.527
21
-70.935
0
LINE
8
BLACK
6
CONTINUOUS
10
147.527
20
-70.935
11
147.423
21
-71.0906
0
LINE
8
BLACK
6
CONTINUOUS
10
147.423
20
-71.0906
11
147.291
21
-71.2229
0
LINE
8
BLACK
6
CONTINUOUS
10
147.291
20
-71.2229
11
147.135
21
-71.3269
0
LINE
8
BLACK
6
CONTINUOUS
10
147.135
20
-71.3269
11
146.962
21
-71.3985
0
LINE
8
BLACK
6
CONTINUOUS
10
146.962
20
-71.3985
11
146.779
21
-71.435
0
LINE
8
BLACK
6
CONTINUOUS
10
146.779
20
-71.435
11
146.591
21
-71.435
0
LINE
8
BLACK
6
CONTINUOUS
10
146.591
20
-71.435
11
146.408
21
-71.3985
0
LINE
8
BLACK
6
CONTINUOUS
10
146.408
20
-71.3985
11
146.235
21
-71.3269
0
LINE
8
BLACK
6
CONTINUOUS
10
146.235
20
-71.3269
11
146.079
21
-71.2229
0
LINE
8
BLACK
6
CONTINUOUS
10
146.079
20
-71.2229
11
145.947
21
-71.0906
0
LINE
8
BLACK
6
CONTINUOUS
10
145.947
20
-71.0906
11
145.843
21
-70.935
0
LINE
8
BLACK
6
CONTINUOUS
10
145.843
20
-70.935
11
145.772
21
-70.7621
0
LINE
8
BLACK
6
CONTINUOUS
10
145.772
20
-70.7621
11
145.735
21
-70.5786
0
LINE
8
BLACK
6
CONTINUOUS
10
145.735
20
-70.5786
11
145.735
21
-70.3914
0
LINE
8
BLACK
6
CONTINUOUS
10
145.735
20
-70.3914
11
145.772
21
-70.2079
0
LINE
8
BLACK
6
CONTINUOUS
10
145.772
20
-70.2079
11
145.843
21
-70.035
0
LINE
8
BLACK
6
CONTINUOUS
10
145.843
20
-70.035
11
145.947
21
-69.8794
0
LINE
8
BLACK
6
CONTINUOUS
10
145.947
20
-69.8794
11
146.079
21
-69.7471
0
LINE
8
BLACK
6
CONTINUOUS
10
146.079
20
-69.7471
11
146.235
21
-69.6431
0
LINE
8
BLACK
6
CONTINUOUS
10
146.235
20
-69.6431
11
146.408
21
-69.5715
0
LINE
8
BLACK
6
CONTINUOUS
10
146.408
20
-69.5715
11
146.591
21
-69.535
0
LINE
8
BLACK
6
CONTINUOUS
10
146.591
20
-69.535
11
146.779
21
-69.535
0
LINE
8
BLACK
6
CONTINUOUS
10
146.779
20
-69.535
11
146.962
21
-69.5715
0
LINE
8
BLACK
6
CONTINUOUS
10
131.722
20
-69.5715
11
131.895
21
-69.6431
0
LINE
8
BLACK
6
CONTINUOUS
10
131.895
20
-69.6431
11
132.051
21
-69.7471
0
LINE
8
BLACK
6
CONTINUOUS
10
132.051
20
-69.7471
11
132.183
21
-69.8794
0
LINE
8
BLACK
6
CONTINUOUS
10
132.183
20
-69.8794
11
132.287
21
-70.035
0
LINE
8
BLACK
6
CONTINUOUS
10
132.287
20
-70.035
11
132.358
21
-70.2079
0
LINE
8
BLACK
6
CONTINUOUS
10
132.358
20
-70.2079
11
132.395
21
-70.3914
0
LINE
8
BLACK
6
CONTINUOUS
10
132.395
20
-70.3914
11
132.395
21
-70.5786
0
LINE
8
BLACK
6
CONTINUOUS
10
132.395
20
-70.5786
11
132.358
21
-70.7621
0
LINE
8
BLACK
6
CONTINUOUS
10
132.358
20
-70.7621
11
132.287
21
-70.935
0
LINE
8
BLACK
6
CONTINUOUS
10
132.287
20
-70.935
11
132.183
21
-71.0906
0
LINE
8
BLACK
6
CONTINUOUS
10
132.183
20
-71.0906
11
132.051
21
-71.2229
0
LINE
8
BLACK
6
CONTINUOUS
10
132.051
20
-71.2229
11
131.895
21
-71.3269
0
LINE
8
BLACK
6
CONTINUOUS
10
131.895
20
-71.3269
11
131.722
21
-71.3985
0
LINE
8
BLACK
6
CONTINUOUS
10
131.722
20
-71.3985
11
131.539
21
-71.435
0
LINE
8
BLACK
6
CONTINUOUS
10
131.539
20
-71.435
11
131.351
21
-71.435
0
LINE
8
BLACK
6
CONTINUOUS
10
131.351
20
-71.435
11
131.168
21
-71.3985
0
LINE
8
BLACK
6
CONTINUOUS
10
131.168
20
-71.3985
11
130.995
21
-71.3269
0
LINE
8
BLACK
6
CONTINUOUS
10
130.995
20
-71.3269
11
130.839
21
-71.2229
0
LINE
8
BLACK
6
CONTINUOUS
10
130.839
20
-71.2229
11
130.707
21
-71.0906
0
LINE
8
BLACK
6
CONTINUOUS
10
130.707
20
-71.0906
11
130.603
21
-70.935
0
LINE
8
BLACK
6
CONTINUOUS
10
130.603
20
-70.935
11
130.532
21
-70.7621
0
LINE
8
BLACK
6
CONTINUOUS
10
130.532
20
-70.7621
11
130.495
21
-70.5786
0
LINE
8
BLACK
6
CONTINUOUS
10
130.495
20
-70.5786
11
130.495
21
-70.3914
0
LINE
8
BLACK
6
CONTINUOUS
10
130.495
20
-70.3914
11
130.532
21
-70.2079
0
LINE
8
BLACK
6
CONTINUOUS
10
130.532
20
-70.2079
11
130.603
21
-70.035
0
LINE
8
BLACK
6
CONTINUOUS
10
130.603
20
-70.035
11
130.707
21
-69.8794
0
LINE
8
BLACK
6
CONTINUOUS
10
130.707
20
-69.8794
11
130.839
21
-69.7471
0
LINE
8
BLACK
6
CONTINUOUS
10
130.839
20
-69.7471
11
130.995
21
-69.6431
0
LINE
8
BLACK
6
CONTINUOUS
10
130.995
20
-69.6431
11
131.168
21
-69.5715
0
LINE
8
BLACK
6
CONTINUOUS
10
131.168
20
-69.5715
11
131.351
21
-69.535
0
LINE
8
BLACK
6
CONTINUOUS
10
131.351
20
-69.535
11
131.539
21
-69.535
0
LINE
8
BLACK
6
CONTINUOUS
10
131.539
20
-69.535
11
131.722
21
-69.5715
0
LINE
8
BLACK
6
CONTINUOUS
10
134.262
20
-69.5715
11
134.435
21
-69.6431
0
LINE
8
BLACK
6
CONTINUOUS
10
134.435
20
-69.6431
11
134.591
21
-69.7471
0
LINE
8
BLACK
6
CONTINUOUS
10
134.591
20
-69.7471
11
134.723
21
-69.8794
0
LINE
8
BLACK
6
CONTINUOUS
10
134.723
20
-69.8794
11
134.827
21
-70.035
0
LINE
8
BLACK
6
CONTINUOUS
10
134.827
20
-70.035
11
134.898
21
-70.2079
0
LINE
8
BLACK
6
CONTINUOUS
10
134.898
20
-70.2079
11
134.935
21
-70.3914
0
LINE
8
BLACK
6
CONTINUOUS
10
134.935
20
-70.3914
11
134.935
21
-70.5786
0
LINE
8
BLACK
6
CONTINUOUS
10
134.935
20
-70.5786
11
134.898
21
-70.7621
0
LINE
8
BLACK
6
CONTINUOUS
10
134.898
20
-70.7621
11
134.827
21
-70.935
0
LINE
8
BLACK
6
CONTINUOUS
10
134.827
20
-70.935
11
134.723
21
-71.0906
0
LINE
8
BLACK
6
CONTINUOUS
10
134.723
20
-71.0906
11
134.591
21
-71.2229
0
LINE
8
BLACK
6
CONTINUOUS
10
134.591
20
-71.2229
11
134.435
21
-71.3269
0
LINE
8
BLACK
6
CONTINUOUS
10
134.435
20
-71.3269
11
134.262
21
-71.3985
0
LINE
8
BLACK
6
CONTINUOUS
10
134.262
20
-71.3985
11
134.079
21
-71.435
0
LINE
8
BLACK
6
CONTINUOUS
10
134.079
20
-71.435
11
133.891
21
-71.435
0
LINE
8
BLACK
6
CONTINUOUS
10
133.891
20
-71.435
11
133.708
21
-71.3985
0
LINE
8
BLACK
6
CONTINUOUS
10
133.708
20
-71.3985
11
133.535
21
-71.3269
0
LINE
8
BLACK
6
CONTINUOUS
10
133.535
20
-71.3269
11
133.379
21
-71.2229
0
LINE
8
BLACK
6
CONTINUOUS
10
133.379
20
-71.2229
11
133.247
21
-71.0906
0
LINE
8
BLACK
6
CONTINUOUS
10
133.247
20
-71.0906
11
133.143
21
-70.935
0
LINE
8
BLACK
6
CONTINUOUS
10
133.143
20
-70.935
11
133.072
21
-70.7621
0
LINE
8
BLACK
6
CONTINUOUS
10
133.072
20
-70.7621
11
133.035
21
-70.5786
0
LINE
8
BLACK
6
CONTINUOUS
10
133.035
20
-70.5786
11
133.035
21
-70.3914
0
LINE
8
BLACK
6
CONTINUOUS
10
133.035
20
-70.3914
11
133.072
21
-70.2079
0
LINE
8
BLACK
6
CONTINUOUS
10
133.072
20
-70.2079
11
133.143
21
-70.035
0
LINE
8
BLACK
6
CONTINUOUS
10
133.143
20
-70.035
11
133.247
21
-69.8794
0
LINE
8
BLACK
6
CONTINUOUS
10
133.247
20
-69.8794
11
133.379
21
-69.7471
0
LINE
8
BLACK
6
CONTINUOUS
10
133.379
20
-69.7471
11
133.535
21
-69.6431
0
LINE
8
BLACK
6
CONTINUOUS
10
133.535
20
-69.6431
11
133.708
21
-69.5715
0
LINE
8
BLACK
6
CONTINUOUS
10
133.708
20
-69.5715
11
133.891
21
-69.535
0
LINE
8
BLACK
6
CONTINUOUS
10
133.891
20
-69.535
11
134.079
21
-69.535
0
LINE
8
BLACK
6
CONTINUOUS
10
134.079
20
-69.535
11
134.262
21
-69.5715
0
LINE
8
BLACK
6
CONTINUOUS
10
144.422
20
-69.5715
11
144.595
21
-69.6431
0
LINE
8
BLACK
6
CONTINUOUS
10
144.595
20
-69.6431
11
144.751
21
-69.7471
0
LINE
8
BLACK
6
CONTINUOUS
10
144.751
20
-69.7471
11
144.883
21
-69.8794
0
LINE
8
BLACK
6
CONTINUOUS
10
144.883
20
-69.8794
11
144.987
21
-70.035
0
LINE
8
BLACK
6
CONTINUOUS
10
144.987
20
-70.035
11
145.058
21
-70.2079
0
LINE
8
BLACK
6
CONTINUOUS
10
145.058
20
-70.2079
11
145.095
21
-70.3914
0
LINE
8
BLACK
6
CONTINUOUS
10
145.095
20
-70.3914
11
145.095
21
-70.5786
0
LINE
8
BLACK
6
CONTINUOUS
10
145.095
20
-70.5786
11
145.058
21
-70.7621
0
LINE
8
BLACK
6
CONTINUOUS
10
145.058
20
-70.7621
11
144.987
21
-70.935
0
LINE
8
BLACK
6
CONTINUOUS
10
144.987
20
-70.935
11
144.883
21
-71.0906
0
LINE
8
BLACK
6
CONTINUOUS
10
144.883
20
-71.0906
11
144.751
21
-71.2229
0
LINE
8
BLACK
6
CONTINUOUS
10
144.751
20
-71.2229
11
144.595
21
-71.3269
0
LINE
8
BLACK
6
CONTINUOUS
10
144.595
20
-71.3269
11
144.422
21
-71.3985
0
LINE
8
BLACK
6
CONTINUOUS
10
144.422
20
-71.3985
11
144.239
21
-71.435
0
LINE
8
BLACK
6
CONTINUOUS
10
144.239
20
-71.435
11
144.051
21
-71.435
0
LINE
8
BLACK
6
CONTINUOUS
10
144.051
20
-71.435
11
143.868
21
-71.3985
0
LINE
8
BLACK
6
CONTINUOUS
10
143.868
20
-71.3985
11
143.695
21
-71.3269
0
LINE
8
BLACK
6
CONTINUOUS
10
143.695
20
-71.3269
11
143.539
21
-71.2229
0
LINE
8
BLACK
6
CONTINUOUS
10
143.539
20
-71.2229
11
143.407
21
-71.0906
0
LINE
8
BLACK
6
CONTINUOUS
10
143.407
20
-71.0906
11
143.303
21
-70.935
0
LINE
8
BLACK
6
CONTINUOUS
10
143.303
20
-70.935
11
143.232
21
-70.7621
0
LINE
8
BLACK
6
CONTINUOUS
10
143.232
20
-70.7621
11
143.195
21
-70.5786
0
LINE
8
BLACK
6
CONTINUOUS
10
143.195
20
-70.5786
11
143.195
21
-70.3914
0
LINE
8
BLACK
6
CONTINUOUS
10
143.195
20
-70.3914
11
143.232
21
-70.2079
0
LINE
8
BLACK
6
CONTINUOUS
10
143.232
20
-70.2079
11
143.303
21
-70.035
0
LINE
8
BLACK
6
CONTINUOUS
10
143.303
20
-70.035
11
143.407
21
-69.8794
0
LINE
8
BLACK
6
CONTINUOUS
10
143.407
20
-69.8794
11
143.539
21
-69.7471
0
LINE
8
BLACK
6
CONTINUOUS
10
143.539
20
-69.7471
11
143.695
21
-69.6431
0
LINE
8
BLACK
6
CONTINUOUS
10
143.695
20
-69.6431
11
143.868
21
-69.5715
0
LINE
8
BLACK
6
CONTINUOUS
10
143.868
20
-69.5715
11
144.051
21
-69.535
0
LINE
8
BLACK
6
CONTINUOUS
10
144.051
20
-69.535
11
144.239
21
-69.535
0
LINE
8
BLACK
6
CONTINUOUS
10
144.239
20
-69.535
11
144.422
21
-69.5715
0
LINE
8
BLACK
6
CONTINUOUS
10
136.802
20
-69.5715
11
136.975
21
-69.6431
0
LINE
8
BLACK
6
CONTINUOUS
10
136.975
20
-69.6431
11
137.131
21
-69.7471
0
LINE
8
BLACK
6
CONTINUOUS
10
137.131
20
-69.7471
11
137.263
21
-69.8794
0
LINE
8
BLACK
6
CONTINUOUS
10
137.263
20
-69.8794
11
137.367
21
-70.035
0
LINE
8
BLACK
6
CONTINUOUS
10
137.367
20
-70.035
11
137.438
21
-70.2079
0
LINE
8
BLACK
6
CONTINUOUS
10
137.438
20
-70.2079
11
137.475
21
-70.3914
0
LINE
8
BLACK
6
CONTINUOUS
10
137.475
20
-70.3914
11
137.475
21
-70.5786
0
LINE
8
BLACK
6
CONTINUOUS
10
137.475
20
-70.5786
11
137.438
21
-70.7621
0
LINE
8
BLACK
6
CONTINUOUS
10
137.438
20
-70.7621
11
137.367
21
-70.935
0
LINE
8
BLACK
6
CONTINUOUS
10
137.367
20
-70.935
11
137.263
21
-71.0906
0
LINE
8
BLACK
6
CONTINUOUS
10
137.263
20
-71.0906
11
137.131
21
-71.2229
0
LINE
8
BLACK
6
CONTINUOUS
10
137.131
20
-71.2229
11
136.975
21
-71.3269
0
LINE
8
BLACK
6
CONTINUOUS
10
136.975
20
-71.3269
11
136.802
21
-71.3985
0
LINE
8
BLACK
6
CONTINUOUS
10
136.802
20
-71.3985
11
136.619
21
-71.435
0
LINE
8
BLACK
6
CONTINUOUS
10
136.619
20
-71.435
11
136.431
21
-71.435
0
LINE
8
BLACK
6
CONTINUOUS
10
136.431
20
-71.435
11
136.248
21
-71.3985
0
LINE
8
BLACK
6
CONTINUOUS
10
136.248
20
-71.3985
11
136.075
21
-71.3269
0
LINE
8
BLACK
6
CONTINUOUS
10
136.075
20
-71.3269
11
135.919
21
-71.2229
0
LINE
8
BLACK
6
CONTINUOUS
10
135.919
20
-71.2229
11
135.787
21
-71.0906
0
LINE
8
BLACK
6
CONTINUOUS
10
135.787
20
-71.0906
11
135.683
21
-70.935
0
LINE
8
BLACK
6
CONTINUOUS
10
135.683
20
-70.935
11
135.612
21
-70.7621
0
LINE
8
BLACK
6
CONTINUOUS
10
135.612
20
-70.7621
11
135.575
21
-70.5786
0
LINE
8
BLACK
6
CONTINUOUS
10
135.575
20
-70.5786
11
135.575
21
-70.3914
0
LINE
8
BLACK
6
CONTINUOUS
10
135.575
20
-70.3914
11
135.612
21
-70.2079
0
LINE
8
BLACK
6
CONTINUOUS
10
135.612
20
-70.2079
11
135.683
21
-70.035
0
LINE
8
BLACK
6
CONTINUOUS
10
135.683
20
-70.035
11
135.787
21
-69.8794
0
LINE
8
BLACK
6
CONTINUOUS
10
135.787
20
-69.8794
11
135.919
21
-69.7471
0
LINE
8
BLACK
6
CONTINUOUS
10
135.919
20
-69.7471
11
136.075
21
-69.6431
0
LINE
8
BLACK
6
CONTINUOUS
10
136.075
20
-69.6431
11
136.248
21
-69.5715
0
LINE
8
BLACK
6
CONTINUOUS
10
136.248
20
-69.5715
11
136.431
21
-69.535
0
LINE
8
BLACK
6
CONTINUOUS
10
136.431
20
-69.535
11
136.619
21
-69.535
0
LINE
8
BLACK
6
CONTINUOUS
10
136.619
20
-69.535
11
136.802
21
-69.5715
0
LINE
8
BLACK
6
CONTINUOUS
10
139.342
20
-69.5715
11
139.515
21
-69.6431
0
LINE
8
BLACK
6
CONTINUOUS
10
139.515
20
-69.6431
11
139.671
21
-69.7471
0
LINE
8
BLACK
6
CONTINUOUS
10
139.671
20
-69.7471
11
139.803
21
-69.8794
0
LINE
8
BLACK
6
CONTINUOUS
10
139.803
20
-69.8794
11
139.907
21
-70.035
0
LINE
8
BLACK
6
CONTINUOUS
10
139.907
20
-70.035
11
139.978
21
-70.2079
0
LINE
8
BLACK
6
CONTINUOUS
10
139.978
20
-70.2079
11
140.015
21
-70.3914
0
LINE
8
BLACK
6
CONTINUOUS
10
140.015
20
-70.3914
11
140.015
21
-70.5786
0
LINE
8
BLACK
6
CONTINUOUS
10
140.015
20
-70.5786
11
139.978
21
-70.7621
0
LINE
8
BLACK
6
CONTINUOUS
10
139.978
20
-70.7621
11
139.907
21
-70.935
0
LINE
8
BLACK
6
CONTINUOUS
10
139.907
20
-70.935
11
139.803
21
-71.0906
0
LINE
8
BLACK
6
CONTINUOUS
10
139.803
20
-71.0906
11
139.671
21
-71.2229
0
LINE
8
BLACK
6
CONTINUOUS
10
139.671
20
-71.2229
11
139.515
21
-71.3269
0
LINE
8
BLACK
6
CONTINUOUS
10
139.515
20
-71.3269
11
139.342
21
-71.3985
0
LINE
8
BLACK
6
CONTINUOUS
10
139.342
20
-71.3985
11
139.159
21
-71.435
0
LINE
8
BLACK
6
CONTINUOUS
10
139.159
20
-71.435
11
138.971
21
-71.435
0
LINE
8
BLACK
6
CONTINUOUS
10
138.971
20
-71.435
11
138.788
21
-71.3985
0
LINE
8
BLACK
6
CONTINUOUS
10
138.788
20
-71.3985
11
138.615
21
-71.3269
0
LINE
8
BLACK
6
CONTINUOUS
10
138.615
20
-71.3269
11
138.459
21
-71.2229
0
LINE
8
BLACK
6
CONTINUOUS
10
138.459
20
-71.2229
11
138.327
21
-71.0906
0
LINE
8
BLACK
6
CONTINUOUS
10
138.327
20
-71.0906
11
138.223
21
-70.935
0
LINE
8
BLACK
6
CONTINUOUS
10
138.223
20
-70.935
11
138.152
21
-70.7621
0
LINE
8
BLACK
6
CONTINUOUS
10
138.152
20
-70.7621
11
138.115
21
-70.5786
0
LINE
8
BLACK
6
CONTINUOUS
10
138.115
20
-70.5786
11
138.115
21
-70.3914
0
LINE
8
BLACK
6
CONTINUOUS
10
138.115
20
-70.3914
11
138.152
21
-70.2079
0
LINE
8
BLACK
6
CONTINUOUS
10
138.152
20
-70.2079
11
138.223
21
-70.035
0
LINE
8
BLACK
6
CONTINUOUS
10
138.223
20
-70.035
11
138.327
21
-69.8794
0
LINE
8
BLACK
6
CONTINUOUS
10
138.327
20
-69.8794
11
138.459
21
-69.7471
0
LINE
8
BLACK
6
CONTINUOUS
10
138.459
20
-69.7471
11
138.615
21
-69.6431
0
LINE
8
BLACK
6
CONTINUOUS
10
138.615
20
-69.6431
11
138.788
21
-69.5715
0
LINE
8
BLACK
6
CONTINUOUS
10
138.788
20
-69.5715
11
138.971
21
-69.535
0
LINE
8
BLACK
6
CONTINUOUS
10
138.971
20
-69.535
11
139.159
21
-69.535
0
LINE
8
BLACK
6
CONTINUOUS
10
139.159
20
-69.535
11
139.342
21
-69.5715
  0
ENDSEC
  0
EOF
