G04 #@! TF.GenerationSoftware,KiCad,Pcbnew,(5.1.12)-1*
G04 #@! TF.CreationDate,2021-12-09T22:35:20+00:00*
G04 #@! TF.ProjectId,RGBtoHDMI Amiga Denise DIP Breakout FFC - CDTV v2,52474274-6f48-4444-9d49-20416d696761,v2*
G04 #@! TF.SameCoordinates,Original*
G04 #@! TF.FileFunction,Soldermask,Bot*
G04 #@! TF.FilePolarity,Negative*
%FSLAX46Y46*%
G04 Gerber Fmt 4.6, Leading zero omitted, Abs format (unit mm)*
G04 Created by KiCad (PCBNEW (5.1.12)-1) date 2021-12-09 22:35:20*
%MOMM*%
%LPD*%
G01*
G04 APERTURE LIST*
%ADD10O,1.900000X1.900000*%
G04 APERTURE END LIST*
G36*
G01*
X161125000Y-69535000D02*
X162725000Y-69535000D01*
G75*
G02*
X162875000Y-69685000I0J-150000D01*
G01*
X162875000Y-71285000D01*
G75*
G02*
X162725000Y-71435000I-150000J0D01*
G01*
X161125000Y-71435000D01*
G75*
G02*
X160975000Y-71285000I0J150000D01*
G01*
X160975000Y-69685000D01*
G75*
G02*
X161125000Y-69535000I150000J0D01*
G01*
G37*
D10*
X103505000Y-85725000D03*
X159385000Y-70485000D03*
X106045000Y-85725000D03*
X156845000Y-70485000D03*
X108585000Y-85725000D03*
X154305000Y-70485000D03*
X111125000Y-85725000D03*
X151765000Y-70485000D03*
X113665000Y-85725000D03*
X149225000Y-70485000D03*
X116205000Y-85725000D03*
X146685000Y-70485000D03*
X118745000Y-85725000D03*
X144145000Y-70485000D03*
X121285000Y-85725000D03*
X141605000Y-70485000D03*
X123825000Y-85725000D03*
X139065000Y-70485000D03*
X126365000Y-85725000D03*
X136525000Y-70485000D03*
X128905000Y-85725000D03*
X133985000Y-70485000D03*
X131445000Y-85725000D03*
X131445000Y-70485000D03*
X133985000Y-85725000D03*
X128905000Y-70485000D03*
X136525000Y-85725000D03*
X126365000Y-70485000D03*
X139065000Y-85725000D03*
X123825000Y-70485000D03*
X141605000Y-85725000D03*
X121285000Y-70485000D03*
X144145000Y-85725000D03*
X118745000Y-70485000D03*
X146685000Y-85725000D03*
X116205000Y-70485000D03*
X149225000Y-85725000D03*
X113665000Y-70485000D03*
X151765000Y-85725000D03*
X111125000Y-70485000D03*
X154305000Y-85725000D03*
X108585000Y-70485000D03*
X156845000Y-85725000D03*
X106045000Y-70485000D03*
X159385000Y-85725000D03*
X103505000Y-70485000D03*
X161925000Y-85725000D03*
M02*
