G04 #@! TF.GenerationSoftware,KiCad,Pcbnew,(5.1.12)-1*
G04 #@! TF.CreationDate,2021-12-10T19:42:55+00:00*
G04 #@! TF.ProjectId,RGBtoHDMI Amiga Denise DIP Breakout FFC - CDTV v2,52474274-6f48-4444-9d49-20416d696761,v2*
G04 #@! TF.SameCoordinates,Original*
G04 #@! TF.FileFunction,Legend,Top*
G04 #@! TF.FilePolarity,Positive*
%FSLAX46Y46*%
G04 Gerber Fmt 4.6, Leading zero omitted, Abs format (unit mm)*
G04 Created by KiCad (PCBNEW (5.1.12)-1) date 2021-12-10 19:42:55*
%MOMM*%
%LPD*%
G01*
G04 APERTURE LIST*
%ADD10C,0.500000*%
%ADD11C,0.187500*%
%ADD12C,0.100000*%
%ADD13C,0.150000*%
%ADD14C,0.120000*%
%ADD15C,0.254000*%
G04 APERTURE END LIST*
D10*
X123532142Y-79462142D02*
X123532142Y-76462142D01*
X124246428Y-76462142D01*
X124675000Y-76605000D01*
X124960714Y-76890714D01*
X125103571Y-77176428D01*
X125246428Y-77747857D01*
X125246428Y-78176428D01*
X125103571Y-78747857D01*
X124960714Y-79033571D01*
X124675000Y-79319285D01*
X124246428Y-79462142D01*
X123532142Y-79462142D01*
X127675000Y-79319285D02*
X127389285Y-79462142D01*
X126817857Y-79462142D01*
X126532142Y-79319285D01*
X126389285Y-79033571D01*
X126389285Y-77890714D01*
X126532142Y-77605000D01*
X126817857Y-77462142D01*
X127389285Y-77462142D01*
X127675000Y-77605000D01*
X127817857Y-77890714D01*
X127817857Y-78176428D01*
X126389285Y-78462142D01*
X129103571Y-77462142D02*
X129103571Y-79462142D01*
X129103571Y-77747857D02*
X129246428Y-77605000D01*
X129532142Y-77462142D01*
X129960714Y-77462142D01*
X130246428Y-77605000D01*
X130389285Y-77890714D01*
X130389285Y-79462142D01*
X131817857Y-79462142D02*
X131817857Y-77462142D01*
X131817857Y-76462142D02*
X131675000Y-76605000D01*
X131817857Y-76747857D01*
X131960714Y-76605000D01*
X131817857Y-76462142D01*
X131817857Y-76747857D01*
X133103571Y-79319285D02*
X133389285Y-79462142D01*
X133960714Y-79462142D01*
X134246428Y-79319285D01*
X134389285Y-79033571D01*
X134389285Y-78890714D01*
X134246428Y-78605000D01*
X133960714Y-78462142D01*
X133532142Y-78462142D01*
X133246428Y-78319285D01*
X133103571Y-78033571D01*
X133103571Y-77890714D01*
X133246428Y-77605000D01*
X133532142Y-77462142D01*
X133960714Y-77462142D01*
X134246428Y-77605000D01*
X136817857Y-79319285D02*
X136532142Y-79462142D01*
X135960714Y-79462142D01*
X135675000Y-79319285D01*
X135532142Y-79033571D01*
X135532142Y-77890714D01*
X135675000Y-77605000D01*
X135960714Y-77462142D01*
X136532142Y-77462142D01*
X136817857Y-77605000D01*
X136960714Y-77890714D01*
X136960714Y-78176428D01*
X135532142Y-78462142D01*
D11*
X75695857Y-84594642D02*
X75395857Y-84166071D01*
X75181571Y-84594642D02*
X75181571Y-83694642D01*
X75524428Y-83694642D01*
X75610142Y-83737500D01*
X75653000Y-83780357D01*
X75695857Y-83866071D01*
X75695857Y-83994642D01*
X75653000Y-84080357D01*
X75610142Y-84123214D01*
X75524428Y-84166071D01*
X75181571Y-84166071D01*
X76553000Y-83737500D02*
X76467285Y-83694642D01*
X76338714Y-83694642D01*
X76210142Y-83737500D01*
X76124428Y-83823214D01*
X76081571Y-83908928D01*
X76038714Y-84080357D01*
X76038714Y-84208928D01*
X76081571Y-84380357D01*
X76124428Y-84466071D01*
X76210142Y-84551785D01*
X76338714Y-84594642D01*
X76424428Y-84594642D01*
X76553000Y-84551785D01*
X76595857Y-84508928D01*
X76595857Y-84208928D01*
X76424428Y-84208928D01*
X77281571Y-84123214D02*
X77410142Y-84166071D01*
X77453000Y-84208928D01*
X77495857Y-84294642D01*
X77495857Y-84423214D01*
X77453000Y-84508928D01*
X77410142Y-84551785D01*
X77324428Y-84594642D01*
X76981571Y-84594642D01*
X76981571Y-83694642D01*
X77281571Y-83694642D01*
X77367285Y-83737500D01*
X77410142Y-83780357D01*
X77453000Y-83866071D01*
X77453000Y-83951785D01*
X77410142Y-84037500D01*
X77367285Y-84080357D01*
X77281571Y-84123214D01*
X76981571Y-84123214D01*
X77753000Y-83994642D02*
X78095857Y-83994642D01*
X77881571Y-83694642D02*
X77881571Y-84466071D01*
X77924428Y-84551785D01*
X78010142Y-84594642D01*
X78095857Y-84594642D01*
X78524428Y-84594642D02*
X78438714Y-84551785D01*
X78395857Y-84508928D01*
X78353000Y-84423214D01*
X78353000Y-84166071D01*
X78395857Y-84080357D01*
X78438714Y-84037500D01*
X78524428Y-83994642D01*
X78653000Y-83994642D01*
X78738714Y-84037500D01*
X78781571Y-84080357D01*
X78824428Y-84166071D01*
X78824428Y-84423214D01*
X78781571Y-84508928D01*
X78738714Y-84551785D01*
X78653000Y-84594642D01*
X78524428Y-84594642D01*
X79210142Y-84594642D02*
X79210142Y-83694642D01*
X79210142Y-84123214D02*
X79724428Y-84123214D01*
X79724428Y-84594642D02*
X79724428Y-83694642D01*
X80153000Y-84594642D02*
X80153000Y-83694642D01*
X80367285Y-83694642D01*
X80495857Y-83737500D01*
X80581571Y-83823214D01*
X80624428Y-83908928D01*
X80667285Y-84080357D01*
X80667285Y-84208928D01*
X80624428Y-84380357D01*
X80581571Y-84466071D01*
X80495857Y-84551785D01*
X80367285Y-84594642D01*
X80153000Y-84594642D01*
X81053000Y-84594642D02*
X81053000Y-83694642D01*
X81353000Y-84337500D01*
X81653000Y-83694642D01*
X81653000Y-84594642D01*
X82081571Y-84594642D02*
X82081571Y-83694642D01*
X83195857Y-84594642D02*
X83195857Y-83694642D01*
X83410142Y-83694642D01*
X83538714Y-83737500D01*
X83624428Y-83823214D01*
X83667285Y-83908928D01*
X83710142Y-84080357D01*
X83710142Y-84208928D01*
X83667285Y-84380357D01*
X83624428Y-84466071D01*
X83538714Y-84551785D01*
X83410142Y-84594642D01*
X83195857Y-84594642D01*
X84438714Y-84551785D02*
X84353000Y-84594642D01*
X84181571Y-84594642D01*
X84095857Y-84551785D01*
X84053000Y-84466071D01*
X84053000Y-84123214D01*
X84095857Y-84037500D01*
X84181571Y-83994642D01*
X84353000Y-83994642D01*
X84438714Y-84037500D01*
X84481571Y-84123214D01*
X84481571Y-84208928D01*
X84053000Y-84294642D01*
X84867285Y-83994642D02*
X84867285Y-84594642D01*
X84867285Y-84080357D02*
X84910142Y-84037500D01*
X84995857Y-83994642D01*
X85124428Y-83994642D01*
X85210142Y-84037500D01*
X85253000Y-84123214D01*
X85253000Y-84594642D01*
X85681571Y-84594642D02*
X85681571Y-83994642D01*
X85681571Y-83694642D02*
X85638714Y-83737500D01*
X85681571Y-83780357D01*
X85724428Y-83737500D01*
X85681571Y-83694642D01*
X85681571Y-83780357D01*
X86067285Y-84551785D02*
X86153000Y-84594642D01*
X86324428Y-84594642D01*
X86410142Y-84551785D01*
X86453000Y-84466071D01*
X86453000Y-84423214D01*
X86410142Y-84337500D01*
X86324428Y-84294642D01*
X86195857Y-84294642D01*
X86110142Y-84251785D01*
X86067285Y-84166071D01*
X86067285Y-84123214D01*
X86110142Y-84037500D01*
X86195857Y-83994642D01*
X86324428Y-83994642D01*
X86410142Y-84037500D01*
X87181571Y-84551785D02*
X87095857Y-84594642D01*
X86924428Y-84594642D01*
X86838714Y-84551785D01*
X86795857Y-84466071D01*
X86795857Y-84123214D01*
X86838714Y-84037500D01*
X86924428Y-83994642D01*
X87095857Y-83994642D01*
X87181571Y-84037500D01*
X87224428Y-84123214D01*
X87224428Y-84208928D01*
X86795857Y-84294642D01*
X88295857Y-84594642D02*
X88295857Y-83694642D01*
X88510142Y-83694642D01*
X88638714Y-83737500D01*
X88724428Y-83823214D01*
X88767285Y-83908928D01*
X88810142Y-84080357D01*
X88810142Y-84208928D01*
X88767285Y-84380357D01*
X88724428Y-84466071D01*
X88638714Y-84551785D01*
X88510142Y-84594642D01*
X88295857Y-84594642D01*
X89195857Y-84594642D02*
X89195857Y-83694642D01*
X89624428Y-84594642D02*
X89624428Y-83694642D01*
X89967285Y-83694642D01*
X90053000Y-83737500D01*
X90095857Y-83780357D01*
X90138714Y-83866071D01*
X90138714Y-83994642D01*
X90095857Y-84080357D01*
X90053000Y-84123214D01*
X89967285Y-84166071D01*
X89624428Y-84166071D01*
X91510142Y-84123214D02*
X91638714Y-84166071D01*
X91681571Y-84208928D01*
X91724428Y-84294642D01*
X91724428Y-84423214D01*
X91681571Y-84508928D01*
X91638714Y-84551785D01*
X91553000Y-84594642D01*
X91210142Y-84594642D01*
X91210142Y-83694642D01*
X91510142Y-83694642D01*
X91595857Y-83737500D01*
X91638714Y-83780357D01*
X91681571Y-83866071D01*
X91681571Y-83951785D01*
X91638714Y-84037500D01*
X91595857Y-84080357D01*
X91510142Y-84123214D01*
X91210142Y-84123214D01*
X92110142Y-84594642D02*
X92110142Y-83994642D01*
X92110142Y-84166071D02*
X92153000Y-84080357D01*
X92195857Y-84037500D01*
X92281571Y-83994642D01*
X92367285Y-83994642D01*
X93010142Y-84551785D02*
X92924428Y-84594642D01*
X92753000Y-84594642D01*
X92667285Y-84551785D01*
X92624428Y-84466071D01*
X92624428Y-84123214D01*
X92667285Y-84037500D01*
X92753000Y-83994642D01*
X92924428Y-83994642D01*
X93010142Y-84037500D01*
X93053000Y-84123214D01*
X93053000Y-84208928D01*
X92624428Y-84294642D01*
X93824428Y-84594642D02*
X93824428Y-84123214D01*
X93781571Y-84037500D01*
X93695857Y-83994642D01*
X93524428Y-83994642D01*
X93438714Y-84037500D01*
X93824428Y-84551785D02*
X93738714Y-84594642D01*
X93524428Y-84594642D01*
X93438714Y-84551785D01*
X93395857Y-84466071D01*
X93395857Y-84380357D01*
X93438714Y-84294642D01*
X93524428Y-84251785D01*
X93738714Y-84251785D01*
X93824428Y-84208928D01*
X94253000Y-84594642D02*
X94253000Y-83694642D01*
X94338714Y-84251785D02*
X94595857Y-84594642D01*
X94595857Y-83994642D02*
X94253000Y-84337500D01*
X95110142Y-84594642D02*
X95024428Y-84551785D01*
X94981571Y-84508928D01*
X94938714Y-84423214D01*
X94938714Y-84166071D01*
X94981571Y-84080357D01*
X95024428Y-84037500D01*
X95110142Y-83994642D01*
X95238714Y-83994642D01*
X95324428Y-84037500D01*
X95367285Y-84080357D01*
X95410142Y-84166071D01*
X95410142Y-84423214D01*
X95367285Y-84508928D01*
X95324428Y-84551785D01*
X95238714Y-84594642D01*
X95110142Y-84594642D01*
X96181571Y-83994642D02*
X96181571Y-84594642D01*
X95795857Y-83994642D02*
X95795857Y-84466071D01*
X95838714Y-84551785D01*
X95924428Y-84594642D01*
X96053000Y-84594642D01*
X96138714Y-84551785D01*
X96181571Y-84508928D01*
X96481571Y-83994642D02*
X96824428Y-83994642D01*
X96610142Y-83694642D02*
X96610142Y-84466071D01*
X96653000Y-84551785D01*
X96738714Y-84594642D01*
X96824428Y-84594642D01*
X98110142Y-84123214D02*
X97810142Y-84123214D01*
X97810142Y-84594642D02*
X97810142Y-83694642D01*
X98238714Y-83694642D01*
X98881571Y-84123214D02*
X98581571Y-84123214D01*
X98581571Y-84594642D02*
X98581571Y-83694642D01*
X99010142Y-83694642D01*
X99867285Y-84508928D02*
X99824428Y-84551785D01*
X99695857Y-84594642D01*
X99610142Y-84594642D01*
X99481571Y-84551785D01*
X99395857Y-84466071D01*
X99353000Y-84380357D01*
X99310142Y-84208928D01*
X99310142Y-84080357D01*
X99353000Y-83908928D01*
X99395857Y-83823214D01*
X99481571Y-83737500D01*
X99610142Y-83694642D01*
X99695857Y-83694642D01*
X99824428Y-83737500D01*
X99867285Y-83780357D01*
X83860142Y-85660714D02*
X83560142Y-85660714D01*
X83560142Y-86132142D02*
X83560142Y-85232142D01*
X83988714Y-85232142D01*
X84460142Y-86132142D02*
X84374428Y-86089285D01*
X84331571Y-86046428D01*
X84288714Y-85960714D01*
X84288714Y-85703571D01*
X84331571Y-85617857D01*
X84374428Y-85575000D01*
X84460142Y-85532142D01*
X84588714Y-85532142D01*
X84674428Y-85575000D01*
X84717285Y-85617857D01*
X84760142Y-85703571D01*
X84760142Y-85960714D01*
X84717285Y-86046428D01*
X84674428Y-86089285D01*
X84588714Y-86132142D01*
X84460142Y-86132142D01*
X85145857Y-86132142D02*
X85145857Y-85532142D01*
X85145857Y-85703571D02*
X85188714Y-85617857D01*
X85231571Y-85575000D01*
X85317285Y-85532142D01*
X85403000Y-85532142D01*
X86903000Y-86046428D02*
X86860142Y-86089285D01*
X86731571Y-86132142D01*
X86645857Y-86132142D01*
X86517285Y-86089285D01*
X86431571Y-86003571D01*
X86388714Y-85917857D01*
X86345857Y-85746428D01*
X86345857Y-85617857D01*
X86388714Y-85446428D01*
X86431571Y-85360714D01*
X86517285Y-85275000D01*
X86645857Y-85232142D01*
X86731571Y-85232142D01*
X86860142Y-85275000D01*
X86903000Y-85317857D01*
X87288714Y-86132142D02*
X87288714Y-85232142D01*
X87503000Y-85232142D01*
X87631571Y-85275000D01*
X87717285Y-85360714D01*
X87760142Y-85446428D01*
X87803000Y-85617857D01*
X87803000Y-85746428D01*
X87760142Y-85917857D01*
X87717285Y-86003571D01*
X87631571Y-86089285D01*
X87503000Y-86132142D01*
X87288714Y-86132142D01*
X88060142Y-85232142D02*
X88574428Y-85232142D01*
X88317285Y-86132142D02*
X88317285Y-85232142D01*
X88745857Y-85232142D02*
X89045857Y-86132142D01*
X89345857Y-85232142D01*
X90245857Y-85532142D02*
X90460142Y-86132142D01*
X90674428Y-85532142D01*
X90974428Y-85317857D02*
X91017285Y-85275000D01*
X91103000Y-85232142D01*
X91317285Y-85232142D01*
X91403000Y-85275000D01*
X91445857Y-85317857D01*
X91488714Y-85403571D01*
X91488714Y-85489285D01*
X91445857Y-85617857D01*
X90931571Y-86132142D01*
X91488714Y-86132142D01*
X81824428Y-87669642D02*
X81824428Y-86769642D01*
X82167285Y-86769642D01*
X82253000Y-86812500D01*
X82295857Y-86855357D01*
X82338714Y-86941071D01*
X82338714Y-87069642D01*
X82295857Y-87155357D01*
X82253000Y-87198214D01*
X82167285Y-87241071D01*
X81824428Y-87241071D01*
X83238714Y-87583928D02*
X83195857Y-87626785D01*
X83067285Y-87669642D01*
X82981571Y-87669642D01*
X82853000Y-87626785D01*
X82767285Y-87541071D01*
X82724428Y-87455357D01*
X82681571Y-87283928D01*
X82681571Y-87155357D01*
X82724428Y-86983928D01*
X82767285Y-86898214D01*
X82853000Y-86812500D01*
X82981571Y-86769642D01*
X83067285Y-86769642D01*
X83195857Y-86812500D01*
X83238714Y-86855357D01*
X83924428Y-87198214D02*
X84053000Y-87241071D01*
X84095857Y-87283928D01*
X84138714Y-87369642D01*
X84138714Y-87498214D01*
X84095857Y-87583928D01*
X84053000Y-87626785D01*
X83967285Y-87669642D01*
X83624428Y-87669642D01*
X83624428Y-86769642D01*
X83924428Y-86769642D01*
X84010142Y-86812500D01*
X84053000Y-86855357D01*
X84095857Y-86941071D01*
X84095857Y-87026785D01*
X84053000Y-87112500D01*
X84010142Y-87155357D01*
X83924428Y-87198214D01*
X83624428Y-87198214D01*
X85210142Y-87669642D02*
X85210142Y-86769642D01*
X85210142Y-87112500D02*
X85295857Y-87069642D01*
X85467285Y-87069642D01*
X85553000Y-87112500D01*
X85595857Y-87155357D01*
X85638714Y-87241071D01*
X85638714Y-87498214D01*
X85595857Y-87583928D01*
X85553000Y-87626785D01*
X85467285Y-87669642D01*
X85295857Y-87669642D01*
X85210142Y-87626785D01*
X85938714Y-87069642D02*
X86153000Y-87669642D01*
X86367285Y-87069642D02*
X86153000Y-87669642D01*
X86067285Y-87883928D01*
X86024428Y-87926785D01*
X85938714Y-87969642D01*
X87353000Y-87626785D02*
X87438714Y-87669642D01*
X87610142Y-87669642D01*
X87695857Y-87626785D01*
X87738714Y-87541071D01*
X87738714Y-87498214D01*
X87695857Y-87412500D01*
X87610142Y-87369642D01*
X87481571Y-87369642D01*
X87395857Y-87326785D01*
X87353000Y-87241071D01*
X87353000Y-87198214D01*
X87395857Y-87112500D01*
X87481571Y-87069642D01*
X87610142Y-87069642D01*
X87695857Y-87112500D01*
X88253000Y-87669642D02*
X88167285Y-87626785D01*
X88124428Y-87583928D01*
X88081571Y-87498214D01*
X88081571Y-87241071D01*
X88124428Y-87155357D01*
X88167285Y-87112500D01*
X88253000Y-87069642D01*
X88381571Y-87069642D01*
X88467285Y-87112500D01*
X88510142Y-87155357D01*
X88553000Y-87241071D01*
X88553000Y-87498214D01*
X88510142Y-87583928D01*
X88467285Y-87626785D01*
X88381571Y-87669642D01*
X88253000Y-87669642D01*
X89067285Y-87669642D02*
X88981571Y-87626785D01*
X88938714Y-87541071D01*
X88938714Y-86769642D01*
X89795857Y-87669642D02*
X89795857Y-87198214D01*
X89753000Y-87112500D01*
X89667285Y-87069642D01*
X89495857Y-87069642D01*
X89410142Y-87112500D01*
X89795857Y-87626785D02*
X89710142Y-87669642D01*
X89495857Y-87669642D01*
X89410142Y-87626785D01*
X89367285Y-87541071D01*
X89367285Y-87455357D01*
X89410142Y-87369642D01*
X89495857Y-87326785D01*
X89710142Y-87326785D01*
X89795857Y-87283928D01*
X90224428Y-87669642D02*
X90224428Y-87069642D01*
X90224428Y-87241071D02*
X90267285Y-87155357D01*
X90310142Y-87112500D01*
X90395857Y-87069642D01*
X90481571Y-87069642D01*
X90781571Y-87669642D02*
X90781571Y-87069642D01*
X90781571Y-87155357D02*
X90824428Y-87112500D01*
X90910142Y-87069642D01*
X91038714Y-87069642D01*
X91124428Y-87112500D01*
X91167285Y-87198214D01*
X91167285Y-87669642D01*
X91167285Y-87198214D02*
X91210142Y-87112500D01*
X91295857Y-87069642D01*
X91424428Y-87069642D01*
X91510142Y-87112500D01*
X91553000Y-87198214D01*
X91553000Y-87669642D01*
X92110142Y-87669642D02*
X92024428Y-87626785D01*
X91981571Y-87583928D01*
X91938714Y-87498214D01*
X91938714Y-87241071D01*
X91981571Y-87155357D01*
X92024428Y-87112500D01*
X92110142Y-87069642D01*
X92238714Y-87069642D01*
X92324428Y-87112500D01*
X92367285Y-87155357D01*
X92410142Y-87241071D01*
X92410142Y-87498214D01*
X92367285Y-87583928D01*
X92324428Y-87626785D01*
X92238714Y-87669642D01*
X92110142Y-87669642D01*
X92795857Y-87069642D02*
X92795857Y-87669642D01*
X92795857Y-87155357D02*
X92838714Y-87112500D01*
X92924428Y-87069642D01*
X93053000Y-87069642D01*
X93138714Y-87112500D01*
X93181571Y-87198214D01*
X93181571Y-87669642D01*
D12*
X82151571Y-70639000D02*
X82437285Y-70439000D01*
X82151571Y-70296142D02*
X82751571Y-70296142D01*
X82751571Y-70524714D01*
X82723000Y-70581857D01*
X82694428Y-70610428D01*
X82637285Y-70639000D01*
X82551571Y-70639000D01*
X82494428Y-70610428D01*
X82465857Y-70581857D01*
X82437285Y-70524714D01*
X82437285Y-70296142D01*
X82694428Y-70867571D02*
X82723000Y-70896142D01*
X82751571Y-70953285D01*
X82751571Y-71096142D01*
X82723000Y-71153285D01*
X82694428Y-71181857D01*
X82637285Y-71210428D01*
X82580142Y-71210428D01*
X82494428Y-71181857D01*
X82151571Y-70839000D01*
X82151571Y-71210428D01*
X83167571Y-70639000D02*
X83453285Y-70439000D01*
X83167571Y-70296142D02*
X83767571Y-70296142D01*
X83767571Y-70524714D01*
X83739000Y-70581857D01*
X83710428Y-70610428D01*
X83653285Y-70639000D01*
X83567571Y-70639000D01*
X83510428Y-70610428D01*
X83481857Y-70581857D01*
X83453285Y-70524714D01*
X83453285Y-70296142D01*
X83767571Y-70839000D02*
X83767571Y-71210428D01*
X83539000Y-71010428D01*
X83539000Y-71096142D01*
X83510428Y-71153285D01*
X83481857Y-71181857D01*
X83424714Y-71210428D01*
X83281857Y-71210428D01*
X83224714Y-71181857D01*
X83196142Y-71153285D01*
X83167571Y-71096142D01*
X83167571Y-70924714D01*
X83196142Y-70867571D01*
X83224714Y-70839000D01*
X80119571Y-70639000D02*
X80405285Y-70439000D01*
X80119571Y-70296142D02*
X80719571Y-70296142D01*
X80719571Y-70524714D01*
X80691000Y-70581857D01*
X80662428Y-70610428D01*
X80605285Y-70639000D01*
X80519571Y-70639000D01*
X80462428Y-70610428D01*
X80433857Y-70581857D01*
X80405285Y-70524714D01*
X80405285Y-70296142D01*
X80719571Y-71010428D02*
X80719571Y-71067571D01*
X80691000Y-71124714D01*
X80662428Y-71153285D01*
X80605285Y-71181857D01*
X80491000Y-71210428D01*
X80348142Y-71210428D01*
X80233857Y-71181857D01*
X80176714Y-71153285D01*
X80148142Y-71124714D01*
X80119571Y-71067571D01*
X80119571Y-71010428D01*
X80148142Y-70953285D01*
X80176714Y-70924714D01*
X80233857Y-70896142D01*
X80348142Y-70867571D01*
X80491000Y-70867571D01*
X80605285Y-70896142D01*
X80662428Y-70924714D01*
X80691000Y-70953285D01*
X80719571Y-71010428D01*
X81135571Y-70639000D02*
X81421285Y-70439000D01*
X81135571Y-70296142D02*
X81735571Y-70296142D01*
X81735571Y-70524714D01*
X81707000Y-70581857D01*
X81678428Y-70610428D01*
X81621285Y-70639000D01*
X81535571Y-70639000D01*
X81478428Y-70610428D01*
X81449857Y-70581857D01*
X81421285Y-70524714D01*
X81421285Y-70296142D01*
X81135571Y-71210428D02*
X81135571Y-70867571D01*
X81135571Y-71039000D02*
X81735571Y-71039000D01*
X81649857Y-70981857D01*
X81592714Y-70924714D01*
X81564142Y-70867571D01*
X87418857Y-70496142D02*
X87390285Y-70581857D01*
X87361714Y-70610428D01*
X87304571Y-70639000D01*
X87218857Y-70639000D01*
X87161714Y-70610428D01*
X87133142Y-70581857D01*
X87104571Y-70524714D01*
X87104571Y-70296142D01*
X87704571Y-70296142D01*
X87704571Y-70496142D01*
X87676000Y-70553285D01*
X87647428Y-70581857D01*
X87590285Y-70610428D01*
X87533142Y-70610428D01*
X87476000Y-70581857D01*
X87447428Y-70553285D01*
X87418857Y-70496142D01*
X87418857Y-70296142D01*
X87704571Y-70839000D02*
X87704571Y-71210428D01*
X87476000Y-71010428D01*
X87476000Y-71096142D01*
X87447428Y-71153285D01*
X87418857Y-71181857D01*
X87361714Y-71210428D01*
X87218857Y-71210428D01*
X87161714Y-71181857D01*
X87133142Y-71153285D01*
X87104571Y-71096142D01*
X87104571Y-70924714D01*
X87133142Y-70867571D01*
X87161714Y-70839000D01*
X86402857Y-70496142D02*
X86374285Y-70581857D01*
X86345714Y-70610428D01*
X86288571Y-70639000D01*
X86202857Y-70639000D01*
X86145714Y-70610428D01*
X86117142Y-70581857D01*
X86088571Y-70524714D01*
X86088571Y-70296142D01*
X86688571Y-70296142D01*
X86688571Y-70496142D01*
X86660000Y-70553285D01*
X86631428Y-70581857D01*
X86574285Y-70610428D01*
X86517142Y-70610428D01*
X86460000Y-70581857D01*
X86431428Y-70553285D01*
X86402857Y-70496142D01*
X86402857Y-70296142D01*
X86631428Y-70867571D02*
X86660000Y-70896142D01*
X86688571Y-70953285D01*
X86688571Y-71096142D01*
X86660000Y-71153285D01*
X86631428Y-71181857D01*
X86574285Y-71210428D01*
X86517142Y-71210428D01*
X86431428Y-71181857D01*
X86088571Y-70839000D01*
X86088571Y-71210428D01*
X85386857Y-70496142D02*
X85358285Y-70581857D01*
X85329714Y-70610428D01*
X85272571Y-70639000D01*
X85186857Y-70639000D01*
X85129714Y-70610428D01*
X85101142Y-70581857D01*
X85072571Y-70524714D01*
X85072571Y-70296142D01*
X85672571Y-70296142D01*
X85672571Y-70496142D01*
X85644000Y-70553285D01*
X85615428Y-70581857D01*
X85558285Y-70610428D01*
X85501142Y-70610428D01*
X85444000Y-70581857D01*
X85415428Y-70553285D01*
X85386857Y-70496142D01*
X85386857Y-70296142D01*
X85072571Y-71210428D02*
X85072571Y-70867571D01*
X85072571Y-71039000D02*
X85672571Y-71039000D01*
X85586857Y-70981857D01*
X85529714Y-70924714D01*
X85501142Y-70867571D01*
X84370857Y-70496142D02*
X84342285Y-70581857D01*
X84313714Y-70610428D01*
X84256571Y-70639000D01*
X84170857Y-70639000D01*
X84113714Y-70610428D01*
X84085142Y-70581857D01*
X84056571Y-70524714D01*
X84056571Y-70296142D01*
X84656571Y-70296142D01*
X84656571Y-70496142D01*
X84628000Y-70553285D01*
X84599428Y-70581857D01*
X84542285Y-70610428D01*
X84485142Y-70610428D01*
X84428000Y-70581857D01*
X84399428Y-70553285D01*
X84370857Y-70496142D01*
X84370857Y-70296142D01*
X84656571Y-71010428D02*
X84656571Y-71067571D01*
X84628000Y-71124714D01*
X84599428Y-71153285D01*
X84542285Y-71181857D01*
X84428000Y-71210428D01*
X84285142Y-71210428D01*
X84170857Y-71181857D01*
X84113714Y-71153285D01*
X84085142Y-71124714D01*
X84056571Y-71067571D01*
X84056571Y-71010428D01*
X84085142Y-70953285D01*
X84113714Y-70924714D01*
X84170857Y-70896142D01*
X84285142Y-70867571D01*
X84428000Y-70867571D01*
X84542285Y-70896142D01*
X84599428Y-70924714D01*
X84628000Y-70953285D01*
X84656571Y-71010428D01*
X88692000Y-70610428D02*
X88720571Y-70553285D01*
X88720571Y-70467571D01*
X88692000Y-70381857D01*
X88634857Y-70324714D01*
X88577714Y-70296142D01*
X88463428Y-70267571D01*
X88377714Y-70267571D01*
X88263428Y-70296142D01*
X88206285Y-70324714D01*
X88149142Y-70381857D01*
X88120571Y-70467571D01*
X88120571Y-70524714D01*
X88149142Y-70610428D01*
X88177714Y-70639000D01*
X88377714Y-70639000D01*
X88377714Y-70524714D01*
X88720571Y-71010428D02*
X88720571Y-71067571D01*
X88692000Y-71124714D01*
X88663428Y-71153285D01*
X88606285Y-71181857D01*
X88492000Y-71210428D01*
X88349142Y-71210428D01*
X88234857Y-71181857D01*
X88177714Y-71153285D01*
X88149142Y-71124714D01*
X88120571Y-71067571D01*
X88120571Y-71010428D01*
X88149142Y-70953285D01*
X88177714Y-70924714D01*
X88234857Y-70896142D01*
X88349142Y-70867571D01*
X88492000Y-70867571D01*
X88606285Y-70896142D01*
X88663428Y-70924714D01*
X88692000Y-70953285D01*
X88720571Y-71010428D01*
X89708000Y-70610428D02*
X89736571Y-70553285D01*
X89736571Y-70467571D01*
X89708000Y-70381857D01*
X89650857Y-70324714D01*
X89593714Y-70296142D01*
X89479428Y-70267571D01*
X89393714Y-70267571D01*
X89279428Y-70296142D01*
X89222285Y-70324714D01*
X89165142Y-70381857D01*
X89136571Y-70467571D01*
X89136571Y-70524714D01*
X89165142Y-70610428D01*
X89193714Y-70639000D01*
X89393714Y-70639000D01*
X89393714Y-70524714D01*
X89136571Y-71210428D02*
X89136571Y-70867571D01*
X89136571Y-71039000D02*
X89736571Y-71039000D01*
X89650857Y-70981857D01*
X89593714Y-70924714D01*
X89565142Y-70867571D01*
X90724000Y-70610428D02*
X90752571Y-70553285D01*
X90752571Y-70467571D01*
X90724000Y-70381857D01*
X90666857Y-70324714D01*
X90609714Y-70296142D01*
X90495428Y-70267571D01*
X90409714Y-70267571D01*
X90295428Y-70296142D01*
X90238285Y-70324714D01*
X90181142Y-70381857D01*
X90152571Y-70467571D01*
X90152571Y-70524714D01*
X90181142Y-70610428D01*
X90209714Y-70639000D01*
X90409714Y-70639000D01*
X90409714Y-70524714D01*
X90695428Y-70867571D02*
X90724000Y-70896142D01*
X90752571Y-70953285D01*
X90752571Y-71096142D01*
X90724000Y-71153285D01*
X90695428Y-71181857D01*
X90638285Y-71210428D01*
X90581142Y-71210428D01*
X90495428Y-71181857D01*
X90152571Y-70839000D01*
X90152571Y-71210428D01*
X91613000Y-70610428D02*
X91641571Y-70553285D01*
X91641571Y-70467571D01*
X91613000Y-70381857D01*
X91555857Y-70324714D01*
X91498714Y-70296142D01*
X91384428Y-70267571D01*
X91298714Y-70267571D01*
X91184428Y-70296142D01*
X91127285Y-70324714D01*
X91070142Y-70381857D01*
X91041571Y-70467571D01*
X91041571Y-70524714D01*
X91070142Y-70610428D01*
X91098714Y-70639000D01*
X91298714Y-70639000D01*
X91298714Y-70524714D01*
X91641571Y-70839000D02*
X91641571Y-71210428D01*
X91413000Y-71010428D01*
X91413000Y-71096142D01*
X91384428Y-71153285D01*
X91355857Y-71181857D01*
X91298714Y-71210428D01*
X91155857Y-71210428D01*
X91098714Y-71181857D01*
X91070142Y-71153285D01*
X91041571Y-71096142D01*
X91041571Y-70924714D01*
X91070142Y-70867571D01*
X91098714Y-70839000D01*
X93130714Y-68878571D02*
X93102142Y-68850000D01*
X93073571Y-68764285D01*
X93073571Y-68707142D01*
X93102142Y-68621428D01*
X93159285Y-68564285D01*
X93216428Y-68535714D01*
X93330714Y-68507142D01*
X93416428Y-68507142D01*
X93530714Y-68535714D01*
X93587857Y-68564285D01*
X93645000Y-68621428D01*
X93673571Y-68707142D01*
X93673571Y-68764285D01*
X93645000Y-68850000D01*
X93616428Y-68878571D01*
X93102142Y-69107142D02*
X93073571Y-69192857D01*
X93073571Y-69335714D01*
X93102142Y-69392857D01*
X93130714Y-69421428D01*
X93187857Y-69450000D01*
X93245000Y-69450000D01*
X93302142Y-69421428D01*
X93330714Y-69392857D01*
X93359285Y-69335714D01*
X93387857Y-69221428D01*
X93416428Y-69164285D01*
X93445000Y-69135714D01*
X93502142Y-69107142D01*
X93559285Y-69107142D01*
X93616428Y-69135714D01*
X93645000Y-69164285D01*
X93673571Y-69221428D01*
X93673571Y-69364285D01*
X93645000Y-69450000D01*
X93359285Y-69821428D02*
X93073571Y-69821428D01*
X93673571Y-69621428D02*
X93359285Y-69821428D01*
X93673571Y-70021428D01*
X93073571Y-70221428D02*
X93673571Y-70221428D01*
X93073571Y-70564285D01*
X93673571Y-70564285D01*
X93130714Y-71192857D02*
X93102142Y-71164285D01*
X93073571Y-71078571D01*
X93073571Y-71021428D01*
X93102142Y-70935714D01*
X93159285Y-70878571D01*
X93216428Y-70850000D01*
X93330714Y-70821428D01*
X93416428Y-70821428D01*
X93530714Y-70850000D01*
X93587857Y-70878571D01*
X93645000Y-70935714D01*
X93673571Y-71021428D01*
X93673571Y-71078571D01*
X93645000Y-71164285D01*
X93616428Y-71192857D01*
D13*
X95244000Y-69659571D02*
X95279714Y-69588142D01*
X95279714Y-69481000D01*
X95244000Y-69373857D01*
X95172571Y-69302428D01*
X95101142Y-69266714D01*
X94958285Y-69231000D01*
X94851142Y-69231000D01*
X94708285Y-69266714D01*
X94636857Y-69302428D01*
X94565428Y-69373857D01*
X94529714Y-69481000D01*
X94529714Y-69552428D01*
X94565428Y-69659571D01*
X94601142Y-69695285D01*
X94851142Y-69695285D01*
X94851142Y-69552428D01*
X94529714Y-70016714D02*
X95279714Y-70016714D01*
X94529714Y-70445285D01*
X95279714Y-70445285D01*
X94529714Y-70802428D02*
X95279714Y-70802428D01*
X95279714Y-70981000D01*
X95244000Y-71088142D01*
X95172571Y-71159571D01*
X95101142Y-71195285D01*
X94958285Y-71231000D01*
X94851142Y-71231000D01*
X94708285Y-71195285D01*
X94636857Y-71159571D01*
X94565428Y-71088142D01*
X94529714Y-70981000D01*
X94529714Y-70802428D01*
X78813428Y-69139714D02*
X78813428Y-69711142D01*
X78527714Y-69425428D02*
X79099142Y-69425428D01*
X79277714Y-70425428D02*
X79277714Y-70068285D01*
X78920571Y-70032571D01*
X78956285Y-70068285D01*
X78992000Y-70139714D01*
X78992000Y-70318285D01*
X78956285Y-70389714D01*
X78920571Y-70425428D01*
X78849142Y-70461142D01*
X78670571Y-70461142D01*
X78599142Y-70425428D01*
X78563428Y-70389714D01*
X78527714Y-70318285D01*
X78527714Y-70139714D01*
X78563428Y-70068285D01*
X78599142Y-70032571D01*
X79277714Y-70675428D02*
X78527714Y-70925428D01*
X79277714Y-71175428D01*
D12*
X148590000Y-76835000D02*
X149225000Y-76835000D01*
G36*
X148590000Y-78740000D02*
G01*
X147955000Y-78740000D01*
X147955000Y-78105000D01*
X148590000Y-78105000D01*
X148590000Y-78740000D01*
G37*
X148590000Y-78740000D02*
X147955000Y-78740000D01*
X147955000Y-78105000D01*
X148590000Y-78105000D01*
X148590000Y-78740000D01*
G36*
X149225000Y-76835000D02*
G01*
X148590000Y-76835000D01*
X148590000Y-76200000D01*
X149225000Y-76200000D01*
X149225000Y-76835000D01*
G37*
X149225000Y-76835000D02*
X148590000Y-76835000D01*
X148590000Y-76200000D01*
X149225000Y-76200000D01*
X149225000Y-76835000D01*
G36*
X147955000Y-76835000D02*
G01*
X147320000Y-76835000D01*
X147320000Y-76200000D01*
X147955000Y-76200000D01*
X147955000Y-76835000D01*
G37*
X147955000Y-76835000D02*
X147320000Y-76835000D01*
X147320000Y-76200000D01*
X147955000Y-76200000D01*
X147955000Y-76835000D01*
X148590000Y-78105000D02*
X148590000Y-78740000D01*
X147955000Y-78105000D02*
X147955000Y-78740000D01*
X149860000Y-79375000D02*
X150495000Y-79375000D01*
X149860000Y-76200000D02*
X150495000Y-76200000D01*
X149860000Y-75565000D02*
X150495000Y-75565000D01*
X150495000Y-75565000D02*
X150495000Y-80010000D01*
X149860000Y-75565000D02*
X149860000Y-80010000D01*
X149860000Y-80010000D02*
X150495000Y-80010000D01*
X148590000Y-80010000D02*
X149225000Y-80010000D01*
X146050000Y-80010000D02*
X146685000Y-80010000D01*
X148590000Y-79375000D02*
X148590000Y-80010000D01*
X146685000Y-79375000D02*
X146685000Y-80010000D01*
X146050000Y-79375000D02*
X149225000Y-79375000D01*
X145415000Y-78740000D02*
X149225000Y-78740000D01*
X145415000Y-78105000D02*
X150495000Y-78105000D01*
X145415000Y-78740000D02*
X145415000Y-77470000D01*
X145415000Y-77470000D02*
X150495000Y-77470000D01*
X148590000Y-76200000D02*
X148590000Y-76835000D01*
X147955000Y-76200000D02*
X147955000Y-76835000D01*
X147320000Y-76200000D02*
X147320000Y-77470000D01*
X146685000Y-76835000D02*
X147955000Y-76835000D01*
X146685000Y-76200000D02*
X146685000Y-76835000D01*
X149225000Y-74930000D02*
X149225000Y-80010000D01*
X148590000Y-74930000D02*
X148590000Y-75565000D01*
X147955000Y-75565000D02*
X148590000Y-75565000D01*
X147955000Y-74930000D02*
X147955000Y-75565000D01*
X147320000Y-74930000D02*
X147320000Y-75565000D01*
X146050000Y-74930000D02*
X149225000Y-74930000D01*
X145415000Y-76200000D02*
X145415000Y-75565000D01*
X149225000Y-76200000D02*
X145415000Y-76200000D01*
X146050000Y-74930000D02*
X146050000Y-80010000D01*
X145415000Y-75565000D02*
X147320000Y-75565000D01*
D14*
X163255000Y-77105000D02*
X163255000Y-71645000D01*
X163255000Y-71645000D02*
X102175000Y-71645000D01*
X102175000Y-71645000D02*
X102175000Y-84565000D01*
X102175000Y-84565000D02*
X163255000Y-84565000D01*
X163255000Y-84565000D02*
X163255000Y-79105000D01*
X163315000Y-69155000D02*
X102115000Y-69155000D01*
X102115000Y-69155000D02*
X102115000Y-87055000D01*
X102115000Y-87055000D02*
X163315000Y-87055000D01*
X163315000Y-87055000D02*
X163315000Y-69155000D01*
X163255000Y-79105000D02*
G75*
G02*
X163255000Y-77105000I0J1000000D01*
G01*
D15*
X77597000Y-73025000D02*
G75*
G03*
X77597000Y-73025000I-127000J0D01*
G01*
X75755000Y-72390000D02*
X75755000Y-73789000D01*
X75755000Y-77251000D02*
X75755000Y-79375000D01*
X75755000Y-72390000D02*
X77964000Y-72390000D01*
X75755000Y-79375000D02*
X98235000Y-79375000D01*
X98235000Y-79375000D02*
X98235000Y-77251000D01*
X98235000Y-72390000D02*
X96026000Y-72390000D01*
X98235000Y-73789000D02*
X98235000Y-72390000D01*
D13*
X145508571Y-81075571D02*
X145580000Y-81111285D01*
X145722857Y-81111285D01*
X145794285Y-81075571D01*
X145830000Y-81004142D01*
X145830000Y-80968428D01*
X145794285Y-80897000D01*
X145722857Y-80861285D01*
X145615714Y-80861285D01*
X145544285Y-80825571D01*
X145508571Y-80754142D01*
X145508571Y-80718428D01*
X145544285Y-80647000D01*
X145615714Y-80611285D01*
X145722857Y-80611285D01*
X145794285Y-80647000D01*
X146258571Y-81111285D02*
X146187142Y-81075571D01*
X146151428Y-81039857D01*
X146115714Y-80968428D01*
X146115714Y-80754142D01*
X146151428Y-80682714D01*
X146187142Y-80647000D01*
X146258571Y-80611285D01*
X146365714Y-80611285D01*
X146437142Y-80647000D01*
X146472857Y-80682714D01*
X146508571Y-80754142D01*
X146508571Y-80968428D01*
X146472857Y-81039857D01*
X146437142Y-81075571D01*
X146365714Y-81111285D01*
X146258571Y-81111285D01*
X146937142Y-81111285D02*
X146865714Y-81075571D01*
X146830000Y-81004142D01*
X146830000Y-80361285D01*
X147544285Y-81111285D02*
X147544285Y-80718428D01*
X147508571Y-80647000D01*
X147437142Y-80611285D01*
X147294285Y-80611285D01*
X147222857Y-80647000D01*
X147544285Y-81075571D02*
X147472857Y-81111285D01*
X147294285Y-81111285D01*
X147222857Y-81075571D01*
X147187142Y-81004142D01*
X147187142Y-80932714D01*
X147222857Y-80861285D01*
X147294285Y-80825571D01*
X147472857Y-80825571D01*
X147544285Y-80789857D01*
X147901428Y-81111285D02*
X147901428Y-80611285D01*
X147901428Y-80754142D02*
X147937142Y-80682714D01*
X147972857Y-80647000D01*
X148044285Y-80611285D01*
X148115714Y-80611285D01*
X148365714Y-81111285D02*
X148365714Y-80611285D01*
X148365714Y-80682714D02*
X148401428Y-80647000D01*
X148472857Y-80611285D01*
X148580000Y-80611285D01*
X148651428Y-80647000D01*
X148687142Y-80718428D01*
X148687142Y-81111285D01*
X148687142Y-80718428D02*
X148722857Y-80647000D01*
X148794285Y-80611285D01*
X148901428Y-80611285D01*
X148972857Y-80647000D01*
X149008571Y-80718428D01*
X149008571Y-81111285D01*
X149472857Y-81111285D02*
X149401428Y-81075571D01*
X149365714Y-81039857D01*
X149330000Y-80968428D01*
X149330000Y-80754142D01*
X149365714Y-80682714D01*
X149401428Y-80647000D01*
X149472857Y-80611285D01*
X149580000Y-80611285D01*
X149651428Y-80647000D01*
X149687142Y-80682714D01*
X149722857Y-80754142D01*
X149722857Y-80968428D01*
X149687142Y-81039857D01*
X149651428Y-81075571D01*
X149580000Y-81111285D01*
X149472857Y-81111285D01*
X150044285Y-80611285D02*
X150044285Y-81111285D01*
X150044285Y-80682714D02*
X150080000Y-80647000D01*
X150151428Y-80611285D01*
X150258571Y-80611285D01*
X150330000Y-80647000D01*
X150365714Y-80718428D01*
X150365714Y-81111285D01*
X76091071Y-80591428D02*
X75841071Y-80591428D01*
X75841071Y-80984285D02*
X75841071Y-80234285D01*
X76198214Y-80234285D01*
X76733928Y-80591428D02*
X76483928Y-80591428D01*
X76483928Y-80984285D02*
X76483928Y-80234285D01*
X76841071Y-80234285D01*
X77555357Y-80912857D02*
X77519642Y-80948571D01*
X77412500Y-80984285D01*
X77341071Y-80984285D01*
X77233928Y-80948571D01*
X77162500Y-80877142D01*
X77126785Y-80805714D01*
X77091071Y-80662857D01*
X77091071Y-80555714D01*
X77126785Y-80412857D01*
X77162500Y-80341428D01*
X77233928Y-80270000D01*
X77341071Y-80234285D01*
X77412500Y-80234285D01*
X77519642Y-80270000D01*
X77555357Y-80305714D01*
X78269642Y-80984285D02*
X77841071Y-80984285D01*
X78055357Y-80984285D02*
X78055357Y-80234285D01*
X77983928Y-80341428D01*
X77912500Y-80412857D01*
X77841071Y-80448571D01*
X78698214Y-80555714D02*
X78626785Y-80520000D01*
X78591071Y-80484285D01*
X78555357Y-80412857D01*
X78555357Y-80377142D01*
X78591071Y-80305714D01*
X78626785Y-80270000D01*
X78698214Y-80234285D01*
X78841071Y-80234285D01*
X78912500Y-80270000D01*
X78948214Y-80305714D01*
X78983928Y-80377142D01*
X78983928Y-80412857D01*
X78948214Y-80484285D01*
X78912500Y-80520000D01*
X78841071Y-80555714D01*
X78698214Y-80555714D01*
X78626785Y-80591428D01*
X78591071Y-80627142D01*
X78555357Y-80698571D01*
X78555357Y-80841428D01*
X78591071Y-80912857D01*
X78626785Y-80948571D01*
X78698214Y-80984285D01*
X78841071Y-80984285D01*
X78912500Y-80948571D01*
X78948214Y-80912857D01*
X78983928Y-80841428D01*
X78983928Y-80698571D01*
X78948214Y-80627142D01*
X78912500Y-80591428D01*
X78841071Y-80555714D01*
M02*
