G04 #@! TF.GenerationSoftware,KiCad,Pcbnew,(5.1.9)-1*
G04 #@! TF.CreationDate,2021-11-07T21:08:52+00:00*
G04 #@! TF.ProjectId,RGBtoHDMI Amiga Denise DIP Breakout FFC - CDTV,52474274-6f48-4444-9d49-20416d696761,CDTV*
G04 #@! TF.SameCoordinates,Original*
G04 #@! TF.FileFunction,Legend,Top*
G04 #@! TF.FilePolarity,Positive*
%FSLAX46Y46*%
G04 Gerber Fmt 4.6, Leading zero omitted, Abs format (unit mm)*
G04 Created by KiCad (PCBNEW (5.1.9)-1) date 2021-11-07 21:08:52*
%MOMM*%
%LPD*%
G01*
G04 APERTURE LIST*
%ADD10C,0.187500*%
%ADD11C,0.100000*%
%ADD12C,0.150000*%
%ADD13C,0.400000*%
%ADD14C,0.254000*%
%ADD15C,0.120000*%
G04 APERTURE END LIST*
D10*
X77663714Y-85767785D02*
X77413714Y-85410642D01*
X77235142Y-85767785D02*
X77235142Y-85017785D01*
X77520857Y-85017785D01*
X77592285Y-85053500D01*
X77628000Y-85089214D01*
X77663714Y-85160642D01*
X77663714Y-85267785D01*
X77628000Y-85339214D01*
X77592285Y-85374928D01*
X77520857Y-85410642D01*
X77235142Y-85410642D01*
X78378000Y-85053500D02*
X78306571Y-85017785D01*
X78199428Y-85017785D01*
X78092285Y-85053500D01*
X78020857Y-85124928D01*
X77985142Y-85196357D01*
X77949428Y-85339214D01*
X77949428Y-85446357D01*
X77985142Y-85589214D01*
X78020857Y-85660642D01*
X78092285Y-85732071D01*
X78199428Y-85767785D01*
X78270857Y-85767785D01*
X78378000Y-85732071D01*
X78413714Y-85696357D01*
X78413714Y-85446357D01*
X78270857Y-85446357D01*
X78985142Y-85374928D02*
X79092285Y-85410642D01*
X79128000Y-85446357D01*
X79163714Y-85517785D01*
X79163714Y-85624928D01*
X79128000Y-85696357D01*
X79092285Y-85732071D01*
X79020857Y-85767785D01*
X78735142Y-85767785D01*
X78735142Y-85017785D01*
X78985142Y-85017785D01*
X79056571Y-85053500D01*
X79092285Y-85089214D01*
X79128000Y-85160642D01*
X79128000Y-85232071D01*
X79092285Y-85303500D01*
X79056571Y-85339214D01*
X78985142Y-85374928D01*
X78735142Y-85374928D01*
X79378000Y-85267785D02*
X79663714Y-85267785D01*
X79485142Y-85017785D02*
X79485142Y-85660642D01*
X79520857Y-85732071D01*
X79592285Y-85767785D01*
X79663714Y-85767785D01*
X80020857Y-85767785D02*
X79949428Y-85732071D01*
X79913714Y-85696357D01*
X79878000Y-85624928D01*
X79878000Y-85410642D01*
X79913714Y-85339214D01*
X79949428Y-85303500D01*
X80020857Y-85267785D01*
X80128000Y-85267785D01*
X80199428Y-85303500D01*
X80235142Y-85339214D01*
X80270857Y-85410642D01*
X80270857Y-85624928D01*
X80235142Y-85696357D01*
X80199428Y-85732071D01*
X80128000Y-85767785D01*
X80020857Y-85767785D01*
X80592285Y-85767785D02*
X80592285Y-85017785D01*
X80592285Y-85374928D02*
X81020857Y-85374928D01*
X81020857Y-85767785D02*
X81020857Y-85017785D01*
X81378000Y-85767785D02*
X81378000Y-85017785D01*
X81556571Y-85017785D01*
X81663714Y-85053500D01*
X81735142Y-85124928D01*
X81770857Y-85196357D01*
X81806571Y-85339214D01*
X81806571Y-85446357D01*
X81770857Y-85589214D01*
X81735142Y-85660642D01*
X81663714Y-85732071D01*
X81556571Y-85767785D01*
X81378000Y-85767785D01*
X82128000Y-85767785D02*
X82128000Y-85017785D01*
X82378000Y-85553500D01*
X82628000Y-85017785D01*
X82628000Y-85767785D01*
X82985142Y-85767785D02*
X82985142Y-85017785D01*
X83913714Y-85767785D02*
X83913714Y-85017785D01*
X84092285Y-85017785D01*
X84199428Y-85053500D01*
X84270857Y-85124928D01*
X84306571Y-85196357D01*
X84342285Y-85339214D01*
X84342285Y-85446357D01*
X84306571Y-85589214D01*
X84270857Y-85660642D01*
X84199428Y-85732071D01*
X84092285Y-85767785D01*
X83913714Y-85767785D01*
X84949428Y-85732071D02*
X84878000Y-85767785D01*
X84735142Y-85767785D01*
X84663714Y-85732071D01*
X84628000Y-85660642D01*
X84628000Y-85374928D01*
X84663714Y-85303500D01*
X84735142Y-85267785D01*
X84878000Y-85267785D01*
X84949428Y-85303500D01*
X84985142Y-85374928D01*
X84985142Y-85446357D01*
X84628000Y-85517785D01*
X85306571Y-85267785D02*
X85306571Y-85767785D01*
X85306571Y-85339214D02*
X85342285Y-85303500D01*
X85413714Y-85267785D01*
X85520857Y-85267785D01*
X85592285Y-85303500D01*
X85628000Y-85374928D01*
X85628000Y-85767785D01*
X85985142Y-85767785D02*
X85985142Y-85267785D01*
X85985142Y-85017785D02*
X85949428Y-85053500D01*
X85985142Y-85089214D01*
X86020857Y-85053500D01*
X85985142Y-85017785D01*
X85985142Y-85089214D01*
X86306571Y-85732071D02*
X86378000Y-85767785D01*
X86520857Y-85767785D01*
X86592285Y-85732071D01*
X86628000Y-85660642D01*
X86628000Y-85624928D01*
X86592285Y-85553500D01*
X86520857Y-85517785D01*
X86413714Y-85517785D01*
X86342285Y-85482071D01*
X86306571Y-85410642D01*
X86306571Y-85374928D01*
X86342285Y-85303500D01*
X86413714Y-85267785D01*
X86520857Y-85267785D01*
X86592285Y-85303500D01*
X87235142Y-85732071D02*
X87163714Y-85767785D01*
X87020857Y-85767785D01*
X86949428Y-85732071D01*
X86913714Y-85660642D01*
X86913714Y-85374928D01*
X86949428Y-85303500D01*
X87020857Y-85267785D01*
X87163714Y-85267785D01*
X87235142Y-85303500D01*
X87270857Y-85374928D01*
X87270857Y-85446357D01*
X86913714Y-85517785D01*
X88163714Y-85767785D02*
X88163714Y-85017785D01*
X88342285Y-85017785D01*
X88449428Y-85053500D01*
X88520857Y-85124928D01*
X88556571Y-85196357D01*
X88592285Y-85339214D01*
X88592285Y-85446357D01*
X88556571Y-85589214D01*
X88520857Y-85660642D01*
X88449428Y-85732071D01*
X88342285Y-85767785D01*
X88163714Y-85767785D01*
X88913714Y-85767785D02*
X88913714Y-85017785D01*
X89270857Y-85767785D02*
X89270857Y-85017785D01*
X89556571Y-85017785D01*
X89628000Y-85053500D01*
X89663714Y-85089214D01*
X89699428Y-85160642D01*
X89699428Y-85267785D01*
X89663714Y-85339214D01*
X89628000Y-85374928D01*
X89556571Y-85410642D01*
X89270857Y-85410642D01*
X90842285Y-85374928D02*
X90949428Y-85410642D01*
X90985142Y-85446357D01*
X91020857Y-85517785D01*
X91020857Y-85624928D01*
X90985142Y-85696357D01*
X90949428Y-85732071D01*
X90878000Y-85767785D01*
X90592285Y-85767785D01*
X90592285Y-85017785D01*
X90842285Y-85017785D01*
X90913714Y-85053500D01*
X90949428Y-85089214D01*
X90985142Y-85160642D01*
X90985142Y-85232071D01*
X90949428Y-85303500D01*
X90913714Y-85339214D01*
X90842285Y-85374928D01*
X90592285Y-85374928D01*
X91342285Y-85767785D02*
X91342285Y-85267785D01*
X91342285Y-85410642D02*
X91378000Y-85339214D01*
X91413714Y-85303500D01*
X91485142Y-85267785D01*
X91556571Y-85267785D01*
X92092285Y-85732071D02*
X92020857Y-85767785D01*
X91878000Y-85767785D01*
X91806571Y-85732071D01*
X91770857Y-85660642D01*
X91770857Y-85374928D01*
X91806571Y-85303500D01*
X91878000Y-85267785D01*
X92020857Y-85267785D01*
X92092285Y-85303500D01*
X92128000Y-85374928D01*
X92128000Y-85446357D01*
X91770857Y-85517785D01*
X92770857Y-85767785D02*
X92770857Y-85374928D01*
X92735142Y-85303500D01*
X92663714Y-85267785D01*
X92520857Y-85267785D01*
X92449428Y-85303500D01*
X92770857Y-85732071D02*
X92699428Y-85767785D01*
X92520857Y-85767785D01*
X92449428Y-85732071D01*
X92413714Y-85660642D01*
X92413714Y-85589214D01*
X92449428Y-85517785D01*
X92520857Y-85482071D01*
X92699428Y-85482071D01*
X92770857Y-85446357D01*
X93128000Y-85767785D02*
X93128000Y-85017785D01*
X93199428Y-85482071D02*
X93413714Y-85767785D01*
X93413714Y-85267785D02*
X93128000Y-85553500D01*
X93842285Y-85767785D02*
X93770857Y-85732071D01*
X93735142Y-85696357D01*
X93699428Y-85624928D01*
X93699428Y-85410642D01*
X93735142Y-85339214D01*
X93770857Y-85303500D01*
X93842285Y-85267785D01*
X93949428Y-85267785D01*
X94020857Y-85303500D01*
X94056571Y-85339214D01*
X94092285Y-85410642D01*
X94092285Y-85624928D01*
X94056571Y-85696357D01*
X94020857Y-85732071D01*
X93949428Y-85767785D01*
X93842285Y-85767785D01*
X94735142Y-85267785D02*
X94735142Y-85767785D01*
X94413714Y-85267785D02*
X94413714Y-85660642D01*
X94449428Y-85732071D01*
X94520857Y-85767785D01*
X94628000Y-85767785D01*
X94699428Y-85732071D01*
X94735142Y-85696357D01*
X94985142Y-85267785D02*
X95270857Y-85267785D01*
X95092285Y-85017785D02*
X95092285Y-85660642D01*
X95128000Y-85732071D01*
X95199428Y-85767785D01*
X95270857Y-85767785D01*
X96342285Y-85374928D02*
X96092285Y-85374928D01*
X96092285Y-85767785D02*
X96092285Y-85017785D01*
X96449428Y-85017785D01*
X96985142Y-85374928D02*
X96735142Y-85374928D01*
X96735142Y-85767785D02*
X96735142Y-85017785D01*
X97092285Y-85017785D01*
X97806571Y-85696357D02*
X97770857Y-85732071D01*
X97663714Y-85767785D01*
X97592285Y-85767785D01*
X97485142Y-85732071D01*
X97413714Y-85660642D01*
X97378000Y-85589214D01*
X97342285Y-85446357D01*
X97342285Y-85339214D01*
X97378000Y-85196357D01*
X97413714Y-85124928D01*
X97485142Y-85053500D01*
X97592285Y-85017785D01*
X97663714Y-85017785D01*
X97770857Y-85053500D01*
X97806571Y-85089214D01*
X85395857Y-86687428D02*
X85145857Y-86687428D01*
X85145857Y-87080285D02*
X85145857Y-86330285D01*
X85503000Y-86330285D01*
X85895857Y-87080285D02*
X85824428Y-87044571D01*
X85788714Y-87008857D01*
X85753000Y-86937428D01*
X85753000Y-86723142D01*
X85788714Y-86651714D01*
X85824428Y-86616000D01*
X85895857Y-86580285D01*
X86003000Y-86580285D01*
X86074428Y-86616000D01*
X86110142Y-86651714D01*
X86145857Y-86723142D01*
X86145857Y-86937428D01*
X86110142Y-87008857D01*
X86074428Y-87044571D01*
X86003000Y-87080285D01*
X85895857Y-87080285D01*
X86467285Y-87080285D02*
X86467285Y-86580285D01*
X86467285Y-86723142D02*
X86503000Y-86651714D01*
X86538714Y-86616000D01*
X86610142Y-86580285D01*
X86681571Y-86580285D01*
X87931571Y-87008857D02*
X87895857Y-87044571D01*
X87788714Y-87080285D01*
X87717285Y-87080285D01*
X87610142Y-87044571D01*
X87538714Y-86973142D01*
X87503000Y-86901714D01*
X87467285Y-86758857D01*
X87467285Y-86651714D01*
X87503000Y-86508857D01*
X87538714Y-86437428D01*
X87610142Y-86366000D01*
X87717285Y-86330285D01*
X87788714Y-86330285D01*
X87895857Y-86366000D01*
X87931571Y-86401714D01*
X88253000Y-87080285D02*
X88253000Y-86330285D01*
X88431571Y-86330285D01*
X88538714Y-86366000D01*
X88610142Y-86437428D01*
X88645857Y-86508857D01*
X88681571Y-86651714D01*
X88681571Y-86758857D01*
X88645857Y-86901714D01*
X88610142Y-86973142D01*
X88538714Y-87044571D01*
X88431571Y-87080285D01*
X88253000Y-87080285D01*
X88895857Y-86330285D02*
X89324428Y-86330285D01*
X89110142Y-87080285D02*
X89110142Y-86330285D01*
X89467285Y-86330285D02*
X89717285Y-87080285D01*
X89967285Y-86330285D01*
X82770857Y-88392785D02*
X82770857Y-87642785D01*
X83056571Y-87642785D01*
X83128000Y-87678500D01*
X83163714Y-87714214D01*
X83199428Y-87785642D01*
X83199428Y-87892785D01*
X83163714Y-87964214D01*
X83128000Y-87999928D01*
X83056571Y-88035642D01*
X82770857Y-88035642D01*
X83949428Y-88321357D02*
X83913714Y-88357071D01*
X83806571Y-88392785D01*
X83735142Y-88392785D01*
X83628000Y-88357071D01*
X83556571Y-88285642D01*
X83520857Y-88214214D01*
X83485142Y-88071357D01*
X83485142Y-87964214D01*
X83520857Y-87821357D01*
X83556571Y-87749928D01*
X83628000Y-87678500D01*
X83735142Y-87642785D01*
X83806571Y-87642785D01*
X83913714Y-87678500D01*
X83949428Y-87714214D01*
X84520857Y-87999928D02*
X84628000Y-88035642D01*
X84663714Y-88071357D01*
X84699428Y-88142785D01*
X84699428Y-88249928D01*
X84663714Y-88321357D01*
X84628000Y-88357071D01*
X84556571Y-88392785D01*
X84270857Y-88392785D01*
X84270857Y-87642785D01*
X84520857Y-87642785D01*
X84592285Y-87678500D01*
X84628000Y-87714214D01*
X84663714Y-87785642D01*
X84663714Y-87857071D01*
X84628000Y-87928500D01*
X84592285Y-87964214D01*
X84520857Y-87999928D01*
X84270857Y-87999928D01*
X85592285Y-88392785D02*
X85592285Y-87642785D01*
X85592285Y-87928500D02*
X85663714Y-87892785D01*
X85806571Y-87892785D01*
X85878000Y-87928500D01*
X85913714Y-87964214D01*
X85949428Y-88035642D01*
X85949428Y-88249928D01*
X85913714Y-88321357D01*
X85878000Y-88357071D01*
X85806571Y-88392785D01*
X85663714Y-88392785D01*
X85592285Y-88357071D01*
X86199428Y-87892785D02*
X86378000Y-88392785D01*
X86556571Y-87892785D02*
X86378000Y-88392785D01*
X86306571Y-88571357D01*
X86270857Y-88607071D01*
X86199428Y-88642785D01*
X87378000Y-88357071D02*
X87449428Y-88392785D01*
X87592285Y-88392785D01*
X87663714Y-88357071D01*
X87699428Y-88285642D01*
X87699428Y-88249928D01*
X87663714Y-88178500D01*
X87592285Y-88142785D01*
X87485142Y-88142785D01*
X87413714Y-88107071D01*
X87378000Y-88035642D01*
X87378000Y-87999928D01*
X87413714Y-87928500D01*
X87485142Y-87892785D01*
X87592285Y-87892785D01*
X87663714Y-87928500D01*
X88128000Y-88392785D02*
X88056571Y-88357071D01*
X88020857Y-88321357D01*
X87985142Y-88249928D01*
X87985142Y-88035642D01*
X88020857Y-87964214D01*
X88056571Y-87928500D01*
X88128000Y-87892785D01*
X88235142Y-87892785D01*
X88306571Y-87928500D01*
X88342285Y-87964214D01*
X88378000Y-88035642D01*
X88378000Y-88249928D01*
X88342285Y-88321357D01*
X88306571Y-88357071D01*
X88235142Y-88392785D01*
X88128000Y-88392785D01*
X88806571Y-88392785D02*
X88735142Y-88357071D01*
X88699428Y-88285642D01*
X88699428Y-87642785D01*
X89413714Y-88392785D02*
X89413714Y-87999928D01*
X89378000Y-87928500D01*
X89306571Y-87892785D01*
X89163714Y-87892785D01*
X89092285Y-87928500D01*
X89413714Y-88357071D02*
X89342285Y-88392785D01*
X89163714Y-88392785D01*
X89092285Y-88357071D01*
X89056571Y-88285642D01*
X89056571Y-88214214D01*
X89092285Y-88142785D01*
X89163714Y-88107071D01*
X89342285Y-88107071D01*
X89413714Y-88071357D01*
X89770857Y-88392785D02*
X89770857Y-87892785D01*
X89770857Y-88035642D02*
X89806571Y-87964214D01*
X89842285Y-87928500D01*
X89913714Y-87892785D01*
X89985142Y-87892785D01*
X90235142Y-88392785D02*
X90235142Y-87892785D01*
X90235142Y-87964214D02*
X90270857Y-87928500D01*
X90342285Y-87892785D01*
X90449428Y-87892785D01*
X90520857Y-87928500D01*
X90556571Y-87999928D01*
X90556571Y-88392785D01*
X90556571Y-87999928D02*
X90592285Y-87928500D01*
X90663714Y-87892785D01*
X90770857Y-87892785D01*
X90842285Y-87928500D01*
X90878000Y-87999928D01*
X90878000Y-88392785D01*
X91342285Y-88392785D02*
X91270857Y-88357071D01*
X91235142Y-88321357D01*
X91199428Y-88249928D01*
X91199428Y-88035642D01*
X91235142Y-87964214D01*
X91270857Y-87928500D01*
X91342285Y-87892785D01*
X91449428Y-87892785D01*
X91520857Y-87928500D01*
X91556571Y-87964214D01*
X91592285Y-88035642D01*
X91592285Y-88249928D01*
X91556571Y-88321357D01*
X91520857Y-88357071D01*
X91449428Y-88392785D01*
X91342285Y-88392785D01*
X91913714Y-87892785D02*
X91913714Y-88392785D01*
X91913714Y-87964214D02*
X91949428Y-87928500D01*
X92020857Y-87892785D01*
X92128000Y-87892785D01*
X92199428Y-87928500D01*
X92235142Y-87999928D01*
X92235142Y-88392785D01*
D11*
X82151571Y-70639000D02*
X82437285Y-70439000D01*
X82151571Y-70296142D02*
X82751571Y-70296142D01*
X82751571Y-70524714D01*
X82723000Y-70581857D01*
X82694428Y-70610428D01*
X82637285Y-70639000D01*
X82551571Y-70639000D01*
X82494428Y-70610428D01*
X82465857Y-70581857D01*
X82437285Y-70524714D01*
X82437285Y-70296142D01*
X82694428Y-70867571D02*
X82723000Y-70896142D01*
X82751571Y-70953285D01*
X82751571Y-71096142D01*
X82723000Y-71153285D01*
X82694428Y-71181857D01*
X82637285Y-71210428D01*
X82580142Y-71210428D01*
X82494428Y-71181857D01*
X82151571Y-70839000D01*
X82151571Y-71210428D01*
X83167571Y-70639000D02*
X83453285Y-70439000D01*
X83167571Y-70296142D02*
X83767571Y-70296142D01*
X83767571Y-70524714D01*
X83739000Y-70581857D01*
X83710428Y-70610428D01*
X83653285Y-70639000D01*
X83567571Y-70639000D01*
X83510428Y-70610428D01*
X83481857Y-70581857D01*
X83453285Y-70524714D01*
X83453285Y-70296142D01*
X83767571Y-70839000D02*
X83767571Y-71210428D01*
X83539000Y-71010428D01*
X83539000Y-71096142D01*
X83510428Y-71153285D01*
X83481857Y-71181857D01*
X83424714Y-71210428D01*
X83281857Y-71210428D01*
X83224714Y-71181857D01*
X83196142Y-71153285D01*
X83167571Y-71096142D01*
X83167571Y-70924714D01*
X83196142Y-70867571D01*
X83224714Y-70839000D01*
X80119571Y-70639000D02*
X80405285Y-70439000D01*
X80119571Y-70296142D02*
X80719571Y-70296142D01*
X80719571Y-70524714D01*
X80691000Y-70581857D01*
X80662428Y-70610428D01*
X80605285Y-70639000D01*
X80519571Y-70639000D01*
X80462428Y-70610428D01*
X80433857Y-70581857D01*
X80405285Y-70524714D01*
X80405285Y-70296142D01*
X80719571Y-71010428D02*
X80719571Y-71067571D01*
X80691000Y-71124714D01*
X80662428Y-71153285D01*
X80605285Y-71181857D01*
X80491000Y-71210428D01*
X80348142Y-71210428D01*
X80233857Y-71181857D01*
X80176714Y-71153285D01*
X80148142Y-71124714D01*
X80119571Y-71067571D01*
X80119571Y-71010428D01*
X80148142Y-70953285D01*
X80176714Y-70924714D01*
X80233857Y-70896142D01*
X80348142Y-70867571D01*
X80491000Y-70867571D01*
X80605285Y-70896142D01*
X80662428Y-70924714D01*
X80691000Y-70953285D01*
X80719571Y-71010428D01*
X81135571Y-70639000D02*
X81421285Y-70439000D01*
X81135571Y-70296142D02*
X81735571Y-70296142D01*
X81735571Y-70524714D01*
X81707000Y-70581857D01*
X81678428Y-70610428D01*
X81621285Y-70639000D01*
X81535571Y-70639000D01*
X81478428Y-70610428D01*
X81449857Y-70581857D01*
X81421285Y-70524714D01*
X81421285Y-70296142D01*
X81135571Y-71210428D02*
X81135571Y-70867571D01*
X81135571Y-71039000D02*
X81735571Y-71039000D01*
X81649857Y-70981857D01*
X81592714Y-70924714D01*
X81564142Y-70867571D01*
X87418857Y-70496142D02*
X87390285Y-70581857D01*
X87361714Y-70610428D01*
X87304571Y-70639000D01*
X87218857Y-70639000D01*
X87161714Y-70610428D01*
X87133142Y-70581857D01*
X87104571Y-70524714D01*
X87104571Y-70296142D01*
X87704571Y-70296142D01*
X87704571Y-70496142D01*
X87676000Y-70553285D01*
X87647428Y-70581857D01*
X87590285Y-70610428D01*
X87533142Y-70610428D01*
X87476000Y-70581857D01*
X87447428Y-70553285D01*
X87418857Y-70496142D01*
X87418857Y-70296142D01*
X87704571Y-70839000D02*
X87704571Y-71210428D01*
X87476000Y-71010428D01*
X87476000Y-71096142D01*
X87447428Y-71153285D01*
X87418857Y-71181857D01*
X87361714Y-71210428D01*
X87218857Y-71210428D01*
X87161714Y-71181857D01*
X87133142Y-71153285D01*
X87104571Y-71096142D01*
X87104571Y-70924714D01*
X87133142Y-70867571D01*
X87161714Y-70839000D01*
X86402857Y-70496142D02*
X86374285Y-70581857D01*
X86345714Y-70610428D01*
X86288571Y-70639000D01*
X86202857Y-70639000D01*
X86145714Y-70610428D01*
X86117142Y-70581857D01*
X86088571Y-70524714D01*
X86088571Y-70296142D01*
X86688571Y-70296142D01*
X86688571Y-70496142D01*
X86660000Y-70553285D01*
X86631428Y-70581857D01*
X86574285Y-70610428D01*
X86517142Y-70610428D01*
X86460000Y-70581857D01*
X86431428Y-70553285D01*
X86402857Y-70496142D01*
X86402857Y-70296142D01*
X86631428Y-70867571D02*
X86660000Y-70896142D01*
X86688571Y-70953285D01*
X86688571Y-71096142D01*
X86660000Y-71153285D01*
X86631428Y-71181857D01*
X86574285Y-71210428D01*
X86517142Y-71210428D01*
X86431428Y-71181857D01*
X86088571Y-70839000D01*
X86088571Y-71210428D01*
X85386857Y-70496142D02*
X85358285Y-70581857D01*
X85329714Y-70610428D01*
X85272571Y-70639000D01*
X85186857Y-70639000D01*
X85129714Y-70610428D01*
X85101142Y-70581857D01*
X85072571Y-70524714D01*
X85072571Y-70296142D01*
X85672571Y-70296142D01*
X85672571Y-70496142D01*
X85644000Y-70553285D01*
X85615428Y-70581857D01*
X85558285Y-70610428D01*
X85501142Y-70610428D01*
X85444000Y-70581857D01*
X85415428Y-70553285D01*
X85386857Y-70496142D01*
X85386857Y-70296142D01*
X85072571Y-71210428D02*
X85072571Y-70867571D01*
X85072571Y-71039000D02*
X85672571Y-71039000D01*
X85586857Y-70981857D01*
X85529714Y-70924714D01*
X85501142Y-70867571D01*
X84370857Y-70496142D02*
X84342285Y-70581857D01*
X84313714Y-70610428D01*
X84256571Y-70639000D01*
X84170857Y-70639000D01*
X84113714Y-70610428D01*
X84085142Y-70581857D01*
X84056571Y-70524714D01*
X84056571Y-70296142D01*
X84656571Y-70296142D01*
X84656571Y-70496142D01*
X84628000Y-70553285D01*
X84599428Y-70581857D01*
X84542285Y-70610428D01*
X84485142Y-70610428D01*
X84428000Y-70581857D01*
X84399428Y-70553285D01*
X84370857Y-70496142D01*
X84370857Y-70296142D01*
X84656571Y-71010428D02*
X84656571Y-71067571D01*
X84628000Y-71124714D01*
X84599428Y-71153285D01*
X84542285Y-71181857D01*
X84428000Y-71210428D01*
X84285142Y-71210428D01*
X84170857Y-71181857D01*
X84113714Y-71153285D01*
X84085142Y-71124714D01*
X84056571Y-71067571D01*
X84056571Y-71010428D01*
X84085142Y-70953285D01*
X84113714Y-70924714D01*
X84170857Y-70896142D01*
X84285142Y-70867571D01*
X84428000Y-70867571D01*
X84542285Y-70896142D01*
X84599428Y-70924714D01*
X84628000Y-70953285D01*
X84656571Y-71010428D01*
X88692000Y-70610428D02*
X88720571Y-70553285D01*
X88720571Y-70467571D01*
X88692000Y-70381857D01*
X88634857Y-70324714D01*
X88577714Y-70296142D01*
X88463428Y-70267571D01*
X88377714Y-70267571D01*
X88263428Y-70296142D01*
X88206285Y-70324714D01*
X88149142Y-70381857D01*
X88120571Y-70467571D01*
X88120571Y-70524714D01*
X88149142Y-70610428D01*
X88177714Y-70639000D01*
X88377714Y-70639000D01*
X88377714Y-70524714D01*
X88720571Y-71010428D02*
X88720571Y-71067571D01*
X88692000Y-71124714D01*
X88663428Y-71153285D01*
X88606285Y-71181857D01*
X88492000Y-71210428D01*
X88349142Y-71210428D01*
X88234857Y-71181857D01*
X88177714Y-71153285D01*
X88149142Y-71124714D01*
X88120571Y-71067571D01*
X88120571Y-71010428D01*
X88149142Y-70953285D01*
X88177714Y-70924714D01*
X88234857Y-70896142D01*
X88349142Y-70867571D01*
X88492000Y-70867571D01*
X88606285Y-70896142D01*
X88663428Y-70924714D01*
X88692000Y-70953285D01*
X88720571Y-71010428D01*
X89708000Y-70610428D02*
X89736571Y-70553285D01*
X89736571Y-70467571D01*
X89708000Y-70381857D01*
X89650857Y-70324714D01*
X89593714Y-70296142D01*
X89479428Y-70267571D01*
X89393714Y-70267571D01*
X89279428Y-70296142D01*
X89222285Y-70324714D01*
X89165142Y-70381857D01*
X89136571Y-70467571D01*
X89136571Y-70524714D01*
X89165142Y-70610428D01*
X89193714Y-70639000D01*
X89393714Y-70639000D01*
X89393714Y-70524714D01*
X89136571Y-71210428D02*
X89136571Y-70867571D01*
X89136571Y-71039000D02*
X89736571Y-71039000D01*
X89650857Y-70981857D01*
X89593714Y-70924714D01*
X89565142Y-70867571D01*
X90724000Y-70610428D02*
X90752571Y-70553285D01*
X90752571Y-70467571D01*
X90724000Y-70381857D01*
X90666857Y-70324714D01*
X90609714Y-70296142D01*
X90495428Y-70267571D01*
X90409714Y-70267571D01*
X90295428Y-70296142D01*
X90238285Y-70324714D01*
X90181142Y-70381857D01*
X90152571Y-70467571D01*
X90152571Y-70524714D01*
X90181142Y-70610428D01*
X90209714Y-70639000D01*
X90409714Y-70639000D01*
X90409714Y-70524714D01*
X90695428Y-70867571D02*
X90724000Y-70896142D01*
X90752571Y-70953285D01*
X90752571Y-71096142D01*
X90724000Y-71153285D01*
X90695428Y-71181857D01*
X90638285Y-71210428D01*
X90581142Y-71210428D01*
X90495428Y-71181857D01*
X90152571Y-70839000D01*
X90152571Y-71210428D01*
X91613000Y-70610428D02*
X91641571Y-70553285D01*
X91641571Y-70467571D01*
X91613000Y-70381857D01*
X91555857Y-70324714D01*
X91498714Y-70296142D01*
X91384428Y-70267571D01*
X91298714Y-70267571D01*
X91184428Y-70296142D01*
X91127285Y-70324714D01*
X91070142Y-70381857D01*
X91041571Y-70467571D01*
X91041571Y-70524714D01*
X91070142Y-70610428D01*
X91098714Y-70639000D01*
X91298714Y-70639000D01*
X91298714Y-70524714D01*
X91641571Y-70839000D02*
X91641571Y-71210428D01*
X91413000Y-71010428D01*
X91413000Y-71096142D01*
X91384428Y-71153285D01*
X91355857Y-71181857D01*
X91298714Y-71210428D01*
X91155857Y-71210428D01*
X91098714Y-71181857D01*
X91070142Y-71153285D01*
X91041571Y-71096142D01*
X91041571Y-70924714D01*
X91070142Y-70867571D01*
X91098714Y-70839000D01*
X93130714Y-68878571D02*
X93102142Y-68850000D01*
X93073571Y-68764285D01*
X93073571Y-68707142D01*
X93102142Y-68621428D01*
X93159285Y-68564285D01*
X93216428Y-68535714D01*
X93330714Y-68507142D01*
X93416428Y-68507142D01*
X93530714Y-68535714D01*
X93587857Y-68564285D01*
X93645000Y-68621428D01*
X93673571Y-68707142D01*
X93673571Y-68764285D01*
X93645000Y-68850000D01*
X93616428Y-68878571D01*
X93102142Y-69107142D02*
X93073571Y-69192857D01*
X93073571Y-69335714D01*
X93102142Y-69392857D01*
X93130714Y-69421428D01*
X93187857Y-69450000D01*
X93245000Y-69450000D01*
X93302142Y-69421428D01*
X93330714Y-69392857D01*
X93359285Y-69335714D01*
X93387857Y-69221428D01*
X93416428Y-69164285D01*
X93445000Y-69135714D01*
X93502142Y-69107142D01*
X93559285Y-69107142D01*
X93616428Y-69135714D01*
X93645000Y-69164285D01*
X93673571Y-69221428D01*
X93673571Y-69364285D01*
X93645000Y-69450000D01*
X93359285Y-69821428D02*
X93073571Y-69821428D01*
X93673571Y-69621428D02*
X93359285Y-69821428D01*
X93673571Y-70021428D01*
X93073571Y-70221428D02*
X93673571Y-70221428D01*
X93073571Y-70564285D01*
X93673571Y-70564285D01*
X93130714Y-71192857D02*
X93102142Y-71164285D01*
X93073571Y-71078571D01*
X93073571Y-71021428D01*
X93102142Y-70935714D01*
X93159285Y-70878571D01*
X93216428Y-70850000D01*
X93330714Y-70821428D01*
X93416428Y-70821428D01*
X93530714Y-70850000D01*
X93587857Y-70878571D01*
X93645000Y-70935714D01*
X93673571Y-71021428D01*
X93673571Y-71078571D01*
X93645000Y-71164285D01*
X93616428Y-71192857D01*
D12*
X95244000Y-69659571D02*
X95279714Y-69588142D01*
X95279714Y-69481000D01*
X95244000Y-69373857D01*
X95172571Y-69302428D01*
X95101142Y-69266714D01*
X94958285Y-69231000D01*
X94851142Y-69231000D01*
X94708285Y-69266714D01*
X94636857Y-69302428D01*
X94565428Y-69373857D01*
X94529714Y-69481000D01*
X94529714Y-69552428D01*
X94565428Y-69659571D01*
X94601142Y-69695285D01*
X94851142Y-69695285D01*
X94851142Y-69552428D01*
X94529714Y-70016714D02*
X95279714Y-70016714D01*
X94529714Y-70445285D01*
X95279714Y-70445285D01*
X94529714Y-70802428D02*
X95279714Y-70802428D01*
X95279714Y-70981000D01*
X95244000Y-71088142D01*
X95172571Y-71159571D01*
X95101142Y-71195285D01*
X94958285Y-71231000D01*
X94851142Y-71231000D01*
X94708285Y-71195285D01*
X94636857Y-71159571D01*
X94565428Y-71088142D01*
X94529714Y-70981000D01*
X94529714Y-70802428D01*
X78813428Y-69139714D02*
X78813428Y-69711142D01*
X78527714Y-69425428D02*
X79099142Y-69425428D01*
X79277714Y-70425428D02*
X79277714Y-70068285D01*
X78920571Y-70032571D01*
X78956285Y-70068285D01*
X78992000Y-70139714D01*
X78992000Y-70318285D01*
X78956285Y-70389714D01*
X78920571Y-70425428D01*
X78849142Y-70461142D01*
X78670571Y-70461142D01*
X78599142Y-70425428D01*
X78563428Y-70389714D01*
X78527714Y-70318285D01*
X78527714Y-70139714D01*
X78563428Y-70068285D01*
X78599142Y-70032571D01*
X79277714Y-70675428D02*
X78527714Y-70925428D01*
X79277714Y-71175428D01*
D13*
X162052000Y-87503000D02*
G75*
G03*
X162052000Y-87503000I-127000J0D01*
G01*
D14*
X77597000Y-73025000D02*
G75*
G03*
X77597000Y-73025000I-127000J0D01*
G01*
X75755000Y-72390000D02*
X75755000Y-73789000D01*
X75755000Y-77251000D02*
X75755000Y-79375000D01*
X75755000Y-72390000D02*
X77964000Y-72390000D01*
X75755000Y-79375000D02*
X98235000Y-79375000D01*
X98235000Y-79375000D02*
X98235000Y-77251000D01*
X98235000Y-72390000D02*
X96026000Y-72390000D01*
X98235000Y-73789000D02*
X98235000Y-72390000D01*
D15*
X163255000Y-82026000D02*
G75*
G02*
X163255000Y-80026000I0J1000000D01*
G01*
X163255000Y-80026000D02*
X163255000Y-74566000D01*
X163255000Y-74566000D02*
X132655000Y-74566000D01*
X132655000Y-74566000D02*
X132655000Y-87486000D01*
X132655000Y-87486000D02*
X163255000Y-87486000D01*
X163255000Y-87486000D02*
X163255000Y-82026000D01*
X163315000Y-72076000D02*
X132595000Y-72076000D01*
X132595000Y-72076000D02*
X132595000Y-89976000D01*
X132595000Y-89976000D02*
X163315000Y-89976000D01*
X163315000Y-89976000D02*
X163315000Y-72076000D01*
X132835000Y-89976000D02*
X132835000Y-72076000D01*
X102115000Y-89976000D02*
X132835000Y-89976000D01*
X102115000Y-72076000D02*
X102115000Y-89976000D01*
X132835000Y-72076000D02*
X102115000Y-72076000D01*
X132775000Y-87486000D02*
X132775000Y-82026000D01*
X102175000Y-87486000D02*
X132775000Y-87486000D01*
X102175000Y-74566000D02*
X102175000Y-87486000D01*
X132775000Y-74566000D02*
X102175000Y-74566000D01*
X132775000Y-80026000D02*
X132775000Y-74566000D01*
X132775000Y-82026000D02*
G75*
G02*
X132775000Y-80026000I0J1000000D01*
G01*
D12*
X76091071Y-80591428D02*
X75841071Y-80591428D01*
X75841071Y-80984285D02*
X75841071Y-80234285D01*
X76198214Y-80234285D01*
X76733928Y-80591428D02*
X76483928Y-80591428D01*
X76483928Y-80984285D02*
X76483928Y-80234285D01*
X76841071Y-80234285D01*
X77555357Y-80912857D02*
X77519642Y-80948571D01*
X77412500Y-80984285D01*
X77341071Y-80984285D01*
X77233928Y-80948571D01*
X77162500Y-80877142D01*
X77126785Y-80805714D01*
X77091071Y-80662857D01*
X77091071Y-80555714D01*
X77126785Y-80412857D01*
X77162500Y-80341428D01*
X77233928Y-80270000D01*
X77341071Y-80234285D01*
X77412500Y-80234285D01*
X77519642Y-80270000D01*
X77555357Y-80305714D01*
X78269642Y-80984285D02*
X77841071Y-80984285D01*
X78055357Y-80984285D02*
X78055357Y-80234285D01*
X77983928Y-80341428D01*
X77912500Y-80412857D01*
X77841071Y-80448571D01*
X78698214Y-80555714D02*
X78626785Y-80520000D01*
X78591071Y-80484285D01*
X78555357Y-80412857D01*
X78555357Y-80377142D01*
X78591071Y-80305714D01*
X78626785Y-80270000D01*
X78698214Y-80234285D01*
X78841071Y-80234285D01*
X78912500Y-80270000D01*
X78948214Y-80305714D01*
X78983928Y-80377142D01*
X78983928Y-80412857D01*
X78948214Y-80484285D01*
X78912500Y-80520000D01*
X78841071Y-80555714D01*
X78698214Y-80555714D01*
X78626785Y-80591428D01*
X78591071Y-80627142D01*
X78555357Y-80698571D01*
X78555357Y-80841428D01*
X78591071Y-80912857D01*
X78626785Y-80948571D01*
X78698214Y-80984285D01*
X78841071Y-80984285D01*
X78912500Y-80948571D01*
X78948214Y-80912857D01*
X78983928Y-80841428D01*
X78983928Y-80698571D01*
X78948214Y-80627142D01*
X78912500Y-80591428D01*
X78841071Y-80555714D01*
M02*
