G04 #@! TF.GenerationSoftware,KiCad,Pcbnew,(5.1.9)-1*
G04 #@! TF.CreationDate,2021-11-07T21:08:52+00:00*
G04 #@! TF.ProjectId,RGBtoHDMI Amiga Denise DIP Breakout FFC - CDTV,52474274-6f48-4444-9d49-20416d696761,CDTV*
G04 #@! TF.SameCoordinates,Original*
G04 #@! TF.FileFunction,Copper,L2,Bot*
G04 #@! TF.FilePolarity,Positive*
%FSLAX46Y46*%
G04 Gerber Fmt 4.6, Leading zero omitted, Abs format (unit mm)*
G04 Created by KiCad (PCBNEW (5.1.9)-1) date 2021-11-07 21:08:52*
%MOMM*%
%LPD*%
G01*
G04 APERTURE LIST*
G04 #@! TA.AperFunction,ComponentPad*
%ADD10O,1.600000X1.600000*%
G04 #@! TD*
G04 #@! TA.AperFunction,ComponentPad*
%ADD11R,1.600000X1.600000*%
G04 #@! TD*
G04 #@! TA.AperFunction,ViaPad*
%ADD12C,0.800000*%
G04 #@! TD*
G04 #@! TA.AperFunction,Conductor*
%ADD13C,0.250000*%
G04 #@! TD*
G04 #@! TA.AperFunction,Conductor*
%ADD14C,0.254000*%
G04 #@! TD*
G04 #@! TA.AperFunction,Conductor*
%ADD15C,0.100000*%
G04 #@! TD*
G04 APERTURE END LIST*
D10*
X103505000Y-85725000D03*
X106045000Y-85725000D03*
X108585000Y-85725000D03*
X111125000Y-85725000D03*
X113665000Y-85725000D03*
X116205000Y-85725000D03*
X118745000Y-85725000D03*
X121285000Y-85725000D03*
X123825000Y-85725000D03*
X126365000Y-85725000D03*
X128905000Y-85725000D03*
D11*
X131445000Y-85725000D03*
D10*
X133985000Y-85725000D03*
X136525000Y-85725000D03*
X139065000Y-85725000D03*
X141605000Y-85725000D03*
X144145000Y-85725000D03*
X146685000Y-85725000D03*
X149225000Y-85725000D03*
X151765000Y-85725000D03*
X154305000Y-85725000D03*
X156845000Y-85725000D03*
X159385000Y-85725000D03*
D11*
X161925000Y-85725000D03*
D10*
X103505000Y-70485000D03*
X106045000Y-70485000D03*
X108585000Y-70485000D03*
X111125000Y-70485000D03*
X113665000Y-70485000D03*
X116205000Y-70485000D03*
X118745000Y-70485000D03*
X121285000Y-70485000D03*
X123825000Y-70485000D03*
X126365000Y-70485000D03*
X128905000Y-70485000D03*
X131445000Y-70485000D03*
X133985000Y-70485000D03*
X136525000Y-70485000D03*
X139065000Y-70485000D03*
X141605000Y-70485000D03*
X144145000Y-70485000D03*
X146685000Y-70485000D03*
X149225000Y-70485000D03*
X151765000Y-70485000D03*
X154305000Y-70485000D03*
X156845000Y-70485000D03*
X159385000Y-70485000D03*
D11*
X161925000Y-70485000D03*
D10*
X161925000Y-88646000D03*
X133985000Y-73406000D03*
X159385000Y-88646000D03*
X136525000Y-73406000D03*
X156845000Y-88646000D03*
X139065000Y-73406000D03*
X154305000Y-88646000D03*
X141605000Y-73406000D03*
X151765000Y-88646000D03*
X144145000Y-73406000D03*
X149225000Y-88646000D03*
X146685000Y-73406000D03*
X146685000Y-88646000D03*
X149225000Y-73406000D03*
X144145000Y-88646000D03*
X151765000Y-73406000D03*
X141605000Y-88646000D03*
X154305000Y-73406000D03*
X139065000Y-88646000D03*
X156845000Y-73406000D03*
X136525000Y-88646000D03*
X159385000Y-73406000D03*
X133985000Y-88646000D03*
D11*
X161925000Y-73406000D03*
X131445000Y-73406000D03*
D10*
X103505000Y-88646000D03*
X128905000Y-73406000D03*
X106045000Y-88646000D03*
X126365000Y-73406000D03*
X108585000Y-88646000D03*
X123825000Y-73406000D03*
X111125000Y-88646000D03*
X121285000Y-73406000D03*
X113665000Y-88646000D03*
X118745000Y-73406000D03*
X116205000Y-88646000D03*
X116205000Y-73406000D03*
X118745000Y-88646000D03*
X113665000Y-73406000D03*
X121285000Y-88646000D03*
X111125000Y-73406000D03*
X123825000Y-88646000D03*
X108585000Y-73406000D03*
X126365000Y-88646000D03*
X106045000Y-73406000D03*
X128905000Y-88646000D03*
X103505000Y-73406000D03*
X131445000Y-88646000D03*
D12*
X97536000Y-76327000D03*
X98933000Y-76327000D03*
X98933000Y-74676000D03*
X97536000Y-74676000D03*
X75057000Y-76454000D03*
X76454000Y-76454000D03*
X76454000Y-74549000D03*
X75057000Y-74549000D03*
X92456000Y-74676000D03*
X92456000Y-71247000D03*
X94996000Y-74676000D03*
X94996000Y-71374000D03*
X84455000Y-77724000D03*
X83566000Y-79121000D03*
X82550004Y-80645000D03*
X81534000Y-81788000D03*
X80518006Y-83312000D03*
D13*
X98806000Y-77724000D02*
X84455000Y-77724000D01*
X103505000Y-73025000D02*
X98806000Y-77724000D01*
X106045000Y-74803000D02*
X101727000Y-79121000D01*
X101727000Y-79121000D02*
X83566000Y-79121000D01*
X106045000Y-73025000D02*
X106045000Y-74803000D01*
X108585000Y-73025000D02*
X100965000Y-80645000D01*
X100965000Y-80645000D02*
X82550004Y-80645000D01*
X102362000Y-81788000D02*
X81534000Y-81788000D01*
X111125000Y-73025000D02*
X102362000Y-81788000D01*
X103378000Y-83312000D02*
X80518006Y-83312000D01*
X113665000Y-73025000D02*
X103378000Y-83312000D01*
D14*
X162688135Y-68440870D02*
X162811388Y-68478082D01*
X162925068Y-68538526D01*
X163024841Y-68619899D01*
X163106911Y-68719105D01*
X163168147Y-68832357D01*
X163206220Y-68955352D01*
X163222000Y-69105492D01*
X163222001Y-88876470D01*
X163207130Y-89028135D01*
X163169918Y-89151388D01*
X163109474Y-89265067D01*
X163028097Y-89364845D01*
X162928897Y-89446910D01*
X162815640Y-89508148D01*
X162696004Y-89545181D01*
X162842342Y-89398843D01*
X162971588Y-89205413D01*
X163060614Y-88990485D01*
X163106000Y-88762318D01*
X163106000Y-88529682D01*
X163060614Y-88301515D01*
X162971588Y-88086587D01*
X162842342Y-87893157D01*
X162677843Y-87728658D01*
X162484413Y-87599412D01*
X162269485Y-87510386D01*
X162041318Y-87465000D01*
X161808682Y-87465000D01*
X161580515Y-87510386D01*
X161365587Y-87599412D01*
X161172157Y-87728658D01*
X161007658Y-87893157D01*
X160878412Y-88086587D01*
X160789386Y-88301515D01*
X160744000Y-88529682D01*
X160744000Y-88762318D01*
X160789386Y-88990485D01*
X160878412Y-89205413D01*
X161007658Y-89398843D01*
X161170815Y-89562000D01*
X160139185Y-89562000D01*
X160302342Y-89398843D01*
X160431588Y-89205413D01*
X160520614Y-88990485D01*
X160566000Y-88762318D01*
X160566000Y-88529682D01*
X160520614Y-88301515D01*
X160431588Y-88086587D01*
X160302342Y-87893157D01*
X160137843Y-87728658D01*
X159944413Y-87599412D01*
X159729485Y-87510386D01*
X159501318Y-87465000D01*
X159268682Y-87465000D01*
X159040515Y-87510386D01*
X158825587Y-87599412D01*
X158632157Y-87728658D01*
X158467658Y-87893157D01*
X158338412Y-88086587D01*
X158249386Y-88301515D01*
X158204000Y-88529682D01*
X158204000Y-88762318D01*
X158249386Y-88990485D01*
X158338412Y-89205413D01*
X158467658Y-89398843D01*
X158630815Y-89562000D01*
X157599185Y-89562000D01*
X157762342Y-89398843D01*
X157891588Y-89205413D01*
X157980614Y-88990485D01*
X158026000Y-88762318D01*
X158026000Y-88529682D01*
X157980614Y-88301515D01*
X157891588Y-88086587D01*
X157762342Y-87893157D01*
X157597843Y-87728658D01*
X157404413Y-87599412D01*
X157189485Y-87510386D01*
X156961318Y-87465000D01*
X156728682Y-87465000D01*
X156500515Y-87510386D01*
X156285587Y-87599412D01*
X156092157Y-87728658D01*
X155927658Y-87893157D01*
X155798412Y-88086587D01*
X155709386Y-88301515D01*
X155664000Y-88529682D01*
X155664000Y-88762318D01*
X155709386Y-88990485D01*
X155798412Y-89205413D01*
X155927658Y-89398843D01*
X156090815Y-89562000D01*
X155059185Y-89562000D01*
X155222342Y-89398843D01*
X155351588Y-89205413D01*
X155440614Y-88990485D01*
X155486000Y-88762318D01*
X155486000Y-88529682D01*
X155440614Y-88301515D01*
X155351588Y-88086587D01*
X155222342Y-87893157D01*
X155057843Y-87728658D01*
X154864413Y-87599412D01*
X154649485Y-87510386D01*
X154421318Y-87465000D01*
X154188682Y-87465000D01*
X153960515Y-87510386D01*
X153745587Y-87599412D01*
X153552157Y-87728658D01*
X153387658Y-87893157D01*
X153258412Y-88086587D01*
X153169386Y-88301515D01*
X153124000Y-88529682D01*
X153124000Y-88762318D01*
X153169386Y-88990485D01*
X153258412Y-89205413D01*
X153387658Y-89398843D01*
X153550815Y-89562000D01*
X152519185Y-89562000D01*
X152682342Y-89398843D01*
X152811588Y-89205413D01*
X152900614Y-88990485D01*
X152946000Y-88762318D01*
X152946000Y-88529682D01*
X152900614Y-88301515D01*
X152811588Y-88086587D01*
X152682342Y-87893157D01*
X152517843Y-87728658D01*
X152324413Y-87599412D01*
X152109485Y-87510386D01*
X151881318Y-87465000D01*
X151648682Y-87465000D01*
X151420515Y-87510386D01*
X151205587Y-87599412D01*
X151012157Y-87728658D01*
X150847658Y-87893157D01*
X150718412Y-88086587D01*
X150629386Y-88301515D01*
X150584000Y-88529682D01*
X150584000Y-88762318D01*
X150629386Y-88990485D01*
X150718412Y-89205413D01*
X150847658Y-89398843D01*
X151010815Y-89562000D01*
X149979185Y-89562000D01*
X150142342Y-89398843D01*
X150271588Y-89205413D01*
X150360614Y-88990485D01*
X150406000Y-88762318D01*
X150406000Y-88529682D01*
X150360614Y-88301515D01*
X150271588Y-88086587D01*
X150142342Y-87893157D01*
X149977843Y-87728658D01*
X149784413Y-87599412D01*
X149569485Y-87510386D01*
X149341318Y-87465000D01*
X149108682Y-87465000D01*
X148880515Y-87510386D01*
X148665587Y-87599412D01*
X148472157Y-87728658D01*
X148307658Y-87893157D01*
X148178412Y-88086587D01*
X148089386Y-88301515D01*
X148044000Y-88529682D01*
X148044000Y-88762318D01*
X148089386Y-88990485D01*
X148178412Y-89205413D01*
X148307658Y-89398843D01*
X148470815Y-89562000D01*
X147439185Y-89562000D01*
X147602342Y-89398843D01*
X147731588Y-89205413D01*
X147820614Y-88990485D01*
X147866000Y-88762318D01*
X147866000Y-88529682D01*
X147820614Y-88301515D01*
X147731588Y-88086587D01*
X147602342Y-87893157D01*
X147437843Y-87728658D01*
X147244413Y-87599412D01*
X147029485Y-87510386D01*
X146801318Y-87465000D01*
X146568682Y-87465000D01*
X146340515Y-87510386D01*
X146125587Y-87599412D01*
X145932157Y-87728658D01*
X145767658Y-87893157D01*
X145638412Y-88086587D01*
X145549386Y-88301515D01*
X145504000Y-88529682D01*
X145504000Y-88762318D01*
X145549386Y-88990485D01*
X145638412Y-89205413D01*
X145767658Y-89398843D01*
X145930815Y-89562000D01*
X144899185Y-89562000D01*
X145062342Y-89398843D01*
X145191588Y-89205413D01*
X145280614Y-88990485D01*
X145326000Y-88762318D01*
X145326000Y-88529682D01*
X145280614Y-88301515D01*
X145191588Y-88086587D01*
X145062342Y-87893157D01*
X144897843Y-87728658D01*
X144704413Y-87599412D01*
X144489485Y-87510386D01*
X144261318Y-87465000D01*
X144028682Y-87465000D01*
X143800515Y-87510386D01*
X143585587Y-87599412D01*
X143392157Y-87728658D01*
X143227658Y-87893157D01*
X143098412Y-88086587D01*
X143009386Y-88301515D01*
X142964000Y-88529682D01*
X142964000Y-88762318D01*
X143009386Y-88990485D01*
X143098412Y-89205413D01*
X143227658Y-89398843D01*
X143390815Y-89562000D01*
X142359185Y-89562000D01*
X142522342Y-89398843D01*
X142651588Y-89205413D01*
X142740614Y-88990485D01*
X142786000Y-88762318D01*
X142786000Y-88529682D01*
X142740614Y-88301515D01*
X142651588Y-88086587D01*
X142522342Y-87893157D01*
X142357843Y-87728658D01*
X142164413Y-87599412D01*
X141949485Y-87510386D01*
X141721318Y-87465000D01*
X141488682Y-87465000D01*
X141260515Y-87510386D01*
X141045587Y-87599412D01*
X140852157Y-87728658D01*
X140687658Y-87893157D01*
X140558412Y-88086587D01*
X140469386Y-88301515D01*
X140424000Y-88529682D01*
X140424000Y-88762318D01*
X140469386Y-88990485D01*
X140558412Y-89205413D01*
X140687658Y-89398843D01*
X140850815Y-89562000D01*
X139819185Y-89562000D01*
X139982342Y-89398843D01*
X140111588Y-89205413D01*
X140200614Y-88990485D01*
X140246000Y-88762318D01*
X140246000Y-88529682D01*
X140200614Y-88301515D01*
X140111588Y-88086587D01*
X139982342Y-87893157D01*
X139817843Y-87728658D01*
X139624413Y-87599412D01*
X139409485Y-87510386D01*
X139181318Y-87465000D01*
X138948682Y-87465000D01*
X138720515Y-87510386D01*
X138505587Y-87599412D01*
X138312157Y-87728658D01*
X138147658Y-87893157D01*
X138018412Y-88086587D01*
X137929386Y-88301515D01*
X137884000Y-88529682D01*
X137884000Y-88762318D01*
X137929386Y-88990485D01*
X138018412Y-89205413D01*
X138147658Y-89398843D01*
X138310815Y-89562000D01*
X137279185Y-89562000D01*
X137442342Y-89398843D01*
X137571588Y-89205413D01*
X137660614Y-88990485D01*
X137706000Y-88762318D01*
X137706000Y-88529682D01*
X137660614Y-88301515D01*
X137571588Y-88086587D01*
X137442342Y-87893157D01*
X137277843Y-87728658D01*
X137084413Y-87599412D01*
X136869485Y-87510386D01*
X136641318Y-87465000D01*
X136408682Y-87465000D01*
X136180515Y-87510386D01*
X135965587Y-87599412D01*
X135772157Y-87728658D01*
X135607658Y-87893157D01*
X135478412Y-88086587D01*
X135389386Y-88301515D01*
X135344000Y-88529682D01*
X135344000Y-88762318D01*
X135389386Y-88990485D01*
X135478412Y-89205413D01*
X135607658Y-89398843D01*
X135770815Y-89562000D01*
X134724878Y-89562000D01*
X134761003Y-89536278D01*
X134919777Y-89367781D01*
X135042628Y-89171546D01*
X135124835Y-88955115D01*
X135063908Y-88773000D01*
X134112000Y-88773000D01*
X134112000Y-88793000D01*
X133858000Y-88793000D01*
X133858000Y-88773000D01*
X132906092Y-88773000D01*
X132845165Y-88955115D01*
X132927372Y-89171546D01*
X133050223Y-89367781D01*
X133208997Y-89536278D01*
X133245122Y-89562000D01*
X132199185Y-89562000D01*
X132362342Y-89398843D01*
X132491588Y-89205413D01*
X132580614Y-88990485D01*
X132626000Y-88762318D01*
X132626000Y-88529682D01*
X132587650Y-88336885D01*
X132845165Y-88336885D01*
X132906092Y-88519000D01*
X133858000Y-88519000D01*
X133858000Y-87567703D01*
X134112000Y-87567703D01*
X134112000Y-88519000D01*
X135063908Y-88519000D01*
X135124835Y-88336885D01*
X135042628Y-88120454D01*
X134919777Y-87924219D01*
X134761003Y-87755722D01*
X134572408Y-87621438D01*
X134361239Y-87526527D01*
X134294114Y-87506171D01*
X134112000Y-87567703D01*
X133858000Y-87567703D01*
X133675886Y-87506171D01*
X133608761Y-87526527D01*
X133397592Y-87621438D01*
X133208997Y-87755722D01*
X133050223Y-87924219D01*
X132927372Y-88120454D01*
X132845165Y-88336885D01*
X132587650Y-88336885D01*
X132580614Y-88301515D01*
X132491588Y-88086587D01*
X132362342Y-87893157D01*
X132197843Y-87728658D01*
X132004413Y-87599412D01*
X131789485Y-87510386D01*
X131561318Y-87465000D01*
X131328682Y-87465000D01*
X131100515Y-87510386D01*
X130885587Y-87599412D01*
X130692157Y-87728658D01*
X130527658Y-87893157D01*
X130398412Y-88086587D01*
X130309386Y-88301515D01*
X130264000Y-88529682D01*
X130264000Y-88762318D01*
X130309386Y-88990485D01*
X130398412Y-89205413D01*
X130527658Y-89398843D01*
X130690815Y-89562000D01*
X129659185Y-89562000D01*
X129822342Y-89398843D01*
X129951588Y-89205413D01*
X130040614Y-88990485D01*
X130086000Y-88762318D01*
X130086000Y-88529682D01*
X130040614Y-88301515D01*
X129951588Y-88086587D01*
X129822342Y-87893157D01*
X129657843Y-87728658D01*
X129464413Y-87599412D01*
X129249485Y-87510386D01*
X129021318Y-87465000D01*
X128788682Y-87465000D01*
X128560515Y-87510386D01*
X128345587Y-87599412D01*
X128152157Y-87728658D01*
X127987658Y-87893157D01*
X127858412Y-88086587D01*
X127769386Y-88301515D01*
X127724000Y-88529682D01*
X127724000Y-88762318D01*
X127769386Y-88990485D01*
X127858412Y-89205413D01*
X127987658Y-89398843D01*
X128150815Y-89562000D01*
X127119185Y-89562000D01*
X127282342Y-89398843D01*
X127411588Y-89205413D01*
X127500614Y-88990485D01*
X127546000Y-88762318D01*
X127546000Y-88529682D01*
X127500614Y-88301515D01*
X127411588Y-88086587D01*
X127282342Y-87893157D01*
X127117843Y-87728658D01*
X126924413Y-87599412D01*
X126709485Y-87510386D01*
X126481318Y-87465000D01*
X126248682Y-87465000D01*
X126020515Y-87510386D01*
X125805587Y-87599412D01*
X125612157Y-87728658D01*
X125447658Y-87893157D01*
X125318412Y-88086587D01*
X125229386Y-88301515D01*
X125184000Y-88529682D01*
X125184000Y-88762318D01*
X125229386Y-88990485D01*
X125318412Y-89205413D01*
X125447658Y-89398843D01*
X125610815Y-89562000D01*
X124579185Y-89562000D01*
X124742342Y-89398843D01*
X124871588Y-89205413D01*
X124960614Y-88990485D01*
X125006000Y-88762318D01*
X125006000Y-88529682D01*
X124960614Y-88301515D01*
X124871588Y-88086587D01*
X124742342Y-87893157D01*
X124577843Y-87728658D01*
X124384413Y-87599412D01*
X124169485Y-87510386D01*
X123941318Y-87465000D01*
X123708682Y-87465000D01*
X123480515Y-87510386D01*
X123265587Y-87599412D01*
X123072157Y-87728658D01*
X122907658Y-87893157D01*
X122778412Y-88086587D01*
X122689386Y-88301515D01*
X122644000Y-88529682D01*
X122644000Y-88762318D01*
X122689386Y-88990485D01*
X122778412Y-89205413D01*
X122907658Y-89398843D01*
X123070815Y-89562000D01*
X122039185Y-89562000D01*
X122202342Y-89398843D01*
X122331588Y-89205413D01*
X122420614Y-88990485D01*
X122466000Y-88762318D01*
X122466000Y-88529682D01*
X122420614Y-88301515D01*
X122331588Y-88086587D01*
X122202342Y-87893157D01*
X122037843Y-87728658D01*
X121844413Y-87599412D01*
X121629485Y-87510386D01*
X121401318Y-87465000D01*
X121168682Y-87465000D01*
X120940515Y-87510386D01*
X120725587Y-87599412D01*
X120532157Y-87728658D01*
X120367658Y-87893157D01*
X120238412Y-88086587D01*
X120149386Y-88301515D01*
X120104000Y-88529682D01*
X120104000Y-88762318D01*
X120149386Y-88990485D01*
X120238412Y-89205413D01*
X120367658Y-89398843D01*
X120530815Y-89562000D01*
X119499185Y-89562000D01*
X119662342Y-89398843D01*
X119791588Y-89205413D01*
X119880614Y-88990485D01*
X119926000Y-88762318D01*
X119926000Y-88529682D01*
X119880614Y-88301515D01*
X119791588Y-88086587D01*
X119662342Y-87893157D01*
X119497843Y-87728658D01*
X119304413Y-87599412D01*
X119089485Y-87510386D01*
X118861318Y-87465000D01*
X118628682Y-87465000D01*
X118400515Y-87510386D01*
X118185587Y-87599412D01*
X117992157Y-87728658D01*
X117827658Y-87893157D01*
X117698412Y-88086587D01*
X117609386Y-88301515D01*
X117564000Y-88529682D01*
X117564000Y-88762318D01*
X117609386Y-88990485D01*
X117698412Y-89205413D01*
X117827658Y-89398843D01*
X117990815Y-89562000D01*
X116959185Y-89562000D01*
X117122342Y-89398843D01*
X117251588Y-89205413D01*
X117340614Y-88990485D01*
X117386000Y-88762318D01*
X117386000Y-88529682D01*
X117340614Y-88301515D01*
X117251588Y-88086587D01*
X117122342Y-87893157D01*
X116957843Y-87728658D01*
X116764413Y-87599412D01*
X116549485Y-87510386D01*
X116321318Y-87465000D01*
X116088682Y-87465000D01*
X115860515Y-87510386D01*
X115645587Y-87599412D01*
X115452157Y-87728658D01*
X115287658Y-87893157D01*
X115158412Y-88086587D01*
X115069386Y-88301515D01*
X115024000Y-88529682D01*
X115024000Y-88762318D01*
X115069386Y-88990485D01*
X115158412Y-89205413D01*
X115287658Y-89398843D01*
X115450815Y-89562000D01*
X114419185Y-89562000D01*
X114582342Y-89398843D01*
X114711588Y-89205413D01*
X114800614Y-88990485D01*
X114846000Y-88762318D01*
X114846000Y-88529682D01*
X114800614Y-88301515D01*
X114711588Y-88086587D01*
X114582342Y-87893157D01*
X114417843Y-87728658D01*
X114224413Y-87599412D01*
X114009485Y-87510386D01*
X113781318Y-87465000D01*
X113548682Y-87465000D01*
X113320515Y-87510386D01*
X113105587Y-87599412D01*
X112912157Y-87728658D01*
X112747658Y-87893157D01*
X112618412Y-88086587D01*
X112529386Y-88301515D01*
X112484000Y-88529682D01*
X112484000Y-88762318D01*
X112529386Y-88990485D01*
X112618412Y-89205413D01*
X112747658Y-89398843D01*
X112910815Y-89562000D01*
X111879185Y-89562000D01*
X112042342Y-89398843D01*
X112171588Y-89205413D01*
X112260614Y-88990485D01*
X112306000Y-88762318D01*
X112306000Y-88529682D01*
X112260614Y-88301515D01*
X112171588Y-88086587D01*
X112042342Y-87893157D01*
X111877843Y-87728658D01*
X111684413Y-87599412D01*
X111469485Y-87510386D01*
X111241318Y-87465000D01*
X111008682Y-87465000D01*
X110780515Y-87510386D01*
X110565587Y-87599412D01*
X110372157Y-87728658D01*
X110207658Y-87893157D01*
X110078412Y-88086587D01*
X109989386Y-88301515D01*
X109944000Y-88529682D01*
X109944000Y-88762318D01*
X109989386Y-88990485D01*
X110078412Y-89205413D01*
X110207658Y-89398843D01*
X110370815Y-89562000D01*
X109339185Y-89562000D01*
X109502342Y-89398843D01*
X109631588Y-89205413D01*
X109720614Y-88990485D01*
X109766000Y-88762318D01*
X109766000Y-88529682D01*
X109720614Y-88301515D01*
X109631588Y-88086587D01*
X109502342Y-87893157D01*
X109337843Y-87728658D01*
X109144413Y-87599412D01*
X108929485Y-87510386D01*
X108701318Y-87465000D01*
X108468682Y-87465000D01*
X108240515Y-87510386D01*
X108025587Y-87599412D01*
X107832157Y-87728658D01*
X107667658Y-87893157D01*
X107538412Y-88086587D01*
X107449386Y-88301515D01*
X107404000Y-88529682D01*
X107404000Y-88762318D01*
X107449386Y-88990485D01*
X107538412Y-89205413D01*
X107667658Y-89398843D01*
X107830815Y-89562000D01*
X106799185Y-89562000D01*
X106962342Y-89398843D01*
X107091588Y-89205413D01*
X107180614Y-88990485D01*
X107226000Y-88762318D01*
X107226000Y-88529682D01*
X107180614Y-88301515D01*
X107091588Y-88086587D01*
X106962342Y-87893157D01*
X106797843Y-87728658D01*
X106604413Y-87599412D01*
X106389485Y-87510386D01*
X106161318Y-87465000D01*
X105928682Y-87465000D01*
X105700515Y-87510386D01*
X105485587Y-87599412D01*
X105292157Y-87728658D01*
X105127658Y-87893157D01*
X104998412Y-88086587D01*
X104909386Y-88301515D01*
X104864000Y-88529682D01*
X104864000Y-88762318D01*
X104909386Y-88990485D01*
X104998412Y-89205413D01*
X105127658Y-89398843D01*
X105290815Y-89562000D01*
X104259185Y-89562000D01*
X104422342Y-89398843D01*
X104551588Y-89205413D01*
X104640614Y-88990485D01*
X104686000Y-88762318D01*
X104686000Y-88529682D01*
X104640614Y-88301515D01*
X104551588Y-88086587D01*
X104422342Y-87893157D01*
X104257843Y-87728658D01*
X104064413Y-87599412D01*
X103849485Y-87510386D01*
X103621318Y-87465000D01*
X103388682Y-87465000D01*
X103160515Y-87510386D01*
X102945587Y-87599412D01*
X102752157Y-87728658D01*
X102587658Y-87893157D01*
X102458412Y-88086587D01*
X102369386Y-88301515D01*
X102324000Y-88529682D01*
X102324000Y-88762318D01*
X102369386Y-88990485D01*
X102458412Y-89205413D01*
X102587658Y-89398843D01*
X102750815Y-89562000D01*
X75461520Y-89562000D01*
X75309865Y-89547130D01*
X75186612Y-89509918D01*
X75072933Y-89449474D01*
X74973155Y-89368097D01*
X74891090Y-89268897D01*
X74829852Y-89155640D01*
X74791780Y-89032648D01*
X74776000Y-88882508D01*
X74776000Y-85608682D01*
X102324000Y-85608682D01*
X102324000Y-85841318D01*
X102369386Y-86069485D01*
X102458412Y-86284413D01*
X102587658Y-86477843D01*
X102752157Y-86642342D01*
X102945587Y-86771588D01*
X103160515Y-86860614D01*
X103388682Y-86906000D01*
X103621318Y-86906000D01*
X103849485Y-86860614D01*
X104064413Y-86771588D01*
X104257843Y-86642342D01*
X104422342Y-86477843D01*
X104551588Y-86284413D01*
X104640614Y-86069485D01*
X104686000Y-85841318D01*
X104686000Y-85608682D01*
X104864000Y-85608682D01*
X104864000Y-85841318D01*
X104909386Y-86069485D01*
X104998412Y-86284413D01*
X105127658Y-86477843D01*
X105292157Y-86642342D01*
X105485587Y-86771588D01*
X105700515Y-86860614D01*
X105928682Y-86906000D01*
X106161318Y-86906000D01*
X106389485Y-86860614D01*
X106604413Y-86771588D01*
X106797843Y-86642342D01*
X106962342Y-86477843D01*
X107091588Y-86284413D01*
X107180614Y-86069485D01*
X107226000Y-85841318D01*
X107226000Y-85608682D01*
X107404000Y-85608682D01*
X107404000Y-85841318D01*
X107449386Y-86069485D01*
X107538412Y-86284413D01*
X107667658Y-86477843D01*
X107832157Y-86642342D01*
X108025587Y-86771588D01*
X108240515Y-86860614D01*
X108468682Y-86906000D01*
X108701318Y-86906000D01*
X108929485Y-86860614D01*
X109144413Y-86771588D01*
X109337843Y-86642342D01*
X109502342Y-86477843D01*
X109631588Y-86284413D01*
X109720614Y-86069485D01*
X109766000Y-85841318D01*
X109766000Y-85608682D01*
X109944000Y-85608682D01*
X109944000Y-85841318D01*
X109989386Y-86069485D01*
X110078412Y-86284413D01*
X110207658Y-86477843D01*
X110372157Y-86642342D01*
X110565587Y-86771588D01*
X110780515Y-86860614D01*
X111008682Y-86906000D01*
X111241318Y-86906000D01*
X111469485Y-86860614D01*
X111684413Y-86771588D01*
X111877843Y-86642342D01*
X112042342Y-86477843D01*
X112171588Y-86284413D01*
X112260614Y-86069485D01*
X112306000Y-85841318D01*
X112306000Y-85608682D01*
X112484000Y-85608682D01*
X112484000Y-85841318D01*
X112529386Y-86069485D01*
X112618412Y-86284413D01*
X112747658Y-86477843D01*
X112912157Y-86642342D01*
X113105587Y-86771588D01*
X113320515Y-86860614D01*
X113548682Y-86906000D01*
X113781318Y-86906000D01*
X114009485Y-86860614D01*
X114224413Y-86771588D01*
X114417843Y-86642342D01*
X114582342Y-86477843D01*
X114711588Y-86284413D01*
X114800614Y-86069485D01*
X114846000Y-85841318D01*
X114846000Y-85608682D01*
X115024000Y-85608682D01*
X115024000Y-85841318D01*
X115069386Y-86069485D01*
X115158412Y-86284413D01*
X115287658Y-86477843D01*
X115452157Y-86642342D01*
X115645587Y-86771588D01*
X115860515Y-86860614D01*
X116088682Y-86906000D01*
X116321318Y-86906000D01*
X116549485Y-86860614D01*
X116764413Y-86771588D01*
X116957843Y-86642342D01*
X117122342Y-86477843D01*
X117251588Y-86284413D01*
X117340614Y-86069485D01*
X117386000Y-85841318D01*
X117386000Y-85608682D01*
X117564000Y-85608682D01*
X117564000Y-85841318D01*
X117609386Y-86069485D01*
X117698412Y-86284413D01*
X117827658Y-86477843D01*
X117992157Y-86642342D01*
X118185587Y-86771588D01*
X118400515Y-86860614D01*
X118628682Y-86906000D01*
X118861318Y-86906000D01*
X119089485Y-86860614D01*
X119304413Y-86771588D01*
X119497843Y-86642342D01*
X119662342Y-86477843D01*
X119791588Y-86284413D01*
X119880614Y-86069485D01*
X119926000Y-85841318D01*
X119926000Y-85608682D01*
X120104000Y-85608682D01*
X120104000Y-85841318D01*
X120149386Y-86069485D01*
X120238412Y-86284413D01*
X120367658Y-86477843D01*
X120532157Y-86642342D01*
X120725587Y-86771588D01*
X120940515Y-86860614D01*
X121168682Y-86906000D01*
X121401318Y-86906000D01*
X121629485Y-86860614D01*
X121844413Y-86771588D01*
X122037843Y-86642342D01*
X122202342Y-86477843D01*
X122331588Y-86284413D01*
X122420614Y-86069485D01*
X122466000Y-85841318D01*
X122466000Y-85608682D01*
X122644000Y-85608682D01*
X122644000Y-85841318D01*
X122689386Y-86069485D01*
X122778412Y-86284413D01*
X122907658Y-86477843D01*
X123072157Y-86642342D01*
X123265587Y-86771588D01*
X123480515Y-86860614D01*
X123708682Y-86906000D01*
X123941318Y-86906000D01*
X124169485Y-86860614D01*
X124384413Y-86771588D01*
X124577843Y-86642342D01*
X124742342Y-86477843D01*
X124871588Y-86284413D01*
X124960614Y-86069485D01*
X125006000Y-85841318D01*
X125006000Y-85608682D01*
X125184000Y-85608682D01*
X125184000Y-85841318D01*
X125229386Y-86069485D01*
X125318412Y-86284413D01*
X125447658Y-86477843D01*
X125612157Y-86642342D01*
X125805587Y-86771588D01*
X126020515Y-86860614D01*
X126248682Y-86906000D01*
X126481318Y-86906000D01*
X126709485Y-86860614D01*
X126924413Y-86771588D01*
X127117843Y-86642342D01*
X127282342Y-86477843D01*
X127411588Y-86284413D01*
X127500614Y-86069485D01*
X127546000Y-85841318D01*
X127546000Y-85608682D01*
X127724000Y-85608682D01*
X127724000Y-85841318D01*
X127769386Y-86069485D01*
X127858412Y-86284413D01*
X127987658Y-86477843D01*
X128152157Y-86642342D01*
X128345587Y-86771588D01*
X128560515Y-86860614D01*
X128788682Y-86906000D01*
X129021318Y-86906000D01*
X129249485Y-86860614D01*
X129464413Y-86771588D01*
X129657843Y-86642342D01*
X129822342Y-86477843D01*
X129951588Y-86284413D01*
X130040614Y-86069485D01*
X130086000Y-85841318D01*
X130086000Y-85608682D01*
X130040614Y-85380515D01*
X129951588Y-85165587D01*
X129822342Y-84972157D01*
X129775185Y-84925000D01*
X130262157Y-84925000D01*
X130262157Y-86525000D01*
X130269513Y-86599689D01*
X130291299Y-86671508D01*
X130326678Y-86737696D01*
X130374289Y-86795711D01*
X130432304Y-86843322D01*
X130498492Y-86878701D01*
X130570311Y-86900487D01*
X130645000Y-86907843D01*
X132245000Y-86907843D01*
X132319689Y-86900487D01*
X132391508Y-86878701D01*
X132457696Y-86843322D01*
X132515711Y-86795711D01*
X132563322Y-86737696D01*
X132598701Y-86671508D01*
X132620487Y-86599689D01*
X132627843Y-86525000D01*
X132627843Y-86034115D01*
X132845165Y-86034115D01*
X132927372Y-86250546D01*
X133050223Y-86446781D01*
X133208997Y-86615278D01*
X133397592Y-86749562D01*
X133608761Y-86844473D01*
X133675886Y-86864829D01*
X133858000Y-86803297D01*
X133858000Y-85852000D01*
X134112000Y-85852000D01*
X134112000Y-86803297D01*
X134294114Y-86864829D01*
X134361239Y-86844473D01*
X134572408Y-86749562D01*
X134761003Y-86615278D01*
X134919777Y-86446781D01*
X135042628Y-86250546D01*
X135124835Y-86034115D01*
X135063908Y-85852000D01*
X134112000Y-85852000D01*
X133858000Y-85852000D01*
X132906092Y-85852000D01*
X132845165Y-86034115D01*
X132627843Y-86034115D01*
X132627843Y-85608682D01*
X135344000Y-85608682D01*
X135344000Y-85841318D01*
X135389386Y-86069485D01*
X135478412Y-86284413D01*
X135607658Y-86477843D01*
X135772157Y-86642342D01*
X135965587Y-86771588D01*
X136180515Y-86860614D01*
X136408682Y-86906000D01*
X136641318Y-86906000D01*
X136869485Y-86860614D01*
X137084413Y-86771588D01*
X137277843Y-86642342D01*
X137442342Y-86477843D01*
X137571588Y-86284413D01*
X137660614Y-86069485D01*
X137706000Y-85841318D01*
X137706000Y-85608682D01*
X137884000Y-85608682D01*
X137884000Y-85841318D01*
X137929386Y-86069485D01*
X138018412Y-86284413D01*
X138147658Y-86477843D01*
X138312157Y-86642342D01*
X138505587Y-86771588D01*
X138720515Y-86860614D01*
X138948682Y-86906000D01*
X139181318Y-86906000D01*
X139409485Y-86860614D01*
X139624413Y-86771588D01*
X139817843Y-86642342D01*
X139982342Y-86477843D01*
X140111588Y-86284413D01*
X140200614Y-86069485D01*
X140246000Y-85841318D01*
X140246000Y-85608682D01*
X140424000Y-85608682D01*
X140424000Y-85841318D01*
X140469386Y-86069485D01*
X140558412Y-86284413D01*
X140687658Y-86477843D01*
X140852157Y-86642342D01*
X141045587Y-86771588D01*
X141260515Y-86860614D01*
X141488682Y-86906000D01*
X141721318Y-86906000D01*
X141949485Y-86860614D01*
X142164413Y-86771588D01*
X142357843Y-86642342D01*
X142522342Y-86477843D01*
X142651588Y-86284413D01*
X142740614Y-86069485D01*
X142786000Y-85841318D01*
X142786000Y-85608682D01*
X142964000Y-85608682D01*
X142964000Y-85841318D01*
X143009386Y-86069485D01*
X143098412Y-86284413D01*
X143227658Y-86477843D01*
X143392157Y-86642342D01*
X143585587Y-86771588D01*
X143800515Y-86860614D01*
X144028682Y-86906000D01*
X144261318Y-86906000D01*
X144489485Y-86860614D01*
X144704413Y-86771588D01*
X144897843Y-86642342D01*
X145062342Y-86477843D01*
X145191588Y-86284413D01*
X145280614Y-86069485D01*
X145326000Y-85841318D01*
X145326000Y-85608682D01*
X145504000Y-85608682D01*
X145504000Y-85841318D01*
X145549386Y-86069485D01*
X145638412Y-86284413D01*
X145767658Y-86477843D01*
X145932157Y-86642342D01*
X146125587Y-86771588D01*
X146340515Y-86860614D01*
X146568682Y-86906000D01*
X146801318Y-86906000D01*
X147029485Y-86860614D01*
X147244413Y-86771588D01*
X147437843Y-86642342D01*
X147602342Y-86477843D01*
X147731588Y-86284413D01*
X147820614Y-86069485D01*
X147866000Y-85841318D01*
X147866000Y-85608682D01*
X148044000Y-85608682D01*
X148044000Y-85841318D01*
X148089386Y-86069485D01*
X148178412Y-86284413D01*
X148307658Y-86477843D01*
X148472157Y-86642342D01*
X148665587Y-86771588D01*
X148880515Y-86860614D01*
X149108682Y-86906000D01*
X149341318Y-86906000D01*
X149569485Y-86860614D01*
X149784413Y-86771588D01*
X149977843Y-86642342D01*
X150142342Y-86477843D01*
X150271588Y-86284413D01*
X150360614Y-86069485D01*
X150406000Y-85841318D01*
X150406000Y-85608682D01*
X150584000Y-85608682D01*
X150584000Y-85841318D01*
X150629386Y-86069485D01*
X150718412Y-86284413D01*
X150847658Y-86477843D01*
X151012157Y-86642342D01*
X151205587Y-86771588D01*
X151420515Y-86860614D01*
X151648682Y-86906000D01*
X151881318Y-86906000D01*
X152109485Y-86860614D01*
X152324413Y-86771588D01*
X152517843Y-86642342D01*
X152682342Y-86477843D01*
X152811588Y-86284413D01*
X152900614Y-86069485D01*
X152946000Y-85841318D01*
X152946000Y-85608682D01*
X153124000Y-85608682D01*
X153124000Y-85841318D01*
X153169386Y-86069485D01*
X153258412Y-86284413D01*
X153387658Y-86477843D01*
X153552157Y-86642342D01*
X153745587Y-86771588D01*
X153960515Y-86860614D01*
X154188682Y-86906000D01*
X154421318Y-86906000D01*
X154649485Y-86860614D01*
X154864413Y-86771588D01*
X155057843Y-86642342D01*
X155222342Y-86477843D01*
X155351588Y-86284413D01*
X155440614Y-86069485D01*
X155486000Y-85841318D01*
X155486000Y-85608682D01*
X155664000Y-85608682D01*
X155664000Y-85841318D01*
X155709386Y-86069485D01*
X155798412Y-86284413D01*
X155927658Y-86477843D01*
X156092157Y-86642342D01*
X156285587Y-86771588D01*
X156500515Y-86860614D01*
X156728682Y-86906000D01*
X156961318Y-86906000D01*
X157189485Y-86860614D01*
X157404413Y-86771588D01*
X157597843Y-86642342D01*
X157762342Y-86477843D01*
X157891588Y-86284413D01*
X157980614Y-86069485D01*
X158026000Y-85841318D01*
X158026000Y-85608682D01*
X158204000Y-85608682D01*
X158204000Y-85841318D01*
X158249386Y-86069485D01*
X158338412Y-86284413D01*
X158467658Y-86477843D01*
X158632157Y-86642342D01*
X158825587Y-86771588D01*
X159040515Y-86860614D01*
X159268682Y-86906000D01*
X159501318Y-86906000D01*
X159729485Y-86860614D01*
X159944413Y-86771588D01*
X160137843Y-86642342D01*
X160302342Y-86477843D01*
X160431588Y-86284413D01*
X160520614Y-86069485D01*
X160566000Y-85841318D01*
X160566000Y-85608682D01*
X160520614Y-85380515D01*
X160431588Y-85165587D01*
X160302342Y-84972157D01*
X160255185Y-84925000D01*
X160742157Y-84925000D01*
X160742157Y-86525000D01*
X160749513Y-86599689D01*
X160771299Y-86671508D01*
X160806678Y-86737696D01*
X160854289Y-86795711D01*
X160912304Y-86843322D01*
X160978492Y-86878701D01*
X161050311Y-86900487D01*
X161125000Y-86907843D01*
X162725000Y-86907843D01*
X162799689Y-86900487D01*
X162871508Y-86878701D01*
X162937696Y-86843322D01*
X162995711Y-86795711D01*
X163043322Y-86737696D01*
X163078701Y-86671508D01*
X163100487Y-86599689D01*
X163107843Y-86525000D01*
X163107843Y-84925000D01*
X163100487Y-84850311D01*
X163078701Y-84778492D01*
X163043322Y-84712304D01*
X162995711Y-84654289D01*
X162937696Y-84606678D01*
X162871508Y-84571299D01*
X162799689Y-84549513D01*
X162725000Y-84542157D01*
X161125000Y-84542157D01*
X161050311Y-84549513D01*
X160978492Y-84571299D01*
X160912304Y-84606678D01*
X160854289Y-84654289D01*
X160806678Y-84712304D01*
X160771299Y-84778492D01*
X160749513Y-84850311D01*
X160742157Y-84925000D01*
X160255185Y-84925000D01*
X160137843Y-84807658D01*
X159944413Y-84678412D01*
X159729485Y-84589386D01*
X159501318Y-84544000D01*
X159268682Y-84544000D01*
X159040515Y-84589386D01*
X158825587Y-84678412D01*
X158632157Y-84807658D01*
X158467658Y-84972157D01*
X158338412Y-85165587D01*
X158249386Y-85380515D01*
X158204000Y-85608682D01*
X158026000Y-85608682D01*
X157980614Y-85380515D01*
X157891588Y-85165587D01*
X157762342Y-84972157D01*
X157597843Y-84807658D01*
X157404413Y-84678412D01*
X157189485Y-84589386D01*
X156961318Y-84544000D01*
X156728682Y-84544000D01*
X156500515Y-84589386D01*
X156285587Y-84678412D01*
X156092157Y-84807658D01*
X155927658Y-84972157D01*
X155798412Y-85165587D01*
X155709386Y-85380515D01*
X155664000Y-85608682D01*
X155486000Y-85608682D01*
X155440614Y-85380515D01*
X155351588Y-85165587D01*
X155222342Y-84972157D01*
X155057843Y-84807658D01*
X154864413Y-84678412D01*
X154649485Y-84589386D01*
X154421318Y-84544000D01*
X154188682Y-84544000D01*
X153960515Y-84589386D01*
X153745587Y-84678412D01*
X153552157Y-84807658D01*
X153387658Y-84972157D01*
X153258412Y-85165587D01*
X153169386Y-85380515D01*
X153124000Y-85608682D01*
X152946000Y-85608682D01*
X152900614Y-85380515D01*
X152811588Y-85165587D01*
X152682342Y-84972157D01*
X152517843Y-84807658D01*
X152324413Y-84678412D01*
X152109485Y-84589386D01*
X151881318Y-84544000D01*
X151648682Y-84544000D01*
X151420515Y-84589386D01*
X151205587Y-84678412D01*
X151012157Y-84807658D01*
X150847658Y-84972157D01*
X150718412Y-85165587D01*
X150629386Y-85380515D01*
X150584000Y-85608682D01*
X150406000Y-85608682D01*
X150360614Y-85380515D01*
X150271588Y-85165587D01*
X150142342Y-84972157D01*
X149977843Y-84807658D01*
X149784413Y-84678412D01*
X149569485Y-84589386D01*
X149341318Y-84544000D01*
X149108682Y-84544000D01*
X148880515Y-84589386D01*
X148665587Y-84678412D01*
X148472157Y-84807658D01*
X148307658Y-84972157D01*
X148178412Y-85165587D01*
X148089386Y-85380515D01*
X148044000Y-85608682D01*
X147866000Y-85608682D01*
X147820614Y-85380515D01*
X147731588Y-85165587D01*
X147602342Y-84972157D01*
X147437843Y-84807658D01*
X147244413Y-84678412D01*
X147029485Y-84589386D01*
X146801318Y-84544000D01*
X146568682Y-84544000D01*
X146340515Y-84589386D01*
X146125587Y-84678412D01*
X145932157Y-84807658D01*
X145767658Y-84972157D01*
X145638412Y-85165587D01*
X145549386Y-85380515D01*
X145504000Y-85608682D01*
X145326000Y-85608682D01*
X145280614Y-85380515D01*
X145191588Y-85165587D01*
X145062342Y-84972157D01*
X144897843Y-84807658D01*
X144704413Y-84678412D01*
X144489485Y-84589386D01*
X144261318Y-84544000D01*
X144028682Y-84544000D01*
X143800515Y-84589386D01*
X143585587Y-84678412D01*
X143392157Y-84807658D01*
X143227658Y-84972157D01*
X143098412Y-85165587D01*
X143009386Y-85380515D01*
X142964000Y-85608682D01*
X142786000Y-85608682D01*
X142740614Y-85380515D01*
X142651588Y-85165587D01*
X142522342Y-84972157D01*
X142357843Y-84807658D01*
X142164413Y-84678412D01*
X141949485Y-84589386D01*
X141721318Y-84544000D01*
X141488682Y-84544000D01*
X141260515Y-84589386D01*
X141045587Y-84678412D01*
X140852157Y-84807658D01*
X140687658Y-84972157D01*
X140558412Y-85165587D01*
X140469386Y-85380515D01*
X140424000Y-85608682D01*
X140246000Y-85608682D01*
X140200614Y-85380515D01*
X140111588Y-85165587D01*
X139982342Y-84972157D01*
X139817843Y-84807658D01*
X139624413Y-84678412D01*
X139409485Y-84589386D01*
X139181318Y-84544000D01*
X138948682Y-84544000D01*
X138720515Y-84589386D01*
X138505587Y-84678412D01*
X138312157Y-84807658D01*
X138147658Y-84972157D01*
X138018412Y-85165587D01*
X137929386Y-85380515D01*
X137884000Y-85608682D01*
X137706000Y-85608682D01*
X137660614Y-85380515D01*
X137571588Y-85165587D01*
X137442342Y-84972157D01*
X137277843Y-84807658D01*
X137084413Y-84678412D01*
X136869485Y-84589386D01*
X136641318Y-84544000D01*
X136408682Y-84544000D01*
X136180515Y-84589386D01*
X135965587Y-84678412D01*
X135772157Y-84807658D01*
X135607658Y-84972157D01*
X135478412Y-85165587D01*
X135389386Y-85380515D01*
X135344000Y-85608682D01*
X132627843Y-85608682D01*
X132627843Y-85415885D01*
X132845165Y-85415885D01*
X132906092Y-85598000D01*
X133858000Y-85598000D01*
X133858000Y-84646703D01*
X134112000Y-84646703D01*
X134112000Y-85598000D01*
X135063908Y-85598000D01*
X135124835Y-85415885D01*
X135042628Y-85199454D01*
X134919777Y-85003219D01*
X134761003Y-84834722D01*
X134572408Y-84700438D01*
X134361239Y-84605527D01*
X134294114Y-84585171D01*
X134112000Y-84646703D01*
X133858000Y-84646703D01*
X133675886Y-84585171D01*
X133608761Y-84605527D01*
X133397592Y-84700438D01*
X133208997Y-84834722D01*
X133050223Y-85003219D01*
X132927372Y-85199454D01*
X132845165Y-85415885D01*
X132627843Y-85415885D01*
X132627843Y-84925000D01*
X132620487Y-84850311D01*
X132598701Y-84778492D01*
X132563322Y-84712304D01*
X132515711Y-84654289D01*
X132457696Y-84606678D01*
X132391508Y-84571299D01*
X132319689Y-84549513D01*
X132245000Y-84542157D01*
X130645000Y-84542157D01*
X130570311Y-84549513D01*
X130498492Y-84571299D01*
X130432304Y-84606678D01*
X130374289Y-84654289D01*
X130326678Y-84712304D01*
X130291299Y-84778492D01*
X130269513Y-84850311D01*
X130262157Y-84925000D01*
X129775185Y-84925000D01*
X129657843Y-84807658D01*
X129464413Y-84678412D01*
X129249485Y-84589386D01*
X129021318Y-84544000D01*
X128788682Y-84544000D01*
X128560515Y-84589386D01*
X128345587Y-84678412D01*
X128152157Y-84807658D01*
X127987658Y-84972157D01*
X127858412Y-85165587D01*
X127769386Y-85380515D01*
X127724000Y-85608682D01*
X127546000Y-85608682D01*
X127500614Y-85380515D01*
X127411588Y-85165587D01*
X127282342Y-84972157D01*
X127117843Y-84807658D01*
X126924413Y-84678412D01*
X126709485Y-84589386D01*
X126481318Y-84544000D01*
X126248682Y-84544000D01*
X126020515Y-84589386D01*
X125805587Y-84678412D01*
X125612157Y-84807658D01*
X125447658Y-84972157D01*
X125318412Y-85165587D01*
X125229386Y-85380515D01*
X125184000Y-85608682D01*
X125006000Y-85608682D01*
X124960614Y-85380515D01*
X124871588Y-85165587D01*
X124742342Y-84972157D01*
X124577843Y-84807658D01*
X124384413Y-84678412D01*
X124169485Y-84589386D01*
X123941318Y-84544000D01*
X123708682Y-84544000D01*
X123480515Y-84589386D01*
X123265587Y-84678412D01*
X123072157Y-84807658D01*
X122907658Y-84972157D01*
X122778412Y-85165587D01*
X122689386Y-85380515D01*
X122644000Y-85608682D01*
X122466000Y-85608682D01*
X122420614Y-85380515D01*
X122331588Y-85165587D01*
X122202342Y-84972157D01*
X122037843Y-84807658D01*
X121844413Y-84678412D01*
X121629485Y-84589386D01*
X121401318Y-84544000D01*
X121168682Y-84544000D01*
X120940515Y-84589386D01*
X120725587Y-84678412D01*
X120532157Y-84807658D01*
X120367658Y-84972157D01*
X120238412Y-85165587D01*
X120149386Y-85380515D01*
X120104000Y-85608682D01*
X119926000Y-85608682D01*
X119880614Y-85380515D01*
X119791588Y-85165587D01*
X119662342Y-84972157D01*
X119497843Y-84807658D01*
X119304413Y-84678412D01*
X119089485Y-84589386D01*
X118861318Y-84544000D01*
X118628682Y-84544000D01*
X118400515Y-84589386D01*
X118185587Y-84678412D01*
X117992157Y-84807658D01*
X117827658Y-84972157D01*
X117698412Y-85165587D01*
X117609386Y-85380515D01*
X117564000Y-85608682D01*
X117386000Y-85608682D01*
X117340614Y-85380515D01*
X117251588Y-85165587D01*
X117122342Y-84972157D01*
X116957843Y-84807658D01*
X116764413Y-84678412D01*
X116549485Y-84589386D01*
X116321318Y-84544000D01*
X116088682Y-84544000D01*
X115860515Y-84589386D01*
X115645587Y-84678412D01*
X115452157Y-84807658D01*
X115287658Y-84972157D01*
X115158412Y-85165587D01*
X115069386Y-85380515D01*
X115024000Y-85608682D01*
X114846000Y-85608682D01*
X114800614Y-85380515D01*
X114711588Y-85165587D01*
X114582342Y-84972157D01*
X114417843Y-84807658D01*
X114224413Y-84678412D01*
X114009485Y-84589386D01*
X113781318Y-84544000D01*
X113548682Y-84544000D01*
X113320515Y-84589386D01*
X113105587Y-84678412D01*
X112912157Y-84807658D01*
X112747658Y-84972157D01*
X112618412Y-85165587D01*
X112529386Y-85380515D01*
X112484000Y-85608682D01*
X112306000Y-85608682D01*
X112260614Y-85380515D01*
X112171588Y-85165587D01*
X112042342Y-84972157D01*
X111877843Y-84807658D01*
X111684413Y-84678412D01*
X111469485Y-84589386D01*
X111241318Y-84544000D01*
X111008682Y-84544000D01*
X110780515Y-84589386D01*
X110565587Y-84678412D01*
X110372157Y-84807658D01*
X110207658Y-84972157D01*
X110078412Y-85165587D01*
X109989386Y-85380515D01*
X109944000Y-85608682D01*
X109766000Y-85608682D01*
X109720614Y-85380515D01*
X109631588Y-85165587D01*
X109502342Y-84972157D01*
X109337843Y-84807658D01*
X109144413Y-84678412D01*
X108929485Y-84589386D01*
X108701318Y-84544000D01*
X108468682Y-84544000D01*
X108240515Y-84589386D01*
X108025587Y-84678412D01*
X107832157Y-84807658D01*
X107667658Y-84972157D01*
X107538412Y-85165587D01*
X107449386Y-85380515D01*
X107404000Y-85608682D01*
X107226000Y-85608682D01*
X107180614Y-85380515D01*
X107091588Y-85165587D01*
X106962342Y-84972157D01*
X106797843Y-84807658D01*
X106604413Y-84678412D01*
X106389485Y-84589386D01*
X106161318Y-84544000D01*
X105928682Y-84544000D01*
X105700515Y-84589386D01*
X105485587Y-84678412D01*
X105292157Y-84807658D01*
X105127658Y-84972157D01*
X104998412Y-85165587D01*
X104909386Y-85380515D01*
X104864000Y-85608682D01*
X104686000Y-85608682D01*
X104640614Y-85380515D01*
X104551588Y-85165587D01*
X104422342Y-84972157D01*
X104257843Y-84807658D01*
X104064413Y-84678412D01*
X103849485Y-84589386D01*
X103621318Y-84544000D01*
X103388682Y-84544000D01*
X103160515Y-84589386D01*
X102945587Y-84678412D01*
X102752157Y-84807658D01*
X102587658Y-84972157D01*
X102458412Y-85165587D01*
X102369386Y-85380515D01*
X102324000Y-85608682D01*
X74776000Y-85608682D01*
X74776000Y-83235078D01*
X79737006Y-83235078D01*
X79737006Y-83388922D01*
X79767019Y-83539809D01*
X79825893Y-83681942D01*
X79911364Y-83809859D01*
X80020147Y-83918642D01*
X80148064Y-84004113D01*
X80290197Y-84062987D01*
X80441084Y-84093000D01*
X80594928Y-84093000D01*
X80745815Y-84062987D01*
X80887948Y-84004113D01*
X81015865Y-83918642D01*
X81116507Y-83818000D01*
X103353154Y-83818000D01*
X103378000Y-83820447D01*
X103402846Y-83818000D01*
X103402854Y-83818000D01*
X103477193Y-83810678D01*
X103572575Y-83781745D01*
X103660479Y-83734759D01*
X103737527Y-83671527D01*
X103753376Y-83652215D01*
X113014120Y-74391472D01*
X113105587Y-74452588D01*
X113320515Y-74541614D01*
X113548682Y-74587000D01*
X113781318Y-74587000D01*
X114009485Y-74541614D01*
X114224413Y-74452588D01*
X114417843Y-74323342D01*
X114582342Y-74158843D01*
X114711588Y-73965413D01*
X114800614Y-73750485D01*
X114846000Y-73522318D01*
X114846000Y-73289682D01*
X115024000Y-73289682D01*
X115024000Y-73522318D01*
X115069386Y-73750485D01*
X115158412Y-73965413D01*
X115287658Y-74158843D01*
X115452157Y-74323342D01*
X115645587Y-74452588D01*
X115860515Y-74541614D01*
X116088682Y-74587000D01*
X116321318Y-74587000D01*
X116549485Y-74541614D01*
X116764413Y-74452588D01*
X116957843Y-74323342D01*
X117122342Y-74158843D01*
X117251588Y-73965413D01*
X117340614Y-73750485D01*
X117386000Y-73522318D01*
X117386000Y-73289682D01*
X117564000Y-73289682D01*
X117564000Y-73522318D01*
X117609386Y-73750485D01*
X117698412Y-73965413D01*
X117827658Y-74158843D01*
X117992157Y-74323342D01*
X118185587Y-74452588D01*
X118400515Y-74541614D01*
X118628682Y-74587000D01*
X118861318Y-74587000D01*
X119089485Y-74541614D01*
X119304413Y-74452588D01*
X119497843Y-74323342D01*
X119662342Y-74158843D01*
X119791588Y-73965413D01*
X119880614Y-73750485D01*
X119926000Y-73522318D01*
X119926000Y-73289682D01*
X120104000Y-73289682D01*
X120104000Y-73522318D01*
X120149386Y-73750485D01*
X120238412Y-73965413D01*
X120367658Y-74158843D01*
X120532157Y-74323342D01*
X120725587Y-74452588D01*
X120940515Y-74541614D01*
X121168682Y-74587000D01*
X121401318Y-74587000D01*
X121629485Y-74541614D01*
X121844413Y-74452588D01*
X122037843Y-74323342D01*
X122202342Y-74158843D01*
X122331588Y-73965413D01*
X122420614Y-73750485D01*
X122466000Y-73522318D01*
X122466000Y-73289682D01*
X122644000Y-73289682D01*
X122644000Y-73522318D01*
X122689386Y-73750485D01*
X122778412Y-73965413D01*
X122907658Y-74158843D01*
X123072157Y-74323342D01*
X123265587Y-74452588D01*
X123480515Y-74541614D01*
X123708682Y-74587000D01*
X123941318Y-74587000D01*
X124169485Y-74541614D01*
X124384413Y-74452588D01*
X124577843Y-74323342D01*
X124742342Y-74158843D01*
X124871588Y-73965413D01*
X124960614Y-73750485D01*
X125006000Y-73522318D01*
X125006000Y-73289682D01*
X125184000Y-73289682D01*
X125184000Y-73522318D01*
X125229386Y-73750485D01*
X125318412Y-73965413D01*
X125447658Y-74158843D01*
X125612157Y-74323342D01*
X125805587Y-74452588D01*
X126020515Y-74541614D01*
X126248682Y-74587000D01*
X126481318Y-74587000D01*
X126709485Y-74541614D01*
X126924413Y-74452588D01*
X127117843Y-74323342D01*
X127282342Y-74158843D01*
X127411588Y-73965413D01*
X127500614Y-73750485D01*
X127546000Y-73522318D01*
X127546000Y-73289682D01*
X127724000Y-73289682D01*
X127724000Y-73522318D01*
X127769386Y-73750485D01*
X127858412Y-73965413D01*
X127987658Y-74158843D01*
X128152157Y-74323342D01*
X128345587Y-74452588D01*
X128560515Y-74541614D01*
X128788682Y-74587000D01*
X129021318Y-74587000D01*
X129249485Y-74541614D01*
X129464413Y-74452588D01*
X129657843Y-74323342D01*
X129822342Y-74158843D01*
X129951588Y-73965413D01*
X130040614Y-73750485D01*
X130086000Y-73522318D01*
X130086000Y-73289682D01*
X130040614Y-73061515D01*
X129951588Y-72846587D01*
X129822342Y-72653157D01*
X129775185Y-72606000D01*
X130262157Y-72606000D01*
X130262157Y-74206000D01*
X130269513Y-74280689D01*
X130291299Y-74352508D01*
X130326678Y-74418696D01*
X130374289Y-74476711D01*
X130432304Y-74524322D01*
X130498492Y-74559701D01*
X130570311Y-74581487D01*
X130645000Y-74588843D01*
X132245000Y-74588843D01*
X132319689Y-74581487D01*
X132391508Y-74559701D01*
X132457696Y-74524322D01*
X132515711Y-74476711D01*
X132563322Y-74418696D01*
X132598701Y-74352508D01*
X132620487Y-74280689D01*
X132627843Y-74206000D01*
X132627843Y-73289682D01*
X132804000Y-73289682D01*
X132804000Y-73522318D01*
X132849386Y-73750485D01*
X132938412Y-73965413D01*
X133067658Y-74158843D01*
X133232157Y-74323342D01*
X133425587Y-74452588D01*
X133640515Y-74541614D01*
X133868682Y-74587000D01*
X134101318Y-74587000D01*
X134329485Y-74541614D01*
X134544413Y-74452588D01*
X134737843Y-74323342D01*
X134902342Y-74158843D01*
X135031588Y-73965413D01*
X135120614Y-73750485D01*
X135166000Y-73522318D01*
X135166000Y-73289682D01*
X135344000Y-73289682D01*
X135344000Y-73522318D01*
X135389386Y-73750485D01*
X135478412Y-73965413D01*
X135607658Y-74158843D01*
X135772157Y-74323342D01*
X135965587Y-74452588D01*
X136180515Y-74541614D01*
X136408682Y-74587000D01*
X136641318Y-74587000D01*
X136869485Y-74541614D01*
X137084413Y-74452588D01*
X137277843Y-74323342D01*
X137442342Y-74158843D01*
X137571588Y-73965413D01*
X137660614Y-73750485D01*
X137706000Y-73522318D01*
X137706000Y-73289682D01*
X137884000Y-73289682D01*
X137884000Y-73522318D01*
X137929386Y-73750485D01*
X138018412Y-73965413D01*
X138147658Y-74158843D01*
X138312157Y-74323342D01*
X138505587Y-74452588D01*
X138720515Y-74541614D01*
X138948682Y-74587000D01*
X139181318Y-74587000D01*
X139409485Y-74541614D01*
X139624413Y-74452588D01*
X139817843Y-74323342D01*
X139982342Y-74158843D01*
X140111588Y-73965413D01*
X140200614Y-73750485D01*
X140246000Y-73522318D01*
X140246000Y-73289682D01*
X140424000Y-73289682D01*
X140424000Y-73522318D01*
X140469386Y-73750485D01*
X140558412Y-73965413D01*
X140687658Y-74158843D01*
X140852157Y-74323342D01*
X141045587Y-74452588D01*
X141260515Y-74541614D01*
X141488682Y-74587000D01*
X141721318Y-74587000D01*
X141949485Y-74541614D01*
X142164413Y-74452588D01*
X142357843Y-74323342D01*
X142522342Y-74158843D01*
X142651588Y-73965413D01*
X142740614Y-73750485D01*
X142786000Y-73522318D01*
X142786000Y-73289682D01*
X142964000Y-73289682D01*
X142964000Y-73522318D01*
X143009386Y-73750485D01*
X143098412Y-73965413D01*
X143227658Y-74158843D01*
X143392157Y-74323342D01*
X143585587Y-74452588D01*
X143800515Y-74541614D01*
X144028682Y-74587000D01*
X144261318Y-74587000D01*
X144489485Y-74541614D01*
X144704413Y-74452588D01*
X144897843Y-74323342D01*
X145062342Y-74158843D01*
X145191588Y-73965413D01*
X145280614Y-73750485D01*
X145326000Y-73522318D01*
X145326000Y-73289682D01*
X145504000Y-73289682D01*
X145504000Y-73522318D01*
X145549386Y-73750485D01*
X145638412Y-73965413D01*
X145767658Y-74158843D01*
X145932157Y-74323342D01*
X146125587Y-74452588D01*
X146340515Y-74541614D01*
X146568682Y-74587000D01*
X146801318Y-74587000D01*
X147029485Y-74541614D01*
X147244413Y-74452588D01*
X147437843Y-74323342D01*
X147602342Y-74158843D01*
X147731588Y-73965413D01*
X147820614Y-73750485D01*
X147866000Y-73522318D01*
X147866000Y-73289682D01*
X148044000Y-73289682D01*
X148044000Y-73522318D01*
X148089386Y-73750485D01*
X148178412Y-73965413D01*
X148307658Y-74158843D01*
X148472157Y-74323342D01*
X148665587Y-74452588D01*
X148880515Y-74541614D01*
X149108682Y-74587000D01*
X149341318Y-74587000D01*
X149569485Y-74541614D01*
X149784413Y-74452588D01*
X149977843Y-74323342D01*
X150142342Y-74158843D01*
X150271588Y-73965413D01*
X150360614Y-73750485D01*
X150406000Y-73522318D01*
X150406000Y-73289682D01*
X150584000Y-73289682D01*
X150584000Y-73522318D01*
X150629386Y-73750485D01*
X150718412Y-73965413D01*
X150847658Y-74158843D01*
X151012157Y-74323342D01*
X151205587Y-74452588D01*
X151420515Y-74541614D01*
X151648682Y-74587000D01*
X151881318Y-74587000D01*
X152109485Y-74541614D01*
X152324413Y-74452588D01*
X152517843Y-74323342D01*
X152682342Y-74158843D01*
X152811588Y-73965413D01*
X152900614Y-73750485D01*
X152946000Y-73522318D01*
X152946000Y-73289682D01*
X153124000Y-73289682D01*
X153124000Y-73522318D01*
X153169386Y-73750485D01*
X153258412Y-73965413D01*
X153387658Y-74158843D01*
X153552157Y-74323342D01*
X153745587Y-74452588D01*
X153960515Y-74541614D01*
X154188682Y-74587000D01*
X154421318Y-74587000D01*
X154649485Y-74541614D01*
X154864413Y-74452588D01*
X155057843Y-74323342D01*
X155222342Y-74158843D01*
X155351588Y-73965413D01*
X155440614Y-73750485D01*
X155486000Y-73522318D01*
X155486000Y-73289682D01*
X155664000Y-73289682D01*
X155664000Y-73522318D01*
X155709386Y-73750485D01*
X155798412Y-73965413D01*
X155927658Y-74158843D01*
X156092157Y-74323342D01*
X156285587Y-74452588D01*
X156500515Y-74541614D01*
X156728682Y-74587000D01*
X156961318Y-74587000D01*
X157189485Y-74541614D01*
X157404413Y-74452588D01*
X157597843Y-74323342D01*
X157762342Y-74158843D01*
X157891588Y-73965413D01*
X157980614Y-73750485D01*
X158026000Y-73522318D01*
X158026000Y-73289682D01*
X158204000Y-73289682D01*
X158204000Y-73522318D01*
X158249386Y-73750485D01*
X158338412Y-73965413D01*
X158467658Y-74158843D01*
X158632157Y-74323342D01*
X158825587Y-74452588D01*
X159040515Y-74541614D01*
X159268682Y-74587000D01*
X159501318Y-74587000D01*
X159729485Y-74541614D01*
X159944413Y-74452588D01*
X160137843Y-74323342D01*
X160302342Y-74158843D01*
X160431588Y-73965413D01*
X160520614Y-73750485D01*
X160566000Y-73522318D01*
X160566000Y-73289682D01*
X160520614Y-73061515D01*
X160431588Y-72846587D01*
X160302342Y-72653157D01*
X160255185Y-72606000D01*
X160742157Y-72606000D01*
X160742157Y-74206000D01*
X160749513Y-74280689D01*
X160771299Y-74352508D01*
X160806678Y-74418696D01*
X160854289Y-74476711D01*
X160912304Y-74524322D01*
X160978492Y-74559701D01*
X161050311Y-74581487D01*
X161125000Y-74588843D01*
X162725000Y-74588843D01*
X162799689Y-74581487D01*
X162871508Y-74559701D01*
X162937696Y-74524322D01*
X162995711Y-74476711D01*
X163043322Y-74418696D01*
X163078701Y-74352508D01*
X163100487Y-74280689D01*
X163107843Y-74206000D01*
X163107843Y-72606000D01*
X163100487Y-72531311D01*
X163078701Y-72459492D01*
X163043322Y-72393304D01*
X162995711Y-72335289D01*
X162937696Y-72287678D01*
X162871508Y-72252299D01*
X162799689Y-72230513D01*
X162725000Y-72223157D01*
X161125000Y-72223157D01*
X161050311Y-72230513D01*
X160978492Y-72252299D01*
X160912304Y-72287678D01*
X160854289Y-72335289D01*
X160806678Y-72393304D01*
X160771299Y-72459492D01*
X160749513Y-72531311D01*
X160742157Y-72606000D01*
X160255185Y-72606000D01*
X160137843Y-72488658D01*
X159944413Y-72359412D01*
X159729485Y-72270386D01*
X159501318Y-72225000D01*
X159268682Y-72225000D01*
X159040515Y-72270386D01*
X158825587Y-72359412D01*
X158632157Y-72488658D01*
X158467658Y-72653157D01*
X158338412Y-72846587D01*
X158249386Y-73061515D01*
X158204000Y-73289682D01*
X158026000Y-73289682D01*
X157980614Y-73061515D01*
X157891588Y-72846587D01*
X157762342Y-72653157D01*
X157597843Y-72488658D01*
X157404413Y-72359412D01*
X157189485Y-72270386D01*
X156961318Y-72225000D01*
X156728682Y-72225000D01*
X156500515Y-72270386D01*
X156285587Y-72359412D01*
X156092157Y-72488658D01*
X155927658Y-72653157D01*
X155798412Y-72846587D01*
X155709386Y-73061515D01*
X155664000Y-73289682D01*
X155486000Y-73289682D01*
X155440614Y-73061515D01*
X155351588Y-72846587D01*
X155222342Y-72653157D01*
X155057843Y-72488658D01*
X154864413Y-72359412D01*
X154649485Y-72270386D01*
X154421318Y-72225000D01*
X154188682Y-72225000D01*
X153960515Y-72270386D01*
X153745587Y-72359412D01*
X153552157Y-72488658D01*
X153387658Y-72653157D01*
X153258412Y-72846587D01*
X153169386Y-73061515D01*
X153124000Y-73289682D01*
X152946000Y-73289682D01*
X152900614Y-73061515D01*
X152811588Y-72846587D01*
X152682342Y-72653157D01*
X152517843Y-72488658D01*
X152324413Y-72359412D01*
X152109485Y-72270386D01*
X151881318Y-72225000D01*
X151648682Y-72225000D01*
X151420515Y-72270386D01*
X151205587Y-72359412D01*
X151012157Y-72488658D01*
X150847658Y-72653157D01*
X150718412Y-72846587D01*
X150629386Y-73061515D01*
X150584000Y-73289682D01*
X150406000Y-73289682D01*
X150360614Y-73061515D01*
X150271588Y-72846587D01*
X150142342Y-72653157D01*
X149977843Y-72488658D01*
X149784413Y-72359412D01*
X149569485Y-72270386D01*
X149341318Y-72225000D01*
X149108682Y-72225000D01*
X148880515Y-72270386D01*
X148665587Y-72359412D01*
X148472157Y-72488658D01*
X148307658Y-72653157D01*
X148178412Y-72846587D01*
X148089386Y-73061515D01*
X148044000Y-73289682D01*
X147866000Y-73289682D01*
X147820614Y-73061515D01*
X147731588Y-72846587D01*
X147602342Y-72653157D01*
X147437843Y-72488658D01*
X147244413Y-72359412D01*
X147029485Y-72270386D01*
X146801318Y-72225000D01*
X146568682Y-72225000D01*
X146340515Y-72270386D01*
X146125587Y-72359412D01*
X145932157Y-72488658D01*
X145767658Y-72653157D01*
X145638412Y-72846587D01*
X145549386Y-73061515D01*
X145504000Y-73289682D01*
X145326000Y-73289682D01*
X145280614Y-73061515D01*
X145191588Y-72846587D01*
X145062342Y-72653157D01*
X144897843Y-72488658D01*
X144704413Y-72359412D01*
X144489485Y-72270386D01*
X144261318Y-72225000D01*
X144028682Y-72225000D01*
X143800515Y-72270386D01*
X143585587Y-72359412D01*
X143392157Y-72488658D01*
X143227658Y-72653157D01*
X143098412Y-72846587D01*
X143009386Y-73061515D01*
X142964000Y-73289682D01*
X142786000Y-73289682D01*
X142740614Y-73061515D01*
X142651588Y-72846587D01*
X142522342Y-72653157D01*
X142357843Y-72488658D01*
X142164413Y-72359412D01*
X141949485Y-72270386D01*
X141721318Y-72225000D01*
X141488682Y-72225000D01*
X141260515Y-72270386D01*
X141045587Y-72359412D01*
X140852157Y-72488658D01*
X140687658Y-72653157D01*
X140558412Y-72846587D01*
X140469386Y-73061515D01*
X140424000Y-73289682D01*
X140246000Y-73289682D01*
X140200614Y-73061515D01*
X140111588Y-72846587D01*
X139982342Y-72653157D01*
X139817843Y-72488658D01*
X139624413Y-72359412D01*
X139409485Y-72270386D01*
X139181318Y-72225000D01*
X138948682Y-72225000D01*
X138720515Y-72270386D01*
X138505587Y-72359412D01*
X138312157Y-72488658D01*
X138147658Y-72653157D01*
X138018412Y-72846587D01*
X137929386Y-73061515D01*
X137884000Y-73289682D01*
X137706000Y-73289682D01*
X137660614Y-73061515D01*
X137571588Y-72846587D01*
X137442342Y-72653157D01*
X137277843Y-72488658D01*
X137084413Y-72359412D01*
X136869485Y-72270386D01*
X136641318Y-72225000D01*
X136408682Y-72225000D01*
X136180515Y-72270386D01*
X135965587Y-72359412D01*
X135772157Y-72488658D01*
X135607658Y-72653157D01*
X135478412Y-72846587D01*
X135389386Y-73061515D01*
X135344000Y-73289682D01*
X135166000Y-73289682D01*
X135120614Y-73061515D01*
X135031588Y-72846587D01*
X134902342Y-72653157D01*
X134737843Y-72488658D01*
X134544413Y-72359412D01*
X134329485Y-72270386D01*
X134101318Y-72225000D01*
X133868682Y-72225000D01*
X133640515Y-72270386D01*
X133425587Y-72359412D01*
X133232157Y-72488658D01*
X133067658Y-72653157D01*
X132938412Y-72846587D01*
X132849386Y-73061515D01*
X132804000Y-73289682D01*
X132627843Y-73289682D01*
X132627843Y-72606000D01*
X132620487Y-72531311D01*
X132598701Y-72459492D01*
X132563322Y-72393304D01*
X132515711Y-72335289D01*
X132457696Y-72287678D01*
X132391508Y-72252299D01*
X132319689Y-72230513D01*
X132245000Y-72223157D01*
X130645000Y-72223157D01*
X130570311Y-72230513D01*
X130498492Y-72252299D01*
X130432304Y-72287678D01*
X130374289Y-72335289D01*
X130326678Y-72393304D01*
X130291299Y-72459492D01*
X130269513Y-72531311D01*
X130262157Y-72606000D01*
X129775185Y-72606000D01*
X129657843Y-72488658D01*
X129464413Y-72359412D01*
X129249485Y-72270386D01*
X129021318Y-72225000D01*
X128788682Y-72225000D01*
X128560515Y-72270386D01*
X128345587Y-72359412D01*
X128152157Y-72488658D01*
X127987658Y-72653157D01*
X127858412Y-72846587D01*
X127769386Y-73061515D01*
X127724000Y-73289682D01*
X127546000Y-73289682D01*
X127500614Y-73061515D01*
X127411588Y-72846587D01*
X127282342Y-72653157D01*
X127117843Y-72488658D01*
X126924413Y-72359412D01*
X126709485Y-72270386D01*
X126481318Y-72225000D01*
X126248682Y-72225000D01*
X126020515Y-72270386D01*
X125805587Y-72359412D01*
X125612157Y-72488658D01*
X125447658Y-72653157D01*
X125318412Y-72846587D01*
X125229386Y-73061515D01*
X125184000Y-73289682D01*
X125006000Y-73289682D01*
X124960614Y-73061515D01*
X124871588Y-72846587D01*
X124742342Y-72653157D01*
X124577843Y-72488658D01*
X124384413Y-72359412D01*
X124169485Y-72270386D01*
X123941318Y-72225000D01*
X123708682Y-72225000D01*
X123480515Y-72270386D01*
X123265587Y-72359412D01*
X123072157Y-72488658D01*
X122907658Y-72653157D01*
X122778412Y-72846587D01*
X122689386Y-73061515D01*
X122644000Y-73289682D01*
X122466000Y-73289682D01*
X122420614Y-73061515D01*
X122331588Y-72846587D01*
X122202342Y-72653157D01*
X122037843Y-72488658D01*
X121844413Y-72359412D01*
X121629485Y-72270386D01*
X121401318Y-72225000D01*
X121168682Y-72225000D01*
X120940515Y-72270386D01*
X120725587Y-72359412D01*
X120532157Y-72488658D01*
X120367658Y-72653157D01*
X120238412Y-72846587D01*
X120149386Y-73061515D01*
X120104000Y-73289682D01*
X119926000Y-73289682D01*
X119880614Y-73061515D01*
X119791588Y-72846587D01*
X119662342Y-72653157D01*
X119497843Y-72488658D01*
X119304413Y-72359412D01*
X119089485Y-72270386D01*
X118861318Y-72225000D01*
X118628682Y-72225000D01*
X118400515Y-72270386D01*
X118185587Y-72359412D01*
X117992157Y-72488658D01*
X117827658Y-72653157D01*
X117698412Y-72846587D01*
X117609386Y-73061515D01*
X117564000Y-73289682D01*
X117386000Y-73289682D01*
X117340614Y-73061515D01*
X117251588Y-72846587D01*
X117122342Y-72653157D01*
X116957843Y-72488658D01*
X116764413Y-72359412D01*
X116549485Y-72270386D01*
X116321318Y-72225000D01*
X116088682Y-72225000D01*
X115860515Y-72270386D01*
X115645587Y-72359412D01*
X115452157Y-72488658D01*
X115287658Y-72653157D01*
X115158412Y-72846587D01*
X115069386Y-73061515D01*
X115024000Y-73289682D01*
X114846000Y-73289682D01*
X114800614Y-73061515D01*
X114711588Y-72846587D01*
X114582342Y-72653157D01*
X114417843Y-72488658D01*
X114224413Y-72359412D01*
X114009485Y-72270386D01*
X113781318Y-72225000D01*
X113548682Y-72225000D01*
X113320515Y-72270386D01*
X113105587Y-72359412D01*
X112912157Y-72488658D01*
X112747658Y-72653157D01*
X112618412Y-72846587D01*
X112529386Y-73061515D01*
X112484000Y-73289682D01*
X112484000Y-73490408D01*
X112269725Y-73704683D01*
X112306000Y-73522318D01*
X112306000Y-73289682D01*
X112260614Y-73061515D01*
X112171588Y-72846587D01*
X112042342Y-72653157D01*
X111877843Y-72488658D01*
X111684413Y-72359412D01*
X111469485Y-72270386D01*
X111241318Y-72225000D01*
X111008682Y-72225000D01*
X110780515Y-72270386D01*
X110565587Y-72359412D01*
X110372157Y-72488658D01*
X110207658Y-72653157D01*
X110078412Y-72846587D01*
X109989386Y-73061515D01*
X109944000Y-73289682D01*
X109944000Y-73490408D01*
X109729725Y-73704683D01*
X109766000Y-73522318D01*
X109766000Y-73289682D01*
X109720614Y-73061515D01*
X109631588Y-72846587D01*
X109502342Y-72653157D01*
X109337843Y-72488658D01*
X109144413Y-72359412D01*
X108929485Y-72270386D01*
X108701318Y-72225000D01*
X108468682Y-72225000D01*
X108240515Y-72270386D01*
X108025587Y-72359412D01*
X107832157Y-72488658D01*
X107667658Y-72653157D01*
X107538412Y-72846587D01*
X107449386Y-73061515D01*
X107404000Y-73289682D01*
X107404000Y-73490408D01*
X107189725Y-73704684D01*
X107226000Y-73522318D01*
X107226000Y-73289682D01*
X107180614Y-73061515D01*
X107091588Y-72846587D01*
X106962342Y-72653157D01*
X106797843Y-72488658D01*
X106604413Y-72359412D01*
X106389485Y-72270386D01*
X106161318Y-72225000D01*
X105928682Y-72225000D01*
X105700515Y-72270386D01*
X105485587Y-72359412D01*
X105292157Y-72488658D01*
X105127658Y-72653157D01*
X104998412Y-72846587D01*
X104909386Y-73061515D01*
X104864000Y-73289682D01*
X104864000Y-73522318D01*
X104909386Y-73750485D01*
X104998412Y-73965413D01*
X105127658Y-74158843D01*
X105292157Y-74323342D01*
X105485587Y-74452588D01*
X105539001Y-74474713D01*
X105539001Y-74593407D01*
X101517409Y-78615000D01*
X84164501Y-78615000D01*
X84063859Y-78514358D01*
X83935942Y-78428887D01*
X83793809Y-78370013D01*
X83642922Y-78340000D01*
X83489078Y-78340000D01*
X83338191Y-78370013D01*
X83196058Y-78428887D01*
X83068141Y-78514358D01*
X82959358Y-78623141D01*
X82873887Y-78751058D01*
X82815013Y-78893191D01*
X82785000Y-79044078D01*
X82785000Y-79197922D01*
X82815013Y-79348809D01*
X82873887Y-79490942D01*
X82959358Y-79618859D01*
X83068141Y-79727642D01*
X83196058Y-79813113D01*
X83338191Y-79871987D01*
X83489078Y-79902000D01*
X83642922Y-79902000D01*
X83793809Y-79871987D01*
X83935942Y-79813113D01*
X84063859Y-79727642D01*
X84164501Y-79627000D01*
X101267409Y-79627000D01*
X100755409Y-80139000D01*
X83148505Y-80139000D01*
X83047863Y-80038358D01*
X82919946Y-79952887D01*
X82777813Y-79894013D01*
X82626926Y-79864000D01*
X82473082Y-79864000D01*
X82322195Y-79894013D01*
X82180062Y-79952887D01*
X82052145Y-80038358D01*
X81943362Y-80147141D01*
X81857891Y-80275058D01*
X81799017Y-80417191D01*
X81769004Y-80568078D01*
X81769004Y-80721922D01*
X81799017Y-80872809D01*
X81857891Y-81014942D01*
X81918457Y-81105585D01*
X81903942Y-81095887D01*
X81761809Y-81037013D01*
X81610922Y-81007000D01*
X81457078Y-81007000D01*
X81306191Y-81037013D01*
X81164058Y-81095887D01*
X81036141Y-81181358D01*
X80927358Y-81290141D01*
X80841887Y-81418058D01*
X80783013Y-81560191D01*
X80753000Y-81711078D01*
X80753000Y-81864922D01*
X80783013Y-82015809D01*
X80841887Y-82157942D01*
X80927358Y-82285859D01*
X81036141Y-82394642D01*
X81164058Y-82480113D01*
X81306191Y-82538987D01*
X81457078Y-82569000D01*
X81610922Y-82569000D01*
X81761809Y-82538987D01*
X81903942Y-82480113D01*
X82031859Y-82394642D01*
X82132501Y-82294000D01*
X102337154Y-82294000D01*
X102362000Y-82296447D01*
X102386846Y-82294000D01*
X102386854Y-82294000D01*
X102461193Y-82286678D01*
X102556575Y-82257745D01*
X102644479Y-82210759D01*
X102721527Y-82147527D01*
X102737376Y-82128215D01*
X110474120Y-74391472D01*
X110565587Y-74452588D01*
X110780515Y-74541614D01*
X111008682Y-74587000D01*
X111241318Y-74587000D01*
X111423684Y-74550725D01*
X103168409Y-82806000D01*
X81116507Y-82806000D01*
X81015865Y-82705358D01*
X80887948Y-82619887D01*
X80745815Y-82561013D01*
X80594928Y-82531000D01*
X80441084Y-82531000D01*
X80290197Y-82561013D01*
X80148064Y-82619887D01*
X80020147Y-82705358D01*
X79911364Y-82814141D01*
X79825893Y-82942058D01*
X79767019Y-83084191D01*
X79737006Y-83235078D01*
X74776000Y-83235078D01*
X74776000Y-77647078D01*
X83674000Y-77647078D01*
X83674000Y-77800922D01*
X83704013Y-77951809D01*
X83762887Y-78093942D01*
X83848358Y-78221859D01*
X83957141Y-78330642D01*
X84085058Y-78416113D01*
X84227191Y-78474987D01*
X84378078Y-78505000D01*
X84531922Y-78505000D01*
X84682809Y-78474987D01*
X84824942Y-78416113D01*
X84952859Y-78330642D01*
X85053501Y-78230000D01*
X98781154Y-78230000D01*
X98806000Y-78232447D01*
X98830846Y-78230000D01*
X98830854Y-78230000D01*
X98905193Y-78222678D01*
X99000575Y-78193745D01*
X99088479Y-78146759D01*
X99165527Y-78083527D01*
X99181376Y-78064215D01*
X102854120Y-74391472D01*
X102945587Y-74452588D01*
X103160515Y-74541614D01*
X103388682Y-74587000D01*
X103621318Y-74587000D01*
X103849485Y-74541614D01*
X104064413Y-74452588D01*
X104257843Y-74323342D01*
X104422342Y-74158843D01*
X104551588Y-73965413D01*
X104640614Y-73750485D01*
X104686000Y-73522318D01*
X104686000Y-73289682D01*
X104640614Y-73061515D01*
X104551588Y-72846587D01*
X104422342Y-72653157D01*
X104257843Y-72488658D01*
X104064413Y-72359412D01*
X103849485Y-72270386D01*
X103621318Y-72225000D01*
X103388682Y-72225000D01*
X103160515Y-72270386D01*
X102945587Y-72359412D01*
X102752157Y-72488658D01*
X102587658Y-72653157D01*
X102458412Y-72846587D01*
X102369386Y-73061515D01*
X102324000Y-73289682D01*
X102324000Y-73490408D01*
X98596409Y-77218000D01*
X85053501Y-77218000D01*
X84952859Y-77117358D01*
X84824942Y-77031887D01*
X84682809Y-76973013D01*
X84531922Y-76943000D01*
X84378078Y-76943000D01*
X84227191Y-76973013D01*
X84085058Y-77031887D01*
X83957141Y-77117358D01*
X83848358Y-77226141D01*
X83762887Y-77354058D01*
X83704013Y-77496191D01*
X83674000Y-77647078D01*
X74776000Y-77647078D01*
X74776000Y-70368682D01*
X102324000Y-70368682D01*
X102324000Y-70601318D01*
X102369386Y-70829485D01*
X102458412Y-71044413D01*
X102587658Y-71237843D01*
X102752157Y-71402342D01*
X102945587Y-71531588D01*
X103160515Y-71620614D01*
X103388682Y-71666000D01*
X103621318Y-71666000D01*
X103849485Y-71620614D01*
X104064413Y-71531588D01*
X104257843Y-71402342D01*
X104422342Y-71237843D01*
X104551588Y-71044413D01*
X104640614Y-70829485D01*
X104686000Y-70601318D01*
X104686000Y-70368682D01*
X104864000Y-70368682D01*
X104864000Y-70601318D01*
X104909386Y-70829485D01*
X104998412Y-71044413D01*
X105127658Y-71237843D01*
X105292157Y-71402342D01*
X105485587Y-71531588D01*
X105700515Y-71620614D01*
X105928682Y-71666000D01*
X106161318Y-71666000D01*
X106389485Y-71620614D01*
X106604413Y-71531588D01*
X106797843Y-71402342D01*
X106962342Y-71237843D01*
X107091588Y-71044413D01*
X107180614Y-70829485D01*
X107226000Y-70601318D01*
X107226000Y-70368682D01*
X107404000Y-70368682D01*
X107404000Y-70601318D01*
X107449386Y-70829485D01*
X107538412Y-71044413D01*
X107667658Y-71237843D01*
X107832157Y-71402342D01*
X108025587Y-71531588D01*
X108240515Y-71620614D01*
X108468682Y-71666000D01*
X108701318Y-71666000D01*
X108929485Y-71620614D01*
X109144413Y-71531588D01*
X109337843Y-71402342D01*
X109502342Y-71237843D01*
X109631588Y-71044413D01*
X109720614Y-70829485D01*
X109766000Y-70601318D01*
X109766000Y-70368682D01*
X109944000Y-70368682D01*
X109944000Y-70601318D01*
X109989386Y-70829485D01*
X110078412Y-71044413D01*
X110207658Y-71237843D01*
X110372157Y-71402342D01*
X110565587Y-71531588D01*
X110780515Y-71620614D01*
X111008682Y-71666000D01*
X111241318Y-71666000D01*
X111469485Y-71620614D01*
X111684413Y-71531588D01*
X111877843Y-71402342D01*
X112042342Y-71237843D01*
X112171588Y-71044413D01*
X112260614Y-70829485D01*
X112306000Y-70601318D01*
X112306000Y-70368682D01*
X112484000Y-70368682D01*
X112484000Y-70601318D01*
X112529386Y-70829485D01*
X112618412Y-71044413D01*
X112747658Y-71237843D01*
X112912157Y-71402342D01*
X113105587Y-71531588D01*
X113320515Y-71620614D01*
X113548682Y-71666000D01*
X113781318Y-71666000D01*
X114009485Y-71620614D01*
X114224413Y-71531588D01*
X114417843Y-71402342D01*
X114582342Y-71237843D01*
X114711588Y-71044413D01*
X114800614Y-70829485D01*
X114846000Y-70601318D01*
X114846000Y-70368682D01*
X115024000Y-70368682D01*
X115024000Y-70601318D01*
X115069386Y-70829485D01*
X115158412Y-71044413D01*
X115287658Y-71237843D01*
X115452157Y-71402342D01*
X115645587Y-71531588D01*
X115860515Y-71620614D01*
X116088682Y-71666000D01*
X116321318Y-71666000D01*
X116549485Y-71620614D01*
X116764413Y-71531588D01*
X116957843Y-71402342D01*
X117122342Y-71237843D01*
X117251588Y-71044413D01*
X117340614Y-70829485D01*
X117386000Y-70601318D01*
X117386000Y-70368682D01*
X117564000Y-70368682D01*
X117564000Y-70601318D01*
X117609386Y-70829485D01*
X117698412Y-71044413D01*
X117827658Y-71237843D01*
X117992157Y-71402342D01*
X118185587Y-71531588D01*
X118400515Y-71620614D01*
X118628682Y-71666000D01*
X118861318Y-71666000D01*
X119089485Y-71620614D01*
X119304413Y-71531588D01*
X119497843Y-71402342D01*
X119662342Y-71237843D01*
X119791588Y-71044413D01*
X119880614Y-70829485D01*
X119926000Y-70601318D01*
X119926000Y-70368682D01*
X120104000Y-70368682D01*
X120104000Y-70601318D01*
X120149386Y-70829485D01*
X120238412Y-71044413D01*
X120367658Y-71237843D01*
X120532157Y-71402342D01*
X120725587Y-71531588D01*
X120940515Y-71620614D01*
X121168682Y-71666000D01*
X121401318Y-71666000D01*
X121629485Y-71620614D01*
X121844413Y-71531588D01*
X122037843Y-71402342D01*
X122202342Y-71237843D01*
X122331588Y-71044413D01*
X122420614Y-70829485D01*
X122466000Y-70601318D01*
X122466000Y-70368682D01*
X122644000Y-70368682D01*
X122644000Y-70601318D01*
X122689386Y-70829485D01*
X122778412Y-71044413D01*
X122907658Y-71237843D01*
X123072157Y-71402342D01*
X123265587Y-71531588D01*
X123480515Y-71620614D01*
X123708682Y-71666000D01*
X123941318Y-71666000D01*
X124169485Y-71620614D01*
X124384413Y-71531588D01*
X124577843Y-71402342D01*
X124742342Y-71237843D01*
X124871588Y-71044413D01*
X124960614Y-70829485D01*
X125006000Y-70601318D01*
X125006000Y-70368682D01*
X125184000Y-70368682D01*
X125184000Y-70601318D01*
X125229386Y-70829485D01*
X125318412Y-71044413D01*
X125447658Y-71237843D01*
X125612157Y-71402342D01*
X125805587Y-71531588D01*
X126020515Y-71620614D01*
X126248682Y-71666000D01*
X126481318Y-71666000D01*
X126709485Y-71620614D01*
X126924413Y-71531588D01*
X127117843Y-71402342D01*
X127282342Y-71237843D01*
X127411588Y-71044413D01*
X127500614Y-70829485D01*
X127546000Y-70601318D01*
X127546000Y-70368682D01*
X127724000Y-70368682D01*
X127724000Y-70601318D01*
X127769386Y-70829485D01*
X127858412Y-71044413D01*
X127987658Y-71237843D01*
X128152157Y-71402342D01*
X128345587Y-71531588D01*
X128560515Y-71620614D01*
X128788682Y-71666000D01*
X129021318Y-71666000D01*
X129249485Y-71620614D01*
X129464413Y-71531588D01*
X129657843Y-71402342D01*
X129822342Y-71237843D01*
X129951588Y-71044413D01*
X130040614Y-70829485D01*
X130086000Y-70601318D01*
X130086000Y-70368682D01*
X130264000Y-70368682D01*
X130264000Y-70601318D01*
X130309386Y-70829485D01*
X130398412Y-71044413D01*
X130527658Y-71237843D01*
X130692157Y-71402342D01*
X130885587Y-71531588D01*
X131100515Y-71620614D01*
X131328682Y-71666000D01*
X131561318Y-71666000D01*
X131789485Y-71620614D01*
X132004413Y-71531588D01*
X132197843Y-71402342D01*
X132362342Y-71237843D01*
X132491588Y-71044413D01*
X132580614Y-70829485D01*
X132626000Y-70601318D01*
X132626000Y-70368682D01*
X132804000Y-70368682D01*
X132804000Y-70601318D01*
X132849386Y-70829485D01*
X132938412Y-71044413D01*
X133067658Y-71237843D01*
X133232157Y-71402342D01*
X133425587Y-71531588D01*
X133640515Y-71620614D01*
X133868682Y-71666000D01*
X134101318Y-71666000D01*
X134329485Y-71620614D01*
X134544413Y-71531588D01*
X134737843Y-71402342D01*
X134902342Y-71237843D01*
X135031588Y-71044413D01*
X135120614Y-70829485D01*
X135166000Y-70601318D01*
X135166000Y-70368682D01*
X135344000Y-70368682D01*
X135344000Y-70601318D01*
X135389386Y-70829485D01*
X135478412Y-71044413D01*
X135607658Y-71237843D01*
X135772157Y-71402342D01*
X135965587Y-71531588D01*
X136180515Y-71620614D01*
X136408682Y-71666000D01*
X136641318Y-71666000D01*
X136869485Y-71620614D01*
X137084413Y-71531588D01*
X137277843Y-71402342D01*
X137442342Y-71237843D01*
X137571588Y-71044413D01*
X137660614Y-70829485D01*
X137706000Y-70601318D01*
X137706000Y-70368682D01*
X137884000Y-70368682D01*
X137884000Y-70601318D01*
X137929386Y-70829485D01*
X138018412Y-71044413D01*
X138147658Y-71237843D01*
X138312157Y-71402342D01*
X138505587Y-71531588D01*
X138720515Y-71620614D01*
X138948682Y-71666000D01*
X139181318Y-71666000D01*
X139409485Y-71620614D01*
X139624413Y-71531588D01*
X139817843Y-71402342D01*
X139982342Y-71237843D01*
X140111588Y-71044413D01*
X140200614Y-70829485D01*
X140246000Y-70601318D01*
X140246000Y-70368682D01*
X140424000Y-70368682D01*
X140424000Y-70601318D01*
X140469386Y-70829485D01*
X140558412Y-71044413D01*
X140687658Y-71237843D01*
X140852157Y-71402342D01*
X141045587Y-71531588D01*
X141260515Y-71620614D01*
X141488682Y-71666000D01*
X141721318Y-71666000D01*
X141949485Y-71620614D01*
X142164413Y-71531588D01*
X142357843Y-71402342D01*
X142522342Y-71237843D01*
X142651588Y-71044413D01*
X142740614Y-70829485D01*
X142786000Y-70601318D01*
X142786000Y-70368682D01*
X142964000Y-70368682D01*
X142964000Y-70601318D01*
X143009386Y-70829485D01*
X143098412Y-71044413D01*
X143227658Y-71237843D01*
X143392157Y-71402342D01*
X143585587Y-71531588D01*
X143800515Y-71620614D01*
X144028682Y-71666000D01*
X144261318Y-71666000D01*
X144489485Y-71620614D01*
X144704413Y-71531588D01*
X144897843Y-71402342D01*
X145062342Y-71237843D01*
X145191588Y-71044413D01*
X145280614Y-70829485D01*
X145326000Y-70601318D01*
X145326000Y-70368682D01*
X145504000Y-70368682D01*
X145504000Y-70601318D01*
X145549386Y-70829485D01*
X145638412Y-71044413D01*
X145767658Y-71237843D01*
X145932157Y-71402342D01*
X146125587Y-71531588D01*
X146340515Y-71620614D01*
X146568682Y-71666000D01*
X146801318Y-71666000D01*
X147029485Y-71620614D01*
X147244413Y-71531588D01*
X147437843Y-71402342D01*
X147602342Y-71237843D01*
X147731588Y-71044413D01*
X147820614Y-70829485D01*
X147866000Y-70601318D01*
X147866000Y-70368682D01*
X148044000Y-70368682D01*
X148044000Y-70601318D01*
X148089386Y-70829485D01*
X148178412Y-71044413D01*
X148307658Y-71237843D01*
X148472157Y-71402342D01*
X148665587Y-71531588D01*
X148880515Y-71620614D01*
X149108682Y-71666000D01*
X149341318Y-71666000D01*
X149569485Y-71620614D01*
X149784413Y-71531588D01*
X149977843Y-71402342D01*
X150142342Y-71237843D01*
X150271588Y-71044413D01*
X150360614Y-70829485D01*
X150406000Y-70601318D01*
X150406000Y-70368682D01*
X150584000Y-70368682D01*
X150584000Y-70601318D01*
X150629386Y-70829485D01*
X150718412Y-71044413D01*
X150847658Y-71237843D01*
X151012157Y-71402342D01*
X151205587Y-71531588D01*
X151420515Y-71620614D01*
X151648682Y-71666000D01*
X151881318Y-71666000D01*
X152109485Y-71620614D01*
X152324413Y-71531588D01*
X152517843Y-71402342D01*
X152682342Y-71237843D01*
X152811588Y-71044413D01*
X152900614Y-70829485D01*
X152946000Y-70601318D01*
X152946000Y-70368682D01*
X153124000Y-70368682D01*
X153124000Y-70601318D01*
X153169386Y-70829485D01*
X153258412Y-71044413D01*
X153387658Y-71237843D01*
X153552157Y-71402342D01*
X153745587Y-71531588D01*
X153960515Y-71620614D01*
X154188682Y-71666000D01*
X154421318Y-71666000D01*
X154649485Y-71620614D01*
X154864413Y-71531588D01*
X155057843Y-71402342D01*
X155222342Y-71237843D01*
X155351588Y-71044413D01*
X155440614Y-70829485D01*
X155486000Y-70601318D01*
X155486000Y-70368682D01*
X155664000Y-70368682D01*
X155664000Y-70601318D01*
X155709386Y-70829485D01*
X155798412Y-71044413D01*
X155927658Y-71237843D01*
X156092157Y-71402342D01*
X156285587Y-71531588D01*
X156500515Y-71620614D01*
X156728682Y-71666000D01*
X156961318Y-71666000D01*
X157189485Y-71620614D01*
X157404413Y-71531588D01*
X157597843Y-71402342D01*
X157762342Y-71237843D01*
X157891588Y-71044413D01*
X157980614Y-70829485D01*
X158026000Y-70601318D01*
X158026000Y-70368682D01*
X158204000Y-70368682D01*
X158204000Y-70601318D01*
X158249386Y-70829485D01*
X158338412Y-71044413D01*
X158467658Y-71237843D01*
X158632157Y-71402342D01*
X158825587Y-71531588D01*
X159040515Y-71620614D01*
X159268682Y-71666000D01*
X159501318Y-71666000D01*
X159729485Y-71620614D01*
X159944413Y-71531588D01*
X160137843Y-71402342D01*
X160302342Y-71237843D01*
X160431588Y-71044413D01*
X160520614Y-70829485D01*
X160566000Y-70601318D01*
X160566000Y-70368682D01*
X160520614Y-70140515D01*
X160431588Y-69925587D01*
X160302342Y-69732157D01*
X160255185Y-69685000D01*
X160742157Y-69685000D01*
X160742157Y-71285000D01*
X160749513Y-71359689D01*
X160771299Y-71431508D01*
X160806678Y-71497696D01*
X160854289Y-71555711D01*
X160912304Y-71603322D01*
X160978492Y-71638701D01*
X161050311Y-71660487D01*
X161125000Y-71667843D01*
X162725000Y-71667843D01*
X162799689Y-71660487D01*
X162871508Y-71638701D01*
X162937696Y-71603322D01*
X162995711Y-71555711D01*
X163043322Y-71497696D01*
X163078701Y-71431508D01*
X163100487Y-71359689D01*
X163107843Y-71285000D01*
X163107843Y-69685000D01*
X163100487Y-69610311D01*
X163078701Y-69538492D01*
X163043322Y-69472304D01*
X162995711Y-69414289D01*
X162937696Y-69366678D01*
X162871508Y-69331299D01*
X162799689Y-69309513D01*
X162725000Y-69302157D01*
X161125000Y-69302157D01*
X161050311Y-69309513D01*
X160978492Y-69331299D01*
X160912304Y-69366678D01*
X160854289Y-69414289D01*
X160806678Y-69472304D01*
X160771299Y-69538492D01*
X160749513Y-69610311D01*
X160742157Y-69685000D01*
X160255185Y-69685000D01*
X160137843Y-69567658D01*
X159944413Y-69438412D01*
X159729485Y-69349386D01*
X159501318Y-69304000D01*
X159268682Y-69304000D01*
X159040515Y-69349386D01*
X158825587Y-69438412D01*
X158632157Y-69567658D01*
X158467658Y-69732157D01*
X158338412Y-69925587D01*
X158249386Y-70140515D01*
X158204000Y-70368682D01*
X158026000Y-70368682D01*
X157980614Y-70140515D01*
X157891588Y-69925587D01*
X157762342Y-69732157D01*
X157597843Y-69567658D01*
X157404413Y-69438412D01*
X157189485Y-69349386D01*
X156961318Y-69304000D01*
X156728682Y-69304000D01*
X156500515Y-69349386D01*
X156285587Y-69438412D01*
X156092157Y-69567658D01*
X155927658Y-69732157D01*
X155798412Y-69925587D01*
X155709386Y-70140515D01*
X155664000Y-70368682D01*
X155486000Y-70368682D01*
X155440614Y-70140515D01*
X155351588Y-69925587D01*
X155222342Y-69732157D01*
X155057843Y-69567658D01*
X154864413Y-69438412D01*
X154649485Y-69349386D01*
X154421318Y-69304000D01*
X154188682Y-69304000D01*
X153960515Y-69349386D01*
X153745587Y-69438412D01*
X153552157Y-69567658D01*
X153387658Y-69732157D01*
X153258412Y-69925587D01*
X153169386Y-70140515D01*
X153124000Y-70368682D01*
X152946000Y-70368682D01*
X152900614Y-70140515D01*
X152811588Y-69925587D01*
X152682342Y-69732157D01*
X152517843Y-69567658D01*
X152324413Y-69438412D01*
X152109485Y-69349386D01*
X151881318Y-69304000D01*
X151648682Y-69304000D01*
X151420515Y-69349386D01*
X151205587Y-69438412D01*
X151012157Y-69567658D01*
X150847658Y-69732157D01*
X150718412Y-69925587D01*
X150629386Y-70140515D01*
X150584000Y-70368682D01*
X150406000Y-70368682D01*
X150360614Y-70140515D01*
X150271588Y-69925587D01*
X150142342Y-69732157D01*
X149977843Y-69567658D01*
X149784413Y-69438412D01*
X149569485Y-69349386D01*
X149341318Y-69304000D01*
X149108682Y-69304000D01*
X148880515Y-69349386D01*
X148665587Y-69438412D01*
X148472157Y-69567658D01*
X148307658Y-69732157D01*
X148178412Y-69925587D01*
X148089386Y-70140515D01*
X148044000Y-70368682D01*
X147866000Y-70368682D01*
X147820614Y-70140515D01*
X147731588Y-69925587D01*
X147602342Y-69732157D01*
X147437843Y-69567658D01*
X147244413Y-69438412D01*
X147029485Y-69349386D01*
X146801318Y-69304000D01*
X146568682Y-69304000D01*
X146340515Y-69349386D01*
X146125587Y-69438412D01*
X145932157Y-69567658D01*
X145767658Y-69732157D01*
X145638412Y-69925587D01*
X145549386Y-70140515D01*
X145504000Y-70368682D01*
X145326000Y-70368682D01*
X145280614Y-70140515D01*
X145191588Y-69925587D01*
X145062342Y-69732157D01*
X144897843Y-69567658D01*
X144704413Y-69438412D01*
X144489485Y-69349386D01*
X144261318Y-69304000D01*
X144028682Y-69304000D01*
X143800515Y-69349386D01*
X143585587Y-69438412D01*
X143392157Y-69567658D01*
X143227658Y-69732157D01*
X143098412Y-69925587D01*
X143009386Y-70140515D01*
X142964000Y-70368682D01*
X142786000Y-70368682D01*
X142740614Y-70140515D01*
X142651588Y-69925587D01*
X142522342Y-69732157D01*
X142357843Y-69567658D01*
X142164413Y-69438412D01*
X141949485Y-69349386D01*
X141721318Y-69304000D01*
X141488682Y-69304000D01*
X141260515Y-69349386D01*
X141045587Y-69438412D01*
X140852157Y-69567658D01*
X140687658Y-69732157D01*
X140558412Y-69925587D01*
X140469386Y-70140515D01*
X140424000Y-70368682D01*
X140246000Y-70368682D01*
X140200614Y-70140515D01*
X140111588Y-69925587D01*
X139982342Y-69732157D01*
X139817843Y-69567658D01*
X139624413Y-69438412D01*
X139409485Y-69349386D01*
X139181318Y-69304000D01*
X138948682Y-69304000D01*
X138720515Y-69349386D01*
X138505587Y-69438412D01*
X138312157Y-69567658D01*
X138147658Y-69732157D01*
X138018412Y-69925587D01*
X137929386Y-70140515D01*
X137884000Y-70368682D01*
X137706000Y-70368682D01*
X137660614Y-70140515D01*
X137571588Y-69925587D01*
X137442342Y-69732157D01*
X137277843Y-69567658D01*
X137084413Y-69438412D01*
X136869485Y-69349386D01*
X136641318Y-69304000D01*
X136408682Y-69304000D01*
X136180515Y-69349386D01*
X135965587Y-69438412D01*
X135772157Y-69567658D01*
X135607658Y-69732157D01*
X135478412Y-69925587D01*
X135389386Y-70140515D01*
X135344000Y-70368682D01*
X135166000Y-70368682D01*
X135120614Y-70140515D01*
X135031588Y-69925587D01*
X134902342Y-69732157D01*
X134737843Y-69567658D01*
X134544413Y-69438412D01*
X134329485Y-69349386D01*
X134101318Y-69304000D01*
X133868682Y-69304000D01*
X133640515Y-69349386D01*
X133425587Y-69438412D01*
X133232157Y-69567658D01*
X133067658Y-69732157D01*
X132938412Y-69925587D01*
X132849386Y-70140515D01*
X132804000Y-70368682D01*
X132626000Y-70368682D01*
X132580614Y-70140515D01*
X132491588Y-69925587D01*
X132362342Y-69732157D01*
X132197843Y-69567658D01*
X132004413Y-69438412D01*
X131789485Y-69349386D01*
X131561318Y-69304000D01*
X131328682Y-69304000D01*
X131100515Y-69349386D01*
X130885587Y-69438412D01*
X130692157Y-69567658D01*
X130527658Y-69732157D01*
X130398412Y-69925587D01*
X130309386Y-70140515D01*
X130264000Y-70368682D01*
X130086000Y-70368682D01*
X130040614Y-70140515D01*
X129951588Y-69925587D01*
X129822342Y-69732157D01*
X129657843Y-69567658D01*
X129464413Y-69438412D01*
X129249485Y-69349386D01*
X129021318Y-69304000D01*
X128788682Y-69304000D01*
X128560515Y-69349386D01*
X128345587Y-69438412D01*
X128152157Y-69567658D01*
X127987658Y-69732157D01*
X127858412Y-69925587D01*
X127769386Y-70140515D01*
X127724000Y-70368682D01*
X127546000Y-70368682D01*
X127500614Y-70140515D01*
X127411588Y-69925587D01*
X127282342Y-69732157D01*
X127117843Y-69567658D01*
X126924413Y-69438412D01*
X126709485Y-69349386D01*
X126481318Y-69304000D01*
X126248682Y-69304000D01*
X126020515Y-69349386D01*
X125805587Y-69438412D01*
X125612157Y-69567658D01*
X125447658Y-69732157D01*
X125318412Y-69925587D01*
X125229386Y-70140515D01*
X125184000Y-70368682D01*
X125006000Y-70368682D01*
X124960614Y-70140515D01*
X124871588Y-69925587D01*
X124742342Y-69732157D01*
X124577843Y-69567658D01*
X124384413Y-69438412D01*
X124169485Y-69349386D01*
X123941318Y-69304000D01*
X123708682Y-69304000D01*
X123480515Y-69349386D01*
X123265587Y-69438412D01*
X123072157Y-69567658D01*
X122907658Y-69732157D01*
X122778412Y-69925587D01*
X122689386Y-70140515D01*
X122644000Y-70368682D01*
X122466000Y-70368682D01*
X122420614Y-70140515D01*
X122331588Y-69925587D01*
X122202342Y-69732157D01*
X122037843Y-69567658D01*
X121844413Y-69438412D01*
X121629485Y-69349386D01*
X121401318Y-69304000D01*
X121168682Y-69304000D01*
X120940515Y-69349386D01*
X120725587Y-69438412D01*
X120532157Y-69567658D01*
X120367658Y-69732157D01*
X120238412Y-69925587D01*
X120149386Y-70140515D01*
X120104000Y-70368682D01*
X119926000Y-70368682D01*
X119880614Y-70140515D01*
X119791588Y-69925587D01*
X119662342Y-69732157D01*
X119497843Y-69567658D01*
X119304413Y-69438412D01*
X119089485Y-69349386D01*
X118861318Y-69304000D01*
X118628682Y-69304000D01*
X118400515Y-69349386D01*
X118185587Y-69438412D01*
X117992157Y-69567658D01*
X117827658Y-69732157D01*
X117698412Y-69925587D01*
X117609386Y-70140515D01*
X117564000Y-70368682D01*
X117386000Y-70368682D01*
X117340614Y-70140515D01*
X117251588Y-69925587D01*
X117122342Y-69732157D01*
X116957843Y-69567658D01*
X116764413Y-69438412D01*
X116549485Y-69349386D01*
X116321318Y-69304000D01*
X116088682Y-69304000D01*
X115860515Y-69349386D01*
X115645587Y-69438412D01*
X115452157Y-69567658D01*
X115287658Y-69732157D01*
X115158412Y-69925587D01*
X115069386Y-70140515D01*
X115024000Y-70368682D01*
X114846000Y-70368682D01*
X114800614Y-70140515D01*
X114711588Y-69925587D01*
X114582342Y-69732157D01*
X114417843Y-69567658D01*
X114224413Y-69438412D01*
X114009485Y-69349386D01*
X113781318Y-69304000D01*
X113548682Y-69304000D01*
X113320515Y-69349386D01*
X113105587Y-69438412D01*
X112912157Y-69567658D01*
X112747658Y-69732157D01*
X112618412Y-69925587D01*
X112529386Y-70140515D01*
X112484000Y-70368682D01*
X112306000Y-70368682D01*
X112260614Y-70140515D01*
X112171588Y-69925587D01*
X112042342Y-69732157D01*
X111877843Y-69567658D01*
X111684413Y-69438412D01*
X111469485Y-69349386D01*
X111241318Y-69304000D01*
X111008682Y-69304000D01*
X110780515Y-69349386D01*
X110565587Y-69438412D01*
X110372157Y-69567658D01*
X110207658Y-69732157D01*
X110078412Y-69925587D01*
X109989386Y-70140515D01*
X109944000Y-70368682D01*
X109766000Y-70368682D01*
X109720614Y-70140515D01*
X109631588Y-69925587D01*
X109502342Y-69732157D01*
X109337843Y-69567658D01*
X109144413Y-69438412D01*
X108929485Y-69349386D01*
X108701318Y-69304000D01*
X108468682Y-69304000D01*
X108240515Y-69349386D01*
X108025587Y-69438412D01*
X107832157Y-69567658D01*
X107667658Y-69732157D01*
X107538412Y-69925587D01*
X107449386Y-70140515D01*
X107404000Y-70368682D01*
X107226000Y-70368682D01*
X107180614Y-70140515D01*
X107091588Y-69925587D01*
X106962342Y-69732157D01*
X106797843Y-69567658D01*
X106604413Y-69438412D01*
X106389485Y-69349386D01*
X106161318Y-69304000D01*
X105928682Y-69304000D01*
X105700515Y-69349386D01*
X105485587Y-69438412D01*
X105292157Y-69567658D01*
X105127658Y-69732157D01*
X104998412Y-69925587D01*
X104909386Y-70140515D01*
X104864000Y-70368682D01*
X104686000Y-70368682D01*
X104640614Y-70140515D01*
X104551588Y-69925587D01*
X104422342Y-69732157D01*
X104257843Y-69567658D01*
X104064413Y-69438412D01*
X103849485Y-69349386D01*
X103621318Y-69304000D01*
X103388682Y-69304000D01*
X103160515Y-69349386D01*
X102945587Y-69438412D01*
X102752157Y-69567658D01*
X102587658Y-69732157D01*
X102458412Y-69925587D01*
X102369386Y-70140515D01*
X102324000Y-70368682D01*
X74776000Y-70368682D01*
X74776000Y-69111520D01*
X74790870Y-68959865D01*
X74828082Y-68836612D01*
X74888526Y-68722932D01*
X74969899Y-68623159D01*
X75069105Y-68541089D01*
X75182357Y-68479853D01*
X75305352Y-68441780D01*
X75455492Y-68426000D01*
X162536480Y-68426000D01*
X162688135Y-68440870D01*
G04 #@! TA.AperFunction,Conductor*
D15*
G36*
X162688135Y-68440870D02*
G01*
X162811388Y-68478082D01*
X162925068Y-68538526D01*
X163024841Y-68619899D01*
X163106911Y-68719105D01*
X163168147Y-68832357D01*
X163206220Y-68955352D01*
X163222000Y-69105492D01*
X163222001Y-88876470D01*
X163207130Y-89028135D01*
X163169918Y-89151388D01*
X163109474Y-89265067D01*
X163028097Y-89364845D01*
X162928897Y-89446910D01*
X162815640Y-89508148D01*
X162696004Y-89545181D01*
X162842342Y-89398843D01*
X162971588Y-89205413D01*
X163060614Y-88990485D01*
X163106000Y-88762318D01*
X163106000Y-88529682D01*
X163060614Y-88301515D01*
X162971588Y-88086587D01*
X162842342Y-87893157D01*
X162677843Y-87728658D01*
X162484413Y-87599412D01*
X162269485Y-87510386D01*
X162041318Y-87465000D01*
X161808682Y-87465000D01*
X161580515Y-87510386D01*
X161365587Y-87599412D01*
X161172157Y-87728658D01*
X161007658Y-87893157D01*
X160878412Y-88086587D01*
X160789386Y-88301515D01*
X160744000Y-88529682D01*
X160744000Y-88762318D01*
X160789386Y-88990485D01*
X160878412Y-89205413D01*
X161007658Y-89398843D01*
X161170815Y-89562000D01*
X160139185Y-89562000D01*
X160302342Y-89398843D01*
X160431588Y-89205413D01*
X160520614Y-88990485D01*
X160566000Y-88762318D01*
X160566000Y-88529682D01*
X160520614Y-88301515D01*
X160431588Y-88086587D01*
X160302342Y-87893157D01*
X160137843Y-87728658D01*
X159944413Y-87599412D01*
X159729485Y-87510386D01*
X159501318Y-87465000D01*
X159268682Y-87465000D01*
X159040515Y-87510386D01*
X158825587Y-87599412D01*
X158632157Y-87728658D01*
X158467658Y-87893157D01*
X158338412Y-88086587D01*
X158249386Y-88301515D01*
X158204000Y-88529682D01*
X158204000Y-88762318D01*
X158249386Y-88990485D01*
X158338412Y-89205413D01*
X158467658Y-89398843D01*
X158630815Y-89562000D01*
X157599185Y-89562000D01*
X157762342Y-89398843D01*
X157891588Y-89205413D01*
X157980614Y-88990485D01*
X158026000Y-88762318D01*
X158026000Y-88529682D01*
X157980614Y-88301515D01*
X157891588Y-88086587D01*
X157762342Y-87893157D01*
X157597843Y-87728658D01*
X157404413Y-87599412D01*
X157189485Y-87510386D01*
X156961318Y-87465000D01*
X156728682Y-87465000D01*
X156500515Y-87510386D01*
X156285587Y-87599412D01*
X156092157Y-87728658D01*
X155927658Y-87893157D01*
X155798412Y-88086587D01*
X155709386Y-88301515D01*
X155664000Y-88529682D01*
X155664000Y-88762318D01*
X155709386Y-88990485D01*
X155798412Y-89205413D01*
X155927658Y-89398843D01*
X156090815Y-89562000D01*
X155059185Y-89562000D01*
X155222342Y-89398843D01*
X155351588Y-89205413D01*
X155440614Y-88990485D01*
X155486000Y-88762318D01*
X155486000Y-88529682D01*
X155440614Y-88301515D01*
X155351588Y-88086587D01*
X155222342Y-87893157D01*
X155057843Y-87728658D01*
X154864413Y-87599412D01*
X154649485Y-87510386D01*
X154421318Y-87465000D01*
X154188682Y-87465000D01*
X153960515Y-87510386D01*
X153745587Y-87599412D01*
X153552157Y-87728658D01*
X153387658Y-87893157D01*
X153258412Y-88086587D01*
X153169386Y-88301515D01*
X153124000Y-88529682D01*
X153124000Y-88762318D01*
X153169386Y-88990485D01*
X153258412Y-89205413D01*
X153387658Y-89398843D01*
X153550815Y-89562000D01*
X152519185Y-89562000D01*
X152682342Y-89398843D01*
X152811588Y-89205413D01*
X152900614Y-88990485D01*
X152946000Y-88762318D01*
X152946000Y-88529682D01*
X152900614Y-88301515D01*
X152811588Y-88086587D01*
X152682342Y-87893157D01*
X152517843Y-87728658D01*
X152324413Y-87599412D01*
X152109485Y-87510386D01*
X151881318Y-87465000D01*
X151648682Y-87465000D01*
X151420515Y-87510386D01*
X151205587Y-87599412D01*
X151012157Y-87728658D01*
X150847658Y-87893157D01*
X150718412Y-88086587D01*
X150629386Y-88301515D01*
X150584000Y-88529682D01*
X150584000Y-88762318D01*
X150629386Y-88990485D01*
X150718412Y-89205413D01*
X150847658Y-89398843D01*
X151010815Y-89562000D01*
X149979185Y-89562000D01*
X150142342Y-89398843D01*
X150271588Y-89205413D01*
X150360614Y-88990485D01*
X150406000Y-88762318D01*
X150406000Y-88529682D01*
X150360614Y-88301515D01*
X150271588Y-88086587D01*
X150142342Y-87893157D01*
X149977843Y-87728658D01*
X149784413Y-87599412D01*
X149569485Y-87510386D01*
X149341318Y-87465000D01*
X149108682Y-87465000D01*
X148880515Y-87510386D01*
X148665587Y-87599412D01*
X148472157Y-87728658D01*
X148307658Y-87893157D01*
X148178412Y-88086587D01*
X148089386Y-88301515D01*
X148044000Y-88529682D01*
X148044000Y-88762318D01*
X148089386Y-88990485D01*
X148178412Y-89205413D01*
X148307658Y-89398843D01*
X148470815Y-89562000D01*
X147439185Y-89562000D01*
X147602342Y-89398843D01*
X147731588Y-89205413D01*
X147820614Y-88990485D01*
X147866000Y-88762318D01*
X147866000Y-88529682D01*
X147820614Y-88301515D01*
X147731588Y-88086587D01*
X147602342Y-87893157D01*
X147437843Y-87728658D01*
X147244413Y-87599412D01*
X147029485Y-87510386D01*
X146801318Y-87465000D01*
X146568682Y-87465000D01*
X146340515Y-87510386D01*
X146125587Y-87599412D01*
X145932157Y-87728658D01*
X145767658Y-87893157D01*
X145638412Y-88086587D01*
X145549386Y-88301515D01*
X145504000Y-88529682D01*
X145504000Y-88762318D01*
X145549386Y-88990485D01*
X145638412Y-89205413D01*
X145767658Y-89398843D01*
X145930815Y-89562000D01*
X144899185Y-89562000D01*
X145062342Y-89398843D01*
X145191588Y-89205413D01*
X145280614Y-88990485D01*
X145326000Y-88762318D01*
X145326000Y-88529682D01*
X145280614Y-88301515D01*
X145191588Y-88086587D01*
X145062342Y-87893157D01*
X144897843Y-87728658D01*
X144704413Y-87599412D01*
X144489485Y-87510386D01*
X144261318Y-87465000D01*
X144028682Y-87465000D01*
X143800515Y-87510386D01*
X143585587Y-87599412D01*
X143392157Y-87728658D01*
X143227658Y-87893157D01*
X143098412Y-88086587D01*
X143009386Y-88301515D01*
X142964000Y-88529682D01*
X142964000Y-88762318D01*
X143009386Y-88990485D01*
X143098412Y-89205413D01*
X143227658Y-89398843D01*
X143390815Y-89562000D01*
X142359185Y-89562000D01*
X142522342Y-89398843D01*
X142651588Y-89205413D01*
X142740614Y-88990485D01*
X142786000Y-88762318D01*
X142786000Y-88529682D01*
X142740614Y-88301515D01*
X142651588Y-88086587D01*
X142522342Y-87893157D01*
X142357843Y-87728658D01*
X142164413Y-87599412D01*
X141949485Y-87510386D01*
X141721318Y-87465000D01*
X141488682Y-87465000D01*
X141260515Y-87510386D01*
X141045587Y-87599412D01*
X140852157Y-87728658D01*
X140687658Y-87893157D01*
X140558412Y-88086587D01*
X140469386Y-88301515D01*
X140424000Y-88529682D01*
X140424000Y-88762318D01*
X140469386Y-88990485D01*
X140558412Y-89205413D01*
X140687658Y-89398843D01*
X140850815Y-89562000D01*
X139819185Y-89562000D01*
X139982342Y-89398843D01*
X140111588Y-89205413D01*
X140200614Y-88990485D01*
X140246000Y-88762318D01*
X140246000Y-88529682D01*
X140200614Y-88301515D01*
X140111588Y-88086587D01*
X139982342Y-87893157D01*
X139817843Y-87728658D01*
X139624413Y-87599412D01*
X139409485Y-87510386D01*
X139181318Y-87465000D01*
X138948682Y-87465000D01*
X138720515Y-87510386D01*
X138505587Y-87599412D01*
X138312157Y-87728658D01*
X138147658Y-87893157D01*
X138018412Y-88086587D01*
X137929386Y-88301515D01*
X137884000Y-88529682D01*
X137884000Y-88762318D01*
X137929386Y-88990485D01*
X138018412Y-89205413D01*
X138147658Y-89398843D01*
X138310815Y-89562000D01*
X137279185Y-89562000D01*
X137442342Y-89398843D01*
X137571588Y-89205413D01*
X137660614Y-88990485D01*
X137706000Y-88762318D01*
X137706000Y-88529682D01*
X137660614Y-88301515D01*
X137571588Y-88086587D01*
X137442342Y-87893157D01*
X137277843Y-87728658D01*
X137084413Y-87599412D01*
X136869485Y-87510386D01*
X136641318Y-87465000D01*
X136408682Y-87465000D01*
X136180515Y-87510386D01*
X135965587Y-87599412D01*
X135772157Y-87728658D01*
X135607658Y-87893157D01*
X135478412Y-88086587D01*
X135389386Y-88301515D01*
X135344000Y-88529682D01*
X135344000Y-88762318D01*
X135389386Y-88990485D01*
X135478412Y-89205413D01*
X135607658Y-89398843D01*
X135770815Y-89562000D01*
X134724878Y-89562000D01*
X134761003Y-89536278D01*
X134919777Y-89367781D01*
X135042628Y-89171546D01*
X135124835Y-88955115D01*
X135063908Y-88773000D01*
X134112000Y-88773000D01*
X134112000Y-88793000D01*
X133858000Y-88793000D01*
X133858000Y-88773000D01*
X132906092Y-88773000D01*
X132845165Y-88955115D01*
X132927372Y-89171546D01*
X133050223Y-89367781D01*
X133208997Y-89536278D01*
X133245122Y-89562000D01*
X132199185Y-89562000D01*
X132362342Y-89398843D01*
X132491588Y-89205413D01*
X132580614Y-88990485D01*
X132626000Y-88762318D01*
X132626000Y-88529682D01*
X132587650Y-88336885D01*
X132845165Y-88336885D01*
X132906092Y-88519000D01*
X133858000Y-88519000D01*
X133858000Y-87567703D01*
X134112000Y-87567703D01*
X134112000Y-88519000D01*
X135063908Y-88519000D01*
X135124835Y-88336885D01*
X135042628Y-88120454D01*
X134919777Y-87924219D01*
X134761003Y-87755722D01*
X134572408Y-87621438D01*
X134361239Y-87526527D01*
X134294114Y-87506171D01*
X134112000Y-87567703D01*
X133858000Y-87567703D01*
X133675886Y-87506171D01*
X133608761Y-87526527D01*
X133397592Y-87621438D01*
X133208997Y-87755722D01*
X133050223Y-87924219D01*
X132927372Y-88120454D01*
X132845165Y-88336885D01*
X132587650Y-88336885D01*
X132580614Y-88301515D01*
X132491588Y-88086587D01*
X132362342Y-87893157D01*
X132197843Y-87728658D01*
X132004413Y-87599412D01*
X131789485Y-87510386D01*
X131561318Y-87465000D01*
X131328682Y-87465000D01*
X131100515Y-87510386D01*
X130885587Y-87599412D01*
X130692157Y-87728658D01*
X130527658Y-87893157D01*
X130398412Y-88086587D01*
X130309386Y-88301515D01*
X130264000Y-88529682D01*
X130264000Y-88762318D01*
X130309386Y-88990485D01*
X130398412Y-89205413D01*
X130527658Y-89398843D01*
X130690815Y-89562000D01*
X129659185Y-89562000D01*
X129822342Y-89398843D01*
X129951588Y-89205413D01*
X130040614Y-88990485D01*
X130086000Y-88762318D01*
X130086000Y-88529682D01*
X130040614Y-88301515D01*
X129951588Y-88086587D01*
X129822342Y-87893157D01*
X129657843Y-87728658D01*
X129464413Y-87599412D01*
X129249485Y-87510386D01*
X129021318Y-87465000D01*
X128788682Y-87465000D01*
X128560515Y-87510386D01*
X128345587Y-87599412D01*
X128152157Y-87728658D01*
X127987658Y-87893157D01*
X127858412Y-88086587D01*
X127769386Y-88301515D01*
X127724000Y-88529682D01*
X127724000Y-88762318D01*
X127769386Y-88990485D01*
X127858412Y-89205413D01*
X127987658Y-89398843D01*
X128150815Y-89562000D01*
X127119185Y-89562000D01*
X127282342Y-89398843D01*
X127411588Y-89205413D01*
X127500614Y-88990485D01*
X127546000Y-88762318D01*
X127546000Y-88529682D01*
X127500614Y-88301515D01*
X127411588Y-88086587D01*
X127282342Y-87893157D01*
X127117843Y-87728658D01*
X126924413Y-87599412D01*
X126709485Y-87510386D01*
X126481318Y-87465000D01*
X126248682Y-87465000D01*
X126020515Y-87510386D01*
X125805587Y-87599412D01*
X125612157Y-87728658D01*
X125447658Y-87893157D01*
X125318412Y-88086587D01*
X125229386Y-88301515D01*
X125184000Y-88529682D01*
X125184000Y-88762318D01*
X125229386Y-88990485D01*
X125318412Y-89205413D01*
X125447658Y-89398843D01*
X125610815Y-89562000D01*
X124579185Y-89562000D01*
X124742342Y-89398843D01*
X124871588Y-89205413D01*
X124960614Y-88990485D01*
X125006000Y-88762318D01*
X125006000Y-88529682D01*
X124960614Y-88301515D01*
X124871588Y-88086587D01*
X124742342Y-87893157D01*
X124577843Y-87728658D01*
X124384413Y-87599412D01*
X124169485Y-87510386D01*
X123941318Y-87465000D01*
X123708682Y-87465000D01*
X123480515Y-87510386D01*
X123265587Y-87599412D01*
X123072157Y-87728658D01*
X122907658Y-87893157D01*
X122778412Y-88086587D01*
X122689386Y-88301515D01*
X122644000Y-88529682D01*
X122644000Y-88762318D01*
X122689386Y-88990485D01*
X122778412Y-89205413D01*
X122907658Y-89398843D01*
X123070815Y-89562000D01*
X122039185Y-89562000D01*
X122202342Y-89398843D01*
X122331588Y-89205413D01*
X122420614Y-88990485D01*
X122466000Y-88762318D01*
X122466000Y-88529682D01*
X122420614Y-88301515D01*
X122331588Y-88086587D01*
X122202342Y-87893157D01*
X122037843Y-87728658D01*
X121844413Y-87599412D01*
X121629485Y-87510386D01*
X121401318Y-87465000D01*
X121168682Y-87465000D01*
X120940515Y-87510386D01*
X120725587Y-87599412D01*
X120532157Y-87728658D01*
X120367658Y-87893157D01*
X120238412Y-88086587D01*
X120149386Y-88301515D01*
X120104000Y-88529682D01*
X120104000Y-88762318D01*
X120149386Y-88990485D01*
X120238412Y-89205413D01*
X120367658Y-89398843D01*
X120530815Y-89562000D01*
X119499185Y-89562000D01*
X119662342Y-89398843D01*
X119791588Y-89205413D01*
X119880614Y-88990485D01*
X119926000Y-88762318D01*
X119926000Y-88529682D01*
X119880614Y-88301515D01*
X119791588Y-88086587D01*
X119662342Y-87893157D01*
X119497843Y-87728658D01*
X119304413Y-87599412D01*
X119089485Y-87510386D01*
X118861318Y-87465000D01*
X118628682Y-87465000D01*
X118400515Y-87510386D01*
X118185587Y-87599412D01*
X117992157Y-87728658D01*
X117827658Y-87893157D01*
X117698412Y-88086587D01*
X117609386Y-88301515D01*
X117564000Y-88529682D01*
X117564000Y-88762318D01*
X117609386Y-88990485D01*
X117698412Y-89205413D01*
X117827658Y-89398843D01*
X117990815Y-89562000D01*
X116959185Y-89562000D01*
X117122342Y-89398843D01*
X117251588Y-89205413D01*
X117340614Y-88990485D01*
X117386000Y-88762318D01*
X117386000Y-88529682D01*
X117340614Y-88301515D01*
X117251588Y-88086587D01*
X117122342Y-87893157D01*
X116957843Y-87728658D01*
X116764413Y-87599412D01*
X116549485Y-87510386D01*
X116321318Y-87465000D01*
X116088682Y-87465000D01*
X115860515Y-87510386D01*
X115645587Y-87599412D01*
X115452157Y-87728658D01*
X115287658Y-87893157D01*
X115158412Y-88086587D01*
X115069386Y-88301515D01*
X115024000Y-88529682D01*
X115024000Y-88762318D01*
X115069386Y-88990485D01*
X115158412Y-89205413D01*
X115287658Y-89398843D01*
X115450815Y-89562000D01*
X114419185Y-89562000D01*
X114582342Y-89398843D01*
X114711588Y-89205413D01*
X114800614Y-88990485D01*
X114846000Y-88762318D01*
X114846000Y-88529682D01*
X114800614Y-88301515D01*
X114711588Y-88086587D01*
X114582342Y-87893157D01*
X114417843Y-87728658D01*
X114224413Y-87599412D01*
X114009485Y-87510386D01*
X113781318Y-87465000D01*
X113548682Y-87465000D01*
X113320515Y-87510386D01*
X113105587Y-87599412D01*
X112912157Y-87728658D01*
X112747658Y-87893157D01*
X112618412Y-88086587D01*
X112529386Y-88301515D01*
X112484000Y-88529682D01*
X112484000Y-88762318D01*
X112529386Y-88990485D01*
X112618412Y-89205413D01*
X112747658Y-89398843D01*
X112910815Y-89562000D01*
X111879185Y-89562000D01*
X112042342Y-89398843D01*
X112171588Y-89205413D01*
X112260614Y-88990485D01*
X112306000Y-88762318D01*
X112306000Y-88529682D01*
X112260614Y-88301515D01*
X112171588Y-88086587D01*
X112042342Y-87893157D01*
X111877843Y-87728658D01*
X111684413Y-87599412D01*
X111469485Y-87510386D01*
X111241318Y-87465000D01*
X111008682Y-87465000D01*
X110780515Y-87510386D01*
X110565587Y-87599412D01*
X110372157Y-87728658D01*
X110207658Y-87893157D01*
X110078412Y-88086587D01*
X109989386Y-88301515D01*
X109944000Y-88529682D01*
X109944000Y-88762318D01*
X109989386Y-88990485D01*
X110078412Y-89205413D01*
X110207658Y-89398843D01*
X110370815Y-89562000D01*
X109339185Y-89562000D01*
X109502342Y-89398843D01*
X109631588Y-89205413D01*
X109720614Y-88990485D01*
X109766000Y-88762318D01*
X109766000Y-88529682D01*
X109720614Y-88301515D01*
X109631588Y-88086587D01*
X109502342Y-87893157D01*
X109337843Y-87728658D01*
X109144413Y-87599412D01*
X108929485Y-87510386D01*
X108701318Y-87465000D01*
X108468682Y-87465000D01*
X108240515Y-87510386D01*
X108025587Y-87599412D01*
X107832157Y-87728658D01*
X107667658Y-87893157D01*
X107538412Y-88086587D01*
X107449386Y-88301515D01*
X107404000Y-88529682D01*
X107404000Y-88762318D01*
X107449386Y-88990485D01*
X107538412Y-89205413D01*
X107667658Y-89398843D01*
X107830815Y-89562000D01*
X106799185Y-89562000D01*
X106962342Y-89398843D01*
X107091588Y-89205413D01*
X107180614Y-88990485D01*
X107226000Y-88762318D01*
X107226000Y-88529682D01*
X107180614Y-88301515D01*
X107091588Y-88086587D01*
X106962342Y-87893157D01*
X106797843Y-87728658D01*
X106604413Y-87599412D01*
X106389485Y-87510386D01*
X106161318Y-87465000D01*
X105928682Y-87465000D01*
X105700515Y-87510386D01*
X105485587Y-87599412D01*
X105292157Y-87728658D01*
X105127658Y-87893157D01*
X104998412Y-88086587D01*
X104909386Y-88301515D01*
X104864000Y-88529682D01*
X104864000Y-88762318D01*
X104909386Y-88990485D01*
X104998412Y-89205413D01*
X105127658Y-89398843D01*
X105290815Y-89562000D01*
X104259185Y-89562000D01*
X104422342Y-89398843D01*
X104551588Y-89205413D01*
X104640614Y-88990485D01*
X104686000Y-88762318D01*
X104686000Y-88529682D01*
X104640614Y-88301515D01*
X104551588Y-88086587D01*
X104422342Y-87893157D01*
X104257843Y-87728658D01*
X104064413Y-87599412D01*
X103849485Y-87510386D01*
X103621318Y-87465000D01*
X103388682Y-87465000D01*
X103160515Y-87510386D01*
X102945587Y-87599412D01*
X102752157Y-87728658D01*
X102587658Y-87893157D01*
X102458412Y-88086587D01*
X102369386Y-88301515D01*
X102324000Y-88529682D01*
X102324000Y-88762318D01*
X102369386Y-88990485D01*
X102458412Y-89205413D01*
X102587658Y-89398843D01*
X102750815Y-89562000D01*
X75461520Y-89562000D01*
X75309865Y-89547130D01*
X75186612Y-89509918D01*
X75072933Y-89449474D01*
X74973155Y-89368097D01*
X74891090Y-89268897D01*
X74829852Y-89155640D01*
X74791780Y-89032648D01*
X74776000Y-88882508D01*
X74776000Y-85608682D01*
X102324000Y-85608682D01*
X102324000Y-85841318D01*
X102369386Y-86069485D01*
X102458412Y-86284413D01*
X102587658Y-86477843D01*
X102752157Y-86642342D01*
X102945587Y-86771588D01*
X103160515Y-86860614D01*
X103388682Y-86906000D01*
X103621318Y-86906000D01*
X103849485Y-86860614D01*
X104064413Y-86771588D01*
X104257843Y-86642342D01*
X104422342Y-86477843D01*
X104551588Y-86284413D01*
X104640614Y-86069485D01*
X104686000Y-85841318D01*
X104686000Y-85608682D01*
X104864000Y-85608682D01*
X104864000Y-85841318D01*
X104909386Y-86069485D01*
X104998412Y-86284413D01*
X105127658Y-86477843D01*
X105292157Y-86642342D01*
X105485587Y-86771588D01*
X105700515Y-86860614D01*
X105928682Y-86906000D01*
X106161318Y-86906000D01*
X106389485Y-86860614D01*
X106604413Y-86771588D01*
X106797843Y-86642342D01*
X106962342Y-86477843D01*
X107091588Y-86284413D01*
X107180614Y-86069485D01*
X107226000Y-85841318D01*
X107226000Y-85608682D01*
X107404000Y-85608682D01*
X107404000Y-85841318D01*
X107449386Y-86069485D01*
X107538412Y-86284413D01*
X107667658Y-86477843D01*
X107832157Y-86642342D01*
X108025587Y-86771588D01*
X108240515Y-86860614D01*
X108468682Y-86906000D01*
X108701318Y-86906000D01*
X108929485Y-86860614D01*
X109144413Y-86771588D01*
X109337843Y-86642342D01*
X109502342Y-86477843D01*
X109631588Y-86284413D01*
X109720614Y-86069485D01*
X109766000Y-85841318D01*
X109766000Y-85608682D01*
X109944000Y-85608682D01*
X109944000Y-85841318D01*
X109989386Y-86069485D01*
X110078412Y-86284413D01*
X110207658Y-86477843D01*
X110372157Y-86642342D01*
X110565587Y-86771588D01*
X110780515Y-86860614D01*
X111008682Y-86906000D01*
X111241318Y-86906000D01*
X111469485Y-86860614D01*
X111684413Y-86771588D01*
X111877843Y-86642342D01*
X112042342Y-86477843D01*
X112171588Y-86284413D01*
X112260614Y-86069485D01*
X112306000Y-85841318D01*
X112306000Y-85608682D01*
X112484000Y-85608682D01*
X112484000Y-85841318D01*
X112529386Y-86069485D01*
X112618412Y-86284413D01*
X112747658Y-86477843D01*
X112912157Y-86642342D01*
X113105587Y-86771588D01*
X113320515Y-86860614D01*
X113548682Y-86906000D01*
X113781318Y-86906000D01*
X114009485Y-86860614D01*
X114224413Y-86771588D01*
X114417843Y-86642342D01*
X114582342Y-86477843D01*
X114711588Y-86284413D01*
X114800614Y-86069485D01*
X114846000Y-85841318D01*
X114846000Y-85608682D01*
X115024000Y-85608682D01*
X115024000Y-85841318D01*
X115069386Y-86069485D01*
X115158412Y-86284413D01*
X115287658Y-86477843D01*
X115452157Y-86642342D01*
X115645587Y-86771588D01*
X115860515Y-86860614D01*
X116088682Y-86906000D01*
X116321318Y-86906000D01*
X116549485Y-86860614D01*
X116764413Y-86771588D01*
X116957843Y-86642342D01*
X117122342Y-86477843D01*
X117251588Y-86284413D01*
X117340614Y-86069485D01*
X117386000Y-85841318D01*
X117386000Y-85608682D01*
X117564000Y-85608682D01*
X117564000Y-85841318D01*
X117609386Y-86069485D01*
X117698412Y-86284413D01*
X117827658Y-86477843D01*
X117992157Y-86642342D01*
X118185587Y-86771588D01*
X118400515Y-86860614D01*
X118628682Y-86906000D01*
X118861318Y-86906000D01*
X119089485Y-86860614D01*
X119304413Y-86771588D01*
X119497843Y-86642342D01*
X119662342Y-86477843D01*
X119791588Y-86284413D01*
X119880614Y-86069485D01*
X119926000Y-85841318D01*
X119926000Y-85608682D01*
X120104000Y-85608682D01*
X120104000Y-85841318D01*
X120149386Y-86069485D01*
X120238412Y-86284413D01*
X120367658Y-86477843D01*
X120532157Y-86642342D01*
X120725587Y-86771588D01*
X120940515Y-86860614D01*
X121168682Y-86906000D01*
X121401318Y-86906000D01*
X121629485Y-86860614D01*
X121844413Y-86771588D01*
X122037843Y-86642342D01*
X122202342Y-86477843D01*
X122331588Y-86284413D01*
X122420614Y-86069485D01*
X122466000Y-85841318D01*
X122466000Y-85608682D01*
X122644000Y-85608682D01*
X122644000Y-85841318D01*
X122689386Y-86069485D01*
X122778412Y-86284413D01*
X122907658Y-86477843D01*
X123072157Y-86642342D01*
X123265587Y-86771588D01*
X123480515Y-86860614D01*
X123708682Y-86906000D01*
X123941318Y-86906000D01*
X124169485Y-86860614D01*
X124384413Y-86771588D01*
X124577843Y-86642342D01*
X124742342Y-86477843D01*
X124871588Y-86284413D01*
X124960614Y-86069485D01*
X125006000Y-85841318D01*
X125006000Y-85608682D01*
X125184000Y-85608682D01*
X125184000Y-85841318D01*
X125229386Y-86069485D01*
X125318412Y-86284413D01*
X125447658Y-86477843D01*
X125612157Y-86642342D01*
X125805587Y-86771588D01*
X126020515Y-86860614D01*
X126248682Y-86906000D01*
X126481318Y-86906000D01*
X126709485Y-86860614D01*
X126924413Y-86771588D01*
X127117843Y-86642342D01*
X127282342Y-86477843D01*
X127411588Y-86284413D01*
X127500614Y-86069485D01*
X127546000Y-85841318D01*
X127546000Y-85608682D01*
X127724000Y-85608682D01*
X127724000Y-85841318D01*
X127769386Y-86069485D01*
X127858412Y-86284413D01*
X127987658Y-86477843D01*
X128152157Y-86642342D01*
X128345587Y-86771588D01*
X128560515Y-86860614D01*
X128788682Y-86906000D01*
X129021318Y-86906000D01*
X129249485Y-86860614D01*
X129464413Y-86771588D01*
X129657843Y-86642342D01*
X129822342Y-86477843D01*
X129951588Y-86284413D01*
X130040614Y-86069485D01*
X130086000Y-85841318D01*
X130086000Y-85608682D01*
X130040614Y-85380515D01*
X129951588Y-85165587D01*
X129822342Y-84972157D01*
X129775185Y-84925000D01*
X130262157Y-84925000D01*
X130262157Y-86525000D01*
X130269513Y-86599689D01*
X130291299Y-86671508D01*
X130326678Y-86737696D01*
X130374289Y-86795711D01*
X130432304Y-86843322D01*
X130498492Y-86878701D01*
X130570311Y-86900487D01*
X130645000Y-86907843D01*
X132245000Y-86907843D01*
X132319689Y-86900487D01*
X132391508Y-86878701D01*
X132457696Y-86843322D01*
X132515711Y-86795711D01*
X132563322Y-86737696D01*
X132598701Y-86671508D01*
X132620487Y-86599689D01*
X132627843Y-86525000D01*
X132627843Y-86034115D01*
X132845165Y-86034115D01*
X132927372Y-86250546D01*
X133050223Y-86446781D01*
X133208997Y-86615278D01*
X133397592Y-86749562D01*
X133608761Y-86844473D01*
X133675886Y-86864829D01*
X133858000Y-86803297D01*
X133858000Y-85852000D01*
X134112000Y-85852000D01*
X134112000Y-86803297D01*
X134294114Y-86864829D01*
X134361239Y-86844473D01*
X134572408Y-86749562D01*
X134761003Y-86615278D01*
X134919777Y-86446781D01*
X135042628Y-86250546D01*
X135124835Y-86034115D01*
X135063908Y-85852000D01*
X134112000Y-85852000D01*
X133858000Y-85852000D01*
X132906092Y-85852000D01*
X132845165Y-86034115D01*
X132627843Y-86034115D01*
X132627843Y-85608682D01*
X135344000Y-85608682D01*
X135344000Y-85841318D01*
X135389386Y-86069485D01*
X135478412Y-86284413D01*
X135607658Y-86477843D01*
X135772157Y-86642342D01*
X135965587Y-86771588D01*
X136180515Y-86860614D01*
X136408682Y-86906000D01*
X136641318Y-86906000D01*
X136869485Y-86860614D01*
X137084413Y-86771588D01*
X137277843Y-86642342D01*
X137442342Y-86477843D01*
X137571588Y-86284413D01*
X137660614Y-86069485D01*
X137706000Y-85841318D01*
X137706000Y-85608682D01*
X137884000Y-85608682D01*
X137884000Y-85841318D01*
X137929386Y-86069485D01*
X138018412Y-86284413D01*
X138147658Y-86477843D01*
X138312157Y-86642342D01*
X138505587Y-86771588D01*
X138720515Y-86860614D01*
X138948682Y-86906000D01*
X139181318Y-86906000D01*
X139409485Y-86860614D01*
X139624413Y-86771588D01*
X139817843Y-86642342D01*
X139982342Y-86477843D01*
X140111588Y-86284413D01*
X140200614Y-86069485D01*
X140246000Y-85841318D01*
X140246000Y-85608682D01*
X140424000Y-85608682D01*
X140424000Y-85841318D01*
X140469386Y-86069485D01*
X140558412Y-86284413D01*
X140687658Y-86477843D01*
X140852157Y-86642342D01*
X141045587Y-86771588D01*
X141260515Y-86860614D01*
X141488682Y-86906000D01*
X141721318Y-86906000D01*
X141949485Y-86860614D01*
X142164413Y-86771588D01*
X142357843Y-86642342D01*
X142522342Y-86477843D01*
X142651588Y-86284413D01*
X142740614Y-86069485D01*
X142786000Y-85841318D01*
X142786000Y-85608682D01*
X142964000Y-85608682D01*
X142964000Y-85841318D01*
X143009386Y-86069485D01*
X143098412Y-86284413D01*
X143227658Y-86477843D01*
X143392157Y-86642342D01*
X143585587Y-86771588D01*
X143800515Y-86860614D01*
X144028682Y-86906000D01*
X144261318Y-86906000D01*
X144489485Y-86860614D01*
X144704413Y-86771588D01*
X144897843Y-86642342D01*
X145062342Y-86477843D01*
X145191588Y-86284413D01*
X145280614Y-86069485D01*
X145326000Y-85841318D01*
X145326000Y-85608682D01*
X145504000Y-85608682D01*
X145504000Y-85841318D01*
X145549386Y-86069485D01*
X145638412Y-86284413D01*
X145767658Y-86477843D01*
X145932157Y-86642342D01*
X146125587Y-86771588D01*
X146340515Y-86860614D01*
X146568682Y-86906000D01*
X146801318Y-86906000D01*
X147029485Y-86860614D01*
X147244413Y-86771588D01*
X147437843Y-86642342D01*
X147602342Y-86477843D01*
X147731588Y-86284413D01*
X147820614Y-86069485D01*
X147866000Y-85841318D01*
X147866000Y-85608682D01*
X148044000Y-85608682D01*
X148044000Y-85841318D01*
X148089386Y-86069485D01*
X148178412Y-86284413D01*
X148307658Y-86477843D01*
X148472157Y-86642342D01*
X148665587Y-86771588D01*
X148880515Y-86860614D01*
X149108682Y-86906000D01*
X149341318Y-86906000D01*
X149569485Y-86860614D01*
X149784413Y-86771588D01*
X149977843Y-86642342D01*
X150142342Y-86477843D01*
X150271588Y-86284413D01*
X150360614Y-86069485D01*
X150406000Y-85841318D01*
X150406000Y-85608682D01*
X150584000Y-85608682D01*
X150584000Y-85841318D01*
X150629386Y-86069485D01*
X150718412Y-86284413D01*
X150847658Y-86477843D01*
X151012157Y-86642342D01*
X151205587Y-86771588D01*
X151420515Y-86860614D01*
X151648682Y-86906000D01*
X151881318Y-86906000D01*
X152109485Y-86860614D01*
X152324413Y-86771588D01*
X152517843Y-86642342D01*
X152682342Y-86477843D01*
X152811588Y-86284413D01*
X152900614Y-86069485D01*
X152946000Y-85841318D01*
X152946000Y-85608682D01*
X153124000Y-85608682D01*
X153124000Y-85841318D01*
X153169386Y-86069485D01*
X153258412Y-86284413D01*
X153387658Y-86477843D01*
X153552157Y-86642342D01*
X153745587Y-86771588D01*
X153960515Y-86860614D01*
X154188682Y-86906000D01*
X154421318Y-86906000D01*
X154649485Y-86860614D01*
X154864413Y-86771588D01*
X155057843Y-86642342D01*
X155222342Y-86477843D01*
X155351588Y-86284413D01*
X155440614Y-86069485D01*
X155486000Y-85841318D01*
X155486000Y-85608682D01*
X155664000Y-85608682D01*
X155664000Y-85841318D01*
X155709386Y-86069485D01*
X155798412Y-86284413D01*
X155927658Y-86477843D01*
X156092157Y-86642342D01*
X156285587Y-86771588D01*
X156500515Y-86860614D01*
X156728682Y-86906000D01*
X156961318Y-86906000D01*
X157189485Y-86860614D01*
X157404413Y-86771588D01*
X157597843Y-86642342D01*
X157762342Y-86477843D01*
X157891588Y-86284413D01*
X157980614Y-86069485D01*
X158026000Y-85841318D01*
X158026000Y-85608682D01*
X158204000Y-85608682D01*
X158204000Y-85841318D01*
X158249386Y-86069485D01*
X158338412Y-86284413D01*
X158467658Y-86477843D01*
X158632157Y-86642342D01*
X158825587Y-86771588D01*
X159040515Y-86860614D01*
X159268682Y-86906000D01*
X159501318Y-86906000D01*
X159729485Y-86860614D01*
X159944413Y-86771588D01*
X160137843Y-86642342D01*
X160302342Y-86477843D01*
X160431588Y-86284413D01*
X160520614Y-86069485D01*
X160566000Y-85841318D01*
X160566000Y-85608682D01*
X160520614Y-85380515D01*
X160431588Y-85165587D01*
X160302342Y-84972157D01*
X160255185Y-84925000D01*
X160742157Y-84925000D01*
X160742157Y-86525000D01*
X160749513Y-86599689D01*
X160771299Y-86671508D01*
X160806678Y-86737696D01*
X160854289Y-86795711D01*
X160912304Y-86843322D01*
X160978492Y-86878701D01*
X161050311Y-86900487D01*
X161125000Y-86907843D01*
X162725000Y-86907843D01*
X162799689Y-86900487D01*
X162871508Y-86878701D01*
X162937696Y-86843322D01*
X162995711Y-86795711D01*
X163043322Y-86737696D01*
X163078701Y-86671508D01*
X163100487Y-86599689D01*
X163107843Y-86525000D01*
X163107843Y-84925000D01*
X163100487Y-84850311D01*
X163078701Y-84778492D01*
X163043322Y-84712304D01*
X162995711Y-84654289D01*
X162937696Y-84606678D01*
X162871508Y-84571299D01*
X162799689Y-84549513D01*
X162725000Y-84542157D01*
X161125000Y-84542157D01*
X161050311Y-84549513D01*
X160978492Y-84571299D01*
X160912304Y-84606678D01*
X160854289Y-84654289D01*
X160806678Y-84712304D01*
X160771299Y-84778492D01*
X160749513Y-84850311D01*
X160742157Y-84925000D01*
X160255185Y-84925000D01*
X160137843Y-84807658D01*
X159944413Y-84678412D01*
X159729485Y-84589386D01*
X159501318Y-84544000D01*
X159268682Y-84544000D01*
X159040515Y-84589386D01*
X158825587Y-84678412D01*
X158632157Y-84807658D01*
X158467658Y-84972157D01*
X158338412Y-85165587D01*
X158249386Y-85380515D01*
X158204000Y-85608682D01*
X158026000Y-85608682D01*
X157980614Y-85380515D01*
X157891588Y-85165587D01*
X157762342Y-84972157D01*
X157597843Y-84807658D01*
X157404413Y-84678412D01*
X157189485Y-84589386D01*
X156961318Y-84544000D01*
X156728682Y-84544000D01*
X156500515Y-84589386D01*
X156285587Y-84678412D01*
X156092157Y-84807658D01*
X155927658Y-84972157D01*
X155798412Y-85165587D01*
X155709386Y-85380515D01*
X155664000Y-85608682D01*
X155486000Y-85608682D01*
X155440614Y-85380515D01*
X155351588Y-85165587D01*
X155222342Y-84972157D01*
X155057843Y-84807658D01*
X154864413Y-84678412D01*
X154649485Y-84589386D01*
X154421318Y-84544000D01*
X154188682Y-84544000D01*
X153960515Y-84589386D01*
X153745587Y-84678412D01*
X153552157Y-84807658D01*
X153387658Y-84972157D01*
X153258412Y-85165587D01*
X153169386Y-85380515D01*
X153124000Y-85608682D01*
X152946000Y-85608682D01*
X152900614Y-85380515D01*
X152811588Y-85165587D01*
X152682342Y-84972157D01*
X152517843Y-84807658D01*
X152324413Y-84678412D01*
X152109485Y-84589386D01*
X151881318Y-84544000D01*
X151648682Y-84544000D01*
X151420515Y-84589386D01*
X151205587Y-84678412D01*
X151012157Y-84807658D01*
X150847658Y-84972157D01*
X150718412Y-85165587D01*
X150629386Y-85380515D01*
X150584000Y-85608682D01*
X150406000Y-85608682D01*
X150360614Y-85380515D01*
X150271588Y-85165587D01*
X150142342Y-84972157D01*
X149977843Y-84807658D01*
X149784413Y-84678412D01*
X149569485Y-84589386D01*
X149341318Y-84544000D01*
X149108682Y-84544000D01*
X148880515Y-84589386D01*
X148665587Y-84678412D01*
X148472157Y-84807658D01*
X148307658Y-84972157D01*
X148178412Y-85165587D01*
X148089386Y-85380515D01*
X148044000Y-85608682D01*
X147866000Y-85608682D01*
X147820614Y-85380515D01*
X147731588Y-85165587D01*
X147602342Y-84972157D01*
X147437843Y-84807658D01*
X147244413Y-84678412D01*
X147029485Y-84589386D01*
X146801318Y-84544000D01*
X146568682Y-84544000D01*
X146340515Y-84589386D01*
X146125587Y-84678412D01*
X145932157Y-84807658D01*
X145767658Y-84972157D01*
X145638412Y-85165587D01*
X145549386Y-85380515D01*
X145504000Y-85608682D01*
X145326000Y-85608682D01*
X145280614Y-85380515D01*
X145191588Y-85165587D01*
X145062342Y-84972157D01*
X144897843Y-84807658D01*
X144704413Y-84678412D01*
X144489485Y-84589386D01*
X144261318Y-84544000D01*
X144028682Y-84544000D01*
X143800515Y-84589386D01*
X143585587Y-84678412D01*
X143392157Y-84807658D01*
X143227658Y-84972157D01*
X143098412Y-85165587D01*
X143009386Y-85380515D01*
X142964000Y-85608682D01*
X142786000Y-85608682D01*
X142740614Y-85380515D01*
X142651588Y-85165587D01*
X142522342Y-84972157D01*
X142357843Y-84807658D01*
X142164413Y-84678412D01*
X141949485Y-84589386D01*
X141721318Y-84544000D01*
X141488682Y-84544000D01*
X141260515Y-84589386D01*
X141045587Y-84678412D01*
X140852157Y-84807658D01*
X140687658Y-84972157D01*
X140558412Y-85165587D01*
X140469386Y-85380515D01*
X140424000Y-85608682D01*
X140246000Y-85608682D01*
X140200614Y-85380515D01*
X140111588Y-85165587D01*
X139982342Y-84972157D01*
X139817843Y-84807658D01*
X139624413Y-84678412D01*
X139409485Y-84589386D01*
X139181318Y-84544000D01*
X138948682Y-84544000D01*
X138720515Y-84589386D01*
X138505587Y-84678412D01*
X138312157Y-84807658D01*
X138147658Y-84972157D01*
X138018412Y-85165587D01*
X137929386Y-85380515D01*
X137884000Y-85608682D01*
X137706000Y-85608682D01*
X137660614Y-85380515D01*
X137571588Y-85165587D01*
X137442342Y-84972157D01*
X137277843Y-84807658D01*
X137084413Y-84678412D01*
X136869485Y-84589386D01*
X136641318Y-84544000D01*
X136408682Y-84544000D01*
X136180515Y-84589386D01*
X135965587Y-84678412D01*
X135772157Y-84807658D01*
X135607658Y-84972157D01*
X135478412Y-85165587D01*
X135389386Y-85380515D01*
X135344000Y-85608682D01*
X132627843Y-85608682D01*
X132627843Y-85415885D01*
X132845165Y-85415885D01*
X132906092Y-85598000D01*
X133858000Y-85598000D01*
X133858000Y-84646703D01*
X134112000Y-84646703D01*
X134112000Y-85598000D01*
X135063908Y-85598000D01*
X135124835Y-85415885D01*
X135042628Y-85199454D01*
X134919777Y-85003219D01*
X134761003Y-84834722D01*
X134572408Y-84700438D01*
X134361239Y-84605527D01*
X134294114Y-84585171D01*
X134112000Y-84646703D01*
X133858000Y-84646703D01*
X133675886Y-84585171D01*
X133608761Y-84605527D01*
X133397592Y-84700438D01*
X133208997Y-84834722D01*
X133050223Y-85003219D01*
X132927372Y-85199454D01*
X132845165Y-85415885D01*
X132627843Y-85415885D01*
X132627843Y-84925000D01*
X132620487Y-84850311D01*
X132598701Y-84778492D01*
X132563322Y-84712304D01*
X132515711Y-84654289D01*
X132457696Y-84606678D01*
X132391508Y-84571299D01*
X132319689Y-84549513D01*
X132245000Y-84542157D01*
X130645000Y-84542157D01*
X130570311Y-84549513D01*
X130498492Y-84571299D01*
X130432304Y-84606678D01*
X130374289Y-84654289D01*
X130326678Y-84712304D01*
X130291299Y-84778492D01*
X130269513Y-84850311D01*
X130262157Y-84925000D01*
X129775185Y-84925000D01*
X129657843Y-84807658D01*
X129464413Y-84678412D01*
X129249485Y-84589386D01*
X129021318Y-84544000D01*
X128788682Y-84544000D01*
X128560515Y-84589386D01*
X128345587Y-84678412D01*
X128152157Y-84807658D01*
X127987658Y-84972157D01*
X127858412Y-85165587D01*
X127769386Y-85380515D01*
X127724000Y-85608682D01*
X127546000Y-85608682D01*
X127500614Y-85380515D01*
X127411588Y-85165587D01*
X127282342Y-84972157D01*
X127117843Y-84807658D01*
X126924413Y-84678412D01*
X126709485Y-84589386D01*
X126481318Y-84544000D01*
X126248682Y-84544000D01*
X126020515Y-84589386D01*
X125805587Y-84678412D01*
X125612157Y-84807658D01*
X125447658Y-84972157D01*
X125318412Y-85165587D01*
X125229386Y-85380515D01*
X125184000Y-85608682D01*
X125006000Y-85608682D01*
X124960614Y-85380515D01*
X124871588Y-85165587D01*
X124742342Y-84972157D01*
X124577843Y-84807658D01*
X124384413Y-84678412D01*
X124169485Y-84589386D01*
X123941318Y-84544000D01*
X123708682Y-84544000D01*
X123480515Y-84589386D01*
X123265587Y-84678412D01*
X123072157Y-84807658D01*
X122907658Y-84972157D01*
X122778412Y-85165587D01*
X122689386Y-85380515D01*
X122644000Y-85608682D01*
X122466000Y-85608682D01*
X122420614Y-85380515D01*
X122331588Y-85165587D01*
X122202342Y-84972157D01*
X122037843Y-84807658D01*
X121844413Y-84678412D01*
X121629485Y-84589386D01*
X121401318Y-84544000D01*
X121168682Y-84544000D01*
X120940515Y-84589386D01*
X120725587Y-84678412D01*
X120532157Y-84807658D01*
X120367658Y-84972157D01*
X120238412Y-85165587D01*
X120149386Y-85380515D01*
X120104000Y-85608682D01*
X119926000Y-85608682D01*
X119880614Y-85380515D01*
X119791588Y-85165587D01*
X119662342Y-84972157D01*
X119497843Y-84807658D01*
X119304413Y-84678412D01*
X119089485Y-84589386D01*
X118861318Y-84544000D01*
X118628682Y-84544000D01*
X118400515Y-84589386D01*
X118185587Y-84678412D01*
X117992157Y-84807658D01*
X117827658Y-84972157D01*
X117698412Y-85165587D01*
X117609386Y-85380515D01*
X117564000Y-85608682D01*
X117386000Y-85608682D01*
X117340614Y-85380515D01*
X117251588Y-85165587D01*
X117122342Y-84972157D01*
X116957843Y-84807658D01*
X116764413Y-84678412D01*
X116549485Y-84589386D01*
X116321318Y-84544000D01*
X116088682Y-84544000D01*
X115860515Y-84589386D01*
X115645587Y-84678412D01*
X115452157Y-84807658D01*
X115287658Y-84972157D01*
X115158412Y-85165587D01*
X115069386Y-85380515D01*
X115024000Y-85608682D01*
X114846000Y-85608682D01*
X114800614Y-85380515D01*
X114711588Y-85165587D01*
X114582342Y-84972157D01*
X114417843Y-84807658D01*
X114224413Y-84678412D01*
X114009485Y-84589386D01*
X113781318Y-84544000D01*
X113548682Y-84544000D01*
X113320515Y-84589386D01*
X113105587Y-84678412D01*
X112912157Y-84807658D01*
X112747658Y-84972157D01*
X112618412Y-85165587D01*
X112529386Y-85380515D01*
X112484000Y-85608682D01*
X112306000Y-85608682D01*
X112260614Y-85380515D01*
X112171588Y-85165587D01*
X112042342Y-84972157D01*
X111877843Y-84807658D01*
X111684413Y-84678412D01*
X111469485Y-84589386D01*
X111241318Y-84544000D01*
X111008682Y-84544000D01*
X110780515Y-84589386D01*
X110565587Y-84678412D01*
X110372157Y-84807658D01*
X110207658Y-84972157D01*
X110078412Y-85165587D01*
X109989386Y-85380515D01*
X109944000Y-85608682D01*
X109766000Y-85608682D01*
X109720614Y-85380515D01*
X109631588Y-85165587D01*
X109502342Y-84972157D01*
X109337843Y-84807658D01*
X109144413Y-84678412D01*
X108929485Y-84589386D01*
X108701318Y-84544000D01*
X108468682Y-84544000D01*
X108240515Y-84589386D01*
X108025587Y-84678412D01*
X107832157Y-84807658D01*
X107667658Y-84972157D01*
X107538412Y-85165587D01*
X107449386Y-85380515D01*
X107404000Y-85608682D01*
X107226000Y-85608682D01*
X107180614Y-85380515D01*
X107091588Y-85165587D01*
X106962342Y-84972157D01*
X106797843Y-84807658D01*
X106604413Y-84678412D01*
X106389485Y-84589386D01*
X106161318Y-84544000D01*
X105928682Y-84544000D01*
X105700515Y-84589386D01*
X105485587Y-84678412D01*
X105292157Y-84807658D01*
X105127658Y-84972157D01*
X104998412Y-85165587D01*
X104909386Y-85380515D01*
X104864000Y-85608682D01*
X104686000Y-85608682D01*
X104640614Y-85380515D01*
X104551588Y-85165587D01*
X104422342Y-84972157D01*
X104257843Y-84807658D01*
X104064413Y-84678412D01*
X103849485Y-84589386D01*
X103621318Y-84544000D01*
X103388682Y-84544000D01*
X103160515Y-84589386D01*
X102945587Y-84678412D01*
X102752157Y-84807658D01*
X102587658Y-84972157D01*
X102458412Y-85165587D01*
X102369386Y-85380515D01*
X102324000Y-85608682D01*
X74776000Y-85608682D01*
X74776000Y-83235078D01*
X79737006Y-83235078D01*
X79737006Y-83388922D01*
X79767019Y-83539809D01*
X79825893Y-83681942D01*
X79911364Y-83809859D01*
X80020147Y-83918642D01*
X80148064Y-84004113D01*
X80290197Y-84062987D01*
X80441084Y-84093000D01*
X80594928Y-84093000D01*
X80745815Y-84062987D01*
X80887948Y-84004113D01*
X81015865Y-83918642D01*
X81116507Y-83818000D01*
X103353154Y-83818000D01*
X103378000Y-83820447D01*
X103402846Y-83818000D01*
X103402854Y-83818000D01*
X103477193Y-83810678D01*
X103572575Y-83781745D01*
X103660479Y-83734759D01*
X103737527Y-83671527D01*
X103753376Y-83652215D01*
X113014120Y-74391472D01*
X113105587Y-74452588D01*
X113320515Y-74541614D01*
X113548682Y-74587000D01*
X113781318Y-74587000D01*
X114009485Y-74541614D01*
X114224413Y-74452588D01*
X114417843Y-74323342D01*
X114582342Y-74158843D01*
X114711588Y-73965413D01*
X114800614Y-73750485D01*
X114846000Y-73522318D01*
X114846000Y-73289682D01*
X115024000Y-73289682D01*
X115024000Y-73522318D01*
X115069386Y-73750485D01*
X115158412Y-73965413D01*
X115287658Y-74158843D01*
X115452157Y-74323342D01*
X115645587Y-74452588D01*
X115860515Y-74541614D01*
X116088682Y-74587000D01*
X116321318Y-74587000D01*
X116549485Y-74541614D01*
X116764413Y-74452588D01*
X116957843Y-74323342D01*
X117122342Y-74158843D01*
X117251588Y-73965413D01*
X117340614Y-73750485D01*
X117386000Y-73522318D01*
X117386000Y-73289682D01*
X117564000Y-73289682D01*
X117564000Y-73522318D01*
X117609386Y-73750485D01*
X117698412Y-73965413D01*
X117827658Y-74158843D01*
X117992157Y-74323342D01*
X118185587Y-74452588D01*
X118400515Y-74541614D01*
X118628682Y-74587000D01*
X118861318Y-74587000D01*
X119089485Y-74541614D01*
X119304413Y-74452588D01*
X119497843Y-74323342D01*
X119662342Y-74158843D01*
X119791588Y-73965413D01*
X119880614Y-73750485D01*
X119926000Y-73522318D01*
X119926000Y-73289682D01*
X120104000Y-73289682D01*
X120104000Y-73522318D01*
X120149386Y-73750485D01*
X120238412Y-73965413D01*
X120367658Y-74158843D01*
X120532157Y-74323342D01*
X120725587Y-74452588D01*
X120940515Y-74541614D01*
X121168682Y-74587000D01*
X121401318Y-74587000D01*
X121629485Y-74541614D01*
X121844413Y-74452588D01*
X122037843Y-74323342D01*
X122202342Y-74158843D01*
X122331588Y-73965413D01*
X122420614Y-73750485D01*
X122466000Y-73522318D01*
X122466000Y-73289682D01*
X122644000Y-73289682D01*
X122644000Y-73522318D01*
X122689386Y-73750485D01*
X122778412Y-73965413D01*
X122907658Y-74158843D01*
X123072157Y-74323342D01*
X123265587Y-74452588D01*
X123480515Y-74541614D01*
X123708682Y-74587000D01*
X123941318Y-74587000D01*
X124169485Y-74541614D01*
X124384413Y-74452588D01*
X124577843Y-74323342D01*
X124742342Y-74158843D01*
X124871588Y-73965413D01*
X124960614Y-73750485D01*
X125006000Y-73522318D01*
X125006000Y-73289682D01*
X125184000Y-73289682D01*
X125184000Y-73522318D01*
X125229386Y-73750485D01*
X125318412Y-73965413D01*
X125447658Y-74158843D01*
X125612157Y-74323342D01*
X125805587Y-74452588D01*
X126020515Y-74541614D01*
X126248682Y-74587000D01*
X126481318Y-74587000D01*
X126709485Y-74541614D01*
X126924413Y-74452588D01*
X127117843Y-74323342D01*
X127282342Y-74158843D01*
X127411588Y-73965413D01*
X127500614Y-73750485D01*
X127546000Y-73522318D01*
X127546000Y-73289682D01*
X127724000Y-73289682D01*
X127724000Y-73522318D01*
X127769386Y-73750485D01*
X127858412Y-73965413D01*
X127987658Y-74158843D01*
X128152157Y-74323342D01*
X128345587Y-74452588D01*
X128560515Y-74541614D01*
X128788682Y-74587000D01*
X129021318Y-74587000D01*
X129249485Y-74541614D01*
X129464413Y-74452588D01*
X129657843Y-74323342D01*
X129822342Y-74158843D01*
X129951588Y-73965413D01*
X130040614Y-73750485D01*
X130086000Y-73522318D01*
X130086000Y-73289682D01*
X130040614Y-73061515D01*
X129951588Y-72846587D01*
X129822342Y-72653157D01*
X129775185Y-72606000D01*
X130262157Y-72606000D01*
X130262157Y-74206000D01*
X130269513Y-74280689D01*
X130291299Y-74352508D01*
X130326678Y-74418696D01*
X130374289Y-74476711D01*
X130432304Y-74524322D01*
X130498492Y-74559701D01*
X130570311Y-74581487D01*
X130645000Y-74588843D01*
X132245000Y-74588843D01*
X132319689Y-74581487D01*
X132391508Y-74559701D01*
X132457696Y-74524322D01*
X132515711Y-74476711D01*
X132563322Y-74418696D01*
X132598701Y-74352508D01*
X132620487Y-74280689D01*
X132627843Y-74206000D01*
X132627843Y-73289682D01*
X132804000Y-73289682D01*
X132804000Y-73522318D01*
X132849386Y-73750485D01*
X132938412Y-73965413D01*
X133067658Y-74158843D01*
X133232157Y-74323342D01*
X133425587Y-74452588D01*
X133640515Y-74541614D01*
X133868682Y-74587000D01*
X134101318Y-74587000D01*
X134329485Y-74541614D01*
X134544413Y-74452588D01*
X134737843Y-74323342D01*
X134902342Y-74158843D01*
X135031588Y-73965413D01*
X135120614Y-73750485D01*
X135166000Y-73522318D01*
X135166000Y-73289682D01*
X135344000Y-73289682D01*
X135344000Y-73522318D01*
X135389386Y-73750485D01*
X135478412Y-73965413D01*
X135607658Y-74158843D01*
X135772157Y-74323342D01*
X135965587Y-74452588D01*
X136180515Y-74541614D01*
X136408682Y-74587000D01*
X136641318Y-74587000D01*
X136869485Y-74541614D01*
X137084413Y-74452588D01*
X137277843Y-74323342D01*
X137442342Y-74158843D01*
X137571588Y-73965413D01*
X137660614Y-73750485D01*
X137706000Y-73522318D01*
X137706000Y-73289682D01*
X137884000Y-73289682D01*
X137884000Y-73522318D01*
X137929386Y-73750485D01*
X138018412Y-73965413D01*
X138147658Y-74158843D01*
X138312157Y-74323342D01*
X138505587Y-74452588D01*
X138720515Y-74541614D01*
X138948682Y-74587000D01*
X139181318Y-74587000D01*
X139409485Y-74541614D01*
X139624413Y-74452588D01*
X139817843Y-74323342D01*
X139982342Y-74158843D01*
X140111588Y-73965413D01*
X140200614Y-73750485D01*
X140246000Y-73522318D01*
X140246000Y-73289682D01*
X140424000Y-73289682D01*
X140424000Y-73522318D01*
X140469386Y-73750485D01*
X140558412Y-73965413D01*
X140687658Y-74158843D01*
X140852157Y-74323342D01*
X141045587Y-74452588D01*
X141260515Y-74541614D01*
X141488682Y-74587000D01*
X141721318Y-74587000D01*
X141949485Y-74541614D01*
X142164413Y-74452588D01*
X142357843Y-74323342D01*
X142522342Y-74158843D01*
X142651588Y-73965413D01*
X142740614Y-73750485D01*
X142786000Y-73522318D01*
X142786000Y-73289682D01*
X142964000Y-73289682D01*
X142964000Y-73522318D01*
X143009386Y-73750485D01*
X143098412Y-73965413D01*
X143227658Y-74158843D01*
X143392157Y-74323342D01*
X143585587Y-74452588D01*
X143800515Y-74541614D01*
X144028682Y-74587000D01*
X144261318Y-74587000D01*
X144489485Y-74541614D01*
X144704413Y-74452588D01*
X144897843Y-74323342D01*
X145062342Y-74158843D01*
X145191588Y-73965413D01*
X145280614Y-73750485D01*
X145326000Y-73522318D01*
X145326000Y-73289682D01*
X145504000Y-73289682D01*
X145504000Y-73522318D01*
X145549386Y-73750485D01*
X145638412Y-73965413D01*
X145767658Y-74158843D01*
X145932157Y-74323342D01*
X146125587Y-74452588D01*
X146340515Y-74541614D01*
X146568682Y-74587000D01*
X146801318Y-74587000D01*
X147029485Y-74541614D01*
X147244413Y-74452588D01*
X147437843Y-74323342D01*
X147602342Y-74158843D01*
X147731588Y-73965413D01*
X147820614Y-73750485D01*
X147866000Y-73522318D01*
X147866000Y-73289682D01*
X148044000Y-73289682D01*
X148044000Y-73522318D01*
X148089386Y-73750485D01*
X148178412Y-73965413D01*
X148307658Y-74158843D01*
X148472157Y-74323342D01*
X148665587Y-74452588D01*
X148880515Y-74541614D01*
X149108682Y-74587000D01*
X149341318Y-74587000D01*
X149569485Y-74541614D01*
X149784413Y-74452588D01*
X149977843Y-74323342D01*
X150142342Y-74158843D01*
X150271588Y-73965413D01*
X150360614Y-73750485D01*
X150406000Y-73522318D01*
X150406000Y-73289682D01*
X150584000Y-73289682D01*
X150584000Y-73522318D01*
X150629386Y-73750485D01*
X150718412Y-73965413D01*
X150847658Y-74158843D01*
X151012157Y-74323342D01*
X151205587Y-74452588D01*
X151420515Y-74541614D01*
X151648682Y-74587000D01*
X151881318Y-74587000D01*
X152109485Y-74541614D01*
X152324413Y-74452588D01*
X152517843Y-74323342D01*
X152682342Y-74158843D01*
X152811588Y-73965413D01*
X152900614Y-73750485D01*
X152946000Y-73522318D01*
X152946000Y-73289682D01*
X153124000Y-73289682D01*
X153124000Y-73522318D01*
X153169386Y-73750485D01*
X153258412Y-73965413D01*
X153387658Y-74158843D01*
X153552157Y-74323342D01*
X153745587Y-74452588D01*
X153960515Y-74541614D01*
X154188682Y-74587000D01*
X154421318Y-74587000D01*
X154649485Y-74541614D01*
X154864413Y-74452588D01*
X155057843Y-74323342D01*
X155222342Y-74158843D01*
X155351588Y-73965413D01*
X155440614Y-73750485D01*
X155486000Y-73522318D01*
X155486000Y-73289682D01*
X155664000Y-73289682D01*
X155664000Y-73522318D01*
X155709386Y-73750485D01*
X155798412Y-73965413D01*
X155927658Y-74158843D01*
X156092157Y-74323342D01*
X156285587Y-74452588D01*
X156500515Y-74541614D01*
X156728682Y-74587000D01*
X156961318Y-74587000D01*
X157189485Y-74541614D01*
X157404413Y-74452588D01*
X157597843Y-74323342D01*
X157762342Y-74158843D01*
X157891588Y-73965413D01*
X157980614Y-73750485D01*
X158026000Y-73522318D01*
X158026000Y-73289682D01*
X158204000Y-73289682D01*
X158204000Y-73522318D01*
X158249386Y-73750485D01*
X158338412Y-73965413D01*
X158467658Y-74158843D01*
X158632157Y-74323342D01*
X158825587Y-74452588D01*
X159040515Y-74541614D01*
X159268682Y-74587000D01*
X159501318Y-74587000D01*
X159729485Y-74541614D01*
X159944413Y-74452588D01*
X160137843Y-74323342D01*
X160302342Y-74158843D01*
X160431588Y-73965413D01*
X160520614Y-73750485D01*
X160566000Y-73522318D01*
X160566000Y-73289682D01*
X160520614Y-73061515D01*
X160431588Y-72846587D01*
X160302342Y-72653157D01*
X160255185Y-72606000D01*
X160742157Y-72606000D01*
X160742157Y-74206000D01*
X160749513Y-74280689D01*
X160771299Y-74352508D01*
X160806678Y-74418696D01*
X160854289Y-74476711D01*
X160912304Y-74524322D01*
X160978492Y-74559701D01*
X161050311Y-74581487D01*
X161125000Y-74588843D01*
X162725000Y-74588843D01*
X162799689Y-74581487D01*
X162871508Y-74559701D01*
X162937696Y-74524322D01*
X162995711Y-74476711D01*
X163043322Y-74418696D01*
X163078701Y-74352508D01*
X163100487Y-74280689D01*
X163107843Y-74206000D01*
X163107843Y-72606000D01*
X163100487Y-72531311D01*
X163078701Y-72459492D01*
X163043322Y-72393304D01*
X162995711Y-72335289D01*
X162937696Y-72287678D01*
X162871508Y-72252299D01*
X162799689Y-72230513D01*
X162725000Y-72223157D01*
X161125000Y-72223157D01*
X161050311Y-72230513D01*
X160978492Y-72252299D01*
X160912304Y-72287678D01*
X160854289Y-72335289D01*
X160806678Y-72393304D01*
X160771299Y-72459492D01*
X160749513Y-72531311D01*
X160742157Y-72606000D01*
X160255185Y-72606000D01*
X160137843Y-72488658D01*
X159944413Y-72359412D01*
X159729485Y-72270386D01*
X159501318Y-72225000D01*
X159268682Y-72225000D01*
X159040515Y-72270386D01*
X158825587Y-72359412D01*
X158632157Y-72488658D01*
X158467658Y-72653157D01*
X158338412Y-72846587D01*
X158249386Y-73061515D01*
X158204000Y-73289682D01*
X158026000Y-73289682D01*
X157980614Y-73061515D01*
X157891588Y-72846587D01*
X157762342Y-72653157D01*
X157597843Y-72488658D01*
X157404413Y-72359412D01*
X157189485Y-72270386D01*
X156961318Y-72225000D01*
X156728682Y-72225000D01*
X156500515Y-72270386D01*
X156285587Y-72359412D01*
X156092157Y-72488658D01*
X155927658Y-72653157D01*
X155798412Y-72846587D01*
X155709386Y-73061515D01*
X155664000Y-73289682D01*
X155486000Y-73289682D01*
X155440614Y-73061515D01*
X155351588Y-72846587D01*
X155222342Y-72653157D01*
X155057843Y-72488658D01*
X154864413Y-72359412D01*
X154649485Y-72270386D01*
X154421318Y-72225000D01*
X154188682Y-72225000D01*
X153960515Y-72270386D01*
X153745587Y-72359412D01*
X153552157Y-72488658D01*
X153387658Y-72653157D01*
X153258412Y-72846587D01*
X153169386Y-73061515D01*
X153124000Y-73289682D01*
X152946000Y-73289682D01*
X152900614Y-73061515D01*
X152811588Y-72846587D01*
X152682342Y-72653157D01*
X152517843Y-72488658D01*
X152324413Y-72359412D01*
X152109485Y-72270386D01*
X151881318Y-72225000D01*
X151648682Y-72225000D01*
X151420515Y-72270386D01*
X151205587Y-72359412D01*
X151012157Y-72488658D01*
X150847658Y-72653157D01*
X150718412Y-72846587D01*
X150629386Y-73061515D01*
X150584000Y-73289682D01*
X150406000Y-73289682D01*
X150360614Y-73061515D01*
X150271588Y-72846587D01*
X150142342Y-72653157D01*
X149977843Y-72488658D01*
X149784413Y-72359412D01*
X149569485Y-72270386D01*
X149341318Y-72225000D01*
X149108682Y-72225000D01*
X148880515Y-72270386D01*
X148665587Y-72359412D01*
X148472157Y-72488658D01*
X148307658Y-72653157D01*
X148178412Y-72846587D01*
X148089386Y-73061515D01*
X148044000Y-73289682D01*
X147866000Y-73289682D01*
X147820614Y-73061515D01*
X147731588Y-72846587D01*
X147602342Y-72653157D01*
X147437843Y-72488658D01*
X147244413Y-72359412D01*
X147029485Y-72270386D01*
X146801318Y-72225000D01*
X146568682Y-72225000D01*
X146340515Y-72270386D01*
X146125587Y-72359412D01*
X145932157Y-72488658D01*
X145767658Y-72653157D01*
X145638412Y-72846587D01*
X145549386Y-73061515D01*
X145504000Y-73289682D01*
X145326000Y-73289682D01*
X145280614Y-73061515D01*
X145191588Y-72846587D01*
X145062342Y-72653157D01*
X144897843Y-72488658D01*
X144704413Y-72359412D01*
X144489485Y-72270386D01*
X144261318Y-72225000D01*
X144028682Y-72225000D01*
X143800515Y-72270386D01*
X143585587Y-72359412D01*
X143392157Y-72488658D01*
X143227658Y-72653157D01*
X143098412Y-72846587D01*
X143009386Y-73061515D01*
X142964000Y-73289682D01*
X142786000Y-73289682D01*
X142740614Y-73061515D01*
X142651588Y-72846587D01*
X142522342Y-72653157D01*
X142357843Y-72488658D01*
X142164413Y-72359412D01*
X141949485Y-72270386D01*
X141721318Y-72225000D01*
X141488682Y-72225000D01*
X141260515Y-72270386D01*
X141045587Y-72359412D01*
X140852157Y-72488658D01*
X140687658Y-72653157D01*
X140558412Y-72846587D01*
X140469386Y-73061515D01*
X140424000Y-73289682D01*
X140246000Y-73289682D01*
X140200614Y-73061515D01*
X140111588Y-72846587D01*
X139982342Y-72653157D01*
X139817843Y-72488658D01*
X139624413Y-72359412D01*
X139409485Y-72270386D01*
X139181318Y-72225000D01*
X138948682Y-72225000D01*
X138720515Y-72270386D01*
X138505587Y-72359412D01*
X138312157Y-72488658D01*
X138147658Y-72653157D01*
X138018412Y-72846587D01*
X137929386Y-73061515D01*
X137884000Y-73289682D01*
X137706000Y-73289682D01*
X137660614Y-73061515D01*
X137571588Y-72846587D01*
X137442342Y-72653157D01*
X137277843Y-72488658D01*
X137084413Y-72359412D01*
X136869485Y-72270386D01*
X136641318Y-72225000D01*
X136408682Y-72225000D01*
X136180515Y-72270386D01*
X135965587Y-72359412D01*
X135772157Y-72488658D01*
X135607658Y-72653157D01*
X135478412Y-72846587D01*
X135389386Y-73061515D01*
X135344000Y-73289682D01*
X135166000Y-73289682D01*
X135120614Y-73061515D01*
X135031588Y-72846587D01*
X134902342Y-72653157D01*
X134737843Y-72488658D01*
X134544413Y-72359412D01*
X134329485Y-72270386D01*
X134101318Y-72225000D01*
X133868682Y-72225000D01*
X133640515Y-72270386D01*
X133425587Y-72359412D01*
X133232157Y-72488658D01*
X133067658Y-72653157D01*
X132938412Y-72846587D01*
X132849386Y-73061515D01*
X132804000Y-73289682D01*
X132627843Y-73289682D01*
X132627843Y-72606000D01*
X132620487Y-72531311D01*
X132598701Y-72459492D01*
X132563322Y-72393304D01*
X132515711Y-72335289D01*
X132457696Y-72287678D01*
X132391508Y-72252299D01*
X132319689Y-72230513D01*
X132245000Y-72223157D01*
X130645000Y-72223157D01*
X130570311Y-72230513D01*
X130498492Y-72252299D01*
X130432304Y-72287678D01*
X130374289Y-72335289D01*
X130326678Y-72393304D01*
X130291299Y-72459492D01*
X130269513Y-72531311D01*
X130262157Y-72606000D01*
X129775185Y-72606000D01*
X129657843Y-72488658D01*
X129464413Y-72359412D01*
X129249485Y-72270386D01*
X129021318Y-72225000D01*
X128788682Y-72225000D01*
X128560515Y-72270386D01*
X128345587Y-72359412D01*
X128152157Y-72488658D01*
X127987658Y-72653157D01*
X127858412Y-72846587D01*
X127769386Y-73061515D01*
X127724000Y-73289682D01*
X127546000Y-73289682D01*
X127500614Y-73061515D01*
X127411588Y-72846587D01*
X127282342Y-72653157D01*
X127117843Y-72488658D01*
X126924413Y-72359412D01*
X126709485Y-72270386D01*
X126481318Y-72225000D01*
X126248682Y-72225000D01*
X126020515Y-72270386D01*
X125805587Y-72359412D01*
X125612157Y-72488658D01*
X125447658Y-72653157D01*
X125318412Y-72846587D01*
X125229386Y-73061515D01*
X125184000Y-73289682D01*
X125006000Y-73289682D01*
X124960614Y-73061515D01*
X124871588Y-72846587D01*
X124742342Y-72653157D01*
X124577843Y-72488658D01*
X124384413Y-72359412D01*
X124169485Y-72270386D01*
X123941318Y-72225000D01*
X123708682Y-72225000D01*
X123480515Y-72270386D01*
X123265587Y-72359412D01*
X123072157Y-72488658D01*
X122907658Y-72653157D01*
X122778412Y-72846587D01*
X122689386Y-73061515D01*
X122644000Y-73289682D01*
X122466000Y-73289682D01*
X122420614Y-73061515D01*
X122331588Y-72846587D01*
X122202342Y-72653157D01*
X122037843Y-72488658D01*
X121844413Y-72359412D01*
X121629485Y-72270386D01*
X121401318Y-72225000D01*
X121168682Y-72225000D01*
X120940515Y-72270386D01*
X120725587Y-72359412D01*
X120532157Y-72488658D01*
X120367658Y-72653157D01*
X120238412Y-72846587D01*
X120149386Y-73061515D01*
X120104000Y-73289682D01*
X119926000Y-73289682D01*
X119880614Y-73061515D01*
X119791588Y-72846587D01*
X119662342Y-72653157D01*
X119497843Y-72488658D01*
X119304413Y-72359412D01*
X119089485Y-72270386D01*
X118861318Y-72225000D01*
X118628682Y-72225000D01*
X118400515Y-72270386D01*
X118185587Y-72359412D01*
X117992157Y-72488658D01*
X117827658Y-72653157D01*
X117698412Y-72846587D01*
X117609386Y-73061515D01*
X117564000Y-73289682D01*
X117386000Y-73289682D01*
X117340614Y-73061515D01*
X117251588Y-72846587D01*
X117122342Y-72653157D01*
X116957843Y-72488658D01*
X116764413Y-72359412D01*
X116549485Y-72270386D01*
X116321318Y-72225000D01*
X116088682Y-72225000D01*
X115860515Y-72270386D01*
X115645587Y-72359412D01*
X115452157Y-72488658D01*
X115287658Y-72653157D01*
X115158412Y-72846587D01*
X115069386Y-73061515D01*
X115024000Y-73289682D01*
X114846000Y-73289682D01*
X114800614Y-73061515D01*
X114711588Y-72846587D01*
X114582342Y-72653157D01*
X114417843Y-72488658D01*
X114224413Y-72359412D01*
X114009485Y-72270386D01*
X113781318Y-72225000D01*
X113548682Y-72225000D01*
X113320515Y-72270386D01*
X113105587Y-72359412D01*
X112912157Y-72488658D01*
X112747658Y-72653157D01*
X112618412Y-72846587D01*
X112529386Y-73061515D01*
X112484000Y-73289682D01*
X112484000Y-73490408D01*
X112269725Y-73704683D01*
X112306000Y-73522318D01*
X112306000Y-73289682D01*
X112260614Y-73061515D01*
X112171588Y-72846587D01*
X112042342Y-72653157D01*
X111877843Y-72488658D01*
X111684413Y-72359412D01*
X111469485Y-72270386D01*
X111241318Y-72225000D01*
X111008682Y-72225000D01*
X110780515Y-72270386D01*
X110565587Y-72359412D01*
X110372157Y-72488658D01*
X110207658Y-72653157D01*
X110078412Y-72846587D01*
X109989386Y-73061515D01*
X109944000Y-73289682D01*
X109944000Y-73490408D01*
X109729725Y-73704683D01*
X109766000Y-73522318D01*
X109766000Y-73289682D01*
X109720614Y-73061515D01*
X109631588Y-72846587D01*
X109502342Y-72653157D01*
X109337843Y-72488658D01*
X109144413Y-72359412D01*
X108929485Y-72270386D01*
X108701318Y-72225000D01*
X108468682Y-72225000D01*
X108240515Y-72270386D01*
X108025587Y-72359412D01*
X107832157Y-72488658D01*
X107667658Y-72653157D01*
X107538412Y-72846587D01*
X107449386Y-73061515D01*
X107404000Y-73289682D01*
X107404000Y-73490408D01*
X107189725Y-73704684D01*
X107226000Y-73522318D01*
X107226000Y-73289682D01*
X107180614Y-73061515D01*
X107091588Y-72846587D01*
X106962342Y-72653157D01*
X106797843Y-72488658D01*
X106604413Y-72359412D01*
X106389485Y-72270386D01*
X106161318Y-72225000D01*
X105928682Y-72225000D01*
X105700515Y-72270386D01*
X105485587Y-72359412D01*
X105292157Y-72488658D01*
X105127658Y-72653157D01*
X104998412Y-72846587D01*
X104909386Y-73061515D01*
X104864000Y-73289682D01*
X104864000Y-73522318D01*
X104909386Y-73750485D01*
X104998412Y-73965413D01*
X105127658Y-74158843D01*
X105292157Y-74323342D01*
X105485587Y-74452588D01*
X105539001Y-74474713D01*
X105539001Y-74593407D01*
X101517409Y-78615000D01*
X84164501Y-78615000D01*
X84063859Y-78514358D01*
X83935942Y-78428887D01*
X83793809Y-78370013D01*
X83642922Y-78340000D01*
X83489078Y-78340000D01*
X83338191Y-78370013D01*
X83196058Y-78428887D01*
X83068141Y-78514358D01*
X82959358Y-78623141D01*
X82873887Y-78751058D01*
X82815013Y-78893191D01*
X82785000Y-79044078D01*
X82785000Y-79197922D01*
X82815013Y-79348809D01*
X82873887Y-79490942D01*
X82959358Y-79618859D01*
X83068141Y-79727642D01*
X83196058Y-79813113D01*
X83338191Y-79871987D01*
X83489078Y-79902000D01*
X83642922Y-79902000D01*
X83793809Y-79871987D01*
X83935942Y-79813113D01*
X84063859Y-79727642D01*
X84164501Y-79627000D01*
X101267409Y-79627000D01*
X100755409Y-80139000D01*
X83148505Y-80139000D01*
X83047863Y-80038358D01*
X82919946Y-79952887D01*
X82777813Y-79894013D01*
X82626926Y-79864000D01*
X82473082Y-79864000D01*
X82322195Y-79894013D01*
X82180062Y-79952887D01*
X82052145Y-80038358D01*
X81943362Y-80147141D01*
X81857891Y-80275058D01*
X81799017Y-80417191D01*
X81769004Y-80568078D01*
X81769004Y-80721922D01*
X81799017Y-80872809D01*
X81857891Y-81014942D01*
X81918457Y-81105585D01*
X81903942Y-81095887D01*
X81761809Y-81037013D01*
X81610922Y-81007000D01*
X81457078Y-81007000D01*
X81306191Y-81037013D01*
X81164058Y-81095887D01*
X81036141Y-81181358D01*
X80927358Y-81290141D01*
X80841887Y-81418058D01*
X80783013Y-81560191D01*
X80753000Y-81711078D01*
X80753000Y-81864922D01*
X80783013Y-82015809D01*
X80841887Y-82157942D01*
X80927358Y-82285859D01*
X81036141Y-82394642D01*
X81164058Y-82480113D01*
X81306191Y-82538987D01*
X81457078Y-82569000D01*
X81610922Y-82569000D01*
X81761809Y-82538987D01*
X81903942Y-82480113D01*
X82031859Y-82394642D01*
X82132501Y-82294000D01*
X102337154Y-82294000D01*
X102362000Y-82296447D01*
X102386846Y-82294000D01*
X102386854Y-82294000D01*
X102461193Y-82286678D01*
X102556575Y-82257745D01*
X102644479Y-82210759D01*
X102721527Y-82147527D01*
X102737376Y-82128215D01*
X110474120Y-74391472D01*
X110565587Y-74452588D01*
X110780515Y-74541614D01*
X111008682Y-74587000D01*
X111241318Y-74587000D01*
X111423684Y-74550725D01*
X103168409Y-82806000D01*
X81116507Y-82806000D01*
X81015865Y-82705358D01*
X80887948Y-82619887D01*
X80745815Y-82561013D01*
X80594928Y-82531000D01*
X80441084Y-82531000D01*
X80290197Y-82561013D01*
X80148064Y-82619887D01*
X80020147Y-82705358D01*
X79911364Y-82814141D01*
X79825893Y-82942058D01*
X79767019Y-83084191D01*
X79737006Y-83235078D01*
X74776000Y-83235078D01*
X74776000Y-77647078D01*
X83674000Y-77647078D01*
X83674000Y-77800922D01*
X83704013Y-77951809D01*
X83762887Y-78093942D01*
X83848358Y-78221859D01*
X83957141Y-78330642D01*
X84085058Y-78416113D01*
X84227191Y-78474987D01*
X84378078Y-78505000D01*
X84531922Y-78505000D01*
X84682809Y-78474987D01*
X84824942Y-78416113D01*
X84952859Y-78330642D01*
X85053501Y-78230000D01*
X98781154Y-78230000D01*
X98806000Y-78232447D01*
X98830846Y-78230000D01*
X98830854Y-78230000D01*
X98905193Y-78222678D01*
X99000575Y-78193745D01*
X99088479Y-78146759D01*
X99165527Y-78083527D01*
X99181376Y-78064215D01*
X102854120Y-74391472D01*
X102945587Y-74452588D01*
X103160515Y-74541614D01*
X103388682Y-74587000D01*
X103621318Y-74587000D01*
X103849485Y-74541614D01*
X104064413Y-74452588D01*
X104257843Y-74323342D01*
X104422342Y-74158843D01*
X104551588Y-73965413D01*
X104640614Y-73750485D01*
X104686000Y-73522318D01*
X104686000Y-73289682D01*
X104640614Y-73061515D01*
X104551588Y-72846587D01*
X104422342Y-72653157D01*
X104257843Y-72488658D01*
X104064413Y-72359412D01*
X103849485Y-72270386D01*
X103621318Y-72225000D01*
X103388682Y-72225000D01*
X103160515Y-72270386D01*
X102945587Y-72359412D01*
X102752157Y-72488658D01*
X102587658Y-72653157D01*
X102458412Y-72846587D01*
X102369386Y-73061515D01*
X102324000Y-73289682D01*
X102324000Y-73490408D01*
X98596409Y-77218000D01*
X85053501Y-77218000D01*
X84952859Y-77117358D01*
X84824942Y-77031887D01*
X84682809Y-76973013D01*
X84531922Y-76943000D01*
X84378078Y-76943000D01*
X84227191Y-76973013D01*
X84085058Y-77031887D01*
X83957141Y-77117358D01*
X83848358Y-77226141D01*
X83762887Y-77354058D01*
X83704013Y-77496191D01*
X83674000Y-77647078D01*
X74776000Y-77647078D01*
X74776000Y-70368682D01*
X102324000Y-70368682D01*
X102324000Y-70601318D01*
X102369386Y-70829485D01*
X102458412Y-71044413D01*
X102587658Y-71237843D01*
X102752157Y-71402342D01*
X102945587Y-71531588D01*
X103160515Y-71620614D01*
X103388682Y-71666000D01*
X103621318Y-71666000D01*
X103849485Y-71620614D01*
X104064413Y-71531588D01*
X104257843Y-71402342D01*
X104422342Y-71237843D01*
X104551588Y-71044413D01*
X104640614Y-70829485D01*
X104686000Y-70601318D01*
X104686000Y-70368682D01*
X104864000Y-70368682D01*
X104864000Y-70601318D01*
X104909386Y-70829485D01*
X104998412Y-71044413D01*
X105127658Y-71237843D01*
X105292157Y-71402342D01*
X105485587Y-71531588D01*
X105700515Y-71620614D01*
X105928682Y-71666000D01*
X106161318Y-71666000D01*
X106389485Y-71620614D01*
X106604413Y-71531588D01*
X106797843Y-71402342D01*
X106962342Y-71237843D01*
X107091588Y-71044413D01*
X107180614Y-70829485D01*
X107226000Y-70601318D01*
X107226000Y-70368682D01*
X107404000Y-70368682D01*
X107404000Y-70601318D01*
X107449386Y-70829485D01*
X107538412Y-71044413D01*
X107667658Y-71237843D01*
X107832157Y-71402342D01*
X108025587Y-71531588D01*
X108240515Y-71620614D01*
X108468682Y-71666000D01*
X108701318Y-71666000D01*
X108929485Y-71620614D01*
X109144413Y-71531588D01*
X109337843Y-71402342D01*
X109502342Y-71237843D01*
X109631588Y-71044413D01*
X109720614Y-70829485D01*
X109766000Y-70601318D01*
X109766000Y-70368682D01*
X109944000Y-70368682D01*
X109944000Y-70601318D01*
X109989386Y-70829485D01*
X110078412Y-71044413D01*
X110207658Y-71237843D01*
X110372157Y-71402342D01*
X110565587Y-71531588D01*
X110780515Y-71620614D01*
X111008682Y-71666000D01*
X111241318Y-71666000D01*
X111469485Y-71620614D01*
X111684413Y-71531588D01*
X111877843Y-71402342D01*
X112042342Y-71237843D01*
X112171588Y-71044413D01*
X112260614Y-70829485D01*
X112306000Y-70601318D01*
X112306000Y-70368682D01*
X112484000Y-70368682D01*
X112484000Y-70601318D01*
X112529386Y-70829485D01*
X112618412Y-71044413D01*
X112747658Y-71237843D01*
X112912157Y-71402342D01*
X113105587Y-71531588D01*
X113320515Y-71620614D01*
X113548682Y-71666000D01*
X113781318Y-71666000D01*
X114009485Y-71620614D01*
X114224413Y-71531588D01*
X114417843Y-71402342D01*
X114582342Y-71237843D01*
X114711588Y-71044413D01*
X114800614Y-70829485D01*
X114846000Y-70601318D01*
X114846000Y-70368682D01*
X115024000Y-70368682D01*
X115024000Y-70601318D01*
X115069386Y-70829485D01*
X115158412Y-71044413D01*
X115287658Y-71237843D01*
X115452157Y-71402342D01*
X115645587Y-71531588D01*
X115860515Y-71620614D01*
X116088682Y-71666000D01*
X116321318Y-71666000D01*
X116549485Y-71620614D01*
X116764413Y-71531588D01*
X116957843Y-71402342D01*
X117122342Y-71237843D01*
X117251588Y-71044413D01*
X117340614Y-70829485D01*
X117386000Y-70601318D01*
X117386000Y-70368682D01*
X117564000Y-70368682D01*
X117564000Y-70601318D01*
X117609386Y-70829485D01*
X117698412Y-71044413D01*
X117827658Y-71237843D01*
X117992157Y-71402342D01*
X118185587Y-71531588D01*
X118400515Y-71620614D01*
X118628682Y-71666000D01*
X118861318Y-71666000D01*
X119089485Y-71620614D01*
X119304413Y-71531588D01*
X119497843Y-71402342D01*
X119662342Y-71237843D01*
X119791588Y-71044413D01*
X119880614Y-70829485D01*
X119926000Y-70601318D01*
X119926000Y-70368682D01*
X120104000Y-70368682D01*
X120104000Y-70601318D01*
X120149386Y-70829485D01*
X120238412Y-71044413D01*
X120367658Y-71237843D01*
X120532157Y-71402342D01*
X120725587Y-71531588D01*
X120940515Y-71620614D01*
X121168682Y-71666000D01*
X121401318Y-71666000D01*
X121629485Y-71620614D01*
X121844413Y-71531588D01*
X122037843Y-71402342D01*
X122202342Y-71237843D01*
X122331588Y-71044413D01*
X122420614Y-70829485D01*
X122466000Y-70601318D01*
X122466000Y-70368682D01*
X122644000Y-70368682D01*
X122644000Y-70601318D01*
X122689386Y-70829485D01*
X122778412Y-71044413D01*
X122907658Y-71237843D01*
X123072157Y-71402342D01*
X123265587Y-71531588D01*
X123480515Y-71620614D01*
X123708682Y-71666000D01*
X123941318Y-71666000D01*
X124169485Y-71620614D01*
X124384413Y-71531588D01*
X124577843Y-71402342D01*
X124742342Y-71237843D01*
X124871588Y-71044413D01*
X124960614Y-70829485D01*
X125006000Y-70601318D01*
X125006000Y-70368682D01*
X125184000Y-70368682D01*
X125184000Y-70601318D01*
X125229386Y-70829485D01*
X125318412Y-71044413D01*
X125447658Y-71237843D01*
X125612157Y-71402342D01*
X125805587Y-71531588D01*
X126020515Y-71620614D01*
X126248682Y-71666000D01*
X126481318Y-71666000D01*
X126709485Y-71620614D01*
X126924413Y-71531588D01*
X127117843Y-71402342D01*
X127282342Y-71237843D01*
X127411588Y-71044413D01*
X127500614Y-70829485D01*
X127546000Y-70601318D01*
X127546000Y-70368682D01*
X127724000Y-70368682D01*
X127724000Y-70601318D01*
X127769386Y-70829485D01*
X127858412Y-71044413D01*
X127987658Y-71237843D01*
X128152157Y-71402342D01*
X128345587Y-71531588D01*
X128560515Y-71620614D01*
X128788682Y-71666000D01*
X129021318Y-71666000D01*
X129249485Y-71620614D01*
X129464413Y-71531588D01*
X129657843Y-71402342D01*
X129822342Y-71237843D01*
X129951588Y-71044413D01*
X130040614Y-70829485D01*
X130086000Y-70601318D01*
X130086000Y-70368682D01*
X130264000Y-70368682D01*
X130264000Y-70601318D01*
X130309386Y-70829485D01*
X130398412Y-71044413D01*
X130527658Y-71237843D01*
X130692157Y-71402342D01*
X130885587Y-71531588D01*
X131100515Y-71620614D01*
X131328682Y-71666000D01*
X131561318Y-71666000D01*
X131789485Y-71620614D01*
X132004413Y-71531588D01*
X132197843Y-71402342D01*
X132362342Y-71237843D01*
X132491588Y-71044413D01*
X132580614Y-70829485D01*
X132626000Y-70601318D01*
X132626000Y-70368682D01*
X132804000Y-70368682D01*
X132804000Y-70601318D01*
X132849386Y-70829485D01*
X132938412Y-71044413D01*
X133067658Y-71237843D01*
X133232157Y-71402342D01*
X133425587Y-71531588D01*
X133640515Y-71620614D01*
X133868682Y-71666000D01*
X134101318Y-71666000D01*
X134329485Y-71620614D01*
X134544413Y-71531588D01*
X134737843Y-71402342D01*
X134902342Y-71237843D01*
X135031588Y-71044413D01*
X135120614Y-70829485D01*
X135166000Y-70601318D01*
X135166000Y-70368682D01*
X135344000Y-70368682D01*
X135344000Y-70601318D01*
X135389386Y-70829485D01*
X135478412Y-71044413D01*
X135607658Y-71237843D01*
X135772157Y-71402342D01*
X135965587Y-71531588D01*
X136180515Y-71620614D01*
X136408682Y-71666000D01*
X136641318Y-71666000D01*
X136869485Y-71620614D01*
X137084413Y-71531588D01*
X137277843Y-71402342D01*
X137442342Y-71237843D01*
X137571588Y-71044413D01*
X137660614Y-70829485D01*
X137706000Y-70601318D01*
X137706000Y-70368682D01*
X137884000Y-70368682D01*
X137884000Y-70601318D01*
X137929386Y-70829485D01*
X138018412Y-71044413D01*
X138147658Y-71237843D01*
X138312157Y-71402342D01*
X138505587Y-71531588D01*
X138720515Y-71620614D01*
X138948682Y-71666000D01*
X139181318Y-71666000D01*
X139409485Y-71620614D01*
X139624413Y-71531588D01*
X139817843Y-71402342D01*
X139982342Y-71237843D01*
X140111588Y-71044413D01*
X140200614Y-70829485D01*
X140246000Y-70601318D01*
X140246000Y-70368682D01*
X140424000Y-70368682D01*
X140424000Y-70601318D01*
X140469386Y-70829485D01*
X140558412Y-71044413D01*
X140687658Y-71237843D01*
X140852157Y-71402342D01*
X141045587Y-71531588D01*
X141260515Y-71620614D01*
X141488682Y-71666000D01*
X141721318Y-71666000D01*
X141949485Y-71620614D01*
X142164413Y-71531588D01*
X142357843Y-71402342D01*
X142522342Y-71237843D01*
X142651588Y-71044413D01*
X142740614Y-70829485D01*
X142786000Y-70601318D01*
X142786000Y-70368682D01*
X142964000Y-70368682D01*
X142964000Y-70601318D01*
X143009386Y-70829485D01*
X143098412Y-71044413D01*
X143227658Y-71237843D01*
X143392157Y-71402342D01*
X143585587Y-71531588D01*
X143800515Y-71620614D01*
X144028682Y-71666000D01*
X144261318Y-71666000D01*
X144489485Y-71620614D01*
X144704413Y-71531588D01*
X144897843Y-71402342D01*
X145062342Y-71237843D01*
X145191588Y-71044413D01*
X145280614Y-70829485D01*
X145326000Y-70601318D01*
X145326000Y-70368682D01*
X145504000Y-70368682D01*
X145504000Y-70601318D01*
X145549386Y-70829485D01*
X145638412Y-71044413D01*
X145767658Y-71237843D01*
X145932157Y-71402342D01*
X146125587Y-71531588D01*
X146340515Y-71620614D01*
X146568682Y-71666000D01*
X146801318Y-71666000D01*
X147029485Y-71620614D01*
X147244413Y-71531588D01*
X147437843Y-71402342D01*
X147602342Y-71237843D01*
X147731588Y-71044413D01*
X147820614Y-70829485D01*
X147866000Y-70601318D01*
X147866000Y-70368682D01*
X148044000Y-70368682D01*
X148044000Y-70601318D01*
X148089386Y-70829485D01*
X148178412Y-71044413D01*
X148307658Y-71237843D01*
X148472157Y-71402342D01*
X148665587Y-71531588D01*
X148880515Y-71620614D01*
X149108682Y-71666000D01*
X149341318Y-71666000D01*
X149569485Y-71620614D01*
X149784413Y-71531588D01*
X149977843Y-71402342D01*
X150142342Y-71237843D01*
X150271588Y-71044413D01*
X150360614Y-70829485D01*
X150406000Y-70601318D01*
X150406000Y-70368682D01*
X150584000Y-70368682D01*
X150584000Y-70601318D01*
X150629386Y-70829485D01*
X150718412Y-71044413D01*
X150847658Y-71237843D01*
X151012157Y-71402342D01*
X151205587Y-71531588D01*
X151420515Y-71620614D01*
X151648682Y-71666000D01*
X151881318Y-71666000D01*
X152109485Y-71620614D01*
X152324413Y-71531588D01*
X152517843Y-71402342D01*
X152682342Y-71237843D01*
X152811588Y-71044413D01*
X152900614Y-70829485D01*
X152946000Y-70601318D01*
X152946000Y-70368682D01*
X153124000Y-70368682D01*
X153124000Y-70601318D01*
X153169386Y-70829485D01*
X153258412Y-71044413D01*
X153387658Y-71237843D01*
X153552157Y-71402342D01*
X153745587Y-71531588D01*
X153960515Y-71620614D01*
X154188682Y-71666000D01*
X154421318Y-71666000D01*
X154649485Y-71620614D01*
X154864413Y-71531588D01*
X155057843Y-71402342D01*
X155222342Y-71237843D01*
X155351588Y-71044413D01*
X155440614Y-70829485D01*
X155486000Y-70601318D01*
X155486000Y-70368682D01*
X155664000Y-70368682D01*
X155664000Y-70601318D01*
X155709386Y-70829485D01*
X155798412Y-71044413D01*
X155927658Y-71237843D01*
X156092157Y-71402342D01*
X156285587Y-71531588D01*
X156500515Y-71620614D01*
X156728682Y-71666000D01*
X156961318Y-71666000D01*
X157189485Y-71620614D01*
X157404413Y-71531588D01*
X157597843Y-71402342D01*
X157762342Y-71237843D01*
X157891588Y-71044413D01*
X157980614Y-70829485D01*
X158026000Y-70601318D01*
X158026000Y-70368682D01*
X158204000Y-70368682D01*
X158204000Y-70601318D01*
X158249386Y-70829485D01*
X158338412Y-71044413D01*
X158467658Y-71237843D01*
X158632157Y-71402342D01*
X158825587Y-71531588D01*
X159040515Y-71620614D01*
X159268682Y-71666000D01*
X159501318Y-71666000D01*
X159729485Y-71620614D01*
X159944413Y-71531588D01*
X160137843Y-71402342D01*
X160302342Y-71237843D01*
X160431588Y-71044413D01*
X160520614Y-70829485D01*
X160566000Y-70601318D01*
X160566000Y-70368682D01*
X160520614Y-70140515D01*
X160431588Y-69925587D01*
X160302342Y-69732157D01*
X160255185Y-69685000D01*
X160742157Y-69685000D01*
X160742157Y-71285000D01*
X160749513Y-71359689D01*
X160771299Y-71431508D01*
X160806678Y-71497696D01*
X160854289Y-71555711D01*
X160912304Y-71603322D01*
X160978492Y-71638701D01*
X161050311Y-71660487D01*
X161125000Y-71667843D01*
X162725000Y-71667843D01*
X162799689Y-71660487D01*
X162871508Y-71638701D01*
X162937696Y-71603322D01*
X162995711Y-71555711D01*
X163043322Y-71497696D01*
X163078701Y-71431508D01*
X163100487Y-71359689D01*
X163107843Y-71285000D01*
X163107843Y-69685000D01*
X163100487Y-69610311D01*
X163078701Y-69538492D01*
X163043322Y-69472304D01*
X162995711Y-69414289D01*
X162937696Y-69366678D01*
X162871508Y-69331299D01*
X162799689Y-69309513D01*
X162725000Y-69302157D01*
X161125000Y-69302157D01*
X161050311Y-69309513D01*
X160978492Y-69331299D01*
X160912304Y-69366678D01*
X160854289Y-69414289D01*
X160806678Y-69472304D01*
X160771299Y-69538492D01*
X160749513Y-69610311D01*
X160742157Y-69685000D01*
X160255185Y-69685000D01*
X160137843Y-69567658D01*
X159944413Y-69438412D01*
X159729485Y-69349386D01*
X159501318Y-69304000D01*
X159268682Y-69304000D01*
X159040515Y-69349386D01*
X158825587Y-69438412D01*
X158632157Y-69567658D01*
X158467658Y-69732157D01*
X158338412Y-69925587D01*
X158249386Y-70140515D01*
X158204000Y-70368682D01*
X158026000Y-70368682D01*
X157980614Y-70140515D01*
X157891588Y-69925587D01*
X157762342Y-69732157D01*
X157597843Y-69567658D01*
X157404413Y-69438412D01*
X157189485Y-69349386D01*
X156961318Y-69304000D01*
X156728682Y-69304000D01*
X156500515Y-69349386D01*
X156285587Y-69438412D01*
X156092157Y-69567658D01*
X155927658Y-69732157D01*
X155798412Y-69925587D01*
X155709386Y-70140515D01*
X155664000Y-70368682D01*
X155486000Y-70368682D01*
X155440614Y-70140515D01*
X155351588Y-69925587D01*
X155222342Y-69732157D01*
X155057843Y-69567658D01*
X154864413Y-69438412D01*
X154649485Y-69349386D01*
X154421318Y-69304000D01*
X154188682Y-69304000D01*
X153960515Y-69349386D01*
X153745587Y-69438412D01*
X153552157Y-69567658D01*
X153387658Y-69732157D01*
X153258412Y-69925587D01*
X153169386Y-70140515D01*
X153124000Y-70368682D01*
X152946000Y-70368682D01*
X152900614Y-70140515D01*
X152811588Y-69925587D01*
X152682342Y-69732157D01*
X152517843Y-69567658D01*
X152324413Y-69438412D01*
X152109485Y-69349386D01*
X151881318Y-69304000D01*
X151648682Y-69304000D01*
X151420515Y-69349386D01*
X151205587Y-69438412D01*
X151012157Y-69567658D01*
X150847658Y-69732157D01*
X150718412Y-69925587D01*
X150629386Y-70140515D01*
X150584000Y-70368682D01*
X150406000Y-70368682D01*
X150360614Y-70140515D01*
X150271588Y-69925587D01*
X150142342Y-69732157D01*
X149977843Y-69567658D01*
X149784413Y-69438412D01*
X149569485Y-69349386D01*
X149341318Y-69304000D01*
X149108682Y-69304000D01*
X148880515Y-69349386D01*
X148665587Y-69438412D01*
X148472157Y-69567658D01*
X148307658Y-69732157D01*
X148178412Y-69925587D01*
X148089386Y-70140515D01*
X148044000Y-70368682D01*
X147866000Y-70368682D01*
X147820614Y-70140515D01*
X147731588Y-69925587D01*
X147602342Y-69732157D01*
X147437843Y-69567658D01*
X147244413Y-69438412D01*
X147029485Y-69349386D01*
X146801318Y-69304000D01*
X146568682Y-69304000D01*
X146340515Y-69349386D01*
X146125587Y-69438412D01*
X145932157Y-69567658D01*
X145767658Y-69732157D01*
X145638412Y-69925587D01*
X145549386Y-70140515D01*
X145504000Y-70368682D01*
X145326000Y-70368682D01*
X145280614Y-70140515D01*
X145191588Y-69925587D01*
X145062342Y-69732157D01*
X144897843Y-69567658D01*
X144704413Y-69438412D01*
X144489485Y-69349386D01*
X144261318Y-69304000D01*
X144028682Y-69304000D01*
X143800515Y-69349386D01*
X143585587Y-69438412D01*
X143392157Y-69567658D01*
X143227658Y-69732157D01*
X143098412Y-69925587D01*
X143009386Y-70140515D01*
X142964000Y-70368682D01*
X142786000Y-70368682D01*
X142740614Y-70140515D01*
X142651588Y-69925587D01*
X142522342Y-69732157D01*
X142357843Y-69567658D01*
X142164413Y-69438412D01*
X141949485Y-69349386D01*
X141721318Y-69304000D01*
X141488682Y-69304000D01*
X141260515Y-69349386D01*
X141045587Y-69438412D01*
X140852157Y-69567658D01*
X140687658Y-69732157D01*
X140558412Y-69925587D01*
X140469386Y-70140515D01*
X140424000Y-70368682D01*
X140246000Y-70368682D01*
X140200614Y-70140515D01*
X140111588Y-69925587D01*
X139982342Y-69732157D01*
X139817843Y-69567658D01*
X139624413Y-69438412D01*
X139409485Y-69349386D01*
X139181318Y-69304000D01*
X138948682Y-69304000D01*
X138720515Y-69349386D01*
X138505587Y-69438412D01*
X138312157Y-69567658D01*
X138147658Y-69732157D01*
X138018412Y-69925587D01*
X137929386Y-70140515D01*
X137884000Y-70368682D01*
X137706000Y-70368682D01*
X137660614Y-70140515D01*
X137571588Y-69925587D01*
X137442342Y-69732157D01*
X137277843Y-69567658D01*
X137084413Y-69438412D01*
X136869485Y-69349386D01*
X136641318Y-69304000D01*
X136408682Y-69304000D01*
X136180515Y-69349386D01*
X135965587Y-69438412D01*
X135772157Y-69567658D01*
X135607658Y-69732157D01*
X135478412Y-69925587D01*
X135389386Y-70140515D01*
X135344000Y-70368682D01*
X135166000Y-70368682D01*
X135120614Y-70140515D01*
X135031588Y-69925587D01*
X134902342Y-69732157D01*
X134737843Y-69567658D01*
X134544413Y-69438412D01*
X134329485Y-69349386D01*
X134101318Y-69304000D01*
X133868682Y-69304000D01*
X133640515Y-69349386D01*
X133425587Y-69438412D01*
X133232157Y-69567658D01*
X133067658Y-69732157D01*
X132938412Y-69925587D01*
X132849386Y-70140515D01*
X132804000Y-70368682D01*
X132626000Y-70368682D01*
X132580614Y-70140515D01*
X132491588Y-69925587D01*
X132362342Y-69732157D01*
X132197843Y-69567658D01*
X132004413Y-69438412D01*
X131789485Y-69349386D01*
X131561318Y-69304000D01*
X131328682Y-69304000D01*
X131100515Y-69349386D01*
X130885587Y-69438412D01*
X130692157Y-69567658D01*
X130527658Y-69732157D01*
X130398412Y-69925587D01*
X130309386Y-70140515D01*
X130264000Y-70368682D01*
X130086000Y-70368682D01*
X130040614Y-70140515D01*
X129951588Y-69925587D01*
X129822342Y-69732157D01*
X129657843Y-69567658D01*
X129464413Y-69438412D01*
X129249485Y-69349386D01*
X129021318Y-69304000D01*
X128788682Y-69304000D01*
X128560515Y-69349386D01*
X128345587Y-69438412D01*
X128152157Y-69567658D01*
X127987658Y-69732157D01*
X127858412Y-69925587D01*
X127769386Y-70140515D01*
X127724000Y-70368682D01*
X127546000Y-70368682D01*
X127500614Y-70140515D01*
X127411588Y-69925587D01*
X127282342Y-69732157D01*
X127117843Y-69567658D01*
X126924413Y-69438412D01*
X126709485Y-69349386D01*
X126481318Y-69304000D01*
X126248682Y-69304000D01*
X126020515Y-69349386D01*
X125805587Y-69438412D01*
X125612157Y-69567658D01*
X125447658Y-69732157D01*
X125318412Y-69925587D01*
X125229386Y-70140515D01*
X125184000Y-70368682D01*
X125006000Y-70368682D01*
X124960614Y-70140515D01*
X124871588Y-69925587D01*
X124742342Y-69732157D01*
X124577843Y-69567658D01*
X124384413Y-69438412D01*
X124169485Y-69349386D01*
X123941318Y-69304000D01*
X123708682Y-69304000D01*
X123480515Y-69349386D01*
X123265587Y-69438412D01*
X123072157Y-69567658D01*
X122907658Y-69732157D01*
X122778412Y-69925587D01*
X122689386Y-70140515D01*
X122644000Y-70368682D01*
X122466000Y-70368682D01*
X122420614Y-70140515D01*
X122331588Y-69925587D01*
X122202342Y-69732157D01*
X122037843Y-69567658D01*
X121844413Y-69438412D01*
X121629485Y-69349386D01*
X121401318Y-69304000D01*
X121168682Y-69304000D01*
X120940515Y-69349386D01*
X120725587Y-69438412D01*
X120532157Y-69567658D01*
X120367658Y-69732157D01*
X120238412Y-69925587D01*
X120149386Y-70140515D01*
X120104000Y-70368682D01*
X119926000Y-70368682D01*
X119880614Y-70140515D01*
X119791588Y-69925587D01*
X119662342Y-69732157D01*
X119497843Y-69567658D01*
X119304413Y-69438412D01*
X119089485Y-69349386D01*
X118861318Y-69304000D01*
X118628682Y-69304000D01*
X118400515Y-69349386D01*
X118185587Y-69438412D01*
X117992157Y-69567658D01*
X117827658Y-69732157D01*
X117698412Y-69925587D01*
X117609386Y-70140515D01*
X117564000Y-70368682D01*
X117386000Y-70368682D01*
X117340614Y-70140515D01*
X117251588Y-69925587D01*
X117122342Y-69732157D01*
X116957843Y-69567658D01*
X116764413Y-69438412D01*
X116549485Y-69349386D01*
X116321318Y-69304000D01*
X116088682Y-69304000D01*
X115860515Y-69349386D01*
X115645587Y-69438412D01*
X115452157Y-69567658D01*
X115287658Y-69732157D01*
X115158412Y-69925587D01*
X115069386Y-70140515D01*
X115024000Y-70368682D01*
X114846000Y-70368682D01*
X114800614Y-70140515D01*
X114711588Y-69925587D01*
X114582342Y-69732157D01*
X114417843Y-69567658D01*
X114224413Y-69438412D01*
X114009485Y-69349386D01*
X113781318Y-69304000D01*
X113548682Y-69304000D01*
X113320515Y-69349386D01*
X113105587Y-69438412D01*
X112912157Y-69567658D01*
X112747658Y-69732157D01*
X112618412Y-69925587D01*
X112529386Y-70140515D01*
X112484000Y-70368682D01*
X112306000Y-70368682D01*
X112260614Y-70140515D01*
X112171588Y-69925587D01*
X112042342Y-69732157D01*
X111877843Y-69567658D01*
X111684413Y-69438412D01*
X111469485Y-69349386D01*
X111241318Y-69304000D01*
X111008682Y-69304000D01*
X110780515Y-69349386D01*
X110565587Y-69438412D01*
X110372157Y-69567658D01*
X110207658Y-69732157D01*
X110078412Y-69925587D01*
X109989386Y-70140515D01*
X109944000Y-70368682D01*
X109766000Y-70368682D01*
X109720614Y-70140515D01*
X109631588Y-69925587D01*
X109502342Y-69732157D01*
X109337843Y-69567658D01*
X109144413Y-69438412D01*
X108929485Y-69349386D01*
X108701318Y-69304000D01*
X108468682Y-69304000D01*
X108240515Y-69349386D01*
X108025587Y-69438412D01*
X107832157Y-69567658D01*
X107667658Y-69732157D01*
X107538412Y-69925587D01*
X107449386Y-70140515D01*
X107404000Y-70368682D01*
X107226000Y-70368682D01*
X107180614Y-70140515D01*
X107091588Y-69925587D01*
X106962342Y-69732157D01*
X106797843Y-69567658D01*
X106604413Y-69438412D01*
X106389485Y-69349386D01*
X106161318Y-69304000D01*
X105928682Y-69304000D01*
X105700515Y-69349386D01*
X105485587Y-69438412D01*
X105292157Y-69567658D01*
X105127658Y-69732157D01*
X104998412Y-69925587D01*
X104909386Y-70140515D01*
X104864000Y-70368682D01*
X104686000Y-70368682D01*
X104640614Y-70140515D01*
X104551588Y-69925587D01*
X104422342Y-69732157D01*
X104257843Y-69567658D01*
X104064413Y-69438412D01*
X103849485Y-69349386D01*
X103621318Y-69304000D01*
X103388682Y-69304000D01*
X103160515Y-69349386D01*
X102945587Y-69438412D01*
X102752157Y-69567658D01*
X102587658Y-69732157D01*
X102458412Y-69925587D01*
X102369386Y-70140515D01*
X102324000Y-70368682D01*
X74776000Y-70368682D01*
X74776000Y-69111520D01*
X74790870Y-68959865D01*
X74828082Y-68836612D01*
X74888526Y-68722932D01*
X74969899Y-68623159D01*
X75069105Y-68541089D01*
X75182357Y-68479853D01*
X75305352Y-68441780D01*
X75455492Y-68426000D01*
X162536480Y-68426000D01*
X162688135Y-68440870D01*
G37*
G04 #@! TD.AperFunction*
M02*
