G04 #@! TF.GenerationSoftware,KiCad,Pcbnew,(5.1.12)-1*
G04 #@! TF.CreationDate,2021-12-05T17:59:35+00:00*
G04 #@! TF.ProjectId,RGBtoHDMI Amiga Denise DIP Breakout FFC - CDTV,52474274-6f48-4444-9d49-20416d696761,CDTV*
G04 #@! TF.SameCoordinates,Original*
G04 #@! TF.FileFunction,Soldermask,Top*
G04 #@! TF.FilePolarity,Negative*
%FSLAX46Y46*%
G04 Gerber Fmt 4.6, Leading zero omitted, Abs format (unit mm)*
G04 Created by KiCad (PCBNEW (5.1.12)-1) date 2021-12-05 17:59:35*
%MOMM*%
%LPD*%
G01*
G04 APERTURE LIST*
%ADD10O,1.900000X1.900000*%
G04 APERTURE END LIST*
G36*
G01*
X74345000Y-77020000D02*
X74345000Y-74020000D01*
G75*
G02*
X74495000Y-73870000I150000J0D01*
G01*
X76995000Y-73870000D01*
G75*
G02*
X77145000Y-74020000I0J-150000D01*
G01*
X77145000Y-77020000D01*
G75*
G02*
X76995000Y-77170000I-150000J0D01*
G01*
X74495000Y-77170000D01*
G75*
G02*
X74345000Y-77020000I0J150000D01*
G01*
G37*
G36*
G01*
X96845000Y-77020000D02*
X96845000Y-74020000D01*
G75*
G02*
X96995000Y-73870000I150000J0D01*
G01*
X99495000Y-73870000D01*
G75*
G02*
X99645000Y-74020000I0J-150000D01*
G01*
X99645000Y-77020000D01*
G75*
G02*
X99495000Y-77170000I-150000J0D01*
G01*
X96995000Y-77170000D01*
G75*
G02*
X96845000Y-77020000I0J150000D01*
G01*
G37*
G36*
G01*
X95045000Y-74070000D02*
X95045000Y-72070000D01*
G75*
G02*
X95195000Y-71920000I150000J0D01*
G01*
X95795000Y-71920000D01*
G75*
G02*
X95945000Y-72070000I0J-150000D01*
G01*
X95945000Y-74070000D01*
G75*
G02*
X95795000Y-74220000I-150000J0D01*
G01*
X95195000Y-74220000D01*
G75*
G02*
X95045000Y-74070000I0J150000D01*
G01*
G37*
G36*
G01*
X94045000Y-74070000D02*
X94045000Y-72070000D01*
G75*
G02*
X94195000Y-71920000I150000J0D01*
G01*
X94795000Y-71920000D01*
G75*
G02*
X94945000Y-72070000I0J-150000D01*
G01*
X94945000Y-74070000D01*
G75*
G02*
X94795000Y-74220000I-150000J0D01*
G01*
X94195000Y-74220000D01*
G75*
G02*
X94045000Y-74070000I0J150000D01*
G01*
G37*
G36*
G01*
X93045000Y-74070000D02*
X93045000Y-72070000D01*
G75*
G02*
X93195000Y-71920000I150000J0D01*
G01*
X93795000Y-71920000D01*
G75*
G02*
X93945000Y-72070000I0J-150000D01*
G01*
X93945000Y-74070000D01*
G75*
G02*
X93795000Y-74220000I-150000J0D01*
G01*
X93195000Y-74220000D01*
G75*
G02*
X93045000Y-74070000I0J150000D01*
G01*
G37*
G36*
G01*
X92045000Y-74070000D02*
X92045000Y-72070000D01*
G75*
G02*
X92195000Y-71920000I150000J0D01*
G01*
X92795000Y-71920000D01*
G75*
G02*
X92945000Y-72070000I0J-150000D01*
G01*
X92945000Y-74070000D01*
G75*
G02*
X92795000Y-74220000I-150000J0D01*
G01*
X92195000Y-74220000D01*
G75*
G02*
X92045000Y-74070000I0J150000D01*
G01*
G37*
G36*
G01*
X91045000Y-74070000D02*
X91045000Y-72070000D01*
G75*
G02*
X91195000Y-71920000I150000J0D01*
G01*
X91795000Y-71920000D01*
G75*
G02*
X91945000Y-72070000I0J-150000D01*
G01*
X91945000Y-74070000D01*
G75*
G02*
X91795000Y-74220000I-150000J0D01*
G01*
X91195000Y-74220000D01*
G75*
G02*
X91045000Y-74070000I0J150000D01*
G01*
G37*
G36*
G01*
X90045000Y-74070000D02*
X90045000Y-72070000D01*
G75*
G02*
X90195000Y-71920000I150000J0D01*
G01*
X90795000Y-71920000D01*
G75*
G02*
X90945000Y-72070000I0J-150000D01*
G01*
X90945000Y-74070000D01*
G75*
G02*
X90795000Y-74220000I-150000J0D01*
G01*
X90195000Y-74220000D01*
G75*
G02*
X90045000Y-74070000I0J150000D01*
G01*
G37*
G36*
G01*
X89045000Y-74070000D02*
X89045000Y-72070000D01*
G75*
G02*
X89195000Y-71920000I150000J0D01*
G01*
X89795000Y-71920000D01*
G75*
G02*
X89945000Y-72070000I0J-150000D01*
G01*
X89945000Y-74070000D01*
G75*
G02*
X89795000Y-74220000I-150000J0D01*
G01*
X89195000Y-74220000D01*
G75*
G02*
X89045000Y-74070000I0J150000D01*
G01*
G37*
G36*
G01*
X88045000Y-74070000D02*
X88045000Y-72070000D01*
G75*
G02*
X88195000Y-71920000I150000J0D01*
G01*
X88795000Y-71920000D01*
G75*
G02*
X88945000Y-72070000I0J-150000D01*
G01*
X88945000Y-74070000D01*
G75*
G02*
X88795000Y-74220000I-150000J0D01*
G01*
X88195000Y-74220000D01*
G75*
G02*
X88045000Y-74070000I0J150000D01*
G01*
G37*
G36*
G01*
X87045000Y-74070000D02*
X87045000Y-72070000D01*
G75*
G02*
X87195000Y-71920000I150000J0D01*
G01*
X87795000Y-71920000D01*
G75*
G02*
X87945000Y-72070000I0J-150000D01*
G01*
X87945000Y-74070000D01*
G75*
G02*
X87795000Y-74220000I-150000J0D01*
G01*
X87195000Y-74220000D01*
G75*
G02*
X87045000Y-74070000I0J150000D01*
G01*
G37*
G36*
G01*
X86045000Y-74070000D02*
X86045000Y-72070000D01*
G75*
G02*
X86195000Y-71920000I150000J0D01*
G01*
X86795000Y-71920000D01*
G75*
G02*
X86945000Y-72070000I0J-150000D01*
G01*
X86945000Y-74070000D01*
G75*
G02*
X86795000Y-74220000I-150000J0D01*
G01*
X86195000Y-74220000D01*
G75*
G02*
X86045000Y-74070000I0J150000D01*
G01*
G37*
G36*
G01*
X85045000Y-74070000D02*
X85045000Y-72070000D01*
G75*
G02*
X85195000Y-71920000I150000J0D01*
G01*
X85795000Y-71920000D01*
G75*
G02*
X85945000Y-72070000I0J-150000D01*
G01*
X85945000Y-74070000D01*
G75*
G02*
X85795000Y-74220000I-150000J0D01*
G01*
X85195000Y-74220000D01*
G75*
G02*
X85045000Y-74070000I0J150000D01*
G01*
G37*
G36*
G01*
X84045000Y-74070000D02*
X84045000Y-72070000D01*
G75*
G02*
X84195000Y-71920000I150000J0D01*
G01*
X84795000Y-71920000D01*
G75*
G02*
X84945000Y-72070000I0J-150000D01*
G01*
X84945000Y-74070000D01*
G75*
G02*
X84795000Y-74220000I-150000J0D01*
G01*
X84195000Y-74220000D01*
G75*
G02*
X84045000Y-74070000I0J150000D01*
G01*
G37*
G36*
G01*
X83045000Y-74070000D02*
X83045000Y-72070000D01*
G75*
G02*
X83195000Y-71920000I150000J0D01*
G01*
X83795000Y-71920000D01*
G75*
G02*
X83945000Y-72070000I0J-150000D01*
G01*
X83945000Y-74070000D01*
G75*
G02*
X83795000Y-74220000I-150000J0D01*
G01*
X83195000Y-74220000D01*
G75*
G02*
X83045000Y-74070000I0J150000D01*
G01*
G37*
G36*
G01*
X82045000Y-74070000D02*
X82045000Y-72070000D01*
G75*
G02*
X82195000Y-71920000I150000J0D01*
G01*
X82795000Y-71920000D01*
G75*
G02*
X82945000Y-72070000I0J-150000D01*
G01*
X82945000Y-74070000D01*
G75*
G02*
X82795000Y-74220000I-150000J0D01*
G01*
X82195000Y-74220000D01*
G75*
G02*
X82045000Y-74070000I0J150000D01*
G01*
G37*
G36*
G01*
X81045000Y-74070000D02*
X81045000Y-72070000D01*
G75*
G02*
X81195000Y-71920000I150000J0D01*
G01*
X81795000Y-71920000D01*
G75*
G02*
X81945000Y-72070000I0J-150000D01*
G01*
X81945000Y-74070000D01*
G75*
G02*
X81795000Y-74220000I-150000J0D01*
G01*
X81195000Y-74220000D01*
G75*
G02*
X81045000Y-74070000I0J150000D01*
G01*
G37*
G36*
G01*
X80045000Y-74070000D02*
X80045000Y-72070000D01*
G75*
G02*
X80195000Y-71920000I150000J0D01*
G01*
X80795000Y-71920000D01*
G75*
G02*
X80945000Y-72070000I0J-150000D01*
G01*
X80945000Y-74070000D01*
G75*
G02*
X80795000Y-74220000I-150000J0D01*
G01*
X80195000Y-74220000D01*
G75*
G02*
X80045000Y-74070000I0J150000D01*
G01*
G37*
G36*
G01*
X79045000Y-74070000D02*
X79045000Y-72070000D01*
G75*
G02*
X79195000Y-71920000I150000J0D01*
G01*
X79795000Y-71920000D01*
G75*
G02*
X79945000Y-72070000I0J-150000D01*
G01*
X79945000Y-74070000D01*
G75*
G02*
X79795000Y-74220000I-150000J0D01*
G01*
X79195000Y-74220000D01*
G75*
G02*
X79045000Y-74070000I0J150000D01*
G01*
G37*
G36*
G01*
X78045000Y-74070000D02*
X78045000Y-72070000D01*
G75*
G02*
X78195000Y-71920000I150000J0D01*
G01*
X78795000Y-71920000D01*
G75*
G02*
X78945000Y-72070000I0J-150000D01*
G01*
X78945000Y-74070000D01*
G75*
G02*
X78795000Y-74220000I-150000J0D01*
G01*
X78195000Y-74220000D01*
G75*
G02*
X78045000Y-74070000I0J150000D01*
G01*
G37*
D10*
X103505000Y-85725000D03*
X106045000Y-85725000D03*
X108585000Y-85725000D03*
X111125000Y-85725000D03*
X113665000Y-85725000D03*
X116205000Y-85725000D03*
X118745000Y-85725000D03*
X121285000Y-85725000D03*
X123825000Y-85725000D03*
X126365000Y-85725000D03*
X128905000Y-85725000D03*
G36*
G01*
X132245000Y-86675000D02*
X130645000Y-86675000D01*
G75*
G02*
X130495000Y-86525000I0J150000D01*
G01*
X130495000Y-84925000D01*
G75*
G02*
X130645000Y-84775000I150000J0D01*
G01*
X132245000Y-84775000D01*
G75*
G02*
X132395000Y-84925000I0J-150000D01*
G01*
X132395000Y-86525000D01*
G75*
G02*
X132245000Y-86675000I-150000J0D01*
G01*
G37*
X133985000Y-85725000D03*
X136525000Y-85725000D03*
X139065000Y-85725000D03*
X141605000Y-85725000D03*
X144145000Y-85725000D03*
X146685000Y-85725000D03*
X149225000Y-85725000D03*
X151765000Y-85725000D03*
X154305000Y-85725000D03*
X156845000Y-85725000D03*
X159385000Y-85725000D03*
G36*
G01*
X162725000Y-86675000D02*
X161125000Y-86675000D01*
G75*
G02*
X160975000Y-86525000I0J150000D01*
G01*
X160975000Y-84925000D01*
G75*
G02*
X161125000Y-84775000I150000J0D01*
G01*
X162725000Y-84775000D01*
G75*
G02*
X162875000Y-84925000I0J-150000D01*
G01*
X162875000Y-86525000D01*
G75*
G02*
X162725000Y-86675000I-150000J0D01*
G01*
G37*
X103505000Y-70485000D03*
X106045000Y-70485000D03*
X108585000Y-70485000D03*
X111125000Y-70485000D03*
X113665000Y-70485000D03*
X116205000Y-70485000D03*
X118745000Y-70485000D03*
X121285000Y-70485000D03*
X123825000Y-70485000D03*
X126365000Y-70485000D03*
X128905000Y-70485000D03*
X131445000Y-70485000D03*
X133985000Y-70485000D03*
X136525000Y-70485000D03*
X139065000Y-70485000D03*
X141605000Y-70485000D03*
X144145000Y-70485000D03*
X146685000Y-70485000D03*
X149225000Y-70485000D03*
X151765000Y-70485000D03*
X154305000Y-70485000D03*
X156845000Y-70485000D03*
X159385000Y-70485000D03*
G36*
G01*
X162725000Y-71435000D02*
X161125000Y-71435000D01*
G75*
G02*
X160975000Y-71285000I0J150000D01*
G01*
X160975000Y-69685000D01*
G75*
G02*
X161125000Y-69535000I150000J0D01*
G01*
X162725000Y-69535000D01*
G75*
G02*
X162875000Y-69685000I0J-150000D01*
G01*
X162875000Y-71285000D01*
G75*
G02*
X162725000Y-71435000I-150000J0D01*
G01*
G37*
X161925000Y-88646000D03*
X133985000Y-73406000D03*
X159385000Y-88646000D03*
X136525000Y-73406000D03*
X156845000Y-88646000D03*
X139065000Y-73406000D03*
X154305000Y-88646000D03*
X141605000Y-73406000D03*
X151765000Y-88646000D03*
X144145000Y-73406000D03*
X149225000Y-88646000D03*
X146685000Y-73406000D03*
X146685000Y-88646000D03*
X149225000Y-73406000D03*
X144145000Y-88646000D03*
X151765000Y-73406000D03*
X141605000Y-88646000D03*
X154305000Y-73406000D03*
X139065000Y-88646000D03*
X156845000Y-73406000D03*
X136525000Y-88646000D03*
X159385000Y-73406000D03*
X133985000Y-88646000D03*
G36*
G01*
X161125000Y-72456000D02*
X162725000Y-72456000D01*
G75*
G02*
X162875000Y-72606000I0J-150000D01*
G01*
X162875000Y-74206000D01*
G75*
G02*
X162725000Y-74356000I-150000J0D01*
G01*
X161125000Y-74356000D01*
G75*
G02*
X160975000Y-74206000I0J150000D01*
G01*
X160975000Y-72606000D01*
G75*
G02*
X161125000Y-72456000I150000J0D01*
G01*
G37*
G36*
G01*
X130645000Y-72456000D02*
X132245000Y-72456000D01*
G75*
G02*
X132395000Y-72606000I0J-150000D01*
G01*
X132395000Y-74206000D01*
G75*
G02*
X132245000Y-74356000I-150000J0D01*
G01*
X130645000Y-74356000D01*
G75*
G02*
X130495000Y-74206000I0J150000D01*
G01*
X130495000Y-72606000D01*
G75*
G02*
X130645000Y-72456000I150000J0D01*
G01*
G37*
X103505000Y-88646000D03*
X128905000Y-73406000D03*
X106045000Y-88646000D03*
X126365000Y-73406000D03*
X108585000Y-88646000D03*
X123825000Y-73406000D03*
X111125000Y-88646000D03*
X121285000Y-73406000D03*
X113665000Y-88646000D03*
X118745000Y-73406000D03*
X116205000Y-88646000D03*
X116205000Y-73406000D03*
X118745000Y-88646000D03*
X113665000Y-73406000D03*
X121285000Y-88646000D03*
X111125000Y-73406000D03*
X123825000Y-88646000D03*
X108585000Y-73406000D03*
X126365000Y-88646000D03*
X106045000Y-73406000D03*
X128905000Y-88646000D03*
X103505000Y-73406000D03*
X131445000Y-88646000D03*
M02*
