G04 #@! TF.GenerationSoftware,KiCad,Pcbnew,(5.1.12)-1*
G04 #@! TF.CreationDate,2021-12-05T17:59:35+00:00*
G04 #@! TF.ProjectId,RGBtoHDMI Amiga Denise DIP Breakout FFC - CDTV,52474274-6f48-4444-9d49-20416d696761,CDTV*
G04 #@! TF.SameCoordinates,Original*
G04 #@! TF.FileFunction,Copper,L1,Top*
G04 #@! TF.FilePolarity,Positive*
%FSLAX46Y46*%
G04 Gerber Fmt 4.6, Leading zero omitted, Abs format (unit mm)*
G04 Created by KiCad (PCBNEW (5.1.12)-1) date 2021-12-05 17:59:35*
%MOMM*%
%LPD*%
G01*
G04 APERTURE LIST*
G04 #@! TA.AperFunction,SMDPad,CuDef*
%ADD10R,2.500000X3.000000*%
G04 #@! TD*
G04 #@! TA.AperFunction,SMDPad,CuDef*
%ADD11R,0.600000X2.000000*%
G04 #@! TD*
G04 #@! TA.AperFunction,ComponentPad*
%ADD12O,1.600000X1.600000*%
G04 #@! TD*
G04 #@! TA.AperFunction,ComponentPad*
%ADD13R,1.600000X1.600000*%
G04 #@! TD*
G04 #@! TA.AperFunction,ViaPad*
%ADD14C,0.800000*%
G04 #@! TD*
G04 #@! TA.AperFunction,Conductor*
%ADD15C,0.500000*%
G04 #@! TD*
G04 #@! TA.AperFunction,Conductor*
%ADD16C,0.250000*%
G04 #@! TD*
G04 #@! TA.AperFunction,Conductor*
%ADD17C,0.254000*%
G04 #@! TD*
G04 #@! TA.AperFunction,Conductor*
%ADD18C,0.100000*%
G04 #@! TD*
G04 APERTURE END LIST*
D10*
X75745000Y-75520000D03*
X98245000Y-75520000D03*
D11*
X95495000Y-73070000D03*
X94495000Y-73070000D03*
X93495000Y-73070000D03*
X92495000Y-73070000D03*
X91495000Y-73070000D03*
X90495000Y-73070000D03*
X89495000Y-73070000D03*
X88495000Y-73070000D03*
X87495000Y-73070000D03*
X86495000Y-73070000D03*
X85495000Y-73070000D03*
X84495000Y-73070000D03*
X83495000Y-73070000D03*
X82495000Y-73070000D03*
X81495000Y-73070000D03*
X80495000Y-73070000D03*
X79495000Y-73070000D03*
X78495000Y-73070000D03*
D12*
X103505000Y-85725000D03*
X106045000Y-85725000D03*
X108585000Y-85725000D03*
X111125000Y-85725000D03*
X113665000Y-85725000D03*
X116205000Y-85725000D03*
X118745000Y-85725000D03*
X121285000Y-85725000D03*
X123825000Y-85725000D03*
X126365000Y-85725000D03*
X128905000Y-85725000D03*
D13*
X131445000Y-85725000D03*
D12*
X133985000Y-85725000D03*
X136525000Y-85725000D03*
X139065000Y-85725000D03*
X141605000Y-85725000D03*
X144145000Y-85725000D03*
X146685000Y-85725000D03*
X149225000Y-85725000D03*
X151765000Y-85725000D03*
X154305000Y-85725000D03*
X156845000Y-85725000D03*
X159385000Y-85725000D03*
D13*
X161925000Y-85725000D03*
D12*
X103505000Y-70485000D03*
X106045000Y-70485000D03*
X108585000Y-70485000D03*
X111125000Y-70485000D03*
X113665000Y-70485000D03*
X116205000Y-70485000D03*
X118745000Y-70485000D03*
X121285000Y-70485000D03*
X123825000Y-70485000D03*
X126365000Y-70485000D03*
X128905000Y-70485000D03*
X131445000Y-70485000D03*
X133985000Y-70485000D03*
X136525000Y-70485000D03*
X139065000Y-70485000D03*
X141605000Y-70485000D03*
X144145000Y-70485000D03*
X146685000Y-70485000D03*
X149225000Y-70485000D03*
X151765000Y-70485000D03*
X154305000Y-70485000D03*
X156845000Y-70485000D03*
X159385000Y-70485000D03*
D13*
X161925000Y-70485000D03*
D12*
X161925000Y-88646000D03*
X133985000Y-73406000D03*
X159385000Y-88646000D03*
X136525000Y-73406000D03*
X156845000Y-88646000D03*
X139065000Y-73406000D03*
X154305000Y-88646000D03*
X141605000Y-73406000D03*
X151765000Y-88646000D03*
X144145000Y-73406000D03*
X149225000Y-88646000D03*
X146685000Y-73406000D03*
X146685000Y-88646000D03*
X149225000Y-73406000D03*
X144145000Y-88646000D03*
X151765000Y-73406000D03*
X141605000Y-88646000D03*
X154305000Y-73406000D03*
X139065000Y-88646000D03*
X156845000Y-73406000D03*
X136525000Y-88646000D03*
X159385000Y-73406000D03*
X133985000Y-88646000D03*
D13*
X161925000Y-73406000D03*
X131445000Y-73406000D03*
D12*
X103505000Y-88646000D03*
X128905000Y-73406000D03*
X106045000Y-88646000D03*
X126365000Y-73406000D03*
X108585000Y-88646000D03*
X123825000Y-73406000D03*
X111125000Y-88646000D03*
X121285000Y-73406000D03*
X113665000Y-88646000D03*
X118745000Y-73406000D03*
X116205000Y-88646000D03*
X116205000Y-73406000D03*
X118745000Y-88646000D03*
X113665000Y-73406000D03*
X121285000Y-88646000D03*
X111125000Y-73406000D03*
X123825000Y-88646000D03*
X108585000Y-73406000D03*
X126365000Y-88646000D03*
X106045000Y-73406000D03*
X128905000Y-88646000D03*
X103505000Y-73406000D03*
X131445000Y-88646000D03*
D14*
X97536000Y-76327000D03*
X98933000Y-76327000D03*
X98933000Y-74676000D03*
X97536000Y-74676000D03*
X75057000Y-76454000D03*
X76454000Y-76454000D03*
X76454000Y-74549000D03*
X75057000Y-74549000D03*
X92456000Y-74676000D03*
X92456000Y-71247000D03*
X94996000Y-74676000D03*
X94996000Y-71374000D03*
X84455000Y-77724000D03*
X83566000Y-79121000D03*
X82550004Y-80645000D03*
X81534000Y-81788000D03*
X80518006Y-83312000D03*
D15*
X103505000Y-70485000D02*
X103505000Y-73406000D01*
D16*
X84495000Y-77684000D02*
X84455000Y-77724000D01*
X84495000Y-73070000D02*
X84495000Y-77684000D01*
D15*
X106045000Y-70485000D02*
X106045000Y-73406000D01*
D16*
X83495000Y-73070000D02*
X83495000Y-79050000D01*
X83495000Y-79050000D02*
X83566000Y-79121000D01*
D15*
X108585000Y-70485000D02*
X108585000Y-73406000D01*
D16*
X82495000Y-73070000D02*
X82495000Y-80589996D01*
X82495000Y-80589996D02*
X82550004Y-80645000D01*
D15*
X111125000Y-70485000D02*
X111125000Y-73406000D01*
D16*
X81495000Y-81749000D02*
X81534000Y-81788000D01*
X81495000Y-73070000D02*
X81495000Y-81749000D01*
D15*
X113665000Y-70485000D02*
X113665000Y-73406000D01*
D16*
X80495000Y-73070000D02*
X80495000Y-83288994D01*
X80495000Y-83288994D02*
X80518006Y-83312000D01*
D15*
X146685000Y-85725000D02*
X146685000Y-88646000D01*
X144145000Y-85725000D02*
X144145000Y-88646000D01*
X141605000Y-85725000D02*
X141605000Y-88646000D01*
X139065000Y-85725000D02*
X139065000Y-88646000D01*
X136525000Y-85725000D02*
X136525000Y-88646000D01*
X133985000Y-70485000D02*
X133985000Y-73406000D01*
X136525000Y-70485000D02*
X136525000Y-73406000D01*
X126365000Y-85725000D02*
X126365000Y-88646000D01*
X139065000Y-70485000D02*
X139065000Y-73406000D01*
X141605000Y-70485000D02*
X141605000Y-73406000D01*
X121285000Y-85725000D02*
X121285000Y-88646000D01*
D16*
X93495000Y-75207000D02*
X93495000Y-73070000D01*
X95885000Y-77597000D02*
X93495000Y-75207000D01*
X115570000Y-77597000D02*
X95885000Y-77597000D01*
X121285000Y-83312000D02*
X115570000Y-77597000D01*
X121285000Y-85725000D02*
X121285000Y-83312000D01*
D15*
X144145000Y-70485000D02*
X144145000Y-73406000D01*
X118745000Y-85725000D02*
X118745000Y-88646000D01*
D16*
X91567000Y-73142000D02*
X91495000Y-73070000D01*
X91567000Y-74930000D02*
X91567000Y-73142000D01*
X95758000Y-79121000D02*
X91567000Y-74930000D01*
X114173000Y-79121000D02*
X95758000Y-79121000D01*
X118745000Y-83693000D02*
X114173000Y-79121000D01*
X118745000Y-85725000D02*
X118745000Y-83693000D01*
D15*
X146685000Y-70485000D02*
X146685000Y-73406000D01*
X116205000Y-85725000D02*
X116205000Y-88646000D01*
D16*
X110617000Y-80137000D02*
X95504000Y-80137000D01*
X116205000Y-85725000D02*
X110617000Y-80137000D01*
X95504000Y-80137000D02*
X90495000Y-75128000D01*
X90495000Y-75128000D02*
X90495000Y-73070000D01*
D15*
X149225000Y-70485000D02*
X149225000Y-73406000D01*
X113665000Y-85725000D02*
X113665000Y-88646000D01*
D16*
X113665000Y-85725000D02*
X109220000Y-81280000D01*
X109220000Y-81280000D02*
X95501178Y-81280000D01*
X95501178Y-81280000D02*
X89495000Y-75273822D01*
X89495000Y-75273822D02*
X89495000Y-73070000D01*
D15*
X151765000Y-70485000D02*
X151765000Y-73406000D01*
X111125000Y-85725000D02*
X111125000Y-88646000D01*
D16*
X88495000Y-75922000D02*
X88495000Y-73070000D01*
X94869000Y-82296000D02*
X88495000Y-75922000D01*
X107696000Y-82296000D02*
X94869000Y-82296000D01*
X111125000Y-85725000D02*
X107696000Y-82296000D01*
D15*
X154305000Y-70485000D02*
X154305000Y-73406000D01*
X108585000Y-85725000D02*
X108585000Y-88646000D01*
D16*
X94107000Y-83312000D02*
X87495000Y-76700000D01*
X106172000Y-83312000D02*
X94107000Y-83312000D01*
X108585000Y-85725000D02*
X106172000Y-83312000D01*
X87495000Y-76700000D02*
X87495000Y-73070000D01*
D15*
X156845000Y-70485000D02*
X156845000Y-73406000D01*
X106045000Y-85725000D02*
X106045000Y-88646000D01*
D16*
X86495000Y-73959000D02*
X86495000Y-73070000D01*
X86495000Y-77986000D02*
X86495000Y-73959000D01*
X92964000Y-84455000D02*
X86495000Y-77986000D01*
X104775000Y-84455000D02*
X92964000Y-84455000D01*
X106045000Y-85725000D02*
X104775000Y-84455000D01*
D15*
X159385000Y-70485000D02*
X159385000Y-73406000D01*
X103505000Y-85725000D02*
X103505000Y-88646000D01*
D16*
X85598000Y-73173000D02*
X85495000Y-73070000D01*
X85598000Y-79375000D02*
X85598000Y-73173000D01*
X91948000Y-85725000D02*
X85598000Y-79375000D01*
X103505000Y-85725000D02*
X91948000Y-85725000D01*
D15*
X161925000Y-70485000D02*
X161925000Y-73406000D01*
X149225000Y-85725000D02*
X149225000Y-88646000D01*
X151765000Y-85725000D02*
X151765000Y-88646000D01*
X154305000Y-85725000D02*
X154305000Y-88646000D01*
X156845000Y-85725000D02*
X156845000Y-88646000D01*
X159385000Y-85725000D02*
X159385000Y-88646000D01*
X161925000Y-85725000D02*
X161925000Y-88646000D01*
X131445000Y-85725000D02*
X131445000Y-88646000D01*
X123825000Y-85725000D02*
X123825000Y-88646000D01*
X118745000Y-70485000D02*
X118745000Y-73406000D01*
X121285000Y-70485000D02*
X121285000Y-73406000D01*
X123825000Y-70485000D02*
X123825000Y-73406000D01*
X126365000Y-70485000D02*
X126365000Y-73406000D01*
X128905000Y-70485000D02*
X128905000Y-73406000D01*
X131445000Y-70485000D02*
X131445000Y-73406000D01*
X128905000Y-85725000D02*
X128905000Y-88646000D01*
D17*
X162688135Y-68440870D02*
X162811388Y-68478082D01*
X162925068Y-68538526D01*
X163024841Y-68619899D01*
X163106911Y-68719105D01*
X163168147Y-68832357D01*
X163206220Y-68955352D01*
X163222000Y-69105492D01*
X163222001Y-88876470D01*
X163207130Y-89028135D01*
X163169918Y-89151388D01*
X163109474Y-89265067D01*
X163028097Y-89364845D01*
X162928897Y-89446910D01*
X162815640Y-89508148D01*
X162696004Y-89545181D01*
X162842342Y-89398843D01*
X162971588Y-89205413D01*
X163060614Y-88990485D01*
X163106000Y-88762318D01*
X163106000Y-88529682D01*
X163060614Y-88301515D01*
X162971588Y-88086587D01*
X162842342Y-87893157D01*
X162677843Y-87728658D01*
X162556000Y-87647245D01*
X162556000Y-86907843D01*
X162725000Y-86907843D01*
X162799689Y-86900487D01*
X162871508Y-86878701D01*
X162937696Y-86843322D01*
X162995711Y-86795711D01*
X163043322Y-86737696D01*
X163078701Y-86671508D01*
X163100487Y-86599689D01*
X163107843Y-86525000D01*
X163107843Y-84925000D01*
X163100487Y-84850311D01*
X163078701Y-84778492D01*
X163043322Y-84712304D01*
X162995711Y-84654289D01*
X162937696Y-84606678D01*
X162871508Y-84571299D01*
X162799689Y-84549513D01*
X162725000Y-84542157D01*
X161125000Y-84542157D01*
X161050311Y-84549513D01*
X160978492Y-84571299D01*
X160912304Y-84606678D01*
X160854289Y-84654289D01*
X160806678Y-84712304D01*
X160771299Y-84778492D01*
X160749513Y-84850311D01*
X160742157Y-84925000D01*
X160742157Y-86525000D01*
X160749513Y-86599689D01*
X160771299Y-86671508D01*
X160806678Y-86737696D01*
X160854289Y-86795711D01*
X160912304Y-86843322D01*
X160978492Y-86878701D01*
X161050311Y-86900487D01*
X161125000Y-86907843D01*
X161294000Y-86907843D01*
X161294001Y-87647245D01*
X161172157Y-87728658D01*
X161007658Y-87893157D01*
X160878412Y-88086587D01*
X160789386Y-88301515D01*
X160744000Y-88529682D01*
X160744000Y-88762318D01*
X160789386Y-88990485D01*
X160878412Y-89205413D01*
X161007658Y-89398843D01*
X161170815Y-89562000D01*
X160139185Y-89562000D01*
X160302342Y-89398843D01*
X160431588Y-89205413D01*
X160520614Y-88990485D01*
X160566000Y-88762318D01*
X160566000Y-88529682D01*
X160520614Y-88301515D01*
X160431588Y-88086587D01*
X160302342Y-87893157D01*
X160137843Y-87728658D01*
X160016000Y-87647245D01*
X160016000Y-86723755D01*
X160137843Y-86642342D01*
X160302342Y-86477843D01*
X160431588Y-86284413D01*
X160520614Y-86069485D01*
X160566000Y-85841318D01*
X160566000Y-85608682D01*
X160520614Y-85380515D01*
X160431588Y-85165587D01*
X160302342Y-84972157D01*
X160137843Y-84807658D01*
X159944413Y-84678412D01*
X159729485Y-84589386D01*
X159501318Y-84544000D01*
X159268682Y-84544000D01*
X159040515Y-84589386D01*
X158825587Y-84678412D01*
X158632157Y-84807658D01*
X158467658Y-84972157D01*
X158338412Y-85165587D01*
X158249386Y-85380515D01*
X158204000Y-85608682D01*
X158204000Y-85841318D01*
X158249386Y-86069485D01*
X158338412Y-86284413D01*
X158467658Y-86477843D01*
X158632157Y-86642342D01*
X158754000Y-86723755D01*
X158754001Y-87647245D01*
X158632157Y-87728658D01*
X158467658Y-87893157D01*
X158338412Y-88086587D01*
X158249386Y-88301515D01*
X158204000Y-88529682D01*
X158204000Y-88762318D01*
X158249386Y-88990485D01*
X158338412Y-89205413D01*
X158467658Y-89398843D01*
X158630815Y-89562000D01*
X157599185Y-89562000D01*
X157762342Y-89398843D01*
X157891588Y-89205413D01*
X157980614Y-88990485D01*
X158026000Y-88762318D01*
X158026000Y-88529682D01*
X157980614Y-88301515D01*
X157891588Y-88086587D01*
X157762342Y-87893157D01*
X157597843Y-87728658D01*
X157476000Y-87647245D01*
X157476000Y-86723755D01*
X157597843Y-86642342D01*
X157762342Y-86477843D01*
X157891588Y-86284413D01*
X157980614Y-86069485D01*
X158026000Y-85841318D01*
X158026000Y-85608682D01*
X157980614Y-85380515D01*
X157891588Y-85165587D01*
X157762342Y-84972157D01*
X157597843Y-84807658D01*
X157404413Y-84678412D01*
X157189485Y-84589386D01*
X156961318Y-84544000D01*
X156728682Y-84544000D01*
X156500515Y-84589386D01*
X156285587Y-84678412D01*
X156092157Y-84807658D01*
X155927658Y-84972157D01*
X155798412Y-85165587D01*
X155709386Y-85380515D01*
X155664000Y-85608682D01*
X155664000Y-85841318D01*
X155709386Y-86069485D01*
X155798412Y-86284413D01*
X155927658Y-86477843D01*
X156092157Y-86642342D01*
X156214000Y-86723755D01*
X156214001Y-87647245D01*
X156092157Y-87728658D01*
X155927658Y-87893157D01*
X155798412Y-88086587D01*
X155709386Y-88301515D01*
X155664000Y-88529682D01*
X155664000Y-88762318D01*
X155709386Y-88990485D01*
X155798412Y-89205413D01*
X155927658Y-89398843D01*
X156090815Y-89562000D01*
X155059185Y-89562000D01*
X155222342Y-89398843D01*
X155351588Y-89205413D01*
X155440614Y-88990485D01*
X155486000Y-88762318D01*
X155486000Y-88529682D01*
X155440614Y-88301515D01*
X155351588Y-88086587D01*
X155222342Y-87893157D01*
X155057843Y-87728658D01*
X154936000Y-87647245D01*
X154936000Y-86723755D01*
X155057843Y-86642342D01*
X155222342Y-86477843D01*
X155351588Y-86284413D01*
X155440614Y-86069485D01*
X155486000Y-85841318D01*
X155486000Y-85608682D01*
X155440614Y-85380515D01*
X155351588Y-85165587D01*
X155222342Y-84972157D01*
X155057843Y-84807658D01*
X154864413Y-84678412D01*
X154649485Y-84589386D01*
X154421318Y-84544000D01*
X154188682Y-84544000D01*
X153960515Y-84589386D01*
X153745587Y-84678412D01*
X153552157Y-84807658D01*
X153387658Y-84972157D01*
X153258412Y-85165587D01*
X153169386Y-85380515D01*
X153124000Y-85608682D01*
X153124000Y-85841318D01*
X153169386Y-86069485D01*
X153258412Y-86284413D01*
X153387658Y-86477843D01*
X153552157Y-86642342D01*
X153674000Y-86723755D01*
X153674001Y-87647245D01*
X153552157Y-87728658D01*
X153387658Y-87893157D01*
X153258412Y-88086587D01*
X153169386Y-88301515D01*
X153124000Y-88529682D01*
X153124000Y-88762318D01*
X153169386Y-88990485D01*
X153258412Y-89205413D01*
X153387658Y-89398843D01*
X153550815Y-89562000D01*
X152519185Y-89562000D01*
X152682342Y-89398843D01*
X152811588Y-89205413D01*
X152900614Y-88990485D01*
X152946000Y-88762318D01*
X152946000Y-88529682D01*
X152900614Y-88301515D01*
X152811588Y-88086587D01*
X152682342Y-87893157D01*
X152517843Y-87728658D01*
X152396000Y-87647245D01*
X152396000Y-86723755D01*
X152517843Y-86642342D01*
X152682342Y-86477843D01*
X152811588Y-86284413D01*
X152900614Y-86069485D01*
X152946000Y-85841318D01*
X152946000Y-85608682D01*
X152900614Y-85380515D01*
X152811588Y-85165587D01*
X152682342Y-84972157D01*
X152517843Y-84807658D01*
X152324413Y-84678412D01*
X152109485Y-84589386D01*
X151881318Y-84544000D01*
X151648682Y-84544000D01*
X151420515Y-84589386D01*
X151205587Y-84678412D01*
X151012157Y-84807658D01*
X150847658Y-84972157D01*
X150718412Y-85165587D01*
X150629386Y-85380515D01*
X150584000Y-85608682D01*
X150584000Y-85841318D01*
X150629386Y-86069485D01*
X150718412Y-86284413D01*
X150847658Y-86477843D01*
X151012157Y-86642342D01*
X151134000Y-86723755D01*
X151134001Y-87647245D01*
X151012157Y-87728658D01*
X150847658Y-87893157D01*
X150718412Y-88086587D01*
X150629386Y-88301515D01*
X150584000Y-88529682D01*
X150584000Y-88762318D01*
X150629386Y-88990485D01*
X150718412Y-89205413D01*
X150847658Y-89398843D01*
X151010815Y-89562000D01*
X149979185Y-89562000D01*
X150142342Y-89398843D01*
X150271588Y-89205413D01*
X150360614Y-88990485D01*
X150406000Y-88762318D01*
X150406000Y-88529682D01*
X150360614Y-88301515D01*
X150271588Y-88086587D01*
X150142342Y-87893157D01*
X149977843Y-87728658D01*
X149856000Y-87647245D01*
X149856000Y-86723755D01*
X149977843Y-86642342D01*
X150142342Y-86477843D01*
X150271588Y-86284413D01*
X150360614Y-86069485D01*
X150406000Y-85841318D01*
X150406000Y-85608682D01*
X150360614Y-85380515D01*
X150271588Y-85165587D01*
X150142342Y-84972157D01*
X149977843Y-84807658D01*
X149784413Y-84678412D01*
X149569485Y-84589386D01*
X149341318Y-84544000D01*
X149108682Y-84544000D01*
X148880515Y-84589386D01*
X148665587Y-84678412D01*
X148472157Y-84807658D01*
X148307658Y-84972157D01*
X148178412Y-85165587D01*
X148089386Y-85380515D01*
X148044000Y-85608682D01*
X148044000Y-85841318D01*
X148089386Y-86069485D01*
X148178412Y-86284413D01*
X148307658Y-86477843D01*
X148472157Y-86642342D01*
X148594000Y-86723755D01*
X148594001Y-87647245D01*
X148472157Y-87728658D01*
X148307658Y-87893157D01*
X148178412Y-88086587D01*
X148089386Y-88301515D01*
X148044000Y-88529682D01*
X148044000Y-88762318D01*
X148089386Y-88990485D01*
X148178412Y-89205413D01*
X148307658Y-89398843D01*
X148470815Y-89562000D01*
X147439185Y-89562000D01*
X147602342Y-89398843D01*
X147731588Y-89205413D01*
X147820614Y-88990485D01*
X147866000Y-88762318D01*
X147866000Y-88529682D01*
X147820614Y-88301515D01*
X147731588Y-88086587D01*
X147602342Y-87893157D01*
X147437843Y-87728658D01*
X147316000Y-87647245D01*
X147316000Y-86723755D01*
X147437843Y-86642342D01*
X147602342Y-86477843D01*
X147731588Y-86284413D01*
X147820614Y-86069485D01*
X147866000Y-85841318D01*
X147866000Y-85608682D01*
X147820614Y-85380515D01*
X147731588Y-85165587D01*
X147602342Y-84972157D01*
X147437843Y-84807658D01*
X147244413Y-84678412D01*
X147029485Y-84589386D01*
X146801318Y-84544000D01*
X146568682Y-84544000D01*
X146340515Y-84589386D01*
X146125587Y-84678412D01*
X145932157Y-84807658D01*
X145767658Y-84972157D01*
X145638412Y-85165587D01*
X145549386Y-85380515D01*
X145504000Y-85608682D01*
X145504000Y-85841318D01*
X145549386Y-86069485D01*
X145638412Y-86284413D01*
X145767658Y-86477843D01*
X145932157Y-86642342D01*
X146054000Y-86723755D01*
X146054001Y-87647245D01*
X145932157Y-87728658D01*
X145767658Y-87893157D01*
X145638412Y-88086587D01*
X145549386Y-88301515D01*
X145504000Y-88529682D01*
X145504000Y-88762318D01*
X145549386Y-88990485D01*
X145638412Y-89205413D01*
X145767658Y-89398843D01*
X145930815Y-89562000D01*
X144899185Y-89562000D01*
X145062342Y-89398843D01*
X145191588Y-89205413D01*
X145280614Y-88990485D01*
X145326000Y-88762318D01*
X145326000Y-88529682D01*
X145280614Y-88301515D01*
X145191588Y-88086587D01*
X145062342Y-87893157D01*
X144897843Y-87728658D01*
X144776000Y-87647245D01*
X144776000Y-86723755D01*
X144897843Y-86642342D01*
X145062342Y-86477843D01*
X145191588Y-86284413D01*
X145280614Y-86069485D01*
X145326000Y-85841318D01*
X145326000Y-85608682D01*
X145280614Y-85380515D01*
X145191588Y-85165587D01*
X145062342Y-84972157D01*
X144897843Y-84807658D01*
X144704413Y-84678412D01*
X144489485Y-84589386D01*
X144261318Y-84544000D01*
X144028682Y-84544000D01*
X143800515Y-84589386D01*
X143585587Y-84678412D01*
X143392157Y-84807658D01*
X143227658Y-84972157D01*
X143098412Y-85165587D01*
X143009386Y-85380515D01*
X142964000Y-85608682D01*
X142964000Y-85841318D01*
X143009386Y-86069485D01*
X143098412Y-86284413D01*
X143227658Y-86477843D01*
X143392157Y-86642342D01*
X143514000Y-86723755D01*
X143514001Y-87647245D01*
X143392157Y-87728658D01*
X143227658Y-87893157D01*
X143098412Y-88086587D01*
X143009386Y-88301515D01*
X142964000Y-88529682D01*
X142964000Y-88762318D01*
X143009386Y-88990485D01*
X143098412Y-89205413D01*
X143227658Y-89398843D01*
X143390815Y-89562000D01*
X142359185Y-89562000D01*
X142522342Y-89398843D01*
X142651588Y-89205413D01*
X142740614Y-88990485D01*
X142786000Y-88762318D01*
X142786000Y-88529682D01*
X142740614Y-88301515D01*
X142651588Y-88086587D01*
X142522342Y-87893157D01*
X142357843Y-87728658D01*
X142236000Y-87647245D01*
X142236000Y-86723755D01*
X142357843Y-86642342D01*
X142522342Y-86477843D01*
X142651588Y-86284413D01*
X142740614Y-86069485D01*
X142786000Y-85841318D01*
X142786000Y-85608682D01*
X142740614Y-85380515D01*
X142651588Y-85165587D01*
X142522342Y-84972157D01*
X142357843Y-84807658D01*
X142164413Y-84678412D01*
X141949485Y-84589386D01*
X141721318Y-84544000D01*
X141488682Y-84544000D01*
X141260515Y-84589386D01*
X141045587Y-84678412D01*
X140852157Y-84807658D01*
X140687658Y-84972157D01*
X140558412Y-85165587D01*
X140469386Y-85380515D01*
X140424000Y-85608682D01*
X140424000Y-85841318D01*
X140469386Y-86069485D01*
X140558412Y-86284413D01*
X140687658Y-86477843D01*
X140852157Y-86642342D01*
X140974000Y-86723755D01*
X140974001Y-87647245D01*
X140852157Y-87728658D01*
X140687658Y-87893157D01*
X140558412Y-88086587D01*
X140469386Y-88301515D01*
X140424000Y-88529682D01*
X140424000Y-88762318D01*
X140469386Y-88990485D01*
X140558412Y-89205413D01*
X140687658Y-89398843D01*
X140850815Y-89562000D01*
X139819185Y-89562000D01*
X139982342Y-89398843D01*
X140111588Y-89205413D01*
X140200614Y-88990485D01*
X140246000Y-88762318D01*
X140246000Y-88529682D01*
X140200614Y-88301515D01*
X140111588Y-88086587D01*
X139982342Y-87893157D01*
X139817843Y-87728658D01*
X139696000Y-87647245D01*
X139696000Y-86723755D01*
X139817843Y-86642342D01*
X139982342Y-86477843D01*
X140111588Y-86284413D01*
X140200614Y-86069485D01*
X140246000Y-85841318D01*
X140246000Y-85608682D01*
X140200614Y-85380515D01*
X140111588Y-85165587D01*
X139982342Y-84972157D01*
X139817843Y-84807658D01*
X139624413Y-84678412D01*
X139409485Y-84589386D01*
X139181318Y-84544000D01*
X138948682Y-84544000D01*
X138720515Y-84589386D01*
X138505587Y-84678412D01*
X138312157Y-84807658D01*
X138147658Y-84972157D01*
X138018412Y-85165587D01*
X137929386Y-85380515D01*
X137884000Y-85608682D01*
X137884000Y-85841318D01*
X137929386Y-86069485D01*
X138018412Y-86284413D01*
X138147658Y-86477843D01*
X138312157Y-86642342D01*
X138434000Y-86723755D01*
X138434001Y-87647245D01*
X138312157Y-87728658D01*
X138147658Y-87893157D01*
X138018412Y-88086587D01*
X137929386Y-88301515D01*
X137884000Y-88529682D01*
X137884000Y-88762318D01*
X137929386Y-88990485D01*
X138018412Y-89205413D01*
X138147658Y-89398843D01*
X138310815Y-89562000D01*
X137279185Y-89562000D01*
X137442342Y-89398843D01*
X137571588Y-89205413D01*
X137660614Y-88990485D01*
X137706000Y-88762318D01*
X137706000Y-88529682D01*
X137660614Y-88301515D01*
X137571588Y-88086587D01*
X137442342Y-87893157D01*
X137277843Y-87728658D01*
X137156000Y-87647245D01*
X137156000Y-86723755D01*
X137277843Y-86642342D01*
X137442342Y-86477843D01*
X137571588Y-86284413D01*
X137660614Y-86069485D01*
X137706000Y-85841318D01*
X137706000Y-85608682D01*
X137660614Y-85380515D01*
X137571588Y-85165587D01*
X137442342Y-84972157D01*
X137277843Y-84807658D01*
X137084413Y-84678412D01*
X136869485Y-84589386D01*
X136641318Y-84544000D01*
X136408682Y-84544000D01*
X136180515Y-84589386D01*
X135965587Y-84678412D01*
X135772157Y-84807658D01*
X135607658Y-84972157D01*
X135478412Y-85165587D01*
X135389386Y-85380515D01*
X135344000Y-85608682D01*
X135344000Y-85841318D01*
X135389386Y-86069485D01*
X135478412Y-86284413D01*
X135607658Y-86477843D01*
X135772157Y-86642342D01*
X135894000Y-86723755D01*
X135894001Y-87647245D01*
X135772157Y-87728658D01*
X135607658Y-87893157D01*
X135478412Y-88086587D01*
X135389386Y-88301515D01*
X135344000Y-88529682D01*
X135344000Y-88762318D01*
X135389386Y-88990485D01*
X135478412Y-89205413D01*
X135607658Y-89398843D01*
X135770815Y-89562000D01*
X134724878Y-89562000D01*
X134761003Y-89536278D01*
X134919777Y-89367781D01*
X135042628Y-89171546D01*
X135124835Y-88955115D01*
X135063908Y-88773000D01*
X134112000Y-88773000D01*
X134112000Y-88793000D01*
X133858000Y-88793000D01*
X133858000Y-88773000D01*
X132906092Y-88773000D01*
X132845165Y-88955115D01*
X132927372Y-89171546D01*
X133050223Y-89367781D01*
X133208997Y-89536278D01*
X133245122Y-89562000D01*
X132199185Y-89562000D01*
X132362342Y-89398843D01*
X132491588Y-89205413D01*
X132580614Y-88990485D01*
X132626000Y-88762318D01*
X132626000Y-88529682D01*
X132587650Y-88336885D01*
X132845165Y-88336885D01*
X132906092Y-88519000D01*
X133858000Y-88519000D01*
X133858000Y-87567703D01*
X134112000Y-87567703D01*
X134112000Y-88519000D01*
X135063908Y-88519000D01*
X135124835Y-88336885D01*
X135042628Y-88120454D01*
X134919777Y-87924219D01*
X134761003Y-87755722D01*
X134572408Y-87621438D01*
X134361239Y-87526527D01*
X134294114Y-87506171D01*
X134112000Y-87567703D01*
X133858000Y-87567703D01*
X133675886Y-87506171D01*
X133608761Y-87526527D01*
X133397592Y-87621438D01*
X133208997Y-87755722D01*
X133050223Y-87924219D01*
X132927372Y-88120454D01*
X132845165Y-88336885D01*
X132587650Y-88336885D01*
X132580614Y-88301515D01*
X132491588Y-88086587D01*
X132362342Y-87893157D01*
X132197843Y-87728658D01*
X132076000Y-87647245D01*
X132076000Y-86907843D01*
X132245000Y-86907843D01*
X132319689Y-86900487D01*
X132391508Y-86878701D01*
X132457696Y-86843322D01*
X132515711Y-86795711D01*
X132563322Y-86737696D01*
X132598701Y-86671508D01*
X132620487Y-86599689D01*
X132627843Y-86525000D01*
X132627843Y-86034115D01*
X132845165Y-86034115D01*
X132927372Y-86250546D01*
X133050223Y-86446781D01*
X133208997Y-86615278D01*
X133397592Y-86749562D01*
X133608761Y-86844473D01*
X133675886Y-86864829D01*
X133858000Y-86803297D01*
X133858000Y-85852000D01*
X134112000Y-85852000D01*
X134112000Y-86803297D01*
X134294114Y-86864829D01*
X134361239Y-86844473D01*
X134572408Y-86749562D01*
X134761003Y-86615278D01*
X134919777Y-86446781D01*
X135042628Y-86250546D01*
X135124835Y-86034115D01*
X135063908Y-85852000D01*
X134112000Y-85852000D01*
X133858000Y-85852000D01*
X132906092Y-85852000D01*
X132845165Y-86034115D01*
X132627843Y-86034115D01*
X132627843Y-85415885D01*
X132845165Y-85415885D01*
X132906092Y-85598000D01*
X133858000Y-85598000D01*
X133858000Y-84646703D01*
X134112000Y-84646703D01*
X134112000Y-85598000D01*
X135063908Y-85598000D01*
X135124835Y-85415885D01*
X135042628Y-85199454D01*
X134919777Y-85003219D01*
X134761003Y-84834722D01*
X134572408Y-84700438D01*
X134361239Y-84605527D01*
X134294114Y-84585171D01*
X134112000Y-84646703D01*
X133858000Y-84646703D01*
X133675886Y-84585171D01*
X133608761Y-84605527D01*
X133397592Y-84700438D01*
X133208997Y-84834722D01*
X133050223Y-85003219D01*
X132927372Y-85199454D01*
X132845165Y-85415885D01*
X132627843Y-85415885D01*
X132627843Y-84925000D01*
X132620487Y-84850311D01*
X132598701Y-84778492D01*
X132563322Y-84712304D01*
X132515711Y-84654289D01*
X132457696Y-84606678D01*
X132391508Y-84571299D01*
X132319689Y-84549513D01*
X132245000Y-84542157D01*
X130645000Y-84542157D01*
X130570311Y-84549513D01*
X130498492Y-84571299D01*
X130432304Y-84606678D01*
X130374289Y-84654289D01*
X130326678Y-84712304D01*
X130291299Y-84778492D01*
X130269513Y-84850311D01*
X130262157Y-84925000D01*
X130262157Y-86525000D01*
X130269513Y-86599689D01*
X130291299Y-86671508D01*
X130326678Y-86737696D01*
X130374289Y-86795711D01*
X130432304Y-86843322D01*
X130498492Y-86878701D01*
X130570311Y-86900487D01*
X130645000Y-86907843D01*
X130814000Y-86907843D01*
X130814001Y-87647245D01*
X130692157Y-87728658D01*
X130527658Y-87893157D01*
X130398412Y-88086587D01*
X130309386Y-88301515D01*
X130264000Y-88529682D01*
X130264000Y-88762318D01*
X130309386Y-88990485D01*
X130398412Y-89205413D01*
X130527658Y-89398843D01*
X130690815Y-89562000D01*
X129659185Y-89562000D01*
X129822342Y-89398843D01*
X129951588Y-89205413D01*
X130040614Y-88990485D01*
X130086000Y-88762318D01*
X130086000Y-88529682D01*
X130040614Y-88301515D01*
X129951588Y-88086587D01*
X129822342Y-87893157D01*
X129657843Y-87728658D01*
X129536000Y-87647245D01*
X129536000Y-86723755D01*
X129657843Y-86642342D01*
X129822342Y-86477843D01*
X129951588Y-86284413D01*
X130040614Y-86069485D01*
X130086000Y-85841318D01*
X130086000Y-85608682D01*
X130040614Y-85380515D01*
X129951588Y-85165587D01*
X129822342Y-84972157D01*
X129657843Y-84807658D01*
X129464413Y-84678412D01*
X129249485Y-84589386D01*
X129021318Y-84544000D01*
X128788682Y-84544000D01*
X128560515Y-84589386D01*
X128345587Y-84678412D01*
X128152157Y-84807658D01*
X127987658Y-84972157D01*
X127858412Y-85165587D01*
X127769386Y-85380515D01*
X127724000Y-85608682D01*
X127724000Y-85841318D01*
X127769386Y-86069485D01*
X127858412Y-86284413D01*
X127987658Y-86477843D01*
X128152157Y-86642342D01*
X128274000Y-86723755D01*
X128274001Y-87647245D01*
X128152157Y-87728658D01*
X127987658Y-87893157D01*
X127858412Y-88086587D01*
X127769386Y-88301515D01*
X127724000Y-88529682D01*
X127724000Y-88762318D01*
X127769386Y-88990485D01*
X127858412Y-89205413D01*
X127987658Y-89398843D01*
X128150815Y-89562000D01*
X127119185Y-89562000D01*
X127282342Y-89398843D01*
X127411588Y-89205413D01*
X127500614Y-88990485D01*
X127546000Y-88762318D01*
X127546000Y-88529682D01*
X127500614Y-88301515D01*
X127411588Y-88086587D01*
X127282342Y-87893157D01*
X127117843Y-87728658D01*
X126996000Y-87647245D01*
X126996000Y-86723755D01*
X127117843Y-86642342D01*
X127282342Y-86477843D01*
X127411588Y-86284413D01*
X127500614Y-86069485D01*
X127546000Y-85841318D01*
X127546000Y-85608682D01*
X127500614Y-85380515D01*
X127411588Y-85165587D01*
X127282342Y-84972157D01*
X127117843Y-84807658D01*
X126924413Y-84678412D01*
X126709485Y-84589386D01*
X126481318Y-84544000D01*
X126248682Y-84544000D01*
X126020515Y-84589386D01*
X125805587Y-84678412D01*
X125612157Y-84807658D01*
X125447658Y-84972157D01*
X125318412Y-85165587D01*
X125229386Y-85380515D01*
X125184000Y-85608682D01*
X125184000Y-85841318D01*
X125229386Y-86069485D01*
X125318412Y-86284413D01*
X125447658Y-86477843D01*
X125612157Y-86642342D01*
X125734000Y-86723755D01*
X125734001Y-87647245D01*
X125612157Y-87728658D01*
X125447658Y-87893157D01*
X125318412Y-88086587D01*
X125229386Y-88301515D01*
X125184000Y-88529682D01*
X125184000Y-88762318D01*
X125229386Y-88990485D01*
X125318412Y-89205413D01*
X125447658Y-89398843D01*
X125610815Y-89562000D01*
X124579185Y-89562000D01*
X124742342Y-89398843D01*
X124871588Y-89205413D01*
X124960614Y-88990485D01*
X125006000Y-88762318D01*
X125006000Y-88529682D01*
X124960614Y-88301515D01*
X124871588Y-88086587D01*
X124742342Y-87893157D01*
X124577843Y-87728658D01*
X124456000Y-87647245D01*
X124456000Y-86723755D01*
X124577843Y-86642342D01*
X124742342Y-86477843D01*
X124871588Y-86284413D01*
X124960614Y-86069485D01*
X125006000Y-85841318D01*
X125006000Y-85608682D01*
X124960614Y-85380515D01*
X124871588Y-85165587D01*
X124742342Y-84972157D01*
X124577843Y-84807658D01*
X124384413Y-84678412D01*
X124169485Y-84589386D01*
X123941318Y-84544000D01*
X123708682Y-84544000D01*
X123480515Y-84589386D01*
X123265587Y-84678412D01*
X123072157Y-84807658D01*
X122907658Y-84972157D01*
X122778412Y-85165587D01*
X122689386Y-85380515D01*
X122644000Y-85608682D01*
X122644000Y-85841318D01*
X122689386Y-86069485D01*
X122778412Y-86284413D01*
X122907658Y-86477843D01*
X123072157Y-86642342D01*
X123194000Y-86723755D01*
X123194001Y-87647245D01*
X123072157Y-87728658D01*
X122907658Y-87893157D01*
X122778412Y-88086587D01*
X122689386Y-88301515D01*
X122644000Y-88529682D01*
X122644000Y-88762318D01*
X122689386Y-88990485D01*
X122778412Y-89205413D01*
X122907658Y-89398843D01*
X123070815Y-89562000D01*
X122039185Y-89562000D01*
X122202342Y-89398843D01*
X122331588Y-89205413D01*
X122420614Y-88990485D01*
X122466000Y-88762318D01*
X122466000Y-88529682D01*
X122420614Y-88301515D01*
X122331588Y-88086587D01*
X122202342Y-87893157D01*
X122037843Y-87728658D01*
X121916000Y-87647245D01*
X121916000Y-86723755D01*
X122037843Y-86642342D01*
X122202342Y-86477843D01*
X122331588Y-86284413D01*
X122420614Y-86069485D01*
X122466000Y-85841318D01*
X122466000Y-85608682D01*
X122420614Y-85380515D01*
X122331588Y-85165587D01*
X122202342Y-84972157D01*
X122037843Y-84807658D01*
X121844413Y-84678412D01*
X121791000Y-84656288D01*
X121791000Y-83336854D01*
X121793448Y-83312000D01*
X121783678Y-83212807D01*
X121754745Y-83117425D01*
X121736981Y-83084191D01*
X121707759Y-83029521D01*
X121644527Y-82952473D01*
X121625220Y-82936628D01*
X115945376Y-77256785D01*
X115929527Y-77237473D01*
X115852479Y-77174241D01*
X115764575Y-77127255D01*
X115669193Y-77098322D01*
X115594854Y-77091000D01*
X115594846Y-77091000D01*
X115570000Y-77088553D01*
X115545154Y-77091000D01*
X96094592Y-77091000D01*
X94001000Y-74997409D01*
X94001000Y-74398315D01*
X94048492Y-74423701D01*
X94120311Y-74445487D01*
X94195000Y-74452843D01*
X94272750Y-74451000D01*
X94368000Y-74355750D01*
X94368000Y-73197000D01*
X94622000Y-73197000D01*
X94622000Y-74355750D01*
X94717250Y-74451000D01*
X94795000Y-74452843D01*
X94869689Y-74445487D01*
X94941508Y-74423701D01*
X94995000Y-74395108D01*
X95048492Y-74423701D01*
X95120311Y-74445487D01*
X95195000Y-74452843D01*
X95272750Y-74451000D01*
X95368000Y-74355750D01*
X95368000Y-73197000D01*
X95622000Y-73197000D01*
X95622000Y-74355750D01*
X95717250Y-74451000D01*
X95795000Y-74452843D01*
X95869689Y-74445487D01*
X95941508Y-74423701D01*
X96007696Y-74388322D01*
X96065711Y-74340711D01*
X96113322Y-74282696D01*
X96148701Y-74216508D01*
X96170487Y-74144689D01*
X96177843Y-74070000D01*
X96176000Y-73292250D01*
X96080750Y-73197000D01*
X95622000Y-73197000D01*
X95368000Y-73197000D01*
X94622000Y-73197000D01*
X94368000Y-73197000D01*
X94348000Y-73197000D01*
X94348000Y-72943000D01*
X94368000Y-72943000D01*
X94368000Y-71784250D01*
X94622000Y-71784250D01*
X94622000Y-72943000D01*
X95368000Y-72943000D01*
X95368000Y-71784250D01*
X95622000Y-71784250D01*
X95622000Y-72943000D01*
X96080750Y-72943000D01*
X96176000Y-72847750D01*
X96177843Y-72070000D01*
X96170487Y-71995311D01*
X96148701Y-71923492D01*
X96113322Y-71857304D01*
X96065711Y-71799289D01*
X96007696Y-71751678D01*
X95941508Y-71716299D01*
X95869689Y-71694513D01*
X95795000Y-71687157D01*
X95717250Y-71689000D01*
X95622000Y-71784250D01*
X95368000Y-71784250D01*
X95272750Y-71689000D01*
X95195000Y-71687157D01*
X95120311Y-71694513D01*
X95048492Y-71716299D01*
X94995000Y-71744892D01*
X94941508Y-71716299D01*
X94869689Y-71694513D01*
X94795000Y-71687157D01*
X94717250Y-71689000D01*
X94622000Y-71784250D01*
X94368000Y-71784250D01*
X94272750Y-71689000D01*
X94195000Y-71687157D01*
X94120311Y-71694513D01*
X94048492Y-71716299D01*
X93995000Y-71744892D01*
X93941508Y-71716299D01*
X93869689Y-71694513D01*
X93795000Y-71687157D01*
X93195000Y-71687157D01*
X93120311Y-71694513D01*
X93048492Y-71716299D01*
X92995000Y-71744892D01*
X92941508Y-71716299D01*
X92869689Y-71694513D01*
X92795000Y-71687157D01*
X92717250Y-71689000D01*
X92622000Y-71784250D01*
X92622000Y-72943000D01*
X92642000Y-72943000D01*
X92642000Y-73197000D01*
X92622000Y-73197000D01*
X92622000Y-74355750D01*
X92717250Y-74451000D01*
X92795000Y-74452843D01*
X92869689Y-74445487D01*
X92941508Y-74423701D01*
X92989000Y-74398315D01*
X92989000Y-75182154D01*
X92986553Y-75207000D01*
X92989000Y-75231846D01*
X92989000Y-75231853D01*
X92996322Y-75306192D01*
X93025255Y-75401574D01*
X93072241Y-75489479D01*
X93135473Y-75566527D01*
X93154785Y-75582376D01*
X95509628Y-77937220D01*
X95525473Y-77956527D01*
X95602521Y-78019759D01*
X95690425Y-78066745D01*
X95751242Y-78085193D01*
X95785806Y-78095678D01*
X95795694Y-78096652D01*
X95860146Y-78103000D01*
X95860153Y-78103000D01*
X95884999Y-78105447D01*
X95909845Y-78103000D01*
X115360409Y-78103000D01*
X120779001Y-83521593D01*
X120779000Y-84656287D01*
X120725587Y-84678412D01*
X120532157Y-84807658D01*
X120367658Y-84972157D01*
X120238412Y-85165587D01*
X120149386Y-85380515D01*
X120104000Y-85608682D01*
X120104000Y-85841318D01*
X120149386Y-86069485D01*
X120238412Y-86284413D01*
X120367658Y-86477843D01*
X120532157Y-86642342D01*
X120654000Y-86723755D01*
X120654001Y-87647245D01*
X120532157Y-87728658D01*
X120367658Y-87893157D01*
X120238412Y-88086587D01*
X120149386Y-88301515D01*
X120104000Y-88529682D01*
X120104000Y-88762318D01*
X120149386Y-88990485D01*
X120238412Y-89205413D01*
X120367658Y-89398843D01*
X120530815Y-89562000D01*
X119499185Y-89562000D01*
X119662342Y-89398843D01*
X119791588Y-89205413D01*
X119880614Y-88990485D01*
X119926000Y-88762318D01*
X119926000Y-88529682D01*
X119880614Y-88301515D01*
X119791588Y-88086587D01*
X119662342Y-87893157D01*
X119497843Y-87728658D01*
X119376000Y-87647245D01*
X119376000Y-86723755D01*
X119497843Y-86642342D01*
X119662342Y-86477843D01*
X119791588Y-86284413D01*
X119880614Y-86069485D01*
X119926000Y-85841318D01*
X119926000Y-85608682D01*
X119880614Y-85380515D01*
X119791588Y-85165587D01*
X119662342Y-84972157D01*
X119497843Y-84807658D01*
X119304413Y-84678412D01*
X119251000Y-84656288D01*
X119251000Y-83717845D01*
X119253447Y-83692999D01*
X119251000Y-83668153D01*
X119251000Y-83668146D01*
X119243678Y-83593807D01*
X119214745Y-83498425D01*
X119167759Y-83410521D01*
X119104527Y-83333473D01*
X119085220Y-83317628D01*
X114548376Y-78780785D01*
X114532527Y-78761473D01*
X114455479Y-78698241D01*
X114367575Y-78651255D01*
X114272193Y-78622322D01*
X114197854Y-78615000D01*
X114197846Y-78615000D01*
X114173000Y-78612553D01*
X114148154Y-78615000D01*
X95967592Y-78615000D01*
X92073000Y-74720409D01*
X92073000Y-74431135D01*
X92120311Y-74445487D01*
X92195000Y-74452843D01*
X92272750Y-74451000D01*
X92368000Y-74355750D01*
X92368000Y-73197000D01*
X92348000Y-73197000D01*
X92348000Y-72943000D01*
X92368000Y-72943000D01*
X92368000Y-71784250D01*
X92272750Y-71689000D01*
X92195000Y-71687157D01*
X92120311Y-71694513D01*
X92048492Y-71716299D01*
X91995000Y-71744892D01*
X91941508Y-71716299D01*
X91869689Y-71694513D01*
X91795000Y-71687157D01*
X91195000Y-71687157D01*
X91120311Y-71694513D01*
X91048492Y-71716299D01*
X90995000Y-71744892D01*
X90941508Y-71716299D01*
X90869689Y-71694513D01*
X90795000Y-71687157D01*
X90195000Y-71687157D01*
X90120311Y-71694513D01*
X90048492Y-71716299D01*
X89995000Y-71744892D01*
X89941508Y-71716299D01*
X89869689Y-71694513D01*
X89795000Y-71687157D01*
X89195000Y-71687157D01*
X89120311Y-71694513D01*
X89048492Y-71716299D01*
X88995000Y-71744892D01*
X88941508Y-71716299D01*
X88869689Y-71694513D01*
X88795000Y-71687157D01*
X88195000Y-71687157D01*
X88120311Y-71694513D01*
X88048492Y-71716299D01*
X87995000Y-71744892D01*
X87941508Y-71716299D01*
X87869689Y-71694513D01*
X87795000Y-71687157D01*
X87195000Y-71687157D01*
X87120311Y-71694513D01*
X87048492Y-71716299D01*
X86995000Y-71744892D01*
X86941508Y-71716299D01*
X86869689Y-71694513D01*
X86795000Y-71687157D01*
X86195000Y-71687157D01*
X86120311Y-71694513D01*
X86048492Y-71716299D01*
X85995000Y-71744892D01*
X85941508Y-71716299D01*
X85869689Y-71694513D01*
X85795000Y-71687157D01*
X85195000Y-71687157D01*
X85120311Y-71694513D01*
X85048492Y-71716299D01*
X84995000Y-71744892D01*
X84941508Y-71716299D01*
X84869689Y-71694513D01*
X84795000Y-71687157D01*
X84195000Y-71687157D01*
X84120311Y-71694513D01*
X84048492Y-71716299D01*
X83995000Y-71744892D01*
X83941508Y-71716299D01*
X83869689Y-71694513D01*
X83795000Y-71687157D01*
X83195000Y-71687157D01*
X83120311Y-71694513D01*
X83048492Y-71716299D01*
X82995000Y-71744892D01*
X82941508Y-71716299D01*
X82869689Y-71694513D01*
X82795000Y-71687157D01*
X82195000Y-71687157D01*
X82120311Y-71694513D01*
X82048492Y-71716299D01*
X81995000Y-71744892D01*
X81941508Y-71716299D01*
X81869689Y-71694513D01*
X81795000Y-71687157D01*
X81195000Y-71687157D01*
X81120311Y-71694513D01*
X81048492Y-71716299D01*
X80995000Y-71744892D01*
X80941508Y-71716299D01*
X80869689Y-71694513D01*
X80795000Y-71687157D01*
X80391000Y-71687157D01*
X80391000Y-69866975D01*
X80398231Y-69812048D01*
X80409789Y-69784145D01*
X80428179Y-69760179D01*
X80452145Y-69741789D01*
X80480048Y-69730231D01*
X80534975Y-69723000D01*
X102596815Y-69723000D01*
X102587658Y-69732157D01*
X102458412Y-69925587D01*
X102369386Y-70140515D01*
X102324000Y-70368682D01*
X102324000Y-70601318D01*
X102369386Y-70829485D01*
X102458412Y-71044413D01*
X102587658Y-71237843D01*
X102752157Y-71402342D01*
X102874000Y-71483755D01*
X102874001Y-72407245D01*
X102752157Y-72488658D01*
X102587658Y-72653157D01*
X102458412Y-72846587D01*
X102369386Y-73061515D01*
X102324000Y-73289682D01*
X102324000Y-73522318D01*
X102369386Y-73750485D01*
X102458412Y-73965413D01*
X102587658Y-74158843D01*
X102752157Y-74323342D01*
X102945587Y-74452588D01*
X103160515Y-74541614D01*
X103388682Y-74587000D01*
X103621318Y-74587000D01*
X103849485Y-74541614D01*
X104064413Y-74452588D01*
X104257843Y-74323342D01*
X104422342Y-74158843D01*
X104551588Y-73965413D01*
X104640614Y-73750485D01*
X104686000Y-73522318D01*
X104686000Y-73289682D01*
X104640614Y-73061515D01*
X104551588Y-72846587D01*
X104422342Y-72653157D01*
X104257843Y-72488658D01*
X104136000Y-72407245D01*
X104136000Y-71483755D01*
X104257843Y-71402342D01*
X104422342Y-71237843D01*
X104551588Y-71044413D01*
X104640614Y-70829485D01*
X104686000Y-70601318D01*
X104686000Y-70368682D01*
X104640614Y-70140515D01*
X104551588Y-69925587D01*
X104422342Y-69732157D01*
X104413185Y-69723000D01*
X105136815Y-69723000D01*
X105127658Y-69732157D01*
X104998412Y-69925587D01*
X104909386Y-70140515D01*
X104864000Y-70368682D01*
X104864000Y-70601318D01*
X104909386Y-70829485D01*
X104998412Y-71044413D01*
X105127658Y-71237843D01*
X105292157Y-71402342D01*
X105414000Y-71483755D01*
X105414001Y-72407245D01*
X105292157Y-72488658D01*
X105127658Y-72653157D01*
X104998412Y-72846587D01*
X104909386Y-73061515D01*
X104864000Y-73289682D01*
X104864000Y-73522318D01*
X104909386Y-73750485D01*
X104998412Y-73965413D01*
X105127658Y-74158843D01*
X105292157Y-74323342D01*
X105485587Y-74452588D01*
X105700515Y-74541614D01*
X105928682Y-74587000D01*
X106161318Y-74587000D01*
X106389485Y-74541614D01*
X106604413Y-74452588D01*
X106797843Y-74323342D01*
X106962342Y-74158843D01*
X107091588Y-73965413D01*
X107180614Y-73750485D01*
X107226000Y-73522318D01*
X107226000Y-73289682D01*
X107180614Y-73061515D01*
X107091588Y-72846587D01*
X106962342Y-72653157D01*
X106797843Y-72488658D01*
X106676000Y-72407245D01*
X106676000Y-71483755D01*
X106797843Y-71402342D01*
X106962342Y-71237843D01*
X107091588Y-71044413D01*
X107180614Y-70829485D01*
X107226000Y-70601318D01*
X107226000Y-70368682D01*
X107180614Y-70140515D01*
X107091588Y-69925587D01*
X106962342Y-69732157D01*
X106953185Y-69723000D01*
X107676815Y-69723000D01*
X107667658Y-69732157D01*
X107538412Y-69925587D01*
X107449386Y-70140515D01*
X107404000Y-70368682D01*
X107404000Y-70601318D01*
X107449386Y-70829485D01*
X107538412Y-71044413D01*
X107667658Y-71237843D01*
X107832157Y-71402342D01*
X107954000Y-71483755D01*
X107954001Y-72407245D01*
X107832157Y-72488658D01*
X107667658Y-72653157D01*
X107538412Y-72846587D01*
X107449386Y-73061515D01*
X107404000Y-73289682D01*
X107404000Y-73522318D01*
X107449386Y-73750485D01*
X107538412Y-73965413D01*
X107667658Y-74158843D01*
X107832157Y-74323342D01*
X108025587Y-74452588D01*
X108240515Y-74541614D01*
X108468682Y-74587000D01*
X108701318Y-74587000D01*
X108929485Y-74541614D01*
X109144413Y-74452588D01*
X109337843Y-74323342D01*
X109502342Y-74158843D01*
X109631588Y-73965413D01*
X109720614Y-73750485D01*
X109766000Y-73522318D01*
X109766000Y-73289682D01*
X109720614Y-73061515D01*
X109631588Y-72846587D01*
X109502342Y-72653157D01*
X109337843Y-72488658D01*
X109216000Y-72407245D01*
X109216000Y-71483755D01*
X109337843Y-71402342D01*
X109502342Y-71237843D01*
X109631588Y-71044413D01*
X109720614Y-70829485D01*
X109766000Y-70601318D01*
X109766000Y-70368682D01*
X109720614Y-70140515D01*
X109631588Y-69925587D01*
X109502342Y-69732157D01*
X109493185Y-69723000D01*
X110216815Y-69723000D01*
X110207658Y-69732157D01*
X110078412Y-69925587D01*
X109989386Y-70140515D01*
X109944000Y-70368682D01*
X109944000Y-70601318D01*
X109989386Y-70829485D01*
X110078412Y-71044413D01*
X110207658Y-71237843D01*
X110372157Y-71402342D01*
X110494000Y-71483755D01*
X110494001Y-72407245D01*
X110372157Y-72488658D01*
X110207658Y-72653157D01*
X110078412Y-72846587D01*
X109989386Y-73061515D01*
X109944000Y-73289682D01*
X109944000Y-73522318D01*
X109989386Y-73750485D01*
X110078412Y-73965413D01*
X110207658Y-74158843D01*
X110372157Y-74323342D01*
X110565587Y-74452588D01*
X110780515Y-74541614D01*
X111008682Y-74587000D01*
X111241318Y-74587000D01*
X111469485Y-74541614D01*
X111684413Y-74452588D01*
X111877843Y-74323342D01*
X112042342Y-74158843D01*
X112171588Y-73965413D01*
X112260614Y-73750485D01*
X112306000Y-73522318D01*
X112306000Y-73289682D01*
X112260614Y-73061515D01*
X112171588Y-72846587D01*
X112042342Y-72653157D01*
X111877843Y-72488658D01*
X111756000Y-72407245D01*
X111756000Y-71483755D01*
X111877843Y-71402342D01*
X112042342Y-71237843D01*
X112171588Y-71044413D01*
X112260614Y-70829485D01*
X112306000Y-70601318D01*
X112306000Y-70368682D01*
X112260614Y-70140515D01*
X112171588Y-69925587D01*
X112042342Y-69732157D01*
X112033185Y-69723000D01*
X112756815Y-69723000D01*
X112747658Y-69732157D01*
X112618412Y-69925587D01*
X112529386Y-70140515D01*
X112484000Y-70368682D01*
X112484000Y-70601318D01*
X112529386Y-70829485D01*
X112618412Y-71044413D01*
X112747658Y-71237843D01*
X112912157Y-71402342D01*
X113034000Y-71483755D01*
X113034001Y-72407245D01*
X112912157Y-72488658D01*
X112747658Y-72653157D01*
X112618412Y-72846587D01*
X112529386Y-73061515D01*
X112484000Y-73289682D01*
X112484000Y-73522318D01*
X112529386Y-73750485D01*
X112618412Y-73965413D01*
X112747658Y-74158843D01*
X112912157Y-74323342D01*
X113105587Y-74452588D01*
X113320515Y-74541614D01*
X113548682Y-74587000D01*
X113781318Y-74587000D01*
X114009485Y-74541614D01*
X114224413Y-74452588D01*
X114417843Y-74323342D01*
X114427688Y-74313497D01*
X114430259Y-74352730D01*
X114447296Y-74482140D01*
X114473039Y-74578212D01*
X114522989Y-74698802D01*
X114572721Y-74784940D01*
X114652181Y-74888493D01*
X114722507Y-74958819D01*
X114826060Y-75038279D01*
X114912198Y-75088011D01*
X115032788Y-75137961D01*
X115128860Y-75163704D01*
X115258270Y-75180741D01*
X115308000Y-75184000D01*
X117102000Y-75184000D01*
X117151730Y-75180741D01*
X117281140Y-75163704D01*
X117377212Y-75137961D01*
X117497802Y-75088011D01*
X117583940Y-75038279D01*
X117687493Y-74958819D01*
X117757819Y-74888493D01*
X117837279Y-74784940D01*
X117887011Y-74698802D01*
X117936961Y-74578212D01*
X117962704Y-74482140D01*
X117979741Y-74352730D01*
X117982312Y-74313497D01*
X117992157Y-74323342D01*
X118185587Y-74452588D01*
X118400515Y-74541614D01*
X118628682Y-74587000D01*
X118861318Y-74587000D01*
X119089485Y-74541614D01*
X119304413Y-74452588D01*
X119497843Y-74323342D01*
X119662342Y-74158843D01*
X119791588Y-73965413D01*
X119880614Y-73750485D01*
X119926000Y-73522318D01*
X119926000Y-73289682D01*
X119880614Y-73061515D01*
X119791588Y-72846587D01*
X119662342Y-72653157D01*
X119497843Y-72488658D01*
X119376000Y-72407245D01*
X119376000Y-71483755D01*
X119497843Y-71402342D01*
X119662342Y-71237843D01*
X119791588Y-71044413D01*
X119880614Y-70829485D01*
X119926000Y-70601318D01*
X119926000Y-70368682D01*
X120104000Y-70368682D01*
X120104000Y-70601318D01*
X120149386Y-70829485D01*
X120238412Y-71044413D01*
X120367658Y-71237843D01*
X120532157Y-71402342D01*
X120654000Y-71483755D01*
X120654001Y-72407245D01*
X120532157Y-72488658D01*
X120367658Y-72653157D01*
X120238412Y-72846587D01*
X120149386Y-73061515D01*
X120104000Y-73289682D01*
X120104000Y-73522318D01*
X120149386Y-73750485D01*
X120238412Y-73965413D01*
X120367658Y-74158843D01*
X120532157Y-74323342D01*
X120725587Y-74452588D01*
X120940515Y-74541614D01*
X121168682Y-74587000D01*
X121401318Y-74587000D01*
X121629485Y-74541614D01*
X121844413Y-74452588D01*
X122037843Y-74323342D01*
X122202342Y-74158843D01*
X122331588Y-73965413D01*
X122420614Y-73750485D01*
X122466000Y-73522318D01*
X122466000Y-73289682D01*
X122420614Y-73061515D01*
X122331588Y-72846587D01*
X122202342Y-72653157D01*
X122037843Y-72488658D01*
X121916000Y-72407245D01*
X121916000Y-71483755D01*
X122037843Y-71402342D01*
X122202342Y-71237843D01*
X122331588Y-71044413D01*
X122420614Y-70829485D01*
X122466000Y-70601318D01*
X122466000Y-70368682D01*
X122644000Y-70368682D01*
X122644000Y-70601318D01*
X122689386Y-70829485D01*
X122778412Y-71044413D01*
X122907658Y-71237843D01*
X123072157Y-71402342D01*
X123194000Y-71483755D01*
X123194001Y-72407245D01*
X123072157Y-72488658D01*
X122907658Y-72653157D01*
X122778412Y-72846587D01*
X122689386Y-73061515D01*
X122644000Y-73289682D01*
X122644000Y-73522318D01*
X122689386Y-73750485D01*
X122778412Y-73965413D01*
X122907658Y-74158843D01*
X123072157Y-74323342D01*
X123265587Y-74452588D01*
X123480515Y-74541614D01*
X123708682Y-74587000D01*
X123941318Y-74587000D01*
X124169485Y-74541614D01*
X124384413Y-74452588D01*
X124577843Y-74323342D01*
X124742342Y-74158843D01*
X124871588Y-73965413D01*
X124960614Y-73750485D01*
X125006000Y-73522318D01*
X125006000Y-73289682D01*
X124960614Y-73061515D01*
X124871588Y-72846587D01*
X124742342Y-72653157D01*
X124577843Y-72488658D01*
X124456000Y-72407245D01*
X124456000Y-71483755D01*
X124577843Y-71402342D01*
X124742342Y-71237843D01*
X124871588Y-71044413D01*
X124960614Y-70829485D01*
X125006000Y-70601318D01*
X125006000Y-70368682D01*
X125184000Y-70368682D01*
X125184000Y-70601318D01*
X125229386Y-70829485D01*
X125318412Y-71044413D01*
X125447658Y-71237843D01*
X125612157Y-71402342D01*
X125734000Y-71483755D01*
X125734001Y-72407245D01*
X125612157Y-72488658D01*
X125447658Y-72653157D01*
X125318412Y-72846587D01*
X125229386Y-73061515D01*
X125184000Y-73289682D01*
X125184000Y-73522318D01*
X125229386Y-73750485D01*
X125318412Y-73965413D01*
X125447658Y-74158843D01*
X125612157Y-74323342D01*
X125805587Y-74452588D01*
X126020515Y-74541614D01*
X126248682Y-74587000D01*
X126481318Y-74587000D01*
X126709485Y-74541614D01*
X126924413Y-74452588D01*
X127117843Y-74323342D01*
X127282342Y-74158843D01*
X127411588Y-73965413D01*
X127500614Y-73750485D01*
X127546000Y-73522318D01*
X127546000Y-73289682D01*
X127500614Y-73061515D01*
X127411588Y-72846587D01*
X127282342Y-72653157D01*
X127117843Y-72488658D01*
X126996000Y-72407245D01*
X126996000Y-71483755D01*
X127117843Y-71402342D01*
X127282342Y-71237843D01*
X127411588Y-71044413D01*
X127500614Y-70829485D01*
X127546000Y-70601318D01*
X127546000Y-70368682D01*
X127724000Y-70368682D01*
X127724000Y-70601318D01*
X127769386Y-70829485D01*
X127858412Y-71044413D01*
X127987658Y-71237843D01*
X128152157Y-71402342D01*
X128274000Y-71483755D01*
X128274001Y-72407245D01*
X128152157Y-72488658D01*
X127987658Y-72653157D01*
X127858412Y-72846587D01*
X127769386Y-73061515D01*
X127724000Y-73289682D01*
X127724000Y-73522318D01*
X127769386Y-73750485D01*
X127858412Y-73965413D01*
X127987658Y-74158843D01*
X128152157Y-74323342D01*
X128345587Y-74452588D01*
X128560515Y-74541614D01*
X128788682Y-74587000D01*
X129021318Y-74587000D01*
X129249485Y-74541614D01*
X129464413Y-74452588D01*
X129657843Y-74323342D01*
X129822342Y-74158843D01*
X129951588Y-73965413D01*
X130040614Y-73750485D01*
X130086000Y-73522318D01*
X130086000Y-73289682D01*
X130040614Y-73061515D01*
X129951588Y-72846587D01*
X129822342Y-72653157D01*
X129775185Y-72606000D01*
X130262157Y-72606000D01*
X130262157Y-74206000D01*
X130269513Y-74280689D01*
X130291299Y-74352508D01*
X130326678Y-74418696D01*
X130374289Y-74476711D01*
X130432304Y-74524322D01*
X130498492Y-74559701D01*
X130570311Y-74581487D01*
X130645000Y-74588843D01*
X132245000Y-74588843D01*
X132319689Y-74581487D01*
X132391508Y-74559701D01*
X132457696Y-74524322D01*
X132515711Y-74476711D01*
X132563322Y-74418696D01*
X132598701Y-74352508D01*
X132620487Y-74280689D01*
X132627843Y-74206000D01*
X132627843Y-72606000D01*
X132620487Y-72531311D01*
X132598701Y-72459492D01*
X132563322Y-72393304D01*
X132515711Y-72335289D01*
X132457696Y-72287678D01*
X132391508Y-72252299D01*
X132319689Y-72230513D01*
X132245000Y-72223157D01*
X132076000Y-72223157D01*
X132076000Y-71483755D01*
X132197843Y-71402342D01*
X132362342Y-71237843D01*
X132491588Y-71044413D01*
X132580614Y-70829485D01*
X132626000Y-70601318D01*
X132626000Y-70368682D01*
X132804000Y-70368682D01*
X132804000Y-70601318D01*
X132849386Y-70829485D01*
X132938412Y-71044413D01*
X133067658Y-71237843D01*
X133232157Y-71402342D01*
X133354000Y-71483755D01*
X133354001Y-72407245D01*
X133232157Y-72488658D01*
X133067658Y-72653157D01*
X132938412Y-72846587D01*
X132849386Y-73061515D01*
X132804000Y-73289682D01*
X132804000Y-73522318D01*
X132849386Y-73750485D01*
X132938412Y-73965413D01*
X133067658Y-74158843D01*
X133232157Y-74323342D01*
X133425587Y-74452588D01*
X133640515Y-74541614D01*
X133868682Y-74587000D01*
X134101318Y-74587000D01*
X134329485Y-74541614D01*
X134544413Y-74452588D01*
X134737843Y-74323342D01*
X134902342Y-74158843D01*
X135031588Y-73965413D01*
X135120614Y-73750485D01*
X135166000Y-73522318D01*
X135166000Y-73289682D01*
X135120614Y-73061515D01*
X135031588Y-72846587D01*
X134902342Y-72653157D01*
X134737843Y-72488658D01*
X134616000Y-72407245D01*
X134616000Y-71483755D01*
X134737843Y-71402342D01*
X134902342Y-71237843D01*
X135031588Y-71044413D01*
X135120614Y-70829485D01*
X135166000Y-70601318D01*
X135166000Y-70368682D01*
X135344000Y-70368682D01*
X135344000Y-70601318D01*
X135389386Y-70829485D01*
X135478412Y-71044413D01*
X135607658Y-71237843D01*
X135772157Y-71402342D01*
X135894000Y-71483755D01*
X135894001Y-72407245D01*
X135772157Y-72488658D01*
X135607658Y-72653157D01*
X135478412Y-72846587D01*
X135389386Y-73061515D01*
X135344000Y-73289682D01*
X135344000Y-73522318D01*
X135389386Y-73750485D01*
X135478412Y-73965413D01*
X135607658Y-74158843D01*
X135772157Y-74323342D01*
X135965587Y-74452588D01*
X136180515Y-74541614D01*
X136408682Y-74587000D01*
X136641318Y-74587000D01*
X136869485Y-74541614D01*
X137084413Y-74452588D01*
X137277843Y-74323342D01*
X137442342Y-74158843D01*
X137571588Y-73965413D01*
X137660614Y-73750485D01*
X137706000Y-73522318D01*
X137706000Y-73289682D01*
X137660614Y-73061515D01*
X137571588Y-72846587D01*
X137442342Y-72653157D01*
X137277843Y-72488658D01*
X137156000Y-72407245D01*
X137156000Y-71483755D01*
X137277843Y-71402342D01*
X137442342Y-71237843D01*
X137571588Y-71044413D01*
X137660614Y-70829485D01*
X137706000Y-70601318D01*
X137706000Y-70368682D01*
X137884000Y-70368682D01*
X137884000Y-70601318D01*
X137929386Y-70829485D01*
X138018412Y-71044413D01*
X138147658Y-71237843D01*
X138312157Y-71402342D01*
X138434000Y-71483755D01*
X138434001Y-72407245D01*
X138312157Y-72488658D01*
X138147658Y-72653157D01*
X138018412Y-72846587D01*
X137929386Y-73061515D01*
X137884000Y-73289682D01*
X137884000Y-73522318D01*
X137929386Y-73750485D01*
X138018412Y-73965413D01*
X138147658Y-74158843D01*
X138312157Y-74323342D01*
X138505587Y-74452588D01*
X138720515Y-74541614D01*
X138948682Y-74587000D01*
X139181318Y-74587000D01*
X139409485Y-74541614D01*
X139624413Y-74452588D01*
X139817843Y-74323342D01*
X139982342Y-74158843D01*
X140111588Y-73965413D01*
X140200614Y-73750485D01*
X140246000Y-73522318D01*
X140246000Y-73289682D01*
X140200614Y-73061515D01*
X140111588Y-72846587D01*
X139982342Y-72653157D01*
X139817843Y-72488658D01*
X139696000Y-72407245D01*
X139696000Y-71483755D01*
X139817843Y-71402342D01*
X139982342Y-71237843D01*
X140111588Y-71044413D01*
X140200614Y-70829485D01*
X140246000Y-70601318D01*
X140246000Y-70368682D01*
X140424000Y-70368682D01*
X140424000Y-70601318D01*
X140469386Y-70829485D01*
X140558412Y-71044413D01*
X140687658Y-71237843D01*
X140852157Y-71402342D01*
X140974000Y-71483755D01*
X140974001Y-72407245D01*
X140852157Y-72488658D01*
X140687658Y-72653157D01*
X140558412Y-72846587D01*
X140469386Y-73061515D01*
X140424000Y-73289682D01*
X140424000Y-73522318D01*
X140469386Y-73750485D01*
X140558412Y-73965413D01*
X140687658Y-74158843D01*
X140852157Y-74323342D01*
X141045587Y-74452588D01*
X141260515Y-74541614D01*
X141488682Y-74587000D01*
X141721318Y-74587000D01*
X141949485Y-74541614D01*
X142164413Y-74452588D01*
X142357843Y-74323342D01*
X142522342Y-74158843D01*
X142651588Y-73965413D01*
X142740614Y-73750485D01*
X142786000Y-73522318D01*
X142786000Y-73289682D01*
X142740614Y-73061515D01*
X142651588Y-72846587D01*
X142522342Y-72653157D01*
X142357843Y-72488658D01*
X142236000Y-72407245D01*
X142236000Y-71483755D01*
X142357843Y-71402342D01*
X142522342Y-71237843D01*
X142651588Y-71044413D01*
X142740614Y-70829485D01*
X142786000Y-70601318D01*
X142786000Y-70368682D01*
X142964000Y-70368682D01*
X142964000Y-70601318D01*
X143009386Y-70829485D01*
X143098412Y-71044413D01*
X143227658Y-71237843D01*
X143392157Y-71402342D01*
X143514000Y-71483755D01*
X143514001Y-72407245D01*
X143392157Y-72488658D01*
X143227658Y-72653157D01*
X143098412Y-72846587D01*
X143009386Y-73061515D01*
X142964000Y-73289682D01*
X142964000Y-73522318D01*
X143009386Y-73750485D01*
X143098412Y-73965413D01*
X143227658Y-74158843D01*
X143392157Y-74323342D01*
X143585587Y-74452588D01*
X143800515Y-74541614D01*
X144028682Y-74587000D01*
X144261318Y-74587000D01*
X144489485Y-74541614D01*
X144704413Y-74452588D01*
X144897843Y-74323342D01*
X145062342Y-74158843D01*
X145191588Y-73965413D01*
X145280614Y-73750485D01*
X145326000Y-73522318D01*
X145326000Y-73289682D01*
X145280614Y-73061515D01*
X145191588Y-72846587D01*
X145062342Y-72653157D01*
X144897843Y-72488658D01*
X144776000Y-72407245D01*
X144776000Y-71483755D01*
X144897843Y-71402342D01*
X145062342Y-71237843D01*
X145191588Y-71044413D01*
X145280614Y-70829485D01*
X145326000Y-70601318D01*
X145326000Y-70368682D01*
X145504000Y-70368682D01*
X145504000Y-70601318D01*
X145549386Y-70829485D01*
X145638412Y-71044413D01*
X145767658Y-71237843D01*
X145932157Y-71402342D01*
X146054000Y-71483755D01*
X146054001Y-72407245D01*
X145932157Y-72488658D01*
X145767658Y-72653157D01*
X145638412Y-72846587D01*
X145549386Y-73061515D01*
X145504000Y-73289682D01*
X145504000Y-73522318D01*
X145549386Y-73750485D01*
X145638412Y-73965413D01*
X145767658Y-74158843D01*
X145932157Y-74323342D01*
X146125587Y-74452588D01*
X146340515Y-74541614D01*
X146568682Y-74587000D01*
X146801318Y-74587000D01*
X147029485Y-74541614D01*
X147244413Y-74452588D01*
X147437843Y-74323342D01*
X147602342Y-74158843D01*
X147731588Y-73965413D01*
X147820614Y-73750485D01*
X147866000Y-73522318D01*
X147866000Y-73289682D01*
X147820614Y-73061515D01*
X147731588Y-72846587D01*
X147602342Y-72653157D01*
X147437843Y-72488658D01*
X147316000Y-72407245D01*
X147316000Y-71483755D01*
X147437843Y-71402342D01*
X147602342Y-71237843D01*
X147731588Y-71044413D01*
X147820614Y-70829485D01*
X147866000Y-70601318D01*
X147866000Y-70368682D01*
X148044000Y-70368682D01*
X148044000Y-70601318D01*
X148089386Y-70829485D01*
X148178412Y-71044413D01*
X148307658Y-71237843D01*
X148472157Y-71402342D01*
X148594000Y-71483755D01*
X148594001Y-72407245D01*
X148472157Y-72488658D01*
X148307658Y-72653157D01*
X148178412Y-72846587D01*
X148089386Y-73061515D01*
X148044000Y-73289682D01*
X148044000Y-73522318D01*
X148089386Y-73750485D01*
X148178412Y-73965413D01*
X148307658Y-74158843D01*
X148472157Y-74323342D01*
X148665587Y-74452588D01*
X148880515Y-74541614D01*
X149108682Y-74587000D01*
X149341318Y-74587000D01*
X149569485Y-74541614D01*
X149784413Y-74452588D01*
X149977843Y-74323342D01*
X150142342Y-74158843D01*
X150271588Y-73965413D01*
X150360614Y-73750485D01*
X150406000Y-73522318D01*
X150406000Y-73289682D01*
X150360614Y-73061515D01*
X150271588Y-72846587D01*
X150142342Y-72653157D01*
X149977843Y-72488658D01*
X149856000Y-72407245D01*
X149856000Y-71483755D01*
X149977843Y-71402342D01*
X150142342Y-71237843D01*
X150271588Y-71044413D01*
X150360614Y-70829485D01*
X150406000Y-70601318D01*
X150406000Y-70368682D01*
X150584000Y-70368682D01*
X150584000Y-70601318D01*
X150629386Y-70829485D01*
X150718412Y-71044413D01*
X150847658Y-71237843D01*
X151012157Y-71402342D01*
X151134000Y-71483755D01*
X151134001Y-72407245D01*
X151012157Y-72488658D01*
X150847658Y-72653157D01*
X150718412Y-72846587D01*
X150629386Y-73061515D01*
X150584000Y-73289682D01*
X150584000Y-73522318D01*
X150629386Y-73750485D01*
X150718412Y-73965413D01*
X150847658Y-74158843D01*
X151012157Y-74323342D01*
X151205587Y-74452588D01*
X151420515Y-74541614D01*
X151648682Y-74587000D01*
X151881318Y-74587000D01*
X152109485Y-74541614D01*
X152324413Y-74452588D01*
X152517843Y-74323342D01*
X152682342Y-74158843D01*
X152811588Y-73965413D01*
X152900614Y-73750485D01*
X152946000Y-73522318D01*
X152946000Y-73289682D01*
X152900614Y-73061515D01*
X152811588Y-72846587D01*
X152682342Y-72653157D01*
X152517843Y-72488658D01*
X152396000Y-72407245D01*
X152396000Y-71483755D01*
X152517843Y-71402342D01*
X152682342Y-71237843D01*
X152811588Y-71044413D01*
X152900614Y-70829485D01*
X152946000Y-70601318D01*
X152946000Y-70368682D01*
X153124000Y-70368682D01*
X153124000Y-70601318D01*
X153169386Y-70829485D01*
X153258412Y-71044413D01*
X153387658Y-71237843D01*
X153552157Y-71402342D01*
X153674000Y-71483755D01*
X153674001Y-72407245D01*
X153552157Y-72488658D01*
X153387658Y-72653157D01*
X153258412Y-72846587D01*
X153169386Y-73061515D01*
X153124000Y-73289682D01*
X153124000Y-73522318D01*
X153169386Y-73750485D01*
X153258412Y-73965413D01*
X153387658Y-74158843D01*
X153552157Y-74323342D01*
X153745587Y-74452588D01*
X153960515Y-74541614D01*
X154188682Y-74587000D01*
X154421318Y-74587000D01*
X154649485Y-74541614D01*
X154864413Y-74452588D01*
X155057843Y-74323342D01*
X155222342Y-74158843D01*
X155351588Y-73965413D01*
X155440614Y-73750485D01*
X155486000Y-73522318D01*
X155486000Y-73289682D01*
X155440614Y-73061515D01*
X155351588Y-72846587D01*
X155222342Y-72653157D01*
X155057843Y-72488658D01*
X154936000Y-72407245D01*
X154936000Y-71483755D01*
X155057843Y-71402342D01*
X155222342Y-71237843D01*
X155351588Y-71044413D01*
X155440614Y-70829485D01*
X155486000Y-70601318D01*
X155486000Y-70368682D01*
X155664000Y-70368682D01*
X155664000Y-70601318D01*
X155709386Y-70829485D01*
X155798412Y-71044413D01*
X155927658Y-71237843D01*
X156092157Y-71402342D01*
X156214000Y-71483755D01*
X156214001Y-72407245D01*
X156092157Y-72488658D01*
X155927658Y-72653157D01*
X155798412Y-72846587D01*
X155709386Y-73061515D01*
X155664000Y-73289682D01*
X155664000Y-73522318D01*
X155709386Y-73750485D01*
X155798412Y-73965413D01*
X155927658Y-74158843D01*
X156092157Y-74323342D01*
X156285587Y-74452588D01*
X156500515Y-74541614D01*
X156728682Y-74587000D01*
X156961318Y-74587000D01*
X157189485Y-74541614D01*
X157404413Y-74452588D01*
X157597843Y-74323342D01*
X157762342Y-74158843D01*
X157891588Y-73965413D01*
X157980614Y-73750485D01*
X158026000Y-73522318D01*
X158026000Y-73289682D01*
X157980614Y-73061515D01*
X157891588Y-72846587D01*
X157762342Y-72653157D01*
X157597843Y-72488658D01*
X157476000Y-72407245D01*
X157476000Y-71483755D01*
X157597843Y-71402342D01*
X157762342Y-71237843D01*
X157891588Y-71044413D01*
X157980614Y-70829485D01*
X158026000Y-70601318D01*
X158026000Y-70368682D01*
X158204000Y-70368682D01*
X158204000Y-70601318D01*
X158249386Y-70829485D01*
X158338412Y-71044413D01*
X158467658Y-71237843D01*
X158632157Y-71402342D01*
X158754000Y-71483755D01*
X158754001Y-72407245D01*
X158632157Y-72488658D01*
X158467658Y-72653157D01*
X158338412Y-72846587D01*
X158249386Y-73061515D01*
X158204000Y-73289682D01*
X158204000Y-73522318D01*
X158249386Y-73750485D01*
X158338412Y-73965413D01*
X158467658Y-74158843D01*
X158632157Y-74323342D01*
X158825587Y-74452588D01*
X159040515Y-74541614D01*
X159268682Y-74587000D01*
X159501318Y-74587000D01*
X159729485Y-74541614D01*
X159944413Y-74452588D01*
X160137843Y-74323342D01*
X160302342Y-74158843D01*
X160431588Y-73965413D01*
X160520614Y-73750485D01*
X160566000Y-73522318D01*
X160566000Y-73289682D01*
X160520614Y-73061515D01*
X160431588Y-72846587D01*
X160302342Y-72653157D01*
X160137843Y-72488658D01*
X160016000Y-72407245D01*
X160016000Y-71483755D01*
X160137843Y-71402342D01*
X160302342Y-71237843D01*
X160431588Y-71044413D01*
X160520614Y-70829485D01*
X160566000Y-70601318D01*
X160566000Y-70368682D01*
X160520614Y-70140515D01*
X160431588Y-69925587D01*
X160302342Y-69732157D01*
X160255185Y-69685000D01*
X160742157Y-69685000D01*
X160742157Y-71285000D01*
X160749513Y-71359689D01*
X160771299Y-71431508D01*
X160806678Y-71497696D01*
X160854289Y-71555711D01*
X160912304Y-71603322D01*
X160978492Y-71638701D01*
X161050311Y-71660487D01*
X161125000Y-71667843D01*
X161294000Y-71667843D01*
X161294001Y-72223157D01*
X161125000Y-72223157D01*
X161050311Y-72230513D01*
X160978492Y-72252299D01*
X160912304Y-72287678D01*
X160854289Y-72335289D01*
X160806678Y-72393304D01*
X160771299Y-72459492D01*
X160749513Y-72531311D01*
X160742157Y-72606000D01*
X160742157Y-74206000D01*
X160749513Y-74280689D01*
X160771299Y-74352508D01*
X160806678Y-74418696D01*
X160854289Y-74476711D01*
X160912304Y-74524322D01*
X160978492Y-74559701D01*
X161050311Y-74581487D01*
X161125000Y-74588843D01*
X162725000Y-74588843D01*
X162799689Y-74581487D01*
X162871508Y-74559701D01*
X162937696Y-74524322D01*
X162995711Y-74476711D01*
X163043322Y-74418696D01*
X163078701Y-74352508D01*
X163100487Y-74280689D01*
X163107843Y-74206000D01*
X163107843Y-72606000D01*
X163100487Y-72531311D01*
X163078701Y-72459492D01*
X163043322Y-72393304D01*
X162995711Y-72335289D01*
X162937696Y-72287678D01*
X162871508Y-72252299D01*
X162799689Y-72230513D01*
X162725000Y-72223157D01*
X162556000Y-72223157D01*
X162556000Y-71667843D01*
X162725000Y-71667843D01*
X162799689Y-71660487D01*
X162871508Y-71638701D01*
X162937696Y-71603322D01*
X162995711Y-71555711D01*
X163043322Y-71497696D01*
X163078701Y-71431508D01*
X163100487Y-71359689D01*
X163107843Y-71285000D01*
X163107843Y-69685000D01*
X163100487Y-69610311D01*
X163078701Y-69538492D01*
X163043322Y-69472304D01*
X162995711Y-69414289D01*
X162937696Y-69366678D01*
X162871508Y-69331299D01*
X162799689Y-69309513D01*
X162725000Y-69302157D01*
X161125000Y-69302157D01*
X161050311Y-69309513D01*
X160978492Y-69331299D01*
X160912304Y-69366678D01*
X160854289Y-69414289D01*
X160806678Y-69472304D01*
X160771299Y-69538492D01*
X160749513Y-69610311D01*
X160742157Y-69685000D01*
X160255185Y-69685000D01*
X160137843Y-69567658D01*
X159944413Y-69438412D01*
X159729485Y-69349386D01*
X159501318Y-69304000D01*
X159268682Y-69304000D01*
X159040515Y-69349386D01*
X158825587Y-69438412D01*
X158632157Y-69567658D01*
X158467658Y-69732157D01*
X158338412Y-69925587D01*
X158249386Y-70140515D01*
X158204000Y-70368682D01*
X158026000Y-70368682D01*
X157980614Y-70140515D01*
X157891588Y-69925587D01*
X157762342Y-69732157D01*
X157597843Y-69567658D01*
X157404413Y-69438412D01*
X157189485Y-69349386D01*
X156961318Y-69304000D01*
X156728682Y-69304000D01*
X156500515Y-69349386D01*
X156285587Y-69438412D01*
X156092157Y-69567658D01*
X155927658Y-69732157D01*
X155798412Y-69925587D01*
X155709386Y-70140515D01*
X155664000Y-70368682D01*
X155486000Y-70368682D01*
X155440614Y-70140515D01*
X155351588Y-69925587D01*
X155222342Y-69732157D01*
X155057843Y-69567658D01*
X154864413Y-69438412D01*
X154649485Y-69349386D01*
X154421318Y-69304000D01*
X154188682Y-69304000D01*
X153960515Y-69349386D01*
X153745587Y-69438412D01*
X153552157Y-69567658D01*
X153387658Y-69732157D01*
X153258412Y-69925587D01*
X153169386Y-70140515D01*
X153124000Y-70368682D01*
X152946000Y-70368682D01*
X152900614Y-70140515D01*
X152811588Y-69925587D01*
X152682342Y-69732157D01*
X152517843Y-69567658D01*
X152324413Y-69438412D01*
X152109485Y-69349386D01*
X151881318Y-69304000D01*
X151648682Y-69304000D01*
X151420515Y-69349386D01*
X151205587Y-69438412D01*
X151012157Y-69567658D01*
X150847658Y-69732157D01*
X150718412Y-69925587D01*
X150629386Y-70140515D01*
X150584000Y-70368682D01*
X150406000Y-70368682D01*
X150360614Y-70140515D01*
X150271588Y-69925587D01*
X150142342Y-69732157D01*
X149977843Y-69567658D01*
X149784413Y-69438412D01*
X149569485Y-69349386D01*
X149341318Y-69304000D01*
X149108682Y-69304000D01*
X148880515Y-69349386D01*
X148665587Y-69438412D01*
X148472157Y-69567658D01*
X148307658Y-69732157D01*
X148178412Y-69925587D01*
X148089386Y-70140515D01*
X148044000Y-70368682D01*
X147866000Y-70368682D01*
X147820614Y-70140515D01*
X147731588Y-69925587D01*
X147602342Y-69732157D01*
X147437843Y-69567658D01*
X147244413Y-69438412D01*
X147029485Y-69349386D01*
X146801318Y-69304000D01*
X146568682Y-69304000D01*
X146340515Y-69349386D01*
X146125587Y-69438412D01*
X145932157Y-69567658D01*
X145767658Y-69732157D01*
X145638412Y-69925587D01*
X145549386Y-70140515D01*
X145504000Y-70368682D01*
X145326000Y-70368682D01*
X145280614Y-70140515D01*
X145191588Y-69925587D01*
X145062342Y-69732157D01*
X144897843Y-69567658D01*
X144704413Y-69438412D01*
X144489485Y-69349386D01*
X144261318Y-69304000D01*
X144028682Y-69304000D01*
X143800515Y-69349386D01*
X143585587Y-69438412D01*
X143392157Y-69567658D01*
X143227658Y-69732157D01*
X143098412Y-69925587D01*
X143009386Y-70140515D01*
X142964000Y-70368682D01*
X142786000Y-70368682D01*
X142740614Y-70140515D01*
X142651588Y-69925587D01*
X142522342Y-69732157D01*
X142357843Y-69567658D01*
X142164413Y-69438412D01*
X141949485Y-69349386D01*
X141721318Y-69304000D01*
X141488682Y-69304000D01*
X141260515Y-69349386D01*
X141045587Y-69438412D01*
X140852157Y-69567658D01*
X140687658Y-69732157D01*
X140558412Y-69925587D01*
X140469386Y-70140515D01*
X140424000Y-70368682D01*
X140246000Y-70368682D01*
X140200614Y-70140515D01*
X140111588Y-69925587D01*
X139982342Y-69732157D01*
X139817843Y-69567658D01*
X139624413Y-69438412D01*
X139409485Y-69349386D01*
X139181318Y-69304000D01*
X138948682Y-69304000D01*
X138720515Y-69349386D01*
X138505587Y-69438412D01*
X138312157Y-69567658D01*
X138147658Y-69732157D01*
X138018412Y-69925587D01*
X137929386Y-70140515D01*
X137884000Y-70368682D01*
X137706000Y-70368682D01*
X137660614Y-70140515D01*
X137571588Y-69925587D01*
X137442342Y-69732157D01*
X137277843Y-69567658D01*
X137084413Y-69438412D01*
X136869485Y-69349386D01*
X136641318Y-69304000D01*
X136408682Y-69304000D01*
X136180515Y-69349386D01*
X135965587Y-69438412D01*
X135772157Y-69567658D01*
X135607658Y-69732157D01*
X135478412Y-69925587D01*
X135389386Y-70140515D01*
X135344000Y-70368682D01*
X135166000Y-70368682D01*
X135120614Y-70140515D01*
X135031588Y-69925587D01*
X134902342Y-69732157D01*
X134737843Y-69567658D01*
X134544413Y-69438412D01*
X134329485Y-69349386D01*
X134101318Y-69304000D01*
X133868682Y-69304000D01*
X133640515Y-69349386D01*
X133425587Y-69438412D01*
X133232157Y-69567658D01*
X133067658Y-69732157D01*
X132938412Y-69925587D01*
X132849386Y-70140515D01*
X132804000Y-70368682D01*
X132626000Y-70368682D01*
X132580614Y-70140515D01*
X132491588Y-69925587D01*
X132362342Y-69732157D01*
X132197843Y-69567658D01*
X132004413Y-69438412D01*
X131789485Y-69349386D01*
X131561318Y-69304000D01*
X131328682Y-69304000D01*
X131100515Y-69349386D01*
X130885587Y-69438412D01*
X130692157Y-69567658D01*
X130527658Y-69732157D01*
X130398412Y-69925587D01*
X130309386Y-70140515D01*
X130264000Y-70368682D01*
X130264000Y-70601318D01*
X130309386Y-70829485D01*
X130398412Y-71044413D01*
X130527658Y-71237843D01*
X130692157Y-71402342D01*
X130814000Y-71483755D01*
X130814001Y-72223157D01*
X130645000Y-72223157D01*
X130570311Y-72230513D01*
X130498492Y-72252299D01*
X130432304Y-72287678D01*
X130374289Y-72335289D01*
X130326678Y-72393304D01*
X130291299Y-72459492D01*
X130269513Y-72531311D01*
X130262157Y-72606000D01*
X129775185Y-72606000D01*
X129657843Y-72488658D01*
X129536000Y-72407245D01*
X129536000Y-71483755D01*
X129657843Y-71402342D01*
X129822342Y-71237843D01*
X129951588Y-71044413D01*
X130040614Y-70829485D01*
X130086000Y-70601318D01*
X130086000Y-70368682D01*
X130040614Y-70140515D01*
X129951588Y-69925587D01*
X129822342Y-69732157D01*
X129657843Y-69567658D01*
X129464413Y-69438412D01*
X129249485Y-69349386D01*
X129021318Y-69304000D01*
X128788682Y-69304000D01*
X128560515Y-69349386D01*
X128345587Y-69438412D01*
X128152157Y-69567658D01*
X127987658Y-69732157D01*
X127858412Y-69925587D01*
X127769386Y-70140515D01*
X127724000Y-70368682D01*
X127546000Y-70368682D01*
X127500614Y-70140515D01*
X127411588Y-69925587D01*
X127282342Y-69732157D01*
X127117843Y-69567658D01*
X126924413Y-69438412D01*
X126709485Y-69349386D01*
X126481318Y-69304000D01*
X126248682Y-69304000D01*
X126020515Y-69349386D01*
X125805587Y-69438412D01*
X125612157Y-69567658D01*
X125447658Y-69732157D01*
X125318412Y-69925587D01*
X125229386Y-70140515D01*
X125184000Y-70368682D01*
X125006000Y-70368682D01*
X124960614Y-70140515D01*
X124871588Y-69925587D01*
X124742342Y-69732157D01*
X124577843Y-69567658D01*
X124384413Y-69438412D01*
X124169485Y-69349386D01*
X123941318Y-69304000D01*
X123708682Y-69304000D01*
X123480515Y-69349386D01*
X123265587Y-69438412D01*
X123072157Y-69567658D01*
X122907658Y-69732157D01*
X122778412Y-69925587D01*
X122689386Y-70140515D01*
X122644000Y-70368682D01*
X122466000Y-70368682D01*
X122420614Y-70140515D01*
X122331588Y-69925587D01*
X122202342Y-69732157D01*
X122037843Y-69567658D01*
X121844413Y-69438412D01*
X121629485Y-69349386D01*
X121401318Y-69304000D01*
X121168682Y-69304000D01*
X120940515Y-69349386D01*
X120725587Y-69438412D01*
X120532157Y-69567658D01*
X120367658Y-69732157D01*
X120238412Y-69925587D01*
X120149386Y-70140515D01*
X120104000Y-70368682D01*
X119926000Y-70368682D01*
X119880614Y-70140515D01*
X119791588Y-69925587D01*
X119662342Y-69732157D01*
X119497843Y-69567658D01*
X119304413Y-69438412D01*
X119089485Y-69349386D01*
X118861318Y-69304000D01*
X118628682Y-69304000D01*
X118400515Y-69349386D01*
X118185587Y-69438412D01*
X117992157Y-69567658D01*
X117983000Y-69576815D01*
X117983000Y-68572000D01*
X117979741Y-68522270D01*
X117967067Y-68426000D01*
X162536480Y-68426000D01*
X162688135Y-68440870D01*
G04 #@! TA.AperFunction,Conductor*
D18*
G36*
X162688135Y-68440870D02*
G01*
X162811388Y-68478082D01*
X162925068Y-68538526D01*
X163024841Y-68619899D01*
X163106911Y-68719105D01*
X163168147Y-68832357D01*
X163206220Y-68955352D01*
X163222000Y-69105492D01*
X163222001Y-88876470D01*
X163207130Y-89028135D01*
X163169918Y-89151388D01*
X163109474Y-89265067D01*
X163028097Y-89364845D01*
X162928897Y-89446910D01*
X162815640Y-89508148D01*
X162696004Y-89545181D01*
X162842342Y-89398843D01*
X162971588Y-89205413D01*
X163060614Y-88990485D01*
X163106000Y-88762318D01*
X163106000Y-88529682D01*
X163060614Y-88301515D01*
X162971588Y-88086587D01*
X162842342Y-87893157D01*
X162677843Y-87728658D01*
X162556000Y-87647245D01*
X162556000Y-86907843D01*
X162725000Y-86907843D01*
X162799689Y-86900487D01*
X162871508Y-86878701D01*
X162937696Y-86843322D01*
X162995711Y-86795711D01*
X163043322Y-86737696D01*
X163078701Y-86671508D01*
X163100487Y-86599689D01*
X163107843Y-86525000D01*
X163107843Y-84925000D01*
X163100487Y-84850311D01*
X163078701Y-84778492D01*
X163043322Y-84712304D01*
X162995711Y-84654289D01*
X162937696Y-84606678D01*
X162871508Y-84571299D01*
X162799689Y-84549513D01*
X162725000Y-84542157D01*
X161125000Y-84542157D01*
X161050311Y-84549513D01*
X160978492Y-84571299D01*
X160912304Y-84606678D01*
X160854289Y-84654289D01*
X160806678Y-84712304D01*
X160771299Y-84778492D01*
X160749513Y-84850311D01*
X160742157Y-84925000D01*
X160742157Y-86525000D01*
X160749513Y-86599689D01*
X160771299Y-86671508D01*
X160806678Y-86737696D01*
X160854289Y-86795711D01*
X160912304Y-86843322D01*
X160978492Y-86878701D01*
X161050311Y-86900487D01*
X161125000Y-86907843D01*
X161294000Y-86907843D01*
X161294001Y-87647245D01*
X161172157Y-87728658D01*
X161007658Y-87893157D01*
X160878412Y-88086587D01*
X160789386Y-88301515D01*
X160744000Y-88529682D01*
X160744000Y-88762318D01*
X160789386Y-88990485D01*
X160878412Y-89205413D01*
X161007658Y-89398843D01*
X161170815Y-89562000D01*
X160139185Y-89562000D01*
X160302342Y-89398843D01*
X160431588Y-89205413D01*
X160520614Y-88990485D01*
X160566000Y-88762318D01*
X160566000Y-88529682D01*
X160520614Y-88301515D01*
X160431588Y-88086587D01*
X160302342Y-87893157D01*
X160137843Y-87728658D01*
X160016000Y-87647245D01*
X160016000Y-86723755D01*
X160137843Y-86642342D01*
X160302342Y-86477843D01*
X160431588Y-86284413D01*
X160520614Y-86069485D01*
X160566000Y-85841318D01*
X160566000Y-85608682D01*
X160520614Y-85380515D01*
X160431588Y-85165587D01*
X160302342Y-84972157D01*
X160137843Y-84807658D01*
X159944413Y-84678412D01*
X159729485Y-84589386D01*
X159501318Y-84544000D01*
X159268682Y-84544000D01*
X159040515Y-84589386D01*
X158825587Y-84678412D01*
X158632157Y-84807658D01*
X158467658Y-84972157D01*
X158338412Y-85165587D01*
X158249386Y-85380515D01*
X158204000Y-85608682D01*
X158204000Y-85841318D01*
X158249386Y-86069485D01*
X158338412Y-86284413D01*
X158467658Y-86477843D01*
X158632157Y-86642342D01*
X158754000Y-86723755D01*
X158754001Y-87647245D01*
X158632157Y-87728658D01*
X158467658Y-87893157D01*
X158338412Y-88086587D01*
X158249386Y-88301515D01*
X158204000Y-88529682D01*
X158204000Y-88762318D01*
X158249386Y-88990485D01*
X158338412Y-89205413D01*
X158467658Y-89398843D01*
X158630815Y-89562000D01*
X157599185Y-89562000D01*
X157762342Y-89398843D01*
X157891588Y-89205413D01*
X157980614Y-88990485D01*
X158026000Y-88762318D01*
X158026000Y-88529682D01*
X157980614Y-88301515D01*
X157891588Y-88086587D01*
X157762342Y-87893157D01*
X157597843Y-87728658D01*
X157476000Y-87647245D01*
X157476000Y-86723755D01*
X157597843Y-86642342D01*
X157762342Y-86477843D01*
X157891588Y-86284413D01*
X157980614Y-86069485D01*
X158026000Y-85841318D01*
X158026000Y-85608682D01*
X157980614Y-85380515D01*
X157891588Y-85165587D01*
X157762342Y-84972157D01*
X157597843Y-84807658D01*
X157404413Y-84678412D01*
X157189485Y-84589386D01*
X156961318Y-84544000D01*
X156728682Y-84544000D01*
X156500515Y-84589386D01*
X156285587Y-84678412D01*
X156092157Y-84807658D01*
X155927658Y-84972157D01*
X155798412Y-85165587D01*
X155709386Y-85380515D01*
X155664000Y-85608682D01*
X155664000Y-85841318D01*
X155709386Y-86069485D01*
X155798412Y-86284413D01*
X155927658Y-86477843D01*
X156092157Y-86642342D01*
X156214000Y-86723755D01*
X156214001Y-87647245D01*
X156092157Y-87728658D01*
X155927658Y-87893157D01*
X155798412Y-88086587D01*
X155709386Y-88301515D01*
X155664000Y-88529682D01*
X155664000Y-88762318D01*
X155709386Y-88990485D01*
X155798412Y-89205413D01*
X155927658Y-89398843D01*
X156090815Y-89562000D01*
X155059185Y-89562000D01*
X155222342Y-89398843D01*
X155351588Y-89205413D01*
X155440614Y-88990485D01*
X155486000Y-88762318D01*
X155486000Y-88529682D01*
X155440614Y-88301515D01*
X155351588Y-88086587D01*
X155222342Y-87893157D01*
X155057843Y-87728658D01*
X154936000Y-87647245D01*
X154936000Y-86723755D01*
X155057843Y-86642342D01*
X155222342Y-86477843D01*
X155351588Y-86284413D01*
X155440614Y-86069485D01*
X155486000Y-85841318D01*
X155486000Y-85608682D01*
X155440614Y-85380515D01*
X155351588Y-85165587D01*
X155222342Y-84972157D01*
X155057843Y-84807658D01*
X154864413Y-84678412D01*
X154649485Y-84589386D01*
X154421318Y-84544000D01*
X154188682Y-84544000D01*
X153960515Y-84589386D01*
X153745587Y-84678412D01*
X153552157Y-84807658D01*
X153387658Y-84972157D01*
X153258412Y-85165587D01*
X153169386Y-85380515D01*
X153124000Y-85608682D01*
X153124000Y-85841318D01*
X153169386Y-86069485D01*
X153258412Y-86284413D01*
X153387658Y-86477843D01*
X153552157Y-86642342D01*
X153674000Y-86723755D01*
X153674001Y-87647245D01*
X153552157Y-87728658D01*
X153387658Y-87893157D01*
X153258412Y-88086587D01*
X153169386Y-88301515D01*
X153124000Y-88529682D01*
X153124000Y-88762318D01*
X153169386Y-88990485D01*
X153258412Y-89205413D01*
X153387658Y-89398843D01*
X153550815Y-89562000D01*
X152519185Y-89562000D01*
X152682342Y-89398843D01*
X152811588Y-89205413D01*
X152900614Y-88990485D01*
X152946000Y-88762318D01*
X152946000Y-88529682D01*
X152900614Y-88301515D01*
X152811588Y-88086587D01*
X152682342Y-87893157D01*
X152517843Y-87728658D01*
X152396000Y-87647245D01*
X152396000Y-86723755D01*
X152517843Y-86642342D01*
X152682342Y-86477843D01*
X152811588Y-86284413D01*
X152900614Y-86069485D01*
X152946000Y-85841318D01*
X152946000Y-85608682D01*
X152900614Y-85380515D01*
X152811588Y-85165587D01*
X152682342Y-84972157D01*
X152517843Y-84807658D01*
X152324413Y-84678412D01*
X152109485Y-84589386D01*
X151881318Y-84544000D01*
X151648682Y-84544000D01*
X151420515Y-84589386D01*
X151205587Y-84678412D01*
X151012157Y-84807658D01*
X150847658Y-84972157D01*
X150718412Y-85165587D01*
X150629386Y-85380515D01*
X150584000Y-85608682D01*
X150584000Y-85841318D01*
X150629386Y-86069485D01*
X150718412Y-86284413D01*
X150847658Y-86477843D01*
X151012157Y-86642342D01*
X151134000Y-86723755D01*
X151134001Y-87647245D01*
X151012157Y-87728658D01*
X150847658Y-87893157D01*
X150718412Y-88086587D01*
X150629386Y-88301515D01*
X150584000Y-88529682D01*
X150584000Y-88762318D01*
X150629386Y-88990485D01*
X150718412Y-89205413D01*
X150847658Y-89398843D01*
X151010815Y-89562000D01*
X149979185Y-89562000D01*
X150142342Y-89398843D01*
X150271588Y-89205413D01*
X150360614Y-88990485D01*
X150406000Y-88762318D01*
X150406000Y-88529682D01*
X150360614Y-88301515D01*
X150271588Y-88086587D01*
X150142342Y-87893157D01*
X149977843Y-87728658D01*
X149856000Y-87647245D01*
X149856000Y-86723755D01*
X149977843Y-86642342D01*
X150142342Y-86477843D01*
X150271588Y-86284413D01*
X150360614Y-86069485D01*
X150406000Y-85841318D01*
X150406000Y-85608682D01*
X150360614Y-85380515D01*
X150271588Y-85165587D01*
X150142342Y-84972157D01*
X149977843Y-84807658D01*
X149784413Y-84678412D01*
X149569485Y-84589386D01*
X149341318Y-84544000D01*
X149108682Y-84544000D01*
X148880515Y-84589386D01*
X148665587Y-84678412D01*
X148472157Y-84807658D01*
X148307658Y-84972157D01*
X148178412Y-85165587D01*
X148089386Y-85380515D01*
X148044000Y-85608682D01*
X148044000Y-85841318D01*
X148089386Y-86069485D01*
X148178412Y-86284413D01*
X148307658Y-86477843D01*
X148472157Y-86642342D01*
X148594000Y-86723755D01*
X148594001Y-87647245D01*
X148472157Y-87728658D01*
X148307658Y-87893157D01*
X148178412Y-88086587D01*
X148089386Y-88301515D01*
X148044000Y-88529682D01*
X148044000Y-88762318D01*
X148089386Y-88990485D01*
X148178412Y-89205413D01*
X148307658Y-89398843D01*
X148470815Y-89562000D01*
X147439185Y-89562000D01*
X147602342Y-89398843D01*
X147731588Y-89205413D01*
X147820614Y-88990485D01*
X147866000Y-88762318D01*
X147866000Y-88529682D01*
X147820614Y-88301515D01*
X147731588Y-88086587D01*
X147602342Y-87893157D01*
X147437843Y-87728658D01*
X147316000Y-87647245D01*
X147316000Y-86723755D01*
X147437843Y-86642342D01*
X147602342Y-86477843D01*
X147731588Y-86284413D01*
X147820614Y-86069485D01*
X147866000Y-85841318D01*
X147866000Y-85608682D01*
X147820614Y-85380515D01*
X147731588Y-85165587D01*
X147602342Y-84972157D01*
X147437843Y-84807658D01*
X147244413Y-84678412D01*
X147029485Y-84589386D01*
X146801318Y-84544000D01*
X146568682Y-84544000D01*
X146340515Y-84589386D01*
X146125587Y-84678412D01*
X145932157Y-84807658D01*
X145767658Y-84972157D01*
X145638412Y-85165587D01*
X145549386Y-85380515D01*
X145504000Y-85608682D01*
X145504000Y-85841318D01*
X145549386Y-86069485D01*
X145638412Y-86284413D01*
X145767658Y-86477843D01*
X145932157Y-86642342D01*
X146054000Y-86723755D01*
X146054001Y-87647245D01*
X145932157Y-87728658D01*
X145767658Y-87893157D01*
X145638412Y-88086587D01*
X145549386Y-88301515D01*
X145504000Y-88529682D01*
X145504000Y-88762318D01*
X145549386Y-88990485D01*
X145638412Y-89205413D01*
X145767658Y-89398843D01*
X145930815Y-89562000D01*
X144899185Y-89562000D01*
X145062342Y-89398843D01*
X145191588Y-89205413D01*
X145280614Y-88990485D01*
X145326000Y-88762318D01*
X145326000Y-88529682D01*
X145280614Y-88301515D01*
X145191588Y-88086587D01*
X145062342Y-87893157D01*
X144897843Y-87728658D01*
X144776000Y-87647245D01*
X144776000Y-86723755D01*
X144897843Y-86642342D01*
X145062342Y-86477843D01*
X145191588Y-86284413D01*
X145280614Y-86069485D01*
X145326000Y-85841318D01*
X145326000Y-85608682D01*
X145280614Y-85380515D01*
X145191588Y-85165587D01*
X145062342Y-84972157D01*
X144897843Y-84807658D01*
X144704413Y-84678412D01*
X144489485Y-84589386D01*
X144261318Y-84544000D01*
X144028682Y-84544000D01*
X143800515Y-84589386D01*
X143585587Y-84678412D01*
X143392157Y-84807658D01*
X143227658Y-84972157D01*
X143098412Y-85165587D01*
X143009386Y-85380515D01*
X142964000Y-85608682D01*
X142964000Y-85841318D01*
X143009386Y-86069485D01*
X143098412Y-86284413D01*
X143227658Y-86477843D01*
X143392157Y-86642342D01*
X143514000Y-86723755D01*
X143514001Y-87647245D01*
X143392157Y-87728658D01*
X143227658Y-87893157D01*
X143098412Y-88086587D01*
X143009386Y-88301515D01*
X142964000Y-88529682D01*
X142964000Y-88762318D01*
X143009386Y-88990485D01*
X143098412Y-89205413D01*
X143227658Y-89398843D01*
X143390815Y-89562000D01*
X142359185Y-89562000D01*
X142522342Y-89398843D01*
X142651588Y-89205413D01*
X142740614Y-88990485D01*
X142786000Y-88762318D01*
X142786000Y-88529682D01*
X142740614Y-88301515D01*
X142651588Y-88086587D01*
X142522342Y-87893157D01*
X142357843Y-87728658D01*
X142236000Y-87647245D01*
X142236000Y-86723755D01*
X142357843Y-86642342D01*
X142522342Y-86477843D01*
X142651588Y-86284413D01*
X142740614Y-86069485D01*
X142786000Y-85841318D01*
X142786000Y-85608682D01*
X142740614Y-85380515D01*
X142651588Y-85165587D01*
X142522342Y-84972157D01*
X142357843Y-84807658D01*
X142164413Y-84678412D01*
X141949485Y-84589386D01*
X141721318Y-84544000D01*
X141488682Y-84544000D01*
X141260515Y-84589386D01*
X141045587Y-84678412D01*
X140852157Y-84807658D01*
X140687658Y-84972157D01*
X140558412Y-85165587D01*
X140469386Y-85380515D01*
X140424000Y-85608682D01*
X140424000Y-85841318D01*
X140469386Y-86069485D01*
X140558412Y-86284413D01*
X140687658Y-86477843D01*
X140852157Y-86642342D01*
X140974000Y-86723755D01*
X140974001Y-87647245D01*
X140852157Y-87728658D01*
X140687658Y-87893157D01*
X140558412Y-88086587D01*
X140469386Y-88301515D01*
X140424000Y-88529682D01*
X140424000Y-88762318D01*
X140469386Y-88990485D01*
X140558412Y-89205413D01*
X140687658Y-89398843D01*
X140850815Y-89562000D01*
X139819185Y-89562000D01*
X139982342Y-89398843D01*
X140111588Y-89205413D01*
X140200614Y-88990485D01*
X140246000Y-88762318D01*
X140246000Y-88529682D01*
X140200614Y-88301515D01*
X140111588Y-88086587D01*
X139982342Y-87893157D01*
X139817843Y-87728658D01*
X139696000Y-87647245D01*
X139696000Y-86723755D01*
X139817843Y-86642342D01*
X139982342Y-86477843D01*
X140111588Y-86284413D01*
X140200614Y-86069485D01*
X140246000Y-85841318D01*
X140246000Y-85608682D01*
X140200614Y-85380515D01*
X140111588Y-85165587D01*
X139982342Y-84972157D01*
X139817843Y-84807658D01*
X139624413Y-84678412D01*
X139409485Y-84589386D01*
X139181318Y-84544000D01*
X138948682Y-84544000D01*
X138720515Y-84589386D01*
X138505587Y-84678412D01*
X138312157Y-84807658D01*
X138147658Y-84972157D01*
X138018412Y-85165587D01*
X137929386Y-85380515D01*
X137884000Y-85608682D01*
X137884000Y-85841318D01*
X137929386Y-86069485D01*
X138018412Y-86284413D01*
X138147658Y-86477843D01*
X138312157Y-86642342D01*
X138434000Y-86723755D01*
X138434001Y-87647245D01*
X138312157Y-87728658D01*
X138147658Y-87893157D01*
X138018412Y-88086587D01*
X137929386Y-88301515D01*
X137884000Y-88529682D01*
X137884000Y-88762318D01*
X137929386Y-88990485D01*
X138018412Y-89205413D01*
X138147658Y-89398843D01*
X138310815Y-89562000D01*
X137279185Y-89562000D01*
X137442342Y-89398843D01*
X137571588Y-89205413D01*
X137660614Y-88990485D01*
X137706000Y-88762318D01*
X137706000Y-88529682D01*
X137660614Y-88301515D01*
X137571588Y-88086587D01*
X137442342Y-87893157D01*
X137277843Y-87728658D01*
X137156000Y-87647245D01*
X137156000Y-86723755D01*
X137277843Y-86642342D01*
X137442342Y-86477843D01*
X137571588Y-86284413D01*
X137660614Y-86069485D01*
X137706000Y-85841318D01*
X137706000Y-85608682D01*
X137660614Y-85380515D01*
X137571588Y-85165587D01*
X137442342Y-84972157D01*
X137277843Y-84807658D01*
X137084413Y-84678412D01*
X136869485Y-84589386D01*
X136641318Y-84544000D01*
X136408682Y-84544000D01*
X136180515Y-84589386D01*
X135965587Y-84678412D01*
X135772157Y-84807658D01*
X135607658Y-84972157D01*
X135478412Y-85165587D01*
X135389386Y-85380515D01*
X135344000Y-85608682D01*
X135344000Y-85841318D01*
X135389386Y-86069485D01*
X135478412Y-86284413D01*
X135607658Y-86477843D01*
X135772157Y-86642342D01*
X135894000Y-86723755D01*
X135894001Y-87647245D01*
X135772157Y-87728658D01*
X135607658Y-87893157D01*
X135478412Y-88086587D01*
X135389386Y-88301515D01*
X135344000Y-88529682D01*
X135344000Y-88762318D01*
X135389386Y-88990485D01*
X135478412Y-89205413D01*
X135607658Y-89398843D01*
X135770815Y-89562000D01*
X134724878Y-89562000D01*
X134761003Y-89536278D01*
X134919777Y-89367781D01*
X135042628Y-89171546D01*
X135124835Y-88955115D01*
X135063908Y-88773000D01*
X134112000Y-88773000D01*
X134112000Y-88793000D01*
X133858000Y-88793000D01*
X133858000Y-88773000D01*
X132906092Y-88773000D01*
X132845165Y-88955115D01*
X132927372Y-89171546D01*
X133050223Y-89367781D01*
X133208997Y-89536278D01*
X133245122Y-89562000D01*
X132199185Y-89562000D01*
X132362342Y-89398843D01*
X132491588Y-89205413D01*
X132580614Y-88990485D01*
X132626000Y-88762318D01*
X132626000Y-88529682D01*
X132587650Y-88336885D01*
X132845165Y-88336885D01*
X132906092Y-88519000D01*
X133858000Y-88519000D01*
X133858000Y-87567703D01*
X134112000Y-87567703D01*
X134112000Y-88519000D01*
X135063908Y-88519000D01*
X135124835Y-88336885D01*
X135042628Y-88120454D01*
X134919777Y-87924219D01*
X134761003Y-87755722D01*
X134572408Y-87621438D01*
X134361239Y-87526527D01*
X134294114Y-87506171D01*
X134112000Y-87567703D01*
X133858000Y-87567703D01*
X133675886Y-87506171D01*
X133608761Y-87526527D01*
X133397592Y-87621438D01*
X133208997Y-87755722D01*
X133050223Y-87924219D01*
X132927372Y-88120454D01*
X132845165Y-88336885D01*
X132587650Y-88336885D01*
X132580614Y-88301515D01*
X132491588Y-88086587D01*
X132362342Y-87893157D01*
X132197843Y-87728658D01*
X132076000Y-87647245D01*
X132076000Y-86907843D01*
X132245000Y-86907843D01*
X132319689Y-86900487D01*
X132391508Y-86878701D01*
X132457696Y-86843322D01*
X132515711Y-86795711D01*
X132563322Y-86737696D01*
X132598701Y-86671508D01*
X132620487Y-86599689D01*
X132627843Y-86525000D01*
X132627843Y-86034115D01*
X132845165Y-86034115D01*
X132927372Y-86250546D01*
X133050223Y-86446781D01*
X133208997Y-86615278D01*
X133397592Y-86749562D01*
X133608761Y-86844473D01*
X133675886Y-86864829D01*
X133858000Y-86803297D01*
X133858000Y-85852000D01*
X134112000Y-85852000D01*
X134112000Y-86803297D01*
X134294114Y-86864829D01*
X134361239Y-86844473D01*
X134572408Y-86749562D01*
X134761003Y-86615278D01*
X134919777Y-86446781D01*
X135042628Y-86250546D01*
X135124835Y-86034115D01*
X135063908Y-85852000D01*
X134112000Y-85852000D01*
X133858000Y-85852000D01*
X132906092Y-85852000D01*
X132845165Y-86034115D01*
X132627843Y-86034115D01*
X132627843Y-85415885D01*
X132845165Y-85415885D01*
X132906092Y-85598000D01*
X133858000Y-85598000D01*
X133858000Y-84646703D01*
X134112000Y-84646703D01*
X134112000Y-85598000D01*
X135063908Y-85598000D01*
X135124835Y-85415885D01*
X135042628Y-85199454D01*
X134919777Y-85003219D01*
X134761003Y-84834722D01*
X134572408Y-84700438D01*
X134361239Y-84605527D01*
X134294114Y-84585171D01*
X134112000Y-84646703D01*
X133858000Y-84646703D01*
X133675886Y-84585171D01*
X133608761Y-84605527D01*
X133397592Y-84700438D01*
X133208997Y-84834722D01*
X133050223Y-85003219D01*
X132927372Y-85199454D01*
X132845165Y-85415885D01*
X132627843Y-85415885D01*
X132627843Y-84925000D01*
X132620487Y-84850311D01*
X132598701Y-84778492D01*
X132563322Y-84712304D01*
X132515711Y-84654289D01*
X132457696Y-84606678D01*
X132391508Y-84571299D01*
X132319689Y-84549513D01*
X132245000Y-84542157D01*
X130645000Y-84542157D01*
X130570311Y-84549513D01*
X130498492Y-84571299D01*
X130432304Y-84606678D01*
X130374289Y-84654289D01*
X130326678Y-84712304D01*
X130291299Y-84778492D01*
X130269513Y-84850311D01*
X130262157Y-84925000D01*
X130262157Y-86525000D01*
X130269513Y-86599689D01*
X130291299Y-86671508D01*
X130326678Y-86737696D01*
X130374289Y-86795711D01*
X130432304Y-86843322D01*
X130498492Y-86878701D01*
X130570311Y-86900487D01*
X130645000Y-86907843D01*
X130814000Y-86907843D01*
X130814001Y-87647245D01*
X130692157Y-87728658D01*
X130527658Y-87893157D01*
X130398412Y-88086587D01*
X130309386Y-88301515D01*
X130264000Y-88529682D01*
X130264000Y-88762318D01*
X130309386Y-88990485D01*
X130398412Y-89205413D01*
X130527658Y-89398843D01*
X130690815Y-89562000D01*
X129659185Y-89562000D01*
X129822342Y-89398843D01*
X129951588Y-89205413D01*
X130040614Y-88990485D01*
X130086000Y-88762318D01*
X130086000Y-88529682D01*
X130040614Y-88301515D01*
X129951588Y-88086587D01*
X129822342Y-87893157D01*
X129657843Y-87728658D01*
X129536000Y-87647245D01*
X129536000Y-86723755D01*
X129657843Y-86642342D01*
X129822342Y-86477843D01*
X129951588Y-86284413D01*
X130040614Y-86069485D01*
X130086000Y-85841318D01*
X130086000Y-85608682D01*
X130040614Y-85380515D01*
X129951588Y-85165587D01*
X129822342Y-84972157D01*
X129657843Y-84807658D01*
X129464413Y-84678412D01*
X129249485Y-84589386D01*
X129021318Y-84544000D01*
X128788682Y-84544000D01*
X128560515Y-84589386D01*
X128345587Y-84678412D01*
X128152157Y-84807658D01*
X127987658Y-84972157D01*
X127858412Y-85165587D01*
X127769386Y-85380515D01*
X127724000Y-85608682D01*
X127724000Y-85841318D01*
X127769386Y-86069485D01*
X127858412Y-86284413D01*
X127987658Y-86477843D01*
X128152157Y-86642342D01*
X128274000Y-86723755D01*
X128274001Y-87647245D01*
X128152157Y-87728658D01*
X127987658Y-87893157D01*
X127858412Y-88086587D01*
X127769386Y-88301515D01*
X127724000Y-88529682D01*
X127724000Y-88762318D01*
X127769386Y-88990485D01*
X127858412Y-89205413D01*
X127987658Y-89398843D01*
X128150815Y-89562000D01*
X127119185Y-89562000D01*
X127282342Y-89398843D01*
X127411588Y-89205413D01*
X127500614Y-88990485D01*
X127546000Y-88762318D01*
X127546000Y-88529682D01*
X127500614Y-88301515D01*
X127411588Y-88086587D01*
X127282342Y-87893157D01*
X127117843Y-87728658D01*
X126996000Y-87647245D01*
X126996000Y-86723755D01*
X127117843Y-86642342D01*
X127282342Y-86477843D01*
X127411588Y-86284413D01*
X127500614Y-86069485D01*
X127546000Y-85841318D01*
X127546000Y-85608682D01*
X127500614Y-85380515D01*
X127411588Y-85165587D01*
X127282342Y-84972157D01*
X127117843Y-84807658D01*
X126924413Y-84678412D01*
X126709485Y-84589386D01*
X126481318Y-84544000D01*
X126248682Y-84544000D01*
X126020515Y-84589386D01*
X125805587Y-84678412D01*
X125612157Y-84807658D01*
X125447658Y-84972157D01*
X125318412Y-85165587D01*
X125229386Y-85380515D01*
X125184000Y-85608682D01*
X125184000Y-85841318D01*
X125229386Y-86069485D01*
X125318412Y-86284413D01*
X125447658Y-86477843D01*
X125612157Y-86642342D01*
X125734000Y-86723755D01*
X125734001Y-87647245D01*
X125612157Y-87728658D01*
X125447658Y-87893157D01*
X125318412Y-88086587D01*
X125229386Y-88301515D01*
X125184000Y-88529682D01*
X125184000Y-88762318D01*
X125229386Y-88990485D01*
X125318412Y-89205413D01*
X125447658Y-89398843D01*
X125610815Y-89562000D01*
X124579185Y-89562000D01*
X124742342Y-89398843D01*
X124871588Y-89205413D01*
X124960614Y-88990485D01*
X125006000Y-88762318D01*
X125006000Y-88529682D01*
X124960614Y-88301515D01*
X124871588Y-88086587D01*
X124742342Y-87893157D01*
X124577843Y-87728658D01*
X124456000Y-87647245D01*
X124456000Y-86723755D01*
X124577843Y-86642342D01*
X124742342Y-86477843D01*
X124871588Y-86284413D01*
X124960614Y-86069485D01*
X125006000Y-85841318D01*
X125006000Y-85608682D01*
X124960614Y-85380515D01*
X124871588Y-85165587D01*
X124742342Y-84972157D01*
X124577843Y-84807658D01*
X124384413Y-84678412D01*
X124169485Y-84589386D01*
X123941318Y-84544000D01*
X123708682Y-84544000D01*
X123480515Y-84589386D01*
X123265587Y-84678412D01*
X123072157Y-84807658D01*
X122907658Y-84972157D01*
X122778412Y-85165587D01*
X122689386Y-85380515D01*
X122644000Y-85608682D01*
X122644000Y-85841318D01*
X122689386Y-86069485D01*
X122778412Y-86284413D01*
X122907658Y-86477843D01*
X123072157Y-86642342D01*
X123194000Y-86723755D01*
X123194001Y-87647245D01*
X123072157Y-87728658D01*
X122907658Y-87893157D01*
X122778412Y-88086587D01*
X122689386Y-88301515D01*
X122644000Y-88529682D01*
X122644000Y-88762318D01*
X122689386Y-88990485D01*
X122778412Y-89205413D01*
X122907658Y-89398843D01*
X123070815Y-89562000D01*
X122039185Y-89562000D01*
X122202342Y-89398843D01*
X122331588Y-89205413D01*
X122420614Y-88990485D01*
X122466000Y-88762318D01*
X122466000Y-88529682D01*
X122420614Y-88301515D01*
X122331588Y-88086587D01*
X122202342Y-87893157D01*
X122037843Y-87728658D01*
X121916000Y-87647245D01*
X121916000Y-86723755D01*
X122037843Y-86642342D01*
X122202342Y-86477843D01*
X122331588Y-86284413D01*
X122420614Y-86069485D01*
X122466000Y-85841318D01*
X122466000Y-85608682D01*
X122420614Y-85380515D01*
X122331588Y-85165587D01*
X122202342Y-84972157D01*
X122037843Y-84807658D01*
X121844413Y-84678412D01*
X121791000Y-84656288D01*
X121791000Y-83336854D01*
X121793448Y-83312000D01*
X121783678Y-83212807D01*
X121754745Y-83117425D01*
X121736981Y-83084191D01*
X121707759Y-83029521D01*
X121644527Y-82952473D01*
X121625220Y-82936628D01*
X115945376Y-77256785D01*
X115929527Y-77237473D01*
X115852479Y-77174241D01*
X115764575Y-77127255D01*
X115669193Y-77098322D01*
X115594854Y-77091000D01*
X115594846Y-77091000D01*
X115570000Y-77088553D01*
X115545154Y-77091000D01*
X96094592Y-77091000D01*
X94001000Y-74997409D01*
X94001000Y-74398315D01*
X94048492Y-74423701D01*
X94120311Y-74445487D01*
X94195000Y-74452843D01*
X94272750Y-74451000D01*
X94368000Y-74355750D01*
X94368000Y-73197000D01*
X94622000Y-73197000D01*
X94622000Y-74355750D01*
X94717250Y-74451000D01*
X94795000Y-74452843D01*
X94869689Y-74445487D01*
X94941508Y-74423701D01*
X94995000Y-74395108D01*
X95048492Y-74423701D01*
X95120311Y-74445487D01*
X95195000Y-74452843D01*
X95272750Y-74451000D01*
X95368000Y-74355750D01*
X95368000Y-73197000D01*
X95622000Y-73197000D01*
X95622000Y-74355750D01*
X95717250Y-74451000D01*
X95795000Y-74452843D01*
X95869689Y-74445487D01*
X95941508Y-74423701D01*
X96007696Y-74388322D01*
X96065711Y-74340711D01*
X96113322Y-74282696D01*
X96148701Y-74216508D01*
X96170487Y-74144689D01*
X96177843Y-74070000D01*
X96176000Y-73292250D01*
X96080750Y-73197000D01*
X95622000Y-73197000D01*
X95368000Y-73197000D01*
X94622000Y-73197000D01*
X94368000Y-73197000D01*
X94348000Y-73197000D01*
X94348000Y-72943000D01*
X94368000Y-72943000D01*
X94368000Y-71784250D01*
X94622000Y-71784250D01*
X94622000Y-72943000D01*
X95368000Y-72943000D01*
X95368000Y-71784250D01*
X95622000Y-71784250D01*
X95622000Y-72943000D01*
X96080750Y-72943000D01*
X96176000Y-72847750D01*
X96177843Y-72070000D01*
X96170487Y-71995311D01*
X96148701Y-71923492D01*
X96113322Y-71857304D01*
X96065711Y-71799289D01*
X96007696Y-71751678D01*
X95941508Y-71716299D01*
X95869689Y-71694513D01*
X95795000Y-71687157D01*
X95717250Y-71689000D01*
X95622000Y-71784250D01*
X95368000Y-71784250D01*
X95272750Y-71689000D01*
X95195000Y-71687157D01*
X95120311Y-71694513D01*
X95048492Y-71716299D01*
X94995000Y-71744892D01*
X94941508Y-71716299D01*
X94869689Y-71694513D01*
X94795000Y-71687157D01*
X94717250Y-71689000D01*
X94622000Y-71784250D01*
X94368000Y-71784250D01*
X94272750Y-71689000D01*
X94195000Y-71687157D01*
X94120311Y-71694513D01*
X94048492Y-71716299D01*
X93995000Y-71744892D01*
X93941508Y-71716299D01*
X93869689Y-71694513D01*
X93795000Y-71687157D01*
X93195000Y-71687157D01*
X93120311Y-71694513D01*
X93048492Y-71716299D01*
X92995000Y-71744892D01*
X92941508Y-71716299D01*
X92869689Y-71694513D01*
X92795000Y-71687157D01*
X92717250Y-71689000D01*
X92622000Y-71784250D01*
X92622000Y-72943000D01*
X92642000Y-72943000D01*
X92642000Y-73197000D01*
X92622000Y-73197000D01*
X92622000Y-74355750D01*
X92717250Y-74451000D01*
X92795000Y-74452843D01*
X92869689Y-74445487D01*
X92941508Y-74423701D01*
X92989000Y-74398315D01*
X92989000Y-75182154D01*
X92986553Y-75207000D01*
X92989000Y-75231846D01*
X92989000Y-75231853D01*
X92996322Y-75306192D01*
X93025255Y-75401574D01*
X93072241Y-75489479D01*
X93135473Y-75566527D01*
X93154785Y-75582376D01*
X95509628Y-77937220D01*
X95525473Y-77956527D01*
X95602521Y-78019759D01*
X95690425Y-78066745D01*
X95751242Y-78085193D01*
X95785806Y-78095678D01*
X95795694Y-78096652D01*
X95860146Y-78103000D01*
X95860153Y-78103000D01*
X95884999Y-78105447D01*
X95909845Y-78103000D01*
X115360409Y-78103000D01*
X120779001Y-83521593D01*
X120779000Y-84656287D01*
X120725587Y-84678412D01*
X120532157Y-84807658D01*
X120367658Y-84972157D01*
X120238412Y-85165587D01*
X120149386Y-85380515D01*
X120104000Y-85608682D01*
X120104000Y-85841318D01*
X120149386Y-86069485D01*
X120238412Y-86284413D01*
X120367658Y-86477843D01*
X120532157Y-86642342D01*
X120654000Y-86723755D01*
X120654001Y-87647245D01*
X120532157Y-87728658D01*
X120367658Y-87893157D01*
X120238412Y-88086587D01*
X120149386Y-88301515D01*
X120104000Y-88529682D01*
X120104000Y-88762318D01*
X120149386Y-88990485D01*
X120238412Y-89205413D01*
X120367658Y-89398843D01*
X120530815Y-89562000D01*
X119499185Y-89562000D01*
X119662342Y-89398843D01*
X119791588Y-89205413D01*
X119880614Y-88990485D01*
X119926000Y-88762318D01*
X119926000Y-88529682D01*
X119880614Y-88301515D01*
X119791588Y-88086587D01*
X119662342Y-87893157D01*
X119497843Y-87728658D01*
X119376000Y-87647245D01*
X119376000Y-86723755D01*
X119497843Y-86642342D01*
X119662342Y-86477843D01*
X119791588Y-86284413D01*
X119880614Y-86069485D01*
X119926000Y-85841318D01*
X119926000Y-85608682D01*
X119880614Y-85380515D01*
X119791588Y-85165587D01*
X119662342Y-84972157D01*
X119497843Y-84807658D01*
X119304413Y-84678412D01*
X119251000Y-84656288D01*
X119251000Y-83717845D01*
X119253447Y-83692999D01*
X119251000Y-83668153D01*
X119251000Y-83668146D01*
X119243678Y-83593807D01*
X119214745Y-83498425D01*
X119167759Y-83410521D01*
X119104527Y-83333473D01*
X119085220Y-83317628D01*
X114548376Y-78780785D01*
X114532527Y-78761473D01*
X114455479Y-78698241D01*
X114367575Y-78651255D01*
X114272193Y-78622322D01*
X114197854Y-78615000D01*
X114197846Y-78615000D01*
X114173000Y-78612553D01*
X114148154Y-78615000D01*
X95967592Y-78615000D01*
X92073000Y-74720409D01*
X92073000Y-74431135D01*
X92120311Y-74445487D01*
X92195000Y-74452843D01*
X92272750Y-74451000D01*
X92368000Y-74355750D01*
X92368000Y-73197000D01*
X92348000Y-73197000D01*
X92348000Y-72943000D01*
X92368000Y-72943000D01*
X92368000Y-71784250D01*
X92272750Y-71689000D01*
X92195000Y-71687157D01*
X92120311Y-71694513D01*
X92048492Y-71716299D01*
X91995000Y-71744892D01*
X91941508Y-71716299D01*
X91869689Y-71694513D01*
X91795000Y-71687157D01*
X91195000Y-71687157D01*
X91120311Y-71694513D01*
X91048492Y-71716299D01*
X90995000Y-71744892D01*
X90941508Y-71716299D01*
X90869689Y-71694513D01*
X90795000Y-71687157D01*
X90195000Y-71687157D01*
X90120311Y-71694513D01*
X90048492Y-71716299D01*
X89995000Y-71744892D01*
X89941508Y-71716299D01*
X89869689Y-71694513D01*
X89795000Y-71687157D01*
X89195000Y-71687157D01*
X89120311Y-71694513D01*
X89048492Y-71716299D01*
X88995000Y-71744892D01*
X88941508Y-71716299D01*
X88869689Y-71694513D01*
X88795000Y-71687157D01*
X88195000Y-71687157D01*
X88120311Y-71694513D01*
X88048492Y-71716299D01*
X87995000Y-71744892D01*
X87941508Y-71716299D01*
X87869689Y-71694513D01*
X87795000Y-71687157D01*
X87195000Y-71687157D01*
X87120311Y-71694513D01*
X87048492Y-71716299D01*
X86995000Y-71744892D01*
X86941508Y-71716299D01*
X86869689Y-71694513D01*
X86795000Y-71687157D01*
X86195000Y-71687157D01*
X86120311Y-71694513D01*
X86048492Y-71716299D01*
X85995000Y-71744892D01*
X85941508Y-71716299D01*
X85869689Y-71694513D01*
X85795000Y-71687157D01*
X85195000Y-71687157D01*
X85120311Y-71694513D01*
X85048492Y-71716299D01*
X84995000Y-71744892D01*
X84941508Y-71716299D01*
X84869689Y-71694513D01*
X84795000Y-71687157D01*
X84195000Y-71687157D01*
X84120311Y-71694513D01*
X84048492Y-71716299D01*
X83995000Y-71744892D01*
X83941508Y-71716299D01*
X83869689Y-71694513D01*
X83795000Y-71687157D01*
X83195000Y-71687157D01*
X83120311Y-71694513D01*
X83048492Y-71716299D01*
X82995000Y-71744892D01*
X82941508Y-71716299D01*
X82869689Y-71694513D01*
X82795000Y-71687157D01*
X82195000Y-71687157D01*
X82120311Y-71694513D01*
X82048492Y-71716299D01*
X81995000Y-71744892D01*
X81941508Y-71716299D01*
X81869689Y-71694513D01*
X81795000Y-71687157D01*
X81195000Y-71687157D01*
X81120311Y-71694513D01*
X81048492Y-71716299D01*
X80995000Y-71744892D01*
X80941508Y-71716299D01*
X80869689Y-71694513D01*
X80795000Y-71687157D01*
X80391000Y-71687157D01*
X80391000Y-69866975D01*
X80398231Y-69812048D01*
X80409789Y-69784145D01*
X80428179Y-69760179D01*
X80452145Y-69741789D01*
X80480048Y-69730231D01*
X80534975Y-69723000D01*
X102596815Y-69723000D01*
X102587658Y-69732157D01*
X102458412Y-69925587D01*
X102369386Y-70140515D01*
X102324000Y-70368682D01*
X102324000Y-70601318D01*
X102369386Y-70829485D01*
X102458412Y-71044413D01*
X102587658Y-71237843D01*
X102752157Y-71402342D01*
X102874000Y-71483755D01*
X102874001Y-72407245D01*
X102752157Y-72488658D01*
X102587658Y-72653157D01*
X102458412Y-72846587D01*
X102369386Y-73061515D01*
X102324000Y-73289682D01*
X102324000Y-73522318D01*
X102369386Y-73750485D01*
X102458412Y-73965413D01*
X102587658Y-74158843D01*
X102752157Y-74323342D01*
X102945587Y-74452588D01*
X103160515Y-74541614D01*
X103388682Y-74587000D01*
X103621318Y-74587000D01*
X103849485Y-74541614D01*
X104064413Y-74452588D01*
X104257843Y-74323342D01*
X104422342Y-74158843D01*
X104551588Y-73965413D01*
X104640614Y-73750485D01*
X104686000Y-73522318D01*
X104686000Y-73289682D01*
X104640614Y-73061515D01*
X104551588Y-72846587D01*
X104422342Y-72653157D01*
X104257843Y-72488658D01*
X104136000Y-72407245D01*
X104136000Y-71483755D01*
X104257843Y-71402342D01*
X104422342Y-71237843D01*
X104551588Y-71044413D01*
X104640614Y-70829485D01*
X104686000Y-70601318D01*
X104686000Y-70368682D01*
X104640614Y-70140515D01*
X104551588Y-69925587D01*
X104422342Y-69732157D01*
X104413185Y-69723000D01*
X105136815Y-69723000D01*
X105127658Y-69732157D01*
X104998412Y-69925587D01*
X104909386Y-70140515D01*
X104864000Y-70368682D01*
X104864000Y-70601318D01*
X104909386Y-70829485D01*
X104998412Y-71044413D01*
X105127658Y-71237843D01*
X105292157Y-71402342D01*
X105414000Y-71483755D01*
X105414001Y-72407245D01*
X105292157Y-72488658D01*
X105127658Y-72653157D01*
X104998412Y-72846587D01*
X104909386Y-73061515D01*
X104864000Y-73289682D01*
X104864000Y-73522318D01*
X104909386Y-73750485D01*
X104998412Y-73965413D01*
X105127658Y-74158843D01*
X105292157Y-74323342D01*
X105485587Y-74452588D01*
X105700515Y-74541614D01*
X105928682Y-74587000D01*
X106161318Y-74587000D01*
X106389485Y-74541614D01*
X106604413Y-74452588D01*
X106797843Y-74323342D01*
X106962342Y-74158843D01*
X107091588Y-73965413D01*
X107180614Y-73750485D01*
X107226000Y-73522318D01*
X107226000Y-73289682D01*
X107180614Y-73061515D01*
X107091588Y-72846587D01*
X106962342Y-72653157D01*
X106797843Y-72488658D01*
X106676000Y-72407245D01*
X106676000Y-71483755D01*
X106797843Y-71402342D01*
X106962342Y-71237843D01*
X107091588Y-71044413D01*
X107180614Y-70829485D01*
X107226000Y-70601318D01*
X107226000Y-70368682D01*
X107180614Y-70140515D01*
X107091588Y-69925587D01*
X106962342Y-69732157D01*
X106953185Y-69723000D01*
X107676815Y-69723000D01*
X107667658Y-69732157D01*
X107538412Y-69925587D01*
X107449386Y-70140515D01*
X107404000Y-70368682D01*
X107404000Y-70601318D01*
X107449386Y-70829485D01*
X107538412Y-71044413D01*
X107667658Y-71237843D01*
X107832157Y-71402342D01*
X107954000Y-71483755D01*
X107954001Y-72407245D01*
X107832157Y-72488658D01*
X107667658Y-72653157D01*
X107538412Y-72846587D01*
X107449386Y-73061515D01*
X107404000Y-73289682D01*
X107404000Y-73522318D01*
X107449386Y-73750485D01*
X107538412Y-73965413D01*
X107667658Y-74158843D01*
X107832157Y-74323342D01*
X108025587Y-74452588D01*
X108240515Y-74541614D01*
X108468682Y-74587000D01*
X108701318Y-74587000D01*
X108929485Y-74541614D01*
X109144413Y-74452588D01*
X109337843Y-74323342D01*
X109502342Y-74158843D01*
X109631588Y-73965413D01*
X109720614Y-73750485D01*
X109766000Y-73522318D01*
X109766000Y-73289682D01*
X109720614Y-73061515D01*
X109631588Y-72846587D01*
X109502342Y-72653157D01*
X109337843Y-72488658D01*
X109216000Y-72407245D01*
X109216000Y-71483755D01*
X109337843Y-71402342D01*
X109502342Y-71237843D01*
X109631588Y-71044413D01*
X109720614Y-70829485D01*
X109766000Y-70601318D01*
X109766000Y-70368682D01*
X109720614Y-70140515D01*
X109631588Y-69925587D01*
X109502342Y-69732157D01*
X109493185Y-69723000D01*
X110216815Y-69723000D01*
X110207658Y-69732157D01*
X110078412Y-69925587D01*
X109989386Y-70140515D01*
X109944000Y-70368682D01*
X109944000Y-70601318D01*
X109989386Y-70829485D01*
X110078412Y-71044413D01*
X110207658Y-71237843D01*
X110372157Y-71402342D01*
X110494000Y-71483755D01*
X110494001Y-72407245D01*
X110372157Y-72488658D01*
X110207658Y-72653157D01*
X110078412Y-72846587D01*
X109989386Y-73061515D01*
X109944000Y-73289682D01*
X109944000Y-73522318D01*
X109989386Y-73750485D01*
X110078412Y-73965413D01*
X110207658Y-74158843D01*
X110372157Y-74323342D01*
X110565587Y-74452588D01*
X110780515Y-74541614D01*
X111008682Y-74587000D01*
X111241318Y-74587000D01*
X111469485Y-74541614D01*
X111684413Y-74452588D01*
X111877843Y-74323342D01*
X112042342Y-74158843D01*
X112171588Y-73965413D01*
X112260614Y-73750485D01*
X112306000Y-73522318D01*
X112306000Y-73289682D01*
X112260614Y-73061515D01*
X112171588Y-72846587D01*
X112042342Y-72653157D01*
X111877843Y-72488658D01*
X111756000Y-72407245D01*
X111756000Y-71483755D01*
X111877843Y-71402342D01*
X112042342Y-71237843D01*
X112171588Y-71044413D01*
X112260614Y-70829485D01*
X112306000Y-70601318D01*
X112306000Y-70368682D01*
X112260614Y-70140515D01*
X112171588Y-69925587D01*
X112042342Y-69732157D01*
X112033185Y-69723000D01*
X112756815Y-69723000D01*
X112747658Y-69732157D01*
X112618412Y-69925587D01*
X112529386Y-70140515D01*
X112484000Y-70368682D01*
X112484000Y-70601318D01*
X112529386Y-70829485D01*
X112618412Y-71044413D01*
X112747658Y-71237843D01*
X112912157Y-71402342D01*
X113034000Y-71483755D01*
X113034001Y-72407245D01*
X112912157Y-72488658D01*
X112747658Y-72653157D01*
X112618412Y-72846587D01*
X112529386Y-73061515D01*
X112484000Y-73289682D01*
X112484000Y-73522318D01*
X112529386Y-73750485D01*
X112618412Y-73965413D01*
X112747658Y-74158843D01*
X112912157Y-74323342D01*
X113105587Y-74452588D01*
X113320515Y-74541614D01*
X113548682Y-74587000D01*
X113781318Y-74587000D01*
X114009485Y-74541614D01*
X114224413Y-74452588D01*
X114417843Y-74323342D01*
X114427688Y-74313497D01*
X114430259Y-74352730D01*
X114447296Y-74482140D01*
X114473039Y-74578212D01*
X114522989Y-74698802D01*
X114572721Y-74784940D01*
X114652181Y-74888493D01*
X114722507Y-74958819D01*
X114826060Y-75038279D01*
X114912198Y-75088011D01*
X115032788Y-75137961D01*
X115128860Y-75163704D01*
X115258270Y-75180741D01*
X115308000Y-75184000D01*
X117102000Y-75184000D01*
X117151730Y-75180741D01*
X117281140Y-75163704D01*
X117377212Y-75137961D01*
X117497802Y-75088011D01*
X117583940Y-75038279D01*
X117687493Y-74958819D01*
X117757819Y-74888493D01*
X117837279Y-74784940D01*
X117887011Y-74698802D01*
X117936961Y-74578212D01*
X117962704Y-74482140D01*
X117979741Y-74352730D01*
X117982312Y-74313497D01*
X117992157Y-74323342D01*
X118185587Y-74452588D01*
X118400515Y-74541614D01*
X118628682Y-74587000D01*
X118861318Y-74587000D01*
X119089485Y-74541614D01*
X119304413Y-74452588D01*
X119497843Y-74323342D01*
X119662342Y-74158843D01*
X119791588Y-73965413D01*
X119880614Y-73750485D01*
X119926000Y-73522318D01*
X119926000Y-73289682D01*
X119880614Y-73061515D01*
X119791588Y-72846587D01*
X119662342Y-72653157D01*
X119497843Y-72488658D01*
X119376000Y-72407245D01*
X119376000Y-71483755D01*
X119497843Y-71402342D01*
X119662342Y-71237843D01*
X119791588Y-71044413D01*
X119880614Y-70829485D01*
X119926000Y-70601318D01*
X119926000Y-70368682D01*
X120104000Y-70368682D01*
X120104000Y-70601318D01*
X120149386Y-70829485D01*
X120238412Y-71044413D01*
X120367658Y-71237843D01*
X120532157Y-71402342D01*
X120654000Y-71483755D01*
X120654001Y-72407245D01*
X120532157Y-72488658D01*
X120367658Y-72653157D01*
X120238412Y-72846587D01*
X120149386Y-73061515D01*
X120104000Y-73289682D01*
X120104000Y-73522318D01*
X120149386Y-73750485D01*
X120238412Y-73965413D01*
X120367658Y-74158843D01*
X120532157Y-74323342D01*
X120725587Y-74452588D01*
X120940515Y-74541614D01*
X121168682Y-74587000D01*
X121401318Y-74587000D01*
X121629485Y-74541614D01*
X121844413Y-74452588D01*
X122037843Y-74323342D01*
X122202342Y-74158843D01*
X122331588Y-73965413D01*
X122420614Y-73750485D01*
X122466000Y-73522318D01*
X122466000Y-73289682D01*
X122420614Y-73061515D01*
X122331588Y-72846587D01*
X122202342Y-72653157D01*
X122037843Y-72488658D01*
X121916000Y-72407245D01*
X121916000Y-71483755D01*
X122037843Y-71402342D01*
X122202342Y-71237843D01*
X122331588Y-71044413D01*
X122420614Y-70829485D01*
X122466000Y-70601318D01*
X122466000Y-70368682D01*
X122644000Y-70368682D01*
X122644000Y-70601318D01*
X122689386Y-70829485D01*
X122778412Y-71044413D01*
X122907658Y-71237843D01*
X123072157Y-71402342D01*
X123194000Y-71483755D01*
X123194001Y-72407245D01*
X123072157Y-72488658D01*
X122907658Y-72653157D01*
X122778412Y-72846587D01*
X122689386Y-73061515D01*
X122644000Y-73289682D01*
X122644000Y-73522318D01*
X122689386Y-73750485D01*
X122778412Y-73965413D01*
X122907658Y-74158843D01*
X123072157Y-74323342D01*
X123265587Y-74452588D01*
X123480515Y-74541614D01*
X123708682Y-74587000D01*
X123941318Y-74587000D01*
X124169485Y-74541614D01*
X124384413Y-74452588D01*
X124577843Y-74323342D01*
X124742342Y-74158843D01*
X124871588Y-73965413D01*
X124960614Y-73750485D01*
X125006000Y-73522318D01*
X125006000Y-73289682D01*
X124960614Y-73061515D01*
X124871588Y-72846587D01*
X124742342Y-72653157D01*
X124577843Y-72488658D01*
X124456000Y-72407245D01*
X124456000Y-71483755D01*
X124577843Y-71402342D01*
X124742342Y-71237843D01*
X124871588Y-71044413D01*
X124960614Y-70829485D01*
X125006000Y-70601318D01*
X125006000Y-70368682D01*
X125184000Y-70368682D01*
X125184000Y-70601318D01*
X125229386Y-70829485D01*
X125318412Y-71044413D01*
X125447658Y-71237843D01*
X125612157Y-71402342D01*
X125734000Y-71483755D01*
X125734001Y-72407245D01*
X125612157Y-72488658D01*
X125447658Y-72653157D01*
X125318412Y-72846587D01*
X125229386Y-73061515D01*
X125184000Y-73289682D01*
X125184000Y-73522318D01*
X125229386Y-73750485D01*
X125318412Y-73965413D01*
X125447658Y-74158843D01*
X125612157Y-74323342D01*
X125805587Y-74452588D01*
X126020515Y-74541614D01*
X126248682Y-74587000D01*
X126481318Y-74587000D01*
X126709485Y-74541614D01*
X126924413Y-74452588D01*
X127117843Y-74323342D01*
X127282342Y-74158843D01*
X127411588Y-73965413D01*
X127500614Y-73750485D01*
X127546000Y-73522318D01*
X127546000Y-73289682D01*
X127500614Y-73061515D01*
X127411588Y-72846587D01*
X127282342Y-72653157D01*
X127117843Y-72488658D01*
X126996000Y-72407245D01*
X126996000Y-71483755D01*
X127117843Y-71402342D01*
X127282342Y-71237843D01*
X127411588Y-71044413D01*
X127500614Y-70829485D01*
X127546000Y-70601318D01*
X127546000Y-70368682D01*
X127724000Y-70368682D01*
X127724000Y-70601318D01*
X127769386Y-70829485D01*
X127858412Y-71044413D01*
X127987658Y-71237843D01*
X128152157Y-71402342D01*
X128274000Y-71483755D01*
X128274001Y-72407245D01*
X128152157Y-72488658D01*
X127987658Y-72653157D01*
X127858412Y-72846587D01*
X127769386Y-73061515D01*
X127724000Y-73289682D01*
X127724000Y-73522318D01*
X127769386Y-73750485D01*
X127858412Y-73965413D01*
X127987658Y-74158843D01*
X128152157Y-74323342D01*
X128345587Y-74452588D01*
X128560515Y-74541614D01*
X128788682Y-74587000D01*
X129021318Y-74587000D01*
X129249485Y-74541614D01*
X129464413Y-74452588D01*
X129657843Y-74323342D01*
X129822342Y-74158843D01*
X129951588Y-73965413D01*
X130040614Y-73750485D01*
X130086000Y-73522318D01*
X130086000Y-73289682D01*
X130040614Y-73061515D01*
X129951588Y-72846587D01*
X129822342Y-72653157D01*
X129775185Y-72606000D01*
X130262157Y-72606000D01*
X130262157Y-74206000D01*
X130269513Y-74280689D01*
X130291299Y-74352508D01*
X130326678Y-74418696D01*
X130374289Y-74476711D01*
X130432304Y-74524322D01*
X130498492Y-74559701D01*
X130570311Y-74581487D01*
X130645000Y-74588843D01*
X132245000Y-74588843D01*
X132319689Y-74581487D01*
X132391508Y-74559701D01*
X132457696Y-74524322D01*
X132515711Y-74476711D01*
X132563322Y-74418696D01*
X132598701Y-74352508D01*
X132620487Y-74280689D01*
X132627843Y-74206000D01*
X132627843Y-72606000D01*
X132620487Y-72531311D01*
X132598701Y-72459492D01*
X132563322Y-72393304D01*
X132515711Y-72335289D01*
X132457696Y-72287678D01*
X132391508Y-72252299D01*
X132319689Y-72230513D01*
X132245000Y-72223157D01*
X132076000Y-72223157D01*
X132076000Y-71483755D01*
X132197843Y-71402342D01*
X132362342Y-71237843D01*
X132491588Y-71044413D01*
X132580614Y-70829485D01*
X132626000Y-70601318D01*
X132626000Y-70368682D01*
X132804000Y-70368682D01*
X132804000Y-70601318D01*
X132849386Y-70829485D01*
X132938412Y-71044413D01*
X133067658Y-71237843D01*
X133232157Y-71402342D01*
X133354000Y-71483755D01*
X133354001Y-72407245D01*
X133232157Y-72488658D01*
X133067658Y-72653157D01*
X132938412Y-72846587D01*
X132849386Y-73061515D01*
X132804000Y-73289682D01*
X132804000Y-73522318D01*
X132849386Y-73750485D01*
X132938412Y-73965413D01*
X133067658Y-74158843D01*
X133232157Y-74323342D01*
X133425587Y-74452588D01*
X133640515Y-74541614D01*
X133868682Y-74587000D01*
X134101318Y-74587000D01*
X134329485Y-74541614D01*
X134544413Y-74452588D01*
X134737843Y-74323342D01*
X134902342Y-74158843D01*
X135031588Y-73965413D01*
X135120614Y-73750485D01*
X135166000Y-73522318D01*
X135166000Y-73289682D01*
X135120614Y-73061515D01*
X135031588Y-72846587D01*
X134902342Y-72653157D01*
X134737843Y-72488658D01*
X134616000Y-72407245D01*
X134616000Y-71483755D01*
X134737843Y-71402342D01*
X134902342Y-71237843D01*
X135031588Y-71044413D01*
X135120614Y-70829485D01*
X135166000Y-70601318D01*
X135166000Y-70368682D01*
X135344000Y-70368682D01*
X135344000Y-70601318D01*
X135389386Y-70829485D01*
X135478412Y-71044413D01*
X135607658Y-71237843D01*
X135772157Y-71402342D01*
X135894000Y-71483755D01*
X135894001Y-72407245D01*
X135772157Y-72488658D01*
X135607658Y-72653157D01*
X135478412Y-72846587D01*
X135389386Y-73061515D01*
X135344000Y-73289682D01*
X135344000Y-73522318D01*
X135389386Y-73750485D01*
X135478412Y-73965413D01*
X135607658Y-74158843D01*
X135772157Y-74323342D01*
X135965587Y-74452588D01*
X136180515Y-74541614D01*
X136408682Y-74587000D01*
X136641318Y-74587000D01*
X136869485Y-74541614D01*
X137084413Y-74452588D01*
X137277843Y-74323342D01*
X137442342Y-74158843D01*
X137571588Y-73965413D01*
X137660614Y-73750485D01*
X137706000Y-73522318D01*
X137706000Y-73289682D01*
X137660614Y-73061515D01*
X137571588Y-72846587D01*
X137442342Y-72653157D01*
X137277843Y-72488658D01*
X137156000Y-72407245D01*
X137156000Y-71483755D01*
X137277843Y-71402342D01*
X137442342Y-71237843D01*
X137571588Y-71044413D01*
X137660614Y-70829485D01*
X137706000Y-70601318D01*
X137706000Y-70368682D01*
X137884000Y-70368682D01*
X137884000Y-70601318D01*
X137929386Y-70829485D01*
X138018412Y-71044413D01*
X138147658Y-71237843D01*
X138312157Y-71402342D01*
X138434000Y-71483755D01*
X138434001Y-72407245D01*
X138312157Y-72488658D01*
X138147658Y-72653157D01*
X138018412Y-72846587D01*
X137929386Y-73061515D01*
X137884000Y-73289682D01*
X137884000Y-73522318D01*
X137929386Y-73750485D01*
X138018412Y-73965413D01*
X138147658Y-74158843D01*
X138312157Y-74323342D01*
X138505587Y-74452588D01*
X138720515Y-74541614D01*
X138948682Y-74587000D01*
X139181318Y-74587000D01*
X139409485Y-74541614D01*
X139624413Y-74452588D01*
X139817843Y-74323342D01*
X139982342Y-74158843D01*
X140111588Y-73965413D01*
X140200614Y-73750485D01*
X140246000Y-73522318D01*
X140246000Y-73289682D01*
X140200614Y-73061515D01*
X140111588Y-72846587D01*
X139982342Y-72653157D01*
X139817843Y-72488658D01*
X139696000Y-72407245D01*
X139696000Y-71483755D01*
X139817843Y-71402342D01*
X139982342Y-71237843D01*
X140111588Y-71044413D01*
X140200614Y-70829485D01*
X140246000Y-70601318D01*
X140246000Y-70368682D01*
X140424000Y-70368682D01*
X140424000Y-70601318D01*
X140469386Y-70829485D01*
X140558412Y-71044413D01*
X140687658Y-71237843D01*
X140852157Y-71402342D01*
X140974000Y-71483755D01*
X140974001Y-72407245D01*
X140852157Y-72488658D01*
X140687658Y-72653157D01*
X140558412Y-72846587D01*
X140469386Y-73061515D01*
X140424000Y-73289682D01*
X140424000Y-73522318D01*
X140469386Y-73750485D01*
X140558412Y-73965413D01*
X140687658Y-74158843D01*
X140852157Y-74323342D01*
X141045587Y-74452588D01*
X141260515Y-74541614D01*
X141488682Y-74587000D01*
X141721318Y-74587000D01*
X141949485Y-74541614D01*
X142164413Y-74452588D01*
X142357843Y-74323342D01*
X142522342Y-74158843D01*
X142651588Y-73965413D01*
X142740614Y-73750485D01*
X142786000Y-73522318D01*
X142786000Y-73289682D01*
X142740614Y-73061515D01*
X142651588Y-72846587D01*
X142522342Y-72653157D01*
X142357843Y-72488658D01*
X142236000Y-72407245D01*
X142236000Y-71483755D01*
X142357843Y-71402342D01*
X142522342Y-71237843D01*
X142651588Y-71044413D01*
X142740614Y-70829485D01*
X142786000Y-70601318D01*
X142786000Y-70368682D01*
X142964000Y-70368682D01*
X142964000Y-70601318D01*
X143009386Y-70829485D01*
X143098412Y-71044413D01*
X143227658Y-71237843D01*
X143392157Y-71402342D01*
X143514000Y-71483755D01*
X143514001Y-72407245D01*
X143392157Y-72488658D01*
X143227658Y-72653157D01*
X143098412Y-72846587D01*
X143009386Y-73061515D01*
X142964000Y-73289682D01*
X142964000Y-73522318D01*
X143009386Y-73750485D01*
X143098412Y-73965413D01*
X143227658Y-74158843D01*
X143392157Y-74323342D01*
X143585587Y-74452588D01*
X143800515Y-74541614D01*
X144028682Y-74587000D01*
X144261318Y-74587000D01*
X144489485Y-74541614D01*
X144704413Y-74452588D01*
X144897843Y-74323342D01*
X145062342Y-74158843D01*
X145191588Y-73965413D01*
X145280614Y-73750485D01*
X145326000Y-73522318D01*
X145326000Y-73289682D01*
X145280614Y-73061515D01*
X145191588Y-72846587D01*
X145062342Y-72653157D01*
X144897843Y-72488658D01*
X144776000Y-72407245D01*
X144776000Y-71483755D01*
X144897843Y-71402342D01*
X145062342Y-71237843D01*
X145191588Y-71044413D01*
X145280614Y-70829485D01*
X145326000Y-70601318D01*
X145326000Y-70368682D01*
X145504000Y-70368682D01*
X145504000Y-70601318D01*
X145549386Y-70829485D01*
X145638412Y-71044413D01*
X145767658Y-71237843D01*
X145932157Y-71402342D01*
X146054000Y-71483755D01*
X146054001Y-72407245D01*
X145932157Y-72488658D01*
X145767658Y-72653157D01*
X145638412Y-72846587D01*
X145549386Y-73061515D01*
X145504000Y-73289682D01*
X145504000Y-73522318D01*
X145549386Y-73750485D01*
X145638412Y-73965413D01*
X145767658Y-74158843D01*
X145932157Y-74323342D01*
X146125587Y-74452588D01*
X146340515Y-74541614D01*
X146568682Y-74587000D01*
X146801318Y-74587000D01*
X147029485Y-74541614D01*
X147244413Y-74452588D01*
X147437843Y-74323342D01*
X147602342Y-74158843D01*
X147731588Y-73965413D01*
X147820614Y-73750485D01*
X147866000Y-73522318D01*
X147866000Y-73289682D01*
X147820614Y-73061515D01*
X147731588Y-72846587D01*
X147602342Y-72653157D01*
X147437843Y-72488658D01*
X147316000Y-72407245D01*
X147316000Y-71483755D01*
X147437843Y-71402342D01*
X147602342Y-71237843D01*
X147731588Y-71044413D01*
X147820614Y-70829485D01*
X147866000Y-70601318D01*
X147866000Y-70368682D01*
X148044000Y-70368682D01*
X148044000Y-70601318D01*
X148089386Y-70829485D01*
X148178412Y-71044413D01*
X148307658Y-71237843D01*
X148472157Y-71402342D01*
X148594000Y-71483755D01*
X148594001Y-72407245D01*
X148472157Y-72488658D01*
X148307658Y-72653157D01*
X148178412Y-72846587D01*
X148089386Y-73061515D01*
X148044000Y-73289682D01*
X148044000Y-73522318D01*
X148089386Y-73750485D01*
X148178412Y-73965413D01*
X148307658Y-74158843D01*
X148472157Y-74323342D01*
X148665587Y-74452588D01*
X148880515Y-74541614D01*
X149108682Y-74587000D01*
X149341318Y-74587000D01*
X149569485Y-74541614D01*
X149784413Y-74452588D01*
X149977843Y-74323342D01*
X150142342Y-74158843D01*
X150271588Y-73965413D01*
X150360614Y-73750485D01*
X150406000Y-73522318D01*
X150406000Y-73289682D01*
X150360614Y-73061515D01*
X150271588Y-72846587D01*
X150142342Y-72653157D01*
X149977843Y-72488658D01*
X149856000Y-72407245D01*
X149856000Y-71483755D01*
X149977843Y-71402342D01*
X150142342Y-71237843D01*
X150271588Y-71044413D01*
X150360614Y-70829485D01*
X150406000Y-70601318D01*
X150406000Y-70368682D01*
X150584000Y-70368682D01*
X150584000Y-70601318D01*
X150629386Y-70829485D01*
X150718412Y-71044413D01*
X150847658Y-71237843D01*
X151012157Y-71402342D01*
X151134000Y-71483755D01*
X151134001Y-72407245D01*
X151012157Y-72488658D01*
X150847658Y-72653157D01*
X150718412Y-72846587D01*
X150629386Y-73061515D01*
X150584000Y-73289682D01*
X150584000Y-73522318D01*
X150629386Y-73750485D01*
X150718412Y-73965413D01*
X150847658Y-74158843D01*
X151012157Y-74323342D01*
X151205587Y-74452588D01*
X151420515Y-74541614D01*
X151648682Y-74587000D01*
X151881318Y-74587000D01*
X152109485Y-74541614D01*
X152324413Y-74452588D01*
X152517843Y-74323342D01*
X152682342Y-74158843D01*
X152811588Y-73965413D01*
X152900614Y-73750485D01*
X152946000Y-73522318D01*
X152946000Y-73289682D01*
X152900614Y-73061515D01*
X152811588Y-72846587D01*
X152682342Y-72653157D01*
X152517843Y-72488658D01*
X152396000Y-72407245D01*
X152396000Y-71483755D01*
X152517843Y-71402342D01*
X152682342Y-71237843D01*
X152811588Y-71044413D01*
X152900614Y-70829485D01*
X152946000Y-70601318D01*
X152946000Y-70368682D01*
X153124000Y-70368682D01*
X153124000Y-70601318D01*
X153169386Y-70829485D01*
X153258412Y-71044413D01*
X153387658Y-71237843D01*
X153552157Y-71402342D01*
X153674000Y-71483755D01*
X153674001Y-72407245D01*
X153552157Y-72488658D01*
X153387658Y-72653157D01*
X153258412Y-72846587D01*
X153169386Y-73061515D01*
X153124000Y-73289682D01*
X153124000Y-73522318D01*
X153169386Y-73750485D01*
X153258412Y-73965413D01*
X153387658Y-74158843D01*
X153552157Y-74323342D01*
X153745587Y-74452588D01*
X153960515Y-74541614D01*
X154188682Y-74587000D01*
X154421318Y-74587000D01*
X154649485Y-74541614D01*
X154864413Y-74452588D01*
X155057843Y-74323342D01*
X155222342Y-74158843D01*
X155351588Y-73965413D01*
X155440614Y-73750485D01*
X155486000Y-73522318D01*
X155486000Y-73289682D01*
X155440614Y-73061515D01*
X155351588Y-72846587D01*
X155222342Y-72653157D01*
X155057843Y-72488658D01*
X154936000Y-72407245D01*
X154936000Y-71483755D01*
X155057843Y-71402342D01*
X155222342Y-71237843D01*
X155351588Y-71044413D01*
X155440614Y-70829485D01*
X155486000Y-70601318D01*
X155486000Y-70368682D01*
X155664000Y-70368682D01*
X155664000Y-70601318D01*
X155709386Y-70829485D01*
X155798412Y-71044413D01*
X155927658Y-71237843D01*
X156092157Y-71402342D01*
X156214000Y-71483755D01*
X156214001Y-72407245D01*
X156092157Y-72488658D01*
X155927658Y-72653157D01*
X155798412Y-72846587D01*
X155709386Y-73061515D01*
X155664000Y-73289682D01*
X155664000Y-73522318D01*
X155709386Y-73750485D01*
X155798412Y-73965413D01*
X155927658Y-74158843D01*
X156092157Y-74323342D01*
X156285587Y-74452588D01*
X156500515Y-74541614D01*
X156728682Y-74587000D01*
X156961318Y-74587000D01*
X157189485Y-74541614D01*
X157404413Y-74452588D01*
X157597843Y-74323342D01*
X157762342Y-74158843D01*
X157891588Y-73965413D01*
X157980614Y-73750485D01*
X158026000Y-73522318D01*
X158026000Y-73289682D01*
X157980614Y-73061515D01*
X157891588Y-72846587D01*
X157762342Y-72653157D01*
X157597843Y-72488658D01*
X157476000Y-72407245D01*
X157476000Y-71483755D01*
X157597843Y-71402342D01*
X157762342Y-71237843D01*
X157891588Y-71044413D01*
X157980614Y-70829485D01*
X158026000Y-70601318D01*
X158026000Y-70368682D01*
X158204000Y-70368682D01*
X158204000Y-70601318D01*
X158249386Y-70829485D01*
X158338412Y-71044413D01*
X158467658Y-71237843D01*
X158632157Y-71402342D01*
X158754000Y-71483755D01*
X158754001Y-72407245D01*
X158632157Y-72488658D01*
X158467658Y-72653157D01*
X158338412Y-72846587D01*
X158249386Y-73061515D01*
X158204000Y-73289682D01*
X158204000Y-73522318D01*
X158249386Y-73750485D01*
X158338412Y-73965413D01*
X158467658Y-74158843D01*
X158632157Y-74323342D01*
X158825587Y-74452588D01*
X159040515Y-74541614D01*
X159268682Y-74587000D01*
X159501318Y-74587000D01*
X159729485Y-74541614D01*
X159944413Y-74452588D01*
X160137843Y-74323342D01*
X160302342Y-74158843D01*
X160431588Y-73965413D01*
X160520614Y-73750485D01*
X160566000Y-73522318D01*
X160566000Y-73289682D01*
X160520614Y-73061515D01*
X160431588Y-72846587D01*
X160302342Y-72653157D01*
X160137843Y-72488658D01*
X160016000Y-72407245D01*
X160016000Y-71483755D01*
X160137843Y-71402342D01*
X160302342Y-71237843D01*
X160431588Y-71044413D01*
X160520614Y-70829485D01*
X160566000Y-70601318D01*
X160566000Y-70368682D01*
X160520614Y-70140515D01*
X160431588Y-69925587D01*
X160302342Y-69732157D01*
X160255185Y-69685000D01*
X160742157Y-69685000D01*
X160742157Y-71285000D01*
X160749513Y-71359689D01*
X160771299Y-71431508D01*
X160806678Y-71497696D01*
X160854289Y-71555711D01*
X160912304Y-71603322D01*
X160978492Y-71638701D01*
X161050311Y-71660487D01*
X161125000Y-71667843D01*
X161294000Y-71667843D01*
X161294001Y-72223157D01*
X161125000Y-72223157D01*
X161050311Y-72230513D01*
X160978492Y-72252299D01*
X160912304Y-72287678D01*
X160854289Y-72335289D01*
X160806678Y-72393304D01*
X160771299Y-72459492D01*
X160749513Y-72531311D01*
X160742157Y-72606000D01*
X160742157Y-74206000D01*
X160749513Y-74280689D01*
X160771299Y-74352508D01*
X160806678Y-74418696D01*
X160854289Y-74476711D01*
X160912304Y-74524322D01*
X160978492Y-74559701D01*
X161050311Y-74581487D01*
X161125000Y-74588843D01*
X162725000Y-74588843D01*
X162799689Y-74581487D01*
X162871508Y-74559701D01*
X162937696Y-74524322D01*
X162995711Y-74476711D01*
X163043322Y-74418696D01*
X163078701Y-74352508D01*
X163100487Y-74280689D01*
X163107843Y-74206000D01*
X163107843Y-72606000D01*
X163100487Y-72531311D01*
X163078701Y-72459492D01*
X163043322Y-72393304D01*
X162995711Y-72335289D01*
X162937696Y-72287678D01*
X162871508Y-72252299D01*
X162799689Y-72230513D01*
X162725000Y-72223157D01*
X162556000Y-72223157D01*
X162556000Y-71667843D01*
X162725000Y-71667843D01*
X162799689Y-71660487D01*
X162871508Y-71638701D01*
X162937696Y-71603322D01*
X162995711Y-71555711D01*
X163043322Y-71497696D01*
X163078701Y-71431508D01*
X163100487Y-71359689D01*
X163107843Y-71285000D01*
X163107843Y-69685000D01*
X163100487Y-69610311D01*
X163078701Y-69538492D01*
X163043322Y-69472304D01*
X162995711Y-69414289D01*
X162937696Y-69366678D01*
X162871508Y-69331299D01*
X162799689Y-69309513D01*
X162725000Y-69302157D01*
X161125000Y-69302157D01*
X161050311Y-69309513D01*
X160978492Y-69331299D01*
X160912304Y-69366678D01*
X160854289Y-69414289D01*
X160806678Y-69472304D01*
X160771299Y-69538492D01*
X160749513Y-69610311D01*
X160742157Y-69685000D01*
X160255185Y-69685000D01*
X160137843Y-69567658D01*
X159944413Y-69438412D01*
X159729485Y-69349386D01*
X159501318Y-69304000D01*
X159268682Y-69304000D01*
X159040515Y-69349386D01*
X158825587Y-69438412D01*
X158632157Y-69567658D01*
X158467658Y-69732157D01*
X158338412Y-69925587D01*
X158249386Y-70140515D01*
X158204000Y-70368682D01*
X158026000Y-70368682D01*
X157980614Y-70140515D01*
X157891588Y-69925587D01*
X157762342Y-69732157D01*
X157597843Y-69567658D01*
X157404413Y-69438412D01*
X157189485Y-69349386D01*
X156961318Y-69304000D01*
X156728682Y-69304000D01*
X156500515Y-69349386D01*
X156285587Y-69438412D01*
X156092157Y-69567658D01*
X155927658Y-69732157D01*
X155798412Y-69925587D01*
X155709386Y-70140515D01*
X155664000Y-70368682D01*
X155486000Y-70368682D01*
X155440614Y-70140515D01*
X155351588Y-69925587D01*
X155222342Y-69732157D01*
X155057843Y-69567658D01*
X154864413Y-69438412D01*
X154649485Y-69349386D01*
X154421318Y-69304000D01*
X154188682Y-69304000D01*
X153960515Y-69349386D01*
X153745587Y-69438412D01*
X153552157Y-69567658D01*
X153387658Y-69732157D01*
X153258412Y-69925587D01*
X153169386Y-70140515D01*
X153124000Y-70368682D01*
X152946000Y-70368682D01*
X152900614Y-70140515D01*
X152811588Y-69925587D01*
X152682342Y-69732157D01*
X152517843Y-69567658D01*
X152324413Y-69438412D01*
X152109485Y-69349386D01*
X151881318Y-69304000D01*
X151648682Y-69304000D01*
X151420515Y-69349386D01*
X151205587Y-69438412D01*
X151012157Y-69567658D01*
X150847658Y-69732157D01*
X150718412Y-69925587D01*
X150629386Y-70140515D01*
X150584000Y-70368682D01*
X150406000Y-70368682D01*
X150360614Y-70140515D01*
X150271588Y-69925587D01*
X150142342Y-69732157D01*
X149977843Y-69567658D01*
X149784413Y-69438412D01*
X149569485Y-69349386D01*
X149341318Y-69304000D01*
X149108682Y-69304000D01*
X148880515Y-69349386D01*
X148665587Y-69438412D01*
X148472157Y-69567658D01*
X148307658Y-69732157D01*
X148178412Y-69925587D01*
X148089386Y-70140515D01*
X148044000Y-70368682D01*
X147866000Y-70368682D01*
X147820614Y-70140515D01*
X147731588Y-69925587D01*
X147602342Y-69732157D01*
X147437843Y-69567658D01*
X147244413Y-69438412D01*
X147029485Y-69349386D01*
X146801318Y-69304000D01*
X146568682Y-69304000D01*
X146340515Y-69349386D01*
X146125587Y-69438412D01*
X145932157Y-69567658D01*
X145767658Y-69732157D01*
X145638412Y-69925587D01*
X145549386Y-70140515D01*
X145504000Y-70368682D01*
X145326000Y-70368682D01*
X145280614Y-70140515D01*
X145191588Y-69925587D01*
X145062342Y-69732157D01*
X144897843Y-69567658D01*
X144704413Y-69438412D01*
X144489485Y-69349386D01*
X144261318Y-69304000D01*
X144028682Y-69304000D01*
X143800515Y-69349386D01*
X143585587Y-69438412D01*
X143392157Y-69567658D01*
X143227658Y-69732157D01*
X143098412Y-69925587D01*
X143009386Y-70140515D01*
X142964000Y-70368682D01*
X142786000Y-70368682D01*
X142740614Y-70140515D01*
X142651588Y-69925587D01*
X142522342Y-69732157D01*
X142357843Y-69567658D01*
X142164413Y-69438412D01*
X141949485Y-69349386D01*
X141721318Y-69304000D01*
X141488682Y-69304000D01*
X141260515Y-69349386D01*
X141045587Y-69438412D01*
X140852157Y-69567658D01*
X140687658Y-69732157D01*
X140558412Y-69925587D01*
X140469386Y-70140515D01*
X140424000Y-70368682D01*
X140246000Y-70368682D01*
X140200614Y-70140515D01*
X140111588Y-69925587D01*
X139982342Y-69732157D01*
X139817843Y-69567658D01*
X139624413Y-69438412D01*
X139409485Y-69349386D01*
X139181318Y-69304000D01*
X138948682Y-69304000D01*
X138720515Y-69349386D01*
X138505587Y-69438412D01*
X138312157Y-69567658D01*
X138147658Y-69732157D01*
X138018412Y-69925587D01*
X137929386Y-70140515D01*
X137884000Y-70368682D01*
X137706000Y-70368682D01*
X137660614Y-70140515D01*
X137571588Y-69925587D01*
X137442342Y-69732157D01*
X137277843Y-69567658D01*
X137084413Y-69438412D01*
X136869485Y-69349386D01*
X136641318Y-69304000D01*
X136408682Y-69304000D01*
X136180515Y-69349386D01*
X135965587Y-69438412D01*
X135772157Y-69567658D01*
X135607658Y-69732157D01*
X135478412Y-69925587D01*
X135389386Y-70140515D01*
X135344000Y-70368682D01*
X135166000Y-70368682D01*
X135120614Y-70140515D01*
X135031588Y-69925587D01*
X134902342Y-69732157D01*
X134737843Y-69567658D01*
X134544413Y-69438412D01*
X134329485Y-69349386D01*
X134101318Y-69304000D01*
X133868682Y-69304000D01*
X133640515Y-69349386D01*
X133425587Y-69438412D01*
X133232157Y-69567658D01*
X133067658Y-69732157D01*
X132938412Y-69925587D01*
X132849386Y-70140515D01*
X132804000Y-70368682D01*
X132626000Y-70368682D01*
X132580614Y-70140515D01*
X132491588Y-69925587D01*
X132362342Y-69732157D01*
X132197843Y-69567658D01*
X132004413Y-69438412D01*
X131789485Y-69349386D01*
X131561318Y-69304000D01*
X131328682Y-69304000D01*
X131100515Y-69349386D01*
X130885587Y-69438412D01*
X130692157Y-69567658D01*
X130527658Y-69732157D01*
X130398412Y-69925587D01*
X130309386Y-70140515D01*
X130264000Y-70368682D01*
X130264000Y-70601318D01*
X130309386Y-70829485D01*
X130398412Y-71044413D01*
X130527658Y-71237843D01*
X130692157Y-71402342D01*
X130814000Y-71483755D01*
X130814001Y-72223157D01*
X130645000Y-72223157D01*
X130570311Y-72230513D01*
X130498492Y-72252299D01*
X130432304Y-72287678D01*
X130374289Y-72335289D01*
X130326678Y-72393304D01*
X130291299Y-72459492D01*
X130269513Y-72531311D01*
X130262157Y-72606000D01*
X129775185Y-72606000D01*
X129657843Y-72488658D01*
X129536000Y-72407245D01*
X129536000Y-71483755D01*
X129657843Y-71402342D01*
X129822342Y-71237843D01*
X129951588Y-71044413D01*
X130040614Y-70829485D01*
X130086000Y-70601318D01*
X130086000Y-70368682D01*
X130040614Y-70140515D01*
X129951588Y-69925587D01*
X129822342Y-69732157D01*
X129657843Y-69567658D01*
X129464413Y-69438412D01*
X129249485Y-69349386D01*
X129021318Y-69304000D01*
X128788682Y-69304000D01*
X128560515Y-69349386D01*
X128345587Y-69438412D01*
X128152157Y-69567658D01*
X127987658Y-69732157D01*
X127858412Y-69925587D01*
X127769386Y-70140515D01*
X127724000Y-70368682D01*
X127546000Y-70368682D01*
X127500614Y-70140515D01*
X127411588Y-69925587D01*
X127282342Y-69732157D01*
X127117843Y-69567658D01*
X126924413Y-69438412D01*
X126709485Y-69349386D01*
X126481318Y-69304000D01*
X126248682Y-69304000D01*
X126020515Y-69349386D01*
X125805587Y-69438412D01*
X125612157Y-69567658D01*
X125447658Y-69732157D01*
X125318412Y-69925587D01*
X125229386Y-70140515D01*
X125184000Y-70368682D01*
X125006000Y-70368682D01*
X124960614Y-70140515D01*
X124871588Y-69925587D01*
X124742342Y-69732157D01*
X124577843Y-69567658D01*
X124384413Y-69438412D01*
X124169485Y-69349386D01*
X123941318Y-69304000D01*
X123708682Y-69304000D01*
X123480515Y-69349386D01*
X123265587Y-69438412D01*
X123072157Y-69567658D01*
X122907658Y-69732157D01*
X122778412Y-69925587D01*
X122689386Y-70140515D01*
X122644000Y-70368682D01*
X122466000Y-70368682D01*
X122420614Y-70140515D01*
X122331588Y-69925587D01*
X122202342Y-69732157D01*
X122037843Y-69567658D01*
X121844413Y-69438412D01*
X121629485Y-69349386D01*
X121401318Y-69304000D01*
X121168682Y-69304000D01*
X120940515Y-69349386D01*
X120725587Y-69438412D01*
X120532157Y-69567658D01*
X120367658Y-69732157D01*
X120238412Y-69925587D01*
X120149386Y-70140515D01*
X120104000Y-70368682D01*
X119926000Y-70368682D01*
X119880614Y-70140515D01*
X119791588Y-69925587D01*
X119662342Y-69732157D01*
X119497843Y-69567658D01*
X119304413Y-69438412D01*
X119089485Y-69349386D01*
X118861318Y-69304000D01*
X118628682Y-69304000D01*
X118400515Y-69349386D01*
X118185587Y-69438412D01*
X117992157Y-69567658D01*
X117983000Y-69576815D01*
X117983000Y-68572000D01*
X117979741Y-68522270D01*
X117967067Y-68426000D01*
X162536480Y-68426000D01*
X162688135Y-68440870D01*
G37*
G04 #@! TD.AperFunction*
D17*
X77727259Y-68522270D02*
X77724000Y-68572000D01*
X77724000Y-74303000D01*
X77727259Y-74352730D01*
X77744296Y-74482140D01*
X77770039Y-74578212D01*
X77819989Y-74698802D01*
X77869721Y-74784940D01*
X77949181Y-74888493D01*
X78019507Y-74958819D01*
X78123060Y-75038279D01*
X78209198Y-75088011D01*
X78329788Y-75137961D01*
X78425860Y-75163704D01*
X78555270Y-75180741D01*
X78605000Y-75184000D01*
X79510000Y-75184000D01*
X79559730Y-75180741D01*
X79689140Y-75163704D01*
X79785212Y-75137961D01*
X79905802Y-75088011D01*
X79989000Y-75039976D01*
X79989001Y-82736504D01*
X79911364Y-82814141D01*
X79825893Y-82942058D01*
X79767019Y-83084191D01*
X79737006Y-83235078D01*
X79737006Y-83388922D01*
X79767019Y-83539809D01*
X79825893Y-83681942D01*
X79911364Y-83809859D01*
X80020147Y-83918642D01*
X80148064Y-84004113D01*
X80290197Y-84062987D01*
X80441084Y-84093000D01*
X80594928Y-84093000D01*
X80745815Y-84062987D01*
X80887948Y-84004113D01*
X81015865Y-83918642D01*
X81124648Y-83809859D01*
X81210119Y-83681942D01*
X81268993Y-83539809D01*
X81299006Y-83388922D01*
X81299006Y-83235078D01*
X81268993Y-83084191D01*
X81210119Y-82942058D01*
X81124648Y-82814141D01*
X81015865Y-82705358D01*
X81001000Y-82695426D01*
X81001000Y-82359501D01*
X81036141Y-82394642D01*
X81164058Y-82480113D01*
X81306191Y-82538987D01*
X81457078Y-82569000D01*
X81610922Y-82569000D01*
X81761809Y-82538987D01*
X81903942Y-82480113D01*
X82031859Y-82394642D01*
X82140642Y-82285859D01*
X82226113Y-82157942D01*
X82284987Y-82015809D01*
X82315000Y-81864922D01*
X82315000Y-81711078D01*
X82284987Y-81560191D01*
X82226113Y-81418058D01*
X82165547Y-81327415D01*
X82180062Y-81337113D01*
X82322195Y-81395987D01*
X82473082Y-81426000D01*
X82626926Y-81426000D01*
X82777813Y-81395987D01*
X82919946Y-81337113D01*
X83047863Y-81251642D01*
X83156646Y-81142859D01*
X83242117Y-81014942D01*
X83300991Y-80872809D01*
X83331004Y-80721922D01*
X83331004Y-80568078D01*
X83300991Y-80417191D01*
X83242117Y-80275058D01*
X83156646Y-80147141D01*
X83047863Y-80038358D01*
X83001000Y-80007045D01*
X83001000Y-79660501D01*
X83068141Y-79727642D01*
X83196058Y-79813113D01*
X83338191Y-79871987D01*
X83489078Y-79902000D01*
X83642922Y-79902000D01*
X83793809Y-79871987D01*
X83935942Y-79813113D01*
X84063859Y-79727642D01*
X84172642Y-79618859D01*
X84258113Y-79490942D01*
X84316987Y-79348809D01*
X84347000Y-79197922D01*
X84347000Y-79044078D01*
X84316987Y-78893191D01*
X84258113Y-78751058D01*
X84172642Y-78623141D01*
X84063859Y-78514358D01*
X84001000Y-78472357D01*
X84001000Y-78359948D01*
X84085058Y-78416113D01*
X84227191Y-78474987D01*
X84378078Y-78505000D01*
X84531922Y-78505000D01*
X84682809Y-78474987D01*
X84824942Y-78416113D01*
X84952859Y-78330642D01*
X85061642Y-78221859D01*
X85092000Y-78176425D01*
X85092000Y-79350154D01*
X85089553Y-79375000D01*
X85092000Y-79399846D01*
X85092000Y-79399853D01*
X85099322Y-79474192D01*
X85128255Y-79569574D01*
X85175241Y-79657479D01*
X85238473Y-79734527D01*
X85257785Y-79750376D01*
X91572628Y-86065220D01*
X91588473Y-86084527D01*
X91665521Y-86147759D01*
X91753423Y-86194744D01*
X91753425Y-86194745D01*
X91848806Y-86223678D01*
X91858694Y-86224652D01*
X91923146Y-86231000D01*
X91923153Y-86231000D01*
X91947999Y-86233447D01*
X91972845Y-86231000D01*
X102436288Y-86231000D01*
X102458412Y-86284413D01*
X102587658Y-86477843D01*
X102752157Y-86642342D01*
X102874000Y-86723755D01*
X102874001Y-87647245D01*
X102752157Y-87728658D01*
X102587658Y-87893157D01*
X102458412Y-88086587D01*
X102369386Y-88301515D01*
X102324000Y-88529682D01*
X102324000Y-88762318D01*
X102369386Y-88990485D01*
X102458412Y-89205413D01*
X102587658Y-89398843D01*
X102750815Y-89562000D01*
X75461520Y-89562000D01*
X75309865Y-89547130D01*
X75186612Y-89509918D01*
X75072933Y-89449474D01*
X74973155Y-89368097D01*
X74891090Y-89268897D01*
X74829852Y-89155640D01*
X74791780Y-89032648D01*
X74776000Y-88882508D01*
X74776000Y-69111520D01*
X74790870Y-68959865D01*
X74828082Y-68836612D01*
X74888526Y-68722932D01*
X74969899Y-68623159D01*
X75069105Y-68541089D01*
X75182357Y-68479853D01*
X75305352Y-68441780D01*
X75455492Y-68426000D01*
X77739933Y-68426000D01*
X77727259Y-68522270D01*
G04 #@! TA.AperFunction,Conductor*
D18*
G36*
X77727259Y-68522270D02*
G01*
X77724000Y-68572000D01*
X77724000Y-74303000D01*
X77727259Y-74352730D01*
X77744296Y-74482140D01*
X77770039Y-74578212D01*
X77819989Y-74698802D01*
X77869721Y-74784940D01*
X77949181Y-74888493D01*
X78019507Y-74958819D01*
X78123060Y-75038279D01*
X78209198Y-75088011D01*
X78329788Y-75137961D01*
X78425860Y-75163704D01*
X78555270Y-75180741D01*
X78605000Y-75184000D01*
X79510000Y-75184000D01*
X79559730Y-75180741D01*
X79689140Y-75163704D01*
X79785212Y-75137961D01*
X79905802Y-75088011D01*
X79989000Y-75039976D01*
X79989001Y-82736504D01*
X79911364Y-82814141D01*
X79825893Y-82942058D01*
X79767019Y-83084191D01*
X79737006Y-83235078D01*
X79737006Y-83388922D01*
X79767019Y-83539809D01*
X79825893Y-83681942D01*
X79911364Y-83809859D01*
X80020147Y-83918642D01*
X80148064Y-84004113D01*
X80290197Y-84062987D01*
X80441084Y-84093000D01*
X80594928Y-84093000D01*
X80745815Y-84062987D01*
X80887948Y-84004113D01*
X81015865Y-83918642D01*
X81124648Y-83809859D01*
X81210119Y-83681942D01*
X81268993Y-83539809D01*
X81299006Y-83388922D01*
X81299006Y-83235078D01*
X81268993Y-83084191D01*
X81210119Y-82942058D01*
X81124648Y-82814141D01*
X81015865Y-82705358D01*
X81001000Y-82695426D01*
X81001000Y-82359501D01*
X81036141Y-82394642D01*
X81164058Y-82480113D01*
X81306191Y-82538987D01*
X81457078Y-82569000D01*
X81610922Y-82569000D01*
X81761809Y-82538987D01*
X81903942Y-82480113D01*
X82031859Y-82394642D01*
X82140642Y-82285859D01*
X82226113Y-82157942D01*
X82284987Y-82015809D01*
X82315000Y-81864922D01*
X82315000Y-81711078D01*
X82284987Y-81560191D01*
X82226113Y-81418058D01*
X82165547Y-81327415D01*
X82180062Y-81337113D01*
X82322195Y-81395987D01*
X82473082Y-81426000D01*
X82626926Y-81426000D01*
X82777813Y-81395987D01*
X82919946Y-81337113D01*
X83047863Y-81251642D01*
X83156646Y-81142859D01*
X83242117Y-81014942D01*
X83300991Y-80872809D01*
X83331004Y-80721922D01*
X83331004Y-80568078D01*
X83300991Y-80417191D01*
X83242117Y-80275058D01*
X83156646Y-80147141D01*
X83047863Y-80038358D01*
X83001000Y-80007045D01*
X83001000Y-79660501D01*
X83068141Y-79727642D01*
X83196058Y-79813113D01*
X83338191Y-79871987D01*
X83489078Y-79902000D01*
X83642922Y-79902000D01*
X83793809Y-79871987D01*
X83935942Y-79813113D01*
X84063859Y-79727642D01*
X84172642Y-79618859D01*
X84258113Y-79490942D01*
X84316987Y-79348809D01*
X84347000Y-79197922D01*
X84347000Y-79044078D01*
X84316987Y-78893191D01*
X84258113Y-78751058D01*
X84172642Y-78623141D01*
X84063859Y-78514358D01*
X84001000Y-78472357D01*
X84001000Y-78359948D01*
X84085058Y-78416113D01*
X84227191Y-78474987D01*
X84378078Y-78505000D01*
X84531922Y-78505000D01*
X84682809Y-78474987D01*
X84824942Y-78416113D01*
X84952859Y-78330642D01*
X85061642Y-78221859D01*
X85092000Y-78176425D01*
X85092000Y-79350154D01*
X85089553Y-79375000D01*
X85092000Y-79399846D01*
X85092000Y-79399853D01*
X85099322Y-79474192D01*
X85128255Y-79569574D01*
X85175241Y-79657479D01*
X85238473Y-79734527D01*
X85257785Y-79750376D01*
X91572628Y-86065220D01*
X91588473Y-86084527D01*
X91665521Y-86147759D01*
X91753423Y-86194744D01*
X91753425Y-86194745D01*
X91848806Y-86223678D01*
X91858694Y-86224652D01*
X91923146Y-86231000D01*
X91923153Y-86231000D01*
X91947999Y-86233447D01*
X91972845Y-86231000D01*
X102436288Y-86231000D01*
X102458412Y-86284413D01*
X102587658Y-86477843D01*
X102752157Y-86642342D01*
X102874000Y-86723755D01*
X102874001Y-87647245D01*
X102752157Y-87728658D01*
X102587658Y-87893157D01*
X102458412Y-88086587D01*
X102369386Y-88301515D01*
X102324000Y-88529682D01*
X102324000Y-88762318D01*
X102369386Y-88990485D01*
X102458412Y-89205413D01*
X102587658Y-89398843D01*
X102750815Y-89562000D01*
X75461520Y-89562000D01*
X75309865Y-89547130D01*
X75186612Y-89509918D01*
X75072933Y-89449474D01*
X74973155Y-89368097D01*
X74891090Y-89268897D01*
X74829852Y-89155640D01*
X74791780Y-89032648D01*
X74776000Y-88882508D01*
X74776000Y-69111520D01*
X74790870Y-68959865D01*
X74828082Y-68836612D01*
X74888526Y-68722932D01*
X74969899Y-68623159D01*
X75069105Y-68541089D01*
X75182357Y-68479853D01*
X75305352Y-68441780D01*
X75455492Y-68426000D01*
X77739933Y-68426000D01*
X77727259Y-68522270D01*
G37*
G04 #@! TD.AperFunction*
D17*
X117461231Y-68475743D02*
X117475000Y-68580328D01*
X117475000Y-74294672D01*
X117461231Y-74399257D01*
X117424077Y-74488955D01*
X117364976Y-74565976D01*
X117287955Y-74625077D01*
X117198257Y-74662231D01*
X117093672Y-74676000D01*
X115316328Y-74676000D01*
X115211743Y-74662231D01*
X115122045Y-74625077D01*
X115045024Y-74565976D01*
X114985923Y-74488955D01*
X114948769Y-74399257D01*
X114935000Y-74294672D01*
X114935000Y-73715115D01*
X115065165Y-73715115D01*
X115147372Y-73931546D01*
X115270223Y-74127781D01*
X115428997Y-74296278D01*
X115617592Y-74430562D01*
X115828761Y-74525473D01*
X115895886Y-74545829D01*
X116078000Y-74484297D01*
X116078000Y-73533000D01*
X116332000Y-73533000D01*
X116332000Y-74484297D01*
X116514114Y-74545829D01*
X116581239Y-74525473D01*
X116792408Y-74430562D01*
X116981003Y-74296278D01*
X117139777Y-74127781D01*
X117262628Y-73931546D01*
X117344835Y-73715115D01*
X117283908Y-73533000D01*
X116332000Y-73533000D01*
X116078000Y-73533000D01*
X115126092Y-73533000D01*
X115065165Y-73715115D01*
X114935000Y-73715115D01*
X114935000Y-73096885D01*
X115065165Y-73096885D01*
X115126092Y-73279000D01*
X116078000Y-73279000D01*
X116078000Y-72327703D01*
X116332000Y-72327703D01*
X116332000Y-73279000D01*
X117283908Y-73279000D01*
X117344835Y-73096885D01*
X117262628Y-72880454D01*
X117139777Y-72684219D01*
X116981003Y-72515722D01*
X116792408Y-72381438D01*
X116581239Y-72286527D01*
X116514114Y-72266171D01*
X116332000Y-72327703D01*
X116078000Y-72327703D01*
X115895886Y-72266171D01*
X115828761Y-72286527D01*
X115617592Y-72381438D01*
X115428997Y-72515722D01*
X115270223Y-72684219D01*
X115147372Y-72880454D01*
X115065165Y-73096885D01*
X114935000Y-73096885D01*
X114935000Y-70794115D01*
X115065165Y-70794115D01*
X115147372Y-71010546D01*
X115270223Y-71206781D01*
X115428997Y-71375278D01*
X115617592Y-71509562D01*
X115828761Y-71604473D01*
X115895886Y-71624829D01*
X116078000Y-71563297D01*
X116078000Y-70612000D01*
X116332000Y-70612000D01*
X116332000Y-71563297D01*
X116514114Y-71624829D01*
X116581239Y-71604473D01*
X116792408Y-71509562D01*
X116981003Y-71375278D01*
X117139777Y-71206781D01*
X117262628Y-71010546D01*
X117344835Y-70794115D01*
X117283908Y-70612000D01*
X116332000Y-70612000D01*
X116078000Y-70612000D01*
X115126092Y-70612000D01*
X115065165Y-70794115D01*
X114935000Y-70794115D01*
X114935000Y-70175885D01*
X115065165Y-70175885D01*
X115126092Y-70358000D01*
X116078000Y-70358000D01*
X116078000Y-69406703D01*
X116332000Y-69406703D01*
X116332000Y-70358000D01*
X117283908Y-70358000D01*
X117344835Y-70175885D01*
X117262628Y-69959454D01*
X117139777Y-69763219D01*
X116981003Y-69594722D01*
X116792408Y-69460438D01*
X116581239Y-69365527D01*
X116514114Y-69345171D01*
X116332000Y-69406703D01*
X116078000Y-69406703D01*
X115895886Y-69345171D01*
X115828761Y-69365527D01*
X115617592Y-69460438D01*
X115428997Y-69594722D01*
X115270223Y-69763219D01*
X115147372Y-69959454D01*
X115065165Y-70175885D01*
X114935000Y-70175885D01*
X114935000Y-69842000D01*
X114933914Y-69825423D01*
X114916877Y-69696013D01*
X114908296Y-69663989D01*
X114858346Y-69543399D01*
X114841768Y-69514687D01*
X114762308Y-69411134D01*
X114738866Y-69387692D01*
X114635313Y-69308232D01*
X114606601Y-69291654D01*
X114486011Y-69241704D01*
X114453987Y-69233123D01*
X114324577Y-69216086D01*
X114308000Y-69215000D01*
X80510000Y-69215000D01*
X80493423Y-69216086D01*
X80364013Y-69233123D01*
X80331989Y-69241704D01*
X80211399Y-69291654D01*
X80182687Y-69308232D01*
X80079134Y-69387692D01*
X80055692Y-69411134D01*
X79976232Y-69514687D01*
X79959654Y-69543399D01*
X79909704Y-69663989D01*
X79901123Y-69696013D01*
X79884086Y-69825423D01*
X79883000Y-69842000D01*
X79883000Y-71698551D01*
X79869689Y-71694513D01*
X79795000Y-71687157D01*
X79717250Y-71689000D01*
X79622000Y-71784250D01*
X79622000Y-72943000D01*
X79642000Y-72943000D01*
X79642000Y-73197000D01*
X79622000Y-73197000D01*
X79622000Y-74355750D01*
X79717250Y-74451000D01*
X79795000Y-74452843D01*
X79849248Y-74447500D01*
X79832077Y-74488955D01*
X79772976Y-74565976D01*
X79695955Y-74625077D01*
X79606257Y-74662231D01*
X79501672Y-74676000D01*
X78613328Y-74676000D01*
X78508743Y-74662231D01*
X78419045Y-74625077D01*
X78342024Y-74565976D01*
X78282923Y-74488955D01*
X78267256Y-74451130D01*
X78272750Y-74451000D01*
X78368000Y-74355750D01*
X78368000Y-73197000D01*
X78622000Y-73197000D01*
X78622000Y-74355750D01*
X78717250Y-74451000D01*
X78795000Y-74452843D01*
X78869689Y-74445487D01*
X78941508Y-74423701D01*
X78995000Y-74395108D01*
X79048492Y-74423701D01*
X79120311Y-74445487D01*
X79195000Y-74452843D01*
X79272750Y-74451000D01*
X79368000Y-74355750D01*
X79368000Y-73197000D01*
X78622000Y-73197000D01*
X78368000Y-73197000D01*
X78348000Y-73197000D01*
X78348000Y-72943000D01*
X78368000Y-72943000D01*
X78368000Y-71784250D01*
X78622000Y-71784250D01*
X78622000Y-72943000D01*
X79368000Y-72943000D01*
X79368000Y-71784250D01*
X79272750Y-71689000D01*
X79195000Y-71687157D01*
X79120311Y-71694513D01*
X79048492Y-71716299D01*
X78995000Y-71744892D01*
X78941508Y-71716299D01*
X78869689Y-71694513D01*
X78795000Y-71687157D01*
X78717250Y-71689000D01*
X78622000Y-71784250D01*
X78368000Y-71784250D01*
X78272750Y-71689000D01*
X78232000Y-71688034D01*
X78232000Y-68580328D01*
X78245769Y-68475743D01*
X78266373Y-68426000D01*
X117440627Y-68426000D01*
X117461231Y-68475743D01*
G04 #@! TA.AperFunction,Conductor*
D18*
G36*
X117461231Y-68475743D02*
G01*
X117475000Y-68580328D01*
X117475000Y-74294672D01*
X117461231Y-74399257D01*
X117424077Y-74488955D01*
X117364976Y-74565976D01*
X117287955Y-74625077D01*
X117198257Y-74662231D01*
X117093672Y-74676000D01*
X115316328Y-74676000D01*
X115211743Y-74662231D01*
X115122045Y-74625077D01*
X115045024Y-74565976D01*
X114985923Y-74488955D01*
X114948769Y-74399257D01*
X114935000Y-74294672D01*
X114935000Y-73715115D01*
X115065165Y-73715115D01*
X115147372Y-73931546D01*
X115270223Y-74127781D01*
X115428997Y-74296278D01*
X115617592Y-74430562D01*
X115828761Y-74525473D01*
X115895886Y-74545829D01*
X116078000Y-74484297D01*
X116078000Y-73533000D01*
X116332000Y-73533000D01*
X116332000Y-74484297D01*
X116514114Y-74545829D01*
X116581239Y-74525473D01*
X116792408Y-74430562D01*
X116981003Y-74296278D01*
X117139777Y-74127781D01*
X117262628Y-73931546D01*
X117344835Y-73715115D01*
X117283908Y-73533000D01*
X116332000Y-73533000D01*
X116078000Y-73533000D01*
X115126092Y-73533000D01*
X115065165Y-73715115D01*
X114935000Y-73715115D01*
X114935000Y-73096885D01*
X115065165Y-73096885D01*
X115126092Y-73279000D01*
X116078000Y-73279000D01*
X116078000Y-72327703D01*
X116332000Y-72327703D01*
X116332000Y-73279000D01*
X117283908Y-73279000D01*
X117344835Y-73096885D01*
X117262628Y-72880454D01*
X117139777Y-72684219D01*
X116981003Y-72515722D01*
X116792408Y-72381438D01*
X116581239Y-72286527D01*
X116514114Y-72266171D01*
X116332000Y-72327703D01*
X116078000Y-72327703D01*
X115895886Y-72266171D01*
X115828761Y-72286527D01*
X115617592Y-72381438D01*
X115428997Y-72515722D01*
X115270223Y-72684219D01*
X115147372Y-72880454D01*
X115065165Y-73096885D01*
X114935000Y-73096885D01*
X114935000Y-70794115D01*
X115065165Y-70794115D01*
X115147372Y-71010546D01*
X115270223Y-71206781D01*
X115428997Y-71375278D01*
X115617592Y-71509562D01*
X115828761Y-71604473D01*
X115895886Y-71624829D01*
X116078000Y-71563297D01*
X116078000Y-70612000D01*
X116332000Y-70612000D01*
X116332000Y-71563297D01*
X116514114Y-71624829D01*
X116581239Y-71604473D01*
X116792408Y-71509562D01*
X116981003Y-71375278D01*
X117139777Y-71206781D01*
X117262628Y-71010546D01*
X117344835Y-70794115D01*
X117283908Y-70612000D01*
X116332000Y-70612000D01*
X116078000Y-70612000D01*
X115126092Y-70612000D01*
X115065165Y-70794115D01*
X114935000Y-70794115D01*
X114935000Y-70175885D01*
X115065165Y-70175885D01*
X115126092Y-70358000D01*
X116078000Y-70358000D01*
X116078000Y-69406703D01*
X116332000Y-69406703D01*
X116332000Y-70358000D01*
X117283908Y-70358000D01*
X117344835Y-70175885D01*
X117262628Y-69959454D01*
X117139777Y-69763219D01*
X116981003Y-69594722D01*
X116792408Y-69460438D01*
X116581239Y-69365527D01*
X116514114Y-69345171D01*
X116332000Y-69406703D01*
X116078000Y-69406703D01*
X115895886Y-69345171D01*
X115828761Y-69365527D01*
X115617592Y-69460438D01*
X115428997Y-69594722D01*
X115270223Y-69763219D01*
X115147372Y-69959454D01*
X115065165Y-70175885D01*
X114935000Y-70175885D01*
X114935000Y-69842000D01*
X114933914Y-69825423D01*
X114916877Y-69696013D01*
X114908296Y-69663989D01*
X114858346Y-69543399D01*
X114841768Y-69514687D01*
X114762308Y-69411134D01*
X114738866Y-69387692D01*
X114635313Y-69308232D01*
X114606601Y-69291654D01*
X114486011Y-69241704D01*
X114453987Y-69233123D01*
X114324577Y-69216086D01*
X114308000Y-69215000D01*
X80510000Y-69215000D01*
X80493423Y-69216086D01*
X80364013Y-69233123D01*
X80331989Y-69241704D01*
X80211399Y-69291654D01*
X80182687Y-69308232D01*
X80079134Y-69387692D01*
X80055692Y-69411134D01*
X79976232Y-69514687D01*
X79959654Y-69543399D01*
X79909704Y-69663989D01*
X79901123Y-69696013D01*
X79884086Y-69825423D01*
X79883000Y-69842000D01*
X79883000Y-71698551D01*
X79869689Y-71694513D01*
X79795000Y-71687157D01*
X79717250Y-71689000D01*
X79622000Y-71784250D01*
X79622000Y-72943000D01*
X79642000Y-72943000D01*
X79642000Y-73197000D01*
X79622000Y-73197000D01*
X79622000Y-74355750D01*
X79717250Y-74451000D01*
X79795000Y-74452843D01*
X79849248Y-74447500D01*
X79832077Y-74488955D01*
X79772976Y-74565976D01*
X79695955Y-74625077D01*
X79606257Y-74662231D01*
X79501672Y-74676000D01*
X78613328Y-74676000D01*
X78508743Y-74662231D01*
X78419045Y-74625077D01*
X78342024Y-74565976D01*
X78282923Y-74488955D01*
X78267256Y-74451130D01*
X78272750Y-74451000D01*
X78368000Y-74355750D01*
X78368000Y-73197000D01*
X78622000Y-73197000D01*
X78622000Y-74355750D01*
X78717250Y-74451000D01*
X78795000Y-74452843D01*
X78869689Y-74445487D01*
X78941508Y-74423701D01*
X78995000Y-74395108D01*
X79048492Y-74423701D01*
X79120311Y-74445487D01*
X79195000Y-74452843D01*
X79272750Y-74451000D01*
X79368000Y-74355750D01*
X79368000Y-73197000D01*
X78622000Y-73197000D01*
X78368000Y-73197000D01*
X78348000Y-73197000D01*
X78348000Y-72943000D01*
X78368000Y-72943000D01*
X78368000Y-71784250D01*
X78622000Y-71784250D01*
X78622000Y-72943000D01*
X79368000Y-72943000D01*
X79368000Y-71784250D01*
X79272750Y-71689000D01*
X79195000Y-71687157D01*
X79120311Y-71694513D01*
X79048492Y-71716299D01*
X78995000Y-71744892D01*
X78941508Y-71716299D01*
X78869689Y-71694513D01*
X78795000Y-71687157D01*
X78717250Y-71689000D01*
X78622000Y-71784250D01*
X78368000Y-71784250D01*
X78272750Y-71689000D01*
X78232000Y-71688034D01*
X78232000Y-68580328D01*
X78245769Y-68475743D01*
X78266373Y-68426000D01*
X117440627Y-68426000D01*
X117461231Y-68475743D01*
G37*
G04 #@! TD.AperFunction*
M02*
