  0
SECTION
  2
HEADER
  9
$ANGBASE
  50
0.0
  9
$ANGDIR
  70
1
  9
$MEASUREMENT
  70
1
  0
ENDSEC
  0
SECTION
  2
TABLES
  0
TABLE
  2
LTYPE
  70
4
  0
LTYPE
  5
40F
  2
CONTINUOUS
  70
0
  3
Solid line
  72
65
  73
0
  40
0.0
  0
LTYPE
  5
410
  2
DASHDOT
 70
0
  3
Dash Dot ____ _ ____ _
 72
65
 73
4
 40
2.0
 49
1.25
 49
-0.25
 49
0.25
 49
-0.25
  0
LTYPE
  5
411
  2
DASHED
 70
0
  3
Dashed __ __ __ __ __
 72
65
 73
2
 40
0.75
 49
0.5
 49
-0.25
  0
LTYPE
  5
43B
  2
DOTTED
 70
0
  3
Dotted .  .  .  .
 72
65
 73
2
 40
0.2
 49
0.0
 49
-0.2
  0
ENDTAB
  0
TABLE
  2
STYLE
  70
4
  0
STYLE
  2
KICAD
  70
0
  40
0
  41
1
  42
1
  50
0
  71
0
  3
isocp.shx
  0
STYLE
  2
KICADB
  70
0
  40
0
  41
1
  42
1
  50
0
  71
0
  3
isocp.shx
  0
STYLE
  2
KICADI
  70
0
  40
0
  41
1
  42
1
  50
15
  71
0
  3
isocp.shx
  0
STYLE
  2
KICADBI
  70
0
  40
0
  41
1
  42
1
  50
15
  71
0
  3
isocp.shx
  0
ENDTAB
  0
TABLE
  2
LAYER
  70
1
  0
LAYER
  2
BLACK
  70
0
  62
7
  6
CONTINUOUS
  0
ENDTAB
  0
ENDSEC
  0
SECTION
  2
ENTITIES
0
LINE
8
BLACK
6
CONTINUOUS
10
119.38
20
-96.5208
11
119.38
21
-96.5208
0
LINE
8
BLACK
6
CONTINUOUS
10
119.38
20
-96.5208
11
119.38
21
-96.5208
0
LINE
8
BLACK
6
CONTINUOUS
10
119.38
20
-96.5208
11
119.381
21
-96.5208
0
LINE
8
BLACK
6
CONTINUOUS
10
119.381
20
-96.5208
11
119.385
21
-96.5213
0
LINE
8
BLACK
6
CONTINUOUS
10
119.385
20
-96.5213
11
119.39
21
-96.5218
0
LINE
8
BLACK
6
CONTINUOUS
10
119.39
20
-96.5218
11
119.39
21
-96.5219
0
LINE
8
BLACK
6
CONTINUOUS
10
119.39
20
-96.5219
11
119.39
21
-96.5219
0
LINE
8
BLACK
6
CONTINUOUS
10
119.39
20
-96.5219
11
119.395
21
-96.5233
0
LINE
8
BLACK
6
CONTINUOUS
10
119.395
20
-96.5233
11
119.399
21
-96.5247
0
LINE
8
BLACK
6
CONTINUOUS
10
119.399
20
-96.5247
11
119.4
21
-96.5248
0
LINE
8
BLACK
6
CONTINUOUS
10
119.4
20
-96.5248
11
119.4
21
-96.5248
0
LINE
8
BLACK
6
CONTINUOUS
10
119.4
20
-96.5248
11
119.404
21
-96.5271
0
LINE
8
BLACK
6
CONTINUOUS
10
119.404
20
-96.5271
11
119.408
21
-96.5293
0
LINE
8
BLACK
6
CONTINUOUS
10
119.408
20
-96.5293
11
119.408
21
-96.5295
0
LINE
8
BLACK
6
CONTINUOUS
10
119.408
20
-96.5295
11
119.408
21
-96.5295
0
LINE
8
BLACK
6
CONTINUOUS
10
119.408
20
-96.5295
11
119.412
21
-96.5325
0
LINE
8
BLACK
6
CONTINUOUS
10
119.412
20
-96.5325
11
119.415
21
-96.5356
0
LINE
8
BLACK
6
CONTINUOUS
10
119.415
20
-96.5356
11
119.416
21
-96.5357
0
LINE
8
BLACK
6
CONTINUOUS
10
119.416
20
-96.5357
11
119.416
21
-96.5358
0
LINE
8
BLACK
6
CONTINUOUS
10
119.416
20
-96.5358
11
119.419
21
-96.5394
0
LINE
8
BLACK
6
CONTINUOUS
10
119.419
20
-96.5394
11
119.422
21
-96.5431
0
LINE
8
BLACK
6
CONTINUOUS
10
119.422
20
-96.5431
11
119.422
21
-96.5433
0
LINE
8
BLACK
6
CONTINUOUS
10
119.422
20
-96.5433
11
119.422
21
-96.5434
0
LINE
8
BLACK
6
CONTINUOUS
10
119.422
20
-96.5434
11
119.424
21
-96.5475
0
LINE
8
BLACK
6
CONTINUOUS
10
119.424
20
-96.5475
11
119.426
21
-96.5517
0
LINE
8
BLACK
6
CONTINUOUS
10
119.426
20
-96.5517
11
119.426
21
-96.5519
0
LINE
8
BLACK
6
CONTINUOUS
10
119.426
20
-96.5519
11
119.426
21
-96.5521
0
LINE
8
BLACK
6
CONTINUOUS
10
119.426
20
-96.5521
11
119.428
21
-96.5565
0
LINE
8
BLACK
6
CONTINUOUS
10
119.428
20
-96.5565
11
119.429
21
-96.5611
0
LINE
8
BLACK
6
CONTINUOUS
10
119.429
20
-96.5611
11
119.429
21
-96.5613
0
LINE
8
BLACK
6
CONTINUOUS
10
119.429
20
-96.5613
11
119.429
21
-96.5614
0
LINE
8
BLACK
6
CONTINUOUS
10
119.429
20
-96.5614
11
119.43
21
-96.5661
0
LINE
8
BLACK
6
CONTINUOUS
10
119.43
20
-96.5661
11
119.43
21
-96.5708
0
LINE
8
BLACK
6
CONTINUOUS
10
119.43
20
-96.5708
11
119.43
21
-97.2058
0
LINE
8
BLACK
6
CONTINUOUS
10
119.43
20
-97.2058
11
119.43
21
-97.2061
0
LINE
8
BLACK
6
CONTINUOUS
10
119.43
20
-97.2061
11
119.43
21
-97.2061
0
LINE
8
BLACK
6
CONTINUOUS
10
119.43
20
-97.2061
11
119.43
21
-97.2062
0
LINE
8
BLACK
6
CONTINUOUS
10
119.43
20
-97.2062
11
119.43
21
-97.2065
0
LINE
8
BLACK
6
CONTINUOUS
10
119.43
20
-97.2065
11
119.429
21
-97.2111
0
LINE
8
BLACK
6
CONTINUOUS
10
119.429
20
-97.2111
11
119.429
21
-97.2159
0
LINE
8
BLACK
6
CONTINUOUS
10
119.429
20
-97.2159
11
119.429
21
-97.216
0
LINE
8
BLACK
6
CONTINUOUS
10
119.429
20
-97.216
11
119.429
21
-97.2162
0
LINE
8
BLACK
6
CONTINUOUS
10
119.429
20
-97.2162
11
119.427
21
-97.2207
0
LINE
8
BLACK
6
CONTINUOUS
10
119.427
20
-97.2207
11
119.426
21
-97.2252
0
LINE
8
BLACK
6
CONTINUOUS
10
119.426
20
-97.2252
11
119.426
21
-97.2253
0
LINE
8
BLACK
6
CONTINUOUS
10
119.426
20
-97.2253
11
119.426
21
-97.2255
0
LINE
8
BLACK
6
CONTINUOUS
10
119.426
20
-97.2255
11
119.424
21
-97.2296
0
LINE
8
BLACK
6
CONTINUOUS
10
119.424
20
-97.2296
11
119.421
21
-97.2338
0
LINE
8
BLACK
6
CONTINUOUS
10
119.421
20
-97.2338
11
119.421
21
-97.2339
0
LINE
8
BLACK
6
CONTINUOUS
10
119.421
20
-97.2339
11
119.421
21
-97.234
0
LINE
8
BLACK
6
CONTINUOUS
10
119.421
20
-97.234
11
119.418
21
-97.2376
0
LINE
8
BLACK
6
CONTINUOUS
10
119.418
20
-97.2376
11
119.415
21
-97.2413
0
LINE
8
BLACK
6
CONTINUOUS
10
119.415
20
-97.2413
11
119.415
21
-97.2414
0
LINE
8
BLACK
6
CONTINUOUS
10
119.415
20
-97.2414
11
119.415
21
-97.2415
0
LINE
8
BLACK
6
CONTINUOUS
10
119.415
20
-97.2415
11
119.411
21
-97.2444
0
LINE
8
BLACK
6
CONTINUOUS
10
119.411
20
-97.2444
11
119.408
21
-97.2474
0
LINE
8
BLACK
6
CONTINUOUS
10
119.408
20
-97.2474
11
119.408
21
-97.2475
0
LINE
8
BLACK
6
CONTINUOUS
10
119.408
20
-97.2475
11
119.407
21
-97.2476
0
LINE
8
BLACK
6
CONTINUOUS
10
119.407
20
-97.2476
11
119.403
21
-97.2498
0
LINE
8
BLACK
6
CONTINUOUS
10
119.403
20
-97.2498
11
119.399
21
-97.252
0
LINE
8
BLACK
6
CONTINUOUS
10
119.399
20
-97.252
11
119.399
21
-97.2521
0
LINE
8
BLACK
6
CONTINUOUS
10
119.399
20
-97.2521
11
119.399
21
-97.2522
0
LINE
8
BLACK
6
CONTINUOUS
10
119.399
20
-97.2522
11
119.394
21
-97.2535
0
LINE
8
BLACK
6
CONTINUOUS
10
119.394
20
-97.2535
11
119.39
21
-97.2548
0
LINE
8
BLACK
6
CONTINUOUS
10
119.39
20
-97.2548
11
119.39
21
-97.2549
0
LINE
8
BLACK
6
CONTINUOUS
10
119.39
20
-97.2549
11
119.389
21
-97.2549
0
LINE
8
BLACK
6
CONTINUOUS
10
119.389
20
-97.2549
11
119.385
21
-97.2553
0
LINE
8
BLACK
6
CONTINUOUS
10
119.385
20
-97.2553
11
119.38
21
-97.2558
0
LINE
8
BLACK
6
CONTINUOUS
10
119.38
20
-97.2558
11
118.745
21
-97.2558
0
LINE
8
BLACK
6
CONTINUOUS
10
118.745
20
-97.2558
11
118.745
21
-97.2558
0
LINE
8
BLACK
6
CONTINUOUS
10
118.745
20
-97.2558
11
118.745
21
-97.2558
0
LINE
8
BLACK
6
CONTINUOUS
10
118.745
20
-97.2558
11
118.745
21
-97.2558
0
LINE
8
BLACK
6
CONTINUOUS
10
118.745
20
-97.2558
11
118.744
21
-97.2558
0
LINE
8
BLACK
6
CONTINUOUS
10
118.744
20
-97.2558
11
118.74
21
-97.2553
0
LINE
8
BLACK
6
CONTINUOUS
10
118.74
20
-97.2553
11
118.735
21
-97.2548
0
LINE
8
BLACK
6
CONTINUOUS
10
118.735
20
-97.2548
11
118.735
21
-97.2547
0
LINE
8
BLACK
6
CONTINUOUS
10
118.735
20
-97.2547
11
118.735
21
-97.2547
0
LINE
8
BLACK
6
CONTINUOUS
10
118.735
20
-97.2547
11
118.73
21
-97.2533
0
LINE
8
BLACK
6
CONTINUOUS
10
118.73
20
-97.2533
11
118.726
21
-97.2519
0
LINE
8
BLACK
6
CONTINUOUS
10
118.726
20
-97.2519
11
118.725
21
-97.2518
0
LINE
8
BLACK
6
CONTINUOUS
10
118.725
20
-97.2518
11
118.725
21
-97.2518
0
LINE
8
BLACK
6
CONTINUOUS
10
118.725
20
-97.2518
11
118.721
21
-97.2495
0
LINE
8
BLACK
6
CONTINUOUS
10
118.721
20
-97.2495
11
118.717
21
-97.2473
0
LINE
8
BLACK
6
CONTINUOUS
10
118.717
20
-97.2473
11
118.717
21
-97.2471
0
LINE
8
BLACK
6
CONTINUOUS
10
118.717
20
-97.2471
11
118.717
21
-97.2471
0
LINE
8
BLACK
6
CONTINUOUS
10
118.717
20
-97.2471
11
118.713
21
-97.2441
0
LINE
8
BLACK
6
CONTINUOUS
10
118.713
20
-97.2441
11
118.71
21
-97.241
0
LINE
8
BLACK
6
CONTINUOUS
10
118.71
20
-97.241
11
118.709
21
-97.2409
0
LINE
8
BLACK
6
CONTINUOUS
10
118.709
20
-97.2409
11
118.709
21
-97.2408
0
LINE
8
BLACK
6
CONTINUOUS
10
118.709
20
-97.2408
11
118.706
21
-97.2372
0
LINE
8
BLACK
6
CONTINUOUS
10
118.706
20
-97.2372
11
118.703
21
-97.2335
0
LINE
8
BLACK
6
CONTINUOUS
10
118.703
20
-97.2335
11
118.703
21
-97.2333
0
LINE
8
BLACK
6
CONTINUOUS
10
118.703
20
-97.2333
11
118.703
21
-97.2332
0
LINE
8
BLACK
6
CONTINUOUS
10
118.703
20
-97.2332
11
118.701
21
-97.2291
0
LINE
8
BLACK
6
CONTINUOUS
10
118.701
20
-97.2291
11
118.699
21
-97.2249
0
LINE
8
BLACK
6
CONTINUOUS
10
118.699
20
-97.2249
11
118.699
21
-97.2247
0
LINE
8
BLACK
6
CONTINUOUS
10
118.699
20
-97.2247
11
118.699
21
-97.2245
0
LINE
8
BLACK
6
CONTINUOUS
10
118.699
20
-97.2245
11
118.697
21
-97.2201
0
LINE
8
BLACK
6
CONTINUOUS
10
118.697
20
-97.2201
11
118.696
21
-97.2155
0
LINE
8
BLACK
6
CONTINUOUS
10
118.696
20
-97.2155
11
118.696
21
-97.2153
0
LINE
8
BLACK
6
CONTINUOUS
10
118.696
20
-97.2153
11
118.696
21
-97.2152
0
LINE
8
BLACK
6
CONTINUOUS
10
118.696
20
-97.2152
11
118.695
21
-97.2105
0
LINE
8
BLACK
6
CONTINUOUS
10
118.695
20
-97.2105
11
118.695
21
-97.2058
0
LINE
8
BLACK
6
CONTINUOUS
10
118.695
20
-97.2058
11
118.695
21
-96.5708
0
LINE
8
BLACK
6
CONTINUOUS
10
118.695
20
-96.5708
11
118.695
21
-96.5705
0
LINE
8
BLACK
6
CONTINUOUS
10
118.695
20
-96.5705
11
118.695
21
-96.5705
0
LINE
8
BLACK
6
CONTINUOUS
10
118.695
20
-96.5705
11
118.695
21
-96.5704
0
LINE
8
BLACK
6
CONTINUOUS
10
118.695
20
-96.5704
11
118.695
21
-96.5701
0
LINE
8
BLACK
6
CONTINUOUS
10
118.695
20
-96.5701
11
118.696
21
-96.5655
0
LINE
8
BLACK
6
CONTINUOUS
10
118.696
20
-96.5655
11
118.696
21
-96.5607
0
LINE
8
BLACK
6
CONTINUOUS
10
118.696
20
-96.5607
11
118.696
21
-96.5606
0
LINE
8
BLACK
6
CONTINUOUS
10
118.696
20
-96.5606
11
118.696
21
-96.5604
0
LINE
8
BLACK
6
CONTINUOUS
10
118.696
20
-96.5604
11
118.698
21
-96.5559
0
LINE
8
BLACK
6
CONTINUOUS
10
118.698
20
-96.5559
11
118.699
21
-96.5514
0
LINE
8
BLACK
6
CONTINUOUS
10
118.699
20
-96.5514
11
118.699
21
-96.5513
0
LINE
8
BLACK
6
CONTINUOUS
10
118.699
20
-96.5513
11
118.699
21
-96.5511
0
LINE
8
BLACK
6
CONTINUOUS
10
118.699
20
-96.5511
11
118.701
21
-96.547
0
LINE
8
BLACK
6
CONTINUOUS
10
118.701
20
-96.547
11
118.704
21
-96.5428
0
LINE
8
BLACK
6
CONTINUOUS
10
118.704
20
-96.5428
11
118.704
21
-96.5427
0
LINE
8
BLACK
6
CONTINUOUS
10
118.704
20
-96.5427
11
118.704
21
-96.5426
0
LINE
8
BLACK
6
CONTINUOUS
10
118.704
20
-96.5426
11
118.707
21
-96.539
0
LINE
8
BLACK
6
CONTINUOUS
10
118.707
20
-96.539
11
118.71
21
-96.5353
0
LINE
8
BLACK
6
CONTINUOUS
10
118.71
20
-96.5353
11
118.71
21
-96.5352
0
LINE
8
BLACK
6
CONTINUOUS
10
118.71
20
-96.5352
11
118.71
21
-96.5351
0
LINE
8
BLACK
6
CONTINUOUS
10
118.71
20
-96.5351
11
118.714
21
-96.5322
0
LINE
8
BLACK
6
CONTINUOUS
10
118.714
20
-96.5322
11
118.717
21
-96.5292
0
LINE
8
BLACK
6
CONTINUOUS
10
118.717
20
-96.5292
11
118.717
21
-96.5291
0
LINE
8
BLACK
6
CONTINUOUS
10
118.717
20
-96.5291
11
118.718
21
-96.529
0
LINE
8
BLACK
6
CONTINUOUS
10
118.718
20
-96.529
11
118.722
21
-96.5268
0
LINE
8
BLACK
6
CONTINUOUS
10
118.722
20
-96.5268
11
118.726
21
-96.5246
0
LINE
8
BLACK
6
CONTINUOUS
10
118.726
20
-96.5246
11
118.726
21
-96.5245
0
LINE
8
BLACK
6
CONTINUOUS
10
118.726
20
-96.5245
11
118.726
21
-96.5244
0
LINE
8
BLACK
6
CONTINUOUS
10
118.726
20
-96.5244
11
118.731
21
-96.5231
0
LINE
8
BLACK
6
CONTINUOUS
10
118.731
20
-96.5231
11
118.735
21
-96.5218
0
LINE
8
BLACK
6
CONTINUOUS
10
118.735
20
-96.5218
11
118.735
21
-96.5217
0
LINE
8
BLACK
6
CONTINUOUS
10
118.735
20
-96.5217
11
118.736
21
-96.5217
0
LINE
8
BLACK
6
CONTINUOUS
10
118.736
20
-96.5217
11
118.74
21
-96.5213
0
LINE
8
BLACK
6
CONTINUOUS
10
118.74
20
-96.5213
11
118.745
21
-96.5208
0
LINE
8
BLACK
6
CONTINUOUS
10
118.745
20
-96.5208
11
119.38
21
-96.5208
0
LINE
8
BLACK
6
CONTINUOUS
10
119.38
20
-96.5208
11
119.38
21
-96.5208
0
LINE
8
BLACK
6
CONTINUOUS
10
116.84
20
-96.5208
11
116.84
21
-96.5208
0
LINE
8
BLACK
6
CONTINUOUS
10
116.84
20
-96.5208
11
116.84
21
-96.5208
0
LINE
8
BLACK
6
CONTINUOUS
10
116.84
20
-96.5208
11
116.841
21
-96.5208
0
LINE
8
BLACK
6
CONTINUOUS
10
116.841
20
-96.5208
11
116.845
21
-96.5213
0
LINE
8
BLACK
6
CONTINUOUS
10
116.845
20
-96.5213
11
116.85
21
-96.5218
0
LINE
8
BLACK
6
CONTINUOUS
10
116.85
20
-96.5218
11
116.85
21
-96.5219
0
LINE
8
BLACK
6
CONTINUOUS
10
116.85
20
-96.5219
11
116.85
21
-96.5219
0
LINE
8
BLACK
6
CONTINUOUS
10
116.85
20
-96.5219
11
116.855
21
-96.5233
0
LINE
8
BLACK
6
CONTINUOUS
10
116.855
20
-96.5233
11
116.859
21
-96.5247
0
LINE
8
BLACK
6
CONTINUOUS
10
116.859
20
-96.5247
11
116.86
21
-96.5248
0
LINE
8
BLACK
6
CONTINUOUS
10
116.86
20
-96.5248
11
116.86
21
-96.5248
0
LINE
8
BLACK
6
CONTINUOUS
10
116.86
20
-96.5248
11
116.864
21
-96.5271
0
LINE
8
BLACK
6
CONTINUOUS
10
116.864
20
-96.5271
11
116.868
21
-96.5293
0
LINE
8
BLACK
6
CONTINUOUS
10
116.868
20
-96.5293
11
116.868
21
-96.5295
0
LINE
8
BLACK
6
CONTINUOUS
10
116.868
20
-96.5295
11
116.868
21
-96.5295
0
LINE
8
BLACK
6
CONTINUOUS
10
116.868
20
-96.5295
11
116.872
21
-96.5325
0
LINE
8
BLACK
6
CONTINUOUS
10
116.872
20
-96.5325
11
116.875
21
-96.5356
0
LINE
8
BLACK
6
CONTINUOUS
10
116.875
20
-96.5356
11
116.876
21
-96.5357
0
LINE
8
BLACK
6
CONTINUOUS
10
116.876
20
-96.5357
11
116.876
21
-96.5358
0
LINE
8
BLACK
6
CONTINUOUS
10
116.876
20
-96.5358
11
116.879
21
-96.5394
0
LINE
8
BLACK
6
CONTINUOUS
10
116.879
20
-96.5394
11
116.882
21
-96.5431
0
LINE
8
BLACK
6
CONTINUOUS
10
116.882
20
-96.5431
11
116.882
21
-96.5433
0
LINE
8
BLACK
6
CONTINUOUS
10
116.882
20
-96.5433
11
116.882
21
-96.5434
0
LINE
8
BLACK
6
CONTINUOUS
10
116.882
20
-96.5434
11
116.884
21
-96.5475
0
LINE
8
BLACK
6
CONTINUOUS
10
116.884
20
-96.5475
11
116.886
21
-96.5517
0
LINE
8
BLACK
6
CONTINUOUS
10
116.886
20
-96.5517
11
116.886
21
-96.5519
0
LINE
8
BLACK
6
CONTINUOUS
10
116.886
20
-96.5519
11
116.886
21
-96.5521
0
LINE
8
BLACK
6
CONTINUOUS
10
116.886
20
-96.5521
11
116.888
21
-96.5565
0
LINE
8
BLACK
6
CONTINUOUS
10
116.888
20
-96.5565
11
116.889
21
-96.5611
0
LINE
8
BLACK
6
CONTINUOUS
10
116.889
20
-96.5611
11
116.889
21
-96.5613
0
LINE
8
BLACK
6
CONTINUOUS
10
116.889
20
-96.5613
11
116.889
21
-96.5614
0
LINE
8
BLACK
6
CONTINUOUS
10
116.889
20
-96.5614
11
116.89
21
-96.5661
0
LINE
8
BLACK
6
CONTINUOUS
10
116.89
20
-96.5661
11
116.89
21
-96.5708
0
LINE
8
BLACK
6
CONTINUOUS
10
116.89
20
-96.5708
11
116.89
21
-97.2058
0
LINE
8
BLACK
6
CONTINUOUS
10
116.89
20
-97.2058
11
116.89
21
-97.2061
0
LINE
8
BLACK
6
CONTINUOUS
10
116.89
20
-97.2061
11
116.89
21
-97.2061
0
LINE
8
BLACK
6
CONTINUOUS
10
116.89
20
-97.2061
11
116.89
21
-97.2062
0
LINE
8
BLACK
6
CONTINUOUS
10
116.89
20
-97.2062
11
116.89
21
-97.2065
0
LINE
8
BLACK
6
CONTINUOUS
10
116.89
20
-97.2065
11
116.889
21
-97.2111
0
LINE
8
BLACK
6
CONTINUOUS
10
116.889
20
-97.2111
11
116.889
21
-97.2159
0
LINE
8
BLACK
6
CONTINUOUS
10
116.889
20
-97.2159
11
116.889
21
-97.216
0
LINE
8
BLACK
6
CONTINUOUS
10
116.889
20
-97.216
11
116.889
21
-97.2162
0
LINE
8
BLACK
6
CONTINUOUS
10
116.889
20
-97.2162
11
116.887
21
-97.2207
0
LINE
8
BLACK
6
CONTINUOUS
10
116.887
20
-97.2207
11
116.886
21
-97.2252
0
LINE
8
BLACK
6
CONTINUOUS
10
116.886
20
-97.2252
11
116.886
21
-97.2253
0
LINE
8
BLACK
6
CONTINUOUS
10
116.886
20
-97.2253
11
116.886
21
-97.2255
0
LINE
8
BLACK
6
CONTINUOUS
10
116.886
20
-97.2255
11
116.884
21
-97.2296
0
LINE
8
BLACK
6
CONTINUOUS
10
116.884
20
-97.2296
11
116.881
21
-97.2338
0
LINE
8
BLACK
6
CONTINUOUS
10
116.881
20
-97.2338
11
116.881
21
-97.2339
0
LINE
8
BLACK
6
CONTINUOUS
10
116.881
20
-97.2339
11
116.881
21
-97.234
0
LINE
8
BLACK
6
CONTINUOUS
10
116.881
20
-97.234
11
116.878
21
-97.2376
0
LINE
8
BLACK
6
CONTINUOUS
10
116.878
20
-97.2376
11
116.875
21
-97.2413
0
LINE
8
BLACK
6
CONTINUOUS
10
116.875
20
-97.2413
11
116.875
21
-97.2414
0
LINE
8
BLACK
6
CONTINUOUS
10
116.875
20
-97.2414
11
116.875
21
-97.2415
0
LINE
8
BLACK
6
CONTINUOUS
10
116.875
20
-97.2415
11
116.871
21
-97.2444
0
LINE
8
BLACK
6
CONTINUOUS
10
116.871
20
-97.2444
11
116.868
21
-97.2474
0
LINE
8
BLACK
6
CONTINUOUS
10
116.868
20
-97.2474
11
116.868
21
-97.2475
0
LINE
8
BLACK
6
CONTINUOUS
10
116.868
20
-97.2475
11
116.867
21
-97.2476
0
LINE
8
BLACK
6
CONTINUOUS
10
116.867
20
-97.2476
11
116.863
21
-97.2498
0
LINE
8
BLACK
6
CONTINUOUS
10
116.863
20
-97.2498
11
116.859
21
-97.252
0
LINE
8
BLACK
6
CONTINUOUS
10
116.859
20
-97.252
11
116.859
21
-97.2521
0
LINE
8
BLACK
6
CONTINUOUS
10
116.859
20
-97.2521
11
116.859
21
-97.2522
0
LINE
8
BLACK
6
CONTINUOUS
10
116.859
20
-97.2522
11
116.854
21
-97.2535
0
LINE
8
BLACK
6
CONTINUOUS
10
116.854
20
-97.2535
11
116.85
21
-97.2548
0
LINE
8
BLACK
6
CONTINUOUS
10
116.85
20
-97.2548
11
116.85
21
-97.2549
0
LINE
8
BLACK
6
CONTINUOUS
10
116.85
20
-97.2549
11
116.849
21
-97.2549
0
LINE
8
BLACK
6
CONTINUOUS
10
116.849
20
-97.2549
11
116.845
21
-97.2553
0
LINE
8
BLACK
6
CONTINUOUS
10
116.845
20
-97.2553
11
116.84
21
-97.2558
0
LINE
8
BLACK
6
CONTINUOUS
10
116.84
20
-97.2558
11
116.205
21
-97.2558
0
LINE
8
BLACK
6
CONTINUOUS
10
116.205
20
-97.2558
11
116.205
21
-97.2558
0
LINE
8
BLACK
6
CONTINUOUS
10
116.205
20
-97.2558
11
116.205
21
-97.2558
0
LINE
8
BLACK
6
CONTINUOUS
10
116.205
20
-97.2558
11
116.205
21
-97.2558
0
LINE
8
BLACK
6
CONTINUOUS
10
116.205
20
-97.2558
11
116.204
21
-97.2558
0
LINE
8
BLACK
6
CONTINUOUS
10
116.204
20
-97.2558
11
116.2
21
-97.2553
0
LINE
8
BLACK
6
CONTINUOUS
10
116.2
20
-97.2553
11
116.195
21
-97.2548
0
LINE
8
BLACK
6
CONTINUOUS
10
116.195
20
-97.2548
11
116.195
21
-97.2547
0
LINE
8
BLACK
6
CONTINUOUS
10
116.195
20
-97.2547
11
116.195
21
-97.2547
0
LINE
8
BLACK
6
CONTINUOUS
10
116.195
20
-97.2547
11
116.19
21
-97.2533
0
LINE
8
BLACK
6
CONTINUOUS
10
116.19
20
-97.2533
11
116.186
21
-97.2519
0
LINE
8
BLACK
6
CONTINUOUS
10
116.186
20
-97.2519
11
116.185
21
-97.2518
0
LINE
8
BLACK
6
CONTINUOUS
10
116.185
20
-97.2518
11
116.185
21
-97.2518
0
LINE
8
BLACK
6
CONTINUOUS
10
116.185
20
-97.2518
11
116.181
21
-97.2495
0
LINE
8
BLACK
6
CONTINUOUS
10
116.181
20
-97.2495
11
116.177
21
-97.2473
0
LINE
8
BLACK
6
CONTINUOUS
10
116.177
20
-97.2473
11
116.177
21
-97.2471
0
LINE
8
BLACK
6
CONTINUOUS
10
116.177
20
-97.2471
11
116.177
21
-97.2471
0
LINE
8
BLACK
6
CONTINUOUS
10
116.177
20
-97.2471
11
116.173
21
-97.2441
0
LINE
8
BLACK
6
CONTINUOUS
10
116.173
20
-97.2441
11
116.17
21
-97.241
0
LINE
8
BLACK
6
CONTINUOUS
10
116.17
20
-97.241
11
116.169
21
-97.2409
0
LINE
8
BLACK
6
CONTINUOUS
10
116.169
20
-97.2409
11
116.169
21
-97.2408
0
LINE
8
BLACK
6
CONTINUOUS
10
116.169
20
-97.2408
11
116.166
21
-97.2372
0
LINE
8
BLACK
6
CONTINUOUS
10
116.166
20
-97.2372
11
116.163
21
-97.2335
0
LINE
8
BLACK
6
CONTINUOUS
10
116.163
20
-97.2335
11
116.163
21
-97.2333
0
LINE
8
BLACK
6
CONTINUOUS
10
116.163
20
-97.2333
11
116.163
21
-97.2332
0
LINE
8
BLACK
6
CONTINUOUS
10
116.163
20
-97.2332
11
116.161
21
-97.2291
0
LINE
8
BLACK
6
CONTINUOUS
10
116.161
20
-97.2291
11
116.159
21
-97.2249
0
LINE
8
BLACK
6
CONTINUOUS
10
116.159
20
-97.2249
11
116.159
21
-97.2247
0
LINE
8
BLACK
6
CONTINUOUS
10
116.159
20
-97.2247
11
116.159
21
-97.2245
0
LINE
8
BLACK
6
CONTINUOUS
10
116.159
20
-97.2245
11
116.157
21
-97.2201
0
LINE
8
BLACK
6
CONTINUOUS
10
116.157
20
-97.2201
11
116.156
21
-97.2155
0
LINE
8
BLACK
6
CONTINUOUS
10
116.156
20
-97.2155
11
116.156
21
-97.2153
0
LINE
8
BLACK
6
CONTINUOUS
10
116.156
20
-97.2153
11
116.156
21
-97.2152
0
LINE
8
BLACK
6
CONTINUOUS
10
116.156
20
-97.2152
11
116.155
21
-97.2105
0
LINE
8
BLACK
6
CONTINUOUS
10
116.155
20
-97.2105
11
116.155
21
-97.2058
0
LINE
8
BLACK
6
CONTINUOUS
10
116.155
20
-97.2058
11
116.155
21
-96.5708
0
LINE
8
BLACK
6
CONTINUOUS
10
116.155
20
-96.5708
11
116.155
21
-96.5705
0
LINE
8
BLACK
6
CONTINUOUS
10
116.155
20
-96.5705
11
116.155
21
-96.5705
0
LINE
8
BLACK
6
CONTINUOUS
10
116.155
20
-96.5705
11
116.155
21
-96.5704
0
LINE
8
BLACK
6
CONTINUOUS
10
116.155
20
-96.5704
11
116.155
21
-96.5701
0
LINE
8
BLACK
6
CONTINUOUS
10
116.155
20
-96.5701
11
116.156
21
-96.5655
0
LINE
8
BLACK
6
CONTINUOUS
10
116.156
20
-96.5655
11
116.156
21
-96.5607
0
LINE
8
BLACK
6
CONTINUOUS
10
116.156
20
-96.5607
11
116.156
21
-96.5606
0
LINE
8
BLACK
6
CONTINUOUS
10
116.156
20
-96.5606
11
116.156
21
-96.5604
0
LINE
8
BLACK
6
CONTINUOUS
10
116.156
20
-96.5604
11
116.158
21
-96.5559
0
LINE
8
BLACK
6
CONTINUOUS
10
116.158
20
-96.5559
11
116.159
21
-96.5514
0
LINE
8
BLACK
6
CONTINUOUS
10
116.159
20
-96.5514
11
116.159
21
-96.5513
0
LINE
8
BLACK
6
CONTINUOUS
10
116.159
20
-96.5513
11
116.159
21
-96.5511
0
LINE
8
BLACK
6
CONTINUOUS
10
116.159
20
-96.5511
11
116.161
21
-96.547
0
LINE
8
BLACK
6
CONTINUOUS
10
116.161
20
-96.547
11
116.164
21
-96.5428
0
LINE
8
BLACK
6
CONTINUOUS
10
116.164
20
-96.5428
11
116.164
21
-96.5427
0
LINE
8
BLACK
6
CONTINUOUS
10
116.164
20
-96.5427
11
116.164
21
-96.5426
0
LINE
8
BLACK
6
CONTINUOUS
10
116.164
20
-96.5426
11
116.167
21
-96.539
0
LINE
8
BLACK
6
CONTINUOUS
10
116.167
20
-96.539
11
116.17
21
-96.5353
0
LINE
8
BLACK
6
CONTINUOUS
10
116.17
20
-96.5353
11
116.17
21
-96.5352
0
LINE
8
BLACK
6
CONTINUOUS
10
116.17
20
-96.5352
11
116.17
21
-96.5351
0
LINE
8
BLACK
6
CONTINUOUS
10
116.17
20
-96.5351
11
116.174
21
-96.5322
0
LINE
8
BLACK
6
CONTINUOUS
10
116.174
20
-96.5322
11
116.177
21
-96.5292
0
LINE
8
BLACK
6
CONTINUOUS
10
116.177
20
-96.5292
11
116.177
21
-96.5291
0
LINE
8
BLACK
6
CONTINUOUS
10
116.177
20
-96.5291
11
116.178
21
-96.529
0
LINE
8
BLACK
6
CONTINUOUS
10
116.178
20
-96.529
11
116.182
21
-96.5268
0
LINE
8
BLACK
6
CONTINUOUS
10
116.182
20
-96.5268
11
116.186
21
-96.5246
0
LINE
8
BLACK
6
CONTINUOUS
10
116.186
20
-96.5246
11
116.186
21
-96.5245
0
LINE
8
BLACK
6
CONTINUOUS
10
116.186
20
-96.5245
11
116.186
21
-96.5244
0
LINE
8
BLACK
6
CONTINUOUS
10
116.186
20
-96.5244
11
116.191
21
-96.5231
0
LINE
8
BLACK
6
CONTINUOUS
10
116.191
20
-96.5231
11
116.195
21
-96.5218
0
LINE
8
BLACK
6
CONTINUOUS
10
116.195
20
-96.5218
11
116.195
21
-96.5217
0
LINE
8
BLACK
6
CONTINUOUS
10
116.195
20
-96.5217
11
116.196
21
-96.5217
0
LINE
8
BLACK
6
CONTINUOUS
10
116.196
20
-96.5217
11
116.2
21
-96.5213
0
LINE
8
BLACK
6
CONTINUOUS
10
116.2
20
-96.5213
11
116.205
21
-96.5208
0
LINE
8
BLACK
6
CONTINUOUS
10
116.205
20
-96.5208
11
116.84
21
-96.5208
0
LINE
8
BLACK
6
CONTINUOUS
10
116.84
20
-96.5208
11
116.84
21
-96.5208
0
LINE
8
BLACK
6
CONTINUOUS
10
120.65
20
-96.5208
11
120.65
21
-96.5208
0
LINE
8
BLACK
6
CONTINUOUS
10
120.65
20
-96.5208
11
120.65
21
-96.5208
0
LINE
8
BLACK
6
CONTINUOUS
10
120.65
20
-96.5208
11
120.651
21
-96.5208
0
LINE
8
BLACK
6
CONTINUOUS
10
120.651
20
-96.5208
11
120.655
21
-96.5213
0
LINE
8
BLACK
6
CONTINUOUS
10
120.655
20
-96.5213
11
120.66
21
-96.5218
0
LINE
8
BLACK
6
CONTINUOUS
10
120.66
20
-96.5218
11
120.66
21
-96.5219
0
LINE
8
BLACK
6
CONTINUOUS
10
120.66
20
-96.5219
11
120.66
21
-96.5219
0
LINE
8
BLACK
6
CONTINUOUS
10
120.66
20
-96.5219
11
120.665
21
-96.5233
0
LINE
8
BLACK
6
CONTINUOUS
10
120.665
20
-96.5233
11
120.669
21
-96.5247
0
LINE
8
BLACK
6
CONTINUOUS
10
120.669
20
-96.5247
11
120.67
21
-96.5248
0
LINE
8
BLACK
6
CONTINUOUS
10
120.67
20
-96.5248
11
120.67
21
-96.5248
0
LINE
8
BLACK
6
CONTINUOUS
10
120.67
20
-96.5248
11
120.674
21
-96.5271
0
LINE
8
BLACK
6
CONTINUOUS
10
120.674
20
-96.5271
11
120.678
21
-96.5293
0
LINE
8
BLACK
6
CONTINUOUS
10
120.678
20
-96.5293
11
120.678
21
-96.5295
0
LINE
8
BLACK
6
CONTINUOUS
10
120.678
20
-96.5295
11
120.678
21
-96.5295
0
LINE
8
BLACK
6
CONTINUOUS
10
120.678
20
-96.5295
11
120.682
21
-96.5325
0
LINE
8
BLACK
6
CONTINUOUS
10
120.682
20
-96.5325
11
120.685
21
-96.5356
0
LINE
8
BLACK
6
CONTINUOUS
10
120.685
20
-96.5356
11
120.686
21
-96.5357
0
LINE
8
BLACK
6
CONTINUOUS
10
120.686
20
-96.5357
11
120.686
21
-96.5358
0
LINE
8
BLACK
6
CONTINUOUS
10
120.686
20
-96.5358
11
120.689
21
-96.5394
0
LINE
8
BLACK
6
CONTINUOUS
10
120.689
20
-96.5394
11
120.692
21
-96.5431
0
LINE
8
BLACK
6
CONTINUOUS
10
120.692
20
-96.5431
11
120.692
21
-96.5433
0
LINE
8
BLACK
6
CONTINUOUS
10
120.692
20
-96.5433
11
120.692
21
-96.5434
0
LINE
8
BLACK
6
CONTINUOUS
10
120.692
20
-96.5434
11
120.694
21
-96.5475
0
LINE
8
BLACK
6
CONTINUOUS
10
120.694
20
-96.5475
11
120.696
21
-96.5517
0
LINE
8
BLACK
6
CONTINUOUS
10
120.696
20
-96.5517
11
120.696
21
-96.5519
0
LINE
8
BLACK
6
CONTINUOUS
10
120.696
20
-96.5519
11
120.696
21
-96.5521
0
LINE
8
BLACK
6
CONTINUOUS
10
120.696
20
-96.5521
11
120.698
21
-96.5565
0
LINE
8
BLACK
6
CONTINUOUS
10
120.698
20
-96.5565
11
120.699
21
-96.5611
0
LINE
8
BLACK
6
CONTINUOUS
10
120.699
20
-96.5611
11
120.699
21
-96.5613
0
LINE
8
BLACK
6
CONTINUOUS
10
120.699
20
-96.5613
11
120.699
21
-96.5614
0
LINE
8
BLACK
6
CONTINUOUS
10
120.699
20
-96.5614
11
120.7
21
-96.5661
0
LINE
8
BLACK
6
CONTINUOUS
10
120.7
20
-96.5661
11
120.7
21
-96.5708
0
LINE
8
BLACK
6
CONTINUOUS
10
120.7
20
-96.5708
11
120.7
21
-97.2058
0
LINE
8
BLACK
6
CONTINUOUS
10
120.7
20
-97.2058
11
120.7
21
-97.2061
0
LINE
8
BLACK
6
CONTINUOUS
10
120.7
20
-97.2061
11
120.7
21
-97.2061
0
LINE
8
BLACK
6
CONTINUOUS
10
120.7
20
-97.2061
11
120.7
21
-97.2062
0
LINE
8
BLACK
6
CONTINUOUS
10
120.7
20
-97.2062
11
120.7
21
-97.2065
0
LINE
8
BLACK
6
CONTINUOUS
10
120.7
20
-97.2065
11
120.699
21
-97.2111
0
LINE
8
BLACK
6
CONTINUOUS
10
120.699
20
-97.2111
11
120.699
21
-97.2159
0
LINE
8
BLACK
6
CONTINUOUS
10
120.699
20
-97.2159
11
120.699
21
-97.216
0
LINE
8
BLACK
6
CONTINUOUS
10
120.699
20
-97.216
11
120.699
21
-97.2162
0
LINE
8
BLACK
6
CONTINUOUS
10
120.699
20
-97.2162
11
120.697
21
-97.2207
0
LINE
8
BLACK
6
CONTINUOUS
10
120.697
20
-97.2207
11
120.696
21
-97.2252
0
LINE
8
BLACK
6
CONTINUOUS
10
120.696
20
-97.2252
11
120.696
21
-97.2253
0
LINE
8
BLACK
6
CONTINUOUS
10
120.696
20
-97.2253
11
120.696
21
-97.2255
0
LINE
8
BLACK
6
CONTINUOUS
10
120.696
20
-97.2255
11
120.694
21
-97.2296
0
LINE
8
BLACK
6
CONTINUOUS
10
120.694
20
-97.2296
11
120.691
21
-97.2338
0
LINE
8
BLACK
6
CONTINUOUS
10
120.691
20
-97.2338
11
120.691
21
-97.2339
0
LINE
8
BLACK
6
CONTINUOUS
10
120.691
20
-97.2339
11
120.691
21
-97.234
0
LINE
8
BLACK
6
CONTINUOUS
10
120.691
20
-97.234
11
120.688
21
-97.2376
0
LINE
8
BLACK
6
CONTINUOUS
10
120.688
20
-97.2376
11
120.685
21
-97.2413
0
LINE
8
BLACK
6
CONTINUOUS
10
120.685
20
-97.2413
11
120.685
21
-97.2414
0
LINE
8
BLACK
6
CONTINUOUS
10
120.685
20
-97.2414
11
120.685
21
-97.2415
0
LINE
8
BLACK
6
CONTINUOUS
10
120.685
20
-97.2415
11
120.681
21
-97.2444
0
LINE
8
BLACK
6
CONTINUOUS
10
120.681
20
-97.2444
11
120.678
21
-97.2474
0
LINE
8
BLACK
6
CONTINUOUS
10
120.678
20
-97.2474
11
120.678
21
-97.2475
0
LINE
8
BLACK
6
CONTINUOUS
10
120.678
20
-97.2475
11
120.677
21
-97.2476
0
LINE
8
BLACK
6
CONTINUOUS
10
120.677
20
-97.2476
11
120.673
21
-97.2498
0
LINE
8
BLACK
6
CONTINUOUS
10
120.673
20
-97.2498
11
120.669
21
-97.252
0
LINE
8
BLACK
6
CONTINUOUS
10
120.669
20
-97.252
11
120.669
21
-97.2521
0
LINE
8
BLACK
6
CONTINUOUS
10
120.669
20
-97.2521
11
120.669
21
-97.2522
0
LINE
8
BLACK
6
CONTINUOUS
10
120.669
20
-97.2522
11
120.664
21
-97.2535
0
LINE
8
BLACK
6
CONTINUOUS
10
120.664
20
-97.2535
11
120.66
21
-97.2548
0
LINE
8
BLACK
6
CONTINUOUS
10
120.66
20
-97.2548
11
120.66
21
-97.2549
0
LINE
8
BLACK
6
CONTINUOUS
10
120.66
20
-97.2549
11
120.659
21
-97.2549
0
LINE
8
BLACK
6
CONTINUOUS
10
120.659
20
-97.2549
11
120.655
21
-97.2553
0
LINE
8
BLACK
6
CONTINUOUS
10
120.655
20
-97.2553
11
120.65
21
-97.2558
0
LINE
8
BLACK
6
CONTINUOUS
10
120.65
20
-97.2558
11
120.015
21
-97.2558
0
LINE
8
BLACK
6
CONTINUOUS
10
120.015
20
-97.2558
11
120.015
21
-97.2558
0
LINE
8
BLACK
6
CONTINUOUS
10
120.015
20
-97.2558
11
120.015
21
-97.2558
0
LINE
8
BLACK
6
CONTINUOUS
10
120.015
20
-97.2558
11
120.015
21
-97.2558
0
LINE
8
BLACK
6
CONTINUOUS
10
120.015
20
-97.2558
11
120.014
21
-97.2558
0
LINE
8
BLACK
6
CONTINUOUS
10
120.014
20
-97.2558
11
120.01
21
-97.2553
0
LINE
8
BLACK
6
CONTINUOUS
10
120.01
20
-97.2553
11
120.005
21
-97.2548
0
LINE
8
BLACK
6
CONTINUOUS
10
120.005
20
-97.2548
11
120.005
21
-97.2547
0
LINE
8
BLACK
6
CONTINUOUS
10
120.005
20
-97.2547
11
120.005
21
-97.2547
0
LINE
8
BLACK
6
CONTINUOUS
10
120.005
20
-97.2547
11
120
21
-97.2533
0
LINE
8
BLACK
6
CONTINUOUS
10
120
20
-97.2533
11
119.996
21
-97.2519
0
LINE
8
BLACK
6
CONTINUOUS
10
119.996
20
-97.2519
11
119.995
21
-97.2518
0
LINE
8
BLACK
6
CONTINUOUS
10
119.995
20
-97.2518
11
119.995
21
-97.2518
0
LINE
8
BLACK
6
CONTINUOUS
10
119.995
20
-97.2518
11
119.991
21
-97.2495
0
LINE
8
BLACK
6
CONTINUOUS
10
119.991
20
-97.2495
11
119.987
21
-97.2473
0
LINE
8
BLACK
6
CONTINUOUS
10
119.987
20
-97.2473
11
119.987
21
-97.2471
0
LINE
8
BLACK
6
CONTINUOUS
10
119.987
20
-97.2471
11
119.987
21
-97.2471
0
LINE
8
BLACK
6
CONTINUOUS
10
119.987
20
-97.2471
11
119.983
21
-97.2441
0
LINE
8
BLACK
6
CONTINUOUS
10
119.983
20
-97.2441
11
119.98
21
-97.241
0
LINE
8
BLACK
6
CONTINUOUS
10
119.98
20
-97.241
11
119.979
21
-97.2409
0
LINE
8
BLACK
6
CONTINUOUS
10
119.979
20
-97.2409
11
119.979
21
-97.2408
0
LINE
8
BLACK
6
CONTINUOUS
10
119.979
20
-97.2408
11
119.976
21
-97.2372
0
LINE
8
BLACK
6
CONTINUOUS
10
119.976
20
-97.2372
11
119.973
21
-97.2335
0
LINE
8
BLACK
6
CONTINUOUS
10
119.973
20
-97.2335
11
119.973
21
-97.2333
0
LINE
8
BLACK
6
CONTINUOUS
10
119.973
20
-97.2333
11
119.973
21
-97.2332
0
LINE
8
BLACK
6
CONTINUOUS
10
119.973
20
-97.2332
11
119.971
21
-97.2291
0
LINE
8
BLACK
6
CONTINUOUS
10
119.971
20
-97.2291
11
119.969
21
-97.2249
0
LINE
8
BLACK
6
CONTINUOUS
10
119.969
20
-97.2249
11
119.969
21
-97.2247
0
LINE
8
BLACK
6
CONTINUOUS
10
119.969
20
-97.2247
11
119.969
21
-97.2245
0
LINE
8
BLACK
6
CONTINUOUS
10
119.969
20
-97.2245
11
119.967
21
-97.2201
0
LINE
8
BLACK
6
CONTINUOUS
10
119.967
20
-97.2201
11
119.966
21
-97.2155
0
LINE
8
BLACK
6
CONTINUOUS
10
119.966
20
-97.2155
11
119.966
21
-97.2153
0
LINE
8
BLACK
6
CONTINUOUS
10
119.966
20
-97.2153
11
119.966
21
-97.2152
0
LINE
8
BLACK
6
CONTINUOUS
10
119.966
20
-97.2152
11
119.965
21
-97.2105
0
LINE
8
BLACK
6
CONTINUOUS
10
119.965
20
-97.2105
11
119.965
21
-97.2058
0
LINE
8
BLACK
6
CONTINUOUS
10
119.965
20
-97.2058
11
119.965
21
-96.5708
0
LINE
8
BLACK
6
CONTINUOUS
10
119.965
20
-96.5708
11
119.965
21
-96.5705
0
LINE
8
BLACK
6
CONTINUOUS
10
119.965
20
-96.5705
11
119.965
21
-96.5705
0
LINE
8
BLACK
6
CONTINUOUS
10
119.965
20
-96.5705
11
119.965
21
-96.5704
0
LINE
8
BLACK
6
CONTINUOUS
10
119.965
20
-96.5704
11
119.965
21
-96.5701
0
LINE
8
BLACK
6
CONTINUOUS
10
119.965
20
-96.5701
11
119.966
21
-96.5655
0
LINE
8
BLACK
6
CONTINUOUS
10
119.966
20
-96.5655
11
119.966
21
-96.5607
0
LINE
8
BLACK
6
CONTINUOUS
10
119.966
20
-96.5607
11
119.966
21
-96.5606
0
LINE
8
BLACK
6
CONTINUOUS
10
119.966
20
-96.5606
11
119.966
21
-96.5604
0
LINE
8
BLACK
6
CONTINUOUS
10
119.966
20
-96.5604
11
119.968
21
-96.5559
0
LINE
8
BLACK
6
CONTINUOUS
10
119.968
20
-96.5559
11
119.969
21
-96.5514
0
LINE
8
BLACK
6
CONTINUOUS
10
119.969
20
-96.5514
11
119.969
21
-96.5513
0
LINE
8
BLACK
6
CONTINUOUS
10
119.969
20
-96.5513
11
119.969
21
-96.5511
0
LINE
8
BLACK
6
CONTINUOUS
10
119.969
20
-96.5511
11
119.971
21
-96.547
0
LINE
8
BLACK
6
CONTINUOUS
10
119.971
20
-96.547
11
119.974
21
-96.5428
0
LINE
8
BLACK
6
CONTINUOUS
10
119.974
20
-96.5428
11
119.974
21
-96.5427
0
LINE
8
BLACK
6
CONTINUOUS
10
119.974
20
-96.5427
11
119.974
21
-96.5426
0
LINE
8
BLACK
6
CONTINUOUS
10
119.974
20
-96.5426
11
119.977
21
-96.539
0
LINE
8
BLACK
6
CONTINUOUS
10
119.977
20
-96.539
11
119.98
21
-96.5353
0
LINE
8
BLACK
6
CONTINUOUS
10
119.98
20
-96.5353
11
119.98
21
-96.5352
0
LINE
8
BLACK
6
CONTINUOUS
10
119.98
20
-96.5352
11
119.98
21
-96.5351
0
LINE
8
BLACK
6
CONTINUOUS
10
119.98
20
-96.5351
11
119.984
21
-96.5322
0
LINE
8
BLACK
6
CONTINUOUS
10
119.984
20
-96.5322
11
119.987
21
-96.5292
0
LINE
8
BLACK
6
CONTINUOUS
10
119.987
20
-96.5292
11
119.987
21
-96.5291
0
LINE
8
BLACK
6
CONTINUOUS
10
119.987
20
-96.5291
11
119.988
21
-96.529
0
LINE
8
BLACK
6
CONTINUOUS
10
119.988
20
-96.529
11
119.992
21
-96.5268
0
LINE
8
BLACK
6
CONTINUOUS
10
119.992
20
-96.5268
11
119.996
21
-96.5246
0
LINE
8
BLACK
6
CONTINUOUS
10
119.996
20
-96.5246
11
119.996
21
-96.5245
0
LINE
8
BLACK
6
CONTINUOUS
10
119.996
20
-96.5245
11
119.996
21
-96.5244
0
LINE
8
BLACK
6
CONTINUOUS
10
119.996
20
-96.5244
11
120.001
21
-96.5231
0
LINE
8
BLACK
6
CONTINUOUS
10
120.001
20
-96.5231
11
120.005
21
-96.5218
0
LINE
8
BLACK
6
CONTINUOUS
10
120.005
20
-96.5218
11
120.005
21
-96.5217
0
LINE
8
BLACK
6
CONTINUOUS
10
120.005
20
-96.5217
11
120.006
21
-96.5217
0
LINE
8
BLACK
6
CONTINUOUS
10
120.006
20
-96.5217
11
120.01
21
-96.5213
0
LINE
8
BLACK
6
CONTINUOUS
10
120.01
20
-96.5213
11
120.015
21
-96.5208
0
LINE
8
BLACK
6
CONTINUOUS
10
120.015
20
-96.5208
11
120.65
21
-96.5208
0
LINE
8
BLACK
6
CONTINUOUS
10
120.65
20
-96.5208
11
120.65
21
-96.5208
0
LINE
8
BLACK
6
CONTINUOUS
10
149.989
20
-93.4911
11
150.308
21
-93.623
0
LINE
8
BLACK
6
CONTINUOUS
10
150.308
20
-93.623
11
150.595
21
-93.8145
0
LINE
8
BLACK
6
CONTINUOUS
10
150.595
20
-93.8145
11
150.838
21
-94.0582
0
LINE
8
BLACK
6
CONTINUOUS
10
150.838
20
-94.0582
11
151.03
21
-94.3449
0
LINE
8
BLACK
6
CONTINUOUS
10
151.03
20
-94.3449
11
151.162
21
-94.6633
0
LINE
8
BLACK
6
CONTINUOUS
10
151.162
20
-94.6633
11
151.229
21
-95.0014
0
LINE
8
BLACK
6
CONTINUOUS
10
151.229
20
-95.0014
11
151.229
21
-95.3462
0
LINE
8
BLACK
6
CONTINUOUS
10
151.229
20
-95.3462
11
151.162
21
-95.6843
0
LINE
8
BLACK
6
CONTINUOUS
10
151.162
20
-95.6843
11
151.03
21
-96.0027
0
LINE
8
BLACK
6
CONTINUOUS
10
151.03
20
-96.0027
11
150.838
21
-96.2894
0
LINE
8
BLACK
6
CONTINUOUS
10
150.838
20
-96.2894
11
150.595
21
-96.5331
0
LINE
8
BLACK
6
CONTINUOUS
10
150.595
20
-96.5331
11
150.308
21
-96.7246
0
LINE
8
BLACK
6
CONTINUOUS
10
150.308
20
-96.7246
11
149.989
21
-96.8565
0
LINE
8
BLACK
6
CONTINUOUS
10
149.989
20
-96.8565
11
149.651
21
-96.9238
0
LINE
8
BLACK
6
CONTINUOUS
10
149.651
20
-96.9238
11
149.307
21
-96.9238
0
LINE
8
BLACK
6
CONTINUOUS
10
149.307
20
-96.9238
11
148.969
21
-96.8565
0
LINE
8
BLACK
6
CONTINUOUS
10
148.969
20
-96.8565
11
148.65
21
-96.7246
0
LINE
8
BLACK
6
CONTINUOUS
10
148.65
20
-96.7246
11
148.363
21
-96.5331
0
LINE
8
BLACK
6
CONTINUOUS
10
148.363
20
-96.5331
11
148.12
21
-96.2894
0
LINE
8
BLACK
6
CONTINUOUS
10
148.12
20
-96.2894
11
147.928
21
-96.0027
0
LINE
8
BLACK
6
CONTINUOUS
10
147.928
20
-96.0027
11
147.796
21
-95.6843
0
LINE
8
BLACK
6
CONTINUOUS
10
147.796
20
-95.6843
11
147.729
21
-95.3462
0
LINE
8
BLACK
6
CONTINUOUS
10
147.729
20
-95.3462
11
147.729
21
-95.0014
0
LINE
8
BLACK
6
CONTINUOUS
10
147.729
20
-95.0014
11
147.796
21
-94.6633
0
LINE
8
BLACK
6
CONTINUOUS
10
147.796
20
-94.6633
11
147.928
21
-94.3449
0
LINE
8
BLACK
6
CONTINUOUS
10
147.928
20
-94.3449
11
148.12
21
-94.0582
0
LINE
8
BLACK
6
CONTINUOUS
10
148.12
20
-94.0582
11
148.363
21
-93.8145
0
LINE
8
BLACK
6
CONTINUOUS
10
148.363
20
-93.8145
11
148.65
21
-93.623
0
LINE
8
BLACK
6
CONTINUOUS
10
148.65
20
-93.623
11
148.969
21
-93.4911
0
LINE
8
BLACK
6
CONTINUOUS
10
148.969
20
-93.4911
11
149.307
21
-93.4238
0
LINE
8
BLACK
6
CONTINUOUS
10
149.307
20
-93.4238
11
149.651
21
-93.4238
0
LINE
8
BLACK
6
CONTINUOUS
10
149.651
20
-93.4238
11
149.989
21
-93.4911
0
LINE
8
BLACK
6
CONTINUOUS
10
90.0201
20
-93.453
11
90.3385
21
-93.5849
0
LINE
8
BLACK
6
CONTINUOUS
10
90.3385
20
-93.5849
11
90.6252
21
-93.7764
0
LINE
8
BLACK
6
CONTINUOUS
10
90.6252
20
-93.7764
11
90.8689
21
-94.0201
0
LINE
8
BLACK
6
CONTINUOUS
10
90.8689
20
-94.0201
11
91.0604
21
-94.3068
0
LINE
8
BLACK
6
CONTINUOUS
10
91.0604
20
-94.3068
11
91.1923
21
-94.6252
0
LINE
8
BLACK
6
CONTINUOUS
10
91.1923
20
-94.6252
11
91.2596
21
-94.9633
0
LINE
8
BLACK
6
CONTINUOUS
10
91.2596
20
-94.9633
11
91.2596
21
-95.3081
0
LINE
8
BLACK
6
CONTINUOUS
10
91.2596
20
-95.3081
11
91.1923
21
-95.6462
0
LINE
8
BLACK
6
CONTINUOUS
10
91.1923
20
-95.6462
11
91.0604
21
-95.9646
0
LINE
8
BLACK
6
CONTINUOUS
10
91.0604
20
-95.9646
11
90.8689
21
-96.2513
0
LINE
8
BLACK
6
CONTINUOUS
10
90.8689
20
-96.2513
11
90.6252
21
-96.495
0
LINE
8
BLACK
6
CONTINUOUS
10
90.6252
20
-96.495
11
90.3385
21
-96.6865
0
LINE
8
BLACK
6
CONTINUOUS
10
90.3385
20
-96.6865
11
90.0201
21
-96.8184
0
LINE
8
BLACK
6
CONTINUOUS
10
90.0201
20
-96.8184
11
89.682
21
-96.8857
0
LINE
8
BLACK
6
CONTINUOUS
10
89.682
20
-96.8857
11
89.3372
21
-96.8857
0
LINE
8
BLACK
6
CONTINUOUS
10
89.3372
20
-96.8857
11
88.9991
21
-96.8184
0
LINE
8
BLACK
6
CONTINUOUS
10
88.9991
20
-96.8184
11
88.6807
21
-96.6865
0
LINE
8
BLACK
6
CONTINUOUS
10
88.6807
20
-96.6865
11
88.394
21
-96.495
0
LINE
8
BLACK
6
CONTINUOUS
10
88.394
20
-96.495
11
88.1503
21
-96.2513
0
LINE
8
BLACK
6
CONTINUOUS
10
88.1503
20
-96.2513
11
87.9588
21
-95.9646
0
LINE
8
BLACK
6
CONTINUOUS
10
87.9588
20
-95.9646
11
87.8269
21
-95.6462
0
LINE
8
BLACK
6
CONTINUOUS
10
87.8269
20
-95.6462
11
87.7596
21
-95.3081
0
LINE
8
BLACK
6
CONTINUOUS
10
87.7596
20
-95.3081
11
87.7596
21
-94.9633
0
LINE
8
BLACK
6
CONTINUOUS
10
87.7596
20
-94.9633
11
87.8269
21
-94.6252
0
LINE
8
BLACK
6
CONTINUOUS
10
87.8269
20
-94.6252
11
87.9588
21
-94.3068
0
LINE
8
BLACK
6
CONTINUOUS
10
87.9588
20
-94.3068
11
88.1503
21
-94.0201
0
LINE
8
BLACK
6
CONTINUOUS
10
88.1503
20
-94.0201
11
88.394
21
-93.7764
0
LINE
8
BLACK
6
CONTINUOUS
10
88.394
20
-93.7764
11
88.6807
21
-93.5849
0
LINE
8
BLACK
6
CONTINUOUS
10
88.6807
20
-93.5849
11
88.9991
21
-93.453
0
LINE
8
BLACK
6
CONTINUOUS
10
88.9991
20
-93.453
11
89.3372
21
-93.3857
0
LINE
8
BLACK
6
CONTINUOUS
10
89.3372
20
-93.3857
11
89.682
21
-93.3857
0
LINE
8
BLACK
6
CONTINUOUS
10
89.682
20
-93.3857
11
90.0201
21
-93.453
0
LINE
8
BLACK
6
CONTINUOUS
10
116.205
20
-95.2508
11
116.205
21
-95.2508
0
LINE
8
BLACK
6
CONTINUOUS
10
116.205
20
-95.2508
11
116.205
21
-95.2508
0
LINE
8
BLACK
6
CONTINUOUS
10
116.205
20
-95.2508
11
116.206
21
-95.2508
0
LINE
8
BLACK
6
CONTINUOUS
10
116.206
20
-95.2508
11
116.21
21
-95.2513
0
LINE
8
BLACK
6
CONTINUOUS
10
116.21
20
-95.2513
11
116.215
21
-95.2518
0
LINE
8
BLACK
6
CONTINUOUS
10
116.215
20
-95.2518
11
116.215
21
-95.2519
0
LINE
8
BLACK
6
CONTINUOUS
10
116.215
20
-95.2519
11
116.215
21
-95.2519
0
LINE
8
BLACK
6
CONTINUOUS
10
116.215
20
-95.2519
11
116.22
21
-95.2533
0
LINE
8
BLACK
6
CONTINUOUS
10
116.22
20
-95.2533
11
116.224
21
-95.2547
0
LINE
8
BLACK
6
CONTINUOUS
10
116.224
20
-95.2547
11
116.225
21
-95.2548
0
LINE
8
BLACK
6
CONTINUOUS
10
116.225
20
-95.2548
11
116.225
21
-95.2548
0
LINE
8
BLACK
6
CONTINUOUS
10
116.225
20
-95.2548
11
116.229
21
-95.2571
0
LINE
8
BLACK
6
CONTINUOUS
10
116.229
20
-95.2571
11
116.233
21
-95.2593
0
LINE
8
BLACK
6
CONTINUOUS
10
116.233
20
-95.2593
11
116.233
21
-95.2595
0
LINE
8
BLACK
6
CONTINUOUS
10
116.233
20
-95.2595
11
116.233
21
-95.2595
0
LINE
8
BLACK
6
CONTINUOUS
10
116.233
20
-95.2595
11
116.237
21
-95.2625
0
LINE
8
BLACK
6
CONTINUOUS
10
116.237
20
-95.2625
11
116.24
21
-95.2656
0
LINE
8
BLACK
6
CONTINUOUS
10
116.24
20
-95.2656
11
116.241
21
-95.2657
0
LINE
8
BLACK
6
CONTINUOUS
10
116.241
20
-95.2657
11
116.241
21
-95.2658
0
LINE
8
BLACK
6
CONTINUOUS
10
116.241
20
-95.2658
11
116.244
21
-95.2694
0
LINE
8
BLACK
6
CONTINUOUS
10
116.244
20
-95.2694
11
116.247
21
-95.2731
0
LINE
8
BLACK
6
CONTINUOUS
10
116.247
20
-95.2731
11
116.247
21
-95.2733
0
LINE
8
BLACK
6
CONTINUOUS
10
116.247
20
-95.2733
11
116.247
21
-95.2734
0
LINE
8
BLACK
6
CONTINUOUS
10
116.247
20
-95.2734
11
116.249
21
-95.2775
0
LINE
8
BLACK
6
CONTINUOUS
10
116.249
20
-95.2775
11
116.251
21
-95.2817
0
LINE
8
BLACK
6
CONTINUOUS
10
116.251
20
-95.2817
11
116.251
21
-95.2819
0
LINE
8
BLACK
6
CONTINUOUS
10
116.251
20
-95.2819
11
116.251
21
-95.2821
0
LINE
8
BLACK
6
CONTINUOUS
10
116.251
20
-95.2821
11
116.253
21
-95.2865
0
LINE
8
BLACK
6
CONTINUOUS
10
116.253
20
-95.2865
11
116.254
21
-95.2911
0
LINE
8
BLACK
6
CONTINUOUS
10
116.254
20
-95.2911
11
116.254
21
-95.2913
0
LINE
8
BLACK
6
CONTINUOUS
10
116.254
20
-95.2913
11
116.254
21
-95.2914
0
LINE
8
BLACK
6
CONTINUOUS
10
116.254
20
-95.2914
11
116.255
21
-95.2961
0
LINE
8
BLACK
6
CONTINUOUS
10
116.255
20
-95.2961
11
116.255
21
-95.3008
0
LINE
8
BLACK
6
CONTINUOUS
10
116.255
20
-95.3008
11
116.255
21
-95.9358
0
LINE
8
BLACK
6
CONTINUOUS
10
116.255
20
-95.9358
11
116.255
21
-95.9361
0
LINE
8
BLACK
6
CONTINUOUS
10
116.255
20
-95.9361
11
116.255
21
-95.9361
0
LINE
8
BLACK
6
CONTINUOUS
10
116.255
20
-95.9361
11
116.255
21
-95.9362
0
LINE
8
BLACK
6
CONTINUOUS
10
116.255
20
-95.9362
11
116.255
21
-95.9365
0
LINE
8
BLACK
6
CONTINUOUS
10
116.255
20
-95.9365
11
116.254
21
-95.9411
0
LINE
8
BLACK
6
CONTINUOUS
10
116.254
20
-95.9411
11
116.254
21
-95.9459
0
LINE
8
BLACK
6
CONTINUOUS
10
116.254
20
-95.9459
11
116.254
21
-95.946
0
LINE
8
BLACK
6
CONTINUOUS
10
116.254
20
-95.946
11
116.254
21
-95.9462
0
LINE
8
BLACK
6
CONTINUOUS
10
116.254
20
-95.9462
11
116.252
21
-95.9507
0
LINE
8
BLACK
6
CONTINUOUS
10
116.252
20
-95.9507
11
116.251
21
-95.9552
0
LINE
8
BLACK
6
CONTINUOUS
10
116.251
20
-95.9552
11
116.251
21
-95.9553
0
LINE
8
BLACK
6
CONTINUOUS
10
116.251
20
-95.9553
11
116.251
21
-95.9555
0
LINE
8
BLACK
6
CONTINUOUS
10
116.251
20
-95.9555
11
116.249
21
-95.9596
0
LINE
8
BLACK
6
CONTINUOUS
10
116.249
20
-95.9596
11
116.246
21
-95.9638
0
LINE
8
BLACK
6
CONTINUOUS
10
116.246
20
-95.9638
11
116.246
21
-95.9639
0
LINE
8
BLACK
6
CONTINUOUS
10
116.246
20
-95.9639
11
116.246
21
-95.964
0
LINE
8
BLACK
6
CONTINUOUS
10
116.246
20
-95.964
11
116.243
21
-95.9676
0
LINE
8
BLACK
6
CONTINUOUS
10
116.243
20
-95.9676
11
116.24
21
-95.9713
0
LINE
8
BLACK
6
CONTINUOUS
10
116.24
20
-95.9713
11
116.24
21
-95.9714
0
LINE
8
BLACK
6
CONTINUOUS
10
116.24
20
-95.9714
11
116.24
21
-95.9715
0
LINE
8
BLACK
6
CONTINUOUS
10
116.24
20
-95.9715
11
116.236
21
-95.9744
0
LINE
8
BLACK
6
CONTINUOUS
10
116.236
20
-95.9744
11
116.233
21
-95.9774
0
LINE
8
BLACK
6
CONTINUOUS
10
116.233
20
-95.9774
11
116.233
21
-95.9775
0
LINE
8
BLACK
6
CONTINUOUS
10
116.233
20
-95.9775
11
116.232
21
-95.9776
0
LINE
8
BLACK
6
CONTINUOUS
10
116.232
20
-95.9776
11
116.228
21
-95.9798
0
LINE
8
BLACK
6
CONTINUOUS
10
116.228
20
-95.9798
11
116.224
21
-95.982
0
LINE
8
BLACK
6
CONTINUOUS
10
116.224
20
-95.982
11
116.224
21
-95.9821
0
LINE
8
BLACK
6
CONTINUOUS
10
116.224
20
-95.9821
11
116.224
21
-95.9822
0
LINE
8
BLACK
6
CONTINUOUS
10
116.224
20
-95.9822
11
116.219
21
-95.9835
0
LINE
8
BLACK
6
CONTINUOUS
10
116.219
20
-95.9835
11
116.215
21
-95.9848
0
LINE
8
BLACK
6
CONTINUOUS
10
116.215
20
-95.9848
11
116.215
21
-95.9849
0
LINE
8
BLACK
6
CONTINUOUS
10
116.215
20
-95.9849
11
116.214
21
-95.9849
0
LINE
8
BLACK
6
CONTINUOUS
10
116.214
20
-95.9849
11
116.21
21
-95.9853
0
LINE
8
BLACK
6
CONTINUOUS
10
116.21
20
-95.9853
11
116.205
21
-95.9858
0
LINE
8
BLACK
6
CONTINUOUS
10
116.205
20
-95.9858
11
115.57
21
-95.9858
0
LINE
8
BLACK
6
CONTINUOUS
10
115.57
20
-95.9858
11
115.57
21
-95.9858
0
LINE
8
BLACK
6
CONTINUOUS
10
115.57
20
-95.9858
11
115.57
21
-95.9858
0
LINE
8
BLACK
6
CONTINUOUS
10
115.57
20
-95.9858
11
115.57
21
-95.9858
0
LINE
8
BLACK
6
CONTINUOUS
10
115.57
20
-95.9858
11
115.569
21
-95.9858
0
LINE
8
BLACK
6
CONTINUOUS
10
115.569
20
-95.9858
11
115.565
21
-95.9853
0
LINE
8
BLACK
6
CONTINUOUS
10
115.565
20
-95.9853
11
115.56
21
-95.9848
0
LINE
8
BLACK
6
CONTINUOUS
10
115.56
20
-95.9848
11
115.56
21
-95.9847
0
LINE
8
BLACK
6
CONTINUOUS
10
115.56
20
-95.9847
11
115.56
21
-95.9847
0
LINE
8
BLACK
6
CONTINUOUS
10
115.56
20
-95.9847
11
115.555
21
-95.9833
0
LINE
8
BLACK
6
CONTINUOUS
10
115.555
20
-95.9833
11
115.551
21
-95.9819
0
LINE
8
BLACK
6
CONTINUOUS
10
115.551
20
-95.9819
11
115.55
21
-95.9818
0
LINE
8
BLACK
6
CONTINUOUS
10
115.55
20
-95.9818
11
115.55
21
-95.9818
0
LINE
8
BLACK
6
CONTINUOUS
10
115.55
20
-95.9818
11
115.546
21
-95.9795
0
LINE
8
BLACK
6
CONTINUOUS
10
115.546
20
-95.9795
11
115.542
21
-95.9773
0
LINE
8
BLACK
6
CONTINUOUS
10
115.542
20
-95.9773
11
115.542
21
-95.9771
0
LINE
8
BLACK
6
CONTINUOUS
10
115.542
20
-95.9771
11
115.542
21
-95.9771
0
LINE
8
BLACK
6
CONTINUOUS
10
115.542
20
-95.9771
11
115.538
21
-95.9741
0
LINE
8
BLACK
6
CONTINUOUS
10
115.538
20
-95.9741
11
115.535
21
-95.971
0
LINE
8
BLACK
6
CONTINUOUS
10
115.535
20
-95.971
11
115.534
21
-95.9709
0
LINE
8
BLACK
6
CONTINUOUS
10
115.534
20
-95.9709
11
115.534
21
-95.9708
0
LINE
8
BLACK
6
CONTINUOUS
10
115.534
20
-95.9708
11
115.531
21
-95.9672
0
LINE
8
BLACK
6
CONTINUOUS
10
115.531
20
-95.9672
11
115.528
21
-95.9635
0
LINE
8
BLACK
6
CONTINUOUS
10
115.528
20
-95.9635
11
115.528
21
-95.9633
0
LINE
8
BLACK
6
CONTINUOUS
10
115.528
20
-95.9633
11
115.528
21
-95.9632
0
LINE
8
BLACK
6
CONTINUOUS
10
115.528
20
-95.9632
11
115.526
21
-95.9591
0
LINE
8
BLACK
6
CONTINUOUS
10
115.526
20
-95.9591
11
115.524
21
-95.9549
0
LINE
8
BLACK
6
CONTINUOUS
10
115.524
20
-95.9549
11
115.524
21
-95.9547
0
LINE
8
BLACK
6
CONTINUOUS
10
115.524
20
-95.9547
11
115.524
21
-95.9545
0
LINE
8
BLACK
6
CONTINUOUS
10
115.524
20
-95.9545
11
115.522
21
-95.9501
0
LINE
8
BLACK
6
CONTINUOUS
10
115.522
20
-95.9501
11
115.521
21
-95.9455
0
LINE
8
BLACK
6
CONTINUOUS
10
115.521
20
-95.9455
11
115.521
21
-95.9453
0
LINE
8
BLACK
6
CONTINUOUS
10
115.521
20
-95.9453
11
115.521
21
-95.9452
0
LINE
8
BLACK
6
CONTINUOUS
10
115.521
20
-95.9452
11
115.52
21
-95.9405
0
LINE
8
BLACK
6
CONTINUOUS
10
115.52
20
-95.9405
11
115.52
21
-95.9358
0
LINE
8
BLACK
6
CONTINUOUS
10
115.52
20
-95.9358
11
115.52
21
-95.3008
0
LINE
8
BLACK
6
CONTINUOUS
10
115.52
20
-95.3008
11
115.52
21
-95.3005
0
LINE
8
BLACK
6
CONTINUOUS
10
115.52
20
-95.3005
11
115.52
21
-95.3005
0
LINE
8
BLACK
6
CONTINUOUS
10
115.52
20
-95.3005
11
115.52
21
-95.3004
0
LINE
8
BLACK
6
CONTINUOUS
10
115.52
20
-95.3004
11
115.52
21
-95.3001
0
LINE
8
BLACK
6
CONTINUOUS
10
115.52
20
-95.3001
11
115.521
21
-95.2955
0
LINE
8
BLACK
6
CONTINUOUS
10
115.521
20
-95.2955
11
115.521
21
-95.2907
0
LINE
8
BLACK
6
CONTINUOUS
10
115.521
20
-95.2907
11
115.521
21
-95.2906
0
LINE
8
BLACK
6
CONTINUOUS
10
115.521
20
-95.2906
11
115.521
21
-95.2904
0
LINE
8
BLACK
6
CONTINUOUS
10
115.521
20
-95.2904
11
115.523
21
-95.2859
0
LINE
8
BLACK
6
CONTINUOUS
10
115.523
20
-95.2859
11
115.524
21
-95.2814
0
LINE
8
BLACK
6
CONTINUOUS
10
115.524
20
-95.2814
11
115.524
21
-95.2813
0
LINE
8
BLACK
6
CONTINUOUS
10
115.524
20
-95.2813
11
115.524
21
-95.2811
0
LINE
8
BLACK
6
CONTINUOUS
10
115.524
20
-95.2811
11
115.526
21
-95.277
0
LINE
8
BLACK
6
CONTINUOUS
10
115.526
20
-95.277
11
115.529
21
-95.2728
0
LINE
8
BLACK
6
CONTINUOUS
10
115.529
20
-95.2728
11
115.529
21
-95.2727
0
LINE
8
BLACK
6
CONTINUOUS
10
115.529
20
-95.2727
11
115.529
21
-95.2726
0
LINE
8
BLACK
6
CONTINUOUS
10
115.529
20
-95.2726
11
115.532
21
-95.269
0
LINE
8
BLACK
6
CONTINUOUS
10
115.532
20
-95.269
11
115.535
21
-95.2653
0
LINE
8
BLACK
6
CONTINUOUS
10
115.535
20
-95.2653
11
115.535
21
-95.2652
0
LINE
8
BLACK
6
CONTINUOUS
10
115.535
20
-95.2652
11
115.535
21
-95.2651
0
LINE
8
BLACK
6
CONTINUOUS
10
115.535
20
-95.2651
11
115.539
21
-95.2622
0
LINE
8
BLACK
6
CONTINUOUS
10
115.539
20
-95.2622
11
115.542
21
-95.2592
0
LINE
8
BLACK
6
CONTINUOUS
10
115.542
20
-95.2592
11
115.542
21
-95.2591
0
LINE
8
BLACK
6
CONTINUOUS
10
115.542
20
-95.2591
11
115.543
21
-95.259
0
LINE
8
BLACK
6
CONTINUOUS
10
115.543
20
-95.259
11
115.547
21
-95.2568
0
LINE
8
BLACK
6
CONTINUOUS
10
115.547
20
-95.2568
11
115.551
21
-95.2546
0
LINE
8
BLACK
6
CONTINUOUS
10
115.551
20
-95.2546
11
115.551
21
-95.2545
0
LINE
8
BLACK
6
CONTINUOUS
10
115.551
20
-95.2545
11
115.551
21
-95.2544
0
LINE
8
BLACK
6
CONTINUOUS
10
115.551
20
-95.2544
11
115.556
21
-95.2531
0
LINE
8
BLACK
6
CONTINUOUS
10
115.556
20
-95.2531
11
115.56
21
-95.2518
0
LINE
8
BLACK
6
CONTINUOUS
10
115.56
20
-95.2518
11
115.56
21
-95.2517
0
LINE
8
BLACK
6
CONTINUOUS
10
115.56
20
-95.2517
11
115.561
21
-95.2517
0
LINE
8
BLACK
6
CONTINUOUS
10
115.561
20
-95.2517
11
115.565
21
-95.2513
0
LINE
8
BLACK
6
CONTINUOUS
10
115.565
20
-95.2513
11
115.57
21
-95.2508
0
LINE
8
BLACK
6
CONTINUOUS
10
115.57
20
-95.2508
11
116.205
21
-95.2508
0
LINE
8
BLACK
6
CONTINUOUS
10
116.205
20
-95.2508
11
116.205
21
-95.2508
0
LINE
8
BLACK
6
CONTINUOUS
10
120.65
20
-94.6158
11
120.65
21
-94.6158
0
LINE
8
BLACK
6
CONTINUOUS
10
120.65
20
-94.6158
11
120.65
21
-94.6158
0
LINE
8
BLACK
6
CONTINUOUS
10
120.65
20
-94.6158
11
120.651
21
-94.6158
0
LINE
8
BLACK
6
CONTINUOUS
10
120.651
20
-94.6158
11
120.655
21
-94.6163
0
LINE
8
BLACK
6
CONTINUOUS
10
120.655
20
-94.6163
11
120.66
21
-94.6168
0
LINE
8
BLACK
6
CONTINUOUS
10
120.66
20
-94.6168
11
120.66
21
-94.6169
0
LINE
8
BLACK
6
CONTINUOUS
10
120.66
20
-94.6169
11
120.66
21
-94.6169
0
LINE
8
BLACK
6
CONTINUOUS
10
120.66
20
-94.6169
11
120.665
21
-94.6183
0
LINE
8
BLACK
6
CONTINUOUS
10
120.665
20
-94.6183
11
120.669
21
-94.6197
0
LINE
8
BLACK
6
CONTINUOUS
10
120.669
20
-94.6197
11
120.67
21
-94.6198
0
LINE
8
BLACK
6
CONTINUOUS
10
120.67
20
-94.6198
11
120.67
21
-94.6198
0
LINE
8
BLACK
6
CONTINUOUS
10
120.67
20
-94.6198
11
120.674
21
-94.6221
0
LINE
8
BLACK
6
CONTINUOUS
10
120.674
20
-94.6221
11
120.678
21
-94.6243
0
LINE
8
BLACK
6
CONTINUOUS
10
120.678
20
-94.6243
11
120.678
21
-94.6245
0
LINE
8
BLACK
6
CONTINUOUS
10
120.678
20
-94.6245
11
120.678
21
-94.6245
0
LINE
8
BLACK
6
CONTINUOUS
10
120.678
20
-94.6245
11
120.682
21
-94.6275
0
LINE
8
BLACK
6
CONTINUOUS
10
120.682
20
-94.6275
11
120.685
21
-94.6306
0
LINE
8
BLACK
6
CONTINUOUS
10
120.685
20
-94.6306
11
120.686
21
-94.6307
0
LINE
8
BLACK
6
CONTINUOUS
10
120.686
20
-94.6307
11
120.686
21
-94.6308
0
LINE
8
BLACK
6
CONTINUOUS
10
120.686
20
-94.6308
11
120.689
21
-94.6344
0
LINE
8
BLACK
6
CONTINUOUS
10
120.689
20
-94.6344
11
120.692
21
-94.6381
0
LINE
8
BLACK
6
CONTINUOUS
10
120.692
20
-94.6381
11
120.692
21
-94.6383
0
LINE
8
BLACK
6
CONTINUOUS
10
120.692
20
-94.6383
11
120.692
21
-94.6384
0
LINE
8
BLACK
6
CONTINUOUS
10
120.692
20
-94.6384
11
120.694
21
-94.6425
0
LINE
8
BLACK
6
CONTINUOUS
10
120.694
20
-94.6425
11
120.696
21
-94.6467
0
LINE
8
BLACK
6
CONTINUOUS
10
120.696
20
-94.6467
11
120.696
21
-94.6469
0
LINE
8
BLACK
6
CONTINUOUS
10
120.696
20
-94.6469
11
120.696
21
-94.6471
0
LINE
8
BLACK
6
CONTINUOUS
10
120.696
20
-94.6471
11
120.698
21
-94.6515
0
LINE
8
BLACK
6
CONTINUOUS
10
120.698
20
-94.6515
11
120.699
21
-94.6561
0
LINE
8
BLACK
6
CONTINUOUS
10
120.699
20
-94.6561
11
120.699
21
-94.6563
0
LINE
8
BLACK
6
CONTINUOUS
10
120.699
20
-94.6563
11
120.699
21
-94.6564
0
LINE
8
BLACK
6
CONTINUOUS
10
120.699
20
-94.6564
11
120.7
21
-94.6611
0
LINE
8
BLACK
6
CONTINUOUS
10
120.7
20
-94.6611
11
120.7
21
-94.6658
0
LINE
8
BLACK
6
CONTINUOUS
10
120.7
20
-94.6658
11
120.7
21
-95.3008
0
LINE
8
BLACK
6
CONTINUOUS
10
120.7
20
-95.3008
11
120.7
21
-95.3011
0
LINE
8
BLACK
6
CONTINUOUS
10
120.7
20
-95.3011
11
120.7
21
-95.3011
0
LINE
8
BLACK
6
CONTINUOUS
10
120.7
20
-95.3011
11
120.7
21
-95.3012
0
LINE
8
BLACK
6
CONTINUOUS
10
120.7
20
-95.3012
11
120.7
21
-95.3015
0
LINE
8
BLACK
6
CONTINUOUS
10
120.7
20
-95.3015
11
120.699
21
-95.3061
0
LINE
8
BLACK
6
CONTINUOUS
10
120.699
20
-95.3061
11
120.699
21
-95.3109
0
LINE
8
BLACK
6
CONTINUOUS
10
120.699
20
-95.3109
11
120.699
21
-95.311
0
LINE
8
BLACK
6
CONTINUOUS
10
120.699
20
-95.311
11
120.699
21
-95.3112
0
LINE
8
BLACK
6
CONTINUOUS
10
120.699
20
-95.3112
11
120.697
21
-95.3157
0
LINE
8
BLACK
6
CONTINUOUS
10
120.697
20
-95.3157
11
120.696
21
-95.3202
0
LINE
8
BLACK
6
CONTINUOUS
10
120.696
20
-95.3202
11
120.696
21
-95.3203
0
LINE
8
BLACK
6
CONTINUOUS
10
120.696
20
-95.3203
11
120.696
21
-95.3205
0
LINE
8
BLACK
6
CONTINUOUS
10
120.696
20
-95.3205
11
120.694
21
-95.3246
0
LINE
8
BLACK
6
CONTINUOUS
10
120.694
20
-95.3246
11
120.691
21
-95.3288
0
LINE
8
BLACK
6
CONTINUOUS
10
120.691
20
-95.3288
11
120.691
21
-95.3289
0
LINE
8
BLACK
6
CONTINUOUS
10
120.691
20
-95.3289
11
120.691
21
-95.329
0
LINE
8
BLACK
6
CONTINUOUS
10
120.691
20
-95.329
11
120.688
21
-95.3326
0
LINE
8
BLACK
6
CONTINUOUS
10
120.688
20
-95.3326
11
120.685
21
-95.3363
0
LINE
8
BLACK
6
CONTINUOUS
10
120.685
20
-95.3363
11
120.685
21
-95.3364
0
LINE
8
BLACK
6
CONTINUOUS
10
120.685
20
-95.3364
11
120.685
21
-95.3365
0
LINE
8
BLACK
6
CONTINUOUS
10
120.685
20
-95.3365
11
120.681
21
-95.3394
0
LINE
8
BLACK
6
CONTINUOUS
10
120.681
20
-95.3394
11
120.678
21
-95.3424
0
LINE
8
BLACK
6
CONTINUOUS
10
120.678
20
-95.3424
11
120.678
21
-95.3425
0
LINE
8
BLACK
6
CONTINUOUS
10
120.678
20
-95.3425
11
120.677
21
-95.3426
0
LINE
8
BLACK
6
CONTINUOUS
10
120.677
20
-95.3426
11
120.673
21
-95.3448
0
LINE
8
BLACK
6
CONTINUOUS
10
120.673
20
-95.3448
11
120.669
21
-95.347
0
LINE
8
BLACK
6
CONTINUOUS
10
120.669
20
-95.347
11
120.669
21
-95.3471
0
LINE
8
BLACK
6
CONTINUOUS
10
120.669
20
-95.3471
11
120.669
21
-95.3472
0
LINE
8
BLACK
6
CONTINUOUS
10
120.669
20
-95.3472
11
120.664
21
-95.3485
0
LINE
8
BLACK
6
CONTINUOUS
10
120.664
20
-95.3485
11
120.66
21
-95.3498
0
LINE
8
BLACK
6
CONTINUOUS
10
120.66
20
-95.3498
11
120.66
21
-95.3499
0
LINE
8
BLACK
6
CONTINUOUS
10
120.66
20
-95.3499
11
120.659
21
-95.3499
0
LINE
8
BLACK
6
CONTINUOUS
10
120.659
20
-95.3499
11
120.655
21
-95.3503
0
LINE
8
BLACK
6
CONTINUOUS
10
120.655
20
-95.3503
11
120.65
21
-95.3508
0
LINE
8
BLACK
6
CONTINUOUS
10
120.65
20
-95.3508
11
120.015
21
-95.3508
0
LINE
8
BLACK
6
CONTINUOUS
10
120.015
20
-95.3508
11
120.015
21
-95.3508
0
LINE
8
BLACK
6
CONTINUOUS
10
120.015
20
-95.3508
11
120.015
21
-95.3508
0
LINE
8
BLACK
6
CONTINUOUS
10
120.015
20
-95.3508
11
120.015
21
-95.3508
0
LINE
8
BLACK
6
CONTINUOUS
10
120.015
20
-95.3508
11
120.014
21
-95.3508
0
LINE
8
BLACK
6
CONTINUOUS
10
120.014
20
-95.3508
11
120.01
21
-95.3503
0
LINE
8
BLACK
6
CONTINUOUS
10
120.01
20
-95.3503
11
120.005
21
-95.3498
0
LINE
8
BLACK
6
CONTINUOUS
10
120.005
20
-95.3498
11
120.005
21
-95.3497
0
LINE
8
BLACK
6
CONTINUOUS
10
120.005
20
-95.3497
11
120.005
21
-95.3497
0
LINE
8
BLACK
6
CONTINUOUS
10
120.005
20
-95.3497
11
120
21
-95.3483
0
LINE
8
BLACK
6
CONTINUOUS
10
120
20
-95.3483
11
119.996
21
-95.3469
0
LINE
8
BLACK
6
CONTINUOUS
10
119.996
20
-95.3469
11
119.995
21
-95.3468
0
LINE
8
BLACK
6
CONTINUOUS
10
119.995
20
-95.3468
11
119.995
21
-95.3468
0
LINE
8
BLACK
6
CONTINUOUS
10
119.995
20
-95.3468
11
119.991
21
-95.3445
0
LINE
8
BLACK
6
CONTINUOUS
10
119.991
20
-95.3445
11
119.987
21
-95.3423
0
LINE
8
BLACK
6
CONTINUOUS
10
119.987
20
-95.3423
11
119.987
21
-95.3421
0
LINE
8
BLACK
6
CONTINUOUS
10
119.987
20
-95.3421
11
119.987
21
-95.3421
0
LINE
8
BLACK
6
CONTINUOUS
10
119.987
20
-95.3421
11
119.983
21
-95.3391
0
LINE
8
BLACK
6
CONTINUOUS
10
119.983
20
-95.3391
11
119.98
21
-95.336
0
LINE
8
BLACK
6
CONTINUOUS
10
119.98
20
-95.336
11
119.979
21
-95.3359
0
LINE
8
BLACK
6
CONTINUOUS
10
119.979
20
-95.3359
11
119.979
21
-95.3358
0
LINE
8
BLACK
6
CONTINUOUS
10
119.979
20
-95.3358
11
119.976
21
-95.3322
0
LINE
8
BLACK
6
CONTINUOUS
10
119.976
20
-95.3322
11
119.973
21
-95.3285
0
LINE
8
BLACK
6
CONTINUOUS
10
119.973
20
-95.3285
11
119.973
21
-95.3283
0
LINE
8
BLACK
6
CONTINUOUS
10
119.973
20
-95.3283
11
119.973
21
-95.3282
0
LINE
8
BLACK
6
CONTINUOUS
10
119.973
20
-95.3282
11
119.971
21
-95.3241
0
LINE
8
BLACK
6
CONTINUOUS
10
119.971
20
-95.3241
11
119.969
21
-95.3199
0
LINE
8
BLACK
6
CONTINUOUS
10
119.969
20
-95.3199
11
119.969
21
-95.3197
0
LINE
8
BLACK
6
CONTINUOUS
10
119.969
20
-95.3197
11
119.969
21
-95.3195
0
LINE
8
BLACK
6
CONTINUOUS
10
119.969
20
-95.3195
11
119.967
21
-95.3151
0
LINE
8
BLACK
6
CONTINUOUS
10
119.967
20
-95.3151
11
119.966
21
-95.3105
0
LINE
8
BLACK
6
CONTINUOUS
10
119.966
20
-95.3105
11
119.966
21
-95.3103
0
LINE
8
BLACK
6
CONTINUOUS
10
119.966
20
-95.3103
11
119.966
21
-95.3102
0
LINE
8
BLACK
6
CONTINUOUS
10
119.966
20
-95.3102
11
119.965
21
-95.3055
0
LINE
8
BLACK
6
CONTINUOUS
10
119.965
20
-95.3055
11
119.965
21
-95.3008
0
LINE
8
BLACK
6
CONTINUOUS
10
119.965
20
-95.3008
11
119.965
21
-94.6658
0
LINE
8
BLACK
6
CONTINUOUS
10
119.965
20
-94.6658
11
119.965
21
-94.6655
0
LINE
8
BLACK
6
CONTINUOUS
10
119.965
20
-94.6655
11
119.965
21
-94.6655
0
LINE
8
BLACK
6
CONTINUOUS
10
119.965
20
-94.6655
11
119.965
21
-94.6654
0
LINE
8
BLACK
6
CONTINUOUS
10
119.965
20
-94.6654
11
119.965
21
-94.6651
0
LINE
8
BLACK
6
CONTINUOUS
10
119.965
20
-94.6651
11
119.966
21
-94.6605
0
LINE
8
BLACK
6
CONTINUOUS
10
119.966
20
-94.6605
11
119.966
21
-94.6557
0
LINE
8
BLACK
6
CONTINUOUS
10
119.966
20
-94.6557
11
119.966
21
-94.6556
0
LINE
8
BLACK
6
CONTINUOUS
10
119.966
20
-94.6556
11
119.966
21
-94.6554
0
LINE
8
BLACK
6
CONTINUOUS
10
119.966
20
-94.6554
11
119.968
21
-94.6509
0
LINE
8
BLACK
6
CONTINUOUS
10
119.968
20
-94.6509
11
119.969
21
-94.6464
0
LINE
8
BLACK
6
CONTINUOUS
10
119.969
20
-94.6464
11
119.969
21
-94.6463
0
LINE
8
BLACK
6
CONTINUOUS
10
119.969
20
-94.6463
11
119.969
21
-94.6461
0
LINE
8
BLACK
6
CONTINUOUS
10
119.969
20
-94.6461
11
119.971
21
-94.642
0
LINE
8
BLACK
6
CONTINUOUS
10
119.971
20
-94.642
11
119.974
21
-94.6378
0
LINE
8
BLACK
6
CONTINUOUS
10
119.974
20
-94.6378
11
119.974
21
-94.6377
0
LINE
8
BLACK
6
CONTINUOUS
10
119.974
20
-94.6377
11
119.974
21
-94.6376
0
LINE
8
BLACK
6
CONTINUOUS
10
119.974
20
-94.6376
11
119.977
21
-94.634
0
LINE
8
BLACK
6
CONTINUOUS
10
119.977
20
-94.634
11
119.98
21
-94.6303
0
LINE
8
BLACK
6
CONTINUOUS
10
119.98
20
-94.6303
11
119.98
21
-94.6302
0
LINE
8
BLACK
6
CONTINUOUS
10
119.98
20
-94.6302
11
119.98
21
-94.6301
0
LINE
8
BLACK
6
CONTINUOUS
10
119.98
20
-94.6301
11
119.984
21
-94.6272
0
LINE
8
BLACK
6
CONTINUOUS
10
119.984
20
-94.6272
11
119.987
21
-94.6242
0
LINE
8
BLACK
6
CONTINUOUS
10
119.987
20
-94.6242
11
119.987
21
-94.6241
0
LINE
8
BLACK
6
CONTINUOUS
10
119.987
20
-94.6241
11
119.988
21
-94.624
0
LINE
8
BLACK
6
CONTINUOUS
10
119.988
20
-94.624
11
119.992
21
-94.6218
0
LINE
8
BLACK
6
CONTINUOUS
10
119.992
20
-94.6218
11
119.996
21
-94.6196
0
LINE
8
BLACK
6
CONTINUOUS
10
119.996
20
-94.6196
11
119.996
21
-94.6195
0
LINE
8
BLACK
6
CONTINUOUS
10
119.996
20
-94.6195
11
119.996
21
-94.6194
0
LINE
8
BLACK
6
CONTINUOUS
10
119.996
20
-94.6194
11
120.001
21
-94.6181
0
LINE
8
BLACK
6
CONTINUOUS
10
120.001
20
-94.6181
11
120.005
21
-94.6168
0
LINE
8
BLACK
6
CONTINUOUS
10
120.005
20
-94.6168
11
120.005
21
-94.6167
0
LINE
8
BLACK
6
CONTINUOUS
10
120.005
20
-94.6167
11
120.006
21
-94.6167
0
LINE
8
BLACK
6
CONTINUOUS
10
120.006
20
-94.6167
11
120.01
21
-94.6163
0
LINE
8
BLACK
6
CONTINUOUS
10
120.01
20
-94.6163
11
120.015
21
-94.6158
0
LINE
8
BLACK
6
CONTINUOUS
10
120.015
20
-94.6158
11
120.65
21
-94.6158
0
LINE
8
BLACK
6
CONTINUOUS
10
120.65
20
-94.6158
11
120.65
21
-94.6158
0
LINE
8
BLACK
6
CONTINUOUS
10
119.43
20
-93.3961
11
119.43
21
-93.3961
0
LINE
8
BLACK
6
CONTINUOUS
10
119.43
20
-93.3961
11
119.43
21
-93.3962
0
LINE
8
BLACK
6
CONTINUOUS
10
119.43
20
-93.3962
11
119.43
21
-93.3965
0
LINE
8
BLACK
6
CONTINUOUS
10
119.43
20
-93.3965
11
119.429
21
-93.4011
0
LINE
8
BLACK
6
CONTINUOUS
10
119.429
20
-93.4011
11
119.429
21
-93.4059
0
LINE
8
BLACK
6
CONTINUOUS
10
119.429
20
-93.4059
11
119.429
21
-93.406
0
LINE
8
BLACK
6
CONTINUOUS
10
119.429
20
-93.406
11
119.429
21
-93.4062
0
LINE
8
BLACK
6
CONTINUOUS
10
119.429
20
-93.4062
11
119.427
21
-93.4107
0
LINE
8
BLACK
6
CONTINUOUS
10
119.427
20
-93.4107
11
119.426
21
-93.4152
0
LINE
8
BLACK
6
CONTINUOUS
10
119.426
20
-93.4152
11
119.426
21
-93.4153
0
LINE
8
BLACK
6
CONTINUOUS
10
119.426
20
-93.4153
11
119.426
21
-93.4155
0
LINE
8
BLACK
6
CONTINUOUS
10
119.426
20
-93.4155
11
119.424
21
-93.4196
0
LINE
8
BLACK
6
CONTINUOUS
10
119.424
20
-93.4196
11
119.421
21
-93.4238
0
LINE
8
BLACK
6
CONTINUOUS
10
119.421
20
-93.4238
11
119.421
21
-93.4239
0
LINE
8
BLACK
6
CONTINUOUS
10
119.421
20
-93.4239
11
119.421
21
-93.424
0
LINE
8
BLACK
6
CONTINUOUS
10
119.421
20
-93.424
11
119.418
21
-93.4276
0
LINE
8
BLACK
6
CONTINUOUS
10
119.418
20
-93.4276
11
119.415
21
-93.4313
0
LINE
8
BLACK
6
CONTINUOUS
10
119.415
20
-93.4313
11
119.415
21
-93.4314
0
LINE
8
BLACK
6
CONTINUOUS
10
119.415
20
-93.4314
11
119.415
21
-93.4315
0
LINE
8
BLACK
6
CONTINUOUS
10
119.415
20
-93.4315
11
119.411
21
-93.4344
0
LINE
8
BLACK
6
CONTINUOUS
10
119.411
20
-93.4344
11
119.408
21
-93.4374
0
LINE
8
BLACK
6
CONTINUOUS
10
119.408
20
-93.4374
11
119.408
21
-93.4375
0
LINE
8
BLACK
6
CONTINUOUS
10
119.408
20
-93.4375
11
119.407
21
-93.4376
0
LINE
8
BLACK
6
CONTINUOUS
10
119.407
20
-93.4376
11
119.403
21
-93.4398
0
LINE
8
BLACK
6
CONTINUOUS
10
119.403
20
-93.4398
11
119.399
21
-93.442
0
LINE
8
BLACK
6
CONTINUOUS
10
119.399
20
-93.442
11
119.399
21
-93.4421
0
LINE
8
BLACK
6
CONTINUOUS
10
119.399
20
-93.4421
11
119.399
21
-93.4422
0
LINE
8
BLACK
6
CONTINUOUS
10
119.399
20
-93.4422
11
119.394
21
-93.4435
0
LINE
8
BLACK
6
CONTINUOUS
10
119.394
20
-93.4435
11
119.39
21
-93.4448
0
LINE
8
BLACK
6
CONTINUOUS
10
119.39
20
-93.4448
11
119.39
21
-93.4449
0
LINE
8
BLACK
6
CONTINUOUS
10
119.39
20
-93.4449
11
119.389
21
-93.4449
0
LINE
8
BLACK
6
CONTINUOUS
10
119.389
20
-93.4449
11
119.385
21
-93.4453
0
LINE
8
BLACK
6
CONTINUOUS
10
119.385
20
-93.4453
11
119.38
21
-93.4458
0
LINE
8
BLACK
6
CONTINUOUS
10
119.38
20
-93.4458
11
118.795
21
-93.4458
0
LINE
8
BLACK
6
CONTINUOUS
10
118.795
20
-93.4458
11
118.795
21
-93.9808
0
LINE
8
BLACK
6
CONTINUOUS
10
118.795
20
-93.9808
11
119.38
21
-93.9808
0
LINE
8
BLACK
6
CONTINUOUS
10
119.38
20
-93.9808
11
119.38
21
-93.9808
0
LINE
8
BLACK
6
CONTINUOUS
10
119.38
20
-93.9808
11
119.38
21
-93.9808
0
LINE
8
BLACK
6
CONTINUOUS
10
119.38
20
-93.9808
11
119.38
21
-93.9808
0
LINE
8
BLACK
6
CONTINUOUS
10
119.38
20
-93.9808
11
119.381
21
-93.9808
0
LINE
8
BLACK
6
CONTINUOUS
10
119.381
20
-93.9808
11
119.385
21
-93.9813
0
LINE
8
BLACK
6
CONTINUOUS
10
119.385
20
-93.9813
11
119.39
21
-93.9818
0
LINE
8
BLACK
6
CONTINUOUS
10
119.39
20
-93.9818
11
119.39
21
-93.9819
0
LINE
8
BLACK
6
CONTINUOUS
10
119.39
20
-93.9819
11
119.39
21
-93.9819
0
LINE
8
BLACK
6
CONTINUOUS
10
119.39
20
-93.9819
11
119.395
21
-93.9833
0
LINE
8
BLACK
6
CONTINUOUS
10
119.395
20
-93.9833
11
119.399
21
-93.9847
0
LINE
8
BLACK
6
CONTINUOUS
10
119.399
20
-93.9847
11
119.4
21
-93.9848
0
LINE
8
BLACK
6
CONTINUOUS
10
119.4
20
-93.9848
11
119.4
21
-93.9848
0
LINE
8
BLACK
6
CONTINUOUS
10
119.4
20
-93.9848
11
119.404
21
-93.9871
0
LINE
8
BLACK
6
CONTINUOUS
10
119.404
20
-93.9871
11
119.408
21
-93.9893
0
LINE
8
BLACK
6
CONTINUOUS
10
119.408
20
-93.9893
11
119.408
21
-93.9895
0
LINE
8
BLACK
6
CONTINUOUS
10
119.408
20
-93.9895
11
119.408
21
-93.9895
0
LINE
8
BLACK
6
CONTINUOUS
10
119.408
20
-93.9895
11
119.412
21
-93.9925
0
LINE
8
BLACK
6
CONTINUOUS
10
119.412
20
-93.9925
11
119.415
21
-93.9956
0
LINE
8
BLACK
6
CONTINUOUS
10
119.415
20
-93.9956
11
119.416
21
-93.9957
0
LINE
8
BLACK
6
CONTINUOUS
10
119.416
20
-93.9957
11
119.416
21
-93.9958
0
LINE
8
BLACK
6
CONTINUOUS
10
119.416
20
-93.9958
11
119.419
21
-93.9994
0
LINE
8
BLACK
6
CONTINUOUS
10
119.419
20
-93.9994
11
119.422
21
-94.0031
0
LINE
8
BLACK
6
CONTINUOUS
10
119.422
20
-94.0031
11
119.422
21
-94.0033
0
LINE
8
BLACK
6
CONTINUOUS
10
119.422
20
-94.0033
11
119.422
21
-94.0034
0
LINE
8
BLACK
6
CONTINUOUS
10
119.422
20
-94.0034
11
119.424
21
-94.0075
0
LINE
8
BLACK
6
CONTINUOUS
10
119.424
20
-94.0075
11
119.426
21
-94.0117
0
LINE
8
BLACK
6
CONTINUOUS
10
119.426
20
-94.0117
11
119.426
21
-94.0119
0
LINE
8
BLACK
6
CONTINUOUS
10
119.426
20
-94.0119
11
119.426
21
-94.0121
0
LINE
8
BLACK
6
CONTINUOUS
10
119.426
20
-94.0121
11
119.428
21
-94.0165
0
LINE
8
BLACK
6
CONTINUOUS
10
119.428
20
-94.0165
11
119.429
21
-94.0211
0
LINE
8
BLACK
6
CONTINUOUS
10
119.429
20
-94.0211
11
119.429
21
-94.0213
0
LINE
8
BLACK
6
CONTINUOUS
10
119.429
20
-94.0213
11
119.429
21
-94.0214
0
LINE
8
BLACK
6
CONTINUOUS
10
119.429
20
-94.0214
11
119.43
21
-94.0261
0
LINE
8
BLACK
6
CONTINUOUS
10
119.43
20
-94.0261
11
119.43
21
-94.0308
0
LINE
8
BLACK
6
CONTINUOUS
10
119.43
20
-94.0308
11
119.43
21
-94.6658
0
LINE
8
BLACK
6
CONTINUOUS
10
119.43
20
-94.6658
11
119.43
21
-94.6661
0
LINE
8
BLACK
6
CONTINUOUS
10
119.43
20
-94.6661
11
119.43
21
-94.6661
0
LINE
8
BLACK
6
CONTINUOUS
10
119.43
20
-94.6661
11
119.43
21
-94.6662
0
LINE
8
BLACK
6
CONTINUOUS
10
119.43
20
-94.6662
11
119.43
21
-94.6665
0
LINE
8
BLACK
6
CONTINUOUS
10
119.43
20
-94.6665
11
119.429
21
-94.6711
0
LINE
8
BLACK
6
CONTINUOUS
10
119.429
20
-94.6711
11
119.429
21
-94.6759
0
LINE
8
BLACK
6
CONTINUOUS
10
119.429
20
-94.6759
11
119.429
21
-94.676
0
LINE
8
BLACK
6
CONTINUOUS
10
119.429
20
-94.676
11
119.429
21
-94.6762
0
LINE
8
BLACK
6
CONTINUOUS
10
119.429
20
-94.6762
11
119.427
21
-94.6807
0
LINE
8
BLACK
6
CONTINUOUS
10
119.427
20
-94.6807
11
119.426
21
-94.6852
0
LINE
8
BLACK
6
CONTINUOUS
10
119.426
20
-94.6852
11
119.426
21
-94.6853
0
LINE
8
BLACK
6
CONTINUOUS
10
119.426
20
-94.6853
11
119.426
21
-94.6855
0
LINE
8
BLACK
6
CONTINUOUS
10
119.426
20
-94.6855
11
119.424
21
-94.6896
0
LINE
8
BLACK
6
CONTINUOUS
10
119.424
20
-94.6896
11
119.421
21
-94.6938
0
LINE
8
BLACK
6
CONTINUOUS
10
119.421
20
-94.6938
11
119.421
21
-94.6939
0
LINE
8
BLACK
6
CONTINUOUS
10
119.421
20
-94.6939
11
119.421
21
-94.694
0
LINE
8
BLACK
6
CONTINUOUS
10
119.421
20
-94.694
11
119.418
21
-94.6976
0
LINE
8
BLACK
6
CONTINUOUS
10
119.418
20
-94.6976
11
119.415
21
-94.7013
0
LINE
8
BLACK
6
CONTINUOUS
10
119.415
20
-94.7013
11
119.415
21
-94.7014
0
LINE
8
BLACK
6
CONTINUOUS
10
119.415
20
-94.7014
11
119.415
21
-94.7015
0
LINE
8
BLACK
6
CONTINUOUS
10
119.415
20
-94.7015
11
119.411
21
-94.7044
0
LINE
8
BLACK
6
CONTINUOUS
10
119.411
20
-94.7044
11
119.408
21
-94.7074
0
LINE
8
BLACK
6
CONTINUOUS
10
119.408
20
-94.7074
11
119.408
21
-94.7075
0
LINE
8
BLACK
6
CONTINUOUS
10
119.408
20
-94.7075
11
119.407
21
-94.7076
0
LINE
8
BLACK
6
CONTINUOUS
10
119.407
20
-94.7076
11
119.403
21
-94.7098
0
LINE
8
BLACK
6
CONTINUOUS
10
119.403
20
-94.7098
11
119.399
21
-94.712
0
LINE
8
BLACK
6
CONTINUOUS
10
119.399
20
-94.712
11
119.399
21
-94.7121
0
LINE
8
BLACK
6
CONTINUOUS
10
119.399
20
-94.7121
11
119.399
21
-94.7122
0
LINE
8
BLACK
6
CONTINUOUS
10
119.399
20
-94.7122
11
119.394
21
-94.7135
0
LINE
8
BLACK
6
CONTINUOUS
10
119.394
20
-94.7135
11
119.39
21
-94.7148
0
LINE
8
BLACK
6
CONTINUOUS
10
119.39
20
-94.7148
11
119.39
21
-94.7149
0
LINE
8
BLACK
6
CONTINUOUS
10
119.39
20
-94.7149
11
119.389
21
-94.7149
0
LINE
8
BLACK
6
CONTINUOUS
10
119.389
20
-94.7149
11
119.385
21
-94.7153
0
LINE
8
BLACK
6
CONTINUOUS
10
119.385
20
-94.7153
11
119.38
21
-94.7158
0
LINE
8
BLACK
6
CONTINUOUS
10
119.38
20
-94.7158
11
117.475
21
-94.7158
0
LINE
8
BLACK
6
CONTINUOUS
10
117.475
20
-94.7158
11
117.475
21
-94.7158
0
LINE
8
BLACK
6
CONTINUOUS
10
117.475
20
-94.7158
11
117.475
21
-94.7158
0
LINE
8
BLACK
6
CONTINUOUS
10
117.475
20
-94.7158
11
117.475
21
-94.7158
0
LINE
8
BLACK
6
CONTINUOUS
10
117.475
20
-94.7158
11
117.474
21
-94.7158
0
LINE
8
BLACK
6
CONTINUOUS
10
117.474
20
-94.7158
11
117.47
21
-94.7153
0
LINE
8
BLACK
6
CONTINUOUS
10
117.47
20
-94.7153
11
117.465
21
-94.7148
0
LINE
8
BLACK
6
CONTINUOUS
10
117.465
20
-94.7148
11
117.465
21
-94.7147
0
LINE
8
BLACK
6
CONTINUOUS
10
117.465
20
-94.7147
11
117.465
21
-94.7147
0
LINE
8
BLACK
6
CONTINUOUS
10
117.465
20
-94.7147
11
117.46
21
-94.7133
0
LINE
8
BLACK
6
CONTINUOUS
10
117.46
20
-94.7133
11
117.456
21
-94.7119
0
LINE
8
BLACK
6
CONTINUOUS
10
117.456
20
-94.7119
11
117.455
21
-94.7118
0
LINE
8
BLACK
6
CONTINUOUS
10
117.455
20
-94.7118
11
117.455
21
-94.7118
0
LINE
8
BLACK
6
CONTINUOUS
10
117.455
20
-94.7118
11
117.451
21
-94.7095
0
LINE
8
BLACK
6
CONTINUOUS
10
117.451
20
-94.7095
11
117.447
21
-94.7073
0
LINE
8
BLACK
6
CONTINUOUS
10
117.447
20
-94.7073
11
117.447
21
-94.7071
0
LINE
8
BLACK
6
CONTINUOUS
10
117.447
20
-94.7071
11
117.447
21
-94.7071
0
LINE
8
BLACK
6
CONTINUOUS
10
117.447
20
-94.7071
11
117.443
21
-94.7041
0
LINE
8
BLACK
6
CONTINUOUS
10
117.443
20
-94.7041
11
117.44
21
-94.701
0
LINE
8
BLACK
6
CONTINUOUS
10
117.44
20
-94.701
11
117.439
21
-94.7009
0
LINE
8
BLACK
6
CONTINUOUS
10
117.439
20
-94.7009
11
117.439
21
-94.7008
0
LINE
8
BLACK
6
CONTINUOUS
10
117.439
20
-94.7008
11
117.436
21
-94.6972
0
LINE
8
BLACK
6
CONTINUOUS
10
117.436
20
-94.6972
11
117.433
21
-94.6935
0
LINE
8
BLACK
6
CONTINUOUS
10
117.433
20
-94.6935
11
117.433
21
-94.6933
0
LINE
8
BLACK
6
CONTINUOUS
10
117.433
20
-94.6933
11
117.433
21
-94.6932
0
LINE
8
BLACK
6
CONTINUOUS
10
117.433
20
-94.6932
11
117.431
21
-94.6891
0
LINE
8
BLACK
6
CONTINUOUS
10
117.431
20
-94.6891
11
117.429
21
-94.6849
0
LINE
8
BLACK
6
CONTINUOUS
10
117.429
20
-94.6849
11
117.429
21
-94.6847
0
LINE
8
BLACK
6
CONTINUOUS
10
117.429
20
-94.6847
11
117.429
21
-94.6845
0
LINE
8
BLACK
6
CONTINUOUS
10
117.429
20
-94.6845
11
117.427
21
-94.6801
0
LINE
8
BLACK
6
CONTINUOUS
10
117.427
20
-94.6801
11
117.426
21
-94.6755
0
LINE
8
BLACK
6
CONTINUOUS
10
117.426
20
-94.6755
11
117.426
21
-94.6753
0
LINE
8
BLACK
6
CONTINUOUS
10
117.426
20
-94.6753
11
117.426
21
-94.6752
0
LINE
8
BLACK
6
CONTINUOUS
10
117.426
20
-94.6752
11
117.425
21
-94.6705
0
LINE
8
BLACK
6
CONTINUOUS
10
117.425
20
-94.6705
11
117.425
21
-94.6658
0
LINE
8
BLACK
6
CONTINUOUS
10
117.425
20
-94.6658
11
117.425
21
-94.0808
0
LINE
8
BLACK
6
CONTINUOUS
10
117.425
20
-94.0808
11
116.84
21
-94.0808
0
LINE
8
BLACK
6
CONTINUOUS
10
116.84
20
-94.0808
11
116.84
21
-94.0808
0
LINE
8
BLACK
6
CONTINUOUS
10
116.84
20
-94.0808
11
116.84
21
-94.0808
0
LINE
8
BLACK
6
CONTINUOUS
10
116.84
20
-94.0808
11
116.84
21
-94.0808
0
LINE
8
BLACK
6
CONTINUOUS
10
116.84
20
-94.0808
11
116.839
21
-94.0808
0
LINE
8
BLACK
6
CONTINUOUS
10
116.839
20
-94.0808
11
116.835
21
-94.0803
0
LINE
8
BLACK
6
CONTINUOUS
10
116.835
20
-94.0803
11
116.83
21
-94.0798
0
LINE
8
BLACK
6
CONTINUOUS
10
116.83
20
-94.0798
11
116.83
21
-94.0797
0
LINE
8
BLACK
6
CONTINUOUS
10
116.83
20
-94.0797
11
116.83
21
-94.0797
0
LINE
8
BLACK
6
CONTINUOUS
10
116.83
20
-94.0797
11
116.825
21
-94.0783
0
LINE
8
BLACK
6
CONTINUOUS
10
116.825
20
-94.0783
11
116.821
21
-94.0769
0
LINE
8
BLACK
6
CONTINUOUS
10
116.821
20
-94.0769
11
116.82
21
-94.0768
0
LINE
8
BLACK
6
CONTINUOUS
10
116.82
20
-94.0768
11
116.82
21
-94.0768
0
LINE
8
BLACK
6
CONTINUOUS
10
116.82
20
-94.0768
11
116.816
21
-94.0745
0
LINE
8
BLACK
6
CONTINUOUS
10
116.816
20
-94.0745
11
116.812
21
-94.0723
0
LINE
8
BLACK
6
CONTINUOUS
10
116.812
20
-94.0723
11
116.812
21
-94.0721
0
LINE
8
BLACK
6
CONTINUOUS
10
116.812
20
-94.0721
11
116.812
21
-94.0721
0
LINE
8
BLACK
6
CONTINUOUS
10
116.812
20
-94.0721
11
116.808
21
-94.0691
0
LINE
8
BLACK
6
CONTINUOUS
10
116.808
20
-94.0691
11
116.805
21
-94.066
0
LINE
8
BLACK
6
CONTINUOUS
10
116.805
20
-94.066
11
116.804
21
-94.0659
0
LINE
8
BLACK
6
CONTINUOUS
10
116.804
20
-94.0659
11
116.804
21
-94.0658
0
LINE
8
BLACK
6
CONTINUOUS
10
116.804
20
-94.0658
11
116.801
21
-94.0622
0
LINE
8
BLACK
6
CONTINUOUS
10
116.801
20
-94.0622
11
116.798
21
-94.0585
0
LINE
8
BLACK
6
CONTINUOUS
10
116.798
20
-94.0585
11
116.798
21
-94.0583
0
LINE
8
BLACK
6
CONTINUOUS
10
116.798
20
-94.0583
11
116.798
21
-94.0582
0
LINE
8
BLACK
6
CONTINUOUS
10
116.798
20
-94.0582
11
116.796
21
-94.0541
0
LINE
8
BLACK
6
CONTINUOUS
10
116.796
20
-94.0541
11
116.794
21
-94.0499
0
LINE
8
BLACK
6
CONTINUOUS
10
116.794
20
-94.0499
11
116.794
21
-94.0497
0
LINE
8
BLACK
6
CONTINUOUS
10
116.794
20
-94.0497
11
116.794
21
-94.0495
0
LINE
8
BLACK
6
CONTINUOUS
10
116.794
20
-94.0495
11
116.792
21
-94.0451
0
LINE
8
BLACK
6
CONTINUOUS
10
116.792
20
-94.0451
11
116.791
21
-94.0405
0
LINE
8
BLACK
6
CONTINUOUS
10
116.791
20
-94.0405
11
116.791
21
-94.0403
0
LINE
8
BLACK
6
CONTINUOUS
10
116.791
20
-94.0403
11
116.791
21
-94.0402
0
LINE
8
BLACK
6
CONTINUOUS
10
116.791
20
-94.0402
11
116.79
21
-94.0355
0
LINE
8
BLACK
6
CONTINUOUS
10
116.79
20
-94.0355
11
116.79
21
-94.0308
0
LINE
8
BLACK
6
CONTINUOUS
10
116.79
20
-94.0308
11
116.79
21
-93.4458
0
LINE
8
BLACK
6
CONTINUOUS
10
116.79
20
-93.4458
11
116.205
21
-93.4458
0
LINE
8
BLACK
6
CONTINUOUS
10
116.205
20
-93.4458
11
116.205
21
-93.4458
0
LINE
8
BLACK
6
CONTINUOUS
10
116.205
20
-93.4458
11
116.205
21
-93.4458
0
LINE
8
BLACK
6
CONTINUOUS
10
116.205
20
-93.4458
11
116.205
21
-93.4458
0
LINE
8
BLACK
6
CONTINUOUS
10
116.205
20
-93.4458
11
116.204
21
-93.4458
0
LINE
8
BLACK
6
CONTINUOUS
10
116.204
20
-93.4458
11
116.2
21
-93.4453
0
LINE
8
BLACK
6
CONTINUOUS
10
116.2
20
-93.4453
11
116.195
21
-93.4448
0
LINE
8
BLACK
6
CONTINUOUS
10
116.195
20
-93.4448
11
116.195
21
-93.4447
0
LINE
8
BLACK
6
CONTINUOUS
10
116.195
20
-93.4447
11
116.195
21
-93.4447
0
LINE
8
BLACK
6
CONTINUOUS
10
116.195
20
-93.4447
11
116.19
21
-93.4433
0
LINE
8
BLACK
6
CONTINUOUS
10
116.19
20
-93.4433
11
116.186
21
-93.4419
0
LINE
8
BLACK
6
CONTINUOUS
10
116.186
20
-93.4419
11
116.185
21
-93.4418
0
LINE
8
BLACK
6
CONTINUOUS
10
116.185
20
-93.4418
11
116.185
21
-93.4418
0
LINE
8
BLACK
6
CONTINUOUS
10
116.185
20
-93.4418
11
116.181
21
-93.4395
0
LINE
8
BLACK
6
CONTINUOUS
10
116.181
20
-93.4395
11
116.177
21
-93.4373
0
LINE
8
BLACK
6
CONTINUOUS
10
116.177
20
-93.4373
11
116.177
21
-93.4371
0
LINE
8
BLACK
6
CONTINUOUS
10
116.177
20
-93.4371
11
116.177
21
-93.4371
0
LINE
8
BLACK
6
CONTINUOUS
10
116.177
20
-93.4371
11
116.173
21
-93.4341
0
LINE
8
BLACK
6
CONTINUOUS
10
116.173
20
-93.4341
11
116.17
21
-93.431
0
LINE
8
BLACK
6
CONTINUOUS
10
116.17
20
-93.431
11
116.169
21
-93.4309
0
LINE
8
BLACK
6
CONTINUOUS
10
116.169
20
-93.4309
11
116.169
21
-93.4308
0
LINE
8
BLACK
6
CONTINUOUS
10
116.169
20
-93.4308
11
116.166
21
-93.4272
0
LINE
8
BLACK
6
CONTINUOUS
10
116.166
20
-93.4272
11
116.163
21
-93.4235
0
LINE
8
BLACK
6
CONTINUOUS
10
116.163
20
-93.4235
11
116.163
21
-93.4233
0
LINE
8
BLACK
6
CONTINUOUS
10
116.163
20
-93.4233
11
116.163
21
-93.4232
0
LINE
8
BLACK
6
CONTINUOUS
10
116.163
20
-93.4232
11
116.161
21
-93.4191
0
LINE
8
BLACK
6
CONTINUOUS
10
116.161
20
-93.4191
11
116.159
21
-93.4149
0
LINE
8
BLACK
6
CONTINUOUS
10
116.159
20
-93.4149
11
116.159
21
-93.4147
0
LINE
8
BLACK
6
CONTINUOUS
10
116.159
20
-93.4147
11
116.159
21
-93.4145
0
LINE
8
BLACK
6
CONTINUOUS
10
116.159
20
-93.4145
11
116.157
21
-93.4101
0
LINE
8
BLACK
6
CONTINUOUS
10
116.157
20
-93.4101
11
116.156
21
-93.4055
0
LINE
8
BLACK
6
CONTINUOUS
10
116.156
20
-93.4055
11
116.156
21
-93.4053
0
LINE
8
BLACK
6
CONTINUOUS
10
116.156
20
-93.4053
11
116.156
21
-93.4052
0
LINE
8
BLACK
6
CONTINUOUS
10
116.156
20
-93.4052
11
116.155
21
-93.4005
0
LINE
8
BLACK
6
CONTINUOUS
10
116.155
20
-93.4005
11
116.155
21
-93.3958
0
LINE
8
BLACK
6
CONTINUOUS
10
116.155
20
-93.3958
11
116.155
21
-92.7608
0
LINE
8
BLACK
6
CONTINUOUS
10
116.155
20
-92.7608
11
116.155
21
-92.7605
0
LINE
8
BLACK
6
CONTINUOUS
10
116.155
20
-92.7605
11
116.155
21
-92.7605
0
LINE
8
BLACK
6
CONTINUOUS
10
116.155
20
-92.7605
11
116.155
21
-92.7604
0
LINE
8
BLACK
6
CONTINUOUS
10
116.155
20
-92.7604
11
116.155
21
-92.7601
0
LINE
8
BLACK
6
CONTINUOUS
10
116.155
20
-92.7601
11
116.156
21
-92.7555
0
LINE
8
BLACK
6
CONTINUOUS
10
116.156
20
-92.7555
11
116.156
21
-92.7507
0
LINE
8
BLACK
6
CONTINUOUS
10
116.156
20
-92.7507
11
116.156
21
-92.7506
0
LINE
8
BLACK
6
CONTINUOUS
10
116.156
20
-92.7506
11
116.156
21
-92.7504
0
LINE
8
BLACK
6
CONTINUOUS
10
116.156
20
-92.7504
11
116.158
21
-92.7459
0
LINE
8
BLACK
6
CONTINUOUS
10
116.158
20
-92.7459
11
116.159
21
-92.7414
0
LINE
8
BLACK
6
CONTINUOUS
10
116.159
20
-92.7414
11
116.159
21
-92.7413
0
LINE
8
BLACK
6
CONTINUOUS
10
116.159
20
-92.7413
11
116.159
21
-92.7411
0
LINE
8
BLACK
6
CONTINUOUS
10
116.159
20
-92.7411
11
116.161
21
-92.737
0
LINE
8
BLACK
6
CONTINUOUS
10
116.161
20
-92.737
11
116.164
21
-92.7328
0
LINE
8
BLACK
6
CONTINUOUS
10
116.164
20
-92.7328
11
116.164
21
-92.7327
0
LINE
8
BLACK
6
CONTINUOUS
10
116.164
20
-92.7327
11
116.164
21
-92.7326
0
LINE
8
BLACK
6
CONTINUOUS
10
116.164
20
-92.7326
11
116.167
21
-92.729
0
LINE
8
BLACK
6
CONTINUOUS
10
116.167
20
-92.729
11
116.17
21
-92.7253
0
LINE
8
BLACK
6
CONTINUOUS
10
116.17
20
-92.7253
11
116.17
21
-92.7252
0
LINE
8
BLACK
6
CONTINUOUS
10
116.17
20
-92.7252
11
116.17
21
-92.7251
0
LINE
8
BLACK
6
CONTINUOUS
10
116.17
20
-92.7251
11
116.174
21
-92.7222
0
LINE
8
BLACK
6
CONTINUOUS
10
116.174
20
-92.7222
11
116.177
21
-92.7192
0
LINE
8
BLACK
6
CONTINUOUS
10
116.177
20
-92.7192
11
116.177
21
-92.7191
0
LINE
8
BLACK
6
CONTINUOUS
10
116.177
20
-92.7191
11
116.178
21
-92.719
0
LINE
8
BLACK
6
CONTINUOUS
10
116.178
20
-92.719
11
116.182
21
-92.7168
0
LINE
8
BLACK
6
CONTINUOUS
10
116.182
20
-92.7168
11
116.186
21
-92.7146
0
LINE
8
BLACK
6
CONTINUOUS
10
116.186
20
-92.7146
11
116.186
21
-92.7145
0
LINE
8
BLACK
6
CONTINUOUS
10
116.186
20
-92.7145
11
116.186
21
-92.7144
0
LINE
8
BLACK
6
CONTINUOUS
10
116.186
20
-92.7144
11
116.191
21
-92.7131
0
LINE
8
BLACK
6
CONTINUOUS
10
116.191
20
-92.7131
11
116.195
21
-92.7118
0
LINE
8
BLACK
6
CONTINUOUS
10
116.195
20
-92.7118
11
116.195
21
-92.7117
0
LINE
8
BLACK
6
CONTINUOUS
10
116.195
20
-92.7117
11
116.196
21
-92.7117
0
LINE
8
BLACK
6
CONTINUOUS
10
116.196
20
-92.7117
11
116.2
21
-92.7113
0
LINE
8
BLACK
6
CONTINUOUS
10
116.2
20
-92.7113
11
116.205
21
-92.7108
0
LINE
8
BLACK
6
CONTINUOUS
10
116.205
20
-92.7108
11
117.425
21
-92.7108
0
LINE
8
BLACK
6
CONTINUOUS
10
117.425
20
-92.7108
11
117.425
21
-92.1258
0
LINE
8
BLACK
6
CONTINUOUS
10
117.425
20
-92.1258
11
117.425
21
-92.1255
0
LINE
8
BLACK
6
CONTINUOUS
10
117.425
20
-92.1255
11
117.425
21
-92.1255
0
LINE
8
BLACK
6
CONTINUOUS
10
117.425
20
-92.1255
11
117.425
21
-92.1254
0
LINE
8
BLACK
6
CONTINUOUS
10
117.425
20
-92.1254
11
117.425
21
-92.1251
0
LINE
8
BLACK
6
CONTINUOUS
10
117.425
20
-92.1251
11
117.426
21
-92.1205
0
LINE
8
BLACK
6
CONTINUOUS
10
117.426
20
-92.1205
11
117.426
21
-92.1157
0
LINE
8
BLACK
6
CONTINUOUS
10
117.426
20
-92.1157
11
117.426
21
-92.1156
0
LINE
8
BLACK
6
CONTINUOUS
10
117.426
20
-92.1156
11
117.426
21
-92.1154
0
LINE
8
BLACK
6
CONTINUOUS
10
117.426
20
-92.1154
11
117.428
21
-92.1109
0
LINE
8
BLACK
6
CONTINUOUS
10
117.428
20
-92.1109
11
117.429
21
-92.1064
0
LINE
8
BLACK
6
CONTINUOUS
10
117.429
20
-92.1064
11
117.429
21
-92.1063
0
LINE
8
BLACK
6
CONTINUOUS
10
117.429
20
-92.1063
11
117.429
21
-92.1061
0
LINE
8
BLACK
6
CONTINUOUS
10
117.429
20
-92.1061
11
117.431
21
-92.102
0
LINE
8
BLACK
6
CONTINUOUS
10
117.431
20
-92.102
11
117.434
21
-92.0978
0
LINE
8
BLACK
6
CONTINUOUS
10
117.434
20
-92.0978
11
117.434
21
-92.0977
0
LINE
8
BLACK
6
CONTINUOUS
10
117.434
20
-92.0977
11
117.434
21
-92.0976
0
LINE
8
BLACK
6
CONTINUOUS
10
117.434
20
-92.0976
11
117.437
21
-92.094
0
LINE
8
BLACK
6
CONTINUOUS
10
117.437
20
-92.094
11
117.44
21
-92.0903
0
LINE
8
BLACK
6
CONTINUOUS
10
117.44
20
-92.0903
11
117.44
21
-92.0902
0
LINE
8
BLACK
6
CONTINUOUS
10
117.44
20
-92.0902
11
117.44
21
-92.0901
0
LINE
8
BLACK
6
CONTINUOUS
10
117.44
20
-92.0901
11
117.444
21
-92.0872
0
LINE
8
BLACK
6
CONTINUOUS
10
117.444
20
-92.0872
11
117.447
21
-92.0842
0
LINE
8
BLACK
6
CONTINUOUS
10
117.447
20
-92.0842
11
117.447
21
-92.0841
0
LINE
8
BLACK
6
CONTINUOUS
10
117.447
20
-92.0841
11
117.448
21
-92.084
0
LINE
8
BLACK
6
CONTINUOUS
10
117.448
20
-92.084
11
117.452
21
-92.0818
0
LINE
8
BLACK
6
CONTINUOUS
10
117.452
20
-92.0818
11
117.456
21
-92.0796
0
LINE
8
BLACK
6
CONTINUOUS
10
117.456
20
-92.0796
11
117.456
21
-92.0795
0
LINE
8
BLACK
6
CONTINUOUS
10
117.456
20
-92.0795
11
117.456
21
-92.0794
0
LINE
8
BLACK
6
CONTINUOUS
10
117.456
20
-92.0794
11
117.461
21
-92.0781
0
LINE
8
BLACK
6
CONTINUOUS
10
117.461
20
-92.0781
11
117.465
21
-92.0768
0
LINE
8
BLACK
6
CONTINUOUS
10
117.465
20
-92.0768
11
117.465
21
-92.0767
0
LINE
8
BLACK
6
CONTINUOUS
10
117.465
20
-92.0767
11
117.466
21
-92.0767
0
LINE
8
BLACK
6
CONTINUOUS
10
117.466
20
-92.0767
11
117.47
21
-92.0763
0
LINE
8
BLACK
6
CONTINUOUS
10
117.47
20
-92.0763
11
117.475
21
-92.0758
0
LINE
8
BLACK
6
CONTINUOUS
10
117.475
20
-92.0758
11
118.11
21
-92.0758
0
LINE
8
BLACK
6
CONTINUOUS
10
118.11
20
-92.0758
11
118.11
21
-92.0758
0
LINE
8
BLACK
6
CONTINUOUS
10
118.11
20
-92.0758
11
118.11
21
-92.0758
0
LINE
8
BLACK
6
CONTINUOUS
10
118.11
20
-92.0758
11
118.11
21
-92.0758
0
LINE
8
BLACK
6
CONTINUOUS
10
118.11
20
-92.0758
11
118.111
21
-92.0758
0
LINE
8
BLACK
6
CONTINUOUS
10
118.111
20
-92.0758
11
118.115
21
-92.0763
0
LINE
8
BLACK
6
CONTINUOUS
10
118.115
20
-92.0763
11
118.12
21
-92.0768
0
LINE
8
BLACK
6
CONTINUOUS
10
118.12
20
-92.0768
11
118.12
21
-92.0769
0
LINE
8
BLACK
6
CONTINUOUS
10
118.12
20
-92.0769
11
118.12
21
-92.0769
0
LINE
8
BLACK
6
CONTINUOUS
10
118.12
20
-92.0769
11
118.125
21
-92.0783
0
LINE
8
BLACK
6
CONTINUOUS
10
118.125
20
-92.0783
11
118.129
21
-92.0797
0
LINE
8
BLACK
6
CONTINUOUS
10
118.129
20
-92.0797
11
118.13
21
-92.0798
0
LINE
8
BLACK
6
CONTINUOUS
10
118.13
20
-92.0798
11
118.13
21
-92.0798
0
LINE
8
BLACK
6
CONTINUOUS
10
118.13
20
-92.0798
11
118.134
21
-92.0821
0
LINE
8
BLACK
6
CONTINUOUS
10
118.134
20
-92.0821
11
118.138
21
-92.0843
0
LINE
8
BLACK
6
CONTINUOUS
10
118.138
20
-92.0843
11
118.138
21
-92.0845
0
LINE
8
BLACK
6
CONTINUOUS
10
118.138
20
-92.0845
11
118.138
21
-92.0845
0
LINE
8
BLACK
6
CONTINUOUS
10
118.138
20
-92.0845
11
118.142
21
-92.0875
0
LINE
8
BLACK
6
CONTINUOUS
10
118.142
20
-92.0875
11
118.145
21
-92.0906
0
LINE
8
BLACK
6
CONTINUOUS
10
118.145
20
-92.0906
11
118.146
21
-92.0907
0
LINE
8
BLACK
6
CONTINUOUS
10
118.146
20
-92.0907
11
118.146
21
-92.0908
0
LINE
8
BLACK
6
CONTINUOUS
10
118.146
20
-92.0908
11
118.149
21
-92.0944
0
LINE
8
BLACK
6
CONTINUOUS
10
118.149
20
-92.0944
11
118.152
21
-92.0981
0
LINE
8
BLACK
6
CONTINUOUS
10
118.152
20
-92.0981
11
118.152
21
-92.0983
0
LINE
8
BLACK
6
CONTINUOUS
10
118.152
20
-92.0983
11
118.152
21
-92.0984
0
LINE
8
BLACK
6
CONTINUOUS
10
118.152
20
-92.0984
11
118.154
21
-92.1025
0
LINE
8
BLACK
6
CONTINUOUS
10
118.154
20
-92.1025
11
118.156
21
-92.1067
0
LINE
8
BLACK
6
CONTINUOUS
10
118.156
20
-92.1067
11
118.156
21
-92.1069
0
LINE
8
BLACK
6
CONTINUOUS
10
118.156
20
-92.1069
11
118.156
21
-92.1071
0
LINE
8
BLACK
6
CONTINUOUS
10
118.156
20
-92.1071
11
118.158
21
-92.1115
0
LINE
8
BLACK
6
CONTINUOUS
10
118.158
20
-92.1115
11
118.159
21
-92.1161
0
LINE
8
BLACK
6
CONTINUOUS
10
118.159
20
-92.1161
11
118.159
21
-92.1163
0
LINE
8
BLACK
6
CONTINUOUS
10
118.159
20
-92.1163
11
118.159
21
-92.1164
0
LINE
8
BLACK
6
CONTINUOUS
10
118.159
20
-92.1164
11
118.16
21
-92.1211
0
LINE
8
BLACK
6
CONTINUOUS
10
118.16
20
-92.1211
11
118.16
21
-92.1258
0
LINE
8
BLACK
6
CONTINUOUS
10
118.16
20
-92.1258
11
118.16
21
-92.7108
0
LINE
8
BLACK
6
CONTINUOUS
10
118.16
20
-92.7108
11
118.695
21
-92.7108
0
LINE
8
BLACK
6
CONTINUOUS
10
118.695
20
-92.7108
11
118.695
21
-92.1258
0
LINE
8
BLACK
6
CONTINUOUS
10
118.695
20
-92.1258
11
118.695
21
-92.1255
0
LINE
8
BLACK
6
CONTINUOUS
10
118.695
20
-92.1255
11
118.695
21
-92.1255
0
LINE
8
BLACK
6
CONTINUOUS
10
118.695
20
-92.1255
11
118.695
21
-92.1254
0
LINE
8
BLACK
6
CONTINUOUS
10
118.695
20
-92.1254
11
118.695
21
-92.1251
0
LINE
8
BLACK
6
CONTINUOUS
10
118.695
20
-92.1251
11
118.696
21
-92.1205
0
LINE
8
BLACK
6
CONTINUOUS
10
118.696
20
-92.1205
11
118.696
21
-92.1157
0
LINE
8
BLACK
6
CONTINUOUS
10
118.696
20
-92.1157
11
118.696
21
-92.1156
0
LINE
8
BLACK
6
CONTINUOUS
10
118.696
20
-92.1156
11
118.696
21
-92.1154
0
LINE
8
BLACK
6
CONTINUOUS
10
118.696
20
-92.1154
11
118.698
21
-92.1109
0
LINE
8
BLACK
6
CONTINUOUS
10
118.698
20
-92.1109
11
118.699
21
-92.1064
0
LINE
8
BLACK
6
CONTINUOUS
10
118.699
20
-92.1064
11
118.699
21
-92.1063
0
LINE
8
BLACK
6
CONTINUOUS
10
118.699
20
-92.1063
11
118.699
21
-92.1061
0
LINE
8
BLACK
6
CONTINUOUS
10
118.699
20
-92.1061
11
118.701
21
-92.102
0
LINE
8
BLACK
6
CONTINUOUS
10
118.701
20
-92.102
11
118.704
21
-92.0978
0
LINE
8
BLACK
6
CONTINUOUS
10
118.704
20
-92.0978
11
118.704
21
-92.0977
0
LINE
8
BLACK
6
CONTINUOUS
10
118.704
20
-92.0977
11
118.704
21
-92.0976
0
LINE
8
BLACK
6
CONTINUOUS
10
118.704
20
-92.0976
11
118.707
21
-92.094
0
LINE
8
BLACK
6
CONTINUOUS
10
118.707
20
-92.094
11
118.71
21
-92.0903
0
LINE
8
BLACK
6
CONTINUOUS
10
118.71
20
-92.0903
11
118.71
21
-92.0902
0
LINE
8
BLACK
6
CONTINUOUS
10
118.71
20
-92.0902
11
118.71
21
-92.0901
0
LINE
8
BLACK
6
CONTINUOUS
10
118.71
20
-92.0901
11
118.714
21
-92.0872
0
LINE
8
BLACK
6
CONTINUOUS
10
118.714
20
-92.0872
11
118.717
21
-92.0842
0
LINE
8
BLACK
6
CONTINUOUS
10
118.717
20
-92.0842
11
118.717
21
-92.0841
0
LINE
8
BLACK
6
CONTINUOUS
10
118.717
20
-92.0841
11
118.718
21
-92.084
0
LINE
8
BLACK
6
CONTINUOUS
10
118.718
20
-92.084
11
118.722
21
-92.0818
0
LINE
8
BLACK
6
CONTINUOUS
10
118.722
20
-92.0818
11
118.726
21
-92.0796
0
LINE
8
BLACK
6
CONTINUOUS
10
118.726
20
-92.0796
11
118.726
21
-92.0795
0
LINE
8
BLACK
6
CONTINUOUS
10
118.726
20
-92.0795
11
118.726
21
-92.0794
0
LINE
8
BLACK
6
CONTINUOUS
10
118.726
20
-92.0794
11
118.731
21
-92.0781
0
LINE
8
BLACK
6
CONTINUOUS
10
118.731
20
-92.0781
11
118.735
21
-92.0768
0
LINE
8
BLACK
6
CONTINUOUS
10
118.735
20
-92.0768
11
118.735
21
-92.0767
0
LINE
8
BLACK
6
CONTINUOUS
10
118.735
20
-92.0767
11
118.736
21
-92.0767
0
LINE
8
BLACK
6
CONTINUOUS
10
118.736
20
-92.0767
11
118.74
21
-92.0763
0
LINE
8
BLACK
6
CONTINUOUS
10
118.74
20
-92.0763
11
118.745
21
-92.0758
0
LINE
8
BLACK
6
CONTINUOUS
10
118.745
20
-92.0758
11
119.38
21
-92.0758
0
LINE
8
BLACK
6
CONTINUOUS
10
119.38
20
-92.0758
11
119.38
21
-92.0758
0
LINE
8
BLACK
6
CONTINUOUS
10
119.38
20
-92.0758
11
119.38
21
-92.0758
0
LINE
8
BLACK
6
CONTINUOUS
10
119.38
20
-92.0758
11
119.38
21
-92.0758
0
LINE
8
BLACK
6
CONTINUOUS
10
119.38
20
-92.0758
11
119.381
21
-92.0758
0
LINE
8
BLACK
6
CONTINUOUS
10
119.381
20
-92.0758
11
119.385
21
-92.0763
0
LINE
8
BLACK
6
CONTINUOUS
10
119.385
20
-92.0763
11
119.39
21
-92.0768
0
LINE
8
BLACK
6
CONTINUOUS
10
119.39
20
-92.0768
11
119.39
21
-92.0769
0
LINE
8
BLACK
6
CONTINUOUS
10
119.39
20
-92.0769
11
119.39
21
-92.0769
0
LINE
8
BLACK
6
CONTINUOUS
10
119.39
20
-92.0769
11
119.395
21
-92.0783
0
LINE
8
BLACK
6
CONTINUOUS
10
119.395
20
-92.0783
11
119.399
21
-92.0797
0
LINE
8
BLACK
6
CONTINUOUS
10
119.399
20
-92.0797
11
119.4
21
-92.0798
0
LINE
8
BLACK
6
CONTINUOUS
10
119.4
20
-92.0798
11
119.4
21
-92.0798
0
LINE
8
BLACK
6
CONTINUOUS
10
119.4
20
-92.0798
11
119.404
21
-92.0821
0
LINE
8
BLACK
6
CONTINUOUS
10
119.404
20
-92.0821
11
119.408
21
-92.0843
0
LINE
8
BLACK
6
CONTINUOUS
10
119.408
20
-92.0843
11
119.408
21
-92.0845
0
LINE
8
BLACK
6
CONTINUOUS
10
119.408
20
-92.0845
11
119.408
21
-92.0845
0
LINE
8
BLACK
6
CONTINUOUS
10
119.408
20
-92.0845
11
119.412
21
-92.0875
0
LINE
8
BLACK
6
CONTINUOUS
10
119.412
20
-92.0875
11
119.415
21
-92.0906
0
LINE
8
BLACK
6
CONTINUOUS
10
119.415
20
-92.0906
11
119.416
21
-92.0907
0
LINE
8
BLACK
6
CONTINUOUS
10
119.416
20
-92.0907
11
119.416
21
-92.0908
0
LINE
8
BLACK
6
CONTINUOUS
10
119.416
20
-92.0908
11
119.419
21
-92.0944
0
LINE
8
BLACK
6
CONTINUOUS
10
119.419
20
-92.0944
11
119.422
21
-92.0981
0
LINE
8
BLACK
6
CONTINUOUS
10
119.422
20
-92.0981
11
119.422
21
-92.0983
0
LINE
8
BLACK
6
CONTINUOUS
10
119.422
20
-92.0983
11
119.422
21
-92.0984
0
LINE
8
BLACK
6
CONTINUOUS
10
119.422
20
-92.0984
11
119.424
21
-92.1025
0
LINE
8
BLACK
6
CONTINUOUS
10
119.424
20
-92.1025
11
119.426
21
-92.1067
0
LINE
8
BLACK
6
CONTINUOUS
10
119.426
20
-92.1067
11
119.426
21
-92.1069
0
LINE
8
BLACK
6
CONTINUOUS
10
119.426
20
-92.1069
11
119.426
21
-92.1071
0
LINE
8
BLACK
6
CONTINUOUS
10
119.426
20
-92.1071
11
119.428
21
-92.1115
0
LINE
8
BLACK
6
CONTINUOUS
10
119.428
20
-92.1115
11
119.429
21
-92.1161
0
LINE
8
BLACK
6
CONTINUOUS
10
119.429
20
-92.1161
11
119.429
21
-92.1163
0
LINE
8
BLACK
6
CONTINUOUS
10
119.429
20
-92.1163
11
119.429
21
-92.1164
0
LINE
8
BLACK
6
CONTINUOUS
10
119.429
20
-92.1164
11
119.43
21
-92.1211
0
LINE
8
BLACK
6
CONTINUOUS
10
119.43
20
-92.1211
11
119.43
21
-92.1258
0
LINE
8
BLACK
6
CONTINUOUS
10
119.43
20
-92.1258
11
119.43
21
-93.3958
0
LINE
8
BLACK
6
CONTINUOUS
10
119.43
20
-93.3958
11
119.43
21
-93.3961
0
LINE
8
BLACK
6
CONTINUOUS
10
117.525
20
-93.4458
11
117.525
21
-93.9808
0
LINE
8
BLACK
6
CONTINUOUS
10
117.525
20
-93.9808
11
118.06
21
-93.9808
0
LINE
8
BLACK
6
CONTINUOUS
10
118.06
20
-93.9808
11
118.06
21
-93.4458
0
LINE
8
BLACK
6
CONTINUOUS
10
118.06
20
-93.4458
11
117.525
21
-93.4458
0
LINE
8
BLACK
6
CONTINUOUS
10
120.65
20
-92.7108
11
120.65
21
-92.7108
0
LINE
8
BLACK
6
CONTINUOUS
10
120.65
20
-92.7108
11
120.65
21
-92.7108
0
LINE
8
BLACK
6
CONTINUOUS
10
120.65
20
-92.7108
11
120.651
21
-92.7108
0
LINE
8
BLACK
6
CONTINUOUS
10
120.651
20
-92.7108
11
120.655
21
-92.7113
0
LINE
8
BLACK
6
CONTINUOUS
10
120.655
20
-92.7113
11
120.66
21
-92.7118
0
LINE
8
BLACK
6
CONTINUOUS
10
120.66
20
-92.7118
11
120.66
21
-92.7119
0
LINE
8
BLACK
6
CONTINUOUS
10
120.66
20
-92.7119
11
120.66
21
-92.7119
0
LINE
8
BLACK
6
CONTINUOUS
10
120.66
20
-92.7119
11
120.665
21
-92.7133
0
LINE
8
BLACK
6
CONTINUOUS
10
120.665
20
-92.7133
11
120.669
21
-92.7147
0
LINE
8
BLACK
6
CONTINUOUS
10
120.669
20
-92.7147
11
120.67
21
-92.7148
0
LINE
8
BLACK
6
CONTINUOUS
10
120.67
20
-92.7148
11
120.67
21
-92.7148
0
LINE
8
BLACK
6
CONTINUOUS
10
120.67
20
-92.7148
11
120.674
21
-92.7171
0
LINE
8
BLACK
6
CONTINUOUS
10
120.674
20
-92.7171
11
120.678
21
-92.7193
0
LINE
8
BLACK
6
CONTINUOUS
10
120.678
20
-92.7193
11
120.678
21
-92.7195
0
LINE
8
BLACK
6
CONTINUOUS
10
120.678
20
-92.7195
11
120.678
21
-92.7195
0
LINE
8
BLACK
6
CONTINUOUS
10
120.678
20
-92.7195
11
120.682
21
-92.7225
0
LINE
8
BLACK
6
CONTINUOUS
10
120.682
20
-92.7225
11
120.685
21
-92.7256
0
LINE
8
BLACK
6
CONTINUOUS
10
120.685
20
-92.7256
11
120.686
21
-92.7257
0
LINE
8
BLACK
6
CONTINUOUS
10
120.686
20
-92.7257
11
120.686
21
-92.7258
0
LINE
8
BLACK
6
CONTINUOUS
10
120.686
20
-92.7258
11
120.689
21
-92.7294
0
LINE
8
BLACK
6
CONTINUOUS
10
120.689
20
-92.7294
11
120.692
21
-92.7331
0
LINE
8
BLACK
6
CONTINUOUS
10
120.692
20
-92.7331
11
120.692
21
-92.7333
0
LINE
8
BLACK
6
CONTINUOUS
10
120.692
20
-92.7333
11
120.692
21
-92.7334
0
LINE
8
BLACK
6
CONTINUOUS
10
120.692
20
-92.7334
11
120.694
21
-92.7375
0
LINE
8
BLACK
6
CONTINUOUS
10
120.694
20
-92.7375
11
120.696
21
-92.7417
0
LINE
8
BLACK
6
CONTINUOUS
10
120.696
20
-92.7417
11
120.696
21
-92.7419
0
LINE
8
BLACK
6
CONTINUOUS
10
120.696
20
-92.7419
11
120.696
21
-92.7421
0
LINE
8
BLACK
6
CONTINUOUS
10
120.696
20
-92.7421
11
120.698
21
-92.7465
0
LINE
8
BLACK
6
CONTINUOUS
10
120.698
20
-92.7465
11
120.699
21
-92.7511
0
LINE
8
BLACK
6
CONTINUOUS
10
120.699
20
-92.7511
11
120.699
21
-92.7513
0
LINE
8
BLACK
6
CONTINUOUS
10
120.699
20
-92.7513
11
120.699
21
-92.7514
0
LINE
8
BLACK
6
CONTINUOUS
10
120.699
20
-92.7514
11
120.7
21
-92.7561
0
LINE
8
BLACK
6
CONTINUOUS
10
120.7
20
-92.7561
11
120.7
21
-92.7608
0
LINE
8
BLACK
6
CONTINUOUS
10
120.7
20
-92.7608
11
120.7
21
-93.3958
0
LINE
8
BLACK
6
CONTINUOUS
10
120.7
20
-93.3958
11
120.7
21
-93.3961
0
LINE
8
BLACK
6
CONTINUOUS
10
120.7
20
-93.3961
11
120.7
21
-93.3961
0
LINE
8
BLACK
6
CONTINUOUS
10
120.7
20
-93.3961
11
120.7
21
-93.3962
0
LINE
8
BLACK
6
CONTINUOUS
10
120.7
20
-93.3962
11
120.7
21
-93.3965
0
LINE
8
BLACK
6
CONTINUOUS
10
120.7
20
-93.3965
11
120.699
21
-93.4011
0
LINE
8
BLACK
6
CONTINUOUS
10
120.699
20
-93.4011
11
120.699
21
-93.4059
0
LINE
8
BLACK
6
CONTINUOUS
10
120.699
20
-93.4059
11
120.699
21
-93.406
0
LINE
8
BLACK
6
CONTINUOUS
10
120.699
20
-93.406
11
120.699
21
-93.4062
0
LINE
8
BLACK
6
CONTINUOUS
10
120.699
20
-93.4062
11
120.697
21
-93.4107
0
LINE
8
BLACK
6
CONTINUOUS
10
120.697
20
-93.4107
11
120.696
21
-93.4152
0
LINE
8
BLACK
6
CONTINUOUS
10
120.696
20
-93.4152
11
120.696
21
-93.4153
0
LINE
8
BLACK
6
CONTINUOUS
10
120.696
20
-93.4153
11
120.696
21
-93.4155
0
LINE
8
BLACK
6
CONTINUOUS
10
120.696
20
-93.4155
11
120.694
21
-93.4196
0
LINE
8
BLACK
6
CONTINUOUS
10
120.694
20
-93.4196
11
120.691
21
-93.4238
0
LINE
8
BLACK
6
CONTINUOUS
10
120.691
20
-93.4238
11
120.691
21
-93.4239
0
LINE
8
BLACK
6
CONTINUOUS
10
120.691
20
-93.4239
11
120.691
21
-93.424
0
LINE
8
BLACK
6
CONTINUOUS
10
120.691
20
-93.424
11
120.688
21
-93.4276
0
LINE
8
BLACK
6
CONTINUOUS
10
120.688
20
-93.4276
11
120.685
21
-93.4313
0
LINE
8
BLACK
6
CONTINUOUS
10
120.685
20
-93.4313
11
120.685
21
-93.4314
0
LINE
8
BLACK
6
CONTINUOUS
10
120.685
20
-93.4314
11
120.685
21
-93.4315
0
LINE
8
BLACK
6
CONTINUOUS
10
120.685
20
-93.4315
11
120.681
21
-93.4344
0
LINE
8
BLACK
6
CONTINUOUS
10
120.681
20
-93.4344
11
120.678
21
-93.4374
0
LINE
8
BLACK
6
CONTINUOUS
10
120.678
20
-93.4374
11
120.678
21
-93.4375
0
LINE
8
BLACK
6
CONTINUOUS
10
120.678
20
-93.4375
11
120.677
21
-93.4376
0
LINE
8
BLACK
6
CONTINUOUS
10
120.677
20
-93.4376
11
120.673
21
-93.4398
0
LINE
8
BLACK
6
CONTINUOUS
10
120.673
20
-93.4398
11
120.669
21
-93.442
0
LINE
8
BLACK
6
CONTINUOUS
10
120.669
20
-93.442
11
120.669
21
-93.4421
0
LINE
8
BLACK
6
CONTINUOUS
10
120.669
20
-93.4421
11
120.669
21
-93.4422
0
LINE
8
BLACK
6
CONTINUOUS
10
120.669
20
-93.4422
11
120.664
21
-93.4435
0
LINE
8
BLACK
6
CONTINUOUS
10
120.664
20
-93.4435
11
120.66
21
-93.4448
0
LINE
8
BLACK
6
CONTINUOUS
10
120.66
20
-93.4448
11
120.66
21
-93.4449
0
LINE
8
BLACK
6
CONTINUOUS
10
120.66
20
-93.4449
11
120.659
21
-93.4449
0
LINE
8
BLACK
6
CONTINUOUS
10
120.659
20
-93.4449
11
120.655
21
-93.4453
0
LINE
8
BLACK
6
CONTINUOUS
10
120.655
20
-93.4453
11
120.65
21
-93.4458
0
LINE
8
BLACK
6
CONTINUOUS
10
120.65
20
-93.4458
11
120.015
21
-93.4458
0
LINE
8
BLACK
6
CONTINUOUS
10
120.015
20
-93.4458
11
120.015
21
-93.4458
0
LINE
8
BLACK
6
CONTINUOUS
10
120.015
20
-93.4458
11
120.015
21
-93.4458
0
LINE
8
BLACK
6
CONTINUOUS
10
120.015
20
-93.4458
11
120.015
21
-93.4458
0
LINE
8
BLACK
6
CONTINUOUS
10
120.015
20
-93.4458
11
120.014
21
-93.4458
0
LINE
8
BLACK
6
CONTINUOUS
10
120.014
20
-93.4458
11
120.01
21
-93.4453
0
LINE
8
BLACK
6
CONTINUOUS
10
120.01
20
-93.4453
11
120.005
21
-93.4448
0
LINE
8
BLACK
6
CONTINUOUS
10
120.005
20
-93.4448
11
120.005
21
-93.4447
0
LINE
8
BLACK
6
CONTINUOUS
10
120.005
20
-93.4447
11
120.005
21
-93.4447
0
LINE
8
BLACK
6
CONTINUOUS
10
120.005
20
-93.4447
11
120
21
-93.4433
0
LINE
8
BLACK
6
CONTINUOUS
10
120
20
-93.4433
11
119.996
21
-93.4419
0
LINE
8
BLACK
6
CONTINUOUS
10
119.996
20
-93.4419
11
119.995
21
-93.4418
0
LINE
8
BLACK
6
CONTINUOUS
10
119.995
20
-93.4418
11
119.995
21
-93.4418
0
LINE
8
BLACK
6
CONTINUOUS
10
119.995
20
-93.4418
11
119.991
21
-93.4395
0
LINE
8
BLACK
6
CONTINUOUS
10
119.991
20
-93.4395
11
119.987
21
-93.4373
0
LINE
8
BLACK
6
CONTINUOUS
10
119.987
20
-93.4373
11
119.987
21
-93.4371
0
LINE
8
BLACK
6
CONTINUOUS
10
119.987
20
-93.4371
11
119.987
21
-93.4371
0
LINE
8
BLACK
6
CONTINUOUS
10
119.987
20
-93.4371
11
119.983
21
-93.4341
0
LINE
8
BLACK
6
CONTINUOUS
10
119.983
20
-93.4341
11
119.98
21
-93.431
0
LINE
8
BLACK
6
CONTINUOUS
10
119.98
20
-93.431
11
119.979
21
-93.4309
0
LINE
8
BLACK
6
CONTINUOUS
10
119.979
20
-93.4309
11
119.979
21
-93.4308
0
LINE
8
BLACK
6
CONTINUOUS
10
119.979
20
-93.4308
11
119.976
21
-93.4272
0
LINE
8
BLACK
6
CONTINUOUS
10
119.976
20
-93.4272
11
119.973
21
-93.4235
0
LINE
8
BLACK
6
CONTINUOUS
10
119.973
20
-93.4235
11
119.973
21
-93.4233
0
LINE
8
BLACK
6
CONTINUOUS
10
119.973
20
-93.4233
11
119.973
21
-93.4232
0
LINE
8
BLACK
6
CONTINUOUS
10
119.973
20
-93.4232
11
119.971
21
-93.4191
0
LINE
8
BLACK
6
CONTINUOUS
10
119.971
20
-93.4191
11
119.969
21
-93.4149
0
LINE
8
BLACK
6
CONTINUOUS
10
119.969
20
-93.4149
11
119.969
21
-93.4147
0
LINE
8
BLACK
6
CONTINUOUS
10
119.969
20
-93.4147
11
119.969
21
-93.4145
0
LINE
8
BLACK
6
CONTINUOUS
10
119.969
20
-93.4145
11
119.967
21
-93.4101
0
LINE
8
BLACK
6
CONTINUOUS
10
119.967
20
-93.4101
11
119.966
21
-93.4055
0
LINE
8
BLACK
6
CONTINUOUS
10
119.966
20
-93.4055
11
119.966
21
-93.4053
0
LINE
8
BLACK
6
CONTINUOUS
10
119.966
20
-93.4053
11
119.966
21
-93.4052
0
LINE
8
BLACK
6
CONTINUOUS
10
119.966
20
-93.4052
11
119.965
21
-93.4005
0
LINE
8
BLACK
6
CONTINUOUS
10
119.965
20
-93.4005
11
119.965
21
-93.3958
0
LINE
8
BLACK
6
CONTINUOUS
10
119.965
20
-93.3958
11
119.965
21
-92.7608
0
LINE
8
BLACK
6
CONTINUOUS
10
119.965
20
-92.7608
11
119.965
21
-92.7605
0
LINE
8
BLACK
6
CONTINUOUS
10
119.965
20
-92.7605
11
119.965
21
-92.7605
0
LINE
8
BLACK
6
CONTINUOUS
10
119.965
20
-92.7605
11
119.965
21
-92.7604
0
LINE
8
BLACK
6
CONTINUOUS
10
119.965
20
-92.7604
11
119.965
21
-92.7601
0
LINE
8
BLACK
6
CONTINUOUS
10
119.965
20
-92.7601
11
119.966
21
-92.7555
0
LINE
8
BLACK
6
CONTINUOUS
10
119.966
20
-92.7555
11
119.966
21
-92.7507
0
LINE
8
BLACK
6
CONTINUOUS
10
119.966
20
-92.7507
11
119.966
21
-92.7506
0
LINE
8
BLACK
6
CONTINUOUS
10
119.966
20
-92.7506
11
119.966
21
-92.7504
0
LINE
8
BLACK
6
CONTINUOUS
10
119.966
20
-92.7504
11
119.968
21
-92.7459
0
LINE
8
BLACK
6
CONTINUOUS
10
119.968
20
-92.7459
11
119.969
21
-92.7414
0
LINE
8
BLACK
6
CONTINUOUS
10
119.969
20
-92.7414
11
119.969
21
-92.7413
0
LINE
8
BLACK
6
CONTINUOUS
10
119.969
20
-92.7413
11
119.969
21
-92.7411
0
LINE
8
BLACK
6
CONTINUOUS
10
119.969
20
-92.7411
11
119.971
21
-92.737
0
LINE
8
BLACK
6
CONTINUOUS
10
119.971
20
-92.737
11
119.974
21
-92.7328
0
LINE
8
BLACK
6
CONTINUOUS
10
119.974
20
-92.7328
11
119.974
21
-92.7327
0
LINE
8
BLACK
6
CONTINUOUS
10
119.974
20
-92.7327
11
119.974
21
-92.7326
0
LINE
8
BLACK
6
CONTINUOUS
10
119.974
20
-92.7326
11
119.977
21
-92.729
0
LINE
8
BLACK
6
CONTINUOUS
10
119.977
20
-92.729
11
119.98
21
-92.7253
0
LINE
8
BLACK
6
CONTINUOUS
10
119.98
20
-92.7253
11
119.98
21
-92.7252
0
LINE
8
BLACK
6
CONTINUOUS
10
119.98
20
-92.7252
11
119.98
21
-92.7251
0
LINE
8
BLACK
6
CONTINUOUS
10
119.98
20
-92.7251
11
119.984
21
-92.7222
0
LINE
8
BLACK
6
CONTINUOUS
10
119.984
20
-92.7222
11
119.987
21
-92.7192
0
LINE
8
BLACK
6
CONTINUOUS
10
119.987
20
-92.7192
11
119.987
21
-92.7191
0
LINE
8
BLACK
6
CONTINUOUS
10
119.987
20
-92.7191
11
119.988
21
-92.719
0
LINE
8
BLACK
6
CONTINUOUS
10
119.988
20
-92.719
11
119.992
21
-92.7168
0
LINE
8
BLACK
6
CONTINUOUS
10
119.992
20
-92.7168
11
119.996
21
-92.7146
0
LINE
8
BLACK
6
CONTINUOUS
10
119.996
20
-92.7146
11
119.996
21
-92.7145
0
LINE
8
BLACK
6
CONTINUOUS
10
119.996
20
-92.7145
11
119.996
21
-92.7144
0
LINE
8
BLACK
6
CONTINUOUS
10
119.996
20
-92.7144
11
120.001
21
-92.7131
0
LINE
8
BLACK
6
CONTINUOUS
10
120.001
20
-92.7131
11
120.005
21
-92.7118
0
LINE
8
BLACK
6
CONTINUOUS
10
120.005
20
-92.7118
11
120.005
21
-92.7117
0
LINE
8
BLACK
6
CONTINUOUS
10
120.005
20
-92.7117
11
120.006
21
-92.7117
0
LINE
8
BLACK
6
CONTINUOUS
10
120.006
20
-92.7117
11
120.01
21
-92.7113
0
LINE
8
BLACK
6
CONTINUOUS
10
120.01
20
-92.7113
11
120.015
21
-92.7108
0
LINE
8
BLACK
6
CONTINUOUS
10
120.015
20
-92.7108
11
120.65
21
-92.7108
0
LINE
8
BLACK
6
CONTINUOUS
10
120.65
20
-92.7108
11
120.65
21
-92.7108
0
LINE
8
BLACK
6
CONTINUOUS
10
139.736
20
-72.3374
11
140.154
21
-72.5108
0
LINE
8
BLACK
6
CONTINUOUS
10
140.154
20
-72.5108
11
140.531
21
-72.7625
0
LINE
8
BLACK
6
CONTINUOUS
10
140.531
20
-72.7625
11
140.852
21
-73.0828
0
LINE
8
BLACK
6
CONTINUOUS
10
140.852
20
-73.0828
11
141.103
21
-73.4595
0
LINE
8
BLACK
6
CONTINUOUS
10
141.103
20
-73.4595
11
141.277
21
-73.8781
0
LINE
8
BLACK
6
CONTINUOUS
10
141.277
20
-73.8781
11
141.365
21
-74.3225
0
LINE
8
BLACK
6
CONTINUOUS
10
141.365
20
-74.3225
11
141.365
21
-74.7755
0
LINE
8
BLACK
6
CONTINUOUS
10
141.365
20
-74.7755
11
141.277
21
-75.2199
0
LINE
8
BLACK
6
CONTINUOUS
10
141.277
20
-75.2199
11
141.103
21
-75.6385
0
LINE
8
BLACK
6
CONTINUOUS
10
141.103
20
-75.6385
11
140.852
21
-76.0152
0
LINE
8
BLACK
6
CONTINUOUS
10
140.852
20
-76.0152
11
140.531
21
-76.3355
0
LINE
8
BLACK
6
CONTINUOUS
10
140.531
20
-76.3355
11
140.154
21
-76.5872
0
LINE
8
BLACK
6
CONTINUOUS
10
140.154
20
-76.5872
11
139.736
21
-76.7606
0
LINE
8
BLACK
6
CONTINUOUS
10
139.736
20
-76.7606
11
139.292
21
-76.849
0
LINE
8
BLACK
6
CONTINUOUS
10
139.292
20
-76.849
11
138.838
21
-76.849
0
LINE
8
BLACK
6
CONTINUOUS
10
138.838
20
-76.849
11
138.394
21
-76.7606
0
LINE
8
BLACK
6
CONTINUOUS
10
138.394
20
-76.7606
11
137.976
21
-76.5872
0
LINE
8
BLACK
6
CONTINUOUS
10
137.976
20
-76.5872
11
137.599
21
-76.3355
0
LINE
8
BLACK
6
CONTINUOUS
10
137.599
20
-76.3355
11
137.278
21
-76.0152
0
LINE
8
BLACK
6
CONTINUOUS
10
137.278
20
-76.0152
11
137.027
21
-75.6385
0
LINE
8
BLACK
6
CONTINUOUS
10
137.027
20
-75.6385
11
136.853
21
-75.2199
0
LINE
8
BLACK
6
CONTINUOUS
10
136.853
20
-75.2199
11
136.765
21
-74.7755
0
LINE
8
BLACK
6
CONTINUOUS
10
136.765
20
-74.7755
11
136.765
21
-74.3225
0
LINE
8
BLACK
6
CONTINUOUS
10
136.765
20
-74.3225
11
136.853
21
-73.8781
0
LINE
8
BLACK
6
CONTINUOUS
10
136.853
20
-73.8781
11
137.027
21
-73.4595
0
LINE
8
BLACK
6
CONTINUOUS
10
137.027
20
-73.4595
11
137.278
21
-73.0828
0
LINE
8
BLACK
6
CONTINUOUS
10
137.278
20
-73.0828
11
137.599
21
-72.7625
0
LINE
8
BLACK
6
CONTINUOUS
10
137.599
20
-72.7625
11
137.976
21
-72.5108
0
LINE
8
BLACK
6
CONTINUOUS
10
137.976
20
-72.5108
11
138.394
21
-72.3374
0
LINE
8
BLACK
6
CONTINUOUS
10
138.394
20
-72.3374
11
138.838
21
-72.249
0
LINE
8
BLACK
6
CONTINUOUS
10
138.838
20
-72.249
11
139.292
21
-72.249
0
LINE
8
BLACK
6
CONTINUOUS
10
139.292
20
-72.249
11
139.736
21
-72.3374
0
LINE
8
BLACK
6
CONTINUOUS
10
127.798
20
-72.3374
11
128.216
21
-72.5108
0
LINE
8
BLACK
6
CONTINUOUS
10
128.216
20
-72.5108
11
128.593
21
-72.7625
0
LINE
8
BLACK
6
CONTINUOUS
10
128.593
20
-72.7625
11
128.914
21
-73.0828
0
LINE
8
BLACK
6
CONTINUOUS
10
128.914
20
-73.0828
11
129.165
21
-73.4595
0
LINE
8
BLACK
6
CONTINUOUS
10
129.165
20
-73.4595
11
129.339
21
-73.8781
0
LINE
8
BLACK
6
CONTINUOUS
10
129.339
20
-73.8781
11
129.427
21
-74.3225
0
LINE
8
BLACK
6
CONTINUOUS
10
129.427
20
-74.3225
11
129.427
21
-74.7755
0
LINE
8
BLACK
6
CONTINUOUS
10
129.427
20
-74.7755
11
129.339
21
-75.2199
0
LINE
8
BLACK
6
CONTINUOUS
10
129.339
20
-75.2199
11
129.165
21
-75.6385
0
LINE
8
BLACK
6
CONTINUOUS
10
129.165
20
-75.6385
11
128.914
21
-76.0152
0
LINE
8
BLACK
6
CONTINUOUS
10
128.914
20
-76.0152
11
128.593
21
-76.3355
0
LINE
8
BLACK
6
CONTINUOUS
10
128.593
20
-76.3355
11
128.216
21
-76.5872
0
LINE
8
BLACK
6
CONTINUOUS
10
128.216
20
-76.5872
11
127.798
21
-76.7606
0
LINE
8
BLACK
6
CONTINUOUS
10
127.798
20
-76.7606
11
127.354
21
-76.849
0
LINE
8
BLACK
6
CONTINUOUS
10
127.354
20
-76.849
11
126.9
21
-76.849
0
LINE
8
BLACK
6
CONTINUOUS
10
126.9
20
-76.849
11
126.456
21
-76.7606
0
LINE
8
BLACK
6
CONTINUOUS
10
126.456
20
-76.7606
11
126.038
21
-76.5872
0
LINE
8
BLACK
6
CONTINUOUS
10
126.038
20
-76.5872
11
125.661
21
-76.3355
0
LINE
8
BLACK
6
CONTINUOUS
10
125.661
20
-76.3355
11
125.34
21
-76.0152
0
LINE
8
BLACK
6
CONTINUOUS
10
125.34
20
-76.0152
11
125.089
21
-75.6385
0
LINE
8
BLACK
6
CONTINUOUS
10
125.089
20
-75.6385
11
124.915
21
-75.2199
0
LINE
8
BLACK
6
CONTINUOUS
10
124.915
20
-75.2199
11
124.827
21
-74.7755
0
LINE
8
BLACK
6
CONTINUOUS
10
124.827
20
-74.7755
11
124.827
21
-74.3225
0
LINE
8
BLACK
6
CONTINUOUS
10
124.827
20
-74.3225
11
124.915
21
-73.8781
0
LINE
8
BLACK
6
CONTINUOUS
10
124.915
20
-73.8781
11
125.089
21
-73.4595
0
LINE
8
BLACK
6
CONTINUOUS
10
125.089
20
-73.4595
11
125.34
21
-73.0828
0
LINE
8
BLACK
6
CONTINUOUS
10
125.34
20
-73.0828
11
125.661
21
-72.7625
0
LINE
8
BLACK
6
CONTINUOUS
10
125.661
20
-72.7625
11
126.038
21
-72.5108
0
LINE
8
BLACK
6
CONTINUOUS
10
126.038
20
-72.5108
11
126.456
21
-72.3374
0
LINE
8
BLACK
6
CONTINUOUS
10
126.456
20
-72.3374
11
126.9
21
-72.249
0
LINE
8
BLACK
6
CONTINUOUS
10
126.9
20
-72.249
11
127.354
21
-72.249
0
LINE
8
BLACK
6
CONTINUOUS
10
127.354
20
-72.249
11
127.798
21
-72.3374
0
LINE
8
BLACK
6
CONTINUOUS
10
115.86
20
-72.3374
11
116.278
21
-72.5108
0
LINE
8
BLACK
6
CONTINUOUS
10
116.278
20
-72.5108
11
116.655
21
-72.7625
0
LINE
8
BLACK
6
CONTINUOUS
10
116.655
20
-72.7625
11
116.976
21
-73.0828
0
LINE
8
BLACK
6
CONTINUOUS
10
116.976
20
-73.0828
11
117.227
21
-73.4595
0
LINE
8
BLACK
6
CONTINUOUS
10
117.227
20
-73.4595
11
117.401
21
-73.8781
0
LINE
8
BLACK
6
CONTINUOUS
10
117.401
20
-73.8781
11
117.489
21
-74.3225
0
LINE
8
BLACK
6
CONTINUOUS
10
117.489
20
-74.3225
11
117.489
21
-74.7755
0
LINE
8
BLACK
6
CONTINUOUS
10
117.489
20
-74.7755
11
117.401
21
-75.2199
0
LINE
8
BLACK
6
CONTINUOUS
10
117.401
20
-75.2199
11
117.227
21
-75.6385
0
LINE
8
BLACK
6
CONTINUOUS
10
117.227
20
-75.6385
11
116.976
21
-76.0152
0
LINE
8
BLACK
6
CONTINUOUS
10
116.976
20
-76.0152
11
116.655
21
-76.3355
0
LINE
8
BLACK
6
CONTINUOUS
10
116.655
20
-76.3355
11
116.278
21
-76.5872
0
LINE
8
BLACK
6
CONTINUOUS
10
116.278
20
-76.5872
11
115.86
21
-76.7606
0
LINE
8
BLACK
6
CONTINUOUS
10
115.86
20
-76.7606
11
115.416
21
-76.849
0
LINE
8
BLACK
6
CONTINUOUS
10
115.416
20
-76.849
11
114.962
21
-76.849
0
LINE
8
BLACK
6
CONTINUOUS
10
114.962
20
-76.849
11
114.518
21
-76.7606
0
LINE
8
BLACK
6
CONTINUOUS
10
114.518
20
-76.7606
11
114.1
21
-76.5872
0
LINE
8
BLACK
6
CONTINUOUS
10
114.1
20
-76.5872
11
113.723
21
-76.3355
0
LINE
8
BLACK
6
CONTINUOUS
10
113.723
20
-76.3355
11
113.402
21
-76.0152
0
LINE
8
BLACK
6
CONTINUOUS
10
113.402
20
-76.0152
11
113.151
21
-75.6385
0
LINE
8
BLACK
6
CONTINUOUS
10
113.151
20
-75.6385
11
112.977
21
-75.2199
0
LINE
8
BLACK
6
CONTINUOUS
10
112.977
20
-75.2199
11
112.889
21
-74.7755
0
LINE
8
BLACK
6
CONTINUOUS
10
112.889
20
-74.7755
11
112.889
21
-74.3225
0
LINE
8
BLACK
6
CONTINUOUS
10
112.889
20
-74.3225
11
112.977
21
-73.8781
0
LINE
8
BLACK
6
CONTINUOUS
10
112.977
20
-73.8781
11
113.151
21
-73.4595
0
LINE
8
BLACK
6
CONTINUOUS
10
113.151
20
-73.4595
11
113.402
21
-73.0828
0
LINE
8
BLACK
6
CONTINUOUS
10
113.402
20
-73.0828
11
113.723
21
-72.7625
0
LINE
8
BLACK
6
CONTINUOUS
10
113.723
20
-72.7625
11
114.1
21
-72.5108
0
LINE
8
BLACK
6
CONTINUOUS
10
114.1
20
-72.5108
11
114.518
21
-72.3374
0
LINE
8
BLACK
6
CONTINUOUS
10
114.518
20
-72.3374
11
114.962
21
-72.249
0
LINE
8
BLACK
6
CONTINUOUS
10
114.962
20
-72.249
11
115.416
21
-72.249
0
LINE
8
BLACK
6
CONTINUOUS
10
115.416
20
-72.249
11
115.86
21
-72.3374
  0
ENDSEC
  0
EOF
