%TF.GenerationSoftware,KiCad,Pcbnew,(5.1.12)-1*%
%TF.CreationDate,2021-12-10T07:52:41+00:00*%
%TF.ProjectId,RGBtoHDMI Amiga Denise CPLD FFC - CDTV Video Slot - Face Plate,52474274-6f48-4444-9d49-20416d696761,1*%
%TF.SameCoordinates,Original*%
%TF.FileFunction,Legend,Bot*%
%TF.FilePolarity,Positive*%
%FSLAX46Y46*%
G04 Gerber Fmt 4.6, Leading zero omitted, Abs format (unit mm)*
G04 Created by KiCad (PCBNEW (5.1.12)-1) date 2021-12-10 07:52:41*
%MOMM*%
%LPD*%
G01*
G04 APERTURE LIST*
%ADD10C,0.100000*%
G04 APERTURE END LIST*
D10*
X122602047Y-94626180D02*
X122602047Y-95340466D01*
X122649666Y-95483323D01*
X122744904Y-95578561D01*
X122887761Y-95626180D01*
X122983000Y-95626180D01*
X121649666Y-95626180D02*
X122125857Y-95626180D01*
X122125857Y-94626180D01*
X120744904Y-95530942D02*
X120792523Y-95578561D01*
X120935380Y-95626180D01*
X121030619Y-95626180D01*
X121173476Y-95578561D01*
X121268714Y-95483323D01*
X121316333Y-95388085D01*
X121363952Y-95197609D01*
X121363952Y-95054752D01*
X121316333Y-94864276D01*
X121268714Y-94769038D01*
X121173476Y-94673800D01*
X121030619Y-94626180D01*
X120935380Y-94626180D01*
X120792523Y-94673800D01*
X120744904Y-94721419D01*
X120030619Y-94626180D02*
X120030619Y-95340466D01*
X120078238Y-95483323D01*
X120173476Y-95578561D01*
X120316333Y-95626180D01*
X120411571Y-95626180D01*
X119078238Y-95626180D02*
X119554428Y-95626180D01*
X119554428Y-94626180D01*
X118173476Y-95530942D02*
X118221095Y-95578561D01*
X118363952Y-95626180D01*
X118459190Y-95626180D01*
X118602047Y-95578561D01*
X118697285Y-95483323D01*
X118744904Y-95388085D01*
X118792523Y-95197609D01*
X118792523Y-95054752D01*
X118744904Y-94864276D01*
X118697285Y-94769038D01*
X118602047Y-94673800D01*
X118459190Y-94626180D01*
X118363952Y-94626180D01*
X118221095Y-94673800D01*
X118173476Y-94721419D01*
X117459190Y-94626180D02*
X117459190Y-95340466D01*
X117506809Y-95483323D01*
X117602047Y-95578561D01*
X117744904Y-95626180D01*
X117840142Y-95626180D01*
X116506809Y-95626180D02*
X116983000Y-95626180D01*
X116983000Y-94626180D01*
X115602047Y-95530942D02*
X115649666Y-95578561D01*
X115792523Y-95626180D01*
X115887761Y-95626180D01*
X116030619Y-95578561D01*
X116125857Y-95483323D01*
X116173476Y-95388085D01*
X116221095Y-95197609D01*
X116221095Y-95054752D01*
X116173476Y-94864276D01*
X116125857Y-94769038D01*
X116030619Y-94673800D01*
X115887761Y-94626180D01*
X115792523Y-94626180D01*
X115649666Y-94673800D01*
X115602047Y-94721419D01*
X114887761Y-94626180D02*
X114887761Y-95340466D01*
X114935380Y-95483323D01*
X115030619Y-95578561D01*
X115173476Y-95626180D01*
X115268714Y-95626180D01*
X113935380Y-95626180D02*
X114411571Y-95626180D01*
X114411571Y-94626180D01*
X113030619Y-95530942D02*
X113078238Y-95578561D01*
X113221095Y-95626180D01*
X113316333Y-95626180D01*
X113459190Y-95578561D01*
X113554428Y-95483323D01*
X113602047Y-95388085D01*
X113649666Y-95197609D01*
X113649666Y-95054752D01*
X113602047Y-94864276D01*
X113554428Y-94769038D01*
X113459190Y-94673800D01*
X113316333Y-94626180D01*
X113221095Y-94626180D01*
X113078238Y-94673800D01*
X113030619Y-94721419D01*
M02*
