%TF.GenerationSoftware,KiCad,Pcbnew,(5.1.9)-1*%
%TF.CreationDate,2021-11-23T16:03:36+00:00*%
%TF.ProjectId,RGBtoHDMI Amiga Denise CPLD FFC - CDTV Video Slot - Face Plate,52474274-6f48-4444-9d49-20416d696761,1*%
%TF.SameCoordinates,Original*%
%TF.FileFunction,Profile,NP*%
%FSLAX46Y46*%
G04 Gerber Fmt 4.6, Leading zero omitted, Abs format (unit mm)*
G04 Created by KiCad (PCBNEW (5.1.9)-1) date 2021-11-23 16:03:36*
%MOMM*%
%LPD*%
G01*
G04 APERTURE LIST*
%TA.AperFunction,Profile*%
%ADD10C,0.050000*%
%TD*%
G04 APERTURE END LIST*
D10*
X103505000Y-83870800D02*
X105029000Y-82473800D01*
X92329000Y-83870800D02*
X90932000Y-82473800D01*
X104648000Y-70535800D02*
X104648000Y-73075800D01*
X104648000Y-73075800D02*
X91313000Y-73075800D01*
X104648000Y-70535800D02*
X91313000Y-70535800D01*
X91313000Y-70535800D02*
X91313000Y-73075800D01*
X104698800Y-66738500D02*
X99695000Y-66738500D01*
X104698800Y-68745100D02*
X104698800Y-66738500D01*
X99695000Y-68745100D02*
X104698800Y-68745100D01*
X99695000Y-66738500D02*
X99695000Y-68745100D01*
X96316800Y-66725800D02*
X91325700Y-66725800D01*
X96316800Y-68732400D02*
X96316800Y-66725800D01*
X91325700Y-68732400D02*
X96316800Y-68732400D01*
X91325700Y-66725800D02*
X91325700Y-68732400D01*
X157086300Y-68795900D02*
X150926800Y-68795900D01*
X157086300Y-70396100D02*
X157086300Y-68795900D01*
X150926800Y-70396100D02*
X157086300Y-70396100D01*
X150926800Y-68795900D02*
X150926800Y-70396100D01*
X85140800Y-68808600D02*
X78994000Y-68808600D01*
X85140800Y-70408800D02*
X85140800Y-68808600D01*
X78994000Y-70408800D02*
X85140800Y-70408800D01*
X78994000Y-68808600D02*
X78994000Y-70408800D01*
X103505000Y-83870800D02*
X92329000Y-83870800D01*
X105029000Y-75234800D02*
X105029000Y-82473800D01*
X90932000Y-75234800D02*
X105029000Y-75234800D01*
X90932000Y-82473800D02*
X90932000Y-75234800D01*
X70002400Y-98882200D02*
X71081900Y-99999800D01*
X168998900Y-98920300D02*
X167881300Y-99999800D01*
X168998900Y-61112400D02*
X167919400Y-59994800D01*
X70002400Y-61087000D02*
X71120000Y-60007500D01*
X168998900Y-61112400D02*
X168998900Y-98920300D01*
X71081900Y-99999800D02*
X167881300Y-99999800D01*
X71120000Y-60007500D02*
X167919400Y-59994800D01*
X70002400Y-61087000D02*
X70002400Y-98882200D01*
M02*
