%TF.GenerationSoftware,KiCad,Pcbnew,(5.1.9)-1*%
%TF.CreationDate,2021-11-07T21:10:23+00:00*%
%TF.ProjectId,RGBtoHDMI Amiga Denise CPLD FFC - CDTV Video Slot - Face Plate,52474274-6f48-4444-9d49-20416d696761,1*%
%TF.SameCoordinates,Original*%
%TF.FileFunction,Legend,Top*%
%TF.FilePolarity,Positive*%
%FSLAX46Y46*%
G04 Gerber Fmt 4.6, Leading zero omitted, Abs format (unit mm)*
G04 Created by KiCad (PCBNEW (5.1.9)-1) date 2021-11-07 21:10:23*
%MOMM*%
%LPD*%
G01*
G04 APERTURE LIST*
%ADD10C,0.150000*%
%ADD11C,0.200000*%
%ADD12C,0.100000*%
G04 APERTURE END LIST*
D10*
X135580880Y-70607133D02*
X135533261Y-70559514D01*
X135438023Y-70416657D01*
X135390404Y-70321419D01*
X135342785Y-70178561D01*
X135295166Y-69940466D01*
X135295166Y-69749990D01*
X135342785Y-69511895D01*
X135390404Y-69369038D01*
X135438023Y-69273800D01*
X135533261Y-69130942D01*
X135580880Y-69083323D01*
X136485642Y-69273800D02*
X136390404Y-69226180D01*
X136247547Y-69226180D01*
X136104690Y-69273800D01*
X136009452Y-69369038D01*
X135961833Y-69464276D01*
X135914214Y-69654752D01*
X135914214Y-69797609D01*
X135961833Y-69988085D01*
X136009452Y-70083323D01*
X136104690Y-70178561D01*
X136247547Y-70226180D01*
X136342785Y-70226180D01*
X136485642Y-70178561D01*
X136533261Y-70130942D01*
X136533261Y-69797609D01*
X136342785Y-69797609D01*
X136961833Y-69702371D02*
X137295166Y-69702371D01*
X137438023Y-70226180D02*
X136961833Y-70226180D01*
X136961833Y-69226180D01*
X137438023Y-69226180D01*
X137866595Y-70226180D02*
X137866595Y-69226180D01*
X138438023Y-70226180D01*
X138438023Y-69226180D01*
X139390404Y-70226180D02*
X138914214Y-70226180D01*
X138914214Y-69226180D01*
X139914214Y-69226180D02*
X140104690Y-69226180D01*
X140199928Y-69273800D01*
X140295166Y-69369038D01*
X140342785Y-69559514D01*
X140342785Y-69892847D01*
X140295166Y-70083323D01*
X140199928Y-70178561D01*
X140104690Y-70226180D01*
X139914214Y-70226180D01*
X139818976Y-70178561D01*
X139723738Y-70083323D01*
X139676119Y-69892847D01*
X139676119Y-69559514D01*
X139723738Y-69369038D01*
X139818976Y-69273800D01*
X139914214Y-69226180D01*
X141342785Y-70130942D02*
X141295166Y-70178561D01*
X141152309Y-70226180D01*
X141057071Y-70226180D01*
X140914214Y-70178561D01*
X140818976Y-70083323D01*
X140771357Y-69988085D01*
X140723738Y-69797609D01*
X140723738Y-69654752D01*
X140771357Y-69464276D01*
X140818976Y-69369038D01*
X140914214Y-69273800D01*
X141057071Y-69226180D01*
X141152309Y-69226180D01*
X141295166Y-69273800D01*
X141342785Y-69321419D01*
X141771357Y-70226180D02*
X141771357Y-69226180D01*
X142342785Y-70226180D02*
X141914214Y-69654752D01*
X142342785Y-69226180D02*
X141771357Y-69797609D01*
X142676119Y-70607133D02*
X142723738Y-70559514D01*
X142818976Y-70416657D01*
X142866595Y-70321419D01*
X142914214Y-70178561D01*
X142961833Y-69940466D01*
X142961833Y-69749990D01*
X142914214Y-69511895D01*
X142866595Y-69369038D01*
X142818976Y-69273800D01*
X142723738Y-69130942D01*
X142676119Y-69083323D01*
X113355666Y-70353180D02*
X113355666Y-69353180D01*
X113689000Y-70067466D01*
X114022333Y-69353180D01*
X114022333Y-70353180D01*
X114498523Y-69829371D02*
X114831857Y-69829371D01*
X114974714Y-70353180D02*
X114498523Y-70353180D01*
X114498523Y-69353180D01*
X114974714Y-69353180D01*
X115403285Y-70353180D02*
X115403285Y-69353180D01*
X115974714Y-70353180D01*
X115974714Y-69353180D01*
X116450904Y-69353180D02*
X116450904Y-70162704D01*
X116498523Y-70257942D01*
X116546142Y-70305561D01*
X116641380Y-70353180D01*
X116831857Y-70353180D01*
X116927095Y-70305561D01*
X116974714Y-70257942D01*
X117022333Y-70162704D01*
X117022333Y-69353180D01*
X86246000Y-74631466D02*
X86207904Y-74593371D01*
X86131714Y-74479085D01*
X86093619Y-74402895D01*
X86055523Y-74288609D01*
X86017428Y-74098133D01*
X86017428Y-73945752D01*
X86055523Y-73755276D01*
X86093619Y-73640990D01*
X86131714Y-73564800D01*
X86207904Y-73450514D01*
X86246000Y-73412419D01*
X86969809Y-74326704D02*
X86512666Y-74326704D01*
X86741238Y-74326704D02*
X86741238Y-73526704D01*
X86665047Y-73640990D01*
X86588857Y-73717180D01*
X86512666Y-73755276D01*
X87731714Y-74326704D02*
X87274571Y-74326704D01*
X87503142Y-74326704D02*
X87503142Y-73526704D01*
X87426952Y-73640990D01*
X87350761Y-73717180D01*
X87274571Y-73755276D01*
X88455523Y-73526704D02*
X88074571Y-73526704D01*
X88036476Y-73907657D01*
X88074571Y-73869561D01*
X88150761Y-73831466D01*
X88341238Y-73831466D01*
X88417428Y-73869561D01*
X88455523Y-73907657D01*
X88493619Y-73983847D01*
X88493619Y-74174323D01*
X88455523Y-74250514D01*
X88417428Y-74288609D01*
X88341238Y-74326704D01*
X88150761Y-74326704D01*
X88074571Y-74288609D01*
X88036476Y-74250514D01*
X88798380Y-73602895D02*
X88836476Y-73564800D01*
X88912666Y-73526704D01*
X89103142Y-73526704D01*
X89179333Y-73564800D01*
X89217428Y-73602895D01*
X89255523Y-73679085D01*
X89255523Y-73755276D01*
X89217428Y-73869561D01*
X88760285Y-74326704D01*
X89255523Y-74326704D01*
X89750761Y-73526704D02*
X89826952Y-73526704D01*
X89903142Y-73564800D01*
X89941238Y-73602895D01*
X89979333Y-73679085D01*
X90017428Y-73831466D01*
X90017428Y-74021942D01*
X89979333Y-74174323D01*
X89941238Y-74250514D01*
X89903142Y-74288609D01*
X89826952Y-74326704D01*
X89750761Y-74326704D01*
X89674571Y-74288609D01*
X89636476Y-74250514D01*
X89598380Y-74174323D01*
X89560285Y-74021942D01*
X89560285Y-73831466D01*
X89598380Y-73679085D01*
X89636476Y-73602895D01*
X89674571Y-73564800D01*
X89750761Y-73526704D01*
X90512666Y-73526704D02*
X90588857Y-73526704D01*
X90665047Y-73564800D01*
X90703142Y-73602895D01*
X90741238Y-73679085D01*
X90779333Y-73831466D01*
X90779333Y-74021942D01*
X90741238Y-74174323D01*
X90703142Y-74250514D01*
X90665047Y-74288609D01*
X90588857Y-74326704D01*
X90512666Y-74326704D01*
X90436476Y-74288609D01*
X90398380Y-74250514D01*
X90360285Y-74174323D01*
X90322190Y-74021942D01*
X90322190Y-73831466D01*
X90360285Y-73679085D01*
X90398380Y-73602895D01*
X90436476Y-73564800D01*
X90512666Y-73526704D01*
X91046000Y-74631466D02*
X91084095Y-74593371D01*
X91160285Y-74479085D01*
X91198380Y-74402895D01*
X91236476Y-74288609D01*
X91274571Y-74098133D01*
X91274571Y-73945752D01*
X91236476Y-73755276D01*
X91198380Y-73640990D01*
X91160285Y-73564800D01*
X91084095Y-73450514D01*
X91046000Y-73412419D01*
X93589571Y-74388657D02*
X94046714Y-74388657D01*
X93818142Y-74617228D02*
X93818142Y-74160085D01*
X94618142Y-74017228D02*
X94332428Y-74017228D01*
X94303857Y-74302942D01*
X94332428Y-74274371D01*
X94389571Y-74245800D01*
X94532428Y-74245800D01*
X94589571Y-74274371D01*
X94618142Y-74302942D01*
X94646714Y-74360085D01*
X94646714Y-74502942D01*
X94618142Y-74560085D01*
X94589571Y-74588657D01*
X94532428Y-74617228D01*
X94389571Y-74617228D01*
X94332428Y-74588657D01*
X94303857Y-74560085D01*
X94818142Y-74017228D02*
X95018142Y-74617228D01*
X95218142Y-74017228D01*
X96443857Y-74045800D02*
X96386714Y-74017228D01*
X96301000Y-74017228D01*
X96215285Y-74045800D01*
X96158142Y-74102942D01*
X96129571Y-74160085D01*
X96101000Y-74274371D01*
X96101000Y-74360085D01*
X96129571Y-74474371D01*
X96158142Y-74531514D01*
X96215285Y-74588657D01*
X96301000Y-74617228D01*
X96358142Y-74617228D01*
X96443857Y-74588657D01*
X96472428Y-74560085D01*
X96472428Y-74360085D01*
X96358142Y-74360085D01*
X96729571Y-74617228D02*
X96729571Y-74017228D01*
X97072428Y-74617228D01*
X97072428Y-74017228D01*
X97358142Y-74617228D02*
X97358142Y-74017228D01*
X97501000Y-74017228D01*
X97586714Y-74045800D01*
X97643857Y-74102942D01*
X97672428Y-74160085D01*
X97701000Y-74274371D01*
X97701000Y-74360085D01*
X97672428Y-74474371D01*
X97643857Y-74531514D01*
X97586714Y-74588657D01*
X97501000Y-74617228D01*
X97358142Y-74617228D01*
X98907666Y-73962466D02*
X99307666Y-73962466D01*
X99107666Y-74662466D02*
X99107666Y-73962466D01*
X99474333Y-73962466D02*
X99941000Y-74662466D01*
X99941000Y-73962466D02*
X99474333Y-74662466D01*
X101610333Y-74662466D02*
X101377000Y-74329133D01*
X101210333Y-74662466D02*
X101210333Y-73962466D01*
X101477000Y-73962466D01*
X101543666Y-73995800D01*
X101577000Y-74029133D01*
X101610333Y-74095800D01*
X101610333Y-74195800D01*
X101577000Y-74262466D01*
X101543666Y-74295800D01*
X101477000Y-74329133D01*
X101210333Y-74329133D01*
X101843666Y-73962466D02*
X102310333Y-74662466D01*
X102310333Y-73962466D02*
X101843666Y-74662466D01*
X86669809Y-70750561D02*
X86812666Y-70798180D01*
X87050761Y-70798180D01*
X87146000Y-70750561D01*
X87193619Y-70702942D01*
X87241238Y-70607704D01*
X87241238Y-70512466D01*
X87193619Y-70417228D01*
X87146000Y-70369609D01*
X87050761Y-70321990D01*
X86860285Y-70274371D01*
X86765047Y-70226752D01*
X86717428Y-70179133D01*
X86669809Y-70083895D01*
X86669809Y-69988657D01*
X86717428Y-69893419D01*
X86765047Y-69845800D01*
X86860285Y-69798180D01*
X87098380Y-69798180D01*
X87241238Y-69845800D01*
X88050761Y-70750561D02*
X87955523Y-70798180D01*
X87765047Y-70798180D01*
X87669809Y-70750561D01*
X87622190Y-70655323D01*
X87622190Y-70274371D01*
X87669809Y-70179133D01*
X87765047Y-70131514D01*
X87955523Y-70131514D01*
X88050761Y-70179133D01*
X88098380Y-70274371D01*
X88098380Y-70369609D01*
X87622190Y-70464847D01*
X88526952Y-70798180D02*
X88526952Y-70131514D01*
X88526952Y-70321990D02*
X88574571Y-70226752D01*
X88622190Y-70179133D01*
X88717428Y-70131514D01*
X88812666Y-70131514D01*
X89146000Y-70798180D02*
X89146000Y-70131514D01*
X89146000Y-69798180D02*
X89098380Y-69845800D01*
X89146000Y-69893419D01*
X89193619Y-69845800D01*
X89146000Y-69798180D01*
X89146000Y-69893419D01*
X90050761Y-70798180D02*
X90050761Y-70274371D01*
X90003142Y-70179133D01*
X89907904Y-70131514D01*
X89717428Y-70131514D01*
X89622190Y-70179133D01*
X90050761Y-70750561D02*
X89955523Y-70798180D01*
X89717428Y-70798180D01*
X89622190Y-70750561D01*
X89574571Y-70655323D01*
X89574571Y-70560085D01*
X89622190Y-70464847D01*
X89717428Y-70417228D01*
X89955523Y-70417228D01*
X90050761Y-70369609D01*
X90669809Y-70798180D02*
X90574571Y-70750561D01*
X90526952Y-70655323D01*
X90526952Y-69798180D01*
X86907904Y-71448180D02*
X87098380Y-71448180D01*
X87193619Y-71495800D01*
X87288857Y-71591038D01*
X87336476Y-71781514D01*
X87336476Y-72114847D01*
X87288857Y-72305323D01*
X87193619Y-72400561D01*
X87098380Y-72448180D01*
X86907904Y-72448180D01*
X86812666Y-72400561D01*
X86717428Y-72305323D01*
X86669809Y-72114847D01*
X86669809Y-71781514D01*
X86717428Y-71591038D01*
X86812666Y-71495800D01*
X86907904Y-71448180D01*
X88193619Y-71781514D02*
X88193619Y-72448180D01*
X87765047Y-71781514D02*
X87765047Y-72305323D01*
X87812666Y-72400561D01*
X87907904Y-72448180D01*
X88050761Y-72448180D01*
X88146000Y-72400561D01*
X88193619Y-72352942D01*
X88669809Y-71781514D02*
X88669809Y-72781514D01*
X88669809Y-71829133D02*
X88765047Y-71781514D01*
X88955523Y-71781514D01*
X89050761Y-71829133D01*
X89098380Y-71876752D01*
X89146000Y-71971990D01*
X89146000Y-72257704D01*
X89098380Y-72352942D01*
X89050761Y-72400561D01*
X88955523Y-72448180D01*
X88765047Y-72448180D01*
X88669809Y-72400561D01*
X90003142Y-71781514D02*
X90003142Y-72448180D01*
X89574571Y-71781514D02*
X89574571Y-72305323D01*
X89622190Y-72400561D01*
X89717428Y-72448180D01*
X89860285Y-72448180D01*
X89955523Y-72400561D01*
X90003142Y-72352942D01*
X90336476Y-71781514D02*
X90717428Y-71781514D01*
X90479333Y-71448180D02*
X90479333Y-72305323D01*
X90526952Y-72400561D01*
X90622190Y-72448180D01*
X90717428Y-72448180D01*
X123634928Y-70607133D02*
X123587309Y-70559514D01*
X123492071Y-70416657D01*
X123444452Y-70321419D01*
X123396833Y-70178561D01*
X123349214Y-69940466D01*
X123349214Y-69749990D01*
X123396833Y-69511895D01*
X123444452Y-69369038D01*
X123492071Y-69273800D01*
X123587309Y-69130942D01*
X123634928Y-69083323D01*
X124587309Y-70130942D02*
X124539690Y-70178561D01*
X124396833Y-70226180D01*
X124301595Y-70226180D01*
X124158738Y-70178561D01*
X124063500Y-70083323D01*
X124015880Y-69988085D01*
X123968261Y-69797609D01*
X123968261Y-69654752D01*
X124015880Y-69464276D01*
X124063500Y-69369038D01*
X124158738Y-69273800D01*
X124301595Y-69226180D01*
X124396833Y-69226180D01*
X124539690Y-69273800D01*
X124587309Y-69321419D01*
X124968261Y-69940466D02*
X125444452Y-69940466D01*
X124873023Y-70226180D02*
X125206357Y-69226180D01*
X125539690Y-70226180D01*
X125873023Y-70226180D02*
X125873023Y-69226180D01*
X126253976Y-69226180D01*
X126349214Y-69273800D01*
X126396833Y-69321419D01*
X126444452Y-69416657D01*
X126444452Y-69559514D01*
X126396833Y-69654752D01*
X126349214Y-69702371D01*
X126253976Y-69749990D01*
X125873023Y-69749990D01*
X126730166Y-69226180D02*
X127301595Y-69226180D01*
X127015880Y-70226180D02*
X127015880Y-69226180D01*
X127634928Y-69226180D02*
X127634928Y-70035704D01*
X127682547Y-70130942D01*
X127730166Y-70178561D01*
X127825404Y-70226180D01*
X128015880Y-70226180D01*
X128111119Y-70178561D01*
X128158738Y-70130942D01*
X128206357Y-70035704D01*
X128206357Y-69226180D01*
X129253976Y-70226180D02*
X128920642Y-69749990D01*
X128682547Y-70226180D02*
X128682547Y-69226180D01*
X129063500Y-69226180D01*
X129158738Y-69273800D01*
X129206357Y-69321419D01*
X129253976Y-69416657D01*
X129253976Y-69559514D01*
X129206357Y-69654752D01*
X129158738Y-69702371D01*
X129063500Y-69749990D01*
X128682547Y-69749990D01*
X129682547Y-69702371D02*
X130015880Y-69702371D01*
X130158738Y-70226180D02*
X129682547Y-70226180D01*
X129682547Y-69226180D01*
X130158738Y-69226180D01*
X130492071Y-70607133D02*
X130539690Y-70559514D01*
X130634928Y-70416657D01*
X130682547Y-70321419D01*
X130730166Y-70178561D01*
X130777785Y-69940466D01*
X130777785Y-69749990D01*
X130730166Y-69511895D01*
X130682547Y-69369038D01*
X130634928Y-69273800D01*
X130539690Y-69130942D01*
X130492071Y-69083323D01*
D11*
X100235000Y-65527228D02*
X100996904Y-65527228D01*
X100615952Y-65908180D02*
X100615952Y-65146276D01*
X101377857Y-64908180D02*
X101996904Y-64908180D01*
X101663571Y-65289133D01*
X101806428Y-65289133D01*
X101901666Y-65336752D01*
X101949285Y-65384371D01*
X101996904Y-65479609D01*
X101996904Y-65717704D01*
X101949285Y-65812942D01*
X101901666Y-65860561D01*
X101806428Y-65908180D01*
X101520714Y-65908180D01*
X101425476Y-65860561D01*
X101377857Y-65812942D01*
X102425476Y-65812942D02*
X102473095Y-65860561D01*
X102425476Y-65908180D01*
X102377857Y-65860561D01*
X102425476Y-65812942D01*
X102425476Y-65908180D01*
X102806428Y-64908180D02*
X103425476Y-64908180D01*
X103092142Y-65289133D01*
X103235000Y-65289133D01*
X103330238Y-65336752D01*
X103377857Y-65384371D01*
X103425476Y-65479609D01*
X103425476Y-65717704D01*
X103377857Y-65812942D01*
X103330238Y-65860561D01*
X103235000Y-65908180D01*
X102949285Y-65908180D01*
X102854047Y-65860561D01*
X102806428Y-65812942D01*
X103711190Y-64908180D02*
X104044523Y-65908180D01*
X104377857Y-64908180D01*
X92440285Y-65654228D02*
X93202190Y-65654228D01*
X92821238Y-66035180D02*
X92821238Y-65273276D01*
X94154571Y-65035180D02*
X93678380Y-65035180D01*
X93630761Y-65511371D01*
X93678380Y-65463752D01*
X93773619Y-65416133D01*
X94011714Y-65416133D01*
X94106952Y-65463752D01*
X94154571Y-65511371D01*
X94202190Y-65606609D01*
X94202190Y-65844704D01*
X94154571Y-65939942D01*
X94106952Y-65987561D01*
X94011714Y-66035180D01*
X93773619Y-66035180D01*
X93678380Y-65987561D01*
X93630761Y-65939942D01*
X94487904Y-65035180D02*
X94821238Y-66035180D01*
X95154571Y-65035180D01*
X98602047Y-89728561D02*
X97935380Y-88776180D01*
X97459190Y-89728561D02*
X97459190Y-87728561D01*
X98221095Y-87728561D01*
X98411571Y-87823800D01*
X98506809Y-87919038D01*
X98602047Y-88109514D01*
X98602047Y-88395228D01*
X98506809Y-88585704D01*
X98411571Y-88680942D01*
X98221095Y-88776180D01*
X97459190Y-88776180D01*
X100506809Y-87823800D02*
X100316333Y-87728561D01*
X100030619Y-87728561D01*
X99744904Y-87823800D01*
X99554428Y-88014276D01*
X99459190Y-88204752D01*
X99363952Y-88585704D01*
X99363952Y-88871419D01*
X99459190Y-89252371D01*
X99554428Y-89442847D01*
X99744904Y-89633323D01*
X100030619Y-89728561D01*
X100221095Y-89728561D01*
X100506809Y-89633323D01*
X100602047Y-89538085D01*
X100602047Y-88871419D01*
X100221095Y-88871419D01*
X102125857Y-88680942D02*
X102411571Y-88776180D01*
X102506809Y-88871419D01*
X102602047Y-89061895D01*
X102602047Y-89347609D01*
X102506809Y-89538085D01*
X102411571Y-89633323D01*
X102221095Y-89728561D01*
X101459190Y-89728561D01*
X101459190Y-87728561D01*
X102125857Y-87728561D01*
X102316333Y-87823800D01*
X102411571Y-87919038D01*
X102506809Y-88109514D01*
X102506809Y-88299990D01*
X102411571Y-88490466D01*
X102316333Y-88585704D01*
X102125857Y-88680942D01*
X101459190Y-88680942D01*
X103173476Y-88395228D02*
X103935380Y-88395228D01*
X103459190Y-87728561D02*
X103459190Y-89442847D01*
X103554428Y-89633323D01*
X103744904Y-89728561D01*
X103935380Y-89728561D01*
X104887761Y-89728561D02*
X104697285Y-89633323D01*
X104602047Y-89538085D01*
X104506809Y-89347609D01*
X104506809Y-88776180D01*
X104602047Y-88585704D01*
X104697285Y-88490466D01*
X104887761Y-88395228D01*
X105173476Y-88395228D01*
X105363952Y-88490466D01*
X105459190Y-88585704D01*
X105554428Y-88776180D01*
X105554428Y-89347609D01*
X105459190Y-89538085D01*
X105363952Y-89633323D01*
X105173476Y-89728561D01*
X104887761Y-89728561D01*
X106411571Y-89728561D02*
X106411571Y-87728561D01*
X106411571Y-88680942D02*
X107554428Y-88680942D01*
X107554428Y-89728561D02*
X107554428Y-87728561D01*
X108506809Y-89728561D02*
X108506809Y-87728561D01*
X108983000Y-87728561D01*
X109268714Y-87823800D01*
X109459190Y-88014276D01*
X109554428Y-88204752D01*
X109649666Y-88585704D01*
X109649666Y-88871419D01*
X109554428Y-89252371D01*
X109459190Y-89442847D01*
X109268714Y-89633323D01*
X108983000Y-89728561D01*
X108506809Y-89728561D01*
X110506809Y-89728561D02*
X110506809Y-87728561D01*
X111173476Y-89157133D01*
X111840142Y-87728561D01*
X111840142Y-89728561D01*
X112792523Y-89728561D02*
X112792523Y-87728561D01*
X116411571Y-89538085D02*
X116316333Y-89633323D01*
X116030619Y-89728561D01*
X115840142Y-89728561D01*
X115554428Y-89633323D01*
X115363952Y-89442847D01*
X115268714Y-89252371D01*
X115173476Y-88871419D01*
X115173476Y-88585704D01*
X115268714Y-88204752D01*
X115363952Y-88014276D01*
X115554428Y-87823800D01*
X115840142Y-87728561D01*
X116030619Y-87728561D01*
X116316333Y-87823800D01*
X116411571Y-87919038D01*
X117268714Y-89728561D02*
X117268714Y-87728561D01*
X117744904Y-87728561D01*
X118030619Y-87823800D01*
X118221095Y-88014276D01*
X118316333Y-88204752D01*
X118411571Y-88585704D01*
X118411571Y-88871419D01*
X118316333Y-89252371D01*
X118221095Y-89442847D01*
X118030619Y-89633323D01*
X117744904Y-89728561D01*
X117268714Y-89728561D01*
X118983000Y-87728561D02*
X120125857Y-87728561D01*
X119554428Y-89728561D02*
X119554428Y-87728561D01*
X120506809Y-87728561D02*
X121173476Y-89728561D01*
X121840142Y-87728561D01*
X123744904Y-87728561D02*
X124411571Y-89728561D01*
X125078238Y-87728561D01*
X125744904Y-89728561D02*
X125744904Y-88395228D01*
X125744904Y-87728561D02*
X125649666Y-87823800D01*
X125744904Y-87919038D01*
X125840142Y-87823800D01*
X125744904Y-87728561D01*
X125744904Y-87919038D01*
X127554428Y-89728561D02*
X127554428Y-87728561D01*
X127554428Y-89633323D02*
X127363952Y-89728561D01*
X126982999Y-89728561D01*
X126792523Y-89633323D01*
X126697285Y-89538085D01*
X126602047Y-89347609D01*
X126602047Y-88776180D01*
X126697285Y-88585704D01*
X126792523Y-88490466D01*
X126982999Y-88395228D01*
X127363952Y-88395228D01*
X127554428Y-88490466D01*
X129268714Y-89633323D02*
X129078238Y-89728561D01*
X128697285Y-89728561D01*
X128506809Y-89633323D01*
X128411571Y-89442847D01*
X128411571Y-88680942D01*
X128506809Y-88490466D01*
X128697285Y-88395228D01*
X129078238Y-88395228D01*
X129268714Y-88490466D01*
X129363952Y-88680942D01*
X129363952Y-88871419D01*
X128411571Y-89061895D01*
X130506809Y-89728561D02*
X130316333Y-89633323D01*
X130221095Y-89538085D01*
X130125857Y-89347609D01*
X130125857Y-88776180D01*
X130221095Y-88585704D01*
X130316333Y-88490466D01*
X130506809Y-88395228D01*
X130792523Y-88395228D01*
X130982999Y-88490466D01*
X131078238Y-88585704D01*
X131173476Y-88776180D01*
X131173476Y-89347609D01*
X131078238Y-89538085D01*
X130982999Y-89633323D01*
X130792523Y-89728561D01*
X130506809Y-89728561D01*
X133459190Y-89633323D02*
X133744904Y-89728561D01*
X134221095Y-89728561D01*
X134411571Y-89633323D01*
X134506809Y-89538085D01*
X134602047Y-89347609D01*
X134602047Y-89157133D01*
X134506809Y-88966657D01*
X134411571Y-88871419D01*
X134221095Y-88776180D01*
X133840142Y-88680942D01*
X133649666Y-88585704D01*
X133554428Y-88490466D01*
X133459190Y-88299990D01*
X133459190Y-88109514D01*
X133554428Y-87919038D01*
X133649666Y-87823800D01*
X133840142Y-87728561D01*
X134316333Y-87728561D01*
X134602047Y-87823800D01*
X135744904Y-89728561D02*
X135554428Y-89633323D01*
X135459190Y-89442847D01*
X135459190Y-87728561D01*
X136792523Y-89728561D02*
X136602047Y-89633323D01*
X136506809Y-89538085D01*
X136411571Y-89347609D01*
X136411571Y-88776180D01*
X136506809Y-88585704D01*
X136602047Y-88490466D01*
X136792523Y-88395228D01*
X137078238Y-88395228D01*
X137268714Y-88490466D01*
X137363952Y-88585704D01*
X137459190Y-88776180D01*
X137459190Y-89347609D01*
X137363952Y-89538085D01*
X137268714Y-89633323D01*
X137078238Y-89728561D01*
X136792523Y-89728561D01*
X138030619Y-88395228D02*
X138792523Y-88395228D01*
X138316333Y-87728561D02*
X138316333Y-89442847D01*
X138411571Y-89633323D01*
X138602047Y-89728561D01*
X138792523Y-89728561D01*
X92829714Y-84676371D02*
X92829714Y-83176371D01*
X93329714Y-84247800D01*
X93829714Y-83176371D01*
X93829714Y-84676371D01*
X94544000Y-84676371D02*
X94544000Y-83676371D01*
X94544000Y-83176371D02*
X94472571Y-83247800D01*
X94544000Y-83319228D01*
X94615428Y-83247800D01*
X94544000Y-83176371D01*
X94544000Y-83319228D01*
X95258285Y-83676371D02*
X95258285Y-84676371D01*
X95258285Y-83819228D02*
X95329714Y-83747800D01*
X95472571Y-83676371D01*
X95686857Y-83676371D01*
X95829714Y-83747800D01*
X95901142Y-83890657D01*
X95901142Y-84676371D01*
X96615428Y-84676371D02*
X96615428Y-83676371D01*
X96615428Y-83176371D02*
X96544000Y-83247800D01*
X96615428Y-83319228D01*
X96686857Y-83247800D01*
X96615428Y-83176371D01*
X96615428Y-83319228D01*
X98472571Y-84676371D02*
X98472571Y-83176371D01*
X98472571Y-83890657D02*
X99329714Y-83890657D01*
X99329714Y-84676371D02*
X99329714Y-83176371D01*
X100044000Y-84676371D02*
X100044000Y-83176371D01*
X100401142Y-83176371D01*
X100615428Y-83247800D01*
X100758285Y-83390657D01*
X100829714Y-83533514D01*
X100901142Y-83819228D01*
X100901142Y-84033514D01*
X100829714Y-84319228D01*
X100758285Y-84462085D01*
X100615428Y-84604942D01*
X100401142Y-84676371D01*
X100044000Y-84676371D01*
X101544000Y-84676371D02*
X101544000Y-83176371D01*
X102044000Y-84247800D01*
X102544000Y-83176371D01*
X102544000Y-84676371D01*
X103258285Y-84676371D02*
X103258285Y-83176371D01*
D12*
%TO.C,solarmon*%
X115570000Y-92329000D02*
X117475000Y-92329000D01*
X116205000Y-91694000D02*
X116205000Y-96774000D01*
X119380000Y-92964000D02*
X115570000Y-92964000D01*
X115570000Y-92964000D02*
X115570000Y-92329000D01*
X116205000Y-91694000D02*
X119380000Y-91694000D01*
X117475000Y-91694000D02*
X117475000Y-92329000D01*
X118110000Y-91694000D02*
X118110000Y-92329000D01*
X118110000Y-92329000D02*
X118745000Y-92329000D01*
X118745000Y-91694000D02*
X118745000Y-92329000D01*
X119380000Y-91694000D02*
X119380000Y-96774000D01*
X116840000Y-92964000D02*
X116840000Y-93599000D01*
X116840000Y-93599000D02*
X118110000Y-93599000D01*
X117475000Y-92964000D02*
X117475000Y-94234000D01*
X118110000Y-92964000D02*
X118110000Y-93599000D01*
X118745000Y-92964000D02*
X118745000Y-93599000D01*
X115570000Y-94234000D02*
X120650000Y-94234000D01*
X115570000Y-95504000D02*
X115570000Y-94234000D01*
X115570000Y-94869000D02*
X120650000Y-94869000D01*
X115570000Y-95504000D02*
X119380000Y-95504000D01*
X116205000Y-96139000D02*
X119380000Y-96139000D01*
X116840000Y-96139000D02*
X116840000Y-96774000D01*
X118745000Y-96139000D02*
X118745000Y-96774000D01*
X116205000Y-96774000D02*
X116840000Y-96774000D01*
X118745000Y-96774000D02*
X119380000Y-96774000D01*
X120015000Y-96774000D02*
X120650000Y-96774000D01*
X120015000Y-92329000D02*
X120015000Y-96774000D01*
X120650000Y-92329000D02*
X120650000Y-96774000D01*
X120015000Y-92329000D02*
X120650000Y-92329000D01*
X120015000Y-92964000D02*
X120650000Y-92964000D01*
X120015000Y-96139000D02*
X120650000Y-96139000D01*
X118110000Y-94869000D02*
X118110000Y-95504000D01*
X118745000Y-94869000D02*
X118745000Y-95504000D01*
G36*
X118110000Y-93599000D02*
G01*
X117475000Y-93599000D01*
X117475000Y-92964000D01*
X118110000Y-92964000D01*
X118110000Y-93599000D01*
G37*
X118110000Y-93599000D02*
X117475000Y-93599000D01*
X117475000Y-92964000D01*
X118110000Y-92964000D01*
X118110000Y-93599000D01*
G36*
X119380000Y-93599000D02*
G01*
X118745000Y-93599000D01*
X118745000Y-92964000D01*
X119380000Y-92964000D01*
X119380000Y-93599000D01*
G37*
X119380000Y-93599000D02*
X118745000Y-93599000D01*
X118745000Y-92964000D01*
X119380000Y-92964000D01*
X119380000Y-93599000D01*
G36*
X118745000Y-95504000D02*
G01*
X118110000Y-95504000D01*
X118110000Y-94869000D01*
X118745000Y-94869000D01*
X118745000Y-95504000D01*
G37*
X118745000Y-95504000D02*
X118110000Y-95504000D01*
X118110000Y-94869000D01*
X118745000Y-94869000D01*
X118745000Y-95504000D01*
X118745000Y-93599000D02*
X119380000Y-93599000D01*
D10*
X114848095Y-98182061D02*
X114943333Y-98229680D01*
X115133809Y-98229680D01*
X115229047Y-98182061D01*
X115276666Y-98086823D01*
X115276666Y-98039204D01*
X115229047Y-97943966D01*
X115133809Y-97896347D01*
X114990952Y-97896347D01*
X114895714Y-97848728D01*
X114848095Y-97753490D01*
X114848095Y-97705871D01*
X114895714Y-97610633D01*
X114990952Y-97563014D01*
X115133809Y-97563014D01*
X115229047Y-97610633D01*
X115848095Y-98229680D02*
X115752857Y-98182061D01*
X115705238Y-98134442D01*
X115657619Y-98039204D01*
X115657619Y-97753490D01*
X115705238Y-97658252D01*
X115752857Y-97610633D01*
X115848095Y-97563014D01*
X115990952Y-97563014D01*
X116086190Y-97610633D01*
X116133809Y-97658252D01*
X116181428Y-97753490D01*
X116181428Y-98039204D01*
X116133809Y-98134442D01*
X116086190Y-98182061D01*
X115990952Y-98229680D01*
X115848095Y-98229680D01*
X116752857Y-98229680D02*
X116657619Y-98182061D01*
X116610000Y-98086823D01*
X116610000Y-97229680D01*
X117562380Y-98229680D02*
X117562380Y-97705871D01*
X117514761Y-97610633D01*
X117419523Y-97563014D01*
X117229047Y-97563014D01*
X117133809Y-97610633D01*
X117562380Y-98182061D02*
X117467142Y-98229680D01*
X117229047Y-98229680D01*
X117133809Y-98182061D01*
X117086190Y-98086823D01*
X117086190Y-97991585D01*
X117133809Y-97896347D01*
X117229047Y-97848728D01*
X117467142Y-97848728D01*
X117562380Y-97801109D01*
X118038571Y-98229680D02*
X118038571Y-97563014D01*
X118038571Y-97753490D02*
X118086190Y-97658252D01*
X118133809Y-97610633D01*
X118229047Y-97563014D01*
X118324285Y-97563014D01*
X118657619Y-98229680D02*
X118657619Y-97563014D01*
X118657619Y-97658252D02*
X118705238Y-97610633D01*
X118800476Y-97563014D01*
X118943333Y-97563014D01*
X119038571Y-97610633D01*
X119086190Y-97705871D01*
X119086190Y-98229680D01*
X119086190Y-97705871D02*
X119133809Y-97610633D01*
X119229047Y-97563014D01*
X119371904Y-97563014D01*
X119467142Y-97610633D01*
X119514761Y-97705871D01*
X119514761Y-98229680D01*
X120133809Y-98229680D02*
X120038571Y-98182061D01*
X119990952Y-98134442D01*
X119943333Y-98039204D01*
X119943333Y-97753490D01*
X119990952Y-97658252D01*
X120038571Y-97610633D01*
X120133809Y-97563014D01*
X120276666Y-97563014D01*
X120371904Y-97610633D01*
X120419523Y-97658252D01*
X120467142Y-97753490D01*
X120467142Y-98039204D01*
X120419523Y-98134442D01*
X120371904Y-98182061D01*
X120276666Y-98229680D01*
X120133809Y-98229680D01*
X120895714Y-97563014D02*
X120895714Y-98229680D01*
X120895714Y-97658252D02*
X120943333Y-97610633D01*
X121038571Y-97563014D01*
X121181428Y-97563014D01*
X121276666Y-97610633D01*
X121324285Y-97705871D01*
X121324285Y-98229680D01*
%TO.C,UP*%
X138279285Y-78878180D02*
X138279285Y-79687704D01*
X138326904Y-79782942D01*
X138374523Y-79830561D01*
X138469761Y-79878180D01*
X138660238Y-79878180D01*
X138755476Y-79830561D01*
X138803095Y-79782942D01*
X138850714Y-79687704D01*
X138850714Y-78878180D01*
X139326904Y-79878180D02*
X139326904Y-78878180D01*
X139707857Y-78878180D01*
X139803095Y-78925800D01*
X139850714Y-78973419D01*
X139898333Y-79068657D01*
X139898333Y-79211514D01*
X139850714Y-79306752D01*
X139803095Y-79354371D01*
X139707857Y-79401990D01*
X139326904Y-79401990D01*
%TO.C,DOWN*%
X125246047Y-79941680D02*
X125246047Y-78941680D01*
X125484142Y-78941680D01*
X125627000Y-78989300D01*
X125722238Y-79084538D01*
X125769857Y-79179776D01*
X125817476Y-79370252D01*
X125817476Y-79513109D01*
X125769857Y-79703585D01*
X125722238Y-79798823D01*
X125627000Y-79894061D01*
X125484142Y-79941680D01*
X125246047Y-79941680D01*
X126436523Y-78941680D02*
X126627000Y-78941680D01*
X126722238Y-78989300D01*
X126817476Y-79084538D01*
X126865095Y-79275014D01*
X126865095Y-79608347D01*
X126817476Y-79798823D01*
X126722238Y-79894061D01*
X126627000Y-79941680D01*
X126436523Y-79941680D01*
X126341285Y-79894061D01*
X126246047Y-79798823D01*
X126198428Y-79608347D01*
X126198428Y-79275014D01*
X126246047Y-79084538D01*
X126341285Y-78989300D01*
X126436523Y-78941680D01*
X127198428Y-78941680D02*
X127436523Y-79941680D01*
X127627000Y-79227395D01*
X127817476Y-79941680D01*
X128055571Y-78941680D01*
X128436523Y-79941680D02*
X128436523Y-78941680D01*
X129007952Y-79941680D01*
X129007952Y-78941680D01*
%TO.C,SELECT*%
X112712809Y-79830561D02*
X112855666Y-79878180D01*
X113093761Y-79878180D01*
X113189000Y-79830561D01*
X113236619Y-79782942D01*
X113284238Y-79687704D01*
X113284238Y-79592466D01*
X113236619Y-79497228D01*
X113189000Y-79449609D01*
X113093761Y-79401990D01*
X112903285Y-79354371D01*
X112808047Y-79306752D01*
X112760428Y-79259133D01*
X112712809Y-79163895D01*
X112712809Y-79068657D01*
X112760428Y-78973419D01*
X112808047Y-78925800D01*
X112903285Y-78878180D01*
X113141380Y-78878180D01*
X113284238Y-78925800D01*
X113712809Y-79354371D02*
X114046142Y-79354371D01*
X114189000Y-79878180D02*
X113712809Y-79878180D01*
X113712809Y-78878180D01*
X114189000Y-78878180D01*
X115093761Y-79878180D02*
X114617571Y-79878180D01*
X114617571Y-78878180D01*
X115427095Y-79354371D02*
X115760428Y-79354371D01*
X115903285Y-79878180D02*
X115427095Y-79878180D01*
X115427095Y-78878180D01*
X115903285Y-78878180D01*
X116903285Y-79782942D02*
X116855666Y-79830561D01*
X116712809Y-79878180D01*
X116617571Y-79878180D01*
X116474714Y-79830561D01*
X116379476Y-79735323D01*
X116331857Y-79640085D01*
X116284238Y-79449609D01*
X116284238Y-79306752D01*
X116331857Y-79116276D01*
X116379476Y-79021038D01*
X116474714Y-78925800D01*
X116617571Y-78878180D01*
X116712809Y-78878180D01*
X116855666Y-78925800D01*
X116903285Y-78973419D01*
X117189000Y-78878180D02*
X117760428Y-78878180D01*
X117474714Y-79878180D02*
X117474714Y-78878180D01*
%TD*%
M02*
