  0
SECTION
  2
HEADER
  9
$ANGBASE
  50
0.0
  9
$ANGDIR
  70
1
  9
$MEASUREMENT
  70
1
  0
ENDSEC
  0
SECTION
  2
TABLES
  0
TABLE
  2
LTYPE
  70
4
  0
LTYPE
  5
40F
  2
CONTINUOUS
  70
0
  3
Solid line
  72
65
  73
0
  40
0.0
  0
LTYPE
  5
410
  2
DASHDOT
 70
0
  3
Dash Dot ____ _ ____ _
 72
65
 73
4
 40
2.0
 49
1.25
 49
-0.25
 49
0.25
 49
-0.25
  0
LTYPE
  5
411
  2
DASHED
 70
0
  3
Dashed __ __ __ __ __
 72
65
 73
2
 40
0.75
 49
0.5
 49
-0.25
  0
LTYPE
  5
43B
  2
DOTTED
 70
0
  3
Dotted .  .  .  .
 72
65
 73
2
 40
0.2
 49
0.0
 49
-0.2
  0
ENDTAB
  0
TABLE
  2
STYLE
  70
4
  0
STYLE
  2
KICAD
  70
0
  40
0
  41
1
  42
1
  50
0
  71
0
  3
isocp.shx
  0
STYLE
  2
KICADB
  70
0
  40
0
  41
1
  42
1
  50
0
  71
0
  3
isocp.shx
  0
STYLE
  2
KICADI
  70
0
  40
0
  41
1
  42
1
  50
15
  71
0
  3
isocp.shx
  0
STYLE
  2
KICADBI
  70
0
  40
0
  41
1
  42
1
  50
15
  71
0
  3
isocp.shx
  0
ENDTAB
  0
TABLE
  2
LAYER
  70
1
  0
LAYER
  2
BLACK
  70
0
  62
7
  6
CONTINUOUS
  0
ENDTAB
  0
ENDSEC
  0
SECTION
  2
ENTITIES
0
LINE
8
BLACK
6
CONTINUOUS
10
149.989
20
-93.4911
11
150.308
21
-93.623
0
LINE
8
BLACK
6
CONTINUOUS
10
150.308
20
-93.623
11
150.595
21
-93.8145
0
LINE
8
BLACK
6
CONTINUOUS
10
150.595
20
-93.8145
11
150.838
21
-94.0582
0
LINE
8
BLACK
6
CONTINUOUS
10
150.838
20
-94.0582
11
151.03
21
-94.3449
0
LINE
8
BLACK
6
CONTINUOUS
10
151.03
20
-94.3449
11
151.162
21
-94.6633
0
LINE
8
BLACK
6
CONTINUOUS
10
151.162
20
-94.6633
11
151.229
21
-95.0014
0
LINE
8
BLACK
6
CONTINUOUS
10
151.229
20
-95.0014
11
151.229
21
-95.3462
0
LINE
8
BLACK
6
CONTINUOUS
10
151.229
20
-95.3462
11
151.162
21
-95.6843
0
LINE
8
BLACK
6
CONTINUOUS
10
151.162
20
-95.6843
11
151.03
21
-96.0027
0
LINE
8
BLACK
6
CONTINUOUS
10
151.03
20
-96.0027
11
150.838
21
-96.2894
0
LINE
8
BLACK
6
CONTINUOUS
10
150.838
20
-96.2894
11
150.595
21
-96.5331
0
LINE
8
BLACK
6
CONTINUOUS
10
150.595
20
-96.5331
11
150.308
21
-96.7246
0
LINE
8
BLACK
6
CONTINUOUS
10
150.308
20
-96.7246
11
149.989
21
-96.8565
0
LINE
8
BLACK
6
CONTINUOUS
10
149.989
20
-96.8565
11
149.651
21
-96.9238
0
LINE
8
BLACK
6
CONTINUOUS
10
149.651
20
-96.9238
11
149.307
21
-96.9238
0
LINE
8
BLACK
6
CONTINUOUS
10
149.307
20
-96.9238
11
148.969
21
-96.8565
0
LINE
8
BLACK
6
CONTINUOUS
10
148.969
20
-96.8565
11
148.65
21
-96.7246
0
LINE
8
BLACK
6
CONTINUOUS
10
148.65
20
-96.7246
11
148.363
21
-96.5331
0
LINE
8
BLACK
6
CONTINUOUS
10
148.363
20
-96.5331
11
148.12
21
-96.2894
0
LINE
8
BLACK
6
CONTINUOUS
10
148.12
20
-96.2894
11
147.928
21
-96.0027
0
LINE
8
BLACK
6
CONTINUOUS
10
147.928
20
-96.0027
11
147.796
21
-95.6843
0
LINE
8
BLACK
6
CONTINUOUS
10
147.796
20
-95.6843
11
147.729
21
-95.3462
0
LINE
8
BLACK
6
CONTINUOUS
10
147.729
20
-95.3462
11
147.729
21
-95.0014
0
LINE
8
BLACK
6
CONTINUOUS
10
147.729
20
-95.0014
11
147.796
21
-94.6633
0
LINE
8
BLACK
6
CONTINUOUS
10
147.796
20
-94.6633
11
147.928
21
-94.3449
0
LINE
8
BLACK
6
CONTINUOUS
10
147.928
20
-94.3449
11
148.12
21
-94.0582
0
LINE
8
BLACK
6
CONTINUOUS
10
148.12
20
-94.0582
11
148.363
21
-93.8145
0
LINE
8
BLACK
6
CONTINUOUS
10
148.363
20
-93.8145
11
148.65
21
-93.623
0
LINE
8
BLACK
6
CONTINUOUS
10
148.65
20
-93.623
11
148.969
21
-93.4911
0
LINE
8
BLACK
6
CONTINUOUS
10
148.969
20
-93.4911
11
149.307
21
-93.4238
0
LINE
8
BLACK
6
CONTINUOUS
10
149.307
20
-93.4238
11
149.651
21
-93.4238
0
LINE
8
BLACK
6
CONTINUOUS
10
149.651
20
-93.4238
11
149.989
21
-93.4911
0
LINE
8
BLACK
6
CONTINUOUS
10
90.0201
20
-93.453
11
90.3385
21
-93.5849
0
LINE
8
BLACK
6
CONTINUOUS
10
90.3385
20
-93.5849
11
90.6252
21
-93.7764
0
LINE
8
BLACK
6
CONTINUOUS
10
90.6252
20
-93.7764
11
90.8689
21
-94.0201
0
LINE
8
BLACK
6
CONTINUOUS
10
90.8689
20
-94.0201
11
91.0604
21
-94.3068
0
LINE
8
BLACK
6
CONTINUOUS
10
91.0604
20
-94.3068
11
91.1923
21
-94.6252
0
LINE
8
BLACK
6
CONTINUOUS
10
91.1923
20
-94.6252
11
91.2596
21
-94.9633
0
LINE
8
BLACK
6
CONTINUOUS
10
91.2596
20
-94.9633
11
91.2596
21
-95.3081
0
LINE
8
BLACK
6
CONTINUOUS
10
91.2596
20
-95.3081
11
91.1923
21
-95.6462
0
LINE
8
BLACK
6
CONTINUOUS
10
91.1923
20
-95.6462
11
91.0604
21
-95.9646
0
LINE
8
BLACK
6
CONTINUOUS
10
91.0604
20
-95.9646
11
90.8689
21
-96.2513
0
LINE
8
BLACK
6
CONTINUOUS
10
90.8689
20
-96.2513
11
90.6252
21
-96.495
0
LINE
8
BLACK
6
CONTINUOUS
10
90.6252
20
-96.495
11
90.3385
21
-96.6865
0
LINE
8
BLACK
6
CONTINUOUS
10
90.3385
20
-96.6865
11
90.0201
21
-96.8184
0
LINE
8
BLACK
6
CONTINUOUS
10
90.0201
20
-96.8184
11
89.682
21
-96.8857
0
LINE
8
BLACK
6
CONTINUOUS
10
89.682
20
-96.8857
11
89.3372
21
-96.8857
0
LINE
8
BLACK
6
CONTINUOUS
10
89.3372
20
-96.8857
11
88.9991
21
-96.8184
0
LINE
8
BLACK
6
CONTINUOUS
10
88.9991
20
-96.8184
11
88.6807
21
-96.6865
0
LINE
8
BLACK
6
CONTINUOUS
10
88.6807
20
-96.6865
11
88.394
21
-96.495
0
LINE
8
BLACK
6
CONTINUOUS
10
88.394
20
-96.495
11
88.1503
21
-96.2513
0
LINE
8
BLACK
6
CONTINUOUS
10
88.1503
20
-96.2513
11
87.9588
21
-95.9646
0
LINE
8
BLACK
6
CONTINUOUS
10
87.9588
20
-95.9646
11
87.8269
21
-95.6462
0
LINE
8
BLACK
6
CONTINUOUS
10
87.8269
20
-95.6462
11
87.7596
21
-95.3081
0
LINE
8
BLACK
6
CONTINUOUS
10
87.7596
20
-95.3081
11
87.7596
21
-94.9633
0
LINE
8
BLACK
6
CONTINUOUS
10
87.7596
20
-94.9633
11
87.8269
21
-94.6252
0
LINE
8
BLACK
6
CONTINUOUS
10
87.8269
20
-94.6252
11
87.9588
21
-94.3068
0
LINE
8
BLACK
6
CONTINUOUS
10
87.9588
20
-94.3068
11
88.1503
21
-94.0201
0
LINE
8
BLACK
6
CONTINUOUS
10
88.1503
20
-94.0201
11
88.394
21
-93.7764
0
LINE
8
BLACK
6
CONTINUOUS
10
88.394
20
-93.7764
11
88.6807
21
-93.5849
0
LINE
8
BLACK
6
CONTINUOUS
10
88.6807
20
-93.5849
11
88.9991
21
-93.453
0
LINE
8
BLACK
6
CONTINUOUS
10
88.9991
20
-93.453
11
89.3372
21
-93.3857
0
LINE
8
BLACK
6
CONTINUOUS
10
89.3372
20
-93.3857
11
89.682
21
-93.3857
0
LINE
8
BLACK
6
CONTINUOUS
10
89.682
20
-93.3857
11
90.0201
21
-93.453
0
LINE
8
BLACK
6
CONTINUOUS
10
119.38
20
-96.089
11
119.38
21
-96.089
0
LINE
8
BLACK
6
CONTINUOUS
10
119.38
20
-96.089
11
119.38
21
-96.089
0
LINE
8
BLACK
6
CONTINUOUS
10
119.38
20
-96.089
11
119.381
21
-96.089
0
LINE
8
BLACK
6
CONTINUOUS
10
119.381
20
-96.089
11
119.385
21
-96.0895
0
LINE
8
BLACK
6
CONTINUOUS
10
119.385
20
-96.0895
11
119.39
21
-96.09
0
LINE
8
BLACK
6
CONTINUOUS
10
119.39
20
-96.09
11
119.39
21
-96.0901
0
LINE
8
BLACK
6
CONTINUOUS
10
119.39
20
-96.0901
11
119.39
21
-96.0901
0
LINE
8
BLACK
6
CONTINUOUS
10
119.39
20
-96.0901
11
119.395
21
-96.0915
0
LINE
8
BLACK
6
CONTINUOUS
10
119.395
20
-96.0915
11
119.399
21
-96.0929
0
LINE
8
BLACK
6
CONTINUOUS
10
119.399
20
-96.0929
11
119.4
21
-96.093
0
LINE
8
BLACK
6
CONTINUOUS
10
119.4
20
-96.093
11
119.4
21
-96.093
0
LINE
8
BLACK
6
CONTINUOUS
10
119.4
20
-96.093
11
119.404
21
-96.0953
0
LINE
8
BLACK
6
CONTINUOUS
10
119.404
20
-96.0953
11
119.408
21
-96.0975
0
LINE
8
BLACK
6
CONTINUOUS
10
119.408
20
-96.0975
11
119.408
21
-96.0977
0
LINE
8
BLACK
6
CONTINUOUS
10
119.408
20
-96.0977
11
119.408
21
-96.0977
0
LINE
8
BLACK
6
CONTINUOUS
10
119.408
20
-96.0977
11
119.412
21
-96.1007
0
LINE
8
BLACK
6
CONTINUOUS
10
119.412
20
-96.1007
11
119.415
21
-96.1038
0
LINE
8
BLACK
6
CONTINUOUS
10
119.415
20
-96.1038
11
119.416
21
-96.1039
0
LINE
8
BLACK
6
CONTINUOUS
10
119.416
20
-96.1039
11
119.416
21
-96.104
0
LINE
8
BLACK
6
CONTINUOUS
10
119.416
20
-96.104
11
119.419
21
-96.1076
0
LINE
8
BLACK
6
CONTINUOUS
10
119.419
20
-96.1076
11
119.422
21
-96.1113
0
LINE
8
BLACK
6
CONTINUOUS
10
119.422
20
-96.1113
11
119.422
21
-96.1115
0
LINE
8
BLACK
6
CONTINUOUS
10
119.422
20
-96.1115
11
119.422
21
-96.1116
0
LINE
8
BLACK
6
CONTINUOUS
10
119.422
20
-96.1116
11
119.424
21
-96.1157
0
LINE
8
BLACK
6
CONTINUOUS
10
119.424
20
-96.1157
11
119.426
21
-96.1199
0
LINE
8
BLACK
6
CONTINUOUS
10
119.426
20
-96.1199
11
119.426
21
-96.1201
0
LINE
8
BLACK
6
CONTINUOUS
10
119.426
20
-96.1201
11
119.426
21
-96.1203
0
LINE
8
BLACK
6
CONTINUOUS
10
119.426
20
-96.1203
11
119.428
21
-96.1247
0
LINE
8
BLACK
6
CONTINUOUS
10
119.428
20
-96.1247
11
119.429
21
-96.1293
0
LINE
8
BLACK
6
CONTINUOUS
10
119.429
20
-96.1293
11
119.429
21
-96.1295
0
LINE
8
BLACK
6
CONTINUOUS
10
119.429
20
-96.1295
11
119.429
21
-96.1296
0
LINE
8
BLACK
6
CONTINUOUS
10
119.429
20
-96.1296
11
119.43
21
-96.1343
0
LINE
8
BLACK
6
CONTINUOUS
10
119.43
20
-96.1343
11
119.43
21
-96.139
0
LINE
8
BLACK
6
CONTINUOUS
10
119.43
20
-96.139
11
119.43
21
-96.774
0
LINE
8
BLACK
6
CONTINUOUS
10
119.43
20
-96.774
11
119.43
21
-96.7743
0
LINE
8
BLACK
6
CONTINUOUS
10
119.43
20
-96.7743
11
119.43
21
-96.7743
0
LINE
8
BLACK
6
CONTINUOUS
10
119.43
20
-96.7743
11
119.43
21
-96.7744
0
LINE
8
BLACK
6
CONTINUOUS
10
119.43
20
-96.7744
11
119.43
21
-96.7747
0
LINE
8
BLACK
6
CONTINUOUS
10
119.43
20
-96.7747
11
119.429
21
-96.7793
0
LINE
8
BLACK
6
CONTINUOUS
10
119.429
20
-96.7793
11
119.429
21
-96.7841
0
LINE
8
BLACK
6
CONTINUOUS
10
119.429
20
-96.7841
11
119.429
21
-96.7842
0
LINE
8
BLACK
6
CONTINUOUS
10
119.429
20
-96.7842
11
119.429
21
-96.7844
0
LINE
8
BLACK
6
CONTINUOUS
10
119.429
20
-96.7844
11
119.427
21
-96.7889
0
LINE
8
BLACK
6
CONTINUOUS
10
119.427
20
-96.7889
11
119.426
21
-96.7934
0
LINE
8
BLACK
6
CONTINUOUS
10
119.426
20
-96.7934
11
119.426
21
-96.7935
0
LINE
8
BLACK
6
CONTINUOUS
10
119.426
20
-96.7935
11
119.426
21
-96.7937
0
LINE
8
BLACK
6
CONTINUOUS
10
119.426
20
-96.7937
11
119.424
21
-96.7978
0
LINE
8
BLACK
6
CONTINUOUS
10
119.424
20
-96.7978
11
119.421
21
-96.802
0
LINE
8
BLACK
6
CONTINUOUS
10
119.421
20
-96.802
11
119.421
21
-96.8021
0
LINE
8
BLACK
6
CONTINUOUS
10
119.421
20
-96.8021
11
119.421
21
-96.8022
0
LINE
8
BLACK
6
CONTINUOUS
10
119.421
20
-96.8022
11
119.418
21
-96.8058
0
LINE
8
BLACK
6
CONTINUOUS
10
119.418
20
-96.8058
11
119.415
21
-96.8095
0
LINE
8
BLACK
6
CONTINUOUS
10
119.415
20
-96.8095
11
119.415
21
-96.8096
0
LINE
8
BLACK
6
CONTINUOUS
10
119.415
20
-96.8096
11
119.415
21
-96.8097
0
LINE
8
BLACK
6
CONTINUOUS
10
119.415
20
-96.8097
11
119.411
21
-96.8126
0
LINE
8
BLACK
6
CONTINUOUS
10
119.411
20
-96.8126
11
119.408
21
-96.8156
0
LINE
8
BLACK
6
CONTINUOUS
10
119.408
20
-96.8156
11
119.408
21
-96.8157
0
LINE
8
BLACK
6
CONTINUOUS
10
119.408
20
-96.8157
11
119.407
21
-96.8158
0
LINE
8
BLACK
6
CONTINUOUS
10
119.407
20
-96.8158
11
119.403
21
-96.818
0
LINE
8
BLACK
6
CONTINUOUS
10
119.403
20
-96.818
11
119.399
21
-96.8202
0
LINE
8
BLACK
6
CONTINUOUS
10
119.399
20
-96.8202
11
119.399
21
-96.8203
0
LINE
8
BLACK
6
CONTINUOUS
10
119.399
20
-96.8203
11
119.399
21
-96.8204
0
LINE
8
BLACK
6
CONTINUOUS
10
119.399
20
-96.8204
11
119.394
21
-96.8217
0
LINE
8
BLACK
6
CONTINUOUS
10
119.394
20
-96.8217
11
119.39
21
-96.823
0
LINE
8
BLACK
6
CONTINUOUS
10
119.39
20
-96.823
11
119.39
21
-96.8231
0
LINE
8
BLACK
6
CONTINUOUS
10
119.39
20
-96.8231
11
119.389
21
-96.8231
0
LINE
8
BLACK
6
CONTINUOUS
10
119.389
20
-96.8231
11
119.385
21
-96.8235
0
LINE
8
BLACK
6
CONTINUOUS
10
119.385
20
-96.8235
11
119.38
21
-96.824
0
LINE
8
BLACK
6
CONTINUOUS
10
119.38
20
-96.824
11
118.745
21
-96.824
0
LINE
8
BLACK
6
CONTINUOUS
10
118.745
20
-96.824
11
118.745
21
-96.824
0
LINE
8
BLACK
6
CONTINUOUS
10
118.745
20
-96.824
11
118.745
21
-96.824
0
LINE
8
BLACK
6
CONTINUOUS
10
118.745
20
-96.824
11
118.745
21
-96.824
0
LINE
8
BLACK
6
CONTINUOUS
10
118.745
20
-96.824
11
118.744
21
-96.824
0
LINE
8
BLACK
6
CONTINUOUS
10
118.744
20
-96.824
11
118.74
21
-96.8235
0
LINE
8
BLACK
6
CONTINUOUS
10
118.74
20
-96.8235
11
118.735
21
-96.823
0
LINE
8
BLACK
6
CONTINUOUS
10
118.735
20
-96.823
11
118.735
21
-96.8229
0
LINE
8
BLACK
6
CONTINUOUS
10
118.735
20
-96.8229
11
118.735
21
-96.8229
0
LINE
8
BLACK
6
CONTINUOUS
10
118.735
20
-96.8229
11
118.73
21
-96.8215
0
LINE
8
BLACK
6
CONTINUOUS
10
118.73
20
-96.8215
11
118.726
21
-96.8201
0
LINE
8
BLACK
6
CONTINUOUS
10
118.726
20
-96.8201
11
118.725
21
-96.82
0
LINE
8
BLACK
6
CONTINUOUS
10
118.725
20
-96.82
11
118.725
21
-96.82
0
LINE
8
BLACK
6
CONTINUOUS
10
118.725
20
-96.82
11
118.721
21
-96.8177
0
LINE
8
BLACK
6
CONTINUOUS
10
118.721
20
-96.8177
11
118.717
21
-96.8155
0
LINE
8
BLACK
6
CONTINUOUS
10
118.717
20
-96.8155
11
118.717
21
-96.8153
0
LINE
8
BLACK
6
CONTINUOUS
10
118.717
20
-96.8153
11
118.717
21
-96.8153
0
LINE
8
BLACK
6
CONTINUOUS
10
118.717
20
-96.8153
11
118.713
21
-96.8123
0
LINE
8
BLACK
6
CONTINUOUS
10
118.713
20
-96.8123
11
118.71
21
-96.8092
0
LINE
8
BLACK
6
CONTINUOUS
10
118.71
20
-96.8092
11
118.709
21
-96.8091
0
LINE
8
BLACK
6
CONTINUOUS
10
118.709
20
-96.8091
11
118.709
21
-96.809
0
LINE
8
BLACK
6
CONTINUOUS
10
118.709
20
-96.809
11
118.706
21
-96.8054
0
LINE
8
BLACK
6
CONTINUOUS
10
118.706
20
-96.8054
11
118.703
21
-96.8017
0
LINE
8
BLACK
6
CONTINUOUS
10
118.703
20
-96.8017
11
118.703
21
-96.8015
0
LINE
8
BLACK
6
CONTINUOUS
10
118.703
20
-96.8015
11
118.703
21
-96.8014
0
LINE
8
BLACK
6
CONTINUOUS
10
118.703
20
-96.8014
11
118.701
21
-96.7973
0
LINE
8
BLACK
6
CONTINUOUS
10
118.701
20
-96.7973
11
118.699
21
-96.7931
0
LINE
8
BLACK
6
CONTINUOUS
10
118.699
20
-96.7931
11
118.699
21
-96.7929
0
LINE
8
BLACK
6
CONTINUOUS
10
118.699
20
-96.7929
11
118.699
21
-96.7927
0
LINE
8
BLACK
6
CONTINUOUS
10
118.699
20
-96.7927
11
118.697
21
-96.7883
0
LINE
8
BLACK
6
CONTINUOUS
10
118.697
20
-96.7883
11
118.696
21
-96.7837
0
LINE
8
BLACK
6
CONTINUOUS
10
118.696
20
-96.7837
11
118.696
21
-96.7835
0
LINE
8
BLACK
6
CONTINUOUS
10
118.696
20
-96.7835
11
118.696
21
-96.7834
0
LINE
8
BLACK
6
CONTINUOUS
10
118.696
20
-96.7834
11
118.695
21
-96.7787
0
LINE
8
BLACK
6
CONTINUOUS
10
118.695
20
-96.7787
11
118.695
21
-96.774
0
LINE
8
BLACK
6
CONTINUOUS
10
118.695
20
-96.774
11
118.695
21
-96.139
0
LINE
8
BLACK
6
CONTINUOUS
10
118.695
20
-96.139
11
118.695
21
-96.1387
0
LINE
8
BLACK
6
CONTINUOUS
10
118.695
20
-96.1387
11
118.695
21
-96.1387
0
LINE
8
BLACK
6
CONTINUOUS
10
118.695
20
-96.1387
11
118.695
21
-96.1386
0
LINE
8
BLACK
6
CONTINUOUS
10
118.695
20
-96.1386
11
118.695
21
-96.1383
0
LINE
8
BLACK
6
CONTINUOUS
10
118.695
20
-96.1383
11
118.696
21
-96.1337
0
LINE
8
BLACK
6
CONTINUOUS
10
118.696
20
-96.1337
11
118.696
21
-96.1289
0
LINE
8
BLACK
6
CONTINUOUS
10
118.696
20
-96.1289
11
118.696
21
-96.1288
0
LINE
8
BLACK
6
CONTINUOUS
10
118.696
20
-96.1288
11
118.696
21
-96.1286
0
LINE
8
BLACK
6
CONTINUOUS
10
118.696
20
-96.1286
11
118.698
21
-96.1241
0
LINE
8
BLACK
6
CONTINUOUS
10
118.698
20
-96.1241
11
118.699
21
-96.1196
0
LINE
8
BLACK
6
CONTINUOUS
10
118.699
20
-96.1196
11
118.699
21
-96.1195
0
LINE
8
BLACK
6
CONTINUOUS
10
118.699
20
-96.1195
11
118.699
21
-96.1193
0
LINE
8
BLACK
6
CONTINUOUS
10
118.699
20
-96.1193
11
118.701
21
-96.1152
0
LINE
8
BLACK
6
CONTINUOUS
10
118.701
20
-96.1152
11
118.704
21
-96.111
0
LINE
8
BLACK
6
CONTINUOUS
10
118.704
20
-96.111
11
118.704
21
-96.1109
0
LINE
8
BLACK
6
CONTINUOUS
10
118.704
20
-96.1109
11
118.704
21
-96.1108
0
LINE
8
BLACK
6
CONTINUOUS
10
118.704
20
-96.1108
11
118.707
21
-96.1072
0
LINE
8
BLACK
6
CONTINUOUS
10
118.707
20
-96.1072
11
118.71
21
-96.1035
0
LINE
8
BLACK
6
CONTINUOUS
10
118.71
20
-96.1035
11
118.71
21
-96.1034
0
LINE
8
BLACK
6
CONTINUOUS
10
118.71
20
-96.1034
11
118.71
21
-96.1033
0
LINE
8
BLACK
6
CONTINUOUS
10
118.71
20
-96.1033
11
118.714
21
-96.1004
0
LINE
8
BLACK
6
CONTINUOUS
10
118.714
20
-96.1004
11
118.717
21
-96.0974
0
LINE
8
BLACK
6
CONTINUOUS
10
118.717
20
-96.0974
11
118.717
21
-96.0973
0
LINE
8
BLACK
6
CONTINUOUS
10
118.717
20
-96.0973
11
118.718
21
-96.0972
0
LINE
8
BLACK
6
CONTINUOUS
10
118.718
20
-96.0972
11
118.722
21
-96.095
0
LINE
8
BLACK
6
CONTINUOUS
10
118.722
20
-96.095
11
118.726
21
-96.0928
0
LINE
8
BLACK
6
CONTINUOUS
10
118.726
20
-96.0928
11
118.726
21
-96.0927
0
LINE
8
BLACK
6
CONTINUOUS
10
118.726
20
-96.0927
11
118.726
21
-96.0926
0
LINE
8
BLACK
6
CONTINUOUS
10
118.726
20
-96.0926
11
118.731
21
-96.0913
0
LINE
8
BLACK
6
CONTINUOUS
10
118.731
20
-96.0913
11
118.735
21
-96.09
0
LINE
8
BLACK
6
CONTINUOUS
10
118.735
20
-96.09
11
118.735
21
-96.0899
0
LINE
8
BLACK
6
CONTINUOUS
10
118.735
20
-96.0899
11
118.736
21
-96.0899
0
LINE
8
BLACK
6
CONTINUOUS
10
118.736
20
-96.0899
11
118.74
21
-96.0895
0
LINE
8
BLACK
6
CONTINUOUS
10
118.74
20
-96.0895
11
118.745
21
-96.089
0
LINE
8
BLACK
6
CONTINUOUS
10
118.745
20
-96.089
11
119.38
21
-96.089
0
LINE
8
BLACK
6
CONTINUOUS
10
119.38
20
-96.089
11
119.38
21
-96.089
0
LINE
8
BLACK
6
CONTINUOUS
10
116.84
20
-96.089
11
116.84
21
-96.089
0
LINE
8
BLACK
6
CONTINUOUS
10
116.84
20
-96.089
11
116.84
21
-96.089
0
LINE
8
BLACK
6
CONTINUOUS
10
116.84
20
-96.089
11
116.841
21
-96.089
0
LINE
8
BLACK
6
CONTINUOUS
10
116.841
20
-96.089
11
116.845
21
-96.0895
0
LINE
8
BLACK
6
CONTINUOUS
10
116.845
20
-96.0895
11
116.85
21
-96.09
0
LINE
8
BLACK
6
CONTINUOUS
10
116.85
20
-96.09
11
116.85
21
-96.0901
0
LINE
8
BLACK
6
CONTINUOUS
10
116.85
20
-96.0901
11
116.85
21
-96.0901
0
LINE
8
BLACK
6
CONTINUOUS
10
116.85
20
-96.0901
11
116.855
21
-96.0915
0
LINE
8
BLACK
6
CONTINUOUS
10
116.855
20
-96.0915
11
116.859
21
-96.0929
0
LINE
8
BLACK
6
CONTINUOUS
10
116.859
20
-96.0929
11
116.86
21
-96.093
0
LINE
8
BLACK
6
CONTINUOUS
10
116.86
20
-96.093
11
116.86
21
-96.093
0
LINE
8
BLACK
6
CONTINUOUS
10
116.86
20
-96.093
11
116.864
21
-96.0953
0
LINE
8
BLACK
6
CONTINUOUS
10
116.864
20
-96.0953
11
116.868
21
-96.0975
0
LINE
8
BLACK
6
CONTINUOUS
10
116.868
20
-96.0975
11
116.868
21
-96.0977
0
LINE
8
BLACK
6
CONTINUOUS
10
116.868
20
-96.0977
11
116.868
21
-96.0977
0
LINE
8
BLACK
6
CONTINUOUS
10
116.868
20
-96.0977
11
116.872
21
-96.1007
0
LINE
8
BLACK
6
CONTINUOUS
10
116.872
20
-96.1007
11
116.875
21
-96.1038
0
LINE
8
BLACK
6
CONTINUOUS
10
116.875
20
-96.1038
11
116.876
21
-96.1039
0
LINE
8
BLACK
6
CONTINUOUS
10
116.876
20
-96.1039
11
116.876
21
-96.104
0
LINE
8
BLACK
6
CONTINUOUS
10
116.876
20
-96.104
11
116.879
21
-96.1076
0
LINE
8
BLACK
6
CONTINUOUS
10
116.879
20
-96.1076
11
116.882
21
-96.1113
0
LINE
8
BLACK
6
CONTINUOUS
10
116.882
20
-96.1113
11
116.882
21
-96.1115
0
LINE
8
BLACK
6
CONTINUOUS
10
116.882
20
-96.1115
11
116.882
21
-96.1116
0
LINE
8
BLACK
6
CONTINUOUS
10
116.882
20
-96.1116
11
116.884
21
-96.1157
0
LINE
8
BLACK
6
CONTINUOUS
10
116.884
20
-96.1157
11
116.886
21
-96.1199
0
LINE
8
BLACK
6
CONTINUOUS
10
116.886
20
-96.1199
11
116.886
21
-96.1201
0
LINE
8
BLACK
6
CONTINUOUS
10
116.886
20
-96.1201
11
116.886
21
-96.1203
0
LINE
8
BLACK
6
CONTINUOUS
10
116.886
20
-96.1203
11
116.888
21
-96.1247
0
LINE
8
BLACK
6
CONTINUOUS
10
116.888
20
-96.1247
11
116.889
21
-96.1293
0
LINE
8
BLACK
6
CONTINUOUS
10
116.889
20
-96.1293
11
116.889
21
-96.1295
0
LINE
8
BLACK
6
CONTINUOUS
10
116.889
20
-96.1295
11
116.889
21
-96.1296
0
LINE
8
BLACK
6
CONTINUOUS
10
116.889
20
-96.1296
11
116.89
21
-96.1343
0
LINE
8
BLACK
6
CONTINUOUS
10
116.89
20
-96.1343
11
116.89
21
-96.139
0
LINE
8
BLACK
6
CONTINUOUS
10
116.89
20
-96.139
11
116.89
21
-96.774
0
LINE
8
BLACK
6
CONTINUOUS
10
116.89
20
-96.774
11
116.89
21
-96.7743
0
LINE
8
BLACK
6
CONTINUOUS
10
116.89
20
-96.7743
11
116.89
21
-96.7743
0
LINE
8
BLACK
6
CONTINUOUS
10
116.89
20
-96.7743
11
116.89
21
-96.7744
0
LINE
8
BLACK
6
CONTINUOUS
10
116.89
20
-96.7744
11
116.89
21
-96.7747
0
LINE
8
BLACK
6
CONTINUOUS
10
116.89
20
-96.7747
11
116.889
21
-96.7793
0
LINE
8
BLACK
6
CONTINUOUS
10
116.889
20
-96.7793
11
116.889
21
-96.7841
0
LINE
8
BLACK
6
CONTINUOUS
10
116.889
20
-96.7841
11
116.889
21
-96.7842
0
LINE
8
BLACK
6
CONTINUOUS
10
116.889
20
-96.7842
11
116.889
21
-96.7844
0
LINE
8
BLACK
6
CONTINUOUS
10
116.889
20
-96.7844
11
116.887
21
-96.7889
0
LINE
8
BLACK
6
CONTINUOUS
10
116.887
20
-96.7889
11
116.886
21
-96.7934
0
LINE
8
BLACK
6
CONTINUOUS
10
116.886
20
-96.7934
11
116.886
21
-96.7935
0
LINE
8
BLACK
6
CONTINUOUS
10
116.886
20
-96.7935
11
116.886
21
-96.7937
0
LINE
8
BLACK
6
CONTINUOUS
10
116.886
20
-96.7937
11
116.884
21
-96.7978
0
LINE
8
BLACK
6
CONTINUOUS
10
116.884
20
-96.7978
11
116.881
21
-96.802
0
LINE
8
BLACK
6
CONTINUOUS
10
116.881
20
-96.802
11
116.881
21
-96.8021
0
LINE
8
BLACK
6
CONTINUOUS
10
116.881
20
-96.8021
11
116.881
21
-96.8022
0
LINE
8
BLACK
6
CONTINUOUS
10
116.881
20
-96.8022
11
116.878
21
-96.8058
0
LINE
8
BLACK
6
CONTINUOUS
10
116.878
20
-96.8058
11
116.875
21
-96.8095
0
LINE
8
BLACK
6
CONTINUOUS
10
116.875
20
-96.8095
11
116.875
21
-96.8096
0
LINE
8
BLACK
6
CONTINUOUS
10
116.875
20
-96.8096
11
116.875
21
-96.8097
0
LINE
8
BLACK
6
CONTINUOUS
10
116.875
20
-96.8097
11
116.871
21
-96.8126
0
LINE
8
BLACK
6
CONTINUOUS
10
116.871
20
-96.8126
11
116.868
21
-96.8156
0
LINE
8
BLACK
6
CONTINUOUS
10
116.868
20
-96.8156
11
116.868
21
-96.8157
0
LINE
8
BLACK
6
CONTINUOUS
10
116.868
20
-96.8157
11
116.867
21
-96.8158
0
LINE
8
BLACK
6
CONTINUOUS
10
116.867
20
-96.8158
11
116.863
21
-96.818
0
LINE
8
BLACK
6
CONTINUOUS
10
116.863
20
-96.818
11
116.859
21
-96.8202
0
LINE
8
BLACK
6
CONTINUOUS
10
116.859
20
-96.8202
11
116.859
21
-96.8203
0
LINE
8
BLACK
6
CONTINUOUS
10
116.859
20
-96.8203
11
116.859
21
-96.8204
0
LINE
8
BLACK
6
CONTINUOUS
10
116.859
20
-96.8204
11
116.854
21
-96.8217
0
LINE
8
BLACK
6
CONTINUOUS
10
116.854
20
-96.8217
11
116.85
21
-96.823
0
LINE
8
BLACK
6
CONTINUOUS
10
116.85
20
-96.823
11
116.85
21
-96.8231
0
LINE
8
BLACK
6
CONTINUOUS
10
116.85
20
-96.8231
11
116.849
21
-96.8231
0
LINE
8
BLACK
6
CONTINUOUS
10
116.849
20
-96.8231
11
116.845
21
-96.8235
0
LINE
8
BLACK
6
CONTINUOUS
10
116.845
20
-96.8235
11
116.84
21
-96.824
0
LINE
8
BLACK
6
CONTINUOUS
10
116.84
20
-96.824
11
116.205
21
-96.824
0
LINE
8
BLACK
6
CONTINUOUS
10
116.205
20
-96.824
11
116.205
21
-96.824
0
LINE
8
BLACK
6
CONTINUOUS
10
116.205
20
-96.824
11
116.205
21
-96.824
0
LINE
8
BLACK
6
CONTINUOUS
10
116.205
20
-96.824
11
116.205
21
-96.824
0
LINE
8
BLACK
6
CONTINUOUS
10
116.205
20
-96.824
11
116.204
21
-96.824
0
LINE
8
BLACK
6
CONTINUOUS
10
116.204
20
-96.824
11
116.2
21
-96.8235
0
LINE
8
BLACK
6
CONTINUOUS
10
116.2
20
-96.8235
11
116.195
21
-96.823
0
LINE
8
BLACK
6
CONTINUOUS
10
116.195
20
-96.823
11
116.195
21
-96.8229
0
LINE
8
BLACK
6
CONTINUOUS
10
116.195
20
-96.8229
11
116.195
21
-96.8229
0
LINE
8
BLACK
6
CONTINUOUS
10
116.195
20
-96.8229
11
116.19
21
-96.8215
0
LINE
8
BLACK
6
CONTINUOUS
10
116.19
20
-96.8215
11
116.186
21
-96.8201
0
LINE
8
BLACK
6
CONTINUOUS
10
116.186
20
-96.8201
11
116.185
21
-96.82
0
LINE
8
BLACK
6
CONTINUOUS
10
116.185
20
-96.82
11
116.185
21
-96.82
0
LINE
8
BLACK
6
CONTINUOUS
10
116.185
20
-96.82
11
116.181
21
-96.8177
0
LINE
8
BLACK
6
CONTINUOUS
10
116.181
20
-96.8177
11
116.177
21
-96.8155
0
LINE
8
BLACK
6
CONTINUOUS
10
116.177
20
-96.8155
11
116.177
21
-96.8153
0
LINE
8
BLACK
6
CONTINUOUS
10
116.177
20
-96.8153
11
116.177
21
-96.8153
0
LINE
8
BLACK
6
CONTINUOUS
10
116.177
20
-96.8153
11
116.173
21
-96.8123
0
LINE
8
BLACK
6
CONTINUOUS
10
116.173
20
-96.8123
11
116.17
21
-96.8092
0
LINE
8
BLACK
6
CONTINUOUS
10
116.17
20
-96.8092
11
116.169
21
-96.8091
0
LINE
8
BLACK
6
CONTINUOUS
10
116.169
20
-96.8091
11
116.169
21
-96.809
0
LINE
8
BLACK
6
CONTINUOUS
10
116.169
20
-96.809
11
116.166
21
-96.8054
0
LINE
8
BLACK
6
CONTINUOUS
10
116.166
20
-96.8054
11
116.163
21
-96.8017
0
LINE
8
BLACK
6
CONTINUOUS
10
116.163
20
-96.8017
11
116.163
21
-96.8015
0
LINE
8
BLACK
6
CONTINUOUS
10
116.163
20
-96.8015
11
116.163
21
-96.8014
0
LINE
8
BLACK
6
CONTINUOUS
10
116.163
20
-96.8014
11
116.161
21
-96.7973
0
LINE
8
BLACK
6
CONTINUOUS
10
116.161
20
-96.7973
11
116.159
21
-96.7931
0
LINE
8
BLACK
6
CONTINUOUS
10
116.159
20
-96.7931
11
116.159
21
-96.7929
0
LINE
8
BLACK
6
CONTINUOUS
10
116.159
20
-96.7929
11
116.159
21
-96.7927
0
LINE
8
BLACK
6
CONTINUOUS
10
116.159
20
-96.7927
11
116.157
21
-96.7883
0
LINE
8
BLACK
6
CONTINUOUS
10
116.157
20
-96.7883
11
116.156
21
-96.7837
0
LINE
8
BLACK
6
CONTINUOUS
10
116.156
20
-96.7837
11
116.156
21
-96.7835
0
LINE
8
BLACK
6
CONTINUOUS
10
116.156
20
-96.7835
11
116.156
21
-96.7834
0
LINE
8
BLACK
6
CONTINUOUS
10
116.156
20
-96.7834
11
116.155
21
-96.7787
0
LINE
8
BLACK
6
CONTINUOUS
10
116.155
20
-96.7787
11
116.155
21
-96.774
0
LINE
8
BLACK
6
CONTINUOUS
10
116.155
20
-96.774
11
116.155
21
-96.139
0
LINE
8
BLACK
6
CONTINUOUS
10
116.155
20
-96.139
11
116.155
21
-96.1387
0
LINE
8
BLACK
6
CONTINUOUS
10
116.155
20
-96.1387
11
116.155
21
-96.1387
0
LINE
8
BLACK
6
CONTINUOUS
10
116.155
20
-96.1387
11
116.155
21
-96.1386
0
LINE
8
BLACK
6
CONTINUOUS
10
116.155
20
-96.1386
11
116.155
21
-96.1383
0
LINE
8
BLACK
6
CONTINUOUS
10
116.155
20
-96.1383
11
116.156
21
-96.1337
0
LINE
8
BLACK
6
CONTINUOUS
10
116.156
20
-96.1337
11
116.156
21
-96.1289
0
LINE
8
BLACK
6
CONTINUOUS
10
116.156
20
-96.1289
11
116.156
21
-96.1288
0
LINE
8
BLACK
6
CONTINUOUS
10
116.156
20
-96.1288
11
116.156
21
-96.1286
0
LINE
8
BLACK
6
CONTINUOUS
10
116.156
20
-96.1286
11
116.158
21
-96.1241
0
LINE
8
BLACK
6
CONTINUOUS
10
116.158
20
-96.1241
11
116.159
21
-96.1196
0
LINE
8
BLACK
6
CONTINUOUS
10
116.159
20
-96.1196
11
116.159
21
-96.1195
0
LINE
8
BLACK
6
CONTINUOUS
10
116.159
20
-96.1195
11
116.159
21
-96.1193
0
LINE
8
BLACK
6
CONTINUOUS
10
116.159
20
-96.1193
11
116.161
21
-96.1152
0
LINE
8
BLACK
6
CONTINUOUS
10
116.161
20
-96.1152
11
116.164
21
-96.111
0
LINE
8
BLACK
6
CONTINUOUS
10
116.164
20
-96.111
11
116.164
21
-96.1109
0
LINE
8
BLACK
6
CONTINUOUS
10
116.164
20
-96.1109
11
116.164
21
-96.1108
0
LINE
8
BLACK
6
CONTINUOUS
10
116.164
20
-96.1108
11
116.167
21
-96.1072
0
LINE
8
BLACK
6
CONTINUOUS
10
116.167
20
-96.1072
11
116.17
21
-96.1035
0
LINE
8
BLACK
6
CONTINUOUS
10
116.17
20
-96.1035
11
116.17
21
-96.1034
0
LINE
8
BLACK
6
CONTINUOUS
10
116.17
20
-96.1034
11
116.17
21
-96.1033
0
LINE
8
BLACK
6
CONTINUOUS
10
116.17
20
-96.1033
11
116.174
21
-96.1004
0
LINE
8
BLACK
6
CONTINUOUS
10
116.174
20
-96.1004
11
116.177
21
-96.0974
0
LINE
8
BLACK
6
CONTINUOUS
10
116.177
20
-96.0974
11
116.177
21
-96.0973
0
LINE
8
BLACK
6
CONTINUOUS
10
116.177
20
-96.0973
11
116.178
21
-96.0972
0
LINE
8
BLACK
6
CONTINUOUS
10
116.178
20
-96.0972
11
116.182
21
-96.095
0
LINE
8
BLACK
6
CONTINUOUS
10
116.182
20
-96.095
11
116.186
21
-96.0928
0
LINE
8
BLACK
6
CONTINUOUS
10
116.186
20
-96.0928
11
116.186
21
-96.0927
0
LINE
8
BLACK
6
CONTINUOUS
10
116.186
20
-96.0927
11
116.186
21
-96.0926
0
LINE
8
BLACK
6
CONTINUOUS
10
116.186
20
-96.0926
11
116.191
21
-96.0913
0
LINE
8
BLACK
6
CONTINUOUS
10
116.191
20
-96.0913
11
116.195
21
-96.09
0
LINE
8
BLACK
6
CONTINUOUS
10
116.195
20
-96.09
11
116.195
21
-96.0899
0
LINE
8
BLACK
6
CONTINUOUS
10
116.195
20
-96.0899
11
116.196
21
-96.0899
0
LINE
8
BLACK
6
CONTINUOUS
10
116.196
20
-96.0899
11
116.2
21
-96.0895
0
LINE
8
BLACK
6
CONTINUOUS
10
116.2
20
-96.0895
11
116.205
21
-96.089
0
LINE
8
BLACK
6
CONTINUOUS
10
116.205
20
-96.089
11
116.84
21
-96.089
0
LINE
8
BLACK
6
CONTINUOUS
10
116.84
20
-96.089
11
116.84
21
-96.089
0
LINE
8
BLACK
6
CONTINUOUS
10
120.65
20
-96.089
11
120.65
21
-96.089
0
LINE
8
BLACK
6
CONTINUOUS
10
120.65
20
-96.089
11
120.65
21
-96.089
0
LINE
8
BLACK
6
CONTINUOUS
10
120.65
20
-96.089
11
120.651
21
-96.089
0
LINE
8
BLACK
6
CONTINUOUS
10
120.651
20
-96.089
11
120.655
21
-96.0895
0
LINE
8
BLACK
6
CONTINUOUS
10
120.655
20
-96.0895
11
120.66
21
-96.09
0
LINE
8
BLACK
6
CONTINUOUS
10
120.66
20
-96.09
11
120.66
21
-96.0901
0
LINE
8
BLACK
6
CONTINUOUS
10
120.66
20
-96.0901
11
120.66
21
-96.0901
0
LINE
8
BLACK
6
CONTINUOUS
10
120.66
20
-96.0901
11
120.665
21
-96.0915
0
LINE
8
BLACK
6
CONTINUOUS
10
120.665
20
-96.0915
11
120.669
21
-96.0929
0
LINE
8
BLACK
6
CONTINUOUS
10
120.669
20
-96.0929
11
120.67
21
-96.093
0
LINE
8
BLACK
6
CONTINUOUS
10
120.67
20
-96.093
11
120.67
21
-96.093
0
LINE
8
BLACK
6
CONTINUOUS
10
120.67
20
-96.093
11
120.674
21
-96.0953
0
LINE
8
BLACK
6
CONTINUOUS
10
120.674
20
-96.0953
11
120.678
21
-96.0975
0
LINE
8
BLACK
6
CONTINUOUS
10
120.678
20
-96.0975
11
120.678
21
-96.0977
0
LINE
8
BLACK
6
CONTINUOUS
10
120.678
20
-96.0977
11
120.678
21
-96.0977
0
LINE
8
BLACK
6
CONTINUOUS
10
120.678
20
-96.0977
11
120.682
21
-96.1007
0
LINE
8
BLACK
6
CONTINUOUS
10
120.682
20
-96.1007
11
120.685
21
-96.1038
0
LINE
8
BLACK
6
CONTINUOUS
10
120.685
20
-96.1038
11
120.686
21
-96.1039
0
LINE
8
BLACK
6
CONTINUOUS
10
120.686
20
-96.1039
11
120.686
21
-96.104
0
LINE
8
BLACK
6
CONTINUOUS
10
120.686
20
-96.104
11
120.689
21
-96.1076
0
LINE
8
BLACK
6
CONTINUOUS
10
120.689
20
-96.1076
11
120.692
21
-96.1113
0
LINE
8
BLACK
6
CONTINUOUS
10
120.692
20
-96.1113
11
120.692
21
-96.1115
0
LINE
8
BLACK
6
CONTINUOUS
10
120.692
20
-96.1115
11
120.692
21
-96.1116
0
LINE
8
BLACK
6
CONTINUOUS
10
120.692
20
-96.1116
11
120.694
21
-96.1157
0
LINE
8
BLACK
6
CONTINUOUS
10
120.694
20
-96.1157
11
120.696
21
-96.1199
0
LINE
8
BLACK
6
CONTINUOUS
10
120.696
20
-96.1199
11
120.696
21
-96.1201
0
LINE
8
BLACK
6
CONTINUOUS
10
120.696
20
-96.1201
11
120.696
21
-96.1203
0
LINE
8
BLACK
6
CONTINUOUS
10
120.696
20
-96.1203
11
120.698
21
-96.1247
0
LINE
8
BLACK
6
CONTINUOUS
10
120.698
20
-96.1247
11
120.699
21
-96.1293
0
LINE
8
BLACK
6
CONTINUOUS
10
120.699
20
-96.1293
11
120.699
21
-96.1295
0
LINE
8
BLACK
6
CONTINUOUS
10
120.699
20
-96.1295
11
120.699
21
-96.1296
0
LINE
8
BLACK
6
CONTINUOUS
10
120.699
20
-96.1296
11
120.7
21
-96.1343
0
LINE
8
BLACK
6
CONTINUOUS
10
120.7
20
-96.1343
11
120.7
21
-96.139
0
LINE
8
BLACK
6
CONTINUOUS
10
120.7
20
-96.139
11
120.7
21
-96.774
0
LINE
8
BLACK
6
CONTINUOUS
10
120.7
20
-96.774
11
120.7
21
-96.7743
0
LINE
8
BLACK
6
CONTINUOUS
10
120.7
20
-96.7743
11
120.7
21
-96.7743
0
LINE
8
BLACK
6
CONTINUOUS
10
120.7
20
-96.7743
11
120.7
21
-96.7744
0
LINE
8
BLACK
6
CONTINUOUS
10
120.7
20
-96.7744
11
120.7
21
-96.7747
0
LINE
8
BLACK
6
CONTINUOUS
10
120.7
20
-96.7747
11
120.699
21
-96.7793
0
LINE
8
BLACK
6
CONTINUOUS
10
120.699
20
-96.7793
11
120.699
21
-96.7841
0
LINE
8
BLACK
6
CONTINUOUS
10
120.699
20
-96.7841
11
120.699
21
-96.7842
0
LINE
8
BLACK
6
CONTINUOUS
10
120.699
20
-96.7842
11
120.699
21
-96.7844
0
LINE
8
BLACK
6
CONTINUOUS
10
120.699
20
-96.7844
11
120.697
21
-96.7889
0
LINE
8
BLACK
6
CONTINUOUS
10
120.697
20
-96.7889
11
120.696
21
-96.7934
0
LINE
8
BLACK
6
CONTINUOUS
10
120.696
20
-96.7934
11
120.696
21
-96.7935
0
LINE
8
BLACK
6
CONTINUOUS
10
120.696
20
-96.7935
11
120.696
21
-96.7937
0
LINE
8
BLACK
6
CONTINUOUS
10
120.696
20
-96.7937
11
120.694
21
-96.7978
0
LINE
8
BLACK
6
CONTINUOUS
10
120.694
20
-96.7978
11
120.691
21
-96.802
0
LINE
8
BLACK
6
CONTINUOUS
10
120.691
20
-96.802
11
120.691
21
-96.8021
0
LINE
8
BLACK
6
CONTINUOUS
10
120.691
20
-96.8021
11
120.691
21
-96.8022
0
LINE
8
BLACK
6
CONTINUOUS
10
120.691
20
-96.8022
11
120.688
21
-96.8058
0
LINE
8
BLACK
6
CONTINUOUS
10
120.688
20
-96.8058
11
120.685
21
-96.8095
0
LINE
8
BLACK
6
CONTINUOUS
10
120.685
20
-96.8095
11
120.685
21
-96.8096
0
LINE
8
BLACK
6
CONTINUOUS
10
120.685
20
-96.8096
11
120.685
21
-96.8097
0
LINE
8
BLACK
6
CONTINUOUS
10
120.685
20
-96.8097
11
120.681
21
-96.8126
0
LINE
8
BLACK
6
CONTINUOUS
10
120.681
20
-96.8126
11
120.678
21
-96.8156
0
LINE
8
BLACK
6
CONTINUOUS
10
120.678
20
-96.8156
11
120.678
21
-96.8157
0
LINE
8
BLACK
6
CONTINUOUS
10
120.678
20
-96.8157
11
120.677
21
-96.8158
0
LINE
8
BLACK
6
CONTINUOUS
10
120.677
20
-96.8158
11
120.673
21
-96.818
0
LINE
8
BLACK
6
CONTINUOUS
10
120.673
20
-96.818
11
120.669
21
-96.8202
0
LINE
8
BLACK
6
CONTINUOUS
10
120.669
20
-96.8202
11
120.669
21
-96.8203
0
LINE
8
BLACK
6
CONTINUOUS
10
120.669
20
-96.8203
11
120.669
21
-96.8204
0
LINE
8
BLACK
6
CONTINUOUS
10
120.669
20
-96.8204
11
120.664
21
-96.8217
0
LINE
8
BLACK
6
CONTINUOUS
10
120.664
20
-96.8217
11
120.66
21
-96.823
0
LINE
8
BLACK
6
CONTINUOUS
10
120.66
20
-96.823
11
120.66
21
-96.8231
0
LINE
8
BLACK
6
CONTINUOUS
10
120.66
20
-96.8231
11
120.659
21
-96.8231
0
LINE
8
BLACK
6
CONTINUOUS
10
120.659
20
-96.8231
11
120.655
21
-96.8235
0
LINE
8
BLACK
6
CONTINUOUS
10
120.655
20
-96.8235
11
120.65
21
-96.824
0
LINE
8
BLACK
6
CONTINUOUS
10
120.65
20
-96.824
11
120.015
21
-96.824
0
LINE
8
BLACK
6
CONTINUOUS
10
120.015
20
-96.824
11
120.015
21
-96.824
0
LINE
8
BLACK
6
CONTINUOUS
10
120.015
20
-96.824
11
120.015
21
-96.824
0
LINE
8
BLACK
6
CONTINUOUS
10
120.015
20
-96.824
11
120.015
21
-96.824
0
LINE
8
BLACK
6
CONTINUOUS
10
120.015
20
-96.824
11
120.014
21
-96.824
0
LINE
8
BLACK
6
CONTINUOUS
10
120.014
20
-96.824
11
120.01
21
-96.8235
0
LINE
8
BLACK
6
CONTINUOUS
10
120.01
20
-96.8235
11
120.005
21
-96.823
0
LINE
8
BLACK
6
CONTINUOUS
10
120.005
20
-96.823
11
120.005
21
-96.8229
0
LINE
8
BLACK
6
CONTINUOUS
10
120.005
20
-96.8229
11
120.005
21
-96.8229
0
LINE
8
BLACK
6
CONTINUOUS
10
120.005
20
-96.8229
11
120
21
-96.8215
0
LINE
8
BLACK
6
CONTINUOUS
10
120
20
-96.8215
11
119.996
21
-96.8201
0
LINE
8
BLACK
6
CONTINUOUS
10
119.996
20
-96.8201
11
119.995
21
-96.82
0
LINE
8
BLACK
6
CONTINUOUS
10
119.995
20
-96.82
11
119.995
21
-96.82
0
LINE
8
BLACK
6
CONTINUOUS
10
119.995
20
-96.82
11
119.991
21
-96.8177
0
LINE
8
BLACK
6
CONTINUOUS
10
119.991
20
-96.8177
11
119.987
21
-96.8155
0
LINE
8
BLACK
6
CONTINUOUS
10
119.987
20
-96.8155
11
119.987
21
-96.8153
0
LINE
8
BLACK
6
CONTINUOUS
10
119.987
20
-96.8153
11
119.987
21
-96.8153
0
LINE
8
BLACK
6
CONTINUOUS
10
119.987
20
-96.8153
11
119.983
21
-96.8123
0
LINE
8
BLACK
6
CONTINUOUS
10
119.983
20
-96.8123
11
119.98
21
-96.8092
0
LINE
8
BLACK
6
CONTINUOUS
10
119.98
20
-96.8092
11
119.979
21
-96.8091
0
LINE
8
BLACK
6
CONTINUOUS
10
119.979
20
-96.8091
11
119.979
21
-96.809
0
LINE
8
BLACK
6
CONTINUOUS
10
119.979
20
-96.809
11
119.976
21
-96.8054
0
LINE
8
BLACK
6
CONTINUOUS
10
119.976
20
-96.8054
11
119.973
21
-96.8017
0
LINE
8
BLACK
6
CONTINUOUS
10
119.973
20
-96.8017
11
119.973
21
-96.8015
0
LINE
8
BLACK
6
CONTINUOUS
10
119.973
20
-96.8015
11
119.973
21
-96.8014
0
LINE
8
BLACK
6
CONTINUOUS
10
119.973
20
-96.8014
11
119.971
21
-96.7973
0
LINE
8
BLACK
6
CONTINUOUS
10
119.971
20
-96.7973
11
119.969
21
-96.7931
0
LINE
8
BLACK
6
CONTINUOUS
10
119.969
20
-96.7931
11
119.969
21
-96.7929
0
LINE
8
BLACK
6
CONTINUOUS
10
119.969
20
-96.7929
11
119.969
21
-96.7927
0
LINE
8
BLACK
6
CONTINUOUS
10
119.969
20
-96.7927
11
119.967
21
-96.7883
0
LINE
8
BLACK
6
CONTINUOUS
10
119.967
20
-96.7883
11
119.966
21
-96.7837
0
LINE
8
BLACK
6
CONTINUOUS
10
119.966
20
-96.7837
11
119.966
21
-96.7835
0
LINE
8
BLACK
6
CONTINUOUS
10
119.966
20
-96.7835
11
119.966
21
-96.7834
0
LINE
8
BLACK
6
CONTINUOUS
10
119.966
20
-96.7834
11
119.965
21
-96.7787
0
LINE
8
BLACK
6
CONTINUOUS
10
119.965
20
-96.7787
11
119.965
21
-96.774
0
LINE
8
BLACK
6
CONTINUOUS
10
119.965
20
-96.774
11
119.965
21
-96.139
0
LINE
8
BLACK
6
CONTINUOUS
10
119.965
20
-96.139
11
119.965
21
-96.1387
0
LINE
8
BLACK
6
CONTINUOUS
10
119.965
20
-96.1387
11
119.965
21
-96.1387
0
LINE
8
BLACK
6
CONTINUOUS
10
119.965
20
-96.1387
11
119.965
21
-96.1386
0
LINE
8
BLACK
6
CONTINUOUS
10
119.965
20
-96.1386
11
119.965
21
-96.1383
0
LINE
8
BLACK
6
CONTINUOUS
10
119.965
20
-96.1383
11
119.966
21
-96.1337
0
LINE
8
BLACK
6
CONTINUOUS
10
119.966
20
-96.1337
11
119.966
21
-96.1289
0
LINE
8
BLACK
6
CONTINUOUS
10
119.966
20
-96.1289
11
119.966
21
-96.1288
0
LINE
8
BLACK
6
CONTINUOUS
10
119.966
20
-96.1288
11
119.966
21
-96.1286
0
LINE
8
BLACK
6
CONTINUOUS
10
119.966
20
-96.1286
11
119.968
21
-96.1241
0
LINE
8
BLACK
6
CONTINUOUS
10
119.968
20
-96.1241
11
119.969
21
-96.1196
0
LINE
8
BLACK
6
CONTINUOUS
10
119.969
20
-96.1196
11
119.969
21
-96.1195
0
LINE
8
BLACK
6
CONTINUOUS
10
119.969
20
-96.1195
11
119.969
21
-96.1193
0
LINE
8
BLACK
6
CONTINUOUS
10
119.969
20
-96.1193
11
119.971
21
-96.1152
0
LINE
8
BLACK
6
CONTINUOUS
10
119.971
20
-96.1152
11
119.974
21
-96.111
0
LINE
8
BLACK
6
CONTINUOUS
10
119.974
20
-96.111
11
119.974
21
-96.1109
0
LINE
8
BLACK
6
CONTINUOUS
10
119.974
20
-96.1109
11
119.974
21
-96.1108
0
LINE
8
BLACK
6
CONTINUOUS
10
119.974
20
-96.1108
11
119.977
21
-96.1072
0
LINE
8
BLACK
6
CONTINUOUS
10
119.977
20
-96.1072
11
119.98
21
-96.1035
0
LINE
8
BLACK
6
CONTINUOUS
10
119.98
20
-96.1035
11
119.98
21
-96.1034
0
LINE
8
BLACK
6
CONTINUOUS
10
119.98
20
-96.1034
11
119.98
21
-96.1033
0
LINE
8
BLACK
6
CONTINUOUS
10
119.98
20
-96.1033
11
119.984
21
-96.1004
0
LINE
8
BLACK
6
CONTINUOUS
10
119.984
20
-96.1004
11
119.987
21
-96.0974
0
LINE
8
BLACK
6
CONTINUOUS
10
119.987
20
-96.0974
11
119.987
21
-96.0973
0
LINE
8
BLACK
6
CONTINUOUS
10
119.987
20
-96.0973
11
119.988
21
-96.0972
0
LINE
8
BLACK
6
CONTINUOUS
10
119.988
20
-96.0972
11
119.992
21
-96.095
0
LINE
8
BLACK
6
CONTINUOUS
10
119.992
20
-96.095
11
119.996
21
-96.0928
0
LINE
8
BLACK
6
CONTINUOUS
10
119.996
20
-96.0928
11
119.996
21
-96.0927
0
LINE
8
BLACK
6
CONTINUOUS
10
119.996
20
-96.0927
11
119.996
21
-96.0926
0
LINE
8
BLACK
6
CONTINUOUS
10
119.996
20
-96.0926
11
120.001
21
-96.0913
0
LINE
8
BLACK
6
CONTINUOUS
10
120.001
20
-96.0913
11
120.005
21
-96.09
0
LINE
8
BLACK
6
CONTINUOUS
10
120.005
20
-96.09
11
120.005
21
-96.0899
0
LINE
8
BLACK
6
CONTINUOUS
10
120.005
20
-96.0899
11
120.006
21
-96.0899
0
LINE
8
BLACK
6
CONTINUOUS
10
120.006
20
-96.0899
11
120.01
21
-96.0895
0
LINE
8
BLACK
6
CONTINUOUS
10
120.01
20
-96.0895
11
120.015
21
-96.089
0
LINE
8
BLACK
6
CONTINUOUS
10
120.015
20
-96.089
11
120.65
21
-96.089
0
LINE
8
BLACK
6
CONTINUOUS
10
120.65
20
-96.089
11
120.65
21
-96.089
0
LINE
8
BLACK
6
CONTINUOUS
10
116.205
20
-94.819
11
116.205
21
-94.819
0
LINE
8
BLACK
6
CONTINUOUS
10
116.205
20
-94.819
11
116.205
21
-94.819
0
LINE
8
BLACK
6
CONTINUOUS
10
116.205
20
-94.819
11
116.206
21
-94.819
0
LINE
8
BLACK
6
CONTINUOUS
10
116.206
20
-94.819
11
116.21
21
-94.8195
0
LINE
8
BLACK
6
CONTINUOUS
10
116.21
20
-94.8195
11
116.215
21
-94.82
0
LINE
8
BLACK
6
CONTINUOUS
10
116.215
20
-94.82
11
116.215
21
-94.8201
0
LINE
8
BLACK
6
CONTINUOUS
10
116.215
20
-94.8201
11
116.215
21
-94.8201
0
LINE
8
BLACK
6
CONTINUOUS
10
116.215
20
-94.8201
11
116.22
21
-94.8215
0
LINE
8
BLACK
6
CONTINUOUS
10
116.22
20
-94.8215
11
116.224
21
-94.8229
0
LINE
8
BLACK
6
CONTINUOUS
10
116.224
20
-94.8229
11
116.225
21
-94.823
0
LINE
8
BLACK
6
CONTINUOUS
10
116.225
20
-94.823
11
116.225
21
-94.823
0
LINE
8
BLACK
6
CONTINUOUS
10
116.225
20
-94.823
11
116.229
21
-94.8253
0
LINE
8
BLACK
6
CONTINUOUS
10
116.229
20
-94.8253
11
116.233
21
-94.8275
0
LINE
8
BLACK
6
CONTINUOUS
10
116.233
20
-94.8275
11
116.233
21
-94.8277
0
LINE
8
BLACK
6
CONTINUOUS
10
116.233
20
-94.8277
11
116.233
21
-94.8277
0
LINE
8
BLACK
6
CONTINUOUS
10
116.233
20
-94.8277
11
116.237
21
-94.8307
0
LINE
8
BLACK
6
CONTINUOUS
10
116.237
20
-94.8307
11
116.24
21
-94.8338
0
LINE
8
BLACK
6
CONTINUOUS
10
116.24
20
-94.8338
11
116.241
21
-94.8339
0
LINE
8
BLACK
6
CONTINUOUS
10
116.241
20
-94.8339
11
116.241
21
-94.834
0
LINE
8
BLACK
6
CONTINUOUS
10
116.241
20
-94.834
11
116.244
21
-94.8376
0
LINE
8
BLACK
6
CONTINUOUS
10
116.244
20
-94.8376
11
116.247
21
-94.8413
0
LINE
8
BLACK
6
CONTINUOUS
10
116.247
20
-94.8413
11
116.247
21
-94.8415
0
LINE
8
BLACK
6
CONTINUOUS
10
116.247
20
-94.8415
11
116.247
21
-94.8416
0
LINE
8
BLACK
6
CONTINUOUS
10
116.247
20
-94.8416
11
116.249
21
-94.8457
0
LINE
8
BLACK
6
CONTINUOUS
10
116.249
20
-94.8457
11
116.251
21
-94.8499
0
LINE
8
BLACK
6
CONTINUOUS
10
116.251
20
-94.8499
11
116.251
21
-94.8501
0
LINE
8
BLACK
6
CONTINUOUS
10
116.251
20
-94.8501
11
116.251
21
-94.8503
0
LINE
8
BLACK
6
CONTINUOUS
10
116.251
20
-94.8503
11
116.253
21
-94.8547
0
LINE
8
BLACK
6
CONTINUOUS
10
116.253
20
-94.8547
11
116.254
21
-94.8593
0
LINE
8
BLACK
6
CONTINUOUS
10
116.254
20
-94.8593
11
116.254
21
-94.8595
0
LINE
8
BLACK
6
CONTINUOUS
10
116.254
20
-94.8595
11
116.254
21
-94.8596
0
LINE
8
BLACK
6
CONTINUOUS
10
116.254
20
-94.8596
11
116.255
21
-94.8643
0
LINE
8
BLACK
6
CONTINUOUS
10
116.255
20
-94.8643
11
116.255
21
-94.869
0
LINE
8
BLACK
6
CONTINUOUS
10
116.255
20
-94.869
11
116.255
21
-95.504
0
LINE
8
BLACK
6
CONTINUOUS
10
116.255
20
-95.504
11
116.255
21
-95.5043
0
LINE
8
BLACK
6
CONTINUOUS
10
116.255
20
-95.5043
11
116.255
21
-95.5043
0
LINE
8
BLACK
6
CONTINUOUS
10
116.255
20
-95.5043
11
116.255
21
-95.5044
0
LINE
8
BLACK
6
CONTINUOUS
10
116.255
20
-95.5044
11
116.255
21
-95.5047
0
LINE
8
BLACK
6
CONTINUOUS
10
116.255
20
-95.5047
11
116.254
21
-95.5093
0
LINE
8
BLACK
6
CONTINUOUS
10
116.254
20
-95.5093
11
116.254
21
-95.5141
0
LINE
8
BLACK
6
CONTINUOUS
10
116.254
20
-95.5141
11
116.254
21
-95.5142
0
LINE
8
BLACK
6
CONTINUOUS
10
116.254
20
-95.5142
11
116.254
21
-95.5144
0
LINE
8
BLACK
6
CONTINUOUS
10
116.254
20
-95.5144
11
116.252
21
-95.5189
0
LINE
8
BLACK
6
CONTINUOUS
10
116.252
20
-95.5189
11
116.251
21
-95.5234
0
LINE
8
BLACK
6
CONTINUOUS
10
116.251
20
-95.5234
11
116.251
21
-95.5235
0
LINE
8
BLACK
6
CONTINUOUS
10
116.251
20
-95.5235
11
116.251
21
-95.5237
0
LINE
8
BLACK
6
CONTINUOUS
10
116.251
20
-95.5237
11
116.249
21
-95.5278
0
LINE
8
BLACK
6
CONTINUOUS
10
116.249
20
-95.5278
11
116.246
21
-95.532
0
LINE
8
BLACK
6
CONTINUOUS
10
116.246
20
-95.532
11
116.246
21
-95.5321
0
LINE
8
BLACK
6
CONTINUOUS
10
116.246
20
-95.5321
11
116.246
21
-95.5322
0
LINE
8
BLACK
6
CONTINUOUS
10
116.246
20
-95.5322
11
116.243
21
-95.5358
0
LINE
8
BLACK
6
CONTINUOUS
10
116.243
20
-95.5358
11
116.24
21
-95.5395
0
LINE
8
BLACK
6
CONTINUOUS
10
116.24
20
-95.5395
11
116.24
21
-95.5396
0
LINE
8
BLACK
6
CONTINUOUS
10
116.24
20
-95.5396
11
116.24
21
-95.5397
0
LINE
8
BLACK
6
CONTINUOUS
10
116.24
20
-95.5397
11
116.236
21
-95.5426
0
LINE
8
BLACK
6
CONTINUOUS
10
116.236
20
-95.5426
11
116.233
21
-95.5456
0
LINE
8
BLACK
6
CONTINUOUS
10
116.233
20
-95.5456
11
116.233
21
-95.5457
0
LINE
8
BLACK
6
CONTINUOUS
10
116.233
20
-95.5457
11
116.232
21
-95.5458
0
LINE
8
BLACK
6
CONTINUOUS
10
116.232
20
-95.5458
11
116.228
21
-95.548
0
LINE
8
BLACK
6
CONTINUOUS
10
116.228
20
-95.548
11
116.224
21
-95.5502
0
LINE
8
BLACK
6
CONTINUOUS
10
116.224
20
-95.5502
11
116.224
21
-95.5503
0
LINE
8
BLACK
6
CONTINUOUS
10
116.224
20
-95.5503
11
116.224
21
-95.5504
0
LINE
8
BLACK
6
CONTINUOUS
10
116.224
20
-95.5504
11
116.219
21
-95.5517
0
LINE
8
BLACK
6
CONTINUOUS
10
116.219
20
-95.5517
11
116.215
21
-95.553
0
LINE
8
BLACK
6
CONTINUOUS
10
116.215
20
-95.553
11
116.215
21
-95.5531
0
LINE
8
BLACK
6
CONTINUOUS
10
116.215
20
-95.5531
11
116.214
21
-95.5531
0
LINE
8
BLACK
6
CONTINUOUS
10
116.214
20
-95.5531
11
116.21
21
-95.5535
0
LINE
8
BLACK
6
CONTINUOUS
10
116.21
20
-95.5535
11
116.205
21
-95.554
0
LINE
8
BLACK
6
CONTINUOUS
10
116.205
20
-95.554
11
115.57
21
-95.554
0
LINE
8
BLACK
6
CONTINUOUS
10
115.57
20
-95.554
11
115.57
21
-95.554
0
LINE
8
BLACK
6
CONTINUOUS
10
115.57
20
-95.554
11
115.57
21
-95.554
0
LINE
8
BLACK
6
CONTINUOUS
10
115.57
20
-95.554
11
115.57
21
-95.554
0
LINE
8
BLACK
6
CONTINUOUS
10
115.57
20
-95.554
11
115.569
21
-95.554
0
LINE
8
BLACK
6
CONTINUOUS
10
115.569
20
-95.554
11
115.565
21
-95.5535
0
LINE
8
BLACK
6
CONTINUOUS
10
115.565
20
-95.5535
11
115.56
21
-95.553
0
LINE
8
BLACK
6
CONTINUOUS
10
115.56
20
-95.553
11
115.56
21
-95.5529
0
LINE
8
BLACK
6
CONTINUOUS
10
115.56
20
-95.5529
11
115.56
21
-95.5529
0
LINE
8
BLACK
6
CONTINUOUS
10
115.56
20
-95.5529
11
115.555
21
-95.5515
0
LINE
8
BLACK
6
CONTINUOUS
10
115.555
20
-95.5515
11
115.551
21
-95.5501
0
LINE
8
BLACK
6
CONTINUOUS
10
115.551
20
-95.5501
11
115.55
21
-95.55
0
LINE
8
BLACK
6
CONTINUOUS
10
115.55
20
-95.55
11
115.55
21
-95.55
0
LINE
8
BLACK
6
CONTINUOUS
10
115.55
20
-95.55
11
115.546
21
-95.5477
0
LINE
8
BLACK
6
CONTINUOUS
10
115.546
20
-95.5477
11
115.542
21
-95.5455
0
LINE
8
BLACK
6
CONTINUOUS
10
115.542
20
-95.5455
11
115.542
21
-95.5453
0
LINE
8
BLACK
6
CONTINUOUS
10
115.542
20
-95.5453
11
115.542
21
-95.5453
0
LINE
8
BLACK
6
CONTINUOUS
10
115.542
20
-95.5453
11
115.538
21
-95.5423
0
LINE
8
BLACK
6
CONTINUOUS
10
115.538
20
-95.5423
11
115.535
21
-95.5392
0
LINE
8
BLACK
6
CONTINUOUS
10
115.535
20
-95.5392
11
115.534
21
-95.5391
0
LINE
8
BLACK
6
CONTINUOUS
10
115.534
20
-95.5391
11
115.534
21
-95.539
0
LINE
8
BLACK
6
CONTINUOUS
10
115.534
20
-95.539
11
115.531
21
-95.5354
0
LINE
8
BLACK
6
CONTINUOUS
10
115.531
20
-95.5354
11
115.528
21
-95.5317
0
LINE
8
BLACK
6
CONTINUOUS
10
115.528
20
-95.5317
11
115.528
21
-95.5315
0
LINE
8
BLACK
6
CONTINUOUS
10
115.528
20
-95.5315
11
115.528
21
-95.5314
0
LINE
8
BLACK
6
CONTINUOUS
10
115.528
20
-95.5314
11
115.526
21
-95.5273
0
LINE
8
BLACK
6
CONTINUOUS
10
115.526
20
-95.5273
11
115.524
21
-95.5231
0
LINE
8
BLACK
6
CONTINUOUS
10
115.524
20
-95.5231
11
115.524
21
-95.5229
0
LINE
8
BLACK
6
CONTINUOUS
10
115.524
20
-95.5229
11
115.524
21
-95.5227
0
LINE
8
BLACK
6
CONTINUOUS
10
115.524
20
-95.5227
11
115.522
21
-95.5183
0
LINE
8
BLACK
6
CONTINUOUS
10
115.522
20
-95.5183
11
115.521
21
-95.5137
0
LINE
8
BLACK
6
CONTINUOUS
10
115.521
20
-95.5137
11
115.521
21
-95.5135
0
LINE
8
BLACK
6
CONTINUOUS
10
115.521
20
-95.5135
11
115.521
21
-95.5134
0
LINE
8
BLACK
6
CONTINUOUS
10
115.521
20
-95.5134
11
115.52
21
-95.5087
0
LINE
8
BLACK
6
CONTINUOUS
10
115.52
20
-95.5087
11
115.52
21
-95.504
0
LINE
8
BLACK
6
CONTINUOUS
10
115.52
20
-95.504
11
115.52
21
-94.869
0
LINE
8
BLACK
6
CONTINUOUS
10
115.52
20
-94.869
11
115.52
21
-94.8687
0
LINE
8
BLACK
6
CONTINUOUS
10
115.52
20
-94.8687
11
115.52
21
-94.8687
0
LINE
8
BLACK
6
CONTINUOUS
10
115.52
20
-94.8687
11
115.52
21
-94.8686
0
LINE
8
BLACK
6
CONTINUOUS
10
115.52
20
-94.8686
11
115.52
21
-94.8683
0
LINE
8
BLACK
6
CONTINUOUS
10
115.52
20
-94.8683
11
115.521
21
-94.8637
0
LINE
8
BLACK
6
CONTINUOUS
10
115.521
20
-94.8637
11
115.521
21
-94.8589
0
LINE
8
BLACK
6
CONTINUOUS
10
115.521
20
-94.8589
11
115.521
21
-94.8588
0
LINE
8
BLACK
6
CONTINUOUS
10
115.521
20
-94.8588
11
115.521
21
-94.8586
0
LINE
8
BLACK
6
CONTINUOUS
10
115.521
20
-94.8586
11
115.523
21
-94.8541
0
LINE
8
BLACK
6
CONTINUOUS
10
115.523
20
-94.8541
11
115.524
21
-94.8496
0
LINE
8
BLACK
6
CONTINUOUS
10
115.524
20
-94.8496
11
115.524
21
-94.8495
0
LINE
8
BLACK
6
CONTINUOUS
10
115.524
20
-94.8495
11
115.524
21
-94.8493
0
LINE
8
BLACK
6
CONTINUOUS
10
115.524
20
-94.8493
11
115.526
21
-94.8452
0
LINE
8
BLACK
6
CONTINUOUS
10
115.526
20
-94.8452
11
115.529
21
-94.841
0
LINE
8
BLACK
6
CONTINUOUS
10
115.529
20
-94.841
11
115.529
21
-94.8409
0
LINE
8
BLACK
6
CONTINUOUS
10
115.529
20
-94.8409
11
115.529
21
-94.8408
0
LINE
8
BLACK
6
CONTINUOUS
10
115.529
20
-94.8408
11
115.532
21
-94.8372
0
LINE
8
BLACK
6
CONTINUOUS
10
115.532
20
-94.8372
11
115.535
21
-94.8335
0
LINE
8
BLACK
6
CONTINUOUS
10
115.535
20
-94.8335
11
115.535
21
-94.8334
0
LINE
8
BLACK
6
CONTINUOUS
10
115.535
20
-94.8334
11
115.535
21
-94.8333
0
LINE
8
BLACK
6
CONTINUOUS
10
115.535
20
-94.8333
11
115.539
21
-94.8304
0
LINE
8
BLACK
6
CONTINUOUS
10
115.539
20
-94.8304
11
115.542
21
-94.8274
0
LINE
8
BLACK
6
CONTINUOUS
10
115.542
20
-94.8274
11
115.542
21
-94.8273
0
LINE
8
BLACK
6
CONTINUOUS
10
115.542
20
-94.8273
11
115.543
21
-94.8272
0
LINE
8
BLACK
6
CONTINUOUS
10
115.543
20
-94.8272
11
115.547
21
-94.825
0
LINE
8
BLACK
6
CONTINUOUS
10
115.547
20
-94.825
11
115.551
21
-94.8228
0
LINE
8
BLACK
6
CONTINUOUS
10
115.551
20
-94.8228
11
115.551
21
-94.8227
0
LINE
8
BLACK
6
CONTINUOUS
10
115.551
20
-94.8227
11
115.551
21
-94.8226
0
LINE
8
BLACK
6
CONTINUOUS
10
115.551
20
-94.8226
11
115.556
21
-94.8213
0
LINE
8
BLACK
6
CONTINUOUS
10
115.556
20
-94.8213
11
115.56
21
-94.82
0
LINE
8
BLACK
6
CONTINUOUS
10
115.56
20
-94.82
11
115.56
21
-94.8199
0
LINE
8
BLACK
6
CONTINUOUS
10
115.56
20
-94.8199
11
115.561
21
-94.8199
0
LINE
8
BLACK
6
CONTINUOUS
10
115.561
20
-94.8199
11
115.565
21
-94.8195
0
LINE
8
BLACK
6
CONTINUOUS
10
115.565
20
-94.8195
11
115.57
21
-94.819
0
LINE
8
BLACK
6
CONTINUOUS
10
115.57
20
-94.819
11
116.205
21
-94.819
0
LINE
8
BLACK
6
CONTINUOUS
10
116.205
20
-94.819
11
116.205
21
-94.819
0
LINE
8
BLACK
6
CONTINUOUS
10
120.65
20
-94.184
11
120.65
21
-94.184
0
LINE
8
BLACK
6
CONTINUOUS
10
120.65
20
-94.184
11
120.65
21
-94.184
0
LINE
8
BLACK
6
CONTINUOUS
10
120.65
20
-94.184
11
120.651
21
-94.184
0
LINE
8
BLACK
6
CONTINUOUS
10
120.651
20
-94.184
11
120.655
21
-94.1845
0
LINE
8
BLACK
6
CONTINUOUS
10
120.655
20
-94.1845
11
120.66
21
-94.185
0
LINE
8
BLACK
6
CONTINUOUS
10
120.66
20
-94.185
11
120.66
21
-94.1851
0
LINE
8
BLACK
6
CONTINUOUS
10
120.66
20
-94.1851
11
120.66
21
-94.1851
0
LINE
8
BLACK
6
CONTINUOUS
10
120.66
20
-94.1851
11
120.665
21
-94.1865
0
LINE
8
BLACK
6
CONTINUOUS
10
120.665
20
-94.1865
11
120.669
21
-94.1879
0
LINE
8
BLACK
6
CONTINUOUS
10
120.669
20
-94.1879
11
120.67
21
-94.188
0
LINE
8
BLACK
6
CONTINUOUS
10
120.67
20
-94.188
11
120.67
21
-94.188
0
LINE
8
BLACK
6
CONTINUOUS
10
120.67
20
-94.188
11
120.674
21
-94.1903
0
LINE
8
BLACK
6
CONTINUOUS
10
120.674
20
-94.1903
11
120.678
21
-94.1925
0
LINE
8
BLACK
6
CONTINUOUS
10
120.678
20
-94.1925
11
120.678
21
-94.1927
0
LINE
8
BLACK
6
CONTINUOUS
10
120.678
20
-94.1927
11
120.678
21
-94.1927
0
LINE
8
BLACK
6
CONTINUOUS
10
120.678
20
-94.1927
11
120.682
21
-94.1957
0
LINE
8
BLACK
6
CONTINUOUS
10
120.682
20
-94.1957
11
120.685
21
-94.1988
0
LINE
8
BLACK
6
CONTINUOUS
10
120.685
20
-94.1988
11
120.686
21
-94.1989
0
LINE
8
BLACK
6
CONTINUOUS
10
120.686
20
-94.1989
11
120.686
21
-94.199
0
LINE
8
BLACK
6
CONTINUOUS
10
120.686
20
-94.199
11
120.689
21
-94.2026
0
LINE
8
BLACK
6
CONTINUOUS
10
120.689
20
-94.2026
11
120.692
21
-94.2063
0
LINE
8
BLACK
6
CONTINUOUS
10
120.692
20
-94.2063
11
120.692
21
-94.2065
0
LINE
8
BLACK
6
CONTINUOUS
10
120.692
20
-94.2065
11
120.692
21
-94.2066
0
LINE
8
BLACK
6
CONTINUOUS
10
120.692
20
-94.2066
11
120.694
21
-94.2107
0
LINE
8
BLACK
6
CONTINUOUS
10
120.694
20
-94.2107
11
120.696
21
-94.2149
0
LINE
8
BLACK
6
CONTINUOUS
10
120.696
20
-94.2149
11
120.696
21
-94.2151
0
LINE
8
BLACK
6
CONTINUOUS
10
120.696
20
-94.2151
11
120.696
21
-94.2153
0
LINE
8
BLACK
6
CONTINUOUS
10
120.696
20
-94.2153
11
120.698
21
-94.2197
0
LINE
8
BLACK
6
CONTINUOUS
10
120.698
20
-94.2197
11
120.699
21
-94.2243
0
LINE
8
BLACK
6
CONTINUOUS
10
120.699
20
-94.2243
11
120.699
21
-94.2245
0
LINE
8
BLACK
6
CONTINUOUS
10
120.699
20
-94.2245
11
120.699
21
-94.2246
0
LINE
8
BLACK
6
CONTINUOUS
10
120.699
20
-94.2246
11
120.7
21
-94.2293
0
LINE
8
BLACK
6
CONTINUOUS
10
120.7
20
-94.2293
11
120.7
21
-94.234
0
LINE
8
BLACK
6
CONTINUOUS
10
120.7
20
-94.234
11
120.7
21
-94.869
0
LINE
8
BLACK
6
CONTINUOUS
10
120.7
20
-94.869
11
120.7
21
-94.8693
0
LINE
8
BLACK
6
CONTINUOUS
10
120.7
20
-94.8693
11
120.7
21
-94.8693
0
LINE
8
BLACK
6
CONTINUOUS
10
120.7
20
-94.8693
11
120.7
21
-94.8694
0
LINE
8
BLACK
6
CONTINUOUS
10
120.7
20
-94.8694
11
120.7
21
-94.8697
0
LINE
8
BLACK
6
CONTINUOUS
10
120.7
20
-94.8697
11
120.699
21
-94.8743
0
LINE
8
BLACK
6
CONTINUOUS
10
120.699
20
-94.8743
11
120.699
21
-94.8791
0
LINE
8
BLACK
6
CONTINUOUS
10
120.699
20
-94.8791
11
120.699
21
-94.8792
0
LINE
8
BLACK
6
CONTINUOUS
10
120.699
20
-94.8792
11
120.699
21
-94.8794
0
LINE
8
BLACK
6
CONTINUOUS
10
120.699
20
-94.8794
11
120.697
21
-94.8839
0
LINE
8
BLACK
6
CONTINUOUS
10
120.697
20
-94.8839
11
120.696
21
-94.8884
0
LINE
8
BLACK
6
CONTINUOUS
10
120.696
20
-94.8884
11
120.696
21
-94.8885
0
LINE
8
BLACK
6
CONTINUOUS
10
120.696
20
-94.8885
11
120.696
21
-94.8887
0
LINE
8
BLACK
6
CONTINUOUS
10
120.696
20
-94.8887
11
120.694
21
-94.8928
0
LINE
8
BLACK
6
CONTINUOUS
10
120.694
20
-94.8928
11
120.691
21
-94.897
0
LINE
8
BLACK
6
CONTINUOUS
10
120.691
20
-94.897
11
120.691
21
-94.8971
0
LINE
8
BLACK
6
CONTINUOUS
10
120.691
20
-94.8971
11
120.691
21
-94.8972
0
LINE
8
BLACK
6
CONTINUOUS
10
120.691
20
-94.8972
11
120.688
21
-94.9008
0
LINE
8
BLACK
6
CONTINUOUS
10
120.688
20
-94.9008
11
120.685
21
-94.9045
0
LINE
8
BLACK
6
CONTINUOUS
10
120.685
20
-94.9045
11
120.685
21
-94.9046
0
LINE
8
BLACK
6
CONTINUOUS
10
120.685
20
-94.9046
11
120.685
21
-94.9047
0
LINE
8
BLACK
6
CONTINUOUS
10
120.685
20
-94.9047
11
120.681
21
-94.9076
0
LINE
8
BLACK
6
CONTINUOUS
10
120.681
20
-94.9076
11
120.678
21
-94.9106
0
LINE
8
BLACK
6
CONTINUOUS
10
120.678
20
-94.9106
11
120.678
21
-94.9107
0
LINE
8
BLACK
6
CONTINUOUS
10
120.678
20
-94.9107
11
120.677
21
-94.9108
0
LINE
8
BLACK
6
CONTINUOUS
10
120.677
20
-94.9108
11
120.673
21
-94.913
0
LINE
8
BLACK
6
CONTINUOUS
10
120.673
20
-94.913
11
120.669
21
-94.9152
0
LINE
8
BLACK
6
CONTINUOUS
10
120.669
20
-94.9152
11
120.669
21
-94.9153
0
LINE
8
BLACK
6
CONTINUOUS
10
120.669
20
-94.9153
11
120.669
21
-94.9154
0
LINE
8
BLACK
6
CONTINUOUS
10
120.669
20
-94.9154
11
120.664
21
-94.9167
0
LINE
8
BLACK
6
CONTINUOUS
10
120.664
20
-94.9167
11
120.66
21
-94.918
0
LINE
8
BLACK
6
CONTINUOUS
10
120.66
20
-94.918
11
120.66
21
-94.9181
0
LINE
8
BLACK
6
CONTINUOUS
10
120.66
20
-94.9181
11
120.659
21
-94.9181
0
LINE
8
BLACK
6
CONTINUOUS
10
120.659
20
-94.9181
11
120.655
21
-94.9185
0
LINE
8
BLACK
6
CONTINUOUS
10
120.655
20
-94.9185
11
120.65
21
-94.919
0
LINE
8
BLACK
6
CONTINUOUS
10
120.65
20
-94.919
11
120.015
21
-94.919
0
LINE
8
BLACK
6
CONTINUOUS
10
120.015
20
-94.919
11
120.015
21
-94.919
0
LINE
8
BLACK
6
CONTINUOUS
10
120.015
20
-94.919
11
120.015
21
-94.919
0
LINE
8
BLACK
6
CONTINUOUS
10
120.015
20
-94.919
11
120.015
21
-94.919
0
LINE
8
BLACK
6
CONTINUOUS
10
120.015
20
-94.919
11
120.014
21
-94.919
0
LINE
8
BLACK
6
CONTINUOUS
10
120.014
20
-94.919
11
120.01
21
-94.9185
0
LINE
8
BLACK
6
CONTINUOUS
10
120.01
20
-94.9185
11
120.005
21
-94.918
0
LINE
8
BLACK
6
CONTINUOUS
10
120.005
20
-94.918
11
120.005
21
-94.9179
0
LINE
8
BLACK
6
CONTINUOUS
10
120.005
20
-94.9179
11
120.005
21
-94.9179
0
LINE
8
BLACK
6
CONTINUOUS
10
120.005
20
-94.9179
11
120
21
-94.9165
0
LINE
8
BLACK
6
CONTINUOUS
10
120
20
-94.9165
11
119.996
21
-94.9151
0
LINE
8
BLACK
6
CONTINUOUS
10
119.996
20
-94.9151
11
119.995
21
-94.915
0
LINE
8
BLACK
6
CONTINUOUS
10
119.995
20
-94.915
11
119.995
21
-94.915
0
LINE
8
BLACK
6
CONTINUOUS
10
119.995
20
-94.915
11
119.991
21
-94.9127
0
LINE
8
BLACK
6
CONTINUOUS
10
119.991
20
-94.9127
11
119.987
21
-94.9105
0
LINE
8
BLACK
6
CONTINUOUS
10
119.987
20
-94.9105
11
119.987
21
-94.9103
0
LINE
8
BLACK
6
CONTINUOUS
10
119.987
20
-94.9103
11
119.987
21
-94.9103
0
LINE
8
BLACK
6
CONTINUOUS
10
119.987
20
-94.9103
11
119.983
21
-94.9073
0
LINE
8
BLACK
6
CONTINUOUS
10
119.983
20
-94.9073
11
119.98
21
-94.9042
0
LINE
8
BLACK
6
CONTINUOUS
10
119.98
20
-94.9042
11
119.979
21
-94.9041
0
LINE
8
BLACK
6
CONTINUOUS
10
119.979
20
-94.9041
11
119.979
21
-94.904
0
LINE
8
BLACK
6
CONTINUOUS
10
119.979
20
-94.904
11
119.976
21
-94.9004
0
LINE
8
BLACK
6
CONTINUOUS
10
119.976
20
-94.9004
11
119.973
21
-94.8967
0
LINE
8
BLACK
6
CONTINUOUS
10
119.973
20
-94.8967
11
119.973
21
-94.8965
0
LINE
8
BLACK
6
CONTINUOUS
10
119.973
20
-94.8965
11
119.973
21
-94.8964
0
LINE
8
BLACK
6
CONTINUOUS
10
119.973
20
-94.8964
11
119.971
21
-94.8923
0
LINE
8
BLACK
6
CONTINUOUS
10
119.971
20
-94.8923
11
119.969
21
-94.8881
0
LINE
8
BLACK
6
CONTINUOUS
10
119.969
20
-94.8881
11
119.969
21
-94.8879
0
LINE
8
BLACK
6
CONTINUOUS
10
119.969
20
-94.8879
11
119.969
21
-94.8877
0
LINE
8
BLACK
6
CONTINUOUS
10
119.969
20
-94.8877
11
119.967
21
-94.8833
0
LINE
8
BLACK
6
CONTINUOUS
10
119.967
20
-94.8833
11
119.966
21
-94.8787
0
LINE
8
BLACK
6
CONTINUOUS
10
119.966
20
-94.8787
11
119.966
21
-94.8785
0
LINE
8
BLACK
6
CONTINUOUS
10
119.966
20
-94.8785
11
119.966
21
-94.8784
0
LINE
8
BLACK
6
CONTINUOUS
10
119.966
20
-94.8784
11
119.965
21
-94.8737
0
LINE
8
BLACK
6
CONTINUOUS
10
119.965
20
-94.8737
11
119.965
21
-94.869
0
LINE
8
BLACK
6
CONTINUOUS
10
119.965
20
-94.869
11
119.965
21
-94.234
0
LINE
8
BLACK
6
CONTINUOUS
10
119.965
20
-94.234
11
119.965
21
-94.2337
0
LINE
8
BLACK
6
CONTINUOUS
10
119.965
20
-94.2337
11
119.965
21
-94.2337
0
LINE
8
BLACK
6
CONTINUOUS
10
119.965
20
-94.2337
11
119.965
21
-94.2336
0
LINE
8
BLACK
6
CONTINUOUS
10
119.965
20
-94.2336
11
119.965
21
-94.2333
0
LINE
8
BLACK
6
CONTINUOUS
10
119.965
20
-94.2333
11
119.966
21
-94.2287
0
LINE
8
BLACK
6
CONTINUOUS
10
119.966
20
-94.2287
11
119.966
21
-94.2239
0
LINE
8
BLACK
6
CONTINUOUS
10
119.966
20
-94.2239
11
119.966
21
-94.2238
0
LINE
8
BLACK
6
CONTINUOUS
10
119.966
20
-94.2238
11
119.966
21
-94.2236
0
LINE
8
BLACK
6
CONTINUOUS
10
119.966
20
-94.2236
11
119.968
21
-94.2191
0
LINE
8
BLACK
6
CONTINUOUS
10
119.968
20
-94.2191
11
119.969
21
-94.2146
0
LINE
8
BLACK
6
CONTINUOUS
10
119.969
20
-94.2146
11
119.969
21
-94.2145
0
LINE
8
BLACK
6
CONTINUOUS
10
119.969
20
-94.2145
11
119.969
21
-94.2143
0
LINE
8
BLACK
6
CONTINUOUS
10
119.969
20
-94.2143
11
119.971
21
-94.2102
0
LINE
8
BLACK
6
CONTINUOUS
10
119.971
20
-94.2102
11
119.974
21
-94.206
0
LINE
8
BLACK
6
CONTINUOUS
10
119.974
20
-94.206
11
119.974
21
-94.2059
0
LINE
8
BLACK
6
CONTINUOUS
10
119.974
20
-94.2059
11
119.974
21
-94.2058
0
LINE
8
BLACK
6
CONTINUOUS
10
119.974
20
-94.2058
11
119.977
21
-94.2022
0
LINE
8
BLACK
6
CONTINUOUS
10
119.977
20
-94.2022
11
119.98
21
-94.1985
0
LINE
8
BLACK
6
CONTINUOUS
10
119.98
20
-94.1985
11
119.98
21
-94.1984
0
LINE
8
BLACK
6
CONTINUOUS
10
119.98
20
-94.1984
11
119.98
21
-94.1983
0
LINE
8
BLACK
6
CONTINUOUS
10
119.98
20
-94.1983
11
119.984
21
-94.1954
0
LINE
8
BLACK
6
CONTINUOUS
10
119.984
20
-94.1954
11
119.987
21
-94.1924
0
LINE
8
BLACK
6
CONTINUOUS
10
119.987
20
-94.1924
11
119.987
21
-94.1923
0
LINE
8
BLACK
6
CONTINUOUS
10
119.987
20
-94.1923
11
119.988
21
-94.1922
0
LINE
8
BLACK
6
CONTINUOUS
10
119.988
20
-94.1922
11
119.992
21
-94.19
0
LINE
8
BLACK
6
CONTINUOUS
10
119.992
20
-94.19
11
119.996
21
-94.1878
0
LINE
8
BLACK
6
CONTINUOUS
10
119.996
20
-94.1878
11
119.996
21
-94.1877
0
LINE
8
BLACK
6
CONTINUOUS
10
119.996
20
-94.1877
11
119.996
21
-94.1876
0
LINE
8
BLACK
6
CONTINUOUS
10
119.996
20
-94.1876
11
120.001
21
-94.1863
0
LINE
8
BLACK
6
CONTINUOUS
10
120.001
20
-94.1863
11
120.005
21
-94.185
0
LINE
8
BLACK
6
CONTINUOUS
10
120.005
20
-94.185
11
120.005
21
-94.1849
0
LINE
8
BLACK
6
CONTINUOUS
10
120.005
20
-94.1849
11
120.006
21
-94.1849
0
LINE
8
BLACK
6
CONTINUOUS
10
120.006
20
-94.1849
11
120.01
21
-94.1845
0
LINE
8
BLACK
6
CONTINUOUS
10
120.01
20
-94.1845
11
120.015
21
-94.184
0
LINE
8
BLACK
6
CONTINUOUS
10
120.015
20
-94.184
11
120.65
21
-94.184
0
LINE
8
BLACK
6
CONTINUOUS
10
120.65
20
-94.184
11
120.65
21
-94.184
0
LINE
8
BLACK
6
CONTINUOUS
10
119.43
20
-92.9643
11
119.43
21
-92.9643
0
LINE
8
BLACK
6
CONTINUOUS
10
119.43
20
-92.9643
11
119.43
21
-92.9644
0
LINE
8
BLACK
6
CONTINUOUS
10
119.43
20
-92.9644
11
119.43
21
-92.9647
0
LINE
8
BLACK
6
CONTINUOUS
10
119.43
20
-92.9647
11
119.429
21
-92.9693
0
LINE
8
BLACK
6
CONTINUOUS
10
119.429
20
-92.9693
11
119.429
21
-92.9741
0
LINE
8
BLACK
6
CONTINUOUS
10
119.429
20
-92.9741
11
119.429
21
-92.9742
0
LINE
8
BLACK
6
CONTINUOUS
10
119.429
20
-92.9742
11
119.429
21
-92.9744
0
LINE
8
BLACK
6
CONTINUOUS
10
119.429
20
-92.9744
11
119.427
21
-92.9789
0
LINE
8
BLACK
6
CONTINUOUS
10
119.427
20
-92.9789
11
119.426
21
-92.9834
0
LINE
8
BLACK
6
CONTINUOUS
10
119.426
20
-92.9834
11
119.426
21
-92.9835
0
LINE
8
BLACK
6
CONTINUOUS
10
119.426
20
-92.9835
11
119.426
21
-92.9837
0
LINE
8
BLACK
6
CONTINUOUS
10
119.426
20
-92.9837
11
119.424
21
-92.9878
0
LINE
8
BLACK
6
CONTINUOUS
10
119.424
20
-92.9878
11
119.421
21
-92.992
0
LINE
8
BLACK
6
CONTINUOUS
10
119.421
20
-92.992
11
119.421
21
-92.9921
0
LINE
8
BLACK
6
CONTINUOUS
10
119.421
20
-92.9921
11
119.421
21
-92.9922
0
LINE
8
BLACK
6
CONTINUOUS
10
119.421
20
-92.9922
11
119.418
21
-92.9958
0
LINE
8
BLACK
6
CONTINUOUS
10
119.418
20
-92.9958
11
119.415
21
-92.9995
0
LINE
8
BLACK
6
CONTINUOUS
10
119.415
20
-92.9995
11
119.415
21
-92.9996
0
LINE
8
BLACK
6
CONTINUOUS
10
119.415
20
-92.9996
11
119.415
21
-92.9997
0
LINE
8
BLACK
6
CONTINUOUS
10
119.415
20
-92.9997
11
119.411
21
-93.0026
0
LINE
8
BLACK
6
CONTINUOUS
10
119.411
20
-93.0026
11
119.408
21
-93.0056
0
LINE
8
BLACK
6
CONTINUOUS
10
119.408
20
-93.0056
11
119.408
21
-93.0057
0
LINE
8
BLACK
6
CONTINUOUS
10
119.408
20
-93.0057
11
119.407
21
-93.0058
0
LINE
8
BLACK
6
CONTINUOUS
10
119.407
20
-93.0058
11
119.403
21
-93.008
0
LINE
8
BLACK
6
CONTINUOUS
10
119.403
20
-93.008
11
119.399
21
-93.0102
0
LINE
8
BLACK
6
CONTINUOUS
10
119.399
20
-93.0102
11
119.399
21
-93.0103
0
LINE
8
BLACK
6
CONTINUOUS
10
119.399
20
-93.0103
11
119.399
21
-93.0104
0
LINE
8
BLACK
6
CONTINUOUS
10
119.399
20
-93.0104
11
119.394
21
-93.0117
0
LINE
8
BLACK
6
CONTINUOUS
10
119.394
20
-93.0117
11
119.39
21
-93.013
0
LINE
8
BLACK
6
CONTINUOUS
10
119.39
20
-93.013
11
119.39
21
-93.0131
0
LINE
8
BLACK
6
CONTINUOUS
10
119.39
20
-93.0131
11
119.389
21
-93.0131
0
LINE
8
BLACK
6
CONTINUOUS
10
119.389
20
-93.0131
11
119.385
21
-93.0135
0
LINE
8
BLACK
6
CONTINUOUS
10
119.385
20
-93.0135
11
119.38
21
-93.014
0
LINE
8
BLACK
6
CONTINUOUS
10
119.38
20
-93.014
11
118.795
21
-93.014
0
LINE
8
BLACK
6
CONTINUOUS
10
118.795
20
-93.014
11
118.795
21
-93.549
0
LINE
8
BLACK
6
CONTINUOUS
10
118.795
20
-93.549
11
119.38
21
-93.549
0
LINE
8
BLACK
6
CONTINUOUS
10
119.38
20
-93.549
11
119.38
21
-93.549
0
LINE
8
BLACK
6
CONTINUOUS
10
119.38
20
-93.549
11
119.38
21
-93.549
0
LINE
8
BLACK
6
CONTINUOUS
10
119.38
20
-93.549
11
119.38
21
-93.549
0
LINE
8
BLACK
6
CONTINUOUS
10
119.38
20
-93.549
11
119.381
21
-93.549
0
LINE
8
BLACK
6
CONTINUOUS
10
119.381
20
-93.549
11
119.385
21
-93.5495
0
LINE
8
BLACK
6
CONTINUOUS
10
119.385
20
-93.5495
11
119.39
21
-93.55
0
LINE
8
BLACK
6
CONTINUOUS
10
119.39
20
-93.55
11
119.39
21
-93.5501
0
LINE
8
BLACK
6
CONTINUOUS
10
119.39
20
-93.5501
11
119.39
21
-93.5501
0
LINE
8
BLACK
6
CONTINUOUS
10
119.39
20
-93.5501
11
119.395
21
-93.5515
0
LINE
8
BLACK
6
CONTINUOUS
10
119.395
20
-93.5515
11
119.399
21
-93.5529
0
LINE
8
BLACK
6
CONTINUOUS
10
119.399
20
-93.5529
11
119.4
21
-93.553
0
LINE
8
BLACK
6
CONTINUOUS
10
119.4
20
-93.553
11
119.4
21
-93.553
0
LINE
8
BLACK
6
CONTINUOUS
10
119.4
20
-93.553
11
119.404
21
-93.5553
0
LINE
8
BLACK
6
CONTINUOUS
10
119.404
20
-93.5553
11
119.408
21
-93.5575
0
LINE
8
BLACK
6
CONTINUOUS
10
119.408
20
-93.5575
11
119.408
21
-93.5577
0
LINE
8
BLACK
6
CONTINUOUS
10
119.408
20
-93.5577
11
119.408
21
-93.5577
0
LINE
8
BLACK
6
CONTINUOUS
10
119.408
20
-93.5577
11
119.412
21
-93.5607
0
LINE
8
BLACK
6
CONTINUOUS
10
119.412
20
-93.5607
11
119.415
21
-93.5638
0
LINE
8
BLACK
6
CONTINUOUS
10
119.415
20
-93.5638
11
119.416
21
-93.5639
0
LINE
8
BLACK
6
CONTINUOUS
10
119.416
20
-93.5639
11
119.416
21
-93.564
0
LINE
8
BLACK
6
CONTINUOUS
10
119.416
20
-93.564
11
119.419
21
-93.5676
0
LINE
8
BLACK
6
CONTINUOUS
10
119.419
20
-93.5676
11
119.422
21
-93.5713
0
LINE
8
BLACK
6
CONTINUOUS
10
119.422
20
-93.5713
11
119.422
21
-93.5715
0
LINE
8
BLACK
6
CONTINUOUS
10
119.422
20
-93.5715
11
119.422
21
-93.5716
0
LINE
8
BLACK
6
CONTINUOUS
10
119.422
20
-93.5716
11
119.424
21
-93.5757
0
LINE
8
BLACK
6
CONTINUOUS
10
119.424
20
-93.5757
11
119.426
21
-93.5799
0
LINE
8
BLACK
6
CONTINUOUS
10
119.426
20
-93.5799
11
119.426
21
-93.5801
0
LINE
8
BLACK
6
CONTINUOUS
10
119.426
20
-93.5801
11
119.426
21
-93.5803
0
LINE
8
BLACK
6
CONTINUOUS
10
119.426
20
-93.5803
11
119.428
21
-93.5847
0
LINE
8
BLACK
6
CONTINUOUS
10
119.428
20
-93.5847
11
119.429
21
-93.5893
0
LINE
8
BLACK
6
CONTINUOUS
10
119.429
20
-93.5893
11
119.429
21
-93.5895
0
LINE
8
BLACK
6
CONTINUOUS
10
119.429
20
-93.5895
11
119.429
21
-93.5896
0
LINE
8
BLACK
6
CONTINUOUS
10
119.429
20
-93.5896
11
119.43
21
-93.5943
0
LINE
8
BLACK
6
CONTINUOUS
10
119.43
20
-93.5943
11
119.43
21
-93.599
0
LINE
8
BLACK
6
CONTINUOUS
10
119.43
20
-93.599
11
119.43
21
-94.234
0
LINE
8
BLACK
6
CONTINUOUS
10
119.43
20
-94.234
11
119.43
21
-94.2343
0
LINE
8
BLACK
6
CONTINUOUS
10
119.43
20
-94.2343
11
119.43
21
-94.2343
0
LINE
8
BLACK
6
CONTINUOUS
10
119.43
20
-94.2343
11
119.43
21
-94.2344
0
LINE
8
BLACK
6
CONTINUOUS
10
119.43
20
-94.2344
11
119.43
21
-94.2347
0
LINE
8
BLACK
6
CONTINUOUS
10
119.43
20
-94.2347
11
119.429
21
-94.2393
0
LINE
8
BLACK
6
CONTINUOUS
10
119.429
20
-94.2393
11
119.429
21
-94.2441
0
LINE
8
BLACK
6
CONTINUOUS
10
119.429
20
-94.2441
11
119.429
21
-94.2442
0
LINE
8
BLACK
6
CONTINUOUS
10
119.429
20
-94.2442
11
119.429
21
-94.2444
0
LINE
8
BLACK
6
CONTINUOUS
10
119.429
20
-94.2444
11
119.427
21
-94.2489
0
LINE
8
BLACK
6
CONTINUOUS
10
119.427
20
-94.2489
11
119.426
21
-94.2534
0
LINE
8
BLACK
6
CONTINUOUS
10
119.426
20
-94.2534
11
119.426
21
-94.2535
0
LINE
8
BLACK
6
CONTINUOUS
10
119.426
20
-94.2535
11
119.426
21
-94.2537
0
LINE
8
BLACK
6
CONTINUOUS
10
119.426
20
-94.2537
11
119.424
21
-94.2578
0
LINE
8
BLACK
6
CONTINUOUS
10
119.424
20
-94.2578
11
119.421
21
-94.262
0
LINE
8
BLACK
6
CONTINUOUS
10
119.421
20
-94.262
11
119.421
21
-94.2621
0
LINE
8
BLACK
6
CONTINUOUS
10
119.421
20
-94.2621
11
119.421
21
-94.2622
0
LINE
8
BLACK
6
CONTINUOUS
10
119.421
20
-94.2622
11
119.418
21
-94.2658
0
LINE
8
BLACK
6
CONTINUOUS
10
119.418
20
-94.2658
11
119.415
21
-94.2695
0
LINE
8
BLACK
6
CONTINUOUS
10
119.415
20
-94.2695
11
119.415
21
-94.2696
0
LINE
8
BLACK
6
CONTINUOUS
10
119.415
20
-94.2696
11
119.415
21
-94.2697
0
LINE
8
BLACK
6
CONTINUOUS
10
119.415
20
-94.2697
11
119.411
21
-94.2726
0
LINE
8
BLACK
6
CONTINUOUS
10
119.411
20
-94.2726
11
119.408
21
-94.2756
0
LINE
8
BLACK
6
CONTINUOUS
10
119.408
20
-94.2756
11
119.408
21
-94.2757
0
LINE
8
BLACK
6
CONTINUOUS
10
119.408
20
-94.2757
11
119.407
21
-94.2758
0
LINE
8
BLACK
6
CONTINUOUS
10
119.407
20
-94.2758
11
119.403
21
-94.278
0
LINE
8
BLACK
6
CONTINUOUS
10
119.403
20
-94.278
11
119.399
21
-94.2802
0
LINE
8
BLACK
6
CONTINUOUS
10
119.399
20
-94.2802
11
119.399
21
-94.2803
0
LINE
8
BLACK
6
CONTINUOUS
10
119.399
20
-94.2803
11
119.399
21
-94.2804
0
LINE
8
BLACK
6
CONTINUOUS
10
119.399
20
-94.2804
11
119.394
21
-94.2817
0
LINE
8
BLACK
6
CONTINUOUS
10
119.394
20
-94.2817
11
119.39
21
-94.283
0
LINE
8
BLACK
6
CONTINUOUS
10
119.39
20
-94.283
11
119.39
21
-94.2831
0
LINE
8
BLACK
6
CONTINUOUS
10
119.39
20
-94.2831
11
119.389
21
-94.2831
0
LINE
8
BLACK
6
CONTINUOUS
10
119.389
20
-94.2831
11
119.385
21
-94.2835
0
LINE
8
BLACK
6
CONTINUOUS
10
119.385
20
-94.2835
11
119.38
21
-94.284
0
LINE
8
BLACK
6
CONTINUOUS
10
119.38
20
-94.284
11
117.475
21
-94.284
0
LINE
8
BLACK
6
CONTINUOUS
10
117.475
20
-94.284
11
117.475
21
-94.284
0
LINE
8
BLACK
6
CONTINUOUS
10
117.475
20
-94.284
11
117.475
21
-94.284
0
LINE
8
BLACK
6
CONTINUOUS
10
117.475
20
-94.284
11
117.475
21
-94.284
0
LINE
8
BLACK
6
CONTINUOUS
10
117.475
20
-94.284
11
117.474
21
-94.284
0
LINE
8
BLACK
6
CONTINUOUS
10
117.474
20
-94.284
11
117.47
21
-94.2835
0
LINE
8
BLACK
6
CONTINUOUS
10
117.47
20
-94.2835
11
117.465
21
-94.283
0
LINE
8
BLACK
6
CONTINUOUS
10
117.465
20
-94.283
11
117.465
21
-94.2829
0
LINE
8
BLACK
6
CONTINUOUS
10
117.465
20
-94.2829
11
117.465
21
-94.2829
0
LINE
8
BLACK
6
CONTINUOUS
10
117.465
20
-94.2829
11
117.46
21
-94.2815
0
LINE
8
BLACK
6
CONTINUOUS
10
117.46
20
-94.2815
11
117.456
21
-94.2801
0
LINE
8
BLACK
6
CONTINUOUS
10
117.456
20
-94.2801
11
117.455
21
-94.28
0
LINE
8
BLACK
6
CONTINUOUS
10
117.455
20
-94.28
11
117.455
21
-94.28
0
LINE
8
BLACK
6
CONTINUOUS
10
117.455
20
-94.28
11
117.451
21
-94.2777
0
LINE
8
BLACK
6
CONTINUOUS
10
117.451
20
-94.2777
11
117.447
21
-94.2755
0
LINE
8
BLACK
6
CONTINUOUS
10
117.447
20
-94.2755
11
117.447
21
-94.2753
0
LINE
8
BLACK
6
CONTINUOUS
10
117.447
20
-94.2753
11
117.447
21
-94.2753
0
LINE
8
BLACK
6
CONTINUOUS
10
117.447
20
-94.2753
11
117.443
21
-94.2723
0
LINE
8
BLACK
6
CONTINUOUS
10
117.443
20
-94.2723
11
117.44
21
-94.2692
0
LINE
8
BLACK
6
CONTINUOUS
10
117.44
20
-94.2692
11
117.439
21
-94.2691
0
LINE
8
BLACK
6
CONTINUOUS
10
117.439
20
-94.2691
11
117.439
21
-94.269
0
LINE
8
BLACK
6
CONTINUOUS
10
117.439
20
-94.269
11
117.436
21
-94.2654
0
LINE
8
BLACK
6
CONTINUOUS
10
117.436
20
-94.2654
11
117.433
21
-94.2617
0
LINE
8
BLACK
6
CONTINUOUS
10
117.433
20
-94.2617
11
117.433
21
-94.2615
0
LINE
8
BLACK
6
CONTINUOUS
10
117.433
20
-94.2615
11
117.433
21
-94.2614
0
LINE
8
BLACK
6
CONTINUOUS
10
117.433
20
-94.2614
11
117.431
21
-94.2573
0
LINE
8
BLACK
6
CONTINUOUS
10
117.431
20
-94.2573
11
117.429
21
-94.2531
0
LINE
8
BLACK
6
CONTINUOUS
10
117.429
20
-94.2531
11
117.429
21
-94.2529
0
LINE
8
BLACK
6
CONTINUOUS
10
117.429
20
-94.2529
11
117.429
21
-94.2527
0
LINE
8
BLACK
6
CONTINUOUS
10
117.429
20
-94.2527
11
117.427
21
-94.2483
0
LINE
8
BLACK
6
CONTINUOUS
10
117.427
20
-94.2483
11
117.426
21
-94.2437
0
LINE
8
BLACK
6
CONTINUOUS
10
117.426
20
-94.2437
11
117.426
21
-94.2435
0
LINE
8
BLACK
6
CONTINUOUS
10
117.426
20
-94.2435
11
117.426
21
-94.2434
0
LINE
8
BLACK
6
CONTINUOUS
10
117.426
20
-94.2434
11
117.425
21
-94.2387
0
LINE
8
BLACK
6
CONTINUOUS
10
117.425
20
-94.2387
11
117.425
21
-94.234
0
LINE
8
BLACK
6
CONTINUOUS
10
117.425
20
-94.234
11
117.425
21
-93.649
0
LINE
8
BLACK
6
CONTINUOUS
10
117.425
20
-93.649
11
116.84
21
-93.649
0
LINE
8
BLACK
6
CONTINUOUS
10
116.84
20
-93.649
11
116.84
21
-93.649
0
LINE
8
BLACK
6
CONTINUOUS
10
116.84
20
-93.649
11
116.84
21
-93.649
0
LINE
8
BLACK
6
CONTINUOUS
10
116.84
20
-93.649
11
116.84
21
-93.649
0
LINE
8
BLACK
6
CONTINUOUS
10
116.84
20
-93.649
11
116.839
21
-93.649
0
LINE
8
BLACK
6
CONTINUOUS
10
116.839
20
-93.649
11
116.835
21
-93.6485
0
LINE
8
BLACK
6
CONTINUOUS
10
116.835
20
-93.6485
11
116.83
21
-93.648
0
LINE
8
BLACK
6
CONTINUOUS
10
116.83
20
-93.648
11
116.83
21
-93.6479
0
LINE
8
BLACK
6
CONTINUOUS
10
116.83
20
-93.6479
11
116.83
21
-93.6479
0
LINE
8
BLACK
6
CONTINUOUS
10
116.83
20
-93.6479
11
116.825
21
-93.6465
0
LINE
8
BLACK
6
CONTINUOUS
10
116.825
20
-93.6465
11
116.821
21
-93.6451
0
LINE
8
BLACK
6
CONTINUOUS
10
116.821
20
-93.6451
11
116.82
21
-93.645
0
LINE
8
BLACK
6
CONTINUOUS
10
116.82
20
-93.645
11
116.82
21
-93.645
0
LINE
8
BLACK
6
CONTINUOUS
10
116.82
20
-93.645
11
116.816
21
-93.6427
0
LINE
8
BLACK
6
CONTINUOUS
10
116.816
20
-93.6427
11
116.812
21
-93.6405
0
LINE
8
BLACK
6
CONTINUOUS
10
116.812
20
-93.6405
11
116.812
21
-93.6403
0
LINE
8
BLACK
6
CONTINUOUS
10
116.812
20
-93.6403
11
116.812
21
-93.6403
0
LINE
8
BLACK
6
CONTINUOUS
10
116.812
20
-93.6403
11
116.808
21
-93.6373
0
LINE
8
BLACK
6
CONTINUOUS
10
116.808
20
-93.6373
11
116.805
21
-93.6342
0
LINE
8
BLACK
6
CONTINUOUS
10
116.805
20
-93.6342
11
116.804
21
-93.6341
0
LINE
8
BLACK
6
CONTINUOUS
10
116.804
20
-93.6341
11
116.804
21
-93.634
0
LINE
8
BLACK
6
CONTINUOUS
10
116.804
20
-93.634
11
116.801
21
-93.6304
0
LINE
8
BLACK
6
CONTINUOUS
10
116.801
20
-93.6304
11
116.798
21
-93.6267
0
LINE
8
BLACK
6
CONTINUOUS
10
116.798
20
-93.6267
11
116.798
21
-93.6265
0
LINE
8
BLACK
6
CONTINUOUS
10
116.798
20
-93.6265
11
116.798
21
-93.6264
0
LINE
8
BLACK
6
CONTINUOUS
10
116.798
20
-93.6264
11
116.796
21
-93.6223
0
LINE
8
BLACK
6
CONTINUOUS
10
116.796
20
-93.6223
11
116.794
21
-93.6181
0
LINE
8
BLACK
6
CONTINUOUS
10
116.794
20
-93.6181
11
116.794
21
-93.6179
0
LINE
8
BLACK
6
CONTINUOUS
10
116.794
20
-93.6179
11
116.794
21
-93.6177
0
LINE
8
BLACK
6
CONTINUOUS
10
116.794
20
-93.6177
11
116.792
21
-93.6133
0
LINE
8
BLACK
6
CONTINUOUS
10
116.792
20
-93.6133
11
116.791
21
-93.6087
0
LINE
8
BLACK
6
CONTINUOUS
10
116.791
20
-93.6087
11
116.791
21
-93.6085
0
LINE
8
BLACK
6
CONTINUOUS
10
116.791
20
-93.6085
11
116.791
21
-93.6084
0
LINE
8
BLACK
6
CONTINUOUS
10
116.791
20
-93.6084
11
116.79
21
-93.6037
0
LINE
8
BLACK
6
CONTINUOUS
10
116.79
20
-93.6037
11
116.79
21
-93.599
0
LINE
8
BLACK
6
CONTINUOUS
10
116.79
20
-93.599
11
116.79
21
-93.014
0
LINE
8
BLACK
6
CONTINUOUS
10
116.79
20
-93.014
11
116.205
21
-93.014
0
LINE
8
BLACK
6
CONTINUOUS
10
116.205
20
-93.014
11
116.205
21
-93.014
0
LINE
8
BLACK
6
CONTINUOUS
10
116.205
20
-93.014
11
116.205
21
-93.014
0
LINE
8
BLACK
6
CONTINUOUS
10
116.205
20
-93.014
11
116.205
21
-93.014
0
LINE
8
BLACK
6
CONTINUOUS
10
116.205
20
-93.014
11
116.204
21
-93.014
0
LINE
8
BLACK
6
CONTINUOUS
10
116.204
20
-93.014
11
116.2
21
-93.0135
0
LINE
8
BLACK
6
CONTINUOUS
10
116.2
20
-93.0135
11
116.195
21
-93.013
0
LINE
8
BLACK
6
CONTINUOUS
10
116.195
20
-93.013
11
116.195
21
-93.0129
0
LINE
8
BLACK
6
CONTINUOUS
10
116.195
20
-93.0129
11
116.195
21
-93.0129
0
LINE
8
BLACK
6
CONTINUOUS
10
116.195
20
-93.0129
11
116.19
21
-93.0115
0
LINE
8
BLACK
6
CONTINUOUS
10
116.19
20
-93.0115
11
116.186
21
-93.0101
0
LINE
8
BLACK
6
CONTINUOUS
10
116.186
20
-93.0101
11
116.185
21
-93.01
0
LINE
8
BLACK
6
CONTINUOUS
10
116.185
20
-93.01
11
116.185
21
-93.01
0
LINE
8
BLACK
6
CONTINUOUS
10
116.185
20
-93.01
11
116.181
21
-93.0077
0
LINE
8
BLACK
6
CONTINUOUS
10
116.181
20
-93.0077
11
116.177
21
-93.0055
0
LINE
8
BLACK
6
CONTINUOUS
10
116.177
20
-93.0055
11
116.177
21
-93.0053
0
LINE
8
BLACK
6
CONTINUOUS
10
116.177
20
-93.0053
11
116.177
21
-93.0053
0
LINE
8
BLACK
6
CONTINUOUS
10
116.177
20
-93.0053
11
116.173
21
-93.0023
0
LINE
8
BLACK
6
CONTINUOUS
10
116.173
20
-93.0023
11
116.17
21
-92.9992
0
LINE
8
BLACK
6
CONTINUOUS
10
116.17
20
-92.9992
11
116.169
21
-92.9991
0
LINE
8
BLACK
6
CONTINUOUS
10
116.169
20
-92.9991
11
116.169
21
-92.999
0
LINE
8
BLACK
6
CONTINUOUS
10
116.169
20
-92.999
11
116.166
21
-92.9954
0
LINE
8
BLACK
6
CONTINUOUS
10
116.166
20
-92.9954
11
116.163
21
-92.9917
0
LINE
8
BLACK
6
CONTINUOUS
10
116.163
20
-92.9917
11
116.163
21
-92.9915
0
LINE
8
BLACK
6
CONTINUOUS
10
116.163
20
-92.9915
11
116.163
21
-92.9914
0
LINE
8
BLACK
6
CONTINUOUS
10
116.163
20
-92.9914
11
116.161
21
-92.9873
0
LINE
8
BLACK
6
CONTINUOUS
10
116.161
20
-92.9873
11
116.159
21
-92.9831
0
LINE
8
BLACK
6
CONTINUOUS
10
116.159
20
-92.9831
11
116.159
21
-92.9829
0
LINE
8
BLACK
6
CONTINUOUS
10
116.159
20
-92.9829
11
116.159
21
-92.9827
0
LINE
8
BLACK
6
CONTINUOUS
10
116.159
20
-92.9827
11
116.157
21
-92.9783
0
LINE
8
BLACK
6
CONTINUOUS
10
116.157
20
-92.9783
11
116.156
21
-92.9737
0
LINE
8
BLACK
6
CONTINUOUS
10
116.156
20
-92.9737
11
116.156
21
-92.9735
0
LINE
8
BLACK
6
CONTINUOUS
10
116.156
20
-92.9735
11
116.156
21
-92.9734
0
LINE
8
BLACK
6
CONTINUOUS
10
116.156
20
-92.9734
11
116.155
21
-92.9687
0
LINE
8
BLACK
6
CONTINUOUS
10
116.155
20
-92.9687
11
116.155
21
-92.964
0
LINE
8
BLACK
6
CONTINUOUS
10
116.155
20
-92.964
11
116.155
21
-92.329
0
LINE
8
BLACK
6
CONTINUOUS
10
116.155
20
-92.329
11
116.155
21
-92.3287
0
LINE
8
BLACK
6
CONTINUOUS
10
116.155
20
-92.3287
11
116.155
21
-92.3287
0
LINE
8
BLACK
6
CONTINUOUS
10
116.155
20
-92.3287
11
116.155
21
-92.3286
0
LINE
8
BLACK
6
CONTINUOUS
10
116.155
20
-92.3286
11
116.155
21
-92.3283
0
LINE
8
BLACK
6
CONTINUOUS
10
116.155
20
-92.3283
11
116.156
21
-92.3237
0
LINE
8
BLACK
6
CONTINUOUS
10
116.156
20
-92.3237
11
116.156
21
-92.3189
0
LINE
8
BLACK
6
CONTINUOUS
10
116.156
20
-92.3189
11
116.156
21
-92.3188
0
LINE
8
BLACK
6
CONTINUOUS
10
116.156
20
-92.3188
11
116.156
21
-92.3186
0
LINE
8
BLACK
6
CONTINUOUS
10
116.156
20
-92.3186
11
116.158
21
-92.3141
0
LINE
8
BLACK
6
CONTINUOUS
10
116.158
20
-92.3141
11
116.159
21
-92.3096
0
LINE
8
BLACK
6
CONTINUOUS
10
116.159
20
-92.3096
11
116.159
21
-92.3095
0
LINE
8
BLACK
6
CONTINUOUS
10
116.159
20
-92.3095
11
116.159
21
-92.3093
0
LINE
8
BLACK
6
CONTINUOUS
10
116.159
20
-92.3093
11
116.161
21
-92.3052
0
LINE
8
BLACK
6
CONTINUOUS
10
116.161
20
-92.3052
11
116.164
21
-92.301
0
LINE
8
BLACK
6
CONTINUOUS
10
116.164
20
-92.301
11
116.164
21
-92.3009
0
LINE
8
BLACK
6
CONTINUOUS
10
116.164
20
-92.3009
11
116.164
21
-92.3008
0
LINE
8
BLACK
6
CONTINUOUS
10
116.164
20
-92.3008
11
116.167
21
-92.2972
0
LINE
8
BLACK
6
CONTINUOUS
10
116.167
20
-92.2972
11
116.17
21
-92.2935
0
LINE
8
BLACK
6
CONTINUOUS
10
116.17
20
-92.2935
11
116.17
21
-92.2934
0
LINE
8
BLACK
6
CONTINUOUS
10
116.17
20
-92.2934
11
116.17
21
-92.2933
0
LINE
8
BLACK
6
CONTINUOUS
10
116.17
20
-92.2933
11
116.174
21
-92.2904
0
LINE
8
BLACK
6
CONTINUOUS
10
116.174
20
-92.2904
11
116.177
21
-92.2874
0
LINE
8
BLACK
6
CONTINUOUS
10
116.177
20
-92.2874
11
116.177
21
-92.2873
0
LINE
8
BLACK
6
CONTINUOUS
10
116.177
20
-92.2873
11
116.178
21
-92.2872
0
LINE
8
BLACK
6
CONTINUOUS
10
116.178
20
-92.2872
11
116.182
21
-92.285
0
LINE
8
BLACK
6
CONTINUOUS
10
116.182
20
-92.285
11
116.186
21
-92.2828
0
LINE
8
BLACK
6
CONTINUOUS
10
116.186
20
-92.2828
11
116.186
21
-92.2827
0
LINE
8
BLACK
6
CONTINUOUS
10
116.186
20
-92.2827
11
116.186
21
-92.2826
0
LINE
8
BLACK
6
CONTINUOUS
10
116.186
20
-92.2826
11
116.191
21
-92.2813
0
LINE
8
BLACK
6
CONTINUOUS
10
116.191
20
-92.2813
11
116.195
21
-92.28
0
LINE
8
BLACK
6
CONTINUOUS
10
116.195
20
-92.28
11
116.195
21
-92.2799
0
LINE
8
BLACK
6
CONTINUOUS
10
116.195
20
-92.2799
11
116.196
21
-92.2799
0
LINE
8
BLACK
6
CONTINUOUS
10
116.196
20
-92.2799
11
116.2
21
-92.2795
0
LINE
8
BLACK
6
CONTINUOUS
10
116.2
20
-92.2795
11
116.205
21
-92.279
0
LINE
8
BLACK
6
CONTINUOUS
10
116.205
20
-92.279
11
117.425
21
-92.279
0
LINE
8
BLACK
6
CONTINUOUS
10
117.425
20
-92.279
11
117.425
21
-91.694
0
LINE
8
BLACK
6
CONTINUOUS
10
117.425
20
-91.694
11
117.425
21
-91.6937
0
LINE
8
BLACK
6
CONTINUOUS
10
117.425
20
-91.6937
11
117.425
21
-91.6937
0
LINE
8
BLACK
6
CONTINUOUS
10
117.425
20
-91.6937
11
117.425
21
-91.6936
0
LINE
8
BLACK
6
CONTINUOUS
10
117.425
20
-91.6936
11
117.425
21
-91.6933
0
LINE
8
BLACK
6
CONTINUOUS
10
117.425
20
-91.6933
11
117.426
21
-91.6887
0
LINE
8
BLACK
6
CONTINUOUS
10
117.426
20
-91.6887
11
117.426
21
-91.6839
0
LINE
8
BLACK
6
CONTINUOUS
10
117.426
20
-91.6839
11
117.426
21
-91.6838
0
LINE
8
BLACK
6
CONTINUOUS
10
117.426
20
-91.6838
11
117.426
21
-91.6836
0
LINE
8
BLACK
6
CONTINUOUS
10
117.426
20
-91.6836
11
117.428
21
-91.6791
0
LINE
8
BLACK
6
CONTINUOUS
10
117.428
20
-91.6791
11
117.429
21
-91.6746
0
LINE
8
BLACK
6
CONTINUOUS
10
117.429
20
-91.6746
11
117.429
21
-91.6745
0
LINE
8
BLACK
6
CONTINUOUS
10
117.429
20
-91.6745
11
117.429
21
-91.6743
0
LINE
8
BLACK
6
CONTINUOUS
10
117.429
20
-91.6743
11
117.431
21
-91.6702
0
LINE
8
BLACK
6
CONTINUOUS
10
117.431
20
-91.6702
11
117.434
21
-91.666
0
LINE
8
BLACK
6
CONTINUOUS
10
117.434
20
-91.666
11
117.434
21
-91.6659
0
LINE
8
BLACK
6
CONTINUOUS
10
117.434
20
-91.6659
11
117.434
21
-91.6658
0
LINE
8
BLACK
6
CONTINUOUS
10
117.434
20
-91.6658
11
117.437
21
-91.6622
0
LINE
8
BLACK
6
CONTINUOUS
10
117.437
20
-91.6622
11
117.44
21
-91.6585
0
LINE
8
BLACK
6
CONTINUOUS
10
117.44
20
-91.6585
11
117.44
21
-91.6584
0
LINE
8
BLACK
6
CONTINUOUS
10
117.44
20
-91.6584
11
117.44
21
-91.6583
0
LINE
8
BLACK
6
CONTINUOUS
10
117.44
20
-91.6583
11
117.444
21
-91.6554
0
LINE
8
BLACK
6
CONTINUOUS
10
117.444
20
-91.6554
11
117.447
21
-91.6524
0
LINE
8
BLACK
6
CONTINUOUS
10
117.447
20
-91.6524
11
117.447
21
-91.6523
0
LINE
8
BLACK
6
CONTINUOUS
10
117.447
20
-91.6523
11
117.448
21
-91.6522
0
LINE
8
BLACK
6
CONTINUOUS
10
117.448
20
-91.6522
11
117.452
21
-91.65
0
LINE
8
BLACK
6
CONTINUOUS
10
117.452
20
-91.65
11
117.456
21
-91.6478
0
LINE
8
BLACK
6
CONTINUOUS
10
117.456
20
-91.6478
11
117.456
21
-91.6477
0
LINE
8
BLACK
6
CONTINUOUS
10
117.456
20
-91.6477
11
117.456
21
-91.6476
0
LINE
8
BLACK
6
CONTINUOUS
10
117.456
20
-91.6476
11
117.461
21
-91.6463
0
LINE
8
BLACK
6
CONTINUOUS
10
117.461
20
-91.6463
11
117.465
21
-91.645
0
LINE
8
BLACK
6
CONTINUOUS
10
117.465
20
-91.645
11
117.465
21
-91.6449
0
LINE
8
BLACK
6
CONTINUOUS
10
117.465
20
-91.6449
11
117.466
21
-91.6449
0
LINE
8
BLACK
6
CONTINUOUS
10
117.466
20
-91.6449
11
117.47
21
-91.6445
0
LINE
8
BLACK
6
CONTINUOUS
10
117.47
20
-91.6445
11
117.475
21
-91.644
0
LINE
8
BLACK
6
CONTINUOUS
10
117.475
20
-91.644
11
118.11
21
-91.644
0
LINE
8
BLACK
6
CONTINUOUS
10
118.11
20
-91.644
11
118.11
21
-91.644
0
LINE
8
BLACK
6
CONTINUOUS
10
118.11
20
-91.644
11
118.11
21
-91.644
0
LINE
8
BLACK
6
CONTINUOUS
10
118.11
20
-91.644
11
118.11
21
-91.644
0
LINE
8
BLACK
6
CONTINUOUS
10
118.11
20
-91.644
11
118.111
21
-91.644
0
LINE
8
BLACK
6
CONTINUOUS
10
118.111
20
-91.644
11
118.115
21
-91.6445
0
LINE
8
BLACK
6
CONTINUOUS
10
118.115
20
-91.6445
11
118.12
21
-91.645
0
LINE
8
BLACK
6
CONTINUOUS
10
118.12
20
-91.645
11
118.12
21
-91.6451
0
LINE
8
BLACK
6
CONTINUOUS
10
118.12
20
-91.6451
11
118.12
21
-91.6451
0
LINE
8
BLACK
6
CONTINUOUS
10
118.12
20
-91.6451
11
118.125
21
-91.6465
0
LINE
8
BLACK
6
CONTINUOUS
10
118.125
20
-91.6465
11
118.129
21
-91.6479
0
LINE
8
BLACK
6
CONTINUOUS
10
118.129
20
-91.6479
11
118.13
21
-91.648
0
LINE
8
BLACK
6
CONTINUOUS
10
118.13
20
-91.648
11
118.13
21
-91.648
0
LINE
8
BLACK
6
CONTINUOUS
10
118.13
20
-91.648
11
118.134
21
-91.6503
0
LINE
8
BLACK
6
CONTINUOUS
10
118.134
20
-91.6503
11
118.138
21
-91.6525
0
LINE
8
BLACK
6
CONTINUOUS
10
118.138
20
-91.6525
11
118.138
21
-91.6527
0
LINE
8
BLACK
6
CONTINUOUS
10
118.138
20
-91.6527
11
118.138
21
-91.6527
0
LINE
8
BLACK
6
CONTINUOUS
10
118.138
20
-91.6527
11
118.142
21
-91.6557
0
LINE
8
BLACK
6
CONTINUOUS
10
118.142
20
-91.6557
11
118.145
21
-91.6588
0
LINE
8
BLACK
6
CONTINUOUS
10
118.145
20
-91.6588
11
118.146
21
-91.6589
0
LINE
8
BLACK
6
CONTINUOUS
10
118.146
20
-91.6589
11
118.146
21
-91.659
0
LINE
8
BLACK
6
CONTINUOUS
10
118.146
20
-91.659
11
118.149
21
-91.6626
0
LINE
8
BLACK
6
CONTINUOUS
10
118.149
20
-91.6626
11
118.152
21
-91.6663
0
LINE
8
BLACK
6
CONTINUOUS
10
118.152
20
-91.6663
11
118.152
21
-91.6665
0
LINE
8
BLACK
6
CONTINUOUS
10
118.152
20
-91.6665
11
118.152
21
-91.6666
0
LINE
8
BLACK
6
CONTINUOUS
10
118.152
20
-91.6666
11
118.154
21
-91.6707
0
LINE
8
BLACK
6
CONTINUOUS
10
118.154
20
-91.6707
11
118.156
21
-91.6749
0
LINE
8
BLACK
6
CONTINUOUS
10
118.156
20
-91.6749
11
118.156
21
-91.6751
0
LINE
8
BLACK
6
CONTINUOUS
10
118.156
20
-91.6751
11
118.156
21
-91.6753
0
LINE
8
BLACK
6
CONTINUOUS
10
118.156
20
-91.6753
11
118.158
21
-91.6797
0
LINE
8
BLACK
6
CONTINUOUS
10
118.158
20
-91.6797
11
118.159
21
-91.6843
0
LINE
8
BLACK
6
CONTINUOUS
10
118.159
20
-91.6843
11
118.159
21
-91.6845
0
LINE
8
BLACK
6
CONTINUOUS
10
118.159
20
-91.6845
11
118.159
21
-91.6846
0
LINE
8
BLACK
6
CONTINUOUS
10
118.159
20
-91.6846
11
118.16
21
-91.6893
0
LINE
8
BLACK
6
CONTINUOUS
10
118.16
20
-91.6893
11
118.16
21
-91.694
0
LINE
8
BLACK
6
CONTINUOUS
10
118.16
20
-91.694
11
118.16
21
-92.279
0
LINE
8
BLACK
6
CONTINUOUS
10
118.16
20
-92.279
11
118.695
21
-92.279
0
LINE
8
BLACK
6
CONTINUOUS
10
118.695
20
-92.279
11
118.695
21
-91.694
0
LINE
8
BLACK
6
CONTINUOUS
10
118.695
20
-91.694
11
118.695
21
-91.6937
0
LINE
8
BLACK
6
CONTINUOUS
10
118.695
20
-91.6937
11
118.695
21
-91.6937
0
LINE
8
BLACK
6
CONTINUOUS
10
118.695
20
-91.6937
11
118.695
21
-91.6936
0
LINE
8
BLACK
6
CONTINUOUS
10
118.695
20
-91.6936
11
118.695
21
-91.6933
0
LINE
8
BLACK
6
CONTINUOUS
10
118.695
20
-91.6933
11
118.696
21
-91.6887
0
LINE
8
BLACK
6
CONTINUOUS
10
118.696
20
-91.6887
11
118.696
21
-91.6839
0
LINE
8
BLACK
6
CONTINUOUS
10
118.696
20
-91.6839
11
118.696
21
-91.6838
0
LINE
8
BLACK
6
CONTINUOUS
10
118.696
20
-91.6838
11
118.696
21
-91.6836
0
LINE
8
BLACK
6
CONTINUOUS
10
118.696
20
-91.6836
11
118.698
21
-91.6791
0
LINE
8
BLACK
6
CONTINUOUS
10
118.698
20
-91.6791
11
118.699
21
-91.6746
0
LINE
8
BLACK
6
CONTINUOUS
10
118.699
20
-91.6746
11
118.699
21
-91.6745
0
LINE
8
BLACK
6
CONTINUOUS
10
118.699
20
-91.6745
11
118.699
21
-91.6743
0
LINE
8
BLACK
6
CONTINUOUS
10
118.699
20
-91.6743
11
118.701
21
-91.6702
0
LINE
8
BLACK
6
CONTINUOUS
10
118.701
20
-91.6702
11
118.704
21
-91.666
0
LINE
8
BLACK
6
CONTINUOUS
10
118.704
20
-91.666
11
118.704
21
-91.6659
0
LINE
8
BLACK
6
CONTINUOUS
10
118.704
20
-91.6659
11
118.704
21
-91.6658
0
LINE
8
BLACK
6
CONTINUOUS
10
118.704
20
-91.6658
11
118.707
21
-91.6622
0
LINE
8
BLACK
6
CONTINUOUS
10
118.707
20
-91.6622
11
118.71
21
-91.6585
0
LINE
8
BLACK
6
CONTINUOUS
10
118.71
20
-91.6585
11
118.71
21
-91.6584
0
LINE
8
BLACK
6
CONTINUOUS
10
118.71
20
-91.6584
11
118.71
21
-91.6583
0
LINE
8
BLACK
6
CONTINUOUS
10
118.71
20
-91.6583
11
118.714
21
-91.6554
0
LINE
8
BLACK
6
CONTINUOUS
10
118.714
20
-91.6554
11
118.717
21
-91.6524
0
LINE
8
BLACK
6
CONTINUOUS
10
118.717
20
-91.6524
11
118.717
21
-91.6523
0
LINE
8
BLACK
6
CONTINUOUS
10
118.717
20
-91.6523
11
118.718
21
-91.6522
0
LINE
8
BLACK
6
CONTINUOUS
10
118.718
20
-91.6522
11
118.722
21
-91.65
0
LINE
8
BLACK
6
CONTINUOUS
10
118.722
20
-91.65
11
118.726
21
-91.6478
0
LINE
8
BLACK
6
CONTINUOUS
10
118.726
20
-91.6478
11
118.726
21
-91.6477
0
LINE
8
BLACK
6
CONTINUOUS
10
118.726
20
-91.6477
11
118.726
21
-91.6476
0
LINE
8
BLACK
6
CONTINUOUS
10
118.726
20
-91.6476
11
118.731
21
-91.6463
0
LINE
8
BLACK
6
CONTINUOUS
10
118.731
20
-91.6463
11
118.735
21
-91.645
0
LINE
8
BLACK
6
CONTINUOUS
10
118.735
20
-91.645
11
118.735
21
-91.6449
0
LINE
8
BLACK
6
CONTINUOUS
10
118.735
20
-91.6449
11
118.736
21
-91.6449
0
LINE
8
BLACK
6
CONTINUOUS
10
118.736
20
-91.6449
11
118.74
21
-91.6445
0
LINE
8
BLACK
6
CONTINUOUS
10
118.74
20
-91.6445
11
118.745
21
-91.644
0
LINE
8
BLACK
6
CONTINUOUS
10
118.745
20
-91.644
11
119.38
21
-91.644
0
LINE
8
BLACK
6
CONTINUOUS
10
119.38
20
-91.644
11
119.38
21
-91.644
0
LINE
8
BLACK
6
CONTINUOUS
10
119.38
20
-91.644
11
119.38
21
-91.644
0
LINE
8
BLACK
6
CONTINUOUS
10
119.38
20
-91.644
11
119.38
21
-91.644
0
LINE
8
BLACK
6
CONTINUOUS
10
119.38
20
-91.644
11
119.381
21
-91.644
0
LINE
8
BLACK
6
CONTINUOUS
10
119.381
20
-91.644
11
119.385
21
-91.6445
0
LINE
8
BLACK
6
CONTINUOUS
10
119.385
20
-91.6445
11
119.39
21
-91.645
0
LINE
8
BLACK
6
CONTINUOUS
10
119.39
20
-91.645
11
119.39
21
-91.6451
0
LINE
8
BLACK
6
CONTINUOUS
10
119.39
20
-91.6451
11
119.39
21
-91.6451
0
LINE
8
BLACK
6
CONTINUOUS
10
119.39
20
-91.6451
11
119.395
21
-91.6465
0
LINE
8
BLACK
6
CONTINUOUS
10
119.395
20
-91.6465
11
119.399
21
-91.6479
0
LINE
8
BLACK
6
CONTINUOUS
10
119.399
20
-91.6479
11
119.4
21
-91.648
0
LINE
8
BLACK
6
CONTINUOUS
10
119.4
20
-91.648
11
119.4
21
-91.648
0
LINE
8
BLACK
6
CONTINUOUS
10
119.4
20
-91.648
11
119.404
21
-91.6503
0
LINE
8
BLACK
6
CONTINUOUS
10
119.404
20
-91.6503
11
119.408
21
-91.6525
0
LINE
8
BLACK
6
CONTINUOUS
10
119.408
20
-91.6525
11
119.408
21
-91.6527
0
LINE
8
BLACK
6
CONTINUOUS
10
119.408
20
-91.6527
11
119.408
21
-91.6527
0
LINE
8
BLACK
6
CONTINUOUS
10
119.408
20
-91.6527
11
119.412
21
-91.6557
0
LINE
8
BLACK
6
CONTINUOUS
10
119.412
20
-91.6557
11
119.415
21
-91.6588
0
LINE
8
BLACK
6
CONTINUOUS
10
119.415
20
-91.6588
11
119.416
21
-91.6589
0
LINE
8
BLACK
6
CONTINUOUS
10
119.416
20
-91.6589
11
119.416
21
-91.659
0
LINE
8
BLACK
6
CONTINUOUS
10
119.416
20
-91.659
11
119.419
21
-91.6626
0
LINE
8
BLACK
6
CONTINUOUS
10
119.419
20
-91.6626
11
119.422
21
-91.6663
0
LINE
8
BLACK
6
CONTINUOUS
10
119.422
20
-91.6663
11
119.422
21
-91.6665
0
LINE
8
BLACK
6
CONTINUOUS
10
119.422
20
-91.6665
11
119.422
21
-91.6666
0
LINE
8
BLACK
6
CONTINUOUS
10
119.422
20
-91.6666
11
119.424
21
-91.6707
0
LINE
8
BLACK
6
CONTINUOUS
10
119.424
20
-91.6707
11
119.426
21
-91.6749
0
LINE
8
BLACK
6
CONTINUOUS
10
119.426
20
-91.6749
11
119.426
21
-91.6751
0
LINE
8
BLACK
6
CONTINUOUS
10
119.426
20
-91.6751
11
119.426
21
-91.6753
0
LINE
8
BLACK
6
CONTINUOUS
10
119.426
20
-91.6753
11
119.428
21
-91.6797
0
LINE
8
BLACK
6
CONTINUOUS
10
119.428
20
-91.6797
11
119.429
21
-91.6843
0
LINE
8
BLACK
6
CONTINUOUS
10
119.429
20
-91.6843
11
119.429
21
-91.6845
0
LINE
8
BLACK
6
CONTINUOUS
10
119.429
20
-91.6845
11
119.429
21
-91.6846
0
LINE
8
BLACK
6
CONTINUOUS
10
119.429
20
-91.6846
11
119.43
21
-91.6893
0
LINE
8
BLACK
6
CONTINUOUS
10
119.43
20
-91.6893
11
119.43
21
-91.694
0
LINE
8
BLACK
6
CONTINUOUS
10
119.43
20
-91.694
11
119.43
21
-92.964
0
LINE
8
BLACK
6
CONTINUOUS
10
119.43
20
-92.964
11
119.43
21
-92.9643
0
LINE
8
BLACK
6
CONTINUOUS
10
117.525
20
-93.014
11
117.525
21
-93.549
0
LINE
8
BLACK
6
CONTINUOUS
10
117.525
20
-93.549
11
118.06
21
-93.549
0
LINE
8
BLACK
6
CONTINUOUS
10
118.06
20
-93.549
11
118.06
21
-93.014
0
LINE
8
BLACK
6
CONTINUOUS
10
118.06
20
-93.014
11
117.525
21
-93.014
0
LINE
8
BLACK
6
CONTINUOUS
10
120.65
20
-92.279
11
120.65
21
-92.279
0
LINE
8
BLACK
6
CONTINUOUS
10
120.65
20
-92.279
11
120.65
21
-92.279
0
LINE
8
BLACK
6
CONTINUOUS
10
120.65
20
-92.279
11
120.651
21
-92.279
0
LINE
8
BLACK
6
CONTINUOUS
10
120.651
20
-92.279
11
120.655
21
-92.2795
0
LINE
8
BLACK
6
CONTINUOUS
10
120.655
20
-92.2795
11
120.66
21
-92.28
0
LINE
8
BLACK
6
CONTINUOUS
10
120.66
20
-92.28
11
120.66
21
-92.2801
0
LINE
8
BLACK
6
CONTINUOUS
10
120.66
20
-92.2801
11
120.66
21
-92.2801
0
LINE
8
BLACK
6
CONTINUOUS
10
120.66
20
-92.2801
11
120.665
21
-92.2815
0
LINE
8
BLACK
6
CONTINUOUS
10
120.665
20
-92.2815
11
120.669
21
-92.2829
0
LINE
8
BLACK
6
CONTINUOUS
10
120.669
20
-92.2829
11
120.67
21
-92.283
0
LINE
8
BLACK
6
CONTINUOUS
10
120.67
20
-92.283
11
120.67
21
-92.283
0
LINE
8
BLACK
6
CONTINUOUS
10
120.67
20
-92.283
11
120.674
21
-92.2853
0
LINE
8
BLACK
6
CONTINUOUS
10
120.674
20
-92.2853
11
120.678
21
-92.2875
0
LINE
8
BLACK
6
CONTINUOUS
10
120.678
20
-92.2875
11
120.678
21
-92.2877
0
LINE
8
BLACK
6
CONTINUOUS
10
120.678
20
-92.2877
11
120.678
21
-92.2877
0
LINE
8
BLACK
6
CONTINUOUS
10
120.678
20
-92.2877
11
120.682
21
-92.2907
0
LINE
8
BLACK
6
CONTINUOUS
10
120.682
20
-92.2907
11
120.685
21
-92.2938
0
LINE
8
BLACK
6
CONTINUOUS
10
120.685
20
-92.2938
11
120.686
21
-92.2939
0
LINE
8
BLACK
6
CONTINUOUS
10
120.686
20
-92.2939
11
120.686
21
-92.294
0
LINE
8
BLACK
6
CONTINUOUS
10
120.686
20
-92.294
11
120.689
21
-92.2976
0
LINE
8
BLACK
6
CONTINUOUS
10
120.689
20
-92.2976
11
120.692
21
-92.3013
0
LINE
8
BLACK
6
CONTINUOUS
10
120.692
20
-92.3013
11
120.692
21
-92.3015
0
LINE
8
BLACK
6
CONTINUOUS
10
120.692
20
-92.3015
11
120.692
21
-92.3016
0
LINE
8
BLACK
6
CONTINUOUS
10
120.692
20
-92.3016
11
120.694
21
-92.3057
0
LINE
8
BLACK
6
CONTINUOUS
10
120.694
20
-92.3057
11
120.696
21
-92.3099
0
LINE
8
BLACK
6
CONTINUOUS
10
120.696
20
-92.3099
11
120.696
21
-92.3101
0
LINE
8
BLACK
6
CONTINUOUS
10
120.696
20
-92.3101
11
120.696
21
-92.3103
0
LINE
8
BLACK
6
CONTINUOUS
10
120.696
20
-92.3103
11
120.698
21
-92.3147
0
LINE
8
BLACK
6
CONTINUOUS
10
120.698
20
-92.3147
11
120.699
21
-92.3193
0
LINE
8
BLACK
6
CONTINUOUS
10
120.699
20
-92.3193
11
120.699
21
-92.3195
0
LINE
8
BLACK
6
CONTINUOUS
10
120.699
20
-92.3195
11
120.699
21
-92.3196
0
LINE
8
BLACK
6
CONTINUOUS
10
120.699
20
-92.3196
11
120.7
21
-92.3243
0
LINE
8
BLACK
6
CONTINUOUS
10
120.7
20
-92.3243
11
120.7
21
-92.329
0
LINE
8
BLACK
6
CONTINUOUS
10
120.7
20
-92.329
11
120.7
21
-92.964
0
LINE
8
BLACK
6
CONTINUOUS
10
120.7
20
-92.964
11
120.7
21
-92.9643
0
LINE
8
BLACK
6
CONTINUOUS
10
120.7
20
-92.9643
11
120.7
21
-92.9643
0
LINE
8
BLACK
6
CONTINUOUS
10
120.7
20
-92.9643
11
120.7
21
-92.9644
0
LINE
8
BLACK
6
CONTINUOUS
10
120.7
20
-92.9644
11
120.7
21
-92.9647
0
LINE
8
BLACK
6
CONTINUOUS
10
120.7
20
-92.9647
11
120.699
21
-92.9693
0
LINE
8
BLACK
6
CONTINUOUS
10
120.699
20
-92.9693
11
120.699
21
-92.9741
0
LINE
8
BLACK
6
CONTINUOUS
10
120.699
20
-92.9741
11
120.699
21
-92.9742
0
LINE
8
BLACK
6
CONTINUOUS
10
120.699
20
-92.9742
11
120.699
21
-92.9744
0
LINE
8
BLACK
6
CONTINUOUS
10
120.699
20
-92.9744
11
120.697
21
-92.9789
0
LINE
8
BLACK
6
CONTINUOUS
10
120.697
20
-92.9789
11
120.696
21
-92.9834
0
LINE
8
BLACK
6
CONTINUOUS
10
120.696
20
-92.9834
11
120.696
21
-92.9835
0
LINE
8
BLACK
6
CONTINUOUS
10
120.696
20
-92.9835
11
120.696
21
-92.9837
0
LINE
8
BLACK
6
CONTINUOUS
10
120.696
20
-92.9837
11
120.694
21
-92.9878
0
LINE
8
BLACK
6
CONTINUOUS
10
120.694
20
-92.9878
11
120.691
21
-92.992
0
LINE
8
BLACK
6
CONTINUOUS
10
120.691
20
-92.992
11
120.691
21
-92.9921
0
LINE
8
BLACK
6
CONTINUOUS
10
120.691
20
-92.9921
11
120.691
21
-92.9922
0
LINE
8
BLACK
6
CONTINUOUS
10
120.691
20
-92.9922
11
120.688
21
-92.9958
0
LINE
8
BLACK
6
CONTINUOUS
10
120.688
20
-92.9958
11
120.685
21
-92.9995
0
LINE
8
BLACK
6
CONTINUOUS
10
120.685
20
-92.9995
11
120.685
21
-92.9996
0
LINE
8
BLACK
6
CONTINUOUS
10
120.685
20
-92.9996
11
120.685
21
-92.9997
0
LINE
8
BLACK
6
CONTINUOUS
10
120.685
20
-92.9997
11
120.681
21
-93.0026
0
LINE
8
BLACK
6
CONTINUOUS
10
120.681
20
-93.0026
11
120.678
21
-93.0056
0
LINE
8
BLACK
6
CONTINUOUS
10
120.678
20
-93.0056
11
120.678
21
-93.0057
0
LINE
8
BLACK
6
CONTINUOUS
10
120.678
20
-93.0057
11
120.677
21
-93.0058
0
LINE
8
BLACK
6
CONTINUOUS
10
120.677
20
-93.0058
11
120.673
21
-93.008
0
LINE
8
BLACK
6
CONTINUOUS
10
120.673
20
-93.008
11
120.669
21
-93.0102
0
LINE
8
BLACK
6
CONTINUOUS
10
120.669
20
-93.0102
11
120.669
21
-93.0103
0
LINE
8
BLACK
6
CONTINUOUS
10
120.669
20
-93.0103
11
120.669
21
-93.0104
0
LINE
8
BLACK
6
CONTINUOUS
10
120.669
20
-93.0104
11
120.664
21
-93.0117
0
LINE
8
BLACK
6
CONTINUOUS
10
120.664
20
-93.0117
11
120.66
21
-93.013
0
LINE
8
BLACK
6
CONTINUOUS
10
120.66
20
-93.013
11
120.66
21
-93.0131
0
LINE
8
BLACK
6
CONTINUOUS
10
120.66
20
-93.0131
11
120.659
21
-93.0131
0
LINE
8
BLACK
6
CONTINUOUS
10
120.659
20
-93.0131
11
120.655
21
-93.0135
0
LINE
8
BLACK
6
CONTINUOUS
10
120.655
20
-93.0135
11
120.65
21
-93.014
0
LINE
8
BLACK
6
CONTINUOUS
10
120.65
20
-93.014
11
120.015
21
-93.014
0
LINE
8
BLACK
6
CONTINUOUS
10
120.015
20
-93.014
11
120.015
21
-93.014
0
LINE
8
BLACK
6
CONTINUOUS
10
120.015
20
-93.014
11
120.015
21
-93.014
0
LINE
8
BLACK
6
CONTINUOUS
10
120.015
20
-93.014
11
120.015
21
-93.014
0
LINE
8
BLACK
6
CONTINUOUS
10
120.015
20
-93.014
11
120.014
21
-93.014
0
LINE
8
BLACK
6
CONTINUOUS
10
120.014
20
-93.014
11
120.01
21
-93.0135
0
LINE
8
BLACK
6
CONTINUOUS
10
120.01
20
-93.0135
11
120.005
21
-93.013
0
LINE
8
BLACK
6
CONTINUOUS
10
120.005
20
-93.013
11
120.005
21
-93.0129
0
LINE
8
BLACK
6
CONTINUOUS
10
120.005
20
-93.0129
11
120.005
21
-93.0129
0
LINE
8
BLACK
6
CONTINUOUS
10
120.005
20
-93.0129
11
120
21
-93.0115
0
LINE
8
BLACK
6
CONTINUOUS
10
120
20
-93.0115
11
119.996
21
-93.0101
0
LINE
8
BLACK
6
CONTINUOUS
10
119.996
20
-93.0101
11
119.995
21
-93.01
0
LINE
8
BLACK
6
CONTINUOUS
10
119.995
20
-93.01
11
119.995
21
-93.01
0
LINE
8
BLACK
6
CONTINUOUS
10
119.995
20
-93.01
11
119.991
21
-93.0077
0
LINE
8
BLACK
6
CONTINUOUS
10
119.991
20
-93.0077
11
119.987
21
-93.0055
0
LINE
8
BLACK
6
CONTINUOUS
10
119.987
20
-93.0055
11
119.987
21
-93.0053
0
LINE
8
BLACK
6
CONTINUOUS
10
119.987
20
-93.0053
11
119.987
21
-93.0053
0
LINE
8
BLACK
6
CONTINUOUS
10
119.987
20
-93.0053
11
119.983
21
-93.0023
0
LINE
8
BLACK
6
CONTINUOUS
10
119.983
20
-93.0023
11
119.98
21
-92.9992
0
LINE
8
BLACK
6
CONTINUOUS
10
119.98
20
-92.9992
11
119.979
21
-92.9991
0
LINE
8
BLACK
6
CONTINUOUS
10
119.979
20
-92.9991
11
119.979
21
-92.999
0
LINE
8
BLACK
6
CONTINUOUS
10
119.979
20
-92.999
11
119.976
21
-92.9954
0
LINE
8
BLACK
6
CONTINUOUS
10
119.976
20
-92.9954
11
119.973
21
-92.9917
0
LINE
8
BLACK
6
CONTINUOUS
10
119.973
20
-92.9917
11
119.973
21
-92.9915
0
LINE
8
BLACK
6
CONTINUOUS
10
119.973
20
-92.9915
11
119.973
21
-92.9914
0
LINE
8
BLACK
6
CONTINUOUS
10
119.973
20
-92.9914
11
119.971
21
-92.9873
0
LINE
8
BLACK
6
CONTINUOUS
10
119.971
20
-92.9873
11
119.969
21
-92.9831
0
LINE
8
BLACK
6
CONTINUOUS
10
119.969
20
-92.9831
11
119.969
21
-92.9829
0
LINE
8
BLACK
6
CONTINUOUS
10
119.969
20
-92.9829
11
119.969
21
-92.9827
0
LINE
8
BLACK
6
CONTINUOUS
10
119.969
20
-92.9827
11
119.967
21
-92.9783
0
LINE
8
BLACK
6
CONTINUOUS
10
119.967
20
-92.9783
11
119.966
21
-92.9737
0
LINE
8
BLACK
6
CONTINUOUS
10
119.966
20
-92.9737
11
119.966
21
-92.9735
0
LINE
8
BLACK
6
CONTINUOUS
10
119.966
20
-92.9735
11
119.966
21
-92.9734
0
LINE
8
BLACK
6
CONTINUOUS
10
119.966
20
-92.9734
11
119.965
21
-92.9687
0
LINE
8
BLACK
6
CONTINUOUS
10
119.965
20
-92.9687
11
119.965
21
-92.964
0
LINE
8
BLACK
6
CONTINUOUS
10
119.965
20
-92.964
11
119.965
21
-92.329
0
LINE
8
BLACK
6
CONTINUOUS
10
119.965
20
-92.329
11
119.965
21
-92.3287
0
LINE
8
BLACK
6
CONTINUOUS
10
119.965
20
-92.3287
11
119.965
21
-92.3287
0
LINE
8
BLACK
6
CONTINUOUS
10
119.965
20
-92.3287
11
119.965
21
-92.3286
0
LINE
8
BLACK
6
CONTINUOUS
10
119.965
20
-92.3286
11
119.965
21
-92.3283
0
LINE
8
BLACK
6
CONTINUOUS
10
119.965
20
-92.3283
11
119.966
21
-92.3237
0
LINE
8
BLACK
6
CONTINUOUS
10
119.966
20
-92.3237
11
119.966
21
-92.3189
0
LINE
8
BLACK
6
CONTINUOUS
10
119.966
20
-92.3189
11
119.966
21
-92.3188
0
LINE
8
BLACK
6
CONTINUOUS
10
119.966
20
-92.3188
11
119.966
21
-92.3186
0
LINE
8
BLACK
6
CONTINUOUS
10
119.966
20
-92.3186
11
119.968
21
-92.3141
0
LINE
8
BLACK
6
CONTINUOUS
10
119.968
20
-92.3141
11
119.969
21
-92.3096
0
LINE
8
BLACK
6
CONTINUOUS
10
119.969
20
-92.3096
11
119.969
21
-92.3095
0
LINE
8
BLACK
6
CONTINUOUS
10
119.969
20
-92.3095
11
119.969
21
-92.3093
0
LINE
8
BLACK
6
CONTINUOUS
10
119.969
20
-92.3093
11
119.971
21
-92.3052
0
LINE
8
BLACK
6
CONTINUOUS
10
119.971
20
-92.3052
11
119.974
21
-92.301
0
LINE
8
BLACK
6
CONTINUOUS
10
119.974
20
-92.301
11
119.974
21
-92.3009
0
LINE
8
BLACK
6
CONTINUOUS
10
119.974
20
-92.3009
11
119.974
21
-92.3008
0
LINE
8
BLACK
6
CONTINUOUS
10
119.974
20
-92.3008
11
119.977
21
-92.2972
0
LINE
8
BLACK
6
CONTINUOUS
10
119.977
20
-92.2972
11
119.98
21
-92.2935
0
LINE
8
BLACK
6
CONTINUOUS
10
119.98
20
-92.2935
11
119.98
21
-92.2934
0
LINE
8
BLACK
6
CONTINUOUS
10
119.98
20
-92.2934
11
119.98
21
-92.2933
0
LINE
8
BLACK
6
CONTINUOUS
10
119.98
20
-92.2933
11
119.984
21
-92.2904
0
LINE
8
BLACK
6
CONTINUOUS
10
119.984
20
-92.2904
11
119.987
21
-92.2874
0
LINE
8
BLACK
6
CONTINUOUS
10
119.987
20
-92.2874
11
119.987
21
-92.2873
0
LINE
8
BLACK
6
CONTINUOUS
10
119.987
20
-92.2873
11
119.988
21
-92.2872
0
LINE
8
BLACK
6
CONTINUOUS
10
119.988
20
-92.2872
11
119.992
21
-92.285
0
LINE
8
BLACK
6
CONTINUOUS
10
119.992
20
-92.285
11
119.996
21
-92.2828
0
LINE
8
BLACK
6
CONTINUOUS
10
119.996
20
-92.2828
11
119.996
21
-92.2827
0
LINE
8
BLACK
6
CONTINUOUS
10
119.996
20
-92.2827
11
119.996
21
-92.2826
0
LINE
8
BLACK
6
CONTINUOUS
10
119.996
20
-92.2826
11
120.001
21
-92.2813
0
LINE
8
BLACK
6
CONTINUOUS
10
120.001
20
-92.2813
11
120.005
21
-92.28
0
LINE
8
BLACK
6
CONTINUOUS
10
120.005
20
-92.28
11
120.005
21
-92.2799
0
LINE
8
BLACK
6
CONTINUOUS
10
120.005
20
-92.2799
11
120.006
21
-92.2799
0
LINE
8
BLACK
6
CONTINUOUS
10
120.006
20
-92.2799
11
120.01
21
-92.2795
0
LINE
8
BLACK
6
CONTINUOUS
10
120.01
20
-92.2795
11
120.015
21
-92.279
0
LINE
8
BLACK
6
CONTINUOUS
10
120.015
20
-92.279
11
120.65
21
-92.279
0
LINE
8
BLACK
6
CONTINUOUS
10
120.65
20
-92.279
11
120.65
21
-92.279
0
LINE
8
BLACK
6
CONTINUOUS
10
139.736
20
-72.3374
11
140.154
21
-72.5108
0
LINE
8
BLACK
6
CONTINUOUS
10
140.154
20
-72.5108
11
140.531
21
-72.7625
0
LINE
8
BLACK
6
CONTINUOUS
10
140.531
20
-72.7625
11
140.852
21
-73.0828
0
LINE
8
BLACK
6
CONTINUOUS
10
140.852
20
-73.0828
11
141.103
21
-73.4595
0
LINE
8
BLACK
6
CONTINUOUS
10
141.103
20
-73.4595
11
141.277
21
-73.8781
0
LINE
8
BLACK
6
CONTINUOUS
10
141.277
20
-73.8781
11
141.365
21
-74.3225
0
LINE
8
BLACK
6
CONTINUOUS
10
141.365
20
-74.3225
11
141.365
21
-74.7755
0
LINE
8
BLACK
6
CONTINUOUS
10
141.365
20
-74.7755
11
141.277
21
-75.2199
0
LINE
8
BLACK
6
CONTINUOUS
10
141.277
20
-75.2199
11
141.103
21
-75.6385
0
LINE
8
BLACK
6
CONTINUOUS
10
141.103
20
-75.6385
11
140.852
21
-76.0152
0
LINE
8
BLACK
6
CONTINUOUS
10
140.852
20
-76.0152
11
140.531
21
-76.3355
0
LINE
8
BLACK
6
CONTINUOUS
10
140.531
20
-76.3355
11
140.154
21
-76.5872
0
LINE
8
BLACK
6
CONTINUOUS
10
140.154
20
-76.5872
11
139.736
21
-76.7606
0
LINE
8
BLACK
6
CONTINUOUS
10
139.736
20
-76.7606
11
139.292
21
-76.849
0
LINE
8
BLACK
6
CONTINUOUS
10
139.292
20
-76.849
11
138.838
21
-76.849
0
LINE
8
BLACK
6
CONTINUOUS
10
138.838
20
-76.849
11
138.394
21
-76.7606
0
LINE
8
BLACK
6
CONTINUOUS
10
138.394
20
-76.7606
11
137.976
21
-76.5872
0
LINE
8
BLACK
6
CONTINUOUS
10
137.976
20
-76.5872
11
137.599
21
-76.3355
0
LINE
8
BLACK
6
CONTINUOUS
10
137.599
20
-76.3355
11
137.278
21
-76.0152
0
LINE
8
BLACK
6
CONTINUOUS
10
137.278
20
-76.0152
11
137.027
21
-75.6385
0
LINE
8
BLACK
6
CONTINUOUS
10
137.027
20
-75.6385
11
136.853
21
-75.2199
0
LINE
8
BLACK
6
CONTINUOUS
10
136.853
20
-75.2199
11
136.765
21
-74.7755
0
LINE
8
BLACK
6
CONTINUOUS
10
136.765
20
-74.7755
11
136.765
21
-74.3225
0
LINE
8
BLACK
6
CONTINUOUS
10
136.765
20
-74.3225
11
136.853
21
-73.8781
0
LINE
8
BLACK
6
CONTINUOUS
10
136.853
20
-73.8781
11
137.027
21
-73.4595
0
LINE
8
BLACK
6
CONTINUOUS
10
137.027
20
-73.4595
11
137.278
21
-73.0828
0
LINE
8
BLACK
6
CONTINUOUS
10
137.278
20
-73.0828
11
137.599
21
-72.7625
0
LINE
8
BLACK
6
CONTINUOUS
10
137.599
20
-72.7625
11
137.976
21
-72.5108
0
LINE
8
BLACK
6
CONTINUOUS
10
137.976
20
-72.5108
11
138.394
21
-72.3374
0
LINE
8
BLACK
6
CONTINUOUS
10
138.394
20
-72.3374
11
138.838
21
-72.249
0
LINE
8
BLACK
6
CONTINUOUS
10
138.838
20
-72.249
11
139.292
21
-72.249
0
LINE
8
BLACK
6
CONTINUOUS
10
139.292
20
-72.249
11
139.736
21
-72.3374
0
LINE
8
BLACK
6
CONTINUOUS
10
127.798
20
-72.3374
11
128.216
21
-72.5108
0
LINE
8
BLACK
6
CONTINUOUS
10
128.216
20
-72.5108
11
128.593
21
-72.7625
0
LINE
8
BLACK
6
CONTINUOUS
10
128.593
20
-72.7625
11
128.914
21
-73.0828
0
LINE
8
BLACK
6
CONTINUOUS
10
128.914
20
-73.0828
11
129.165
21
-73.4595
0
LINE
8
BLACK
6
CONTINUOUS
10
129.165
20
-73.4595
11
129.339
21
-73.8781
0
LINE
8
BLACK
6
CONTINUOUS
10
129.339
20
-73.8781
11
129.427
21
-74.3225
0
LINE
8
BLACK
6
CONTINUOUS
10
129.427
20
-74.3225
11
129.427
21
-74.7755
0
LINE
8
BLACK
6
CONTINUOUS
10
129.427
20
-74.7755
11
129.339
21
-75.2199
0
LINE
8
BLACK
6
CONTINUOUS
10
129.339
20
-75.2199
11
129.165
21
-75.6385
0
LINE
8
BLACK
6
CONTINUOUS
10
129.165
20
-75.6385
11
128.914
21
-76.0152
0
LINE
8
BLACK
6
CONTINUOUS
10
128.914
20
-76.0152
11
128.593
21
-76.3355
0
LINE
8
BLACK
6
CONTINUOUS
10
128.593
20
-76.3355
11
128.216
21
-76.5872
0
LINE
8
BLACK
6
CONTINUOUS
10
128.216
20
-76.5872
11
127.798
21
-76.7606
0
LINE
8
BLACK
6
CONTINUOUS
10
127.798
20
-76.7606
11
127.354
21
-76.849
0
LINE
8
BLACK
6
CONTINUOUS
10
127.354
20
-76.849
11
126.9
21
-76.849
0
LINE
8
BLACK
6
CONTINUOUS
10
126.9
20
-76.849
11
126.456
21
-76.7606
0
LINE
8
BLACK
6
CONTINUOUS
10
126.456
20
-76.7606
11
126.038
21
-76.5872
0
LINE
8
BLACK
6
CONTINUOUS
10
126.038
20
-76.5872
11
125.661
21
-76.3355
0
LINE
8
BLACK
6
CONTINUOUS
10
125.661
20
-76.3355
11
125.34
21
-76.0152
0
LINE
8
BLACK
6
CONTINUOUS
10
125.34
20
-76.0152
11
125.089
21
-75.6385
0
LINE
8
BLACK
6
CONTINUOUS
10
125.089
20
-75.6385
11
124.915
21
-75.2199
0
LINE
8
BLACK
6
CONTINUOUS
10
124.915
20
-75.2199
11
124.827
21
-74.7755
0
LINE
8
BLACK
6
CONTINUOUS
10
124.827
20
-74.7755
11
124.827
21
-74.3225
0
LINE
8
BLACK
6
CONTINUOUS
10
124.827
20
-74.3225
11
124.915
21
-73.8781
0
LINE
8
BLACK
6
CONTINUOUS
10
124.915
20
-73.8781
11
125.089
21
-73.4595
0
LINE
8
BLACK
6
CONTINUOUS
10
125.089
20
-73.4595
11
125.34
21
-73.0828
0
LINE
8
BLACK
6
CONTINUOUS
10
125.34
20
-73.0828
11
125.661
21
-72.7625
0
LINE
8
BLACK
6
CONTINUOUS
10
125.661
20
-72.7625
11
126.038
21
-72.5108
0
LINE
8
BLACK
6
CONTINUOUS
10
126.038
20
-72.5108
11
126.456
21
-72.3374
0
LINE
8
BLACK
6
CONTINUOUS
10
126.456
20
-72.3374
11
126.9
21
-72.249
0
LINE
8
BLACK
6
CONTINUOUS
10
126.9
20
-72.249
11
127.354
21
-72.249
0
LINE
8
BLACK
6
CONTINUOUS
10
127.354
20
-72.249
11
127.798
21
-72.3374
0
LINE
8
BLACK
6
CONTINUOUS
10
115.86
20
-72.3374
11
116.278
21
-72.5108
0
LINE
8
BLACK
6
CONTINUOUS
10
116.278
20
-72.5108
11
116.655
21
-72.7625
0
LINE
8
BLACK
6
CONTINUOUS
10
116.655
20
-72.7625
11
116.976
21
-73.0828
0
LINE
8
BLACK
6
CONTINUOUS
10
116.976
20
-73.0828
11
117.227
21
-73.4595
0
LINE
8
BLACK
6
CONTINUOUS
10
117.227
20
-73.4595
11
117.401
21
-73.8781
0
LINE
8
BLACK
6
CONTINUOUS
10
117.401
20
-73.8781
11
117.489
21
-74.3225
0
LINE
8
BLACK
6
CONTINUOUS
10
117.489
20
-74.3225
11
117.489
21
-74.7755
0
LINE
8
BLACK
6
CONTINUOUS
10
117.489
20
-74.7755
11
117.401
21
-75.2199
0
LINE
8
BLACK
6
CONTINUOUS
10
117.401
20
-75.2199
11
117.227
21
-75.6385
0
LINE
8
BLACK
6
CONTINUOUS
10
117.227
20
-75.6385
11
116.976
21
-76.0152
0
LINE
8
BLACK
6
CONTINUOUS
10
116.976
20
-76.0152
11
116.655
21
-76.3355
0
LINE
8
BLACK
6
CONTINUOUS
10
116.655
20
-76.3355
11
116.278
21
-76.5872
0
LINE
8
BLACK
6
CONTINUOUS
10
116.278
20
-76.5872
11
115.86
21
-76.7606
0
LINE
8
BLACK
6
CONTINUOUS
10
115.86
20
-76.7606
11
115.416
21
-76.849
0
LINE
8
BLACK
6
CONTINUOUS
10
115.416
20
-76.849
11
114.962
21
-76.849
0
LINE
8
BLACK
6
CONTINUOUS
10
114.962
20
-76.849
11
114.518
21
-76.7606
0
LINE
8
BLACK
6
CONTINUOUS
10
114.518
20
-76.7606
11
114.1
21
-76.5872
0
LINE
8
BLACK
6
CONTINUOUS
10
114.1
20
-76.5872
11
113.723
21
-76.3355
0
LINE
8
BLACK
6
CONTINUOUS
10
113.723
20
-76.3355
11
113.402
21
-76.0152
0
LINE
8
BLACK
6
CONTINUOUS
10
113.402
20
-76.0152
11
113.151
21
-75.6385
0
LINE
8
BLACK
6
CONTINUOUS
10
113.151
20
-75.6385
11
112.977
21
-75.2199
0
LINE
8
BLACK
6
CONTINUOUS
10
112.977
20
-75.2199
11
112.889
21
-74.7755
0
LINE
8
BLACK
6
CONTINUOUS
10
112.889
20
-74.7755
11
112.889
21
-74.3225
0
LINE
8
BLACK
6
CONTINUOUS
10
112.889
20
-74.3225
11
112.977
21
-73.8781
0
LINE
8
BLACK
6
CONTINUOUS
10
112.977
20
-73.8781
11
113.151
21
-73.4595
0
LINE
8
BLACK
6
CONTINUOUS
10
113.151
20
-73.4595
11
113.402
21
-73.0828
0
LINE
8
BLACK
6
CONTINUOUS
10
113.402
20
-73.0828
11
113.723
21
-72.7625
0
LINE
8
BLACK
6
CONTINUOUS
10
113.723
20
-72.7625
11
114.1
21
-72.5108
0
LINE
8
BLACK
6
CONTINUOUS
10
114.1
20
-72.5108
11
114.518
21
-72.3374
0
LINE
8
BLACK
6
CONTINUOUS
10
114.518
20
-72.3374
11
114.962
21
-72.249
0
LINE
8
BLACK
6
CONTINUOUS
10
114.962
20
-72.249
11
115.416
21
-72.249
0
LINE
8
BLACK
6
CONTINUOUS
10
115.416
20
-72.249
11
115.86
21
-72.3374
  0
ENDSEC
  0
EOF
