  0
SECTION
  2
HEADER
  9
$ANGBASE
  50
0.0
  9
$ANGDIR
  70
1
  9
$MEASUREMENT
  70
1
  0
ENDSEC
  0
SECTION
  2
TABLES
  0
TABLE
  2
LTYPE
  70
4
  0
LTYPE
  5
40F
  2
CONTINUOUS
  70
0
  3
Solid line
  72
65
  73
0
  40
0.0
  0
LTYPE
  5
410
  2
DASHDOT
 70
0
  3
Dash Dot ____ _ ____ _
 72
65
 73
4
 40
2.0
 49
1.25
 49
-0.25
 49
0.25
 49
-0.25
  0
LTYPE
  5
411
  2
DASHED
 70
0
  3
Dashed __ __ __ __ __
 72
65
 73
2
 40
0.75
 49
0.5
 49
-0.25
  0
LTYPE
  5
43B
  2
DOTTED
 70
0
  3
Dotted .  .  .  .
 72
65
 73
2
 40
0.2
 49
0.0
 49
-0.2
  0
ENDTAB
  0
TABLE
  2
STYLE
  70
4
  0
STYLE
  2
KICAD
  70
0
  40
0
  41
1
  42
1
  50
0
  71
0
  3
isocp.shx
  0
STYLE
  2
KICADB
  70
0
  40
0
  41
1
  42
1
  50
0
  71
0
  3
isocp.shx
  0
STYLE
  2
KICADI
  70
0
  40
0
  41
1
  42
1
  50
15
  71
0
  3
isocp.shx
  0
STYLE
  2
KICADBI
  70
0
  40
0
  41
1
  42
1
  50
15
  71
0
  3
isocp.shx
  0
ENDTAB
  0
TABLE
  2
LAYER
  70
1
  0
LAYER
  2
BLACK
  70
0
  62
7
  6
CONTINUOUS
  0
ENDTAB
  0
ENDSEC
  0
SECTION
  2
ENTITIES
0
LINE
8
BLACK
6
CONTINUOUS
10
149.946
20
-93.6353
11
150.237
21
-93.7559
0
LINE
8
BLACK
6
CONTINUOUS
10
150.237
20
-93.7559
11
150.499
21
-93.931
0
LINE
8
BLACK
6
CONTINUOUS
10
150.499
20
-93.931
11
150.722
21
-94.1539
0
LINE
8
BLACK
6
CONTINUOUS
10
150.722
20
-94.1539
11
150.897
21
-94.4159
0
LINE
8
BLACK
6
CONTINUOUS
10
150.897
20
-94.4159
11
151.018
21
-94.7071
0
LINE
8
BLACK
6
CONTINUOUS
10
151.018
20
-94.7071
11
151.079
21
-95.0162
0
LINE
8
BLACK
6
CONTINUOUS
10
151.079
20
-95.0162
11
151.079
21
-95.3314
0
LINE
8
BLACK
6
CONTINUOUS
10
151.079
20
-95.3314
11
151.018
21
-95.6405
0
LINE
8
BLACK
6
CONTINUOUS
10
151.018
20
-95.6405
11
150.897
21
-95.9317
0
LINE
8
BLACK
6
CONTINUOUS
10
150.897
20
-95.9317
11
150.722
21
-96.1937
0
LINE
8
BLACK
6
CONTINUOUS
10
150.722
20
-96.1937
11
150.499
21
-96.4166
0
LINE
8
BLACK
6
CONTINUOUS
10
150.499
20
-96.4166
11
150.237
21
-96.5917
0
LINE
8
BLACK
6
CONTINUOUS
10
150.237
20
-96.5917
11
149.946
21
-96.7123
0
LINE
8
BLACK
6
CONTINUOUS
10
149.946
20
-96.7123
11
149.637
21
-96.7738
0
LINE
8
BLACK
6
CONTINUOUS
10
149.637
20
-96.7738
11
149.321
21
-96.7738
0
LINE
8
BLACK
6
CONTINUOUS
10
149.321
20
-96.7738
11
149.012
21
-96.7123
0
LINE
8
BLACK
6
CONTINUOUS
10
149.012
20
-96.7123
11
148.721
21
-96.5917
0
LINE
8
BLACK
6
CONTINUOUS
10
148.721
20
-96.5917
11
148.459
21
-96.4166
0
LINE
8
BLACK
6
CONTINUOUS
10
148.459
20
-96.4166
11
148.236
21
-96.1937
0
LINE
8
BLACK
6
CONTINUOUS
10
148.236
20
-96.1937
11
148.061
21
-95.9317
0
LINE
8
BLACK
6
CONTINUOUS
10
148.061
20
-95.9317
11
147.94
21
-95.6405
0
LINE
8
BLACK
6
CONTINUOUS
10
147.94
20
-95.6405
11
147.879
21
-95.3314
0
LINE
8
BLACK
6
CONTINUOUS
10
147.879
20
-95.3314
11
147.879
21
-95.0162
0
LINE
8
BLACK
6
CONTINUOUS
10
147.879
20
-95.0162
11
147.94
21
-94.7071
0
LINE
8
BLACK
6
CONTINUOUS
10
147.94
20
-94.7071
11
148.061
21
-94.4159
0
LINE
8
BLACK
6
CONTINUOUS
10
148.061
20
-94.4159
11
148.236
21
-94.1539
0
LINE
8
BLACK
6
CONTINUOUS
10
148.236
20
-94.1539
11
148.459
21
-93.931
0
LINE
8
BLACK
6
CONTINUOUS
10
148.459
20
-93.931
11
148.721
21
-93.7559
0
LINE
8
BLACK
6
CONTINUOUS
10
148.721
20
-93.7559
11
149.012
21
-93.6353
0
LINE
8
BLACK
6
CONTINUOUS
10
149.012
20
-93.6353
11
149.321
21
-93.5738
0
LINE
8
BLACK
6
CONTINUOUS
10
149.321
20
-93.5738
11
149.637
21
-93.5738
0
LINE
8
BLACK
6
CONTINUOUS
10
149.637
20
-93.5738
11
149.946
21
-93.6353
0
LINE
8
BLACK
6
CONTINUOUS
10
89.9763
20
-93.5972
11
90.2675
21
-93.7178
0
LINE
8
BLACK
6
CONTINUOUS
10
90.2675
20
-93.7178
11
90.5295
21
-93.8929
0
LINE
8
BLACK
6
CONTINUOUS
10
90.5295
20
-93.8929
11
90.7524
21
-94.1158
0
LINE
8
BLACK
6
CONTINUOUS
10
90.7524
20
-94.1158
11
90.9275
21
-94.3778
0
LINE
8
BLACK
6
CONTINUOUS
10
90.9275
20
-94.3778
11
91.0481
21
-94.669
0
LINE
8
BLACK
6
CONTINUOUS
10
91.0481
20
-94.669
11
91.1096
21
-94.9781
0
LINE
8
BLACK
6
CONTINUOUS
10
91.1096
20
-94.9781
11
91.1096
21
-95.2933
0
LINE
8
BLACK
6
CONTINUOUS
10
91.1096
20
-95.2933
11
91.0481
21
-95.6024
0
LINE
8
BLACK
6
CONTINUOUS
10
91.0481
20
-95.6024
11
90.9275
21
-95.8936
0
LINE
8
BLACK
6
CONTINUOUS
10
90.9275
20
-95.8936
11
90.7524
21
-96.1556
0
LINE
8
BLACK
6
CONTINUOUS
10
90.7524
20
-96.1556
11
90.5295
21
-96.3785
0
LINE
8
BLACK
6
CONTINUOUS
10
90.5295
20
-96.3785
11
90.2675
21
-96.5536
0
LINE
8
BLACK
6
CONTINUOUS
10
90.2675
20
-96.5536
11
89.9763
21
-96.6742
0
LINE
8
BLACK
6
CONTINUOUS
10
89.9763
20
-96.6742
11
89.6672
21
-96.7357
0
LINE
8
BLACK
6
CONTINUOUS
10
89.6672
20
-96.7357
11
89.352
21
-96.7357
0
LINE
8
BLACK
6
CONTINUOUS
10
89.352
20
-96.7357
11
89.0429
21
-96.6742
0
LINE
8
BLACK
6
CONTINUOUS
10
89.0429
20
-96.6742
11
88.7517
21
-96.5536
0
LINE
8
BLACK
6
CONTINUOUS
10
88.7517
20
-96.5536
11
88.4897
21
-96.3785
0
LINE
8
BLACK
6
CONTINUOUS
10
88.4897
20
-96.3785
11
88.2668
21
-96.1556
0
LINE
8
BLACK
6
CONTINUOUS
10
88.2668
20
-96.1556
11
88.0917
21
-95.8936
0
LINE
8
BLACK
6
CONTINUOUS
10
88.0917
20
-95.8936
11
87.9711
21
-95.6024
0
LINE
8
BLACK
6
CONTINUOUS
10
87.9711
20
-95.6024
11
87.9096
21
-95.2933
0
LINE
8
BLACK
6
CONTINUOUS
10
87.9096
20
-95.2933
11
87.9096
21
-94.9781
0
LINE
8
BLACK
6
CONTINUOUS
10
87.9096
20
-94.9781
11
87.9711
21
-94.669
0
LINE
8
BLACK
6
CONTINUOUS
10
87.9711
20
-94.669
11
88.0917
21
-94.3778
0
LINE
8
BLACK
6
CONTINUOUS
10
88.0917
20
-94.3778
11
88.2668
21
-94.1158
0
LINE
8
BLACK
6
CONTINUOUS
10
88.2668
20
-94.1158
11
88.4897
21
-93.8929
0
LINE
8
BLACK
6
CONTINUOUS
10
88.4897
20
-93.8929
11
88.7517
21
-93.7178
0
LINE
8
BLACK
6
CONTINUOUS
10
88.7517
20
-93.7178
11
89.0429
21
-93.5972
0
LINE
8
BLACK
6
CONTINUOUS
10
89.0429
20
-93.5972
11
89.352
21
-93.5357
0
LINE
8
BLACK
6
CONTINUOUS
10
89.352
20
-93.5357
11
89.6672
21
-93.5357
0
LINE
8
BLACK
6
CONTINUOUS
10
89.6672
20
-93.5357
11
89.9763
21
-93.5972
0
LINE
8
BLACK
6
CONTINUOUS
10
139.692
20
-72.4816
11
140.083
21
-72.6437
0
LINE
8
BLACK
6
CONTINUOUS
10
140.083
20
-72.6437
11
140.436
21
-72.879
0
LINE
8
BLACK
6
CONTINUOUS
10
140.436
20
-72.879
11
140.735
21
-73.1785
0
LINE
8
BLACK
6
CONTINUOUS
10
140.735
20
-73.1785
11
140.97
21
-73.5306
0
LINE
8
BLACK
6
CONTINUOUS
10
140.97
20
-73.5306
11
141.132
21
-73.9219
0
LINE
8
BLACK
6
CONTINUOUS
10
141.132
20
-73.9219
11
141.215
21
-74.3372
0
LINE
8
BLACK
6
CONTINUOUS
10
141.215
20
-74.3372
11
141.215
21
-74.7608
0
LINE
8
BLACK
6
CONTINUOUS
10
141.215
20
-74.7608
11
141.132
21
-75.1761
0
LINE
8
BLACK
6
CONTINUOUS
10
141.132
20
-75.1761
11
140.97
21
-75.5674
0
LINE
8
BLACK
6
CONTINUOUS
10
140.97
20
-75.5674
11
140.735
21
-75.9195
0
LINE
8
BLACK
6
CONTINUOUS
10
140.735
20
-75.9195
11
140.436
21
-76.219
0
LINE
8
BLACK
6
CONTINUOUS
10
140.436
20
-76.219
11
140.083
21
-76.4543
0
LINE
8
BLACK
6
CONTINUOUS
10
140.083
20
-76.4543
11
139.692
21
-76.6164
0
LINE
8
BLACK
6
CONTINUOUS
10
139.692
20
-76.6164
11
139.277
21
-76.699
0
LINE
8
BLACK
6
CONTINUOUS
10
139.277
20
-76.699
11
138.853
21
-76.699
0
LINE
8
BLACK
6
CONTINUOUS
10
138.853
20
-76.699
11
138.438
21
-76.6164
0
LINE
8
BLACK
6
CONTINUOUS
10
138.438
20
-76.6164
11
138.047
21
-76.4543
0
LINE
8
BLACK
6
CONTINUOUS
10
138.047
20
-76.4543
11
137.694
21
-76.219
0
LINE
8
BLACK
6
CONTINUOUS
10
137.694
20
-76.219
11
137.395
21
-75.9195
0
LINE
8
BLACK
6
CONTINUOUS
10
137.395
20
-75.9195
11
137.16
21
-75.5674
0
LINE
8
BLACK
6
CONTINUOUS
10
137.16
20
-75.5674
11
136.998
21
-75.1761
0
LINE
8
BLACK
6
CONTINUOUS
10
136.998
20
-75.1761
11
136.915
21
-74.7608
0
LINE
8
BLACK
6
CONTINUOUS
10
136.915
20
-74.7608
11
136.915
21
-74.3372
0
LINE
8
BLACK
6
CONTINUOUS
10
136.915
20
-74.3372
11
136.998
21
-73.9219
0
LINE
8
BLACK
6
CONTINUOUS
10
136.998
20
-73.9219
11
137.16
21
-73.5306
0
LINE
8
BLACK
6
CONTINUOUS
10
137.16
20
-73.5306
11
137.395
21
-73.1785
0
LINE
8
BLACK
6
CONTINUOUS
10
137.395
20
-73.1785
11
137.694
21
-72.879
0
LINE
8
BLACK
6
CONTINUOUS
10
137.694
20
-72.879
11
138.047
21
-72.6437
0
LINE
8
BLACK
6
CONTINUOUS
10
138.047
20
-72.6437
11
138.438
21
-72.4816
0
LINE
8
BLACK
6
CONTINUOUS
10
138.438
20
-72.4816
11
138.853
21
-72.399
0
LINE
8
BLACK
6
CONTINUOUS
10
138.853
20
-72.399
11
139.277
21
-72.399
0
LINE
8
BLACK
6
CONTINUOUS
10
139.277
20
-72.399
11
139.692
21
-72.4816
0
LINE
8
BLACK
6
CONTINUOUS
10
127.754
20
-72.4816
11
128.145
21
-72.6437
0
LINE
8
BLACK
6
CONTINUOUS
10
128.145
20
-72.6437
11
128.498
21
-72.879
0
LINE
8
BLACK
6
CONTINUOUS
10
128.498
20
-72.879
11
128.797
21
-73.1785
0
LINE
8
BLACK
6
CONTINUOUS
10
128.797
20
-73.1785
11
129.032
21
-73.5306
0
LINE
8
BLACK
6
CONTINUOUS
10
129.032
20
-73.5306
11
129.194
21
-73.9219
0
LINE
8
BLACK
6
CONTINUOUS
10
129.194
20
-73.9219
11
129.277
21
-74.3372
0
LINE
8
BLACK
6
CONTINUOUS
10
129.277
20
-74.3372
11
129.277
21
-74.7608
0
LINE
8
BLACK
6
CONTINUOUS
10
129.277
20
-74.7608
11
129.194
21
-75.1761
0
LINE
8
BLACK
6
CONTINUOUS
10
129.194
20
-75.1761
11
129.032
21
-75.5674
0
LINE
8
BLACK
6
CONTINUOUS
10
129.032
20
-75.5674
11
128.797
21
-75.9195
0
LINE
8
BLACK
6
CONTINUOUS
10
128.797
20
-75.9195
11
128.498
21
-76.219
0
LINE
8
BLACK
6
CONTINUOUS
10
128.498
20
-76.219
11
128.145
21
-76.4543
0
LINE
8
BLACK
6
CONTINUOUS
10
128.145
20
-76.4543
11
127.754
21
-76.6164
0
LINE
8
BLACK
6
CONTINUOUS
10
127.754
20
-76.6164
11
127.339
21
-76.699
0
LINE
8
BLACK
6
CONTINUOUS
10
127.339
20
-76.699
11
126.915
21
-76.699
0
LINE
8
BLACK
6
CONTINUOUS
10
126.915
20
-76.699
11
126.5
21
-76.6164
0
LINE
8
BLACK
6
CONTINUOUS
10
126.5
20
-76.6164
11
126.109
21
-76.4543
0
LINE
8
BLACK
6
CONTINUOUS
10
126.109
20
-76.4543
11
125.756
21
-76.219
0
LINE
8
BLACK
6
CONTINUOUS
10
125.756
20
-76.219
11
125.457
21
-75.9195
0
LINE
8
BLACK
6
CONTINUOUS
10
125.457
20
-75.9195
11
125.222
21
-75.5674
0
LINE
8
BLACK
6
CONTINUOUS
10
125.222
20
-75.5674
11
125.06
21
-75.1761
0
LINE
8
BLACK
6
CONTINUOUS
10
125.06
20
-75.1761
11
124.977
21
-74.7608
0
LINE
8
BLACK
6
CONTINUOUS
10
124.977
20
-74.7608
11
124.977
21
-74.3372
0
LINE
8
BLACK
6
CONTINUOUS
10
124.977
20
-74.3372
11
125.06
21
-73.9219
0
LINE
8
BLACK
6
CONTINUOUS
10
125.06
20
-73.9219
11
125.222
21
-73.5306
0
LINE
8
BLACK
6
CONTINUOUS
10
125.222
20
-73.5306
11
125.457
21
-73.1785
0
LINE
8
BLACK
6
CONTINUOUS
10
125.457
20
-73.1785
11
125.756
21
-72.879
0
LINE
8
BLACK
6
CONTINUOUS
10
125.756
20
-72.879
11
126.109
21
-72.6437
0
LINE
8
BLACK
6
CONTINUOUS
10
126.109
20
-72.6437
11
126.5
21
-72.4816
0
LINE
8
BLACK
6
CONTINUOUS
10
126.5
20
-72.4816
11
126.915
21
-72.399
0
LINE
8
BLACK
6
CONTINUOUS
10
126.915
20
-72.399
11
127.339
21
-72.399
0
LINE
8
BLACK
6
CONTINUOUS
10
127.339
20
-72.399
11
127.754
21
-72.4816
0
LINE
8
BLACK
6
CONTINUOUS
10
115.816
20
-72.4816
11
116.207
21
-72.6437
0
LINE
8
BLACK
6
CONTINUOUS
10
116.207
20
-72.6437
11
116.56
21
-72.879
0
LINE
8
BLACK
6
CONTINUOUS
10
116.56
20
-72.879
11
116.859
21
-73.1785
0
LINE
8
BLACK
6
CONTINUOUS
10
116.859
20
-73.1785
11
117.094
21
-73.5306
0
LINE
8
BLACK
6
CONTINUOUS
10
117.094
20
-73.5306
11
117.256
21
-73.9219
0
LINE
8
BLACK
6
CONTINUOUS
10
117.256
20
-73.9219
11
117.339
21
-74.3372
0
LINE
8
BLACK
6
CONTINUOUS
10
117.339
20
-74.3372
11
117.339
21
-74.7608
0
LINE
8
BLACK
6
CONTINUOUS
10
117.339
20
-74.7608
11
117.256
21
-75.1761
0
LINE
8
BLACK
6
CONTINUOUS
10
117.256
20
-75.1761
11
117.094
21
-75.5674
0
LINE
8
BLACK
6
CONTINUOUS
10
117.094
20
-75.5674
11
116.859
21
-75.9195
0
LINE
8
BLACK
6
CONTINUOUS
10
116.859
20
-75.9195
11
116.56
21
-76.219
0
LINE
8
BLACK
6
CONTINUOUS
10
116.56
20
-76.219
11
116.207
21
-76.4543
0
LINE
8
BLACK
6
CONTINUOUS
10
116.207
20
-76.4543
11
115.816
21
-76.6164
0
LINE
8
BLACK
6
CONTINUOUS
10
115.816
20
-76.6164
11
115.401
21
-76.699
0
LINE
8
BLACK
6
CONTINUOUS
10
115.401
20
-76.699
11
114.977
21
-76.699
0
LINE
8
BLACK
6
CONTINUOUS
10
114.977
20
-76.699
11
114.562
21
-76.6164
0
LINE
8
BLACK
6
CONTINUOUS
10
114.562
20
-76.6164
11
114.171
21
-76.4543
0
LINE
8
BLACK
6
CONTINUOUS
10
114.171
20
-76.4543
11
113.818
21
-76.219
0
LINE
8
BLACK
6
CONTINUOUS
10
113.818
20
-76.219
11
113.519
21
-75.9195
0
LINE
8
BLACK
6
CONTINUOUS
10
113.519
20
-75.9195
11
113.284
21
-75.5674
0
LINE
8
BLACK
6
CONTINUOUS
10
113.284
20
-75.5674
11
113.122
21
-75.1761
0
LINE
8
BLACK
6
CONTINUOUS
10
113.122
20
-75.1761
11
113.039
21
-74.7608
0
LINE
8
BLACK
6
CONTINUOUS
10
113.039
20
-74.7608
11
113.039
21
-74.3372
0
LINE
8
BLACK
6
CONTINUOUS
10
113.039
20
-74.3372
11
113.122
21
-73.9219
0
LINE
8
BLACK
6
CONTINUOUS
10
113.122
20
-73.9219
11
113.284
21
-73.5306
0
LINE
8
BLACK
6
CONTINUOUS
10
113.284
20
-73.5306
11
113.519
21
-73.1785
0
LINE
8
BLACK
6
CONTINUOUS
10
113.519
20
-73.1785
11
113.818
21
-72.879
0
LINE
8
BLACK
6
CONTINUOUS
10
113.818
20
-72.879
11
114.171
21
-72.6437
0
LINE
8
BLACK
6
CONTINUOUS
10
114.171
20
-72.6437
11
114.562
21
-72.4816
0
LINE
8
BLACK
6
CONTINUOUS
10
114.562
20
-72.4816
11
114.977
21
-72.399
0
LINE
8
BLACK
6
CONTINUOUS
10
114.977
20
-72.399
11
115.401
21
-72.399
0
LINE
8
BLACK
6
CONTINUOUS
10
115.401
20
-72.399
11
115.816
21
-72.4816
  0
ENDSEC
  0
EOF
