  0
SECTION
  2
HEADER
  9
$ANGBASE
  50
0.0
  9
$ANGDIR
  70
1
  9
$MEASUREMENT
  70
1
  0
ENDSEC
  0
SECTION
  2
TABLES
  0
TABLE
  2
LTYPE
  70
4
  0
LTYPE
  5
40F
  2
CONTINUOUS
  70
0
  3
Solid line
  72
65
  73
0
  40
0.0
  0
LTYPE
  5
410
  2
DASHDOT
 70
0
  3
Dash Dot ____ _ ____ _
 72
65
 73
4
 40
2.0
 49
1.25
 49
-0.25
 49
0.25
 49
-0.25
  0
LTYPE
  5
411
  2
DASHED
 70
0
  3
Dashed __ __ __ __ __
 72
65
 73
2
 40
0.75
 49
0.5
 49
-0.25
  0
LTYPE
  5
43B
  2
DOTTED
 70
0
  3
Dotted .  .  .  .
 72
65
 73
2
 40
0.2
 49
0.0
 49
-0.2
  0
ENDTAB
  0
TABLE
  2
STYLE
  70
4
  0
STYLE
  2
KICAD
  70
0
  40
0
  41
1
  42
1
  50
0
  71
0
  3
isocp.shx
  0
STYLE
  2
KICADB
  70
0
  40
0
  41
1
  42
1
  50
0
  71
0
  3
isocp.shx
  0
STYLE
  2
KICADI
  70
0
  40
0
  41
1
  42
1
  50
15
  71
0
  3
isocp.shx
  0
STYLE
  2
KICADBI
  70
0
  40
0
  41
1
  42
1
  50
15
  71
0
  3
isocp.shx
  0
ENDTAB
  0
TABLE
  2
LAYER
  70
1
  0
LAYER
  2
BLACK
  70
0
  62
7
  6
CONTINUOUS
  0
ENDTAB
  0
ENDSEC
  0
SECTION
  2
ENTITIES
0
LINE
8
BLACK
6
CONTINUOUS
10
149.989
20
-93.4911
11
150.308
21
-93.623
0
LINE
8
BLACK
6
CONTINUOUS
10
150.308
20
-93.623
11
150.595
21
-93.8145
0
LINE
8
BLACK
6
CONTINUOUS
10
150.595
20
-93.8145
11
150.838
21
-94.0582
0
LINE
8
BLACK
6
CONTINUOUS
10
150.838
20
-94.0582
11
151.03
21
-94.3449
0
LINE
8
BLACK
6
CONTINUOUS
10
151.03
20
-94.3449
11
151.162
21
-94.6633
0
LINE
8
BLACK
6
CONTINUOUS
10
151.162
20
-94.6633
11
151.229
21
-95.0014
0
LINE
8
BLACK
6
CONTINUOUS
10
151.229
20
-95.0014
11
151.229
21
-95.3462
0
LINE
8
BLACK
6
CONTINUOUS
10
151.229
20
-95.3462
11
151.162
21
-95.6843
0
LINE
8
BLACK
6
CONTINUOUS
10
151.162
20
-95.6843
11
151.03
21
-96.0027
0
LINE
8
BLACK
6
CONTINUOUS
10
151.03
20
-96.0027
11
150.838
21
-96.2894
0
LINE
8
BLACK
6
CONTINUOUS
10
150.838
20
-96.2894
11
150.595
21
-96.5331
0
LINE
8
BLACK
6
CONTINUOUS
10
150.595
20
-96.5331
11
150.308
21
-96.7246
0
LINE
8
BLACK
6
CONTINUOUS
10
150.308
20
-96.7246
11
149.989
21
-96.8565
0
LINE
8
BLACK
6
CONTINUOUS
10
149.989
20
-96.8565
11
149.651
21
-96.9238
0
LINE
8
BLACK
6
CONTINUOUS
10
149.651
20
-96.9238
11
149.307
21
-96.9238
0
LINE
8
BLACK
6
CONTINUOUS
10
149.307
20
-96.9238
11
148.969
21
-96.8565
0
LINE
8
BLACK
6
CONTINUOUS
10
148.969
20
-96.8565
11
148.65
21
-96.7246
0
LINE
8
BLACK
6
CONTINUOUS
10
148.65
20
-96.7246
11
148.363
21
-96.5331
0
LINE
8
BLACK
6
CONTINUOUS
10
148.363
20
-96.5331
11
148.12
21
-96.2894
0
LINE
8
BLACK
6
CONTINUOUS
10
148.12
20
-96.2894
11
147.928
21
-96.0027
0
LINE
8
BLACK
6
CONTINUOUS
10
147.928
20
-96.0027
11
147.796
21
-95.6843
0
LINE
8
BLACK
6
CONTINUOUS
10
147.796
20
-95.6843
11
147.729
21
-95.3462
0
LINE
8
BLACK
6
CONTINUOUS
10
147.729
20
-95.3462
11
147.729
21
-95.0014
0
LINE
8
BLACK
6
CONTINUOUS
10
147.729
20
-95.0014
11
147.796
21
-94.6633
0
LINE
8
BLACK
6
CONTINUOUS
10
147.796
20
-94.6633
11
147.928
21
-94.3449
0
LINE
8
BLACK
6
CONTINUOUS
10
147.928
20
-94.3449
11
148.12
21
-94.0582
0
LINE
8
BLACK
6
CONTINUOUS
10
148.12
20
-94.0582
11
148.363
21
-93.8145
0
LINE
8
BLACK
6
CONTINUOUS
10
148.363
20
-93.8145
11
148.65
21
-93.623
0
LINE
8
BLACK
6
CONTINUOUS
10
148.65
20
-93.623
11
148.969
21
-93.4911
0
LINE
8
BLACK
6
CONTINUOUS
10
148.969
20
-93.4911
11
149.307
21
-93.4238
0
LINE
8
BLACK
6
CONTINUOUS
10
149.307
20
-93.4238
11
149.651
21
-93.4238
0
LINE
8
BLACK
6
CONTINUOUS
10
149.651
20
-93.4238
11
149.989
21
-93.4911
0
LINE
8
BLACK
6
CONTINUOUS
10
90.0201
20
-93.453
11
90.3385
21
-93.5849
0
LINE
8
BLACK
6
CONTINUOUS
10
90.3385
20
-93.5849
11
90.6252
21
-93.7764
0
LINE
8
BLACK
6
CONTINUOUS
10
90.6252
20
-93.7764
11
90.8689
21
-94.0201
0
LINE
8
BLACK
6
CONTINUOUS
10
90.8689
20
-94.0201
11
91.0604
21
-94.3068
0
LINE
8
BLACK
6
CONTINUOUS
10
91.0604
20
-94.3068
11
91.1923
21
-94.6252
0
LINE
8
BLACK
6
CONTINUOUS
10
91.1923
20
-94.6252
11
91.2596
21
-94.9633
0
LINE
8
BLACK
6
CONTINUOUS
10
91.2596
20
-94.9633
11
91.2596
21
-95.3081
0
LINE
8
BLACK
6
CONTINUOUS
10
91.2596
20
-95.3081
11
91.1923
21
-95.6462
0
LINE
8
BLACK
6
CONTINUOUS
10
91.1923
20
-95.6462
11
91.0604
21
-95.9646
0
LINE
8
BLACK
6
CONTINUOUS
10
91.0604
20
-95.9646
11
90.8689
21
-96.2513
0
LINE
8
BLACK
6
CONTINUOUS
10
90.8689
20
-96.2513
11
90.6252
21
-96.495
0
LINE
8
BLACK
6
CONTINUOUS
10
90.6252
20
-96.495
11
90.3385
21
-96.6865
0
LINE
8
BLACK
6
CONTINUOUS
10
90.3385
20
-96.6865
11
90.0201
21
-96.8184
0
LINE
8
BLACK
6
CONTINUOUS
10
90.0201
20
-96.8184
11
89.682
21
-96.8857
0
LINE
8
BLACK
6
CONTINUOUS
10
89.682
20
-96.8857
11
89.3372
21
-96.8857
0
LINE
8
BLACK
6
CONTINUOUS
10
89.3372
20
-96.8857
11
88.9991
21
-96.8184
0
LINE
8
BLACK
6
CONTINUOUS
10
88.9991
20
-96.8184
11
88.6807
21
-96.6865
0
LINE
8
BLACK
6
CONTINUOUS
10
88.6807
20
-96.6865
11
88.394
21
-96.495
0
LINE
8
BLACK
6
CONTINUOUS
10
88.394
20
-96.495
11
88.1503
21
-96.2513
0
LINE
8
BLACK
6
CONTINUOUS
10
88.1503
20
-96.2513
11
87.9588
21
-95.9646
0
LINE
8
BLACK
6
CONTINUOUS
10
87.9588
20
-95.9646
11
87.8269
21
-95.6462
0
LINE
8
BLACK
6
CONTINUOUS
10
87.8269
20
-95.6462
11
87.7596
21
-95.3081
0
LINE
8
BLACK
6
CONTINUOUS
10
87.7596
20
-95.3081
11
87.7596
21
-94.9633
0
LINE
8
BLACK
6
CONTINUOUS
10
87.7596
20
-94.9633
11
87.8269
21
-94.6252
0
LINE
8
BLACK
6
CONTINUOUS
10
87.8269
20
-94.6252
11
87.9588
21
-94.3068
0
LINE
8
BLACK
6
CONTINUOUS
10
87.9588
20
-94.3068
11
88.1503
21
-94.0201
0
LINE
8
BLACK
6
CONTINUOUS
10
88.1503
20
-94.0201
11
88.394
21
-93.7764
0
LINE
8
BLACK
6
CONTINUOUS
10
88.394
20
-93.7764
11
88.6807
21
-93.5849
0
LINE
8
BLACK
6
CONTINUOUS
10
88.6807
20
-93.5849
11
88.9991
21
-93.453
0
LINE
8
BLACK
6
CONTINUOUS
10
88.9991
20
-93.453
11
89.3372
21
-93.3857
0
LINE
8
BLACK
6
CONTINUOUS
10
89.3372
20
-93.3857
11
89.682
21
-93.3857
0
LINE
8
BLACK
6
CONTINUOUS
10
89.682
20
-93.3857
11
90.0201
21
-93.453
0
LINE
8
BLACK
6
CONTINUOUS
10
139.736
20
-72.3374
11
140.154
21
-72.5108
0
LINE
8
BLACK
6
CONTINUOUS
10
140.154
20
-72.5108
11
140.531
21
-72.7625
0
LINE
8
BLACK
6
CONTINUOUS
10
140.531
20
-72.7625
11
140.852
21
-73.0828
0
LINE
8
BLACK
6
CONTINUOUS
10
140.852
20
-73.0828
11
141.103
21
-73.4595
0
LINE
8
BLACK
6
CONTINUOUS
10
141.103
20
-73.4595
11
141.277
21
-73.8781
0
LINE
8
BLACK
6
CONTINUOUS
10
141.277
20
-73.8781
11
141.365
21
-74.3225
0
LINE
8
BLACK
6
CONTINUOUS
10
141.365
20
-74.3225
11
141.365
21
-74.7755
0
LINE
8
BLACK
6
CONTINUOUS
10
141.365
20
-74.7755
11
141.277
21
-75.2199
0
LINE
8
BLACK
6
CONTINUOUS
10
141.277
20
-75.2199
11
141.103
21
-75.6385
0
LINE
8
BLACK
6
CONTINUOUS
10
141.103
20
-75.6385
11
140.852
21
-76.0152
0
LINE
8
BLACK
6
CONTINUOUS
10
140.852
20
-76.0152
11
140.531
21
-76.3355
0
LINE
8
BLACK
6
CONTINUOUS
10
140.531
20
-76.3355
11
140.154
21
-76.5872
0
LINE
8
BLACK
6
CONTINUOUS
10
140.154
20
-76.5872
11
139.736
21
-76.7606
0
LINE
8
BLACK
6
CONTINUOUS
10
139.736
20
-76.7606
11
139.292
21
-76.849
0
LINE
8
BLACK
6
CONTINUOUS
10
139.292
20
-76.849
11
138.838
21
-76.849
0
LINE
8
BLACK
6
CONTINUOUS
10
138.838
20
-76.849
11
138.394
21
-76.7606
0
LINE
8
BLACK
6
CONTINUOUS
10
138.394
20
-76.7606
11
137.976
21
-76.5872
0
LINE
8
BLACK
6
CONTINUOUS
10
137.976
20
-76.5872
11
137.599
21
-76.3355
0
LINE
8
BLACK
6
CONTINUOUS
10
137.599
20
-76.3355
11
137.278
21
-76.0152
0
LINE
8
BLACK
6
CONTINUOUS
10
137.278
20
-76.0152
11
137.027
21
-75.6385
0
LINE
8
BLACK
6
CONTINUOUS
10
137.027
20
-75.6385
11
136.853
21
-75.2199
0
LINE
8
BLACK
6
CONTINUOUS
10
136.853
20
-75.2199
11
136.765
21
-74.7755
0
LINE
8
BLACK
6
CONTINUOUS
10
136.765
20
-74.7755
11
136.765
21
-74.3225
0
LINE
8
BLACK
6
CONTINUOUS
10
136.765
20
-74.3225
11
136.853
21
-73.8781
0
LINE
8
BLACK
6
CONTINUOUS
10
136.853
20
-73.8781
11
137.027
21
-73.4595
0
LINE
8
BLACK
6
CONTINUOUS
10
137.027
20
-73.4595
11
137.278
21
-73.0828
0
LINE
8
BLACK
6
CONTINUOUS
10
137.278
20
-73.0828
11
137.599
21
-72.7625
0
LINE
8
BLACK
6
CONTINUOUS
10
137.599
20
-72.7625
11
137.976
21
-72.5108
0
LINE
8
BLACK
6
CONTINUOUS
10
137.976
20
-72.5108
11
138.394
21
-72.3374
0
LINE
8
BLACK
6
CONTINUOUS
10
138.394
20
-72.3374
11
138.838
21
-72.249
0
LINE
8
BLACK
6
CONTINUOUS
10
138.838
20
-72.249
11
139.292
21
-72.249
0
LINE
8
BLACK
6
CONTINUOUS
10
139.292
20
-72.249
11
139.736
21
-72.3374
0
LINE
8
BLACK
6
CONTINUOUS
10
127.798
20
-72.3374
11
128.216
21
-72.5108
0
LINE
8
BLACK
6
CONTINUOUS
10
128.216
20
-72.5108
11
128.593
21
-72.7625
0
LINE
8
BLACK
6
CONTINUOUS
10
128.593
20
-72.7625
11
128.914
21
-73.0828
0
LINE
8
BLACK
6
CONTINUOUS
10
128.914
20
-73.0828
11
129.165
21
-73.4595
0
LINE
8
BLACK
6
CONTINUOUS
10
129.165
20
-73.4595
11
129.339
21
-73.8781
0
LINE
8
BLACK
6
CONTINUOUS
10
129.339
20
-73.8781
11
129.427
21
-74.3225
0
LINE
8
BLACK
6
CONTINUOUS
10
129.427
20
-74.3225
11
129.427
21
-74.7755
0
LINE
8
BLACK
6
CONTINUOUS
10
129.427
20
-74.7755
11
129.339
21
-75.2199
0
LINE
8
BLACK
6
CONTINUOUS
10
129.339
20
-75.2199
11
129.165
21
-75.6385
0
LINE
8
BLACK
6
CONTINUOUS
10
129.165
20
-75.6385
11
128.914
21
-76.0152
0
LINE
8
BLACK
6
CONTINUOUS
10
128.914
20
-76.0152
11
128.593
21
-76.3355
0
LINE
8
BLACK
6
CONTINUOUS
10
128.593
20
-76.3355
11
128.216
21
-76.5872
0
LINE
8
BLACK
6
CONTINUOUS
10
128.216
20
-76.5872
11
127.798
21
-76.7606
0
LINE
8
BLACK
6
CONTINUOUS
10
127.798
20
-76.7606
11
127.354
21
-76.849
0
LINE
8
BLACK
6
CONTINUOUS
10
127.354
20
-76.849
11
126.9
21
-76.849
0
LINE
8
BLACK
6
CONTINUOUS
10
126.9
20
-76.849
11
126.456
21
-76.7606
0
LINE
8
BLACK
6
CONTINUOUS
10
126.456
20
-76.7606
11
126.038
21
-76.5872
0
LINE
8
BLACK
6
CONTINUOUS
10
126.038
20
-76.5872
11
125.661
21
-76.3355
0
LINE
8
BLACK
6
CONTINUOUS
10
125.661
20
-76.3355
11
125.34
21
-76.0152
0
LINE
8
BLACK
6
CONTINUOUS
10
125.34
20
-76.0152
11
125.089
21
-75.6385
0
LINE
8
BLACK
6
CONTINUOUS
10
125.089
20
-75.6385
11
124.915
21
-75.2199
0
LINE
8
BLACK
6
CONTINUOUS
10
124.915
20
-75.2199
11
124.827
21
-74.7755
0
LINE
8
BLACK
6
CONTINUOUS
10
124.827
20
-74.7755
11
124.827
21
-74.3225
0
LINE
8
BLACK
6
CONTINUOUS
10
124.827
20
-74.3225
11
124.915
21
-73.8781
0
LINE
8
BLACK
6
CONTINUOUS
10
124.915
20
-73.8781
11
125.089
21
-73.4595
0
LINE
8
BLACK
6
CONTINUOUS
10
125.089
20
-73.4595
11
125.34
21
-73.0828
0
LINE
8
BLACK
6
CONTINUOUS
10
125.34
20
-73.0828
11
125.661
21
-72.7625
0
LINE
8
BLACK
6
CONTINUOUS
10
125.661
20
-72.7625
11
126.038
21
-72.5108
0
LINE
8
BLACK
6
CONTINUOUS
10
126.038
20
-72.5108
11
126.456
21
-72.3374
0
LINE
8
BLACK
6
CONTINUOUS
10
126.456
20
-72.3374
11
126.9
21
-72.249
0
LINE
8
BLACK
6
CONTINUOUS
10
126.9
20
-72.249
11
127.354
21
-72.249
0
LINE
8
BLACK
6
CONTINUOUS
10
127.354
20
-72.249
11
127.798
21
-72.3374
0
LINE
8
BLACK
6
CONTINUOUS
10
115.86
20
-72.3374
11
116.278
21
-72.5108
0
LINE
8
BLACK
6
CONTINUOUS
10
116.278
20
-72.5108
11
116.655
21
-72.7625
0
LINE
8
BLACK
6
CONTINUOUS
10
116.655
20
-72.7625
11
116.976
21
-73.0828
0
LINE
8
BLACK
6
CONTINUOUS
10
116.976
20
-73.0828
11
117.227
21
-73.4595
0
LINE
8
BLACK
6
CONTINUOUS
10
117.227
20
-73.4595
11
117.401
21
-73.8781
0
LINE
8
BLACK
6
CONTINUOUS
10
117.401
20
-73.8781
11
117.489
21
-74.3225
0
LINE
8
BLACK
6
CONTINUOUS
10
117.489
20
-74.3225
11
117.489
21
-74.7755
0
LINE
8
BLACK
6
CONTINUOUS
10
117.489
20
-74.7755
11
117.401
21
-75.2199
0
LINE
8
BLACK
6
CONTINUOUS
10
117.401
20
-75.2199
11
117.227
21
-75.6385
0
LINE
8
BLACK
6
CONTINUOUS
10
117.227
20
-75.6385
11
116.976
21
-76.0152
0
LINE
8
BLACK
6
CONTINUOUS
10
116.976
20
-76.0152
11
116.655
21
-76.3355
0
LINE
8
BLACK
6
CONTINUOUS
10
116.655
20
-76.3355
11
116.278
21
-76.5872
0
LINE
8
BLACK
6
CONTINUOUS
10
116.278
20
-76.5872
11
115.86
21
-76.7606
0
LINE
8
BLACK
6
CONTINUOUS
10
115.86
20
-76.7606
11
115.416
21
-76.849
0
LINE
8
BLACK
6
CONTINUOUS
10
115.416
20
-76.849
11
114.962
21
-76.849
0
LINE
8
BLACK
6
CONTINUOUS
10
114.962
20
-76.849
11
114.518
21
-76.7606
0
LINE
8
BLACK
6
CONTINUOUS
10
114.518
20
-76.7606
11
114.1
21
-76.5872
0
LINE
8
BLACK
6
CONTINUOUS
10
114.1
20
-76.5872
11
113.723
21
-76.3355
0
LINE
8
BLACK
6
CONTINUOUS
10
113.723
20
-76.3355
11
113.402
21
-76.0152
0
LINE
8
BLACK
6
CONTINUOUS
10
113.402
20
-76.0152
11
113.151
21
-75.6385
0
LINE
8
BLACK
6
CONTINUOUS
10
113.151
20
-75.6385
11
112.977
21
-75.2199
0
LINE
8
BLACK
6
CONTINUOUS
10
112.977
20
-75.2199
11
112.889
21
-74.7755
0
LINE
8
BLACK
6
CONTINUOUS
10
112.889
20
-74.7755
11
112.889
21
-74.3225
0
LINE
8
BLACK
6
CONTINUOUS
10
112.889
20
-74.3225
11
112.977
21
-73.8781
0
LINE
8
BLACK
6
CONTINUOUS
10
112.977
20
-73.8781
11
113.151
21
-73.4595
0
LINE
8
BLACK
6
CONTINUOUS
10
113.151
20
-73.4595
11
113.402
21
-73.0828
0
LINE
8
BLACK
6
CONTINUOUS
10
113.402
20
-73.0828
11
113.723
21
-72.7625
0
LINE
8
BLACK
6
CONTINUOUS
10
113.723
20
-72.7625
11
114.1
21
-72.5108
0
LINE
8
BLACK
6
CONTINUOUS
10
114.1
20
-72.5108
11
114.518
21
-72.3374
0
LINE
8
BLACK
6
CONTINUOUS
10
114.518
20
-72.3374
11
114.962
21
-72.249
0
LINE
8
BLACK
6
CONTINUOUS
10
114.962
20
-72.249
11
115.416
21
-72.249
0
LINE
8
BLACK
6
CONTINUOUS
10
115.416
20
-72.249
11
115.86
21
-72.3374
0
LINE
8
BLACK
6
CONTINUOUS
10
157.099
20
-66.2313
11
157.099
21
-66.2313
0
LINE
8
BLACK
6
CONTINUOUS
10
157.099
20
-66.2313
11
157.099
21
-66.2313
0
LINE
8
BLACK
6
CONTINUOUS
10
157.099
20
-66.2313
11
157.1
21
-66.2313
0
LINE
8
BLACK
6
CONTINUOUS
10
157.1
20
-66.2313
11
157.104
21
-66.2318
0
LINE
8
BLACK
6
CONTINUOUS
10
157.104
20
-66.2318
11
157.109
21
-66.2323
0
LINE
8
BLACK
6
CONTINUOUS
10
157.109
20
-66.2323
11
157.109
21
-66.2324
0
LINE
8
BLACK
6
CONTINUOUS
10
157.109
20
-66.2324
11
157.109
21
-66.2324
0
LINE
8
BLACK
6
CONTINUOUS
10
157.109
20
-66.2324
11
157.114
21
-66.2338
0
LINE
8
BLACK
6
CONTINUOUS
10
157.114
20
-66.2338
11
157.118
21
-66.2352
0
LINE
8
BLACK
6
CONTINUOUS
10
157.118
20
-66.2352
11
157.119
21
-66.2353
0
LINE
8
BLACK
6
CONTINUOUS
10
157.119
20
-66.2353
11
157.119
21
-66.2353
0
LINE
8
BLACK
6
CONTINUOUS
10
157.119
20
-66.2353
11
157.123
21
-66.2376
0
LINE
8
BLACK
6
CONTINUOUS
10
157.123
20
-66.2376
11
157.127
21
-66.2398
0
LINE
8
BLACK
6
CONTINUOUS
10
157.127
20
-66.2398
11
157.127
21
-66.24
0
LINE
8
BLACK
6
CONTINUOUS
10
157.127
20
-66.24
11
157.127
21
-66.24
0
LINE
8
BLACK
6
CONTINUOUS
10
157.127
20
-66.24
11
157.131
21
-66.243
0
LINE
8
BLACK
6
CONTINUOUS
10
157.131
20
-66.243
11
157.134
21
-66.2461
0
LINE
8
BLACK
6
CONTINUOUS
10
157.134
20
-66.2461
11
157.135
21
-66.2462
0
LINE
8
BLACK
6
CONTINUOUS
10
157.135
20
-66.2462
11
157.135
21
-66.2463
0
LINE
8
BLACK
6
CONTINUOUS
10
157.135
20
-66.2463
11
157.138
21
-66.2499
0
LINE
8
BLACK
6
CONTINUOUS
10
157.138
20
-66.2499
11
157.141
21
-66.2536
0
LINE
8
BLACK
6
CONTINUOUS
10
157.141
20
-66.2536
11
157.141
21
-66.2538
0
LINE
8
BLACK
6
CONTINUOUS
10
157.141
20
-66.2538
11
157.141
21
-66.2539
0
LINE
8
BLACK
6
CONTINUOUS
10
157.141
20
-66.2539
11
157.143
21
-66.258
0
LINE
8
BLACK
6
CONTINUOUS
10
157.143
20
-66.258
11
157.145
21
-66.2622
0
LINE
8
BLACK
6
CONTINUOUS
10
157.145
20
-66.2622
11
157.145
21
-66.2624
0
LINE
8
BLACK
6
CONTINUOUS
10
157.145
20
-66.2624
11
157.145
21
-66.2626
0
LINE
8
BLACK
6
CONTINUOUS
10
157.145
20
-66.2626
11
157.147
21
-66.267
0
LINE
8
BLACK
6
CONTINUOUS
10
157.147
20
-66.267
11
157.148
21
-66.2716
0
LINE
8
BLACK
6
CONTINUOUS
10
157.148
20
-66.2716
11
157.148
21
-66.2718
0
LINE
8
BLACK
6
CONTINUOUS
10
157.148
20
-66.2718
11
157.148
21
-66.2719
0
LINE
8
BLACK
6
CONTINUOUS
10
157.148
20
-66.2719
11
157.149
21
-66.2766
0
LINE
8
BLACK
6
CONTINUOUS
10
157.149
20
-66.2766
11
157.149
21
-66.2813
0
LINE
8
BLACK
6
CONTINUOUS
10
157.149
20
-66.2813
11
157.149
21
-72.6313
0
LINE
8
BLACK
6
CONTINUOUS
10
157.149
20
-72.6313
11
157.149
21
-72.6316
0
LINE
8
BLACK
6
CONTINUOUS
10
157.149
20
-72.6316
11
157.149
21
-72.6316
0
LINE
8
BLACK
6
CONTINUOUS
10
157.149
20
-72.6316
11
157.149
21
-72.6317
0
LINE
8
BLACK
6
CONTINUOUS
10
157.149
20
-72.6317
11
157.149
21
-72.632
0
LINE
8
BLACK
6
CONTINUOUS
10
157.149
20
-72.632
11
157.148
21
-72.6366
0
LINE
8
BLACK
6
CONTINUOUS
10
157.148
20
-72.6366
11
157.148
21
-72.6414
0
LINE
8
BLACK
6
CONTINUOUS
10
157.148
20
-72.6414
11
157.148
21
-72.6415
0
LINE
8
BLACK
6
CONTINUOUS
10
157.148
20
-72.6415
11
157.148
21
-72.6417
0
LINE
8
BLACK
6
CONTINUOUS
10
157.148
20
-72.6417
11
157.146
21
-72.6462
0
LINE
8
BLACK
6
CONTINUOUS
10
157.146
20
-72.6462
11
157.145
21
-72.6507
0
LINE
8
BLACK
6
CONTINUOUS
10
157.145
20
-72.6507
11
157.145
21
-72.6508
0
LINE
8
BLACK
6
CONTINUOUS
10
157.145
20
-72.6508
11
157.145
21
-72.651
0
LINE
8
BLACK
6
CONTINUOUS
10
157.145
20
-72.651
11
157.143
21
-72.6551
0
LINE
8
BLACK
6
CONTINUOUS
10
157.143
20
-72.6551
11
157.14
21
-72.6593
0
LINE
8
BLACK
6
CONTINUOUS
10
157.14
20
-72.6593
11
157.14
21
-72.6594
0
LINE
8
BLACK
6
CONTINUOUS
10
157.14
20
-72.6594
11
157.14
21
-72.6595
0
LINE
8
BLACK
6
CONTINUOUS
10
157.14
20
-72.6595
11
157.137
21
-72.6631
0
LINE
8
BLACK
6
CONTINUOUS
10
157.137
20
-72.6631
11
157.134
21
-72.6668
0
LINE
8
BLACK
6
CONTINUOUS
10
157.134
20
-72.6668
11
157.134
21
-72.6669
0
LINE
8
BLACK
6
CONTINUOUS
10
157.134
20
-72.6669
11
157.134
21
-72.667
0
LINE
8
BLACK
6
CONTINUOUS
10
157.134
20
-72.667
11
157.13
21
-72.6699
0
LINE
8
BLACK
6
CONTINUOUS
10
157.13
20
-72.6699
11
157.127
21
-72.6729
0
LINE
8
BLACK
6
CONTINUOUS
10
157.127
20
-72.6729
11
157.127
21
-72.673
0
LINE
8
BLACK
6
CONTINUOUS
10
157.127
20
-72.673
11
157.126
21
-72.6731
0
LINE
8
BLACK
6
CONTINUOUS
10
157.126
20
-72.6731
11
157.122
21
-72.6753
0
LINE
8
BLACK
6
CONTINUOUS
10
157.122
20
-72.6753
11
157.118
21
-72.6775
0
LINE
8
BLACK
6
CONTINUOUS
10
157.118
20
-72.6775
11
157.118
21
-72.6776
0
LINE
8
BLACK
6
CONTINUOUS
10
157.118
20
-72.6776
11
157.118
21
-72.6777
0
LINE
8
BLACK
6
CONTINUOUS
10
157.118
20
-72.6777
11
157.113
21
-72.679
0
LINE
8
BLACK
6
CONTINUOUS
10
157.113
20
-72.679
11
157.109
21
-72.6803
0
LINE
8
BLACK
6
CONTINUOUS
10
157.109
20
-72.6803
11
157.109
21
-72.6804
0
LINE
8
BLACK
6
CONTINUOUS
10
157.109
20
-72.6804
11
157.108
21
-72.6804
0
LINE
8
BLACK
6
CONTINUOUS
10
157.108
20
-72.6804
11
157.104
21
-72.6808
0
LINE
8
BLACK
6
CONTINUOUS
10
157.104
20
-72.6808
11
157.099
21
-72.6813
0
LINE
8
BLACK
6
CONTINUOUS
10
157.099
20
-72.6813
11
150.939
21
-72.6813
0
LINE
8
BLACK
6
CONTINUOUS
10
150.939
20
-72.6813
11
150.939
21
-72.6813
0
LINE
8
BLACK
6
CONTINUOUS
10
150.939
20
-72.6813
11
150.939
21
-72.6813
0
LINE
8
BLACK
6
CONTINUOUS
10
150.939
20
-72.6813
11
150.939
21
-72.6813
0
LINE
8
BLACK
6
CONTINUOUS
10
150.939
20
-72.6813
11
150.939
21
-72.6813
0
LINE
8
BLACK
6
CONTINUOUS
10
150.939
20
-72.6813
11
150.934
21
-72.6808
0
LINE
8
BLACK
6
CONTINUOUS
10
150.934
20
-72.6808
11
150.929
21
-72.6803
0
LINE
8
BLACK
6
CONTINUOUS
10
150.929
20
-72.6803
11
150.929
21
-72.6802
0
LINE
8
BLACK
6
CONTINUOUS
10
150.929
20
-72.6802
11
150.929
21
-72.6802
0
LINE
8
BLACK
6
CONTINUOUS
10
150.929
20
-72.6802
11
150.925
21
-72.6788
0
LINE
8
BLACK
6
CONTINUOUS
10
150.925
20
-72.6788
11
150.92
21
-72.6774
0
LINE
8
BLACK
6
CONTINUOUS
10
150.92
20
-72.6774
11
150.92
21
-72.6773
0
LINE
8
BLACK
6
CONTINUOUS
10
150.92
20
-72.6773
11
150.92
21
-72.6773
0
LINE
8
BLACK
6
CONTINUOUS
10
150.92
20
-72.6773
11
150.916
21
-72.675
0
LINE
8
BLACK
6
CONTINUOUS
10
150.916
20
-72.675
11
150.912
21
-72.6728
0
LINE
8
BLACK
6
CONTINUOUS
10
150.912
20
-72.6728
11
150.911
21
-72.6726
0
LINE
8
BLACK
6
CONTINUOUS
10
150.911
20
-72.6726
11
150.911
21
-72.6726
0
LINE
8
BLACK
6
CONTINUOUS
10
150.911
20
-72.6726
11
150.908
21
-72.6696
0
LINE
8
BLACK
6
CONTINUOUS
10
150.908
20
-72.6696
11
150.904
21
-72.6665
0
LINE
8
BLACK
6
CONTINUOUS
10
150.904
20
-72.6665
11
150.904
21
-72.6664
0
LINE
8
BLACK
6
CONTINUOUS
10
150.904
20
-72.6664
11
150.904
21
-72.6663
0
LINE
8
BLACK
6
CONTINUOUS
10
150.904
20
-72.6663
11
150.901
21
-72.6627
0
LINE
8
BLACK
6
CONTINUOUS
10
150.901
20
-72.6627
11
150.898
21
-72.659
0
LINE
8
BLACK
6
CONTINUOUS
10
150.898
20
-72.659
11
150.898
21
-72.6588
0
LINE
8
BLACK
6
CONTINUOUS
10
150.898
20
-72.6588
11
150.898
21
-72.6587
0
LINE
8
BLACK
6
CONTINUOUS
10
150.898
20
-72.6587
11
150.896
21
-72.6546
0
LINE
8
BLACK
6
CONTINUOUS
10
150.896
20
-72.6546
11
150.893
21
-72.6504
0
LINE
8
BLACK
6
CONTINUOUS
10
150.893
20
-72.6504
11
150.893
21
-72.6502
0
LINE
8
BLACK
6
CONTINUOUS
10
150.893
20
-72.6502
11
150.893
21
-72.65
0
LINE
8
BLACK
6
CONTINUOUS
10
150.893
20
-72.65
11
150.892
21
-72.6456
0
LINE
8
BLACK
6
CONTINUOUS
10
150.892
20
-72.6456
11
150.89
21
-72.641
0
LINE
8
BLACK
6
CONTINUOUS
10
150.89
20
-72.641
11
150.89
21
-72.6408
0
LINE
8
BLACK
6
CONTINUOUS
10
150.89
20
-72.6408
11
150.89
21
-72.6407
0
LINE
8
BLACK
6
CONTINUOUS
10
150.89
20
-72.6407
11
150.89
21
-72.636
0
LINE
8
BLACK
6
CONTINUOUS
10
150.89
20
-72.636
11
150.889
21
-72.6313
0
LINE
8
BLACK
6
CONTINUOUS
10
150.889
20
-72.6313
11
150.889
21
-66.2813
0
LINE
8
BLACK
6
CONTINUOUS
10
150.889
20
-66.2813
11
150.89
21
-66.281
0
LINE
8
BLACK
6
CONTINUOUS
10
150.89
20
-66.281
11
150.89
21
-66.281
0
LINE
8
BLACK
6
CONTINUOUS
10
150.89
20
-66.281
11
150.89
21
-66.2809
0
LINE
8
BLACK
6
CONTINUOUS
10
150.89
20
-66.2809
11
150.89
21
-66.2806
0
LINE
8
BLACK
6
CONTINUOUS
10
150.89
20
-66.2806
11
150.89
21
-66.276
0
LINE
8
BLACK
6
CONTINUOUS
10
150.89
20
-66.276
11
150.891
21
-66.2712
0
LINE
8
BLACK
6
CONTINUOUS
10
150.891
20
-66.2712
11
150.891
21
-66.2711
0
LINE
8
BLACK
6
CONTINUOUS
10
150.891
20
-66.2711
11
150.891
21
-66.2709
0
LINE
8
BLACK
6
CONTINUOUS
10
150.891
20
-66.2709
11
150.892
21
-66.2664
0
LINE
8
BLACK
6
CONTINUOUS
10
150.892
20
-66.2664
11
150.893
21
-66.2619
0
LINE
8
BLACK
6
CONTINUOUS
10
150.893
20
-66.2619
11
150.893
21
-66.2618
0
LINE
8
BLACK
6
CONTINUOUS
10
150.893
20
-66.2618
11
150.894
21
-66.2616
0
LINE
8
BLACK
6
CONTINUOUS
10
150.894
20
-66.2616
11
150.896
21
-66.2575
0
LINE
8
BLACK
6
CONTINUOUS
10
150.896
20
-66.2575
11
150.898
21
-66.2533
0
LINE
8
BLACK
6
CONTINUOUS
10
150.898
20
-66.2533
11
150.898
21
-66.2532
0
LINE
8
BLACK
6
CONTINUOUS
10
150.898
20
-66.2532
11
150.898
21
-66.2531
0
LINE
8
BLACK
6
CONTINUOUS
10
150.898
20
-66.2531
11
150.901
21
-66.2495
0
LINE
8
BLACK
6
CONTINUOUS
10
150.901
20
-66.2495
11
150.904
21
-66.2458
0
LINE
8
BLACK
6
CONTINUOUS
10
150.904
20
-66.2458
11
150.904
21
-66.2457
0
LINE
8
BLACK
6
CONTINUOUS
10
150.904
20
-66.2457
11
150.905
21
-66.2456
0
LINE
8
BLACK
6
CONTINUOUS
10
150.905
20
-66.2456
11
150.908
21
-66.2427
0
LINE
8
BLACK
6
CONTINUOUS
10
150.908
20
-66.2427
11
150.912
21
-66.2397
0
LINE
8
BLACK
6
CONTINUOUS
10
150.912
20
-66.2397
11
150.912
21
-66.2396
0
LINE
8
BLACK
6
CONTINUOUS
10
150.912
20
-66.2396
11
150.912
21
-66.2395
0
LINE
8
BLACK
6
CONTINUOUS
10
150.912
20
-66.2395
11
150.916
21
-66.2373
0
LINE
8
BLACK
6
CONTINUOUS
10
150.916
20
-66.2373
11
150.92
21
-66.2351
0
LINE
8
BLACK
6
CONTINUOUS
10
150.92
20
-66.2351
11
150.921
21
-66.235
0
LINE
8
BLACK
6
CONTINUOUS
10
150.921
20
-66.235
11
150.921
21
-66.2349
0
LINE
8
BLACK
6
CONTINUOUS
10
150.921
20
-66.2349
11
150.925
21
-66.2336
0
LINE
8
BLACK
6
CONTINUOUS
10
150.925
20
-66.2336
11
150.93
21
-66.2323
0
LINE
8
BLACK
6
CONTINUOUS
10
150.93
20
-66.2323
11
150.93
21
-66.2322
0
LINE
8
BLACK
6
CONTINUOUS
10
150.93
20
-66.2322
11
150.93
21
-66.2322
0
LINE
8
BLACK
6
CONTINUOUS
10
150.93
20
-66.2322
11
150.935
21
-66.2318
0
LINE
8
BLACK
6
CONTINUOUS
10
150.935
20
-66.2318
11
150.939
21
-66.2313
0
LINE
8
BLACK
6
CONTINUOUS
10
150.939
20
-66.2313
11
157.099
21
-66.2313
0
LINE
8
BLACK
6
CONTINUOUS
10
157.099
20
-66.2313
11
157.099
21
-66.2313
0
LINE
8
BLACK
6
CONTINUOUS
10
85.1538
20
-66.1678
11
85.1538
21
-66.1678
0
LINE
8
BLACK
6
CONTINUOUS
10
85.1538
20
-66.1678
11
85.1539
21
-66.1678
0
LINE
8
BLACK
6
CONTINUOUS
10
85.1539
20
-66.1678
11
85.1542
21
-66.1678
0
LINE
8
BLACK
6
CONTINUOUS
10
85.1542
20
-66.1678
11
85.1588
21
-66.1683
0
LINE
8
BLACK
6
CONTINUOUS
10
85.1588
20
-66.1683
11
85.1636
21
-66.1688
0
LINE
8
BLACK
6
CONTINUOUS
10
85.1636
20
-66.1688
11
85.1637
21
-66.1689
0
LINE
8
BLACK
6
CONTINUOUS
10
85.1637
20
-66.1689
11
85.1639
21
-66.1689
0
LINE
8
BLACK
6
CONTINUOUS
10
85.1639
20
-66.1689
11
85.1684
21
-66.1703
0
LINE
8
BLACK
6
CONTINUOUS
10
85.1684
20
-66.1703
11
85.1729
21
-66.1717
0
LINE
8
BLACK
6
CONTINUOUS
10
85.1729
20
-66.1717
11
85.173
21
-66.1718
0
LINE
8
BLACK
6
CONTINUOUS
10
85.173
20
-66.1718
11
85.1732
21
-66.1718
0
LINE
8
BLACK
6
CONTINUOUS
10
85.1732
20
-66.1718
11
85.1773
21
-66.1741
0
LINE
8
BLACK
6
CONTINUOUS
10
85.1773
20
-66.1741
11
85.1815
21
-66.1763
0
LINE
8
BLACK
6
CONTINUOUS
10
85.1815
20
-66.1763
11
85.1816
21
-66.1765
0
LINE
8
BLACK
6
CONTINUOUS
10
85.1816
20
-66.1765
11
85.1817
21
-66.1765
0
LINE
8
BLACK
6
CONTINUOUS
10
85.1817
20
-66.1765
11
85.1853
21
-66.1795
0
LINE
8
BLACK
6
CONTINUOUS
10
85.1853
20
-66.1795
11
85.189
21
-66.1826
0
LINE
8
BLACK
6
CONTINUOUS
10
85.189
20
-66.1826
11
85.1891
21
-66.1827
0
LINE
8
BLACK
6
CONTINUOUS
10
85.1891
20
-66.1827
11
85.1892
21
-66.1828
0
LINE
8
BLACK
6
CONTINUOUS
10
85.1892
20
-66.1828
11
85.1921
21
-66.1864
0
LINE
8
BLACK
6
CONTINUOUS
10
85.1921
20
-66.1864
11
85.1951
21
-66.1901
0
LINE
8
BLACK
6
CONTINUOUS
10
85.1951
20
-66.1901
11
85.1952
21
-66.1903
0
LINE
8
BLACK
6
CONTINUOUS
10
85.1952
20
-66.1903
11
85.1953
21
-66.1904
0
LINE
8
BLACK
6
CONTINUOUS
10
85.1953
20
-66.1904
11
85.1975
21
-66.1945
0
LINE
8
BLACK
6
CONTINUOUS
10
85.1975
20
-66.1945
11
85.1997
21
-66.1987
0
LINE
8
BLACK
6
CONTINUOUS
10
85.1997
20
-66.1987
11
85.1998
21
-66.1989
0
LINE
8
BLACK
6
CONTINUOUS
10
85.1998
20
-66.1989
11
85.1999
21
-66.1991
0
LINE
8
BLACK
6
CONTINUOUS
10
85.1999
20
-66.1991
11
85.2012
21
-66.2035
0
LINE
8
BLACK
6
CONTINUOUS
10
85.2012
20
-66.2035
11
85.2025
21
-66.2081
0
LINE
8
BLACK
6
CONTINUOUS
10
85.2025
20
-66.2081
11
85.2026
21
-66.2083
0
LINE
8
BLACK
6
CONTINUOUS
10
85.2026
20
-66.2083
11
85.2026
21
-66.2084
0
LINE
8
BLACK
6
CONTINUOUS
10
85.2026
20
-66.2084
11
85.203
21
-66.2131
0
LINE
8
BLACK
6
CONTINUOUS
10
85.203
20
-66.2131
11
85.2035
21
-66.2178
0
LINE
8
BLACK
6
CONTINUOUS
10
85.2035
20
-66.2178
11
85.2035
21
-72.5678
0
LINE
8
BLACK
6
CONTINUOUS
10
85.2035
20
-72.5678
11
85.2035
21
-72.5681
0
LINE
8
BLACK
6
CONTINUOUS
10
85.2035
20
-72.5681
11
85.2035
21
-72.5681
0
LINE
8
BLACK
6
CONTINUOUS
10
85.2035
20
-72.5681
11
85.2035
21
-72.5682
0
LINE
8
BLACK
6
CONTINUOUS
10
85.2035
20
-72.5682
11
85.2035
21
-72.5685
0
LINE
8
BLACK
6
CONTINUOUS
10
85.2035
20
-72.5685
11
85.203
21
-72.5731
0
LINE
8
BLACK
6
CONTINUOUS
10
85.203
20
-72.5731
11
85.2025
21
-72.5779
0
LINE
8
BLACK
6
CONTINUOUS
10
85.2025
20
-72.5779
11
85.2024
21
-72.578
0
LINE
8
BLACK
6
CONTINUOUS
10
85.2024
20
-72.578
11
85.2024
21
-72.5782
0
LINE
8
BLACK
6
CONTINUOUS
10
85.2024
20
-72.5782
11
85.201
21
-72.5827
0
LINE
8
BLACK
6
CONTINUOUS
10
85.201
20
-72.5827
11
85.1996
21
-72.5872
0
LINE
8
BLACK
6
CONTINUOUS
10
85.1996
20
-72.5872
11
85.1995
21
-72.5873
0
LINE
8
BLACK
6
CONTINUOUS
10
85.1995
20
-72.5873
11
85.1995
21
-72.5875
0
LINE
8
BLACK
6
CONTINUOUS
10
85.1995
20
-72.5875
11
85.1972
21
-72.5916
0
LINE
8
BLACK
6
CONTINUOUS
10
85.1972
20
-72.5916
11
85.195
21
-72.5958
0
LINE
8
BLACK
6
CONTINUOUS
10
85.195
20
-72.5958
11
85.1948
21
-72.5959
0
LINE
8
BLACK
6
CONTINUOUS
10
85.1948
20
-72.5959
11
85.1948
21
-72.596
0
LINE
8
BLACK
6
CONTINUOUS
10
85.1948
20
-72.596
11
85.1918
21
-72.5996
0
LINE
8
BLACK
6
CONTINUOUS
10
85.1918
20
-72.5996
11
85.1887
21
-72.6033
0
LINE
8
BLACK
6
CONTINUOUS
10
85.1887
20
-72.6033
11
85.1886
21
-72.6034
0
LINE
8
BLACK
6
CONTINUOUS
10
85.1886
20
-72.6034
11
85.1885
21
-72.6035
0
LINE
8
BLACK
6
CONTINUOUS
10
85.1885
20
-72.6035
11
85.1849
21
-72.6064
0
LINE
8
BLACK
6
CONTINUOUS
10
85.1849
20
-72.6064
11
85.1812
21
-72.6094
0
LINE
8
BLACK
6
CONTINUOUS
10
85.1812
20
-72.6094
11
85.181
21
-72.6095
0
LINE
8
BLACK
6
CONTINUOUS
10
85.181
20
-72.6095
11
85.1809
21
-72.6096
0
LINE
8
BLACK
6
CONTINUOUS
10
85.1809
20
-72.6096
11
85.1768
21
-72.6118
0
LINE
8
BLACK
6
CONTINUOUS
10
85.1768
20
-72.6118
11
85.1726
21
-72.614
0
LINE
8
BLACK
6
CONTINUOUS
10
85.1726
20
-72.614
11
85.1724
21
-72.6141
0
LINE
8
BLACK
6
CONTINUOUS
10
85.1724
20
-72.6141
11
85.1722
21
-72.6142
0
LINE
8
BLACK
6
CONTINUOUS
10
85.1722
20
-72.6142
11
85.1678
21
-72.6155
0
LINE
8
BLACK
6
CONTINUOUS
10
85.1678
20
-72.6155
11
85.1632
21
-72.6168
0
LINE
8
BLACK
6
CONTINUOUS
10
85.1632
20
-72.6168
11
85.163
21
-72.6169
0
LINE
8
BLACK
6
CONTINUOUS
10
85.163
20
-72.6169
11
85.1629
21
-72.6169
0
LINE
8
BLACK
6
CONTINUOUS
10
85.1629
20
-72.6169
11
85.1582
21
-72.6173
0
LINE
8
BLACK
6
CONTINUOUS
10
85.1582
20
-72.6173
11
85.1535
21
-72.6178
0
LINE
8
BLACK
6
CONTINUOUS
10
85.1535
20
-72.6178
11
78.994
21
-72.6178
0
LINE
8
BLACK
6
CONTINUOUS
10
78.994
20
-72.6178
11
78.9937
21
-72.6178
0
LINE
8
BLACK
6
CONTINUOUS
10
78.9937
20
-72.6178
11
78.9937
21
-72.6178
0
LINE
8
BLACK
6
CONTINUOUS
10
78.9937
20
-72.6178
11
78.9936
21
-72.6178
0
LINE
8
BLACK
6
CONTINUOUS
10
78.9936
20
-72.6178
11
78.9933
21
-72.6178
0
LINE
8
BLACK
6
CONTINUOUS
10
78.9933
20
-72.6178
11
78.9887
21
-72.6173
0
LINE
8
BLACK
6
CONTINUOUS
10
78.9887
20
-72.6173
11
78.9839
21
-72.6168
0
LINE
8
BLACK
6
CONTINUOUS
10
78.9839
20
-72.6168
11
78.9838
21
-72.6167
0
LINE
8
BLACK
6
CONTINUOUS
10
78.9838
20
-72.6167
11
78.9836
21
-72.6167
0
LINE
8
BLACK
6
CONTINUOUS
10
78.9836
20
-72.6167
11
78.9791
21
-72.6153
0
LINE
8
BLACK
6
CONTINUOUS
10
78.9791
20
-72.6153
11
78.9746
21
-72.6139
0
LINE
8
BLACK
6
CONTINUOUS
10
78.9746
20
-72.6139
11
78.9745
21
-72.6138
0
LINE
8
BLACK
6
CONTINUOUS
10
78.9745
20
-72.6138
11
78.9743
21
-72.6138
0
LINE
8
BLACK
6
CONTINUOUS
10
78.9743
20
-72.6138
11
78.9702
21
-72.6115
0
LINE
8
BLACK
6
CONTINUOUS
10
78.9702
20
-72.6115
11
78.966
21
-72.6093
0
LINE
8
BLACK
6
CONTINUOUS
10
78.966
20
-72.6093
11
78.9659
21
-72.6091
0
LINE
8
BLACK
6
CONTINUOUS
10
78.9659
20
-72.6091
11
78.9658
21
-72.6091
0
LINE
8
BLACK
6
CONTINUOUS
10
78.9658
20
-72.6091
11
78.9622
21
-72.6061
0
LINE
8
BLACK
6
CONTINUOUS
10
78.9622
20
-72.6061
11
78.9585
21
-72.603
0
LINE
8
BLACK
6
CONTINUOUS
10
78.9585
20
-72.603
11
78.9584
21
-72.6029
0
LINE
8
BLACK
6
CONTINUOUS
10
78.9584
20
-72.6029
11
78.9583
21
-72.6028
0
LINE
8
BLACK
6
CONTINUOUS
10
78.9583
20
-72.6028
11
78.9554
21
-72.5992
0
LINE
8
BLACK
6
CONTINUOUS
10
78.9554
20
-72.5992
11
78.9524
21
-72.5955
0
LINE
8
BLACK
6
CONTINUOUS
10
78.9524
20
-72.5955
11
78.9523
21
-72.5953
0
LINE
8
BLACK
6
CONTINUOUS
10
78.9523
20
-72.5953
11
78.9522
21
-72.5952
0
LINE
8
BLACK
6
CONTINUOUS
10
78.9522
20
-72.5952
11
78.95
21
-72.5911
0
LINE
8
BLACK
6
CONTINUOUS
10
78.95
20
-72.5911
11
78.9478
21
-72.5869
0
LINE
8
BLACK
6
CONTINUOUS
10
78.9478
20
-72.5869
11
78.9477
21
-72.5867
0
LINE
8
BLACK
6
CONTINUOUS
10
78.9477
20
-72.5867
11
78.9476
21
-72.5865
0
LINE
8
BLACK
6
CONTINUOUS
10
78.9476
20
-72.5865
11
78.9463
21
-72.5821
0
LINE
8
BLACK
6
CONTINUOUS
10
78.9463
20
-72.5821
11
78.945
21
-72.5775
0
LINE
8
BLACK
6
CONTINUOUS
10
78.945
20
-72.5775
11
78.9449
21
-72.5773
0
LINE
8
BLACK
6
CONTINUOUS
10
78.9449
20
-72.5773
11
78.9449
21
-72.5772
0
LINE
8
BLACK
6
CONTINUOUS
10
78.9449
20
-72.5772
11
78.9445
21
-72.5725
0
LINE
8
BLACK
6
CONTINUOUS
10
78.9445
20
-72.5725
11
78.944
21
-72.5678
0
LINE
8
BLACK
6
CONTINUOUS
10
78.944
20
-72.5678
11
78.944
21
-66.2178
0
LINE
8
BLACK
6
CONTINUOUS
10
78.944
20
-66.2178
11
78.944
21
-66.2175
0
LINE
8
BLACK
6
CONTINUOUS
10
78.944
20
-66.2175
11
78.944
21
-66.2175
0
LINE
8
BLACK
6
CONTINUOUS
10
78.944
20
-66.2175
11
78.944
21
-66.2174
0
LINE
8
BLACK
6
CONTINUOUS
10
78.944
20
-66.2174
11
78.944
21
-66.2171
0
LINE
8
BLACK
6
CONTINUOUS
10
78.944
20
-66.2171
11
78.9445
21
-66.2125
0
LINE
8
BLACK
6
CONTINUOUS
10
78.9445
20
-66.2125
11
78.945
21
-66.2077
0
LINE
8
BLACK
6
CONTINUOUS
10
78.945
20
-66.2077
11
78.9451
21
-66.2076
0
LINE
8
BLACK
6
CONTINUOUS
10
78.9451
20
-66.2076
11
78.9451
21
-66.2074
0
LINE
8
BLACK
6
CONTINUOUS
10
78.9451
20
-66.2074
11
78.9465
21
-66.2029
0
LINE
8
BLACK
6
CONTINUOUS
10
78.9465
20
-66.2029
11
78.9479
21
-66.1984
0
LINE
8
BLACK
6
CONTINUOUS
10
78.9479
20
-66.1984
11
78.948
21
-66.1983
0
LINE
8
BLACK
6
CONTINUOUS
10
78.948
20
-66.1983
11
78.948
21
-66.1981
0
LINE
8
BLACK
6
CONTINUOUS
10
78.948
20
-66.1981
11
78.9503
21
-66.194
0
LINE
8
BLACK
6
CONTINUOUS
10
78.9503
20
-66.194
11
78.9525
21
-66.1898
0
LINE
8
BLACK
6
CONTINUOUS
10
78.9525
20
-66.1898
11
78.9527
21
-66.1897
0
LINE
8
BLACK
6
CONTINUOUS
10
78.9527
20
-66.1897
11
78.9527
21
-66.1896
0
LINE
8
BLACK
6
CONTINUOUS
10
78.9527
20
-66.1896
11
78.9557
21
-66.186
0
LINE
8
BLACK
6
CONTINUOUS
10
78.9557
20
-66.186
11
78.9588
21
-66.1823
0
LINE
8
BLACK
6
CONTINUOUS
10
78.9588
20
-66.1823
11
78.9589
21
-66.1822
0
LINE
8
BLACK
6
CONTINUOUS
10
78.9589
20
-66.1822
11
78.959
21
-66.1821
0
LINE
8
BLACK
6
CONTINUOUS
10
78.959
20
-66.1821
11
78.9626
21
-66.1792
0
LINE
8
BLACK
6
CONTINUOUS
10
78.9626
20
-66.1792
11
78.9663
21
-66.1762
0
LINE
8
BLACK
6
CONTINUOUS
10
78.9663
20
-66.1762
11
78.9665
21
-66.1761
0
LINE
8
BLACK
6
CONTINUOUS
10
78.9665
20
-66.1761
11
78.9666
21
-66.176
0
LINE
8
BLACK
6
CONTINUOUS
10
78.9666
20
-66.176
11
78.9707
21
-66.1738
0
LINE
8
BLACK
6
CONTINUOUS
10
78.9707
20
-66.1738
11
78.9749
21
-66.1716
0
LINE
8
BLACK
6
CONTINUOUS
10
78.9749
20
-66.1716
11
78.9751
21
-66.1715
0
LINE
8
BLACK
6
CONTINUOUS
10
78.9751
20
-66.1715
11
78.9753
21
-66.1714
0
LINE
8
BLACK
6
CONTINUOUS
10
78.9753
20
-66.1714
11
78.9797
21
-66.1701
0
LINE
8
BLACK
6
CONTINUOUS
10
78.9797
20
-66.1701
11
78.9843
21
-66.1688
0
LINE
8
BLACK
6
CONTINUOUS
10
78.9843
20
-66.1688
11
78.9845
21
-66.1687
0
LINE
8
BLACK
6
CONTINUOUS
10
78.9845
20
-66.1687
11
78.9846
21
-66.1687
0
LINE
8
BLACK
6
CONTINUOUS
10
78.9846
20
-66.1687
11
78.9893
21
-66.1683
0
LINE
8
BLACK
6
CONTINUOUS
10
78.9893
20
-66.1683
11
78.994
21
-66.1678
0
LINE
8
BLACK
6
CONTINUOUS
10
78.994
20
-66.1678
11
85.1535
21
-66.1678
0
LINE
8
BLACK
6
CONTINUOUS
10
85.1535
20
-66.1678
11
85.1538
21
-66.1678
  0
ENDSEC
  0
EOF
