%TF.GenerationSoftware,KiCad,Pcbnew,(5.1.9)-1*%
%TF.CreationDate,2021-11-07T21:10:23+00:00*%
%TF.ProjectId,RGBtoHDMI Amiga Denise CPLD FFC - CDTV Video Slot - Face Plate,52474274-6f48-4444-9d49-20416d696761,1*%
%TF.SameCoordinates,Original*%
%TF.FileFunction,Copper,L1,Top*%
%TF.FilePolarity,Positive*%
%FSLAX46Y46*%
G04 Gerber Fmt 4.6, Leading zero omitted, Abs format (unit mm)*
G04 Created by KiCad (PCBNEW (5.1.9)-1) date 2021-11-07 21:10:23*
%MOMM*%
%LPD*%
G01*
G04 APERTURE LIST*
%TA.AperFunction,EtchedComponent*%
%ADD10C,0.100000*%
%TD*%
G04 APERTURE END LIST*
D10*
%TO.C,solarmon*%
G36*
X120650000Y-92964000D02*
G01*
X120015000Y-92964000D01*
X120015000Y-92329000D01*
X120650000Y-92329000D01*
X120650000Y-92964000D01*
G37*
X120650000Y-92964000D02*
X120015000Y-92964000D01*
X120015000Y-92329000D01*
X120650000Y-92329000D01*
X120650000Y-92964000D01*
G36*
X120650000Y-96774000D02*
G01*
X120015000Y-96774000D01*
X120015000Y-96139000D01*
X120650000Y-96139000D01*
X120650000Y-96774000D01*
G37*
X120650000Y-96774000D02*
X120015000Y-96774000D01*
X120015000Y-96139000D01*
X120650000Y-96139000D01*
X120650000Y-96774000D01*
G36*
X119380000Y-92329000D02*
G01*
X118745000Y-92329000D01*
X118745000Y-91694000D01*
X119380000Y-91694000D01*
X119380000Y-92329000D01*
G37*
X119380000Y-92329000D02*
X118745000Y-92329000D01*
X118745000Y-91694000D01*
X119380000Y-91694000D01*
X119380000Y-92329000D01*
G36*
X119380000Y-92964000D02*
G01*
X118745000Y-92964000D01*
X118745000Y-92329000D01*
X119380000Y-92329000D01*
X119380000Y-92964000D01*
G37*
X119380000Y-92964000D02*
X118745000Y-92964000D01*
X118745000Y-92329000D01*
X119380000Y-92329000D01*
X119380000Y-92964000D01*
G36*
X118745000Y-92964000D02*
G01*
X118110000Y-92964000D01*
X118110000Y-92329000D01*
X118745000Y-92329000D01*
X118745000Y-92964000D01*
G37*
X118745000Y-92964000D02*
X118110000Y-92964000D01*
X118110000Y-92329000D01*
X118745000Y-92329000D01*
X118745000Y-92964000D01*
G36*
X118110000Y-92964000D02*
G01*
X117475000Y-92964000D01*
X117475000Y-92329000D01*
X118110000Y-92329000D01*
X118110000Y-92964000D01*
G37*
X118110000Y-92964000D02*
X117475000Y-92964000D01*
X117475000Y-92329000D01*
X118110000Y-92329000D01*
X118110000Y-92964000D01*
G36*
X118110000Y-92329000D02*
G01*
X117475000Y-92329000D01*
X117475000Y-91694000D01*
X118110000Y-91694000D01*
X118110000Y-92329000D01*
G37*
X118110000Y-92329000D02*
X117475000Y-92329000D01*
X117475000Y-91694000D01*
X118110000Y-91694000D01*
X118110000Y-92329000D01*
G36*
X117475000Y-92964000D02*
G01*
X116840000Y-92964000D01*
X116840000Y-92329000D01*
X117475000Y-92329000D01*
X117475000Y-92964000D01*
G37*
X117475000Y-92964000D02*
X116840000Y-92964000D01*
X116840000Y-92329000D01*
X117475000Y-92329000D01*
X117475000Y-92964000D01*
G36*
X116840000Y-92964000D02*
G01*
X116205000Y-92964000D01*
X116205000Y-92329000D01*
X116840000Y-92329000D01*
X116840000Y-92964000D01*
G37*
X116840000Y-92964000D02*
X116205000Y-92964000D01*
X116205000Y-92329000D01*
X116840000Y-92329000D01*
X116840000Y-92964000D01*
G36*
X116840000Y-95504000D02*
G01*
X116205000Y-95504000D01*
X116205000Y-94869000D01*
X116840000Y-94869000D01*
X116840000Y-95504000D01*
G37*
X116840000Y-95504000D02*
X116205000Y-95504000D01*
X116205000Y-94869000D01*
X116840000Y-94869000D01*
X116840000Y-95504000D01*
G36*
X117475000Y-95504000D02*
G01*
X116840000Y-95504000D01*
X116840000Y-94869000D01*
X117475000Y-94869000D01*
X117475000Y-95504000D01*
G37*
X117475000Y-95504000D02*
X116840000Y-95504000D01*
X116840000Y-94869000D01*
X117475000Y-94869000D01*
X117475000Y-95504000D01*
G36*
X118110000Y-95504000D02*
G01*
X117475000Y-95504000D01*
X117475000Y-94869000D01*
X118110000Y-94869000D01*
X118110000Y-95504000D01*
G37*
X118110000Y-95504000D02*
X117475000Y-95504000D01*
X117475000Y-94869000D01*
X118110000Y-94869000D01*
X118110000Y-95504000D01*
G36*
X119380000Y-95504000D02*
G01*
X118745000Y-95504000D01*
X118745000Y-94869000D01*
X119380000Y-94869000D01*
X119380000Y-95504000D01*
G37*
X119380000Y-95504000D02*
X118745000Y-95504000D01*
X118745000Y-94869000D01*
X119380000Y-94869000D01*
X119380000Y-95504000D01*
G36*
X119380000Y-96774000D02*
G01*
X118745000Y-96774000D01*
X118745000Y-96139000D01*
X119380000Y-96139000D01*
X119380000Y-96774000D01*
G37*
X119380000Y-96774000D02*
X118745000Y-96774000D01*
X118745000Y-96139000D01*
X119380000Y-96139000D01*
X119380000Y-96774000D01*
G36*
X116840000Y-96774000D02*
G01*
X116205000Y-96774000D01*
X116205000Y-96139000D01*
X116840000Y-96139000D01*
X116840000Y-96774000D01*
G37*
X116840000Y-96774000D02*
X116205000Y-96774000D01*
X116205000Y-96139000D01*
X116840000Y-96139000D01*
X116840000Y-96774000D01*
%TD*%
M02*
