  0
SECTION
  2
HEADER
  9
$ANGBASE
  50
0.0
  9
$ANGDIR
  70
1
  9
$MEASUREMENT
  70
1
  0
ENDSEC
  0
SECTION
  2
TABLES
  0
TABLE
  2
LTYPE
  70
4
  0
LTYPE
  5
40F
  2
CONTINUOUS
  70
0
  3
Solid line
  72
65
  73
0
  40
0.0
  0
LTYPE
  5
410
  2
DASHDOT
 70
0
  3
Dash Dot ____ _ ____ _
 72
65
 73
4
 40
2.0
 49
1.25
 49
-0.25
 49
0.25
 49
-0.25
  0
LTYPE
  5
411
  2
DASHED
 70
0
  3
Dashed __ __ __ __ __
 72
65
 73
2
 40
0.75
 49
0.5
 49
-0.25
  0
LTYPE
  5
43B
  2
DOTTED
 70
0
  3
Dotted .  .  .  .
 72
65
 73
2
 40
0.2
 49
0.0
 49
-0.2
  0
ENDTAB
  0
TABLE
  2
STYLE
  70
4
  0
STYLE
  2
KICAD
  70
0
  40
0
  41
1
  42
1
  50
0
  71
0
  3
isocp.shx
  0
STYLE
  2
KICADB
  70
0
  40
0
  41
1
  42
1
  50
0
  71
0
  3
isocp.shx
  0
STYLE
  2
KICADI
  70
0
  40
0
  41
1
  42
1
  50
15
  71
0
  3
isocp.shx
  0
STYLE
  2
KICADBI
  70
0
  40
0
  41
1
  42
1
  50
15
  71
0
  3
isocp.shx
  0
ENDTAB
  0
TABLE
  2
LAYER
  70
1
  0
LAYER
  2
BLACK
  70
0
  62
7
  6
CONTINUOUS
  0
ENDTAB
  0
ENDSEC
  0
SECTION
  2
ENTITIES
0
LINE
8
BLACK
6
CONTINUOUS
10
119.564
20
-94.5772
11
119.574
21
-94.5801
0
LINE
8
BLACK
6
CONTINUOUS
10
119.574
20
-94.5801
11
119.582
21
-94.5847
0
LINE
8
BLACK
6
CONTINUOUS
10
119.582
20
-94.5847
11
119.59
21
-94.5909
0
LINE
8
BLACK
6
CONTINUOUS
10
119.59
20
-94.5909
11
119.596
21
-94.5985
0
LINE
8
BLACK
6
CONTINUOUS
10
119.596
20
-94.5985
11
119.601
21
-94.6071
0
LINE
8
BLACK
6
CONTINUOUS
10
119.601
20
-94.6071
11
119.603
21
-94.6165
0
LINE
8
BLACK
6
CONTINUOUS
10
119.603
20
-94.6165
11
119.604
21
-94.6262
0
LINE
8
BLACK
6
CONTINUOUS
10
119.604
20
-94.6262
11
119.604
21
-95.6262
0
LINE
8
BLACK
6
CONTINUOUS
10
119.604
20
-95.6262
11
119.604
21
-95.6265
0
LINE
8
BLACK
6
CONTINUOUS
10
119.604
20
-95.6265
11
119.604
21
-95.6265
0
LINE
8
BLACK
6
CONTINUOUS
10
119.604
20
-95.6265
11
119.604
21
-95.6265
0
LINE
8
BLACK
6
CONTINUOUS
10
119.604
20
-95.6265
11
119.604
21
-95.6269
0
LINE
8
BLACK
6
CONTINUOUS
10
119.604
20
-95.6269
11
119.604
21
-95.6315
0
LINE
8
BLACK
6
CONTINUOUS
10
119.604
20
-95.6315
11
119.603
21
-95.6362
0
LINE
8
BLACK
6
CONTINUOUS
10
119.603
20
-95.6362
11
119.603
21
-95.6364
0
LINE
8
BLACK
6
CONTINUOUS
10
119.603
20
-95.6364
11
119.603
21
-95.6366
0
LINE
8
BLACK
6
CONTINUOUS
10
119.603
20
-95.6366
11
119.602
21
-95.641
0
LINE
8
BLACK
6
CONTINUOUS
10
119.602
20
-95.641
11
119.601
21
-95.6456
0
LINE
8
BLACK
6
CONTINUOUS
10
119.601
20
-95.6456
11
119.6
21
-95.6457
0
LINE
8
BLACK
6
CONTINUOUS
10
119.6
20
-95.6457
11
119.6
21
-95.6459
0
LINE
8
BLACK
6
CONTINUOUS
10
119.6
20
-95.6459
11
119.598
21
-95.65
0
LINE
8
BLACK
6
CONTINUOUS
10
119.598
20
-95.65
11
119.596
21
-95.6541
0
LINE
8
BLACK
6
CONTINUOUS
10
119.596
20
-95.6541
11
119.596
21
-95.6543
0
LINE
8
BLACK
6
CONTINUOUS
10
119.596
20
-95.6543
11
119.596
21
-95.6544
0
LINE
8
BLACK
6
CONTINUOUS
10
119.596
20
-95.6544
11
119.593
21
-95.658
0
LINE
8
BLACK
6
CONTINUOUS
10
119.593
20
-95.658
11
119.59
21
-95.6617
0
LINE
8
BLACK
6
CONTINUOUS
10
119.59
20
-95.6617
11
119.59
21
-95.6618
0
LINE
8
BLACK
6
CONTINUOUS
10
119.59
20
-95.6618
11
119.589
21
-95.6619
0
LINE
8
BLACK
6
CONTINUOUS
10
119.589
20
-95.6619
11
119.586
21
-95.6648
0
LINE
8
BLACK
6
CONTINUOUS
10
119.586
20
-95.6648
11
119.582
21
-95.6678
0
LINE
8
BLACK
6
CONTINUOUS
10
119.582
20
-95.6678
11
119.582
21
-95.6679
0
LINE
8
BLACK
6
CONTINUOUS
10
119.582
20
-95.6679
11
119.582
21
-95.668
0
LINE
8
BLACK
6
CONTINUOUS
10
119.582
20
-95.668
11
119.578
21
-95.6702
0
LINE
8
BLACK
6
CONTINUOUS
10
119.578
20
-95.6702
11
119.573
21
-95.6724
0
LINE
8
BLACK
6
CONTINUOUS
10
119.573
20
-95.6724
11
119.573
21
-95.6725
0
LINE
8
BLACK
6
CONTINUOUS
10
119.573
20
-95.6725
11
119.573
21
-95.6725
0
LINE
8
BLACK
6
CONTINUOUS
10
119.573
20
-95.6725
11
119.569
21
-95.6739
0
LINE
8
BLACK
6
CONTINUOUS
10
119.569
20
-95.6739
11
119.564
21
-95.6752
0
LINE
8
BLACK
6
CONTINUOUS
10
119.564
20
-95.6752
11
119.564
21
-95.6752
0
LINE
8
BLACK
6
CONTINUOUS
10
119.564
20
-95.6752
11
119.564
21
-95.6753
0
LINE
8
BLACK
6
CONTINUOUS
10
119.564
20
-95.6753
11
119.559
21
-95.6757
0
LINE
8
BLACK
6
CONTINUOUS
10
119.559
20
-95.6757
11
119.554
21
-95.6762
0
LINE
8
BLACK
6
CONTINUOUS
10
119.554
20
-95.6762
11
119.078
21
-95.6762
0
LINE
8
BLACK
6
CONTINUOUS
10
119.078
20
-95.6762
11
119.078
21
-95.6762
0
LINE
8
BLACK
6
CONTINUOUS
10
119.078
20
-95.6762
11
119.068
21
-95.6751
0
LINE
8
BLACK
6
CONTINUOUS
10
119.068
20
-95.6751
11
119.059
21
-95.6721
0
LINE
8
BLACK
6
CONTINUOUS
10
119.059
20
-95.6721
11
119.05
21
-95.6674
0
LINE
8
BLACK
6
CONTINUOUS
10
119.05
20
-95.6674
11
119.043
21
-95.6612
0
LINE
8
BLACK
6
CONTINUOUS
10
119.043
20
-95.6612
11
119.036
21
-95.6536
0
LINE
8
BLACK
6
CONTINUOUS
10
119.036
20
-95.6536
11
119.032
21
-95.6449
0
LINE
8
BLACK
6
CONTINUOUS
10
119.032
20
-95.6449
11
119.029
21
-95.6355
0
LINE
8
BLACK
6
CONTINUOUS
10
119.029
20
-95.6355
11
119.028
21
-95.6258
0
LINE
8
BLACK
6
CONTINUOUS
10
119.028
20
-95.6258
11
119.029
21
-95.6161
0
LINE
8
BLACK
6
CONTINUOUS
10
119.029
20
-95.6161
11
119.032
21
-95.6068
0
LINE
8
BLACK
6
CONTINUOUS
10
119.032
20
-95.6068
11
119.037
21
-95.5982
0
LINE
8
BLACK
6
CONTINUOUS
10
119.037
20
-95.5982
11
119.043
21
-95.5907
0
LINE
8
BLACK
6
CONTINUOUS
10
119.043
20
-95.5907
11
119.051
21
-95.5845
0
LINE
8
BLACK
6
CONTINUOUS
10
119.051
20
-95.5845
11
119.059
21
-95.58
0
LINE
8
BLACK
6
CONTINUOUS
10
119.059
20
-95.58
11
119.069
21
-95.5771
0
LINE
8
BLACK
6
CONTINUOUS
10
119.069
20
-95.5771
11
119.078
21
-95.5762
0
LINE
8
BLACK
6
CONTINUOUS
10
119.078
20
-95.5762
11
119.504
21
-95.5762
0
LINE
8
BLACK
6
CONTINUOUS
10
119.504
20
-95.5762
11
119.504
21
-94.6262
0
LINE
8
BLACK
6
CONTINUOUS
10
119.504
20
-94.6262
11
119.504
21
-94.6255
0
LINE
8
BLACK
6
CONTINUOUS
10
119.504
20
-94.6255
11
119.506
21
-94.6158
0
LINE
8
BLACK
6
CONTINUOUS
10
119.506
20
-94.6158
11
119.508
21
-94.6065
0
LINE
8
BLACK
6
CONTINUOUS
10
119.508
20
-94.6065
11
119.513
21
-94.5979
0
LINE
8
BLACK
6
CONTINUOUS
10
119.513
20
-94.5979
11
119.519
21
-94.5905
0
LINE
8
BLACK
6
CONTINUOUS
10
119.519
20
-94.5905
11
119.527
21
-94.5843
0
LINE
8
BLACK
6
CONTINUOUS
10
119.527
20
-94.5843
11
119.536
21
-94.5798
0
LINE
8
BLACK
6
CONTINUOUS
10
119.536
20
-94.5798
11
119.545
21
-94.5771
0
LINE
8
BLACK
6
CONTINUOUS
10
119.545
20
-94.5771
11
119.555
21
-94.5762
0
LINE
8
BLACK
6
CONTINUOUS
10
119.555
20
-94.5762
11
119.564
21
-94.5772
0
LINE
8
BLACK
6
CONTINUOUS
10
115.888
20
-94.5762
11
115.891
21
-94.5765
0
LINE
8
BLACK
6
CONTINUOUS
10
115.891
20
-94.5765
11
115.894
21
-94.5766
0
LINE
8
BLACK
6
CONTINUOUS
10
115.894
20
-94.5766
11
115.896
21
-94.577
0
LINE
8
BLACK
6
CONTINUOUS
10
115.896
20
-94.577
11
115.898
21
-94.5773
0
LINE
8
BLACK
6
CONTINUOUS
10
115.898
20
-94.5773
11
115.901
21
-94.5781
0
LINE
8
BLACK
6
CONTINUOUS
10
115.901
20
-94.5781
11
115.904
21
-94.5787
0
LINE
8
BLACK
6
CONTINUOUS
10
115.904
20
-94.5787
11
116.046
21
-94.6264
0
LINE
8
BLACK
6
CONTINUOUS
10
116.046
20
-94.6264
11
116.047
21
-94.6266
0
LINE
8
BLACK
6
CONTINUOUS
10
116.047
20
-94.6266
11
116.048
21
-94.6272
0
LINE
8
BLACK
6
CONTINUOUS
10
116.048
20
-94.6272
11
116.05
21
-94.6276
0
LINE
8
BLACK
6
CONTINUOUS
10
116.05
20
-94.6276
11
116.053
21
-94.6293
0
LINE
8
BLACK
6
CONTINUOUS
10
116.053
20
-94.6293
11
116.056
21
-94.6307
0
LINE
8
BLACK
6
CONTINUOUS
10
116.056
20
-94.6307
11
116.057
21
-94.6316
0
LINE
8
BLACK
6
CONTINUOUS
10
116.057
20
-94.6316
11
116.058
21
-94.6322
0
LINE
8
BLACK
6
CONTINUOUS
10
116.058
20
-94.6322
11
116.061
21
-94.6344
0
LINE
8
BLACK
6
CONTINUOUS
10
116.061
20
-94.6344
11
116.064
21
-94.6364
0
LINE
8
BLACK
6
CONTINUOUS
10
116.064
20
-94.6364
11
116.065
21
-94.6375
0
LINE
8
BLACK
6
CONTINUOUS
10
116.065
20
-94.6375
11
116.066
21
-94.6384
0
LINE
8
BLACK
6
CONTINUOUS
10
116.066
20
-94.6384
11
116.161
21
-94.7337
0
LINE
8
BLACK
6
CONTINUOUS
10
116.161
20
-94.7337
11
116.162
21
-94.7342
0
LINE
8
BLACK
6
CONTINUOUS
10
116.162
20
-94.7342
11
116.163
21
-94.7364
0
LINE
8
BLACK
6
CONTINUOUS
10
116.163
20
-94.7364
11
116.165
21
-94.7384
0
LINE
8
BLACK
6
CONTINUOUS
10
116.165
20
-94.7384
11
116.166
21
-94.7402
0
LINE
8
BLACK
6
CONTINUOUS
10
116.166
20
-94.7402
11
116.168
21
-94.7418
0
LINE
8
BLACK
6
CONTINUOUS
10
116.168
20
-94.7418
11
116.169
21
-94.7443
0
LINE
8
BLACK
6
CONTINUOUS
10
116.169
20
-94.7443
11
116.171
21
-94.7467
0
LINE
8
BLACK
6
CONTINUOUS
10
116.171
20
-94.7467
11
116.218
21
-94.8419
0
LINE
8
BLACK
6
CONTINUOUS
10
116.218
20
-94.8419
11
116.219
21
-94.8425
0
LINE
8
BLACK
6
CONTINUOUS
10
116.219
20
-94.8425
11
116.219
21
-94.8428
0
LINE
8
BLACK
6
CONTINUOUS
10
116.219
20
-94.8428
11
116.219
21
-94.843
0
LINE
8
BLACK
6
CONTINUOUS
10
116.219
20
-94.843
11
116.22
21
-94.8474
0
LINE
8
BLACK
6
CONTINUOUS
10
116.22
20
-94.8474
11
116.222
21
-94.8517
0
LINE
8
BLACK
6
CONTINUOUS
10
116.222
20
-94.8517
11
116.222
21
-94.8519
0
LINE
8
BLACK
6
CONTINUOUS
10
116.222
20
-94.8519
11
116.222
21
-94.8521
0
LINE
8
BLACK
6
CONTINUOUS
10
116.222
20
-94.8521
11
116.27
21
-95.0426
0
LINE
8
BLACK
6
CONTINUOUS
10
116.27
20
-95.0426
11
116.27
21
-95.0433
0
LINE
8
BLACK
6
CONTINUOUS
10
116.27
20
-95.0433
11
116.27
21
-95.0442
0
LINE
8
BLACK
6
CONTINUOUS
10
116.27
20
-95.0442
11
116.27
21
-95.045
0
LINE
8
BLACK
6
CONTINUOUS
10
116.27
20
-95.045
11
116.271
21
-95.049
0
LINE
8
BLACK
6
CONTINUOUS
10
116.271
20
-95.049
11
116.271
21
-95.053
0
LINE
8
BLACK
6
CONTINUOUS
10
116.271
20
-95.053
11
116.271
21
-95.0539
0
LINE
8
BLACK
6
CONTINUOUS
10
116.271
20
-95.0539
11
116.271
21
-95.0548
0
LINE
8
BLACK
6
CONTINUOUS
10
116.271
20
-95.0548
11
116.271
21
-95.1976
0
LINE
8
BLACK
6
CONTINUOUS
10
116.271
20
-95.1976
11
116.271
21
-95.1983
0
LINE
8
BLACK
6
CONTINUOUS
10
116.271
20
-95.1983
11
116.271
21
-95.1992
0
LINE
8
BLACK
6
CONTINUOUS
10
116.271
20
-95.1992
11
116.271
21
-95.2001
0
LINE
8
BLACK
6
CONTINUOUS
10
116.271
20
-95.2001
11
116.27
21
-95.204
0
LINE
8
BLACK
6
CONTINUOUS
10
116.27
20
-95.204
11
116.27
21
-95.208
0
LINE
8
BLACK
6
CONTINUOUS
10
116.27
20
-95.208
11
116.27
21
-95.2089
0
LINE
8
BLACK
6
CONTINUOUS
10
116.27
20
-95.2089
11
116.27
21
-95.2097
0
LINE
8
BLACK
6
CONTINUOUS
10
116.27
20
-95.2097
11
116.222
21
-95.4002
0
LINE
8
BLACK
6
CONTINUOUS
10
116.222
20
-95.4002
11
116.222
21
-95.4009
0
LINE
8
BLACK
6
CONTINUOUS
10
116.222
20
-95.4009
11
116.222
21
-95.4011
0
LINE
8
BLACK
6
CONTINUOUS
10
116.222
20
-95.4011
11
116.222
21
-95.4013
0
LINE
8
BLACK
6
CONTINUOUS
10
116.222
20
-95.4013
11
116.22
21
-95.4057
0
LINE
8
BLACK
6
CONTINUOUS
10
116.22
20
-95.4057
11
116.218
21
-95.41
0
LINE
8
BLACK
6
CONTINUOUS
10
116.218
20
-95.41
11
116.218
21
-95.4102
0
LINE
8
BLACK
6
CONTINUOUS
10
116.218
20
-95.4102
11
116.218
21
-95.4104
0
LINE
8
BLACK
6
CONTINUOUS
10
116.218
20
-95.4104
11
116.171
21
-95.5057
0
LINE
8
BLACK
6
CONTINUOUS
10
116.171
20
-95.5057
11
116.17
21
-95.5063
0
LINE
8
BLACK
6
CONTINUOUS
10
116.17
20
-95.5063
11
116.169
21
-95.5087
0
LINE
8
BLACK
6
CONTINUOUS
10
116.169
20
-95.5087
11
116.167
21
-95.5111
0
LINE
8
BLACK
6
CONTINUOUS
10
116.167
20
-95.5111
11
116.166
21
-95.5127
0
LINE
8
BLACK
6
CONTINUOUS
10
116.166
20
-95.5127
11
116.165
21
-95.5145
0
LINE
8
BLACK
6
CONTINUOUS
10
116.165
20
-95.5145
11
116.163
21
-95.5165
0
LINE
8
BLACK
6
CONTINUOUS
10
116.163
20
-95.5165
11
116.161
21
-95.5187
0
LINE
8
BLACK
6
CONTINUOUS
10
116.161
20
-95.5187
11
116.066
21
-95.6139
0
LINE
8
BLACK
6
CONTINUOUS
10
116.066
20
-95.6139
11
116.065
21
-95.6144
0
LINE
8
BLACK
6
CONTINUOUS
10
116.065
20
-95.6144
11
116.064
21
-95.6153
0
LINE
8
BLACK
6
CONTINUOUS
10
116.064
20
-95.6153
11
116.063
21
-95.6164
0
LINE
8
BLACK
6
CONTINUOUS
10
116.063
20
-95.6164
11
116.061
21
-95.6184
0
LINE
8
BLACK
6
CONTINUOUS
10
116.061
20
-95.6184
11
116.058
21
-95.6205
0
LINE
8
BLACK
6
CONTINUOUS
10
116.058
20
-95.6205
11
116.057
21
-95.6212
0
LINE
8
BLACK
6
CONTINUOUS
10
116.057
20
-95.6212
11
116.055
21
-95.622
0
LINE
8
BLACK
6
CONTINUOUS
10
116.055
20
-95.622
11
116.052
21
-95.6234
0
LINE
8
BLACK
6
CONTINUOUS
10
116.052
20
-95.6234
11
116.049
21
-95.625
0
LINE
8
BLACK
6
CONTINUOUS
10
116.049
20
-95.625
11
116.048
21
-95.6254
0
LINE
8
BLACK
6
CONTINUOUS
10
116.048
20
-95.6254
11
116.046
21
-95.626
0
LINE
8
BLACK
6
CONTINUOUS
10
116.046
20
-95.626
11
115.904
21
-95.6736
0
LINE
8
BLACK
6
CONTINUOUS
10
115.904
20
-95.6736
11
115.903
21
-95.6738
0
LINE
8
BLACK
6
CONTINUOUS
10
115.903
20
-95.6738
11
115.9
21
-95.6744
0
LINE
8
BLACK
6
CONTINUOUS
10
115.9
20
-95.6744
11
115.897
21
-95.6752
0
LINE
8
BLACK
6
CONTINUOUS
10
115.897
20
-95.6752
11
115.895
21
-95.6754
0
LINE
8
BLACK
6
CONTINUOUS
10
115.895
20
-95.6754
11
115.893
21
-95.6759
0
LINE
8
BLACK
6
CONTINUOUS
10
115.893
20
-95.6759
11
115.891
21
-95.6759
0
LINE
8
BLACK
6
CONTINUOUS
10
115.891
20
-95.6759
11
115.888
21
-95.6762
0
LINE
8
BLACK
6
CONTINUOUS
10
115.888
20
-95.6762
11
115.793
21
-95.6762
0
LINE
8
BLACK
6
CONTINUOUS
10
115.793
20
-95.6762
11
115.792
21
-95.6762
0
LINE
8
BLACK
6
CONTINUOUS
10
115.792
20
-95.6762
11
115.789
21
-95.6759
0
LINE
8
BLACK
6
CONTINUOUS
10
115.789
20
-95.6759
11
115.786
21
-95.6758
0
LINE
8
BLACK
6
CONTINUOUS
10
115.786
20
-95.6758
11
115.784
21
-95.6753
0
LINE
8
BLACK
6
CONTINUOUS
10
115.784
20
-95.6753
11
115.782
21
-95.6751
0
LINE
8
BLACK
6
CONTINUOUS
10
115.782
20
-95.6751
11
115.779
21
-95.6742
0
LINE
8
BLACK
6
CONTINUOUS
10
115.779
20
-95.6742
11
115.777
21
-95.6736
0
LINE
8
BLACK
6
CONTINUOUS
10
115.777
20
-95.6736
11
115.634
21
-95.626
0
LINE
8
BLACK
6
CONTINUOUS
10
115.634
20
-95.626
11
115.633
21
-95.6258
0
LINE
8
BLACK
6
CONTINUOUS
10
115.633
20
-95.6258
11
115.632
21
-95.6252
0
LINE
8
BLACK
6
CONTINUOUS
10
115.632
20
-95.6252
11
115.63
21
-95.6247
0
LINE
8
BLACK
6
CONTINUOUS
10
115.63
20
-95.6247
11
115.627
21
-95.6231
0
LINE
8
BLACK
6
CONTINUOUS
10
115.627
20
-95.6231
11
115.624
21
-95.6217
0
LINE
8
BLACK
6
CONTINUOUS
10
115.624
20
-95.6217
11
115.623
21
-95.6208
0
LINE
8
BLACK
6
CONTINUOUS
10
115.623
20
-95.6208
11
115.622
21
-95.6201
0
LINE
8
BLACK
6
CONTINUOUS
10
115.622
20
-95.6201
11
115.619
21
-95.6179
0
LINE
8
BLACK
6
CONTINUOUS
10
115.619
20
-95.6179
11
115.616
21
-95.6159
0
LINE
8
BLACK
6
CONTINUOUS
10
115.616
20
-95.6159
11
115.615
21
-95.6148
0
LINE
8
BLACK
6
CONTINUOUS
10
115.615
20
-95.6148
11
115.614
21
-95.6139
0
LINE
8
BLACK
6
CONTINUOUS
10
115.614
20
-95.6139
11
115.567
21
-95.5663
0
LINE
8
BLACK
6
CONTINUOUS
10
115.567
20
-95.5663
11
115.566
21
-95.5658
0
LINE
8
BLACK
6
CONTINUOUS
10
115.566
20
-95.5658
11
115.56
21
-95.5582
0
LINE
8
BLACK
6
CONTINUOUS
10
115.56
20
-95.5582
11
115.556
21
-95.5495
0
LINE
8
BLACK
6
CONTINUOUS
10
115.556
20
-95.5495
11
115.553
21
-95.5401
0
LINE
8
BLACK
6
CONTINUOUS
10
115.553
20
-95.5401
11
115.552
21
-95.5304
0
LINE
8
BLACK
6
CONTINUOUS
10
115.552
20
-95.5304
11
115.553
21
-95.5207
0
LINE
8
BLACK
6
CONTINUOUS
10
115.553
20
-95.5207
11
115.556
21
-95.5114
0
LINE
8
BLACK
6
CONTINUOUS
10
115.556
20
-95.5114
11
115.561
21
-95.5028
0
LINE
8
BLACK
6
CONTINUOUS
10
115.561
20
-95.5028
11
115.567
21
-95.4953
0
LINE
8
BLACK
6
CONTINUOUS
10
115.567
20
-95.4953
11
115.575
21
-95.4892
0
LINE
8
BLACK
6
CONTINUOUS
10
115.575
20
-95.4892
11
115.583
21
-95.4846
0
LINE
8
BLACK
6
CONTINUOUS
10
115.583
20
-95.4846
11
115.593
21
-95.4819
0
LINE
8
BLACK
6
CONTINUOUS
10
115.593
20
-95.4819
11
115.602
21
-95.4809
0
LINE
8
BLACK
6
CONTINUOUS
10
115.602
20
-95.4809
11
115.612
21
-95.4819
0
LINE
8
BLACK
6
CONTINUOUS
10
115.612
20
-95.4819
11
115.621
21
-95.4848
0
LINE
8
BLACK
6
CONTINUOUS
10
115.621
20
-95.4848
11
115.63
21
-95.4894
0
LINE
8
BLACK
6
CONTINUOUS
10
115.63
20
-95.4894
11
115.637
21
-95.4956
0
LINE
8
BLACK
6
CONTINUOUS
10
115.637
20
-95.4956
11
115.677
21
-95.5349
0
LINE
8
BLACK
6
CONTINUOUS
10
115.677
20
-95.5349
11
115.801
21
-95.5762
0
LINE
8
BLACK
6
CONTINUOUS
10
115.801
20
-95.5762
11
115.88
21
-95.5762
0
LINE
8
BLACK
6
CONTINUOUS
10
115.88
20
-95.5762
11
116.004
21
-95.5349
0
LINE
8
BLACK
6
CONTINUOUS
10
116.004
20
-95.5349
11
116.085
21
-95.4537
0
LINE
8
BLACK
6
CONTINUOUS
10
116.085
20
-95.4537
11
116.126
21
-95.3706
0
LINE
8
BLACK
6
CONTINUOUS
10
116.126
20
-95.3706
11
116.171
21
-95.1915
0
LINE
8
BLACK
6
CONTINUOUS
10
116.171
20
-95.1915
11
116.171
21
-95.0609
0
LINE
8
BLACK
6
CONTINUOUS
10
116.171
20
-95.0609
11
116.126
21
-94.8817
0
LINE
8
BLACK
6
CONTINUOUS
10
116.126
20
-94.8817
11
116.085
21
-94.7987
0
LINE
8
BLACK
6
CONTINUOUS
10
116.085
20
-94.7987
11
116.004
21
-94.7175
0
LINE
8
BLACK
6
CONTINUOUS
10
116.004
20
-94.7175
11
115.88
21
-94.6762
0
LINE
8
BLACK
6
CONTINUOUS
10
115.88
20
-94.6762
11
115.801
21
-94.6762
0
LINE
8
BLACK
6
CONTINUOUS
10
115.801
20
-94.6762
11
115.677
21
-94.7175
0
LINE
8
BLACK
6
CONTINUOUS
10
115.677
20
-94.7175
11
115.637
21
-94.7568
0
LINE
8
BLACK
6
CONTINUOUS
10
115.637
20
-94.7568
11
115.637
21
-94.7573
0
LINE
8
BLACK
6
CONTINUOUS
10
115.637
20
-94.7573
11
115.629
21
-94.7634
0
LINE
8
BLACK
6
CONTINUOUS
10
115.629
20
-94.7634
11
115.621
21
-94.7678
0
LINE
8
BLACK
6
CONTINUOUS
10
115.621
20
-94.7678
11
115.611
21
-94.7706
0
LINE
8
BLACK
6
CONTINUOUS
10
115.611
20
-94.7706
11
115.602
21
-94.7714
0
LINE
8
BLACK
6
CONTINUOUS
10
115.602
20
-94.7714
11
115.592
21
-94.7704
0
LINE
8
BLACK
6
CONTINUOUS
10
115.592
20
-94.7704
11
115.583
21
-94.7674
0
LINE
8
BLACK
6
CONTINUOUS
10
115.583
20
-94.7674
11
115.574
21
-94.7628
0
LINE
8
BLACK
6
CONTINUOUS
10
115.574
20
-94.7628
11
115.566
21
-94.7565
0
LINE
8
BLACK
6
CONTINUOUS
10
115.566
20
-94.7565
11
115.56
21
-94.7489
0
LINE
8
BLACK
6
CONTINUOUS
10
115.56
20
-94.7489
11
115.556
21
-94.7403
0
LINE
8
BLACK
6
CONTINUOUS
10
115.556
20
-94.7403
11
115.553
21
-94.731
0
LINE
8
BLACK
6
CONTINUOUS
10
115.553
20
-94.731
11
115.552
21
-94.7212
0
LINE
8
BLACK
6
CONTINUOUS
10
115.552
20
-94.7212
11
115.553
21
-94.7115
0
LINE
8
BLACK
6
CONTINUOUS
10
115.553
20
-94.7115
11
115.556
21
-94.7022
0
LINE
8
BLACK
6
CONTINUOUS
10
115.556
20
-94.7022
11
115.56
21
-94.6936
0
LINE
8
BLACK
6
CONTINUOUS
10
115.56
20
-94.6936
11
115.567
21
-94.6861
0
LINE
8
BLACK
6
CONTINUOUS
10
115.567
20
-94.6861
11
115.614
21
-94.6384
0
LINE
8
BLACK
6
CONTINUOUS
10
115.614
20
-94.6384
11
115.615
21
-94.638
0
LINE
8
BLACK
6
CONTINUOUS
10
115.615
20
-94.638
11
115.616
21
-94.637
0
LINE
8
BLACK
6
CONTINUOUS
10
115.616
20
-94.637
11
115.617
21
-94.636
0
LINE
8
BLACK
6
CONTINUOUS
10
115.617
20
-94.636
11
115.62
21
-94.634
0
LINE
8
BLACK
6
CONTINUOUS
10
115.62
20
-94.634
11
115.622
21
-94.6319
0
LINE
8
BLACK
6
CONTINUOUS
10
115.622
20
-94.6319
11
115.624
21
-94.6312
0
LINE
8
BLACK
6
CONTINUOUS
10
115.624
20
-94.6312
11
115.625
21
-94.6303
0
LINE
8
BLACK
6
CONTINUOUS
10
115.625
20
-94.6303
11
115.628
21
-94.6289
0
LINE
8
BLACK
6
CONTINUOUS
10
115.628
20
-94.6289
11
115.631
21
-94.6274
0
LINE
8
BLACK
6
CONTINUOUS
10
115.631
20
-94.6274
11
115.633
21
-94.627
0
LINE
8
BLACK
6
CONTINUOUS
10
115.633
20
-94.627
11
115.634
21
-94.6264
0
LINE
8
BLACK
6
CONTINUOUS
10
115.634
20
-94.6264
11
115.777
21
-94.5787
0
LINE
8
BLACK
6
CONTINUOUS
10
115.777
20
-94.5787
11
115.777
21
-94.5785
0
LINE
8
BLACK
6
CONTINUOUS
10
115.777
20
-94.5785
11
115.78
21
-94.5779
0
LINE
8
BLACK
6
CONTINUOUS
10
115.78
20
-94.5779
11
115.783
21
-94.5771
0
LINE
8
BLACK
6
CONTINUOUS
10
115.783
20
-94.5771
11
115.785
21
-94.5769
0
LINE
8
BLACK
6
CONTINUOUS
10
115.785
20
-94.5769
11
115.787
21
-94.5765
0
LINE
8
BLACK
6
CONTINUOUS
10
115.787
20
-94.5765
11
115.79
21
-94.5765
0
LINE
8
BLACK
6
CONTINUOUS
10
115.79
20
-94.5765
11
115.793
21
-94.5762
0
LINE
8
BLACK
6
CONTINUOUS
10
115.793
20
-94.5762
11
115.888
21
-94.5762
0
LINE
8
BLACK
6
CONTINUOUS
10
115.888
20
-94.5762
11
115.888
21
-94.5762
0
LINE
8
BLACK
6
CONTINUOUS
10
116.993
20
-94.5772
11
117.002
21
-94.5801
0
LINE
8
BLACK
6
CONTINUOUS
10
117.002
20
-94.5801
11
117.011
21
-94.5847
0
LINE
8
BLACK
6
CONTINUOUS
10
117.011
20
-94.5847
11
117.018
21
-94.5909
0
LINE
8
BLACK
6
CONTINUOUS
10
117.018
20
-94.5909
11
117.025
21
-94.5985
0
LINE
8
BLACK
6
CONTINUOUS
10
117.025
20
-94.5985
11
117.029
21
-94.6071
0
LINE
8
BLACK
6
CONTINUOUS
10
117.029
20
-94.6071
11
117.032
21
-94.6165
0
LINE
8
BLACK
6
CONTINUOUS
10
117.032
20
-94.6165
11
117.033
21
-94.6262
0
LINE
8
BLACK
6
CONTINUOUS
10
117.033
20
-94.6262
11
117.033
21
-95.6262
0
LINE
8
BLACK
6
CONTINUOUS
10
117.033
20
-95.6262
11
117.033
21
-95.6265
0
LINE
8
BLACK
6
CONTINUOUS
10
117.033
20
-95.6265
11
117.033
21
-95.6265
0
LINE
8
BLACK
6
CONTINUOUS
10
117.033
20
-95.6265
11
117.033
21
-95.6265
0
LINE
8
BLACK
6
CONTINUOUS
10
117.033
20
-95.6265
11
117.033
21
-95.6269
0
LINE
8
BLACK
6
CONTINUOUS
10
117.033
20
-95.6269
11
117.032
21
-95.6315
0
LINE
8
BLACK
6
CONTINUOUS
10
117.032
20
-95.6315
11
117.032
21
-95.6362
0
LINE
8
BLACK
6
CONTINUOUS
10
117.032
20
-95.6362
11
117.032
21
-95.6364
0
LINE
8
BLACK
6
CONTINUOUS
10
117.032
20
-95.6364
11
117.032
21
-95.6366
0
LINE
8
BLACK
6
CONTINUOUS
10
117.032
20
-95.6366
11
117.03
21
-95.641
0
LINE
8
BLACK
6
CONTINUOUS
10
117.03
20
-95.641
11
117.029
21
-95.6456
0
LINE
8
BLACK
6
CONTINUOUS
10
117.029
20
-95.6456
11
117.029
21
-95.6457
0
LINE
8
BLACK
6
CONTINUOUS
10
117.029
20
-95.6457
11
117.029
21
-95.6459
0
LINE
8
BLACK
6
CONTINUOUS
10
117.029
20
-95.6459
11
117.027
21
-95.65
0
LINE
8
BLACK
6
CONTINUOUS
10
117.027
20
-95.65
11
117.024
21
-95.6541
0
LINE
8
BLACK
6
CONTINUOUS
10
117.024
20
-95.6541
11
117.024
21
-95.6543
0
LINE
8
BLACK
6
CONTINUOUS
10
117.024
20
-95.6543
11
117.024
21
-95.6544
0
LINE
8
BLACK
6
CONTINUOUS
10
117.024
20
-95.6544
11
117.021
21
-95.658
0
LINE
8
BLACK
6
CONTINUOUS
10
117.021
20
-95.658
11
117.018
21
-95.6617
0
LINE
8
BLACK
6
CONTINUOUS
10
117.018
20
-95.6617
11
117.018
21
-95.6618
0
LINE
8
BLACK
6
CONTINUOUS
10
117.018
20
-95.6618
11
117.018
21
-95.6619
0
LINE
8
BLACK
6
CONTINUOUS
10
117.018
20
-95.6619
11
117.014
21
-95.6648
0
LINE
8
BLACK
6
CONTINUOUS
10
117.014
20
-95.6648
11
117.011
21
-95.6678
0
LINE
8
BLACK
6
CONTINUOUS
10
117.011
20
-95.6678
11
117.011
21
-95.6679
0
LINE
8
BLACK
6
CONTINUOUS
10
117.011
20
-95.6679
11
117.01
21
-95.668
0
LINE
8
BLACK
6
CONTINUOUS
10
117.01
20
-95.668
11
117.006
21
-95.6702
0
LINE
8
BLACK
6
CONTINUOUS
10
117.006
20
-95.6702
11
117.002
21
-95.6724
0
LINE
8
BLACK
6
CONTINUOUS
10
117.002
20
-95.6724
11
117.002
21
-95.6725
0
LINE
8
BLACK
6
CONTINUOUS
10
117.002
20
-95.6725
11
117.002
21
-95.6725
0
LINE
8
BLACK
6
CONTINUOUS
10
117.002
20
-95.6725
11
116.997
21
-95.6739
0
LINE
8
BLACK
6
CONTINUOUS
10
116.997
20
-95.6739
11
116.993
21
-95.6752
0
LINE
8
BLACK
6
CONTINUOUS
10
116.993
20
-95.6752
11
116.993
21
-95.6752
0
LINE
8
BLACK
6
CONTINUOUS
10
116.993
20
-95.6752
11
116.992
21
-95.6753
0
LINE
8
BLACK
6
CONTINUOUS
10
116.992
20
-95.6753
11
116.988
21
-95.6757
0
LINE
8
BLACK
6
CONTINUOUS
10
116.988
20
-95.6757
11
116.983
21
-95.6762
0
LINE
8
BLACK
6
CONTINUOUS
10
116.983
20
-95.6762
11
116.507
21
-95.6762
0
LINE
8
BLACK
6
CONTINUOUS
10
116.507
20
-95.6762
11
116.506
21
-95.6762
0
LINE
8
BLACK
6
CONTINUOUS
10
116.506
20
-95.6762
11
116.496
21
-95.6751
0
LINE
8
BLACK
6
CONTINUOUS
10
116.496
20
-95.6751
11
116.487
21
-95.6721
0
LINE
8
BLACK
6
CONTINUOUS
10
116.487
20
-95.6721
11
116.479
21
-95.6674
0
LINE
8
BLACK
6
CONTINUOUS
10
116.479
20
-95.6674
11
116.471
21
-95.6612
0
LINE
8
BLACK
6
CONTINUOUS
10
116.471
20
-95.6612
11
116.465
21
-95.6536
0
LINE
8
BLACK
6
CONTINUOUS
10
116.465
20
-95.6536
11
116.46
21
-95.6449
0
LINE
8
BLACK
6
CONTINUOUS
10
116.46
20
-95.6449
11
116.458
21
-95.6355
0
LINE
8
BLACK
6
CONTINUOUS
10
116.458
20
-95.6355
11
116.457
21
-95.6258
0
LINE
8
BLACK
6
CONTINUOUS
10
116.457
20
-95.6258
11
116.458
21
-95.6161
0
LINE
8
BLACK
6
CONTINUOUS
10
116.458
20
-95.6161
11
116.461
21
-95.6068
0
LINE
8
BLACK
6
CONTINUOUS
10
116.461
20
-95.6068
11
116.465
21
-95.5982
0
LINE
8
BLACK
6
CONTINUOUS
10
116.465
20
-95.5982
11
116.472
21
-95.5907
0
LINE
8
BLACK
6
CONTINUOUS
10
116.472
20
-95.5907
11
116.479
21
-95.5845
0
LINE
8
BLACK
6
CONTINUOUS
10
116.479
20
-95.5845
11
116.488
21
-95.58
0
LINE
8
BLACK
6
CONTINUOUS
10
116.488
20
-95.58
11
116.497
21
-95.5771
0
LINE
8
BLACK
6
CONTINUOUS
10
116.497
20
-95.5771
11
116.507
21
-95.5762
0
LINE
8
BLACK
6
CONTINUOUS
10
116.507
20
-95.5762
11
116.933
21
-95.5762
0
LINE
8
BLACK
6
CONTINUOUS
10
116.933
20
-95.5762
11
116.933
21
-94.6262
0
LINE
8
BLACK
6
CONTINUOUS
10
116.933
20
-94.6262
11
116.933
21
-94.6255
0
LINE
8
BLACK
6
CONTINUOUS
10
116.933
20
-94.6255
11
116.934
21
-94.6158
0
LINE
8
BLACK
6
CONTINUOUS
10
116.934
20
-94.6158
11
116.937
21
-94.6065
0
LINE
8
BLACK
6
CONTINUOUS
10
116.937
20
-94.6065
11
116.942
21
-94.5979
0
LINE
8
BLACK
6
CONTINUOUS
10
116.942
20
-94.5979
11
116.948
21
-94.5905
0
LINE
8
BLACK
6
CONTINUOUS
10
116.948
20
-94.5905
11
116.956
21
-94.5843
0
LINE
8
BLACK
6
CONTINUOUS
10
116.956
20
-94.5843
11
116.964
21
-94.5798
0
LINE
8
BLACK
6
CONTINUOUS
10
116.964
20
-94.5798
11
116.974
21
-94.5771
0
LINE
8
BLACK
6
CONTINUOUS
10
116.974
20
-94.5771
11
116.983
21
-94.5762
0
LINE
8
BLACK
6
CONTINUOUS
10
116.983
20
-94.5762
11
116.993
21
-94.5772
0
LINE
8
BLACK
6
CONTINUOUS
10
117.469
20
-94.5772
11
117.479
21
-94.5801
0
LINE
8
BLACK
6
CONTINUOUS
10
117.479
20
-94.5801
11
117.487
21
-94.5847
0
LINE
8
BLACK
6
CONTINUOUS
10
117.487
20
-94.5847
11
117.495
21
-94.5909
0
LINE
8
BLACK
6
CONTINUOUS
10
117.495
20
-94.5909
11
117.501
21
-94.5985
0
LINE
8
BLACK
6
CONTINUOUS
10
117.501
20
-94.5985
11
117.505
21
-94.6071
0
LINE
8
BLACK
6
CONTINUOUS
10
117.505
20
-94.6071
11
117.508
21
-94.6165
0
LINE
8
BLACK
6
CONTINUOUS
10
117.508
20
-94.6165
11
117.509
21
-94.6262
0
LINE
8
BLACK
6
CONTINUOUS
10
117.509
20
-94.6262
11
117.509
21
-95.3324
0
LINE
8
BLACK
6
CONTINUOUS
10
117.509
20
-95.3324
11
117.551
21
-95.4563
0
LINE
8
BLACK
6
CONTINUOUS
10
117.551
20
-95.4563
11
117.629
21
-95.5349
0
LINE
8
BLACK
6
CONTINUOUS
10
117.629
20
-95.5349
11
117.753
21
-95.5762
0
LINE
8
BLACK
6
CONTINUOUS
10
117.753
20
-95.5762
11
117.84
21
-95.5762
0
LINE
8
BLACK
6
CONTINUOUS
10
117.84
20
-95.5762
11
117.841
21
-95.5762
0
LINE
8
BLACK
6
CONTINUOUS
10
117.841
20
-95.5762
11
117.851
21
-95.5773
0
LINE
8
BLACK
6
CONTINUOUS
10
117.851
20
-95.5773
11
117.86
21
-95.5802
0
LINE
8
BLACK
6
CONTINUOUS
10
117.86
20
-95.5802
11
117.868
21
-95.5849
0
LINE
8
BLACK
6
CONTINUOUS
10
117.868
20
-95.5849
11
117.876
21
-95.5912
0
LINE
8
BLACK
6
CONTINUOUS
10
117.876
20
-95.5912
11
117.882
21
-95.5988
0
LINE
8
BLACK
6
CONTINUOUS
10
117.882
20
-95.5988
11
117.887
21
-95.6075
0
LINE
8
BLACK
6
CONTINUOUS
10
117.887
20
-95.6075
11
117.889
21
-95.6168
0
LINE
8
BLACK
6
CONTINUOUS
10
117.889
20
-95.6168
11
117.89
21
-95.6265
0
LINE
8
BLACK
6
CONTINUOUS
10
117.89
20
-95.6265
11
117.889
21
-95.6362
0
LINE
8
BLACK
6
CONTINUOUS
10
117.889
20
-95.6362
11
117.886
21
-95.6456
0
LINE
8
BLACK
6
CONTINUOUS
10
117.886
20
-95.6456
11
117.882
21
-95.6541
0
LINE
8
BLACK
6
CONTINUOUS
10
117.882
20
-95.6541
11
117.875
21
-95.6617
0
LINE
8
BLACK
6
CONTINUOUS
10
117.875
20
-95.6617
11
117.868
21
-95.6678
0
LINE
8
BLACK
6
CONTINUOUS
10
117.868
20
-95.6678
11
117.859
21
-95.6724
0
LINE
8
BLACK
6
CONTINUOUS
10
117.859
20
-95.6724
11
117.85
21
-95.6752
0
LINE
8
BLACK
6
CONTINUOUS
10
117.85
20
-95.6752
11
117.84
21
-95.6762
0
LINE
8
BLACK
6
CONTINUOUS
10
117.84
20
-95.6762
11
117.745
21
-95.6762
0
LINE
8
BLACK
6
CONTINUOUS
10
117.745
20
-95.6762
11
117.744
21
-95.6762
0
LINE
8
BLACK
6
CONTINUOUS
10
117.744
20
-95.6762
11
117.741
21
-95.6759
0
LINE
8
BLACK
6
CONTINUOUS
10
117.741
20
-95.6759
11
117.739
21
-95.6758
0
LINE
8
BLACK
6
CONTINUOUS
10
117.739
20
-95.6758
11
117.737
21
-95.6753
0
LINE
8
BLACK
6
CONTINUOUS
10
117.737
20
-95.6753
11
117.735
21
-95.6751
0
LINE
8
BLACK
6
CONTINUOUS
10
117.735
20
-95.6751
11
117.732
21
-95.6742
0
LINE
8
BLACK
6
CONTINUOUS
10
117.732
20
-95.6742
11
117.729
21
-95.6736
0
LINE
8
BLACK
6
CONTINUOUS
10
117.729
20
-95.6736
11
117.586
21
-95.626
0
LINE
8
BLACK
6
CONTINUOUS
10
117.586
20
-95.626
11
117.586
21
-95.6258
0
LINE
8
BLACK
6
CONTINUOUS
10
117.586
20
-95.6258
11
117.584
21
-95.6252
0
LINE
8
BLACK
6
CONTINUOUS
10
117.584
20
-95.6252
11
117.583
21
-95.6247
0
LINE
8
BLACK
6
CONTINUOUS
10
117.583
20
-95.6247
11
117.58
21
-95.6231
0
LINE
8
BLACK
6
CONTINUOUS
10
117.58
20
-95.6231
11
117.577
21
-95.6217
0
LINE
8
BLACK
6
CONTINUOUS
10
117.577
20
-95.6217
11
117.576
21
-95.6208
0
LINE
8
BLACK
6
CONTINUOUS
10
117.576
20
-95.6208
11
117.574
21
-95.6201
0
LINE
8
BLACK
6
CONTINUOUS
10
117.574
20
-95.6201
11
117.572
21
-95.6179
0
LINE
8
BLACK
6
CONTINUOUS
10
117.572
20
-95.6179
11
117.569
21
-95.6159
0
LINE
8
BLACK
6
CONTINUOUS
10
117.569
20
-95.6159
11
117.568
21
-95.6148
0
LINE
8
BLACK
6
CONTINUOUS
10
117.568
20
-95.6148
11
117.567
21
-95.6139
0
LINE
8
BLACK
6
CONTINUOUS
10
117.567
20
-95.6139
11
117.471
21
-95.5187
0
LINE
8
BLACK
6
CONTINUOUS
10
117.471
20
-95.5187
11
117.471
21
-95.5182
0
LINE
8
BLACK
6
CONTINUOUS
10
117.471
20
-95.5182
11
117.47
21
-95.517
0
LINE
8
BLACK
6
CONTINUOUS
10
117.47
20
-95.517
11
117.469
21
-95.516
0
LINE
8
BLACK
6
CONTINUOUS
10
117.469
20
-95.516
11
117.467
21
-95.5132
0
LINE
8
BLACK
6
CONTINUOUS
10
117.467
20
-95.5132
11
117.465
21
-95.5106
0
LINE
8
BLACK
6
CONTINUOUS
10
117.465
20
-95.5106
11
117.464
21
-95.5092
0
LINE
8
BLACK
6
CONTINUOUS
10
117.464
20
-95.5092
11
117.463
21
-95.508
0
LINE
8
BLACK
6
CONTINUOUS
10
117.463
20
-95.508
11
117.462
21
-95.5049
0
LINE
8
BLACK
6
CONTINUOUS
10
117.462
20
-95.5049
11
117.46
21
-95.5019
0
LINE
8
BLACK
6
CONTINUOUS
10
117.46
20
-95.5019
11
117.46
21
-95.5005
0
LINE
8
BLACK
6
CONTINUOUS
10
117.46
20
-95.5005
11
117.459
21
-95.4991
0
LINE
8
BLACK
6
CONTINUOUS
10
117.459
20
-95.4991
11
117.412
21
-95.3563
0
LINE
8
BLACK
6
CONTINUOUS
10
117.412
20
-95.3563
11
117.412
21
-95.3556
0
LINE
8
BLACK
6
CONTINUOUS
10
117.412
20
-95.3556
11
117.411
21
-95.3529
0
LINE
8
BLACK
6
CONTINUOUS
10
117.411
20
-95.3529
11
117.41
21
-95.3502
0
LINE
8
BLACK
6
CONTINUOUS
10
117.41
20
-95.3502
11
117.41
21
-95.3481
0
LINE
8
BLACK
6
CONTINUOUS
10
117.41
20
-95.3481
11
117.41
21
-95.3461
0
LINE
8
BLACK
6
CONTINUOUS
10
117.41
20
-95.3461
11
117.409
21
-95.3433
0
LINE
8
BLACK
6
CONTINUOUS
10
117.409
20
-95.3433
11
117.409
21
-95.3405
0
LINE
8
BLACK
6
CONTINUOUS
10
117.409
20
-95.3405
11
117.409
21
-94.6262
0
LINE
8
BLACK
6
CONTINUOUS
10
117.409
20
-94.6262
11
117.409
21
-94.6255
0
LINE
8
BLACK
6
CONTINUOUS
10
117.409
20
-94.6255
11
117.41
21
-94.6158
0
LINE
8
BLACK
6
CONTINUOUS
10
117.41
20
-94.6158
11
117.413
21
-94.6065
0
LINE
8
BLACK
6
CONTINUOUS
10
117.413
20
-94.6065
11
117.418
21
-94.5979
0
LINE
8
BLACK
6
CONTINUOUS
10
117.418
20
-94.5979
11
117.424
21
-94.5905
0
LINE
8
BLACK
6
CONTINUOUS
10
117.424
20
-94.5905
11
117.432
21
-94.5843
0
LINE
8
BLACK
6
CONTINUOUS
10
117.432
20
-94.5843
11
117.44
21
-94.5798
0
LINE
8
BLACK
6
CONTINUOUS
10
117.44
20
-94.5798
11
117.45
21
-94.5771
0
LINE
8
BLACK
6
CONTINUOUS
10
117.45
20
-94.5771
11
117.46
21
-94.5762
0
LINE
8
BLACK
6
CONTINUOUS
10
117.46
20
-94.5762
11
117.469
21
-94.5772
0
LINE
8
BLACK
6
CONTINUOUS
10
114.898
20
-94.5772
11
114.907
21
-94.5801
0
LINE
8
BLACK
6
CONTINUOUS
10
114.907
20
-94.5801
11
114.916
21
-94.5847
0
LINE
8
BLACK
6
CONTINUOUS
10
114.916
20
-94.5847
11
114.923
21
-94.5909
0
LINE
8
BLACK
6
CONTINUOUS
10
114.923
20
-94.5909
11
114.929
21
-94.5985
0
LINE
8
BLACK
6
CONTINUOUS
10
114.929
20
-94.5985
11
114.934
21
-94.6071
0
LINE
8
BLACK
6
CONTINUOUS
10
114.934
20
-94.6071
11
114.937
21
-94.6165
0
LINE
8
BLACK
6
CONTINUOUS
10
114.937
20
-94.6165
11
114.938
21
-94.6262
0
LINE
8
BLACK
6
CONTINUOUS
10
114.938
20
-94.6262
11
114.938
21
-95.3324
0
LINE
8
BLACK
6
CONTINUOUS
10
114.938
20
-95.3324
11
114.979
21
-95.4563
0
LINE
8
BLACK
6
CONTINUOUS
10
114.979
20
-95.4563
11
115.058
21
-95.5349
0
LINE
8
BLACK
6
CONTINUOUS
10
115.058
20
-95.5349
11
115.182
21
-95.5762
0
LINE
8
BLACK
6
CONTINUOUS
10
115.182
20
-95.5762
11
115.269
21
-95.5762
0
LINE
8
BLACK
6
CONTINUOUS
10
115.269
20
-95.5762
11
115.269
21
-95.5762
0
LINE
8
BLACK
6
CONTINUOUS
10
115.269
20
-95.5762
11
115.279
21
-95.5773
0
LINE
8
BLACK
6
CONTINUOUS
10
115.279
20
-95.5773
11
115.288
21
-95.5802
0
LINE
8
BLACK
6
CONTINUOUS
10
115.288
20
-95.5802
11
115.297
21
-95.5849
0
LINE
8
BLACK
6
CONTINUOUS
10
115.297
20
-95.5849
11
115.304
21
-95.5912
0
LINE
8
BLACK
6
CONTINUOUS
10
115.304
20
-95.5912
11
115.311
21
-95.5988
0
LINE
8
BLACK
6
CONTINUOUS
10
115.311
20
-95.5988
11
115.315
21
-95.6075
0
LINE
8
BLACK
6
CONTINUOUS
10
115.315
20
-95.6075
11
115.318
21
-95.6168
0
LINE
8
BLACK
6
CONTINUOUS
10
115.318
20
-95.6168
11
115.319
21
-95.6265
0
LINE
8
BLACK
6
CONTINUOUS
10
115.319
20
-95.6265
11
115.318
21
-95.6362
0
LINE
8
BLACK
6
CONTINUOUS
10
115.318
20
-95.6362
11
115.315
21
-95.6456
0
LINE
8
BLACK
6
CONTINUOUS
10
115.315
20
-95.6456
11
115.31
21
-95.6541
0
LINE
8
BLACK
6
CONTINUOUS
10
115.31
20
-95.6541
11
115.304
21
-95.6617
0
LINE
8
BLACK
6
CONTINUOUS
10
115.304
20
-95.6617
11
115.296
21
-95.6678
0
LINE
8
BLACK
6
CONTINUOUS
10
115.296
20
-95.6678
11
115.288
21
-95.6724
0
LINE
8
BLACK
6
CONTINUOUS
10
115.288
20
-95.6724
11
115.278
21
-95.6752
0
LINE
8
BLACK
6
CONTINUOUS
10
115.278
20
-95.6752
11
115.269
21
-95.6762
0
LINE
8
BLACK
6
CONTINUOUS
10
115.269
20
-95.6762
11
115.173
21
-95.6762
0
LINE
8
BLACK
6
CONTINUOUS
10
115.173
20
-95.6762
11
115.173
21
-95.6762
0
LINE
8
BLACK
6
CONTINUOUS
10
115.173
20
-95.6762
11
115.17
21
-95.6759
0
LINE
8
BLACK
6
CONTINUOUS
10
115.17
20
-95.6759
11
115.167
21
-95.6758
0
LINE
8
BLACK
6
CONTINUOUS
10
115.167
20
-95.6758
11
115.165
21
-95.6753
0
LINE
8
BLACK
6
CONTINUOUS
10
115.165
20
-95.6753
11
115.163
21
-95.6751
0
LINE
8
BLACK
6
CONTINUOUS
10
115.163
20
-95.6751
11
115.16
21
-95.6742
0
LINE
8
BLACK
6
CONTINUOUS
10
115.16
20
-95.6742
11
115.158
21
-95.6736
0
LINE
8
BLACK
6
CONTINUOUS
10
115.158
20
-95.6736
11
115.015
21
-95.626
0
LINE
8
BLACK
6
CONTINUOUS
10
115.015
20
-95.626
11
115.014
21
-95.6258
0
LINE
8
BLACK
6
CONTINUOUS
10
115.014
20
-95.6258
11
115.013
21
-95.6252
0
LINE
8
BLACK
6
CONTINUOUS
10
115.013
20
-95.6252
11
115.011
21
-95.6247
0
LINE
8
BLACK
6
CONTINUOUS
10
115.011
20
-95.6247
11
115.008
21
-95.6231
0
LINE
8
BLACK
6
CONTINUOUS
10
115.008
20
-95.6231
11
115.005
21
-95.6217
0
LINE
8
BLACK
6
CONTINUOUS
10
115.005
20
-95.6217
11
115.004
21
-95.6208
0
LINE
8
BLACK
6
CONTINUOUS
10
115.004
20
-95.6208
11
115.003
21
-95.6201
0
LINE
8
BLACK
6
CONTINUOUS
10
115.003
20
-95.6201
11
115
21
-95.6179
0
LINE
8
BLACK
6
CONTINUOUS
10
115
20
-95.6179
11
114.997
21
-95.6159
0
LINE
8
BLACK
6
CONTINUOUS
10
114.997
20
-95.6159
11
114.996
21
-95.6149
0
LINE
8
BLACK
6
CONTINUOUS
10
114.996
20
-95.6149
11
114.995
21
-95.6139
0
LINE
8
BLACK
6
CONTINUOUS
10
114.995
20
-95.6139
11
114.9
21
-95.5187
0
LINE
8
BLACK
6
CONTINUOUS
10
114.9
20
-95.5187
11
114.9
21
-95.5182
0
LINE
8
BLACK
6
CONTINUOUS
10
114.9
20
-95.5182
11
114.899
21
-95.517
0
LINE
8
BLACK
6
CONTINUOUS
10
114.899
20
-95.517
11
114.898
21
-95.516
0
LINE
8
BLACK
6
CONTINUOUS
10
114.898
20
-95.516
11
114.896
21
-95.5132
0
LINE
8
BLACK
6
CONTINUOUS
10
114.896
20
-95.5132
11
114.893
21
-95.5106
0
LINE
8
BLACK
6
CONTINUOUS
10
114.893
20
-95.5106
11
114.893
21
-95.5092
0
LINE
8
BLACK
6
CONTINUOUS
10
114.893
20
-95.5092
11
114.892
21
-95.508
0
LINE
8
BLACK
6
CONTINUOUS
10
114.892
20
-95.508
11
114.891
21
-95.5049
0
LINE
8
BLACK
6
CONTINUOUS
10
114.891
20
-95.5049
11
114.889
21
-95.5019
0
LINE
8
BLACK
6
CONTINUOUS
10
114.889
20
-95.5019
11
114.889
21
-95.5005
0
LINE
8
BLACK
6
CONTINUOUS
10
114.889
20
-95.5005
11
114.888
21
-95.4991
0
LINE
8
BLACK
6
CONTINUOUS
10
114.888
20
-95.4991
11
114.84
21
-95.3563
0
LINE
8
BLACK
6
CONTINUOUS
10
114.84
20
-95.3563
11
114.84
21
-95.3556
0
LINE
8
BLACK
6
CONTINUOUS
10
114.84
20
-95.3556
11
114.84
21
-95.3529
0
LINE
8
BLACK
6
CONTINUOUS
10
114.84
20
-95.3529
11
114.839
21
-95.3502
0
LINE
8
BLACK
6
CONTINUOUS
10
114.839
20
-95.3502
11
114.839
21
-95.3481
0
LINE
8
BLACK
6
CONTINUOUS
10
114.839
20
-95.3481
11
114.838
21
-95.3461
0
LINE
8
BLACK
6
CONTINUOUS
10
114.838
20
-95.3461
11
114.838
21
-95.3433
0
LINE
8
BLACK
6
CONTINUOUS
10
114.838
20
-95.3433
11
114.838
21
-95.3405
0
LINE
8
BLACK
6
CONTINUOUS
10
114.838
20
-95.3405
11
114.838
21
-94.6262
0
LINE
8
BLACK
6
CONTINUOUS
10
114.838
20
-94.6262
11
114.838
21
-94.6255
0
LINE
8
BLACK
6
CONTINUOUS
10
114.838
20
-94.6255
11
114.839
21
-94.6158
0
LINE
8
BLACK
6
CONTINUOUS
10
114.839
20
-94.6158
11
114.842
21
-94.6065
0
LINE
8
BLACK
6
CONTINUOUS
10
114.842
20
-94.6065
11
114.847
21
-94.5979
0
LINE
8
BLACK
6
CONTINUOUS
10
114.847
20
-94.5979
11
114.853
21
-94.5905
0
LINE
8
BLACK
6
CONTINUOUS
10
114.853
20
-94.5905
11
114.86
21
-94.5843
0
LINE
8
BLACK
6
CONTINUOUS
10
114.86
20
-94.5843
11
114.869
21
-94.5798
0
LINE
8
BLACK
6
CONTINUOUS
10
114.869
20
-94.5798
11
114.878
21
-94.5771
0
LINE
8
BLACK
6
CONTINUOUS
10
114.878
20
-94.5771
11
114.888
21
-94.5762
0
LINE
8
BLACK
6
CONTINUOUS
10
114.888
20
-94.5762
11
114.898
21
-94.5772
0
LINE
8
BLACK
6
CONTINUOUS
10
118.46
20
-94.5762
11
118.463
21
-94.5765
0
LINE
8
BLACK
6
CONTINUOUS
10
118.463
20
-94.5765
11
118.465
21
-94.5766
0
LINE
8
BLACK
6
CONTINUOUS
10
118.465
20
-94.5766
11
118.468
21
-94.577
0
LINE
8
BLACK
6
CONTINUOUS
10
118.468
20
-94.577
11
118.47
21
-94.5773
0
LINE
8
BLACK
6
CONTINUOUS
10
118.47
20
-94.5773
11
118.472
21
-94.5781
0
LINE
8
BLACK
6
CONTINUOUS
10
118.472
20
-94.5781
11
118.475
21
-94.5787
0
LINE
8
BLACK
6
CONTINUOUS
10
118.475
20
-94.5787
11
118.618
21
-94.6264
0
LINE
8
BLACK
6
CONTINUOUS
10
118.618
20
-94.6264
11
118.619
21
-94.6266
0
LINE
8
BLACK
6
CONTINUOUS
10
118.619
20
-94.6266
11
118.62
21
-94.6272
0
LINE
8
BLACK
6
CONTINUOUS
10
118.62
20
-94.6272
11
118.621
21
-94.6276
0
LINE
8
BLACK
6
CONTINUOUS
10
118.621
20
-94.6276
11
118.624
21
-94.6293
0
LINE
8
BLACK
6
CONTINUOUS
10
118.624
20
-94.6293
11
118.627
21
-94.6307
0
LINE
8
BLACK
6
CONTINUOUS
10
118.627
20
-94.6307
11
118.629
21
-94.6316
0
LINE
8
BLACK
6
CONTINUOUS
10
118.629
20
-94.6316
11
118.63
21
-94.6322
0
LINE
8
BLACK
6
CONTINUOUS
10
118.63
20
-94.6322
11
118.632
21
-94.6344
0
LINE
8
BLACK
6
CONTINUOUS
10
118.632
20
-94.6344
11
118.635
21
-94.6364
0
LINE
8
BLACK
6
CONTINUOUS
10
118.635
20
-94.6364
11
118.636
21
-94.6375
0
LINE
8
BLACK
6
CONTINUOUS
10
118.636
20
-94.6375
11
118.637
21
-94.6384
0
LINE
8
BLACK
6
CONTINUOUS
10
118.637
20
-94.6384
11
118.733
21
-94.7337
0
LINE
8
BLACK
6
CONTINUOUS
10
118.733
20
-94.7337
11
118.733
21
-94.7342
0
LINE
8
BLACK
6
CONTINUOUS
10
118.733
20
-94.7342
11
118.735
21
-94.7364
0
LINE
8
BLACK
6
CONTINUOUS
10
118.735
20
-94.7364
11
118.737
21
-94.7384
0
LINE
8
BLACK
6
CONTINUOUS
10
118.737
20
-94.7384
11
118.738
21
-94.7402
0
LINE
8
BLACK
6
CONTINUOUS
10
118.738
20
-94.7402
11
118.739
21
-94.7418
0
LINE
8
BLACK
6
CONTINUOUS
10
118.739
20
-94.7418
11
118.741
21
-94.7443
0
LINE
8
BLACK
6
CONTINUOUS
10
118.741
20
-94.7443
11
118.742
21
-94.7467
0
LINE
8
BLACK
6
CONTINUOUS
10
118.742
20
-94.7467
11
118.79
21
-94.8419
0
LINE
8
BLACK
6
CONTINUOUS
10
118.79
20
-94.8419
11
118.79
21
-94.8425
0
LINE
8
BLACK
6
CONTINUOUS
10
118.79
20
-94.8425
11
118.79
21
-94.8428
0
LINE
8
BLACK
6
CONTINUOUS
10
118.79
20
-94.8428
11
118.79
21
-94.843
0
LINE
8
BLACK
6
CONTINUOUS
10
118.79
20
-94.843
11
118.792
21
-94.8474
0
LINE
8
BLACK
6
CONTINUOUS
10
118.792
20
-94.8474
11
118.793
21
-94.8517
0
LINE
8
BLACK
6
CONTINUOUS
10
118.793
20
-94.8517
11
118.793
21
-94.8519
0
LINE
8
BLACK
6
CONTINUOUS
10
118.793
20
-94.8519
11
118.793
21
-94.8521
0
LINE
8
BLACK
6
CONTINUOUS
10
118.793
20
-94.8521
11
118.841
21
-95.0426
0
LINE
8
BLACK
6
CONTINUOUS
10
118.841
20
-95.0426
11
118.841
21
-95.0433
0
LINE
8
BLACK
6
CONTINUOUS
10
118.841
20
-95.0433
11
118.841
21
-95.0442
0
LINE
8
BLACK
6
CONTINUOUS
10
118.841
20
-95.0442
11
118.842
21
-95.045
0
LINE
8
BLACK
6
CONTINUOUS
10
118.842
20
-95.045
11
118.842
21
-95.049
0
LINE
8
BLACK
6
CONTINUOUS
10
118.842
20
-95.049
11
118.842
21
-95.053
0
LINE
8
BLACK
6
CONTINUOUS
10
118.842
20
-95.053
11
118.842
21
-95.0539
0
LINE
8
BLACK
6
CONTINUOUS
10
118.842
20
-95.0539
11
118.843
21
-95.0548
0
LINE
8
BLACK
6
CONTINUOUS
10
118.843
20
-95.0548
11
118.843
21
-95.1976
0
LINE
8
BLACK
6
CONTINUOUS
10
118.843
20
-95.1976
11
118.843
21
-95.1983
0
LINE
8
BLACK
6
CONTINUOUS
10
118.843
20
-95.1983
11
118.842
21
-95.1992
0
LINE
8
BLACK
6
CONTINUOUS
10
118.842
20
-95.1992
11
118.842
21
-95.2001
0
LINE
8
BLACK
6
CONTINUOUS
10
118.842
20
-95.2001
11
118.842
21
-95.204
0
LINE
8
BLACK
6
CONTINUOUS
10
118.842
20
-95.204
11
118.841
21
-95.208
0
LINE
8
BLACK
6
CONTINUOUS
10
118.841
20
-95.208
11
118.841
21
-95.2089
0
LINE
8
BLACK
6
CONTINUOUS
10
118.841
20
-95.2089
11
118.841
21
-95.2097
0
LINE
8
BLACK
6
CONTINUOUS
10
118.841
20
-95.2097
11
118.793
21
-95.4002
0
LINE
8
BLACK
6
CONTINUOUS
10
118.793
20
-95.4002
11
118.793
21
-95.4009
0
LINE
8
BLACK
6
CONTINUOUS
10
118.793
20
-95.4009
11
118.793
21
-95.4011
0
LINE
8
BLACK
6
CONTINUOUS
10
118.793
20
-95.4011
11
118.793
21
-95.4013
0
LINE
8
BLACK
6
CONTINUOUS
10
118.793
20
-95.4013
11
118.791
21
-95.4057
0
LINE
8
BLACK
6
CONTINUOUS
10
118.791
20
-95.4057
11
118.79
21
-95.41
0
LINE
8
BLACK
6
CONTINUOUS
10
118.79
20
-95.41
11
118.79
21
-95.4102
0
LINE
8
BLACK
6
CONTINUOUS
10
118.79
20
-95.4102
11
118.79
21
-95.4104
0
LINE
8
BLACK
6
CONTINUOUS
10
118.79
20
-95.4104
11
118.742
21
-95.5057
0
LINE
8
BLACK
6
CONTINUOUS
10
118.742
20
-95.5057
11
118.742
21
-95.5063
0
LINE
8
BLACK
6
CONTINUOUS
10
118.742
20
-95.5063
11
118.74
21
-95.5087
0
LINE
8
BLACK
6
CONTINUOUS
10
118.74
20
-95.5087
11
118.739
21
-95.5111
0
LINE
8
BLACK
6
CONTINUOUS
10
118.739
20
-95.5111
11
118.738
21
-95.5127
0
LINE
8
BLACK
6
CONTINUOUS
10
118.738
20
-95.5127
11
118.736
21
-95.5145
0
LINE
8
BLACK
6
CONTINUOUS
10
118.736
20
-95.5145
11
118.734
21
-95.5165
0
LINE
8
BLACK
6
CONTINUOUS
10
118.734
20
-95.5165
11
118.733
21
-95.5187
0
LINE
8
BLACK
6
CONTINUOUS
10
118.733
20
-95.5187
11
118.637
21
-95.6139
0
LINE
8
BLACK
6
CONTINUOUS
10
118.637
20
-95.6139
11
118.637
21
-95.6144
0
LINE
8
BLACK
6
CONTINUOUS
10
118.637
20
-95.6144
11
118.636
21
-95.6153
0
LINE
8
BLACK
6
CONTINUOUS
10
118.636
20
-95.6153
11
118.635
21
-95.6164
0
LINE
8
BLACK
6
CONTINUOUS
10
118.635
20
-95.6164
11
118.632
21
-95.6184
0
LINE
8
BLACK
6
CONTINUOUS
10
118.632
20
-95.6184
11
118.629
21
-95.6205
0
LINE
8
BLACK
6
CONTINUOUS
10
118.629
20
-95.6205
11
118.628
21
-95.6212
0
LINE
8
BLACK
6
CONTINUOUS
10
118.628
20
-95.6212
11
118.627
21
-95.622
0
LINE
8
BLACK
6
CONTINUOUS
10
118.627
20
-95.622
11
118.624
21
-95.6234
0
LINE
8
BLACK
6
CONTINUOUS
10
118.624
20
-95.6234
11
118.621
21
-95.625
0
LINE
8
BLACK
6
CONTINUOUS
10
118.621
20
-95.625
11
118.619
21
-95.6254
0
LINE
8
BLACK
6
CONTINUOUS
10
118.619
20
-95.6254
11
118.618
21
-95.626
0
LINE
8
BLACK
6
CONTINUOUS
10
118.618
20
-95.626
11
118.475
21
-95.6736
0
LINE
8
BLACK
6
CONTINUOUS
10
118.475
20
-95.6736
11
118.474
21
-95.6738
0
LINE
8
BLACK
6
CONTINUOUS
10
118.474
20
-95.6738
11
118.472
21
-95.6744
0
LINE
8
BLACK
6
CONTINUOUS
10
118.472
20
-95.6744
11
118.469
21
-95.6752
0
LINE
8
BLACK
6
CONTINUOUS
10
118.469
20
-95.6752
11
118.467
21
-95.6754
0
LINE
8
BLACK
6
CONTINUOUS
10
118.467
20
-95.6754
11
118.465
21
-95.6759
0
LINE
8
BLACK
6
CONTINUOUS
10
118.465
20
-95.6759
11
118.462
21
-95.6759
0
LINE
8
BLACK
6
CONTINUOUS
10
118.462
20
-95.6759
11
118.459
21
-95.6762
0
LINE
8
BLACK
6
CONTINUOUS
10
118.459
20
-95.6762
11
118.364
21
-95.6762
0
LINE
8
BLACK
6
CONTINUOUS
10
118.364
20
-95.6762
11
118.363
21
-95.6762
0
LINE
8
BLACK
6
CONTINUOUS
10
118.363
20
-95.6762
11
118.36
21
-95.6759
0
LINE
8
BLACK
6
CONTINUOUS
10
118.36
20
-95.6759
11
118.358
21
-95.6758
0
LINE
8
BLACK
6
CONTINUOUS
10
118.358
20
-95.6758
11
118.356
21
-95.6753
0
LINE
8
BLACK
6
CONTINUOUS
10
118.356
20
-95.6753
11
118.354
21
-95.6751
0
LINE
8
BLACK
6
CONTINUOUS
10
118.354
20
-95.6751
11
118.351
21
-95.6742
0
LINE
8
BLACK
6
CONTINUOUS
10
118.351
20
-95.6742
11
118.348
21
-95.6736
0
LINE
8
BLACK
6
CONTINUOUS
10
118.348
20
-95.6736
11
118.205
21
-95.626
0
LINE
8
BLACK
6
CONTINUOUS
10
118.205
20
-95.626
11
118.205
21
-95.6258
0
LINE
8
BLACK
6
CONTINUOUS
10
118.205
20
-95.6258
11
118.203
21
-95.6252
0
LINE
8
BLACK
6
CONTINUOUS
10
118.203
20
-95.6252
11
118.202
21
-95.6247
0
LINE
8
BLACK
6
CONTINUOUS
10
118.202
20
-95.6247
11
118.199
21
-95.6231
0
LINE
8
BLACK
6
CONTINUOUS
10
118.199
20
-95.6231
11
118.196
21
-95.6217
0
LINE
8
BLACK
6
CONTINUOUS
10
118.196
20
-95.6217
11
118.195
21
-95.6208
0
LINE
8
BLACK
6
CONTINUOUS
10
118.195
20
-95.6208
11
118.193
21
-95.6201
0
LINE
8
BLACK
6
CONTINUOUS
10
118.193
20
-95.6201
11
118.191
21
-95.6179
0
LINE
8
BLACK
6
CONTINUOUS
10
118.191
20
-95.6179
11
118.188
21
-95.6159
0
LINE
8
BLACK
6
CONTINUOUS
10
118.188
20
-95.6159
11
118.187
21
-95.6148
0
LINE
8
BLACK
6
CONTINUOUS
10
118.187
20
-95.6148
11
118.186
21
-95.6139
0
LINE
8
BLACK
6
CONTINUOUS
10
118.186
20
-95.6139
11
118.138
21
-95.5663
0
LINE
8
BLACK
6
CONTINUOUS
10
118.138
20
-95.5663
11
118.138
21
-95.5658
0
LINE
8
BLACK
6
CONTINUOUS
10
118.138
20
-95.5658
11
118.132
21
-95.5582
0
LINE
8
BLACK
6
CONTINUOUS
10
118.132
20
-95.5582
11
118.127
21
-95.5495
0
LINE
8
BLACK
6
CONTINUOUS
10
118.127
20
-95.5495
11
118.124
21
-95.5401
0
LINE
8
BLACK
6
CONTINUOUS
10
118.124
20
-95.5401
11
118.123
21
-95.5304
0
LINE
8
BLACK
6
CONTINUOUS
10
118.123
20
-95.5304
11
118.125
21
-95.5207
0
LINE
8
BLACK
6
CONTINUOUS
10
118.125
20
-95.5207
11
118.127
21
-95.5114
0
LINE
8
BLACK
6
CONTINUOUS
10
118.127
20
-95.5114
11
118.132
21
-95.5028
0
LINE
8
BLACK
6
CONTINUOUS
10
118.132
20
-95.5028
11
118.138
21
-95.4953
0
LINE
8
BLACK
6
CONTINUOUS
10
118.138
20
-95.4953
11
118.146
21
-95.4892
0
LINE
8
BLACK
6
CONTINUOUS
10
118.146
20
-95.4892
11
118.155
21
-95.4846
0
LINE
8
BLACK
6
CONTINUOUS
10
118.155
20
-95.4846
11
118.164
21
-95.4819
0
LINE
8
BLACK
6
CONTINUOUS
10
118.164
20
-95.4819
11
118.174
21
-95.4809
0
LINE
8
BLACK
6
CONTINUOUS
10
118.174
20
-95.4809
11
118.183
21
-95.4819
0
LINE
8
BLACK
6
CONTINUOUS
10
118.183
20
-95.4819
11
118.193
21
-95.4848
0
LINE
8
BLACK
6
CONTINUOUS
10
118.193
20
-95.4848
11
118.201
21
-95.4894
0
LINE
8
BLACK
6
CONTINUOUS
10
118.201
20
-95.4894
11
118.209
21
-95.4956
0
LINE
8
BLACK
6
CONTINUOUS
10
118.209
20
-95.4956
11
118.248
21
-95.5349
0
LINE
8
BLACK
6
CONTINUOUS
10
118.248
20
-95.5349
11
118.372
21
-95.5762
0
LINE
8
BLACK
6
CONTINUOUS
10
118.372
20
-95.5762
11
118.451
21
-95.5762
0
LINE
8
BLACK
6
CONTINUOUS
10
118.451
20
-95.5762
11
118.575
21
-95.5349
0
LINE
8
BLACK
6
CONTINUOUS
10
118.575
20
-95.5349
11
118.656
21
-95.4537
0
LINE
8
BLACK
6
CONTINUOUS
10
118.656
20
-95.4537
11
118.698
21
-95.3706
0
LINE
8
BLACK
6
CONTINUOUS
10
118.698
20
-95.3706
11
118.743
21
-95.1915
0
LINE
8
BLACK
6
CONTINUOUS
10
118.743
20
-95.1915
11
118.743
21
-95.0609
0
LINE
8
BLACK
6
CONTINUOUS
10
118.743
20
-95.0609
11
118.698
21
-94.8817
0
LINE
8
BLACK
6
CONTINUOUS
10
118.698
20
-94.8817
11
118.656
21
-94.7987
0
LINE
8
BLACK
6
CONTINUOUS
10
118.656
20
-94.7987
11
118.575
21
-94.7175
0
LINE
8
BLACK
6
CONTINUOUS
10
118.575
20
-94.7175
11
118.451
21
-94.6762
0
LINE
8
BLACK
6
CONTINUOUS
10
118.451
20
-94.6762
11
118.372
21
-94.6762
0
LINE
8
BLACK
6
CONTINUOUS
10
118.372
20
-94.6762
11
118.248
21
-94.7175
0
LINE
8
BLACK
6
CONTINUOUS
10
118.248
20
-94.7175
11
118.209
21
-94.7568
0
LINE
8
BLACK
6
CONTINUOUS
10
118.209
20
-94.7568
11
118.208
21
-94.7573
0
LINE
8
BLACK
6
CONTINUOUS
10
118.208
20
-94.7573
11
118.201
21
-94.7634
0
LINE
8
BLACK
6
CONTINUOUS
10
118.201
20
-94.7634
11
118.192
21
-94.7678
0
LINE
8
BLACK
6
CONTINUOUS
10
118.192
20
-94.7678
11
118.183
21
-94.7706
0
LINE
8
BLACK
6
CONTINUOUS
10
118.183
20
-94.7706
11
118.173
21
-94.7714
0
LINE
8
BLACK
6
CONTINUOUS
10
118.173
20
-94.7714
11
118.163
21
-94.7704
0
LINE
8
BLACK
6
CONTINUOUS
10
118.163
20
-94.7704
11
118.154
21
-94.7674
0
LINE
8
BLACK
6
CONTINUOUS
10
118.154
20
-94.7674
11
118.145
21
-94.7628
0
LINE
8
BLACK
6
CONTINUOUS
10
118.145
20
-94.7628
11
118.138
21
-94.7565
0
LINE
8
BLACK
6
CONTINUOUS
10
118.138
20
-94.7565
11
118.132
21
-94.7489
0
LINE
8
BLACK
6
CONTINUOUS
10
118.132
20
-94.7489
11
118.127
21
-94.7403
0
LINE
8
BLACK
6
CONTINUOUS
10
118.127
20
-94.7403
11
118.124
21
-94.731
0
LINE
8
BLACK
6
CONTINUOUS
10
118.124
20
-94.731
11
118.123
21
-94.7212
0
LINE
8
BLACK
6
CONTINUOUS
10
118.123
20
-94.7212
11
118.124
21
-94.7115
0
LINE
8
BLACK
6
CONTINUOUS
10
118.124
20
-94.7115
11
118.127
21
-94.7022
0
LINE
8
BLACK
6
CONTINUOUS
10
118.127
20
-94.7022
11
118.132
21
-94.6936
0
LINE
8
BLACK
6
CONTINUOUS
10
118.132
20
-94.6936
11
118.138
21
-94.6861
0
LINE
8
BLACK
6
CONTINUOUS
10
118.138
20
-94.6861
11
118.186
21
-94.6384
0
LINE
8
BLACK
6
CONTINUOUS
10
118.186
20
-94.6384
11
118.186
21
-94.638
0
LINE
8
BLACK
6
CONTINUOUS
10
118.186
20
-94.638
11
118.187
21
-94.637
0
LINE
8
BLACK
6
CONTINUOUS
10
118.187
20
-94.637
11
118.188
21
-94.636
0
LINE
8
BLACK
6
CONTINUOUS
10
118.188
20
-94.636
11
118.191
21
-94.634
0
LINE
8
BLACK
6
CONTINUOUS
10
118.191
20
-94.634
11
118.194
21
-94.6319
0
LINE
8
BLACK
6
CONTINUOUS
10
118.194
20
-94.6319
11
118.195
21
-94.6312
0
LINE
8
BLACK
6
CONTINUOUS
10
118.195
20
-94.6312
11
118.196
21
-94.6303
0
LINE
8
BLACK
6
CONTINUOUS
10
118.196
20
-94.6303
11
118.2
21
-94.6289
0
LINE
8
BLACK
6
CONTINUOUS
10
118.2
20
-94.6289
11
118.203
21
-94.6274
0
LINE
8
BLACK
6
CONTINUOUS
10
118.203
20
-94.6274
11
118.204
21
-94.627
0
LINE
8
BLACK
6
CONTINUOUS
10
118.204
20
-94.627
11
118.205
21
-94.6264
0
LINE
8
BLACK
6
CONTINUOUS
10
118.205
20
-94.6264
11
118.348
21
-94.5787
0
LINE
8
BLACK
6
CONTINUOUS
10
118.348
20
-94.5787
11
118.349
21
-94.5785
0
LINE
8
BLACK
6
CONTINUOUS
10
118.349
20
-94.5785
11
118.352
21
-94.5779
0
LINE
8
BLACK
6
CONTINUOUS
10
118.352
20
-94.5779
11
118.354
21
-94.5771
0
LINE
8
BLACK
6
CONTINUOUS
10
118.354
20
-94.5771
11
118.356
21
-94.5769
0
LINE
8
BLACK
6
CONTINUOUS
10
118.356
20
-94.5769
11
118.358
21
-94.5765
0
LINE
8
BLACK
6
CONTINUOUS
10
118.358
20
-94.5765
11
118.361
21
-94.5765
0
LINE
8
BLACK
6
CONTINUOUS
10
118.361
20
-94.5765
11
118.364
21
-94.5762
0
LINE
8
BLACK
6
CONTINUOUS
10
118.364
20
-94.5762
11
118.459
21
-94.5762
0
LINE
8
BLACK
6
CONTINUOUS
10
118.459
20
-94.5762
11
118.46
21
-94.5762
0
LINE
8
BLACK
6
CONTINUOUS
10
120.041
20
-94.5772
11
120.05
21
-94.5801
0
LINE
8
BLACK
6
CONTINUOUS
10
120.05
20
-94.5801
11
120.059
21
-94.5847
0
LINE
8
BLACK
6
CONTINUOUS
10
120.059
20
-94.5847
11
120.066
21
-94.5909
0
LINE
8
BLACK
6
CONTINUOUS
10
120.066
20
-94.5909
11
120.072
21
-94.5985
0
LINE
8
BLACK
6
CONTINUOUS
10
120.072
20
-94.5985
11
120.077
21
-94.6071
0
LINE
8
BLACK
6
CONTINUOUS
10
120.077
20
-94.6071
11
120.08
21
-94.6165
0
LINE
8
BLACK
6
CONTINUOUS
10
120.08
20
-94.6165
11
120.081
21
-94.6262
0
LINE
8
BLACK
6
CONTINUOUS
10
120.081
20
-94.6262
11
120.081
21
-95.3324
0
LINE
8
BLACK
6
CONTINUOUS
10
120.081
20
-95.3324
11
120.122
21
-95.4563
0
LINE
8
BLACK
6
CONTINUOUS
10
120.122
20
-95.4563
11
120.2
21
-95.5349
0
LINE
8
BLACK
6
CONTINUOUS
10
120.2
20
-95.5349
11
120.324
21
-95.5762
0
LINE
8
BLACK
6
CONTINUOUS
10
120.324
20
-95.5762
11
120.412
21
-95.5762
0
LINE
8
BLACK
6
CONTINUOUS
10
120.412
20
-95.5762
11
120.412
21
-95.5762
0
LINE
8
BLACK
6
CONTINUOUS
10
120.412
20
-95.5762
11
120.422
21
-95.5773
0
LINE
8
BLACK
6
CONTINUOUS
10
120.422
20
-95.5773
11
120.431
21
-95.5802
0
LINE
8
BLACK
6
CONTINUOUS
10
120.431
20
-95.5802
11
120.44
21
-95.5849
0
LINE
8
BLACK
6
CONTINUOUS
10
120.44
20
-95.5849
11
120.447
21
-95.5912
0
LINE
8
BLACK
6
CONTINUOUS
10
120.447
20
-95.5912
11
120.453
21
-95.5988
0
LINE
8
BLACK
6
CONTINUOUS
10
120.453
20
-95.5988
11
120.458
21
-95.6075
0
LINE
8
BLACK
6
CONTINUOUS
10
120.458
20
-95.6075
11
120.461
21
-95.6168
0
LINE
8
BLACK
6
CONTINUOUS
10
120.461
20
-95.6168
11
120.462
21
-95.6265
0
LINE
8
BLACK
6
CONTINUOUS
10
120.462
20
-95.6265
11
120.461
21
-95.6362
0
LINE
8
BLACK
6
CONTINUOUS
10
120.461
20
-95.6362
11
120.458
21
-95.6456
0
LINE
8
BLACK
6
CONTINUOUS
10
120.458
20
-95.6456
11
120.453
21
-95.6541
0
LINE
8
BLACK
6
CONTINUOUS
10
120.453
20
-95.6541
11
120.447
21
-95.6617
0
LINE
8
BLACK
6
CONTINUOUS
10
120.447
20
-95.6617
11
120.439
21
-95.6678
0
LINE
8
BLACK
6
CONTINUOUS
10
120.439
20
-95.6678
11
120.431
21
-95.6724
0
LINE
8
BLACK
6
CONTINUOUS
10
120.431
20
-95.6724
11
120.421
21
-95.6752
0
LINE
8
BLACK
6
CONTINUOUS
10
120.421
20
-95.6752
11
120.412
21
-95.6762
0
LINE
8
BLACK
6
CONTINUOUS
10
120.412
20
-95.6762
11
120.316
21
-95.6762
0
LINE
8
BLACK
6
CONTINUOUS
10
120.316
20
-95.6762
11
120.316
21
-95.6762
0
LINE
8
BLACK
6
CONTINUOUS
10
120.316
20
-95.6762
11
120.313
21
-95.6759
0
LINE
8
BLACK
6
CONTINUOUS
10
120.313
20
-95.6759
11
120.31
21
-95.6758
0
LINE
8
BLACK
6
CONTINUOUS
10
120.31
20
-95.6758
11
120.308
21
-95.6753
0
LINE
8
BLACK
6
CONTINUOUS
10
120.308
20
-95.6753
11
120.306
21
-95.6751
0
LINE
8
BLACK
6
CONTINUOUS
10
120.306
20
-95.6751
11
120.303
21
-95.6742
0
LINE
8
BLACK
6
CONTINUOUS
10
120.303
20
-95.6742
11
120.301
21
-95.6736
0
LINE
8
BLACK
6
CONTINUOUS
10
120.301
20
-95.6736
11
120.158
21
-95.626
0
LINE
8
BLACK
6
CONTINUOUS
10
120.158
20
-95.626
11
120.157
21
-95.6258
0
LINE
8
BLACK
6
CONTINUOUS
10
120.157
20
-95.6258
11
120.156
21
-95.6252
0
LINE
8
BLACK
6
CONTINUOUS
10
120.156
20
-95.6252
11
120.154
21
-95.6247
0
LINE
8
BLACK
6
CONTINUOUS
10
120.154
20
-95.6247
11
120.151
21
-95.6231
0
LINE
8
BLACK
6
CONTINUOUS
10
120.151
20
-95.6231
11
120.148
21
-95.6217
0
LINE
8
BLACK
6
CONTINUOUS
10
120.148
20
-95.6217
11
120.147
21
-95.6208
0
LINE
8
BLACK
6
CONTINUOUS
10
120.147
20
-95.6208
11
120.146
21
-95.6201
0
LINE
8
BLACK
6
CONTINUOUS
10
120.146
20
-95.6201
11
120.143
21
-95.6179
0
LINE
8
BLACK
6
CONTINUOUS
10
120.143
20
-95.6179
11
120.14
21
-95.6159
0
LINE
8
BLACK
6
CONTINUOUS
10
120.14
20
-95.6159
11
120.139
21
-95.6148
0
LINE
8
BLACK
6
CONTINUOUS
10
120.139
20
-95.6148
11
120.138
21
-95.6139
0
LINE
8
BLACK
6
CONTINUOUS
10
120.138
20
-95.6139
11
120.043
21
-95.5187
0
LINE
8
BLACK
6
CONTINUOUS
10
120.043
20
-95.5187
11
120.042
21
-95.5182
0
LINE
8
BLACK
6
CONTINUOUS
10
120.042
20
-95.5182
11
120.041
21
-95.517
0
LINE
8
BLACK
6
CONTINUOUS
10
120.041
20
-95.517
11
120.04
21
-95.516
0
LINE
8
BLACK
6
CONTINUOUS
10
120.04
20
-95.516
11
120.038
21
-95.5132
0
LINE
8
BLACK
6
CONTINUOUS
10
120.038
20
-95.5132
11
120.036
21
-95.5106
0
LINE
8
BLACK
6
CONTINUOUS
10
120.036
20
-95.5106
11
120.036
21
-95.5092
0
LINE
8
BLACK
6
CONTINUOUS
10
120.036
20
-95.5092
11
120.035
21
-95.508
0
LINE
8
BLACK
6
CONTINUOUS
10
120.035
20
-95.508
11
120.033
21
-95.5049
0
LINE
8
BLACK
6
CONTINUOUS
10
120.033
20
-95.5049
11
120.032
21
-95.5019
0
LINE
8
BLACK
6
CONTINUOUS
10
120.032
20
-95.5019
11
120.031
21
-95.5005
0
LINE
8
BLACK
6
CONTINUOUS
10
120.031
20
-95.5005
11
120.031
21
-95.4991
0
LINE
8
BLACK
6
CONTINUOUS
10
120.031
20
-95.4991
11
119.983
21
-95.3563
0
LINE
8
BLACK
6
CONTINUOUS
10
119.983
20
-95.3563
11
119.983
21
-95.3556
0
LINE
8
BLACK
6
CONTINUOUS
10
119.983
20
-95.3556
11
119.982
21
-95.3529
0
LINE
8
BLACK
6
CONTINUOUS
10
119.982
20
-95.3529
11
119.982
21
-95.3502
0
LINE
8
BLACK
6
CONTINUOUS
10
119.982
20
-95.3502
11
119.981
21
-95.3481
0
LINE
8
BLACK
6
CONTINUOUS
10
119.981
20
-95.3481
11
119.981
21
-95.3461
0
LINE
8
BLACK
6
CONTINUOUS
10
119.981
20
-95.3461
11
119.981
21
-95.3433
0
LINE
8
BLACK
6
CONTINUOUS
10
119.981
20
-95.3433
11
119.981
21
-95.3405
0
LINE
8
BLACK
6
CONTINUOUS
10
119.981
20
-95.3405
11
119.981
21
-94.6262
0
LINE
8
BLACK
6
CONTINUOUS
10
119.981
20
-94.6262
11
119.981
21
-94.6255
0
LINE
8
BLACK
6
CONTINUOUS
10
119.981
20
-94.6255
11
119.982
21
-94.6158
0
LINE
8
BLACK
6
CONTINUOUS
10
119.982
20
-94.6158
11
119.985
21
-94.6065
0
LINE
8
BLACK
6
CONTINUOUS
10
119.985
20
-94.6065
11
119.989
21
-94.5979
0
LINE
8
BLACK
6
CONTINUOUS
10
119.989
20
-94.5979
11
119.996
21
-94.5905
0
LINE
8
BLACK
6
CONTINUOUS
10
119.996
20
-94.5905
11
120.003
21
-94.5843
0
LINE
8
BLACK
6
CONTINUOUS
10
120.003
20
-94.5843
11
120.012
21
-94.5798
0
LINE
8
BLACK
6
CONTINUOUS
10
120.012
20
-94.5798
11
120.021
21
-94.5771
0
LINE
8
BLACK
6
CONTINUOUS
10
120.021
20
-94.5771
11
120.031
21
-94.5762
0
LINE
8
BLACK
6
CONTINUOUS
10
120.031
20
-94.5762
11
120.041
21
-94.5772
0
LINE
8
BLACK
6
CONTINUOUS
10
114.422
20
-94.5772
11
114.431
21
-94.5801
0
LINE
8
BLACK
6
CONTINUOUS
10
114.431
20
-94.5801
11
114.44
21
-94.5847
0
LINE
8
BLACK
6
CONTINUOUS
10
114.44
20
-94.5847
11
114.447
21
-94.5909
0
LINE
8
BLACK
6
CONTINUOUS
10
114.447
20
-94.5909
11
114.453
21
-94.5985
0
LINE
8
BLACK
6
CONTINUOUS
10
114.453
20
-94.5985
11
114.458
21
-94.6071
0
LINE
8
BLACK
6
CONTINUOUS
10
114.458
20
-94.6071
11
114.461
21
-94.6165
0
LINE
8
BLACK
6
CONTINUOUS
10
114.461
20
-94.6165
11
114.462
21
-94.6262
0
LINE
8
BLACK
6
CONTINUOUS
10
114.462
20
-94.6262
11
114.462
21
-95.6262
0
LINE
8
BLACK
6
CONTINUOUS
10
114.462
20
-95.6262
11
114.462
21
-95.6265
0
LINE
8
BLACK
6
CONTINUOUS
10
114.462
20
-95.6265
11
114.462
21
-95.6265
0
LINE
8
BLACK
6
CONTINUOUS
10
114.462
20
-95.6265
11
114.462
21
-95.6265
0
LINE
8
BLACK
6
CONTINUOUS
10
114.462
20
-95.6265
11
114.462
21
-95.6269
0
LINE
8
BLACK
6
CONTINUOUS
10
114.462
20
-95.6269
11
114.461
21
-95.6315
0
LINE
8
BLACK
6
CONTINUOUS
10
114.461
20
-95.6315
11
114.461
21
-95.6362
0
LINE
8
BLACK
6
CONTINUOUS
10
114.461
20
-95.6362
11
114.46
21
-95.6364
0
LINE
8
BLACK
6
CONTINUOUS
10
114.46
20
-95.6364
11
114.46
21
-95.6366
0
LINE
8
BLACK
6
CONTINUOUS
10
114.46
20
-95.6366
11
114.459
21
-95.641
0
LINE
8
BLACK
6
CONTINUOUS
10
114.459
20
-95.641
11
114.458
21
-95.6456
0
LINE
8
BLACK
6
CONTINUOUS
10
114.458
20
-95.6456
11
114.458
21
-95.6457
0
LINE
8
BLACK
6
CONTINUOUS
10
114.458
20
-95.6457
11
114.458
21
-95.6459
0
LINE
8
BLACK
6
CONTINUOUS
10
114.458
20
-95.6459
11
114.455
21
-95.65
0
LINE
8
BLACK
6
CONTINUOUS
10
114.455
20
-95.65
11
114.453
21
-95.6541
0
LINE
8
BLACK
6
CONTINUOUS
10
114.453
20
-95.6541
11
114.453
21
-95.6543
0
LINE
8
BLACK
6
CONTINUOUS
10
114.453
20
-95.6543
11
114.453
21
-95.6544
0
LINE
8
BLACK
6
CONTINUOUS
10
114.453
20
-95.6544
11
114.45
21
-95.658
0
LINE
8
BLACK
6
CONTINUOUS
10
114.45
20
-95.658
11
114.447
21
-95.6617
0
LINE
8
BLACK
6
CONTINUOUS
10
114.447
20
-95.6617
11
114.447
21
-95.6618
0
LINE
8
BLACK
6
CONTINUOUS
10
114.447
20
-95.6618
11
114.447
21
-95.6619
0
LINE
8
BLACK
6
CONTINUOUS
10
114.447
20
-95.6619
11
114.443
21
-95.6648
0
LINE
8
BLACK
6
CONTINUOUS
10
114.443
20
-95.6648
11
114.439
21
-95.6678
0
LINE
8
BLACK
6
CONTINUOUS
10
114.439
20
-95.6678
11
114.439
21
-95.6679
0
LINE
8
BLACK
6
CONTINUOUS
10
114.439
20
-95.6679
11
114.439
21
-95.668
0
LINE
8
BLACK
6
CONTINUOUS
10
114.439
20
-95.668
11
114.435
21
-95.6702
0
LINE
8
BLACK
6
CONTINUOUS
10
114.435
20
-95.6702
11
114.431
21
-95.6724
0
LINE
8
BLACK
6
CONTINUOUS
10
114.431
20
-95.6724
11
114.43
21
-95.6725
0
LINE
8
BLACK
6
CONTINUOUS
10
114.43
20
-95.6725
11
114.43
21
-95.6725
0
LINE
8
BLACK
6
CONTINUOUS
10
114.43
20
-95.6725
11
114.426
21
-95.6739
0
LINE
8
BLACK
6
CONTINUOUS
10
114.426
20
-95.6739
11
114.421
21
-95.6752
0
LINE
8
BLACK
6
CONTINUOUS
10
114.421
20
-95.6752
11
114.421
21
-95.6752
0
LINE
8
BLACK
6
CONTINUOUS
10
114.421
20
-95.6752
11
114.421
21
-95.6753
0
LINE
8
BLACK
6
CONTINUOUS
10
114.421
20
-95.6753
11
114.416
21
-95.6757
0
LINE
8
BLACK
6
CONTINUOUS
10
114.416
20
-95.6757
11
114.412
21
-95.6762
0
LINE
8
BLACK
6
CONTINUOUS
10
114.412
20
-95.6762
11
113.935
21
-95.6762
0
LINE
8
BLACK
6
CONTINUOUS
10
113.935
20
-95.6762
11
113.935
21
-95.6762
0
LINE
8
BLACK
6
CONTINUOUS
10
113.935
20
-95.6762
11
113.925
21
-95.6751
0
LINE
8
BLACK
6
CONTINUOUS
10
113.925
20
-95.6751
11
113.916
21
-95.6721
0
LINE
8
BLACK
6
CONTINUOUS
10
113.916
20
-95.6721
11
113.907
21
-95.6674
0
LINE
8
BLACK
6
CONTINUOUS
10
113.907
20
-95.6674
11
113.9
21
-95.6612
0
LINE
8
BLACK
6
CONTINUOUS
10
113.9
20
-95.6612
11
113.894
21
-95.6536
0
LINE
8
BLACK
6
CONTINUOUS
10
113.894
20
-95.6536
11
113.889
21
-95.6449
0
LINE
8
BLACK
6
CONTINUOUS
10
113.889
20
-95.6449
11
113.886
21
-95.6355
0
LINE
8
BLACK
6
CONTINUOUS
10
113.886
20
-95.6355
11
113.885
21
-95.6258
0
LINE
8
BLACK
6
CONTINUOUS
10
113.885
20
-95.6258
11
113.886
21
-95.6161
0
LINE
8
BLACK
6
CONTINUOUS
10
113.886
20
-95.6161
11
113.889
21
-95.6068
0
LINE
8
BLACK
6
CONTINUOUS
10
113.889
20
-95.6068
11
113.894
21
-95.5982
0
LINE
8
BLACK
6
CONTINUOUS
10
113.894
20
-95.5982
11
113.9
21
-95.5907
0
LINE
8
BLACK
6
CONTINUOUS
10
113.9
20
-95.5907
11
113.908
21
-95.5845
0
LINE
8
BLACK
6
CONTINUOUS
10
113.908
20
-95.5845
11
113.916
21
-95.58
0
LINE
8
BLACK
6
CONTINUOUS
10
113.916
20
-95.58
11
113.926
21
-95.5771
0
LINE
8
BLACK
6
CONTINUOUS
10
113.926
20
-95.5771
11
113.935
21
-95.5762
0
LINE
8
BLACK
6
CONTINUOUS
10
113.935
20
-95.5762
11
114.362
21
-95.5762
0
LINE
8
BLACK
6
CONTINUOUS
10
114.362
20
-95.5762
11
114.362
21
-94.6262
0
LINE
8
BLACK
6
CONTINUOUS
10
114.362
20
-94.6262
11
114.362
21
-94.6255
0
LINE
8
BLACK
6
CONTINUOUS
10
114.362
20
-94.6255
11
114.363
21
-94.6158
0
LINE
8
BLACK
6
CONTINUOUS
10
114.363
20
-94.6158
11
114.366
21
-94.6065
0
LINE
8
BLACK
6
CONTINUOUS
10
114.366
20
-94.6065
11
114.37
21
-94.5979
0
LINE
8
BLACK
6
CONTINUOUS
10
114.37
20
-94.5979
11
114.377
21
-94.5905
0
LINE
8
BLACK
6
CONTINUOUS
10
114.377
20
-94.5905
11
114.384
21
-94.5843
0
LINE
8
BLACK
6
CONTINUOUS
10
114.384
20
-94.5843
11
114.393
21
-94.5798
0
LINE
8
BLACK
6
CONTINUOUS
10
114.393
20
-94.5798
11
114.402
21
-94.5771
0
LINE
8
BLACK
6
CONTINUOUS
10
114.402
20
-94.5771
11
114.412
21
-94.5762
0
LINE
8
BLACK
6
CONTINUOUS
10
114.412
20
-94.5762
11
114.422
21
-94.5772
0
LINE
8
BLACK
6
CONTINUOUS
10
113.317
20
-94.5762
11
113.32
21
-94.5765
0
LINE
8
BLACK
6
CONTINUOUS
10
113.32
20
-94.5765
11
113.323
21
-94.5766
0
LINE
8
BLACK
6
CONTINUOUS
10
113.323
20
-94.5766
11
113.325
21
-94.577
0
LINE
8
BLACK
6
CONTINUOUS
10
113.325
20
-94.577
11
113.327
21
-94.5773
0
LINE
8
BLACK
6
CONTINUOUS
10
113.327
20
-94.5773
11
113.329
21
-94.5781
0
LINE
8
BLACK
6
CONTINUOUS
10
113.329
20
-94.5781
11
113.332
21
-94.5787
0
LINE
8
BLACK
6
CONTINUOUS
10
113.332
20
-94.5787
11
113.475
21
-94.6264
0
LINE
8
BLACK
6
CONTINUOUS
10
113.475
20
-94.6264
11
113.476
21
-94.6266
0
LINE
8
BLACK
6
CONTINUOUS
10
113.476
20
-94.6266
11
113.477
21
-94.6272
0
LINE
8
BLACK
6
CONTINUOUS
10
113.477
20
-94.6272
11
113.478
21
-94.6276
0
LINE
8
BLACK
6
CONTINUOUS
10
113.478
20
-94.6276
11
113.481
21
-94.6293
0
LINE
8
BLACK
6
CONTINUOUS
10
113.481
20
-94.6293
11
113.485
21
-94.6307
0
LINE
8
BLACK
6
CONTINUOUS
10
113.485
20
-94.6307
11
113.486
21
-94.6316
0
LINE
8
BLACK
6
CONTINUOUS
10
113.486
20
-94.6316
11
113.487
21
-94.6322
0
LINE
8
BLACK
6
CONTINUOUS
10
113.487
20
-94.6322
11
113.49
21
-94.6344
0
LINE
8
BLACK
6
CONTINUOUS
10
113.49
20
-94.6344
11
113.492
21
-94.6364
0
LINE
8
BLACK
6
CONTINUOUS
10
113.492
20
-94.6364
11
113.493
21
-94.6375
0
LINE
8
BLACK
6
CONTINUOUS
10
113.493
20
-94.6375
11
113.495
21
-94.6384
0
LINE
8
BLACK
6
CONTINUOUS
10
113.495
20
-94.6384
11
113.59
21
-94.7337
0
LINE
8
BLACK
6
CONTINUOUS
10
113.59
20
-94.7337
11
113.59
21
-94.7342
0
LINE
8
BLACK
6
CONTINUOUS
10
113.59
20
-94.7342
11
113.592
21
-94.7364
0
LINE
8
BLACK
6
CONTINUOUS
10
113.592
20
-94.7364
11
113.594
21
-94.7384
0
LINE
8
BLACK
6
CONTINUOUS
10
113.594
20
-94.7384
11
113.595
21
-94.7402
0
LINE
8
BLACK
6
CONTINUOUS
10
113.595
20
-94.7402
11
113.596
21
-94.7418
0
LINE
8
BLACK
6
CONTINUOUS
10
113.596
20
-94.7418
11
113.598
21
-94.7443
0
LINE
8
BLACK
6
CONTINUOUS
10
113.598
20
-94.7443
11
113.599
21
-94.7467
0
LINE
8
BLACK
6
CONTINUOUS
10
113.599
20
-94.7467
11
113.647
21
-94.8419
0
LINE
8
BLACK
6
CONTINUOUS
10
113.647
20
-94.8419
11
113.647
21
-94.8425
0
LINE
8
BLACK
6
CONTINUOUS
10
113.647
20
-94.8425
11
113.647
21
-94.8428
0
LINE
8
BLACK
6
CONTINUOUS
10
113.647
20
-94.8428
11
113.647
21
-94.843
0
LINE
8
BLACK
6
CONTINUOUS
10
113.647
20
-94.843
11
113.649
21
-94.8474
0
LINE
8
BLACK
6
CONTINUOUS
10
113.649
20
-94.8474
11
113.65
21
-94.8517
0
LINE
8
BLACK
6
CONTINUOUS
10
113.65
20
-94.8517
11
113.65
21
-94.8519
0
LINE
8
BLACK
6
CONTINUOUS
10
113.65
20
-94.8519
11
113.651
21
-94.8521
0
LINE
8
BLACK
6
CONTINUOUS
10
113.651
20
-94.8521
11
113.698
21
-95.0426
0
LINE
8
BLACK
6
CONTINUOUS
10
113.698
20
-95.0426
11
113.698
21
-95.0433
0
LINE
8
BLACK
6
CONTINUOUS
10
113.698
20
-95.0433
11
113.698
21
-95.0442
0
LINE
8
BLACK
6
CONTINUOUS
10
113.698
20
-95.0442
11
113.699
21
-95.045
0
LINE
8
BLACK
6
CONTINUOUS
10
113.699
20
-95.045
11
113.699
21
-95.049
0
LINE
8
BLACK
6
CONTINUOUS
10
113.699
20
-95.049
11
113.7
21
-95.053
0
LINE
8
BLACK
6
CONTINUOUS
10
113.7
20
-95.053
11
113.7
21
-95.0539
0
LINE
8
BLACK
6
CONTINUOUS
10
113.7
20
-95.0539
11
113.7
21
-95.0548
0
LINE
8
BLACK
6
CONTINUOUS
10
113.7
20
-95.0548
11
113.7
21
-95.1976
0
LINE
8
BLACK
6
CONTINUOUS
10
113.7
20
-95.1976
11
113.7
21
-95.1983
0
LINE
8
BLACK
6
CONTINUOUS
10
113.7
20
-95.1983
11
113.7
21
-95.1992
0
LINE
8
BLACK
6
CONTINUOUS
10
113.7
20
-95.1992
11
113.7
21
-95.2001
0
LINE
8
BLACK
6
CONTINUOUS
10
113.7
20
-95.2001
11
113.699
21
-95.204
0
LINE
8
BLACK
6
CONTINUOUS
10
113.699
20
-95.204
11
113.699
21
-95.208
0
LINE
8
BLACK
6
CONTINUOUS
10
113.699
20
-95.208
11
113.698
21
-95.2089
0
LINE
8
BLACK
6
CONTINUOUS
10
113.698
20
-95.2089
11
113.698
21
-95.2097
0
LINE
8
BLACK
6
CONTINUOUS
10
113.698
20
-95.2097
11
113.651
21
-95.4002
0
LINE
8
BLACK
6
CONTINUOUS
10
113.651
20
-95.4002
11
113.65
21
-95.4009
0
LINE
8
BLACK
6
CONTINUOUS
10
113.65
20
-95.4009
11
113.65
21
-95.4011
0
LINE
8
BLACK
6
CONTINUOUS
10
113.65
20
-95.4011
11
113.65
21
-95.4013
0
LINE
8
BLACK
6
CONTINUOUS
10
113.65
20
-95.4013
11
113.649
21
-95.4057
0
LINE
8
BLACK
6
CONTINUOUS
10
113.649
20
-95.4057
11
113.647
21
-95.41
0
LINE
8
BLACK
6
CONTINUOUS
10
113.647
20
-95.41
11
113.647
21
-95.4102
0
LINE
8
BLACK
6
CONTINUOUS
10
113.647
20
-95.4102
11
113.647
21
-95.4104
0
LINE
8
BLACK
6
CONTINUOUS
10
113.647
20
-95.4104
11
113.599
21
-95.5057
0
LINE
8
BLACK
6
CONTINUOUS
10
113.599
20
-95.5057
11
113.599
21
-95.5063
0
LINE
8
BLACK
6
CONTINUOUS
10
113.599
20
-95.5063
11
113.597
21
-95.5087
0
LINE
8
BLACK
6
CONTINUOUS
10
113.597
20
-95.5087
11
113.596
21
-95.5111
0
LINE
8
BLACK
6
CONTINUOUS
10
113.596
20
-95.5111
11
113.595
21
-95.5127
0
LINE
8
BLACK
6
CONTINUOUS
10
113.595
20
-95.5127
11
113.594
21
-95.5145
0
LINE
8
BLACK
6
CONTINUOUS
10
113.594
20
-95.5145
11
113.592
21
-95.5165
0
LINE
8
BLACK
6
CONTINUOUS
10
113.592
20
-95.5165
11
113.59
21
-95.5187
0
LINE
8
BLACK
6
CONTINUOUS
10
113.59
20
-95.5187
11
113.495
21
-95.6139
0
LINE
8
BLACK
6
CONTINUOUS
10
113.495
20
-95.6139
11
113.494
21
-95.6144
0
LINE
8
BLACK
6
CONTINUOUS
10
113.494
20
-95.6144
11
113.493
21
-95.6153
0
LINE
8
BLACK
6
CONTINUOUS
10
113.493
20
-95.6153
11
113.492
21
-95.6164
0
LINE
8
BLACK
6
CONTINUOUS
10
113.492
20
-95.6164
11
113.489
21
-95.6184
0
LINE
8
BLACK
6
CONTINUOUS
10
113.489
20
-95.6184
11
113.486
21
-95.6205
0
LINE
8
BLACK
6
CONTINUOUS
10
113.486
20
-95.6205
11
113.485
21
-95.6212
0
LINE
8
BLACK
6
CONTINUOUS
10
113.485
20
-95.6212
11
113.484
21
-95.622
0
LINE
8
BLACK
6
CONTINUOUS
10
113.484
20
-95.622
11
113.481
21
-95.6234
0
LINE
8
BLACK
6
CONTINUOUS
10
113.481
20
-95.6234
11
113.478
21
-95.625
0
LINE
8
BLACK
6
CONTINUOUS
10
113.478
20
-95.625
11
113.476
21
-95.6254
0
LINE
8
BLACK
6
CONTINUOUS
10
113.476
20
-95.6254
11
113.475
21
-95.626
0
LINE
8
BLACK
6
CONTINUOUS
10
113.475
20
-95.626
11
113.332
21
-95.6736
0
LINE
8
BLACK
6
CONTINUOUS
10
113.332
20
-95.6736
11
113.331
21
-95.6738
0
LINE
8
BLACK
6
CONTINUOUS
10
113.331
20
-95.6738
11
113.329
21
-95.6744
0
LINE
8
BLACK
6
CONTINUOUS
10
113.329
20
-95.6744
11
113.326
21
-95.6752
0
LINE
8
BLACK
6
CONTINUOUS
10
113.326
20
-95.6752
11
113.324
21
-95.6754
0
LINE
8
BLACK
6
CONTINUOUS
10
113.324
20
-95.6754
11
113.322
21
-95.6759
0
LINE
8
BLACK
6
CONTINUOUS
10
113.322
20
-95.6759
11
113.319
21
-95.6759
0
LINE
8
BLACK
6
CONTINUOUS
10
113.319
20
-95.6759
11
113.316
21
-95.6762
0
LINE
8
BLACK
6
CONTINUOUS
10
113.316
20
-95.6762
11
113.221
21
-95.6762
0
LINE
8
BLACK
6
CONTINUOUS
10
113.221
20
-95.6762
11
113.22
21
-95.6762
0
LINE
8
BLACK
6
CONTINUOUS
10
113.22
20
-95.6762
11
113.218
21
-95.6759
0
LINE
8
BLACK
6
CONTINUOUS
10
113.218
20
-95.6759
11
113.215
21
-95.6758
0
LINE
8
BLACK
6
CONTINUOUS
10
113.215
20
-95.6758
11
113.213
21
-95.6753
0
LINE
8
BLACK
6
CONTINUOUS
10
113.213
20
-95.6753
11
113.211
21
-95.6751
0
LINE
8
BLACK
6
CONTINUOUS
10
113.211
20
-95.6751
11
113.208
21
-95.6742
0
LINE
8
BLACK
6
CONTINUOUS
10
113.208
20
-95.6742
11
113.205
21
-95.6736
0
LINE
8
BLACK
6
CONTINUOUS
10
113.205
20
-95.6736
11
113.062
21
-95.626
0
LINE
8
BLACK
6
CONTINUOUS
10
113.062
20
-95.626
11
113.062
21
-95.6258
0
LINE
8
BLACK
6
CONTINUOUS
10
113.062
20
-95.6258
11
113.06
21
-95.6252
0
LINE
8
BLACK
6
CONTINUOUS
10
113.06
20
-95.6252
11
113.059
21
-95.6247
0
LINE
8
BLACK
6
CONTINUOUS
10
113.059
20
-95.6247
11
113.056
21
-95.6231
0
LINE
8
BLACK
6
CONTINUOUS
10
113.056
20
-95.6231
11
113.053
21
-95.6217
0
LINE
8
BLACK
6
CONTINUOUS
10
113.053
20
-95.6217
11
113.052
21
-95.6208
0
LINE
8
BLACK
6
CONTINUOUS
10
113.052
20
-95.6208
11
113.05
21
-95.6201
0
LINE
8
BLACK
6
CONTINUOUS
10
113.05
20
-95.6201
11
113.048
21
-95.6179
0
LINE
8
BLACK
6
CONTINUOUS
10
113.048
20
-95.6179
11
113.045
21
-95.6159
0
LINE
8
BLACK
6
CONTINUOUS
10
113.045
20
-95.6159
11
113.044
21
-95.6148
0
LINE
8
BLACK
6
CONTINUOUS
10
113.044
20
-95.6148
11
113.043
21
-95.6139
0
LINE
8
BLACK
6
CONTINUOUS
10
113.043
20
-95.6139
11
112.995
21
-95.5663
0
LINE
8
BLACK
6
CONTINUOUS
10
112.995
20
-95.5663
11
112.995
21
-95.5658
0
LINE
8
BLACK
6
CONTINUOUS
10
112.995
20
-95.5658
11
112.989
21
-95.5582
0
LINE
8
BLACK
6
CONTINUOUS
10
112.989
20
-95.5582
11
112.984
21
-95.5495
0
LINE
8
BLACK
6
CONTINUOUS
10
112.984
20
-95.5495
11
112.981
21
-95.5401
0
LINE
8
BLACK
6
CONTINUOUS
10
112.981
20
-95.5401
11
112.981
21
-95.5304
0
LINE
8
BLACK
6
CONTINUOUS
10
112.981
20
-95.5304
11
112.982
21
-95.5207
0
LINE
8
BLACK
6
CONTINUOUS
10
112.982
20
-95.5207
11
112.985
21
-95.5114
0
LINE
8
BLACK
6
CONTINUOUS
10
112.985
20
-95.5114
11
112.989
21
-95.5028
0
LINE
8
BLACK
6
CONTINUOUS
10
112.989
20
-95.5028
11
112.996
21
-95.4953
0
LINE
8
BLACK
6
CONTINUOUS
10
112.996
20
-95.4953
11
113.003
21
-95.4892
0
LINE
8
BLACK
6
CONTINUOUS
10
113.003
20
-95.4892
11
113.012
21
-95.4846
0
LINE
8
BLACK
6
CONTINUOUS
10
113.012
20
-95.4846
11
113.021
21
-95.4819
0
LINE
8
BLACK
6
CONTINUOUS
10
113.021
20
-95.4819
11
113.031
21
-95.4809
0
LINE
8
BLACK
6
CONTINUOUS
10
113.031
20
-95.4809
11
113.041
21
-95.4819
0
LINE
8
BLACK
6
CONTINUOUS
10
113.041
20
-95.4819
11
113.05
21
-95.4848
0
LINE
8
BLACK
6
CONTINUOUS
10
113.05
20
-95.4848
11
113.058
21
-95.4894
0
LINE
8
BLACK
6
CONTINUOUS
10
113.058
20
-95.4894
11
113.066
21
-95.4956
0
LINE
8
BLACK
6
CONTINUOUS
10
113.066
20
-95.4956
11
113.105
21
-95.5349
0
LINE
8
BLACK
6
CONTINUOUS
10
113.105
20
-95.5349
11
113.229
21
-95.5762
0
LINE
8
BLACK
6
CONTINUOUS
10
113.229
20
-95.5762
11
113.308
21
-95.5762
0
LINE
8
BLACK
6
CONTINUOUS
10
113.308
20
-95.5762
11
113.432
21
-95.5349
0
LINE
8
BLACK
6
CONTINUOUS
10
113.432
20
-95.5349
11
113.513
21
-95.4537
0
LINE
8
BLACK
6
CONTINUOUS
10
113.513
20
-95.4537
11
113.555
21
-95.3706
0
LINE
8
BLACK
6
CONTINUOUS
10
113.555
20
-95.3706
11
113.6
21
-95.1915
0
LINE
8
BLACK
6
CONTINUOUS
10
113.6
20
-95.1915
11
113.6
21
-95.0609
0
LINE
8
BLACK
6
CONTINUOUS
10
113.6
20
-95.0609
11
113.555
21
-94.8817
0
LINE
8
BLACK
6
CONTINUOUS
10
113.555
20
-94.8817
11
113.513
21
-94.7987
0
LINE
8
BLACK
6
CONTINUOUS
10
113.513
20
-94.7987
11
113.432
21
-94.7175
0
LINE
8
BLACK
6
CONTINUOUS
10
113.432
20
-94.7175
11
113.308
21
-94.6762
0
LINE
8
BLACK
6
CONTINUOUS
10
113.308
20
-94.6762
11
113.229
21
-94.6762
0
LINE
8
BLACK
6
CONTINUOUS
10
113.229
20
-94.6762
11
113.105
21
-94.7175
0
LINE
8
BLACK
6
CONTINUOUS
10
113.105
20
-94.7175
11
113.066
21
-94.7568
0
LINE
8
BLACK
6
CONTINUOUS
10
113.066
20
-94.7568
11
113.065
21
-94.7573
0
LINE
8
BLACK
6
CONTINUOUS
10
113.065
20
-94.7573
11
113.058
21
-94.7634
0
LINE
8
BLACK
6
CONTINUOUS
10
113.058
20
-94.7634
11
113.049
21
-94.7678
0
LINE
8
BLACK
6
CONTINUOUS
10
113.049
20
-94.7678
11
113.04
21
-94.7706
0
LINE
8
BLACK
6
CONTINUOUS
10
113.04
20
-94.7706
11
113.03
21
-94.7714
0
LINE
8
BLACK
6
CONTINUOUS
10
113.03
20
-94.7714
11
113.02
21
-94.7704
0
LINE
8
BLACK
6
CONTINUOUS
10
113.02
20
-94.7704
11
113.011
21
-94.7674
0
LINE
8
BLACK
6
CONTINUOUS
10
113.011
20
-94.7674
11
113.003
21
-94.7628
0
LINE
8
BLACK
6
CONTINUOUS
10
113.003
20
-94.7628
11
112.995
21
-94.7565
0
LINE
8
BLACK
6
CONTINUOUS
10
112.995
20
-94.7565
11
112.989
21
-94.7489
0
LINE
8
BLACK
6
CONTINUOUS
10
112.989
20
-94.7489
11
112.984
21
-94.7403
0
LINE
8
BLACK
6
CONTINUOUS
10
112.984
20
-94.7403
11
112.982
21
-94.731
0
LINE
8
BLACK
6
CONTINUOUS
10
112.982
20
-94.731
11
112.981
21
-94.7212
0
LINE
8
BLACK
6
CONTINUOUS
10
112.981
20
-94.7212
11
112.982
21
-94.7115
0
LINE
8
BLACK
6
CONTINUOUS
10
112.982
20
-94.7115
11
112.984
21
-94.7022
0
LINE
8
BLACK
6
CONTINUOUS
10
112.984
20
-94.7022
11
112.989
21
-94.6936
0
LINE
8
BLACK
6
CONTINUOUS
10
112.989
20
-94.6936
11
112.995
21
-94.6861
0
LINE
8
BLACK
6
CONTINUOUS
10
112.995
20
-94.6861
11
113.043
21
-94.6384
0
LINE
8
BLACK
6
CONTINUOUS
10
113.043
20
-94.6384
11
113.043
21
-94.638
0
LINE
8
BLACK
6
CONTINUOUS
10
113.043
20
-94.638
11
113.045
21
-94.637
0
LINE
8
BLACK
6
CONTINUOUS
10
113.045
20
-94.637
11
113.046
21
-94.636
0
LINE
8
BLACK
6
CONTINUOUS
10
113.046
20
-94.636
11
113.048
21
-94.634
0
LINE
8
BLACK
6
CONTINUOUS
10
113.048
20
-94.634
11
113.051
21
-94.6319
0
LINE
8
BLACK
6
CONTINUOUS
10
113.051
20
-94.6319
11
113.052
21
-94.6312
0
LINE
8
BLACK
6
CONTINUOUS
10
113.052
20
-94.6312
11
113.054
21
-94.6303
0
LINE
8
BLACK
6
CONTINUOUS
10
113.054
20
-94.6303
11
113.057
21
-94.6289
0
LINE
8
BLACK
6
CONTINUOUS
10
113.057
20
-94.6289
11
113.06
21
-94.6274
0
LINE
8
BLACK
6
CONTINUOUS
10
113.06
20
-94.6274
11
113.061
21
-94.627
0
LINE
8
BLACK
6
CONTINUOUS
10
113.061
20
-94.627
11
113.062
21
-94.6264
0
LINE
8
BLACK
6
CONTINUOUS
10
113.062
20
-94.6264
11
113.205
21
-94.5787
0
LINE
8
BLACK
6
CONTINUOUS
10
113.205
20
-94.5787
11
113.206
21
-94.5785
0
LINE
8
BLACK
6
CONTINUOUS
10
113.206
20
-94.5785
11
113.209
21
-94.5779
0
LINE
8
BLACK
6
CONTINUOUS
10
113.209
20
-94.5779
11
113.211
21
-94.5771
0
LINE
8
BLACK
6
CONTINUOUS
10
113.211
20
-94.5771
11
113.213
21
-94.5769
0
LINE
8
BLACK
6
CONTINUOUS
10
113.213
20
-94.5769
11
113.215
21
-94.5765
0
LINE
8
BLACK
6
CONTINUOUS
10
113.215
20
-94.5765
11
113.218
21
-94.5765
0
LINE
8
BLACK
6
CONTINUOUS
10
113.218
20
-94.5765
11
113.221
21
-94.5762
0
LINE
8
BLACK
6
CONTINUOUS
10
113.221
20
-94.5762
11
113.316
21
-94.5762
0
LINE
8
BLACK
6
CONTINUOUS
10
113.316
20
-94.5762
11
113.317
21
-94.5762
0
LINE
8
BLACK
6
CONTINUOUS
10
121.031
20
-94.5762
11
121.034
21
-94.5765
0
LINE
8
BLACK
6
CONTINUOUS
10
121.034
20
-94.5765
11
121.037
21
-94.5766
0
LINE
8
BLACK
6
CONTINUOUS
10
121.037
20
-94.5766
11
121.039
21
-94.577
0
LINE
8
BLACK
6
CONTINUOUS
10
121.039
20
-94.577
11
121.041
21
-94.5773
0
LINE
8
BLACK
6
CONTINUOUS
10
121.041
20
-94.5773
11
121.044
21
-94.5781
0
LINE
8
BLACK
6
CONTINUOUS
10
121.044
20
-94.5781
11
121.046
21
-94.5787
0
LINE
8
BLACK
6
CONTINUOUS
10
121.046
20
-94.5787
11
121.189
21
-94.6264
0
LINE
8
BLACK
6
CONTINUOUS
10
121.189
20
-94.6264
11
121.19
21
-94.6266
0
LINE
8
BLACK
6
CONTINUOUS
10
121.19
20
-94.6266
11
121.191
21
-94.6272
0
LINE
8
BLACK
6
CONTINUOUS
10
121.191
20
-94.6272
11
121.193
21
-94.6276
0
LINE
8
BLACK
6
CONTINUOUS
10
121.193
20
-94.6276
11
121.196
21
-94.6293
0
LINE
8
BLACK
6
CONTINUOUS
10
121.196
20
-94.6293
11
121.199
21
-94.6307
0
LINE
8
BLACK
6
CONTINUOUS
10
121.199
20
-94.6307
11
121.2
21
-94.6316
0
LINE
8
BLACK
6
CONTINUOUS
10
121.2
20
-94.6316
11
121.201
21
-94.6322
0
LINE
8
BLACK
6
CONTINUOUS
10
121.201
20
-94.6322
11
121.204
21
-94.6344
0
LINE
8
BLACK
6
CONTINUOUS
10
121.204
20
-94.6344
11
121.207
21
-94.6364
0
LINE
8
BLACK
6
CONTINUOUS
10
121.207
20
-94.6364
11
121.208
21
-94.6375
0
LINE
8
BLACK
6
CONTINUOUS
10
121.208
20
-94.6375
11
121.209
21
-94.6384
0
LINE
8
BLACK
6
CONTINUOUS
10
121.209
20
-94.6384
11
121.304
21
-94.7337
0
LINE
8
BLACK
6
CONTINUOUS
10
121.304
20
-94.7337
11
121.305
21
-94.7342
0
LINE
8
BLACK
6
CONTINUOUS
10
121.305
20
-94.7342
11
121.306
21
-94.7364
0
LINE
8
BLACK
6
CONTINUOUS
10
121.306
20
-94.7364
11
121.308
21
-94.7384
0
LINE
8
BLACK
6
CONTINUOUS
10
121.308
20
-94.7384
11
121.309
21
-94.7402
0
LINE
8
BLACK
6
CONTINUOUS
10
121.309
20
-94.7402
11
121.311
21
-94.7418
0
LINE
8
BLACK
6
CONTINUOUS
10
121.311
20
-94.7418
11
121.312
21
-94.7443
0
LINE
8
BLACK
6
CONTINUOUS
10
121.312
20
-94.7443
11
121.313
21
-94.7467
0
LINE
8
BLACK
6
CONTINUOUS
10
121.313
20
-94.7467
11
121.361
21
-94.8419
0
LINE
8
BLACK
6
CONTINUOUS
10
121.361
20
-94.8419
11
121.361
21
-94.8425
0
LINE
8
BLACK
6
CONTINUOUS
10
121.361
20
-94.8425
11
121.361
21
-94.8428
0
LINE
8
BLACK
6
CONTINUOUS
10
121.361
20
-94.8428
11
121.362
21
-94.843
0
LINE
8
BLACK
6
CONTINUOUS
10
121.362
20
-94.843
11
121.363
21
-94.8474
0
LINE
8
BLACK
6
CONTINUOUS
10
121.363
20
-94.8474
11
121.365
21
-94.8517
0
LINE
8
BLACK
6
CONTINUOUS
10
121.365
20
-94.8517
11
121.365
21
-94.8519
0
LINE
8
BLACK
6
CONTINUOUS
10
121.365
20
-94.8519
11
121.365
21
-94.8521
0
LINE
8
BLACK
6
CONTINUOUS
10
121.365
20
-94.8521
11
121.412
21
-95.0426
0
LINE
8
BLACK
6
CONTINUOUS
10
121.412
20
-95.0426
11
121.413
21
-95.0433
0
LINE
8
BLACK
6
CONTINUOUS
10
121.413
20
-95.0433
11
121.413
21
-95.0442
0
LINE
8
BLACK
6
CONTINUOUS
10
121.413
20
-95.0442
11
121.413
21
-95.045
0
LINE
8
BLACK
6
CONTINUOUS
10
121.413
20
-95.045
11
121.413
21
-95.049
0
LINE
8
BLACK
6
CONTINUOUS
10
121.413
20
-95.049
11
121.414
21
-95.053
0
LINE
8
BLACK
6
CONTINUOUS
10
121.414
20
-95.053
11
121.414
21
-95.0539
0
LINE
8
BLACK
6
CONTINUOUS
10
121.414
20
-95.0539
11
121.414
21
-95.0548
0
LINE
8
BLACK
6
CONTINUOUS
10
121.414
20
-95.0548
11
121.414
21
-95.1976
0
LINE
8
BLACK
6
CONTINUOUS
10
121.414
20
-95.1976
11
121.414
21
-95.1983
0
LINE
8
BLACK
6
CONTINUOUS
10
121.414
20
-95.1983
11
121.414
21
-95.1992
0
LINE
8
BLACK
6
CONTINUOUS
10
121.414
20
-95.1992
11
121.414
21
-95.2001
0
LINE
8
BLACK
6
CONTINUOUS
10
121.414
20
-95.2001
11
121.413
21
-95.204
0
LINE
8
BLACK
6
CONTINUOUS
10
121.413
20
-95.204
11
121.413
21
-95.208
0
LINE
8
BLACK
6
CONTINUOUS
10
121.413
20
-95.208
11
121.413
21
-95.2089
0
LINE
8
BLACK
6
CONTINUOUS
10
121.413
20
-95.2089
11
121.412
21
-95.2097
0
LINE
8
BLACK
6
CONTINUOUS
10
121.412
20
-95.2097
11
121.365
21
-95.4002
0
LINE
8
BLACK
6
CONTINUOUS
10
121.365
20
-95.4002
11
121.365
21
-95.4009
0
LINE
8
BLACK
6
CONTINUOUS
10
121.365
20
-95.4009
11
121.365
21
-95.4011
0
LINE
8
BLACK
6
CONTINUOUS
10
121.365
20
-95.4011
11
121.365
21
-95.4013
0
LINE
8
BLACK
6
CONTINUOUS
10
121.365
20
-95.4013
11
121.363
21
-95.4057
0
LINE
8
BLACK
6
CONTINUOUS
10
121.363
20
-95.4057
11
121.361
21
-95.41
0
LINE
8
BLACK
6
CONTINUOUS
10
121.361
20
-95.41
11
121.361
21
-95.4102
0
LINE
8
BLACK
6
CONTINUOUS
10
121.361
20
-95.4102
11
121.361
21
-95.4104
0
LINE
8
BLACK
6
CONTINUOUS
10
121.361
20
-95.4104
11
121.313
21
-95.5057
0
LINE
8
BLACK
6
CONTINUOUS
10
121.313
20
-95.5057
11
121.313
21
-95.5063
0
LINE
8
BLACK
6
CONTINUOUS
10
121.313
20
-95.5063
11
121.312
21
-95.5087
0
LINE
8
BLACK
6
CONTINUOUS
10
121.312
20
-95.5087
11
121.31
21
-95.5111
0
LINE
8
BLACK
6
CONTINUOUS
10
121.31
20
-95.5111
11
121.309
21
-95.5127
0
LINE
8
BLACK
6
CONTINUOUS
10
121.309
20
-95.5127
11
121.308
21
-95.5145
0
LINE
8
BLACK
6
CONTINUOUS
10
121.308
20
-95.5145
11
121.306
21
-95.5165
0
LINE
8
BLACK
6
CONTINUOUS
10
121.306
20
-95.5165
11
121.304
21
-95.5187
0
LINE
8
BLACK
6
CONTINUOUS
10
121.304
20
-95.5187
11
121.209
21
-95.6139
0
LINE
8
BLACK
6
CONTINUOUS
10
121.209
20
-95.6139
11
121.208
21
-95.6144
0
LINE
8
BLACK
6
CONTINUOUS
10
121.208
20
-95.6144
11
121.207
21
-95.6153
0
LINE
8
BLACK
6
CONTINUOUS
10
121.207
20
-95.6153
11
121.206
21
-95.6164
0
LINE
8
BLACK
6
CONTINUOUS
10
121.206
20
-95.6164
11
121.203
21
-95.6184
0
LINE
8
BLACK
6
CONTINUOUS
10
121.203
20
-95.6184
11
121.201
21
-95.6205
0
LINE
8
BLACK
6
CONTINUOUS
10
121.201
20
-95.6205
11
121.199
21
-95.6212
0
LINE
8
BLACK
6
CONTINUOUS
10
121.199
20
-95.6212
11
121.198
21
-95.622
0
LINE
8
BLACK
6
CONTINUOUS
10
121.198
20
-95.622
11
121.195
21
-95.6234
0
LINE
8
BLACK
6
CONTINUOUS
10
121.195
20
-95.6234
11
121.192
21
-95.625
0
LINE
8
BLACK
6
CONTINUOUS
10
121.192
20
-95.625
11
121.191
21
-95.6254
0
LINE
8
BLACK
6
CONTINUOUS
10
121.191
20
-95.6254
11
121.189
21
-95.626
0
LINE
8
BLACK
6
CONTINUOUS
10
121.189
20
-95.626
11
121.046
21
-95.6736
0
LINE
8
BLACK
6
CONTINUOUS
10
121.046
20
-95.6736
11
121.046
21
-95.6738
0
LINE
8
BLACK
6
CONTINUOUS
10
121.046
20
-95.6738
11
121.043
21
-95.6744
0
LINE
8
BLACK
6
CONTINUOUS
10
121.043
20
-95.6744
11
121.04
21
-95.6752
0
LINE
8
BLACK
6
CONTINUOUS
10
121.04
20
-95.6752
11
121.038
21
-95.6754
0
LINE
8
BLACK
6
CONTINUOUS
10
121.038
20
-95.6754
11
121.036
21
-95.6759
0
LINE
8
BLACK
6
CONTINUOUS
10
121.036
20
-95.6759
11
121.033
21
-95.6759
0
LINE
8
BLACK
6
CONTINUOUS
10
121.033
20
-95.6759
11
121.031
21
-95.6762
0
LINE
8
BLACK
6
CONTINUOUS
10
121.031
20
-95.6762
11
120.935
21
-95.6762
0
LINE
8
BLACK
6
CONTINUOUS
10
120.935
20
-95.6762
11
120.935
21
-95.6762
0
LINE
8
BLACK
6
CONTINUOUS
10
120.935
20
-95.6762
11
120.932
21
-95.6759
0
LINE
8
BLACK
6
CONTINUOUS
10
120.932
20
-95.6759
11
120.929
21
-95.6758
0
LINE
8
BLACK
6
CONTINUOUS
10
120.929
20
-95.6758
11
120.927
21
-95.6753
0
LINE
8
BLACK
6
CONTINUOUS
10
120.927
20
-95.6753
11
120.925
21
-95.6751
0
LINE
8
BLACK
6
CONTINUOUS
10
120.925
20
-95.6751
11
120.922
21
-95.6742
0
LINE
8
BLACK
6
CONTINUOUS
10
120.922
20
-95.6742
11
120.92
21
-95.6736
0
LINE
8
BLACK
6
CONTINUOUS
10
120.92
20
-95.6736
11
120.777
21
-95.626
0
LINE
8
BLACK
6
CONTINUOUS
10
120.777
20
-95.626
11
120.776
21
-95.6258
0
LINE
8
BLACK
6
CONTINUOUS
10
120.776
20
-95.6258
11
120.775
21
-95.6252
0
LINE
8
BLACK
6
CONTINUOUS
10
120.775
20
-95.6252
11
120.773
21
-95.6247
0
LINE
8
BLACK
6
CONTINUOUS
10
120.773
20
-95.6247
11
120.77
21
-95.6231
0
LINE
8
BLACK
6
CONTINUOUS
10
120.77
20
-95.6231
11
120.767
21
-95.6217
0
LINE
8
BLACK
6
CONTINUOUS
10
120.767
20
-95.6217
11
120.766
21
-95.6208
0
LINE
8
BLACK
6
CONTINUOUS
10
120.766
20
-95.6208
11
120.765
21
-95.6201
0
LINE
8
BLACK
6
CONTINUOUS
10
120.765
20
-95.6201
11
120.762
21
-95.6179
0
LINE
8
BLACK
6
CONTINUOUS
10
120.762
20
-95.6179
11
120.759
21
-95.6159
0
LINE
8
BLACK
6
CONTINUOUS
10
120.759
20
-95.6159
11
120.758
21
-95.6148
0
LINE
8
BLACK
6
CONTINUOUS
10
120.758
20
-95.6148
11
120.757
21
-95.6139
0
LINE
8
BLACK
6
CONTINUOUS
10
120.757
20
-95.6139
11
120.71
21
-95.5663
0
LINE
8
BLACK
6
CONTINUOUS
10
120.71
20
-95.5663
11
120.709
21
-95.5658
0
LINE
8
BLACK
6
CONTINUOUS
10
120.709
20
-95.5658
11
120.703
21
-95.5582
0
LINE
8
BLACK
6
CONTINUOUS
10
120.703
20
-95.5582
11
120.698
21
-95.5495
0
LINE
8
BLACK
6
CONTINUOUS
10
120.698
20
-95.5495
11
120.696
21
-95.5401
0
LINE
8
BLACK
6
CONTINUOUS
10
120.696
20
-95.5401
11
120.695
21
-95.5304
0
LINE
8
BLACK
6
CONTINUOUS
10
120.695
20
-95.5304
11
120.696
21
-95.5207
0
LINE
8
BLACK
6
CONTINUOUS
10
120.696
20
-95.5207
11
120.699
21
-95.5114
0
LINE
8
BLACK
6
CONTINUOUS
10
120.699
20
-95.5114
11
120.704
21
-95.5028
0
LINE
8
BLACK
6
CONTINUOUS
10
120.704
20
-95.5028
11
120.71
21
-95.4953
0
LINE
8
BLACK
6
CONTINUOUS
10
120.71
20
-95.4953
11
120.717
21
-95.4892
0
LINE
8
BLACK
6
CONTINUOUS
10
120.717
20
-95.4892
11
120.726
21
-95.4846
0
LINE
8
BLACK
6
CONTINUOUS
10
120.726
20
-95.4846
11
120.735
21
-95.4819
0
LINE
8
BLACK
6
CONTINUOUS
10
120.735
20
-95.4819
11
120.745
21
-95.4809
0
LINE
8
BLACK
6
CONTINUOUS
10
120.745
20
-95.4809
11
120.755
21
-95.4819
0
LINE
8
BLACK
6
CONTINUOUS
10
120.755
20
-95.4819
11
120.764
21
-95.4848
0
LINE
8
BLACK
6
CONTINUOUS
10
120.764
20
-95.4848
11
120.773
21
-95.4894
0
LINE
8
BLACK
6
CONTINUOUS
10
120.773
20
-95.4894
11
120.78
21
-95.4956
0
LINE
8
BLACK
6
CONTINUOUS
10
120.78
20
-95.4956
11
120.82
21
-95.5349
0
LINE
8
BLACK
6
CONTINUOUS
10
120.82
20
-95.5349
11
120.943
21
-95.5762
0
LINE
8
BLACK
6
CONTINUOUS
10
120.943
20
-95.5762
11
121.023
21
-95.5762
0
LINE
8
BLACK
6
CONTINUOUS
10
121.023
20
-95.5762
11
121.146
21
-95.5349
0
LINE
8
BLACK
6
CONTINUOUS
10
121.146
20
-95.5349
11
121.228
21
-95.4537
0
LINE
8
BLACK
6
CONTINUOUS
10
121.228
20
-95.4537
11
121.269
21
-95.3706
0
LINE
8
BLACK
6
CONTINUOUS
10
121.269
20
-95.3706
11
121.314
21
-95.1915
0
LINE
8
BLACK
6
CONTINUOUS
10
121.314
20
-95.1915
11
121.314
21
-95.0609
0
LINE
8
BLACK
6
CONTINUOUS
10
121.314
20
-95.0609
11
121.269
21
-94.8817
0
LINE
8
BLACK
6
CONTINUOUS
10
121.269
20
-94.8817
11
121.228
21
-94.7987
0
LINE
8
BLACK
6
CONTINUOUS
10
121.228
20
-94.7987
11
121.146
21
-94.7175
0
LINE
8
BLACK
6
CONTINUOUS
10
121.146
20
-94.7175
11
121.023
21
-94.6762
0
LINE
8
BLACK
6
CONTINUOUS
10
121.023
20
-94.6762
11
120.943
21
-94.6762
0
LINE
8
BLACK
6
CONTINUOUS
10
120.943
20
-94.6762
11
120.82
21
-94.7175
0
LINE
8
BLACK
6
CONTINUOUS
10
120.82
20
-94.7175
11
120.78
21
-94.7568
0
LINE
8
BLACK
6
CONTINUOUS
10
120.78
20
-94.7568
11
120.78
21
-94.7573
0
LINE
8
BLACK
6
CONTINUOUS
10
120.78
20
-94.7573
11
120.772
21
-94.7634
0
LINE
8
BLACK
6
CONTINUOUS
10
120.772
20
-94.7634
11
120.763
21
-94.7678
0
LINE
8
BLACK
6
CONTINUOUS
10
120.763
20
-94.7678
11
120.754
21
-94.7706
0
LINE
8
BLACK
6
CONTINUOUS
10
120.754
20
-94.7706
11
120.744
21
-94.7714
0
LINE
8
BLACK
6
CONTINUOUS
10
120.744
20
-94.7714
11
120.735
21
-94.7704
0
LINE
8
BLACK
6
CONTINUOUS
10
120.735
20
-94.7704
11
120.725
21
-94.7674
0
LINE
8
BLACK
6
CONTINUOUS
10
120.725
20
-94.7674
11
120.717
21
-94.7628
0
LINE
8
BLACK
6
CONTINUOUS
10
120.717
20
-94.7628
11
120.709
21
-94.7565
0
LINE
8
BLACK
6
CONTINUOUS
10
120.709
20
-94.7565
11
120.703
21
-94.7489
0
LINE
8
BLACK
6
CONTINUOUS
10
120.703
20
-94.7489
11
120.699
21
-94.7403
0
LINE
8
BLACK
6
CONTINUOUS
10
120.699
20
-94.7403
11
120.696
21
-94.731
0
LINE
8
BLACK
6
CONTINUOUS
10
120.696
20
-94.731
11
120.695
21
-94.7212
0
LINE
8
BLACK
6
CONTINUOUS
10
120.695
20
-94.7212
11
120.696
21
-94.7115
0
LINE
8
BLACK
6
CONTINUOUS
10
120.696
20
-94.7115
11
120.699
21
-94.7022
0
LINE
8
BLACK
6
CONTINUOUS
10
120.699
20
-94.7022
11
120.703
21
-94.6936
0
LINE
8
BLACK
6
CONTINUOUS
10
120.703
20
-94.6936
11
120.71
21
-94.6861
0
LINE
8
BLACK
6
CONTINUOUS
10
120.71
20
-94.6861
11
120.757
21
-94.6384
0
LINE
8
BLACK
6
CONTINUOUS
10
120.757
20
-94.6384
11
120.758
21
-94.638
0
LINE
8
BLACK
6
CONTINUOUS
10
120.758
20
-94.638
11
120.759
21
-94.637
0
LINE
8
BLACK
6
CONTINUOUS
10
120.759
20
-94.637
11
120.76
21
-94.636
0
LINE
8
BLACK
6
CONTINUOUS
10
120.76
20
-94.636
11
120.763
21
-94.634
0
LINE
8
BLACK
6
CONTINUOUS
10
120.763
20
-94.634
11
120.765
21
-94.6319
0
LINE
8
BLACK
6
CONTINUOUS
10
120.765
20
-94.6319
11
120.767
21
-94.6312
0
LINE
8
BLACK
6
CONTINUOUS
10
120.767
20
-94.6312
11
120.768
21
-94.6303
0
LINE
8
BLACK
6
CONTINUOUS
10
120.768
20
-94.6303
11
120.771
21
-94.6289
0
LINE
8
BLACK
6
CONTINUOUS
10
120.771
20
-94.6289
11
120.774
21
-94.6274
0
LINE
8
BLACK
6
CONTINUOUS
10
120.774
20
-94.6274
11
120.775
21
-94.627
0
LINE
8
BLACK
6
CONTINUOUS
10
120.775
20
-94.627
11
120.777
21
-94.6264
0
LINE
8
BLACK
6
CONTINUOUS
10
120.777
20
-94.6264
11
120.92
21
-94.5787
0
LINE
8
BLACK
6
CONTINUOUS
10
120.92
20
-94.5787
11
120.92
21
-94.5785
0
LINE
8
BLACK
6
CONTINUOUS
10
120.92
20
-94.5785
11
120.923
21
-94.5779
0
LINE
8
BLACK
6
CONTINUOUS
10
120.923
20
-94.5779
11
120.926
21
-94.5771
0
LINE
8
BLACK
6
CONTINUOUS
10
120.926
20
-94.5771
11
120.928
21
-94.5769
0
LINE
8
BLACK
6
CONTINUOUS
10
120.928
20
-94.5769
11
120.93
21
-94.5765
0
LINE
8
BLACK
6
CONTINUOUS
10
120.93
20
-94.5765
11
120.933
21
-94.5765
0
LINE
8
BLACK
6
CONTINUOUS
10
120.933
20
-94.5765
11
120.935
21
-94.5762
0
LINE
8
BLACK
6
CONTINUOUS
10
120.935
20
-94.5762
11
121.031
21
-94.5762
0
LINE
8
BLACK
6
CONTINUOUS
10
121.031
20
-94.5762
11
121.031
21
-94.5762
0
LINE
8
BLACK
6
CONTINUOUS
10
122.136
20
-94.5772
11
122.145
21
-94.5801
0
LINE
8
BLACK
6
CONTINUOUS
10
122.145
20
-94.5801
11
122.154
21
-94.5847
0
LINE
8
BLACK
6
CONTINUOUS
10
122.154
20
-94.5847
11
122.161
21
-94.5909
0
LINE
8
BLACK
6
CONTINUOUS
10
122.161
20
-94.5909
11
122.168
21
-94.5985
0
LINE
8
BLACK
6
CONTINUOUS
10
122.168
20
-94.5985
11
122.172
21
-94.6071
0
LINE
8
BLACK
6
CONTINUOUS
10
122.172
20
-94.6071
11
122.175
21
-94.6165
0
LINE
8
BLACK
6
CONTINUOUS
10
122.175
20
-94.6165
11
122.176
21
-94.6262
0
LINE
8
BLACK
6
CONTINUOUS
10
122.176
20
-94.6262
11
122.176
21
-95.6262
0
LINE
8
BLACK
6
CONTINUOUS
10
122.176
20
-95.6262
11
122.176
21
-95.6265
0
LINE
8
BLACK
6
CONTINUOUS
10
122.176
20
-95.6265
11
122.176
21
-95.6265
0
LINE
8
BLACK
6
CONTINUOUS
10
122.176
20
-95.6265
11
122.176
21
-95.6265
0
LINE
8
BLACK
6
CONTINUOUS
10
122.176
20
-95.6265
11
122.176
21
-95.6269
0
LINE
8
BLACK
6
CONTINUOUS
10
122.176
20
-95.6269
11
122.175
21
-95.6315
0
LINE
8
BLACK
6
CONTINUOUS
10
122.175
20
-95.6315
11
122.175
21
-95.6362
0
LINE
8
BLACK
6
CONTINUOUS
10
122.175
20
-95.6362
11
122.175
21
-95.6364
0
LINE
8
BLACK
6
CONTINUOUS
10
122.175
20
-95.6364
11
122.175
21
-95.6366
0
LINE
8
BLACK
6
CONTINUOUS
10
122.175
20
-95.6366
11
122.173
21
-95.641
0
LINE
8
BLACK
6
CONTINUOUS
10
122.173
20
-95.641
11
122.172
21
-95.6456
0
LINE
8
BLACK
6
CONTINUOUS
10
122.172
20
-95.6456
11
122.172
21
-95.6457
0
LINE
8
BLACK
6
CONTINUOUS
10
122.172
20
-95.6457
11
122.172
21
-95.6459
0
LINE
8
BLACK
6
CONTINUOUS
10
122.172
20
-95.6459
11
122.17
21
-95.65
0
LINE
8
BLACK
6
CONTINUOUS
10
122.17
20
-95.65
11
122.167
21
-95.6541
0
LINE
8
BLACK
6
CONTINUOUS
10
122.167
20
-95.6541
11
122.167
21
-95.6543
0
LINE
8
BLACK
6
CONTINUOUS
10
122.167
20
-95.6543
11
122.167
21
-95.6544
0
LINE
8
BLACK
6
CONTINUOUS
10
122.167
20
-95.6544
11
122.164
21
-95.658
0
LINE
8
BLACK
6
CONTINUOUS
10
122.164
20
-95.658
11
122.161
21
-95.6617
0
LINE
8
BLACK
6
CONTINUOUS
10
122.161
20
-95.6617
11
122.161
21
-95.6618
0
LINE
8
BLACK
6
CONTINUOUS
10
122.161
20
-95.6618
11
122.161
21
-95.6619
0
LINE
8
BLACK
6
CONTINUOUS
10
122.161
20
-95.6619
11
122.157
21
-95.6648
0
LINE
8
BLACK
6
CONTINUOUS
10
122.157
20
-95.6648
11
122.154
21
-95.6678
0
LINE
8
BLACK
6
CONTINUOUS
10
122.154
20
-95.6678
11
122.153
21
-95.6679
0
LINE
8
BLACK
6
CONTINUOUS
10
122.153
20
-95.6679
11
122.153
21
-95.668
0
LINE
8
BLACK
6
CONTINUOUS
10
122.153
20
-95.668
11
122.149
21
-95.6702
0
LINE
8
BLACK
6
CONTINUOUS
10
122.149
20
-95.6702
11
122.145
21
-95.6724
0
LINE
8
BLACK
6
CONTINUOUS
10
122.145
20
-95.6724
11
122.145
21
-95.6725
0
LINE
8
BLACK
6
CONTINUOUS
10
122.145
20
-95.6725
11
122.145
21
-95.6725
0
LINE
8
BLACK
6
CONTINUOUS
10
122.145
20
-95.6725
11
122.14
21
-95.6739
0
LINE
8
BLACK
6
CONTINUOUS
10
122.14
20
-95.6739
11
122.136
21
-95.6752
0
LINE
8
BLACK
6
CONTINUOUS
10
122.136
20
-95.6752
11
122.135
21
-95.6752
0
LINE
8
BLACK
6
CONTINUOUS
10
122.135
20
-95.6752
11
122.135
21
-95.6753
0
LINE
8
BLACK
6
CONTINUOUS
10
122.135
20
-95.6753
11
122.131
21
-95.6757
0
LINE
8
BLACK
6
CONTINUOUS
10
122.131
20
-95.6757
11
122.126
21
-95.6762
0
LINE
8
BLACK
6
CONTINUOUS
10
122.126
20
-95.6762
11
121.65
21
-95.6762
0
LINE
8
BLACK
6
CONTINUOUS
10
121.65
20
-95.6762
11
121.649
21
-95.6762
0
LINE
8
BLACK
6
CONTINUOUS
10
121.649
20
-95.6762
11
121.639
21
-95.6751
0
LINE
8
BLACK
6
CONTINUOUS
10
121.639
20
-95.6751
11
121.63
21
-95.6721
0
LINE
8
BLACK
6
CONTINUOUS
10
121.63
20
-95.6721
11
121.621
21
-95.6674
0
LINE
8
BLACK
6
CONTINUOUS
10
121.621
20
-95.6674
11
121.614
21
-95.6612
0
LINE
8
BLACK
6
CONTINUOUS
10
121.614
20
-95.6612
11
121.608
21
-95.6536
0
LINE
8
BLACK
6
CONTINUOUS
10
121.608
20
-95.6536
11
121.603
21
-95.6449
0
LINE
8
BLACK
6
CONTINUOUS
10
121.603
20
-95.6449
11
121.601
21
-95.6355
0
LINE
8
BLACK
6
CONTINUOUS
10
121.601
20
-95.6355
11
121.6
21
-95.6258
0
LINE
8
BLACK
6
CONTINUOUS
10
121.6
20
-95.6258
11
121.601
21
-95.6161
0
LINE
8
BLACK
6
CONTINUOUS
10
121.601
20
-95.6161
11
121.604
21
-95.6068
0
LINE
8
BLACK
6
CONTINUOUS
10
121.604
20
-95.6068
11
121.608
21
-95.5982
0
LINE
8
BLACK
6
CONTINUOUS
10
121.608
20
-95.5982
11
121.614
21
-95.5907
0
LINE
8
BLACK
6
CONTINUOUS
10
121.614
20
-95.5907
11
121.622
21
-95.5845
0
LINE
8
BLACK
6
CONTINUOUS
10
121.622
20
-95.5845
11
121.631
21
-95.58
0
LINE
8
BLACK
6
CONTINUOUS
10
121.631
20
-95.58
11
121.64
21
-95.5771
0
LINE
8
BLACK
6
CONTINUOUS
10
121.64
20
-95.5771
11
121.65
21
-95.5762
0
LINE
8
BLACK
6
CONTINUOUS
10
121.65
20
-95.5762
11
122.076
21
-95.5762
0
LINE
8
BLACK
6
CONTINUOUS
10
122.076
20
-95.5762
11
122.076
21
-94.6262
0
LINE
8
BLACK
6
CONTINUOUS
10
122.076
20
-94.6262
11
122.076
21
-94.6255
0
LINE
8
BLACK
6
CONTINUOUS
10
122.076
20
-94.6255
11
122.077
21
-94.6158
0
LINE
8
BLACK
6
CONTINUOUS
10
122.077
20
-94.6158
11
122.08
21
-94.6065
0
LINE
8
BLACK
6
CONTINUOUS
10
122.08
20
-94.6065
11
122.085
21
-94.5979
0
LINE
8
BLACK
6
CONTINUOUS
10
122.085
20
-94.5979
11
122.091
21
-94.5905
0
LINE
8
BLACK
6
CONTINUOUS
10
122.091
20
-94.5905
11
122.098
21
-94.5843
0
LINE
8
BLACK
6
CONTINUOUS
10
122.098
20
-94.5843
11
122.107
21
-94.5798
0
LINE
8
BLACK
6
CONTINUOUS
10
122.107
20
-94.5798
11
122.116
21
-94.5771
0
LINE
8
BLACK
6
CONTINUOUS
10
122.116
20
-94.5771
11
122.126
21
-94.5762
0
LINE
8
BLACK
6
CONTINUOUS
10
122.126
20
-94.5762
11
122.136
21
-94.5772
0
LINE
8
BLACK
6
CONTINUOUS
10
122.612
20
-94.5772
11
122.621
21
-94.5801
0
LINE
8
BLACK
6
CONTINUOUS
10
122.621
20
-94.5801
11
122.63
21
-94.5847
0
LINE
8
BLACK
6
CONTINUOUS
10
122.63
20
-94.5847
11
122.638
21
-94.5909
0
LINE
8
BLACK
6
CONTINUOUS
10
122.638
20
-94.5909
11
122.644
21
-94.5985
0
LINE
8
BLACK
6
CONTINUOUS
10
122.644
20
-94.5985
11
122.648
21
-94.6071
0
LINE
8
BLACK
6
CONTINUOUS
10
122.648
20
-94.6071
11
122.651
21
-94.6165
0
LINE
8
BLACK
6
CONTINUOUS
10
122.651
20
-94.6165
11
122.652
21
-94.6262
0
LINE
8
BLACK
6
CONTINUOUS
10
122.652
20
-94.6262
11
122.652
21
-95.3324
0
LINE
8
BLACK
6
CONTINUOUS
10
122.652
20
-95.3324
11
122.693
21
-95.4563
0
LINE
8
BLACK
6
CONTINUOUS
10
122.693
20
-95.4563
11
122.772
21
-95.5349
0
LINE
8
BLACK
6
CONTINUOUS
10
122.772
20
-95.5349
11
122.896
21
-95.5762
0
LINE
8
BLACK
6
CONTINUOUS
10
122.896
20
-95.5762
11
122.983
21
-95.5762
0
LINE
8
BLACK
6
CONTINUOUS
10
122.983
20
-95.5762
11
122.984
21
-95.5762
0
LINE
8
BLACK
6
CONTINUOUS
10
122.984
20
-95.5762
11
122.993
21
-95.5773
0
LINE
8
BLACK
6
CONTINUOUS
10
122.993
20
-95.5773
11
123.003
21
-95.5802
0
LINE
8
BLACK
6
CONTINUOUS
10
123.003
20
-95.5802
11
123.011
21
-95.5849
0
LINE
8
BLACK
6
CONTINUOUS
10
123.011
20
-95.5849
11
123.019
21
-95.5912
0
LINE
8
BLACK
6
CONTINUOUS
10
123.019
20
-95.5912
11
123.025
21
-95.5988
0
LINE
8
BLACK
6
CONTINUOUS
10
123.025
20
-95.5988
11
123.029
21
-95.6075
0
LINE
8
BLACK
6
CONTINUOUS
10
123.029
20
-95.6075
11
123.032
21
-95.6168
0
LINE
8
BLACK
6
CONTINUOUS
10
123.032
20
-95.6168
11
123.033
21
-95.6265
0
LINE
8
BLACK
6
CONTINUOUS
10
123.033
20
-95.6265
11
123.032
21
-95.6362
0
LINE
8
BLACK
6
CONTINUOUS
10
123.032
20
-95.6362
11
123.029
21
-95.6456
0
LINE
8
BLACK
6
CONTINUOUS
10
123.029
20
-95.6456
11
123.024
21
-95.6541
0
LINE
8
BLACK
6
CONTINUOUS
10
123.024
20
-95.6541
11
123.018
21
-95.6617
0
LINE
8
BLACK
6
CONTINUOUS
10
123.018
20
-95.6617
11
123.011
21
-95.6678
0
LINE
8
BLACK
6
CONTINUOUS
10
123.011
20
-95.6678
11
123.002
21
-95.6724
0
LINE
8
BLACK
6
CONTINUOUS
10
123.002
20
-95.6724
11
122.993
21
-95.6752
0
LINE
8
BLACK
6
CONTINUOUS
10
122.993
20
-95.6752
11
122.983
21
-95.6762
0
LINE
8
BLACK
6
CONTINUOUS
10
122.983
20
-95.6762
11
122.888
21
-95.6762
0
LINE
8
BLACK
6
CONTINUOUS
10
122.888
20
-95.6762
11
122.887
21
-95.6762
0
LINE
8
BLACK
6
CONTINUOUS
10
122.887
20
-95.6762
11
122.884
21
-95.6759
0
LINE
8
BLACK
6
CONTINUOUS
10
122.884
20
-95.6759
11
122.881
21
-95.6758
0
LINE
8
BLACK
6
CONTINUOUS
10
122.881
20
-95.6758
11
122.879
21
-95.6753
0
LINE
8
BLACK
6
CONTINUOUS
10
122.879
20
-95.6753
11
122.877
21
-95.6751
0
LINE
8
BLACK
6
CONTINUOUS
10
122.877
20
-95.6751
11
122.875
21
-95.6742
0
LINE
8
BLACK
6
CONTINUOUS
10
122.875
20
-95.6742
11
122.872
21
-95.6736
0
LINE
8
BLACK
6
CONTINUOUS
10
122.872
20
-95.6736
11
122.729
21
-95.626
0
LINE
8
BLACK
6
CONTINUOUS
10
122.729
20
-95.626
11
122.728
21
-95.6258
0
LINE
8
BLACK
6
CONTINUOUS
10
122.728
20
-95.6258
11
122.727
21
-95.6252
0
LINE
8
BLACK
6
CONTINUOUS
10
122.727
20
-95.6252
11
122.726
21
-95.6247
0
LINE
8
BLACK
6
CONTINUOUS
10
122.726
20
-95.6247
11
122.723
21
-95.6231
0
LINE
8
BLACK
6
CONTINUOUS
10
122.723
20
-95.6231
11
122.72
21
-95.6217
0
LINE
8
BLACK
6
CONTINUOUS
10
122.72
20
-95.6217
11
122.718
21
-95.6208
0
LINE
8
BLACK
6
CONTINUOUS
10
122.718
20
-95.6208
11
122.717
21
-95.6201
0
LINE
8
BLACK
6
CONTINUOUS
10
122.717
20
-95.6201
11
122.714
21
-95.6179
0
LINE
8
BLACK
6
CONTINUOUS
10
122.714
20
-95.6179
11
122.712
21
-95.6159
0
LINE
8
BLACK
6
CONTINUOUS
10
122.712
20
-95.6159
11
122.711
21
-95.6148
0
LINE
8
BLACK
6
CONTINUOUS
10
122.711
20
-95.6148
11
122.71
21
-95.6139
0
LINE
8
BLACK
6
CONTINUOUS
10
122.71
20
-95.6139
11
122.614
21
-95.5187
0
LINE
8
BLACK
6
CONTINUOUS
10
122.614
20
-95.5187
11
122.614
21
-95.5182
0
LINE
8
BLACK
6
CONTINUOUS
10
122.614
20
-95.5182
11
122.613
21
-95.517
0
LINE
8
BLACK
6
CONTINUOUS
10
122.613
20
-95.517
11
122.612
21
-95.516
0
LINE
8
BLACK
6
CONTINUOUS
10
122.612
20
-95.516
11
122.61
21
-95.5132
0
LINE
8
BLACK
6
CONTINUOUS
10
122.61
20
-95.5132
11
122.608
21
-95.5106
0
LINE
8
BLACK
6
CONTINUOUS
10
122.608
20
-95.5106
11
122.607
21
-95.5092
0
LINE
8
BLACK
6
CONTINUOUS
10
122.607
20
-95.5092
11
122.606
21
-95.508
0
LINE
8
BLACK
6
CONTINUOUS
10
122.606
20
-95.508
11
122.605
21
-95.5049
0
LINE
8
BLACK
6
CONTINUOUS
10
122.605
20
-95.5049
11
122.603
21
-95.5019
0
LINE
8
BLACK
6
CONTINUOUS
10
122.603
20
-95.5019
11
122.603
21
-95.5005
0
LINE
8
BLACK
6
CONTINUOUS
10
122.603
20
-95.5005
11
122.602
21
-95.4991
0
LINE
8
BLACK
6
CONTINUOUS
10
122.602
20
-95.4991
11
122.555
21
-95.3563
0
LINE
8
BLACK
6
CONTINUOUS
10
122.555
20
-95.3563
11
122.554
21
-95.3556
0
LINE
8
BLACK
6
CONTINUOUS
10
122.554
20
-95.3556
11
122.554
21
-95.3529
0
LINE
8
BLACK
6
CONTINUOUS
10
122.554
20
-95.3529
11
122.553
21
-95.3502
0
LINE
8
BLACK
6
CONTINUOUS
10
122.553
20
-95.3502
11
122.553
21
-95.3481
0
LINE
8
BLACK
6
CONTINUOUS
10
122.553
20
-95.3481
11
122.552
21
-95.3461
0
LINE
8
BLACK
6
CONTINUOUS
10
122.552
20
-95.3461
11
122.552
21
-95.3433
0
LINE
8
BLACK
6
CONTINUOUS
10
122.552
20
-95.3433
11
122.552
21
-95.3405
0
LINE
8
BLACK
6
CONTINUOUS
10
122.552
20
-95.3405
11
122.552
21
-94.6262
0
LINE
8
BLACK
6
CONTINUOUS
10
122.552
20
-94.6262
11
122.552
21
-94.6255
0
LINE
8
BLACK
6
CONTINUOUS
10
122.552
20
-94.6255
11
122.553
21
-94.6158
0
LINE
8
BLACK
6
CONTINUOUS
10
122.553
20
-94.6158
11
122.556
21
-94.6065
0
LINE
8
BLACK
6
CONTINUOUS
10
122.556
20
-94.6065
11
122.561
21
-94.5979
0
LINE
8
BLACK
6
CONTINUOUS
10
122.561
20
-94.5979
11
122.567
21
-94.5905
0
LINE
8
BLACK
6
CONTINUOUS
10
122.567
20
-94.5905
11
122.575
21
-94.5843
0
LINE
8
BLACK
6
CONTINUOUS
10
122.575
20
-94.5843
11
122.583
21
-94.5798
0
LINE
8
BLACK
6
CONTINUOUS
10
122.583
20
-94.5798
11
122.593
21
-94.5771
0
LINE
8
BLACK
6
CONTINUOUS
10
122.593
20
-94.5771
11
122.602
21
-94.5762
0
LINE
8
BLACK
6
CONTINUOUS
10
122.602
20
-94.5762
11
122.612
21
-94.5772
  0
ENDSEC
  0
EOF
