  0
SECTION
  2
HEADER
  9
$ANGBASE
  50
0.0
  9
$ANGDIR
  70
1
  9
$MEASUREMENT
  70
1
  0
ENDSEC
  0
SECTION
  2
TABLES
  0
TABLE
  2
LTYPE
  70
4
  0
LTYPE
  5
40F
  2
CONTINUOUS
  70
0
  3
Solid line
  72
65
  73
0
  40
0.0
  0
LTYPE
  5
410
  2
DASHDOT
 70
0
  3
Dash Dot ____ _ ____ _
 72
65
 73
4
 40
2.0
 49
1.25
 49
-0.25
 49
0.25
 49
-0.25
  0
LTYPE
  5
411
  2
DASHED
 70
0
  3
Dashed __ __ __ __ __
 72
65
 73
2
 40
0.75
 49
0.5
 49
-0.25
  0
LTYPE
  5
43B
  2
DOTTED
 70
0
  3
Dotted .  .  .  .
 72
65
 73
2
 40
0.2
 49
0.0
 49
-0.2
  0
ENDTAB
  0
TABLE
  2
STYLE
  70
4
  0
STYLE
  2
KICAD
  70
0
  40
0
  41
1
  42
1
  50
0
  71
0
  3
isocp.shx
  0
STYLE
  2
KICADB
  70
0
  40
0
  41
1
  42
1
  50
0
  71
0
  3
isocp.shx
  0
STYLE
  2
KICADI
  70
0
  40
0
  41
1
  42
1
  50
15
  71
0
  3
isocp.shx
  0
STYLE
  2
KICADBI
  70
0
  40
0
  41
1
  42
1
  50
15
  71
0
  3
isocp.shx
  0
ENDTAB
  0
TABLE
  2
LAYER
  70
1
  0
LAYER
  2
BLACK
  70
0
  62
7
  6
CONTINUOUS
  0
ENDTAB
  0
ENDSEC
  0
SECTION
  2
ENTITIES
0
LINE
8
BLACK
6
CONTINUOUS
10
119.38
20
-96.089
11
119.38
21
-96.089
0
LINE
8
BLACK
6
CONTINUOUS
10
119.38
20
-96.089
11
119.38
21
-96.089
0
LINE
8
BLACK
6
CONTINUOUS
10
119.38
20
-96.089
11
119.381
21
-96.089
0
LINE
8
BLACK
6
CONTINUOUS
10
119.381
20
-96.089
11
119.385
21
-96.0895
0
LINE
8
BLACK
6
CONTINUOUS
10
119.385
20
-96.0895
11
119.39
21
-96.09
0
LINE
8
BLACK
6
CONTINUOUS
10
119.39
20
-96.09
11
119.39
21
-96.0901
0
LINE
8
BLACK
6
CONTINUOUS
10
119.39
20
-96.0901
11
119.39
21
-96.0901
0
LINE
8
BLACK
6
CONTINUOUS
10
119.39
20
-96.0901
11
119.395
21
-96.0915
0
LINE
8
BLACK
6
CONTINUOUS
10
119.395
20
-96.0915
11
119.399
21
-96.0929
0
LINE
8
BLACK
6
CONTINUOUS
10
119.399
20
-96.0929
11
119.4
21
-96.093
0
LINE
8
BLACK
6
CONTINUOUS
10
119.4
20
-96.093
11
119.4
21
-96.093
0
LINE
8
BLACK
6
CONTINUOUS
10
119.4
20
-96.093
11
119.404
21
-96.0953
0
LINE
8
BLACK
6
CONTINUOUS
10
119.404
20
-96.0953
11
119.408
21
-96.0975
0
LINE
8
BLACK
6
CONTINUOUS
10
119.408
20
-96.0975
11
119.408
21
-96.0977
0
LINE
8
BLACK
6
CONTINUOUS
10
119.408
20
-96.0977
11
119.408
21
-96.0977
0
LINE
8
BLACK
6
CONTINUOUS
10
119.408
20
-96.0977
11
119.412
21
-96.1007
0
LINE
8
BLACK
6
CONTINUOUS
10
119.412
20
-96.1007
11
119.415
21
-96.1038
0
LINE
8
BLACK
6
CONTINUOUS
10
119.415
20
-96.1038
11
119.416
21
-96.1039
0
LINE
8
BLACK
6
CONTINUOUS
10
119.416
20
-96.1039
11
119.416
21
-96.104
0
LINE
8
BLACK
6
CONTINUOUS
10
119.416
20
-96.104
11
119.419
21
-96.1076
0
LINE
8
BLACK
6
CONTINUOUS
10
119.419
20
-96.1076
11
119.422
21
-96.1113
0
LINE
8
BLACK
6
CONTINUOUS
10
119.422
20
-96.1113
11
119.422
21
-96.1115
0
LINE
8
BLACK
6
CONTINUOUS
10
119.422
20
-96.1115
11
119.422
21
-96.1116
0
LINE
8
BLACK
6
CONTINUOUS
10
119.422
20
-96.1116
11
119.424
21
-96.1157
0
LINE
8
BLACK
6
CONTINUOUS
10
119.424
20
-96.1157
11
119.426
21
-96.1199
0
LINE
8
BLACK
6
CONTINUOUS
10
119.426
20
-96.1199
11
119.426
21
-96.1201
0
LINE
8
BLACK
6
CONTINUOUS
10
119.426
20
-96.1201
11
119.426
21
-96.1203
0
LINE
8
BLACK
6
CONTINUOUS
10
119.426
20
-96.1203
11
119.428
21
-96.1247
0
LINE
8
BLACK
6
CONTINUOUS
10
119.428
20
-96.1247
11
119.429
21
-96.1293
0
LINE
8
BLACK
6
CONTINUOUS
10
119.429
20
-96.1293
11
119.429
21
-96.1295
0
LINE
8
BLACK
6
CONTINUOUS
10
119.429
20
-96.1295
11
119.429
21
-96.1296
0
LINE
8
BLACK
6
CONTINUOUS
10
119.429
20
-96.1296
11
119.43
21
-96.1343
0
LINE
8
BLACK
6
CONTINUOUS
10
119.43
20
-96.1343
11
119.43
21
-96.139
0
LINE
8
BLACK
6
CONTINUOUS
10
119.43
20
-96.139
11
119.43
21
-96.774
0
LINE
8
BLACK
6
CONTINUOUS
10
119.43
20
-96.774
11
119.43
21
-96.7743
0
LINE
8
BLACK
6
CONTINUOUS
10
119.43
20
-96.7743
11
119.43
21
-96.7743
0
LINE
8
BLACK
6
CONTINUOUS
10
119.43
20
-96.7743
11
119.43
21
-96.7744
0
LINE
8
BLACK
6
CONTINUOUS
10
119.43
20
-96.7744
11
119.43
21
-96.7747
0
LINE
8
BLACK
6
CONTINUOUS
10
119.43
20
-96.7747
11
119.429
21
-96.7793
0
LINE
8
BLACK
6
CONTINUOUS
10
119.429
20
-96.7793
11
119.429
21
-96.7841
0
LINE
8
BLACK
6
CONTINUOUS
10
119.429
20
-96.7841
11
119.429
21
-96.7842
0
LINE
8
BLACK
6
CONTINUOUS
10
119.429
20
-96.7842
11
119.429
21
-96.7844
0
LINE
8
BLACK
6
CONTINUOUS
10
119.429
20
-96.7844
11
119.427
21
-96.7889
0
LINE
8
BLACK
6
CONTINUOUS
10
119.427
20
-96.7889
11
119.426
21
-96.7934
0
LINE
8
BLACK
6
CONTINUOUS
10
119.426
20
-96.7934
11
119.426
21
-96.7935
0
LINE
8
BLACK
6
CONTINUOUS
10
119.426
20
-96.7935
11
119.426
21
-96.7937
0
LINE
8
BLACK
6
CONTINUOUS
10
119.426
20
-96.7937
11
119.424
21
-96.7978
0
LINE
8
BLACK
6
CONTINUOUS
10
119.424
20
-96.7978
11
119.421
21
-96.802
0
LINE
8
BLACK
6
CONTINUOUS
10
119.421
20
-96.802
11
119.421
21
-96.8021
0
LINE
8
BLACK
6
CONTINUOUS
10
119.421
20
-96.8021
11
119.421
21
-96.8022
0
LINE
8
BLACK
6
CONTINUOUS
10
119.421
20
-96.8022
11
119.418
21
-96.8058
0
LINE
8
BLACK
6
CONTINUOUS
10
119.418
20
-96.8058
11
119.415
21
-96.8095
0
LINE
8
BLACK
6
CONTINUOUS
10
119.415
20
-96.8095
11
119.415
21
-96.8096
0
LINE
8
BLACK
6
CONTINUOUS
10
119.415
20
-96.8096
11
119.415
21
-96.8097
0
LINE
8
BLACK
6
CONTINUOUS
10
119.415
20
-96.8097
11
119.411
21
-96.8126
0
LINE
8
BLACK
6
CONTINUOUS
10
119.411
20
-96.8126
11
119.408
21
-96.8156
0
LINE
8
BLACK
6
CONTINUOUS
10
119.408
20
-96.8156
11
119.408
21
-96.8157
0
LINE
8
BLACK
6
CONTINUOUS
10
119.408
20
-96.8157
11
119.407
21
-96.8158
0
LINE
8
BLACK
6
CONTINUOUS
10
119.407
20
-96.8158
11
119.403
21
-96.818
0
LINE
8
BLACK
6
CONTINUOUS
10
119.403
20
-96.818
11
119.399
21
-96.8202
0
LINE
8
BLACK
6
CONTINUOUS
10
119.399
20
-96.8202
11
119.399
21
-96.8203
0
LINE
8
BLACK
6
CONTINUOUS
10
119.399
20
-96.8203
11
119.399
21
-96.8204
0
LINE
8
BLACK
6
CONTINUOUS
10
119.399
20
-96.8204
11
119.394
21
-96.8217
0
LINE
8
BLACK
6
CONTINUOUS
10
119.394
20
-96.8217
11
119.39
21
-96.823
0
LINE
8
BLACK
6
CONTINUOUS
10
119.39
20
-96.823
11
119.39
21
-96.8231
0
LINE
8
BLACK
6
CONTINUOUS
10
119.39
20
-96.8231
11
119.389
21
-96.8231
0
LINE
8
BLACK
6
CONTINUOUS
10
119.389
20
-96.8231
11
119.385
21
-96.8235
0
LINE
8
BLACK
6
CONTINUOUS
10
119.385
20
-96.8235
11
119.38
21
-96.824
0
LINE
8
BLACK
6
CONTINUOUS
10
119.38
20
-96.824
11
118.745
21
-96.824
0
LINE
8
BLACK
6
CONTINUOUS
10
118.745
20
-96.824
11
118.745
21
-96.824
0
LINE
8
BLACK
6
CONTINUOUS
10
118.745
20
-96.824
11
118.745
21
-96.824
0
LINE
8
BLACK
6
CONTINUOUS
10
118.745
20
-96.824
11
118.745
21
-96.824
0
LINE
8
BLACK
6
CONTINUOUS
10
118.745
20
-96.824
11
118.744
21
-96.824
0
LINE
8
BLACK
6
CONTINUOUS
10
118.744
20
-96.824
11
118.74
21
-96.8235
0
LINE
8
BLACK
6
CONTINUOUS
10
118.74
20
-96.8235
11
118.735
21
-96.823
0
LINE
8
BLACK
6
CONTINUOUS
10
118.735
20
-96.823
11
118.735
21
-96.8229
0
LINE
8
BLACK
6
CONTINUOUS
10
118.735
20
-96.8229
11
118.735
21
-96.8229
0
LINE
8
BLACK
6
CONTINUOUS
10
118.735
20
-96.8229
11
118.73
21
-96.8215
0
LINE
8
BLACK
6
CONTINUOUS
10
118.73
20
-96.8215
11
118.726
21
-96.8201
0
LINE
8
BLACK
6
CONTINUOUS
10
118.726
20
-96.8201
11
118.725
21
-96.82
0
LINE
8
BLACK
6
CONTINUOUS
10
118.725
20
-96.82
11
118.725
21
-96.82
0
LINE
8
BLACK
6
CONTINUOUS
10
118.725
20
-96.82
11
118.721
21
-96.8177
0
LINE
8
BLACK
6
CONTINUOUS
10
118.721
20
-96.8177
11
118.717
21
-96.8155
0
LINE
8
BLACK
6
CONTINUOUS
10
118.717
20
-96.8155
11
118.717
21
-96.8153
0
LINE
8
BLACK
6
CONTINUOUS
10
118.717
20
-96.8153
11
118.717
21
-96.8153
0
LINE
8
BLACK
6
CONTINUOUS
10
118.717
20
-96.8153
11
118.713
21
-96.8123
0
LINE
8
BLACK
6
CONTINUOUS
10
118.713
20
-96.8123
11
118.71
21
-96.8092
0
LINE
8
BLACK
6
CONTINUOUS
10
118.71
20
-96.8092
11
118.709
21
-96.8091
0
LINE
8
BLACK
6
CONTINUOUS
10
118.709
20
-96.8091
11
118.709
21
-96.809
0
LINE
8
BLACK
6
CONTINUOUS
10
118.709
20
-96.809
11
118.706
21
-96.8054
0
LINE
8
BLACK
6
CONTINUOUS
10
118.706
20
-96.8054
11
118.703
21
-96.8017
0
LINE
8
BLACK
6
CONTINUOUS
10
118.703
20
-96.8017
11
118.703
21
-96.8015
0
LINE
8
BLACK
6
CONTINUOUS
10
118.703
20
-96.8015
11
118.703
21
-96.8014
0
LINE
8
BLACK
6
CONTINUOUS
10
118.703
20
-96.8014
11
118.701
21
-96.7973
0
LINE
8
BLACK
6
CONTINUOUS
10
118.701
20
-96.7973
11
118.699
21
-96.7931
0
LINE
8
BLACK
6
CONTINUOUS
10
118.699
20
-96.7931
11
118.699
21
-96.7929
0
LINE
8
BLACK
6
CONTINUOUS
10
118.699
20
-96.7929
11
118.699
21
-96.7927
0
LINE
8
BLACK
6
CONTINUOUS
10
118.699
20
-96.7927
11
118.697
21
-96.7883
0
LINE
8
BLACK
6
CONTINUOUS
10
118.697
20
-96.7883
11
118.696
21
-96.7837
0
LINE
8
BLACK
6
CONTINUOUS
10
118.696
20
-96.7837
11
118.696
21
-96.7835
0
LINE
8
BLACK
6
CONTINUOUS
10
118.696
20
-96.7835
11
118.696
21
-96.7834
0
LINE
8
BLACK
6
CONTINUOUS
10
118.696
20
-96.7834
11
118.695
21
-96.7787
0
LINE
8
BLACK
6
CONTINUOUS
10
118.695
20
-96.7787
11
118.695
21
-96.774
0
LINE
8
BLACK
6
CONTINUOUS
10
118.695
20
-96.774
11
118.695
21
-96.139
0
LINE
8
BLACK
6
CONTINUOUS
10
118.695
20
-96.139
11
118.695
21
-96.1387
0
LINE
8
BLACK
6
CONTINUOUS
10
118.695
20
-96.1387
11
118.695
21
-96.1387
0
LINE
8
BLACK
6
CONTINUOUS
10
118.695
20
-96.1387
11
118.695
21
-96.1386
0
LINE
8
BLACK
6
CONTINUOUS
10
118.695
20
-96.1386
11
118.695
21
-96.1383
0
LINE
8
BLACK
6
CONTINUOUS
10
118.695
20
-96.1383
11
118.696
21
-96.1337
0
LINE
8
BLACK
6
CONTINUOUS
10
118.696
20
-96.1337
11
118.696
21
-96.1289
0
LINE
8
BLACK
6
CONTINUOUS
10
118.696
20
-96.1289
11
118.696
21
-96.1288
0
LINE
8
BLACK
6
CONTINUOUS
10
118.696
20
-96.1288
11
118.696
21
-96.1286
0
LINE
8
BLACK
6
CONTINUOUS
10
118.696
20
-96.1286
11
118.698
21
-96.1241
0
LINE
8
BLACK
6
CONTINUOUS
10
118.698
20
-96.1241
11
118.699
21
-96.1196
0
LINE
8
BLACK
6
CONTINUOUS
10
118.699
20
-96.1196
11
118.699
21
-96.1195
0
LINE
8
BLACK
6
CONTINUOUS
10
118.699
20
-96.1195
11
118.699
21
-96.1193
0
LINE
8
BLACK
6
CONTINUOUS
10
118.699
20
-96.1193
11
118.701
21
-96.1152
0
LINE
8
BLACK
6
CONTINUOUS
10
118.701
20
-96.1152
11
118.704
21
-96.111
0
LINE
8
BLACK
6
CONTINUOUS
10
118.704
20
-96.111
11
118.704
21
-96.1109
0
LINE
8
BLACK
6
CONTINUOUS
10
118.704
20
-96.1109
11
118.704
21
-96.1108
0
LINE
8
BLACK
6
CONTINUOUS
10
118.704
20
-96.1108
11
118.707
21
-96.1072
0
LINE
8
BLACK
6
CONTINUOUS
10
118.707
20
-96.1072
11
118.71
21
-96.1035
0
LINE
8
BLACK
6
CONTINUOUS
10
118.71
20
-96.1035
11
118.71
21
-96.1034
0
LINE
8
BLACK
6
CONTINUOUS
10
118.71
20
-96.1034
11
118.71
21
-96.1033
0
LINE
8
BLACK
6
CONTINUOUS
10
118.71
20
-96.1033
11
118.714
21
-96.1004
0
LINE
8
BLACK
6
CONTINUOUS
10
118.714
20
-96.1004
11
118.717
21
-96.0974
0
LINE
8
BLACK
6
CONTINUOUS
10
118.717
20
-96.0974
11
118.717
21
-96.0973
0
LINE
8
BLACK
6
CONTINUOUS
10
118.717
20
-96.0973
11
118.718
21
-96.0972
0
LINE
8
BLACK
6
CONTINUOUS
10
118.718
20
-96.0972
11
118.722
21
-96.095
0
LINE
8
BLACK
6
CONTINUOUS
10
118.722
20
-96.095
11
118.726
21
-96.0928
0
LINE
8
BLACK
6
CONTINUOUS
10
118.726
20
-96.0928
11
118.726
21
-96.0927
0
LINE
8
BLACK
6
CONTINUOUS
10
118.726
20
-96.0927
11
118.726
21
-96.0926
0
LINE
8
BLACK
6
CONTINUOUS
10
118.726
20
-96.0926
11
118.731
21
-96.0913
0
LINE
8
BLACK
6
CONTINUOUS
10
118.731
20
-96.0913
11
118.735
21
-96.09
0
LINE
8
BLACK
6
CONTINUOUS
10
118.735
20
-96.09
11
118.735
21
-96.0899
0
LINE
8
BLACK
6
CONTINUOUS
10
118.735
20
-96.0899
11
118.736
21
-96.0899
0
LINE
8
BLACK
6
CONTINUOUS
10
118.736
20
-96.0899
11
118.74
21
-96.0895
0
LINE
8
BLACK
6
CONTINUOUS
10
118.74
20
-96.0895
11
118.745
21
-96.089
0
LINE
8
BLACK
6
CONTINUOUS
10
118.745
20
-96.089
11
119.38
21
-96.089
0
LINE
8
BLACK
6
CONTINUOUS
10
119.38
20
-96.089
11
119.38
21
-96.089
0
LINE
8
BLACK
6
CONTINUOUS
10
120.65
20
-96.089
11
120.65
21
-96.089
0
LINE
8
BLACK
6
CONTINUOUS
10
120.65
20
-96.089
11
120.65
21
-96.089
0
LINE
8
BLACK
6
CONTINUOUS
10
120.65
20
-96.089
11
120.651
21
-96.089
0
LINE
8
BLACK
6
CONTINUOUS
10
120.651
20
-96.089
11
120.655
21
-96.0895
0
LINE
8
BLACK
6
CONTINUOUS
10
120.655
20
-96.0895
11
120.66
21
-96.09
0
LINE
8
BLACK
6
CONTINUOUS
10
120.66
20
-96.09
11
120.66
21
-96.0901
0
LINE
8
BLACK
6
CONTINUOUS
10
120.66
20
-96.0901
11
120.66
21
-96.0901
0
LINE
8
BLACK
6
CONTINUOUS
10
120.66
20
-96.0901
11
120.665
21
-96.0915
0
LINE
8
BLACK
6
CONTINUOUS
10
120.665
20
-96.0915
11
120.669
21
-96.0929
0
LINE
8
BLACK
6
CONTINUOUS
10
120.669
20
-96.0929
11
120.67
21
-96.093
0
LINE
8
BLACK
6
CONTINUOUS
10
120.67
20
-96.093
11
120.67
21
-96.093
0
LINE
8
BLACK
6
CONTINUOUS
10
120.67
20
-96.093
11
120.674
21
-96.0953
0
LINE
8
BLACK
6
CONTINUOUS
10
120.674
20
-96.0953
11
120.678
21
-96.0975
0
LINE
8
BLACK
6
CONTINUOUS
10
120.678
20
-96.0975
11
120.678
21
-96.0977
0
LINE
8
BLACK
6
CONTINUOUS
10
120.678
20
-96.0977
11
120.678
21
-96.0977
0
LINE
8
BLACK
6
CONTINUOUS
10
120.678
20
-96.0977
11
120.682
21
-96.1007
0
LINE
8
BLACK
6
CONTINUOUS
10
120.682
20
-96.1007
11
120.685
21
-96.1038
0
LINE
8
BLACK
6
CONTINUOUS
10
120.685
20
-96.1038
11
120.686
21
-96.1039
0
LINE
8
BLACK
6
CONTINUOUS
10
120.686
20
-96.1039
11
120.686
21
-96.104
0
LINE
8
BLACK
6
CONTINUOUS
10
120.686
20
-96.104
11
120.689
21
-96.1076
0
LINE
8
BLACK
6
CONTINUOUS
10
120.689
20
-96.1076
11
120.692
21
-96.1113
0
LINE
8
BLACK
6
CONTINUOUS
10
120.692
20
-96.1113
11
120.692
21
-96.1115
0
LINE
8
BLACK
6
CONTINUOUS
10
120.692
20
-96.1115
11
120.692
21
-96.1116
0
LINE
8
BLACK
6
CONTINUOUS
10
120.692
20
-96.1116
11
120.694
21
-96.1157
0
LINE
8
BLACK
6
CONTINUOUS
10
120.694
20
-96.1157
11
120.696
21
-96.1199
0
LINE
8
BLACK
6
CONTINUOUS
10
120.696
20
-96.1199
11
120.696
21
-96.1201
0
LINE
8
BLACK
6
CONTINUOUS
10
120.696
20
-96.1201
11
120.696
21
-96.1203
0
LINE
8
BLACK
6
CONTINUOUS
10
120.696
20
-96.1203
11
120.698
21
-96.1247
0
LINE
8
BLACK
6
CONTINUOUS
10
120.698
20
-96.1247
11
120.699
21
-96.1293
0
LINE
8
BLACK
6
CONTINUOUS
10
120.699
20
-96.1293
11
120.699
21
-96.1295
0
LINE
8
BLACK
6
CONTINUOUS
10
120.699
20
-96.1295
11
120.699
21
-96.1296
0
LINE
8
BLACK
6
CONTINUOUS
10
120.699
20
-96.1296
11
120.7
21
-96.1343
0
LINE
8
BLACK
6
CONTINUOUS
10
120.7
20
-96.1343
11
120.7
21
-96.139
0
LINE
8
BLACK
6
CONTINUOUS
10
120.7
20
-96.139
11
120.7
21
-96.774
0
LINE
8
BLACK
6
CONTINUOUS
10
120.7
20
-96.774
11
120.7
21
-96.7743
0
LINE
8
BLACK
6
CONTINUOUS
10
120.7
20
-96.7743
11
120.7
21
-96.7743
0
LINE
8
BLACK
6
CONTINUOUS
10
120.7
20
-96.7743
11
120.7
21
-96.7744
0
LINE
8
BLACK
6
CONTINUOUS
10
120.7
20
-96.7744
11
120.7
21
-96.7747
0
LINE
8
BLACK
6
CONTINUOUS
10
120.7
20
-96.7747
11
120.699
21
-96.7793
0
LINE
8
BLACK
6
CONTINUOUS
10
120.699
20
-96.7793
11
120.699
21
-96.7841
0
LINE
8
BLACK
6
CONTINUOUS
10
120.699
20
-96.7841
11
120.699
21
-96.7842
0
LINE
8
BLACK
6
CONTINUOUS
10
120.699
20
-96.7842
11
120.699
21
-96.7844
0
LINE
8
BLACK
6
CONTINUOUS
10
120.699
20
-96.7844
11
120.697
21
-96.7889
0
LINE
8
BLACK
6
CONTINUOUS
10
120.697
20
-96.7889
11
120.696
21
-96.7934
0
LINE
8
BLACK
6
CONTINUOUS
10
120.696
20
-96.7934
11
120.696
21
-96.7935
0
LINE
8
BLACK
6
CONTINUOUS
10
120.696
20
-96.7935
11
120.696
21
-96.7937
0
LINE
8
BLACK
6
CONTINUOUS
10
120.696
20
-96.7937
11
120.694
21
-96.7978
0
LINE
8
BLACK
6
CONTINUOUS
10
120.694
20
-96.7978
11
120.691
21
-96.802
0
LINE
8
BLACK
6
CONTINUOUS
10
120.691
20
-96.802
11
120.691
21
-96.8021
0
LINE
8
BLACK
6
CONTINUOUS
10
120.691
20
-96.8021
11
120.691
21
-96.8022
0
LINE
8
BLACK
6
CONTINUOUS
10
120.691
20
-96.8022
11
120.688
21
-96.8058
0
LINE
8
BLACK
6
CONTINUOUS
10
120.688
20
-96.8058
11
120.685
21
-96.8095
0
LINE
8
BLACK
6
CONTINUOUS
10
120.685
20
-96.8095
11
120.685
21
-96.8096
0
LINE
8
BLACK
6
CONTINUOUS
10
120.685
20
-96.8096
11
120.685
21
-96.8097
0
LINE
8
BLACK
6
CONTINUOUS
10
120.685
20
-96.8097
11
120.681
21
-96.8126
0
LINE
8
BLACK
6
CONTINUOUS
10
120.681
20
-96.8126
11
120.678
21
-96.8156
0
LINE
8
BLACK
6
CONTINUOUS
10
120.678
20
-96.8156
11
120.678
21
-96.8157
0
LINE
8
BLACK
6
CONTINUOUS
10
120.678
20
-96.8157
11
120.677
21
-96.8158
0
LINE
8
BLACK
6
CONTINUOUS
10
120.677
20
-96.8158
11
120.673
21
-96.818
0
LINE
8
BLACK
6
CONTINUOUS
10
120.673
20
-96.818
11
120.669
21
-96.8202
0
LINE
8
BLACK
6
CONTINUOUS
10
120.669
20
-96.8202
11
120.669
21
-96.8203
0
LINE
8
BLACK
6
CONTINUOUS
10
120.669
20
-96.8203
11
120.669
21
-96.8204
0
LINE
8
BLACK
6
CONTINUOUS
10
120.669
20
-96.8204
11
120.664
21
-96.8217
0
LINE
8
BLACK
6
CONTINUOUS
10
120.664
20
-96.8217
11
120.66
21
-96.823
0
LINE
8
BLACK
6
CONTINUOUS
10
120.66
20
-96.823
11
120.66
21
-96.8231
0
LINE
8
BLACK
6
CONTINUOUS
10
120.66
20
-96.8231
11
120.659
21
-96.8231
0
LINE
8
BLACK
6
CONTINUOUS
10
120.659
20
-96.8231
11
120.655
21
-96.8235
0
LINE
8
BLACK
6
CONTINUOUS
10
120.655
20
-96.8235
11
120.65
21
-96.824
0
LINE
8
BLACK
6
CONTINUOUS
10
120.65
20
-96.824
11
120.015
21
-96.824
0
LINE
8
BLACK
6
CONTINUOUS
10
120.015
20
-96.824
11
120.015
21
-96.824
0
LINE
8
BLACK
6
CONTINUOUS
10
120.015
20
-96.824
11
120.015
21
-96.824
0
LINE
8
BLACK
6
CONTINUOUS
10
120.015
20
-96.824
11
120.015
21
-96.824
0
LINE
8
BLACK
6
CONTINUOUS
10
120.015
20
-96.824
11
120.014
21
-96.824
0
LINE
8
BLACK
6
CONTINUOUS
10
120.014
20
-96.824
11
120.01
21
-96.8235
0
LINE
8
BLACK
6
CONTINUOUS
10
120.01
20
-96.8235
11
120.005
21
-96.823
0
LINE
8
BLACK
6
CONTINUOUS
10
120.005
20
-96.823
11
120.005
21
-96.8229
0
LINE
8
BLACK
6
CONTINUOUS
10
120.005
20
-96.8229
11
120.005
21
-96.8229
0
LINE
8
BLACK
6
CONTINUOUS
10
120.005
20
-96.8229
11
120
21
-96.8215
0
LINE
8
BLACK
6
CONTINUOUS
10
120
20
-96.8215
11
119.996
21
-96.8201
0
LINE
8
BLACK
6
CONTINUOUS
10
119.996
20
-96.8201
11
119.995
21
-96.82
0
LINE
8
BLACK
6
CONTINUOUS
10
119.995
20
-96.82
11
119.995
21
-96.82
0
LINE
8
BLACK
6
CONTINUOUS
10
119.995
20
-96.82
11
119.991
21
-96.8177
0
LINE
8
BLACK
6
CONTINUOUS
10
119.991
20
-96.8177
11
119.987
21
-96.8155
0
LINE
8
BLACK
6
CONTINUOUS
10
119.987
20
-96.8155
11
119.987
21
-96.8153
0
LINE
8
BLACK
6
CONTINUOUS
10
119.987
20
-96.8153
11
119.987
21
-96.8153
0
LINE
8
BLACK
6
CONTINUOUS
10
119.987
20
-96.8153
11
119.983
21
-96.8123
0
LINE
8
BLACK
6
CONTINUOUS
10
119.983
20
-96.8123
11
119.98
21
-96.8092
0
LINE
8
BLACK
6
CONTINUOUS
10
119.98
20
-96.8092
11
119.979
21
-96.8091
0
LINE
8
BLACK
6
CONTINUOUS
10
119.979
20
-96.8091
11
119.979
21
-96.809
0
LINE
8
BLACK
6
CONTINUOUS
10
119.979
20
-96.809
11
119.976
21
-96.8054
0
LINE
8
BLACK
6
CONTINUOUS
10
119.976
20
-96.8054
11
119.973
21
-96.8017
0
LINE
8
BLACK
6
CONTINUOUS
10
119.973
20
-96.8017
11
119.973
21
-96.8015
0
LINE
8
BLACK
6
CONTINUOUS
10
119.973
20
-96.8015
11
119.973
21
-96.8014
0
LINE
8
BLACK
6
CONTINUOUS
10
119.973
20
-96.8014
11
119.971
21
-96.7973
0
LINE
8
BLACK
6
CONTINUOUS
10
119.971
20
-96.7973
11
119.969
21
-96.7931
0
LINE
8
BLACK
6
CONTINUOUS
10
119.969
20
-96.7931
11
119.969
21
-96.7929
0
LINE
8
BLACK
6
CONTINUOUS
10
119.969
20
-96.7929
11
119.969
21
-96.7927
0
LINE
8
BLACK
6
CONTINUOUS
10
119.969
20
-96.7927
11
119.967
21
-96.7883
0
LINE
8
BLACK
6
CONTINUOUS
10
119.967
20
-96.7883
11
119.966
21
-96.7837
0
LINE
8
BLACK
6
CONTINUOUS
10
119.966
20
-96.7837
11
119.966
21
-96.7835
0
LINE
8
BLACK
6
CONTINUOUS
10
119.966
20
-96.7835
11
119.966
21
-96.7834
0
LINE
8
BLACK
6
CONTINUOUS
10
119.966
20
-96.7834
11
119.965
21
-96.7787
0
LINE
8
BLACK
6
CONTINUOUS
10
119.965
20
-96.7787
11
119.965
21
-96.774
0
LINE
8
BLACK
6
CONTINUOUS
10
119.965
20
-96.774
11
119.965
21
-96.139
0
LINE
8
BLACK
6
CONTINUOUS
10
119.965
20
-96.139
11
119.965
21
-96.1387
0
LINE
8
BLACK
6
CONTINUOUS
10
119.965
20
-96.1387
11
119.965
21
-96.1387
0
LINE
8
BLACK
6
CONTINUOUS
10
119.965
20
-96.1387
11
119.965
21
-96.1386
0
LINE
8
BLACK
6
CONTINUOUS
10
119.965
20
-96.1386
11
119.965
21
-96.1383
0
LINE
8
BLACK
6
CONTINUOUS
10
119.965
20
-96.1383
11
119.966
21
-96.1337
0
LINE
8
BLACK
6
CONTINUOUS
10
119.966
20
-96.1337
11
119.966
21
-96.1289
0
LINE
8
BLACK
6
CONTINUOUS
10
119.966
20
-96.1289
11
119.966
21
-96.1288
0
LINE
8
BLACK
6
CONTINUOUS
10
119.966
20
-96.1288
11
119.966
21
-96.1286
0
LINE
8
BLACK
6
CONTINUOUS
10
119.966
20
-96.1286
11
119.968
21
-96.1241
0
LINE
8
BLACK
6
CONTINUOUS
10
119.968
20
-96.1241
11
119.969
21
-96.1196
0
LINE
8
BLACK
6
CONTINUOUS
10
119.969
20
-96.1196
11
119.969
21
-96.1195
0
LINE
8
BLACK
6
CONTINUOUS
10
119.969
20
-96.1195
11
119.969
21
-96.1193
0
LINE
8
BLACK
6
CONTINUOUS
10
119.969
20
-96.1193
11
119.971
21
-96.1152
0
LINE
8
BLACK
6
CONTINUOUS
10
119.971
20
-96.1152
11
119.974
21
-96.111
0
LINE
8
BLACK
6
CONTINUOUS
10
119.974
20
-96.111
11
119.974
21
-96.1109
0
LINE
8
BLACK
6
CONTINUOUS
10
119.974
20
-96.1109
11
119.974
21
-96.1108
0
LINE
8
BLACK
6
CONTINUOUS
10
119.974
20
-96.1108
11
119.977
21
-96.1072
0
LINE
8
BLACK
6
CONTINUOUS
10
119.977
20
-96.1072
11
119.98
21
-96.1035
0
LINE
8
BLACK
6
CONTINUOUS
10
119.98
20
-96.1035
11
119.98
21
-96.1034
0
LINE
8
BLACK
6
CONTINUOUS
10
119.98
20
-96.1034
11
119.98
21
-96.1033
0
LINE
8
BLACK
6
CONTINUOUS
10
119.98
20
-96.1033
11
119.984
21
-96.1004
0
LINE
8
BLACK
6
CONTINUOUS
10
119.984
20
-96.1004
11
119.987
21
-96.0974
0
LINE
8
BLACK
6
CONTINUOUS
10
119.987
20
-96.0974
11
119.987
21
-96.0973
0
LINE
8
BLACK
6
CONTINUOUS
10
119.987
20
-96.0973
11
119.988
21
-96.0972
0
LINE
8
BLACK
6
CONTINUOUS
10
119.988
20
-96.0972
11
119.992
21
-96.095
0
LINE
8
BLACK
6
CONTINUOUS
10
119.992
20
-96.095
11
119.996
21
-96.0928
0
LINE
8
BLACK
6
CONTINUOUS
10
119.996
20
-96.0928
11
119.996
21
-96.0927
0
LINE
8
BLACK
6
CONTINUOUS
10
119.996
20
-96.0927
11
119.996
21
-96.0926
0
LINE
8
BLACK
6
CONTINUOUS
10
119.996
20
-96.0926
11
120.001
21
-96.0913
0
LINE
8
BLACK
6
CONTINUOUS
10
120.001
20
-96.0913
11
120.005
21
-96.09
0
LINE
8
BLACK
6
CONTINUOUS
10
120.005
20
-96.09
11
120.005
21
-96.0899
0
LINE
8
BLACK
6
CONTINUOUS
10
120.005
20
-96.0899
11
120.006
21
-96.0899
0
LINE
8
BLACK
6
CONTINUOUS
10
120.006
20
-96.0899
11
120.01
21
-96.0895
0
LINE
8
BLACK
6
CONTINUOUS
10
120.01
20
-96.0895
11
120.015
21
-96.089
0
LINE
8
BLACK
6
CONTINUOUS
10
120.015
20
-96.089
11
120.65
21
-96.089
0
LINE
8
BLACK
6
CONTINUOUS
10
120.65
20
-96.089
11
120.65
21
-96.089
0
LINE
8
BLACK
6
CONTINUOUS
10
116.84
20
-96.089
11
116.84
21
-96.089
0
LINE
8
BLACK
6
CONTINUOUS
10
116.84
20
-96.089
11
116.84
21
-96.089
0
LINE
8
BLACK
6
CONTINUOUS
10
116.84
20
-96.089
11
116.841
21
-96.089
0
LINE
8
BLACK
6
CONTINUOUS
10
116.841
20
-96.089
11
116.845
21
-96.0895
0
LINE
8
BLACK
6
CONTINUOUS
10
116.845
20
-96.0895
11
116.85
21
-96.09
0
LINE
8
BLACK
6
CONTINUOUS
10
116.85
20
-96.09
11
116.85
21
-96.0901
0
LINE
8
BLACK
6
CONTINUOUS
10
116.85
20
-96.0901
11
116.85
21
-96.0901
0
LINE
8
BLACK
6
CONTINUOUS
10
116.85
20
-96.0901
11
116.855
21
-96.0915
0
LINE
8
BLACK
6
CONTINUOUS
10
116.855
20
-96.0915
11
116.859
21
-96.0929
0
LINE
8
BLACK
6
CONTINUOUS
10
116.859
20
-96.0929
11
116.86
21
-96.093
0
LINE
8
BLACK
6
CONTINUOUS
10
116.86
20
-96.093
11
116.86
21
-96.093
0
LINE
8
BLACK
6
CONTINUOUS
10
116.86
20
-96.093
11
116.864
21
-96.0953
0
LINE
8
BLACK
6
CONTINUOUS
10
116.864
20
-96.0953
11
116.868
21
-96.0975
0
LINE
8
BLACK
6
CONTINUOUS
10
116.868
20
-96.0975
11
116.868
21
-96.0977
0
LINE
8
BLACK
6
CONTINUOUS
10
116.868
20
-96.0977
11
116.868
21
-96.0977
0
LINE
8
BLACK
6
CONTINUOUS
10
116.868
20
-96.0977
11
116.872
21
-96.1007
0
LINE
8
BLACK
6
CONTINUOUS
10
116.872
20
-96.1007
11
116.875
21
-96.1038
0
LINE
8
BLACK
6
CONTINUOUS
10
116.875
20
-96.1038
11
116.876
21
-96.1039
0
LINE
8
BLACK
6
CONTINUOUS
10
116.876
20
-96.1039
11
116.876
21
-96.104
0
LINE
8
BLACK
6
CONTINUOUS
10
116.876
20
-96.104
11
116.879
21
-96.1076
0
LINE
8
BLACK
6
CONTINUOUS
10
116.879
20
-96.1076
11
116.882
21
-96.1113
0
LINE
8
BLACK
6
CONTINUOUS
10
116.882
20
-96.1113
11
116.882
21
-96.1115
0
LINE
8
BLACK
6
CONTINUOUS
10
116.882
20
-96.1115
11
116.882
21
-96.1116
0
LINE
8
BLACK
6
CONTINUOUS
10
116.882
20
-96.1116
11
116.884
21
-96.1157
0
LINE
8
BLACK
6
CONTINUOUS
10
116.884
20
-96.1157
11
116.886
21
-96.1199
0
LINE
8
BLACK
6
CONTINUOUS
10
116.886
20
-96.1199
11
116.886
21
-96.1201
0
LINE
8
BLACK
6
CONTINUOUS
10
116.886
20
-96.1201
11
116.886
21
-96.1203
0
LINE
8
BLACK
6
CONTINUOUS
10
116.886
20
-96.1203
11
116.888
21
-96.1247
0
LINE
8
BLACK
6
CONTINUOUS
10
116.888
20
-96.1247
11
116.889
21
-96.1293
0
LINE
8
BLACK
6
CONTINUOUS
10
116.889
20
-96.1293
11
116.889
21
-96.1295
0
LINE
8
BLACK
6
CONTINUOUS
10
116.889
20
-96.1295
11
116.889
21
-96.1296
0
LINE
8
BLACK
6
CONTINUOUS
10
116.889
20
-96.1296
11
116.89
21
-96.1343
0
LINE
8
BLACK
6
CONTINUOUS
10
116.89
20
-96.1343
11
116.89
21
-96.139
0
LINE
8
BLACK
6
CONTINUOUS
10
116.89
20
-96.139
11
116.89
21
-96.774
0
LINE
8
BLACK
6
CONTINUOUS
10
116.89
20
-96.774
11
116.89
21
-96.7743
0
LINE
8
BLACK
6
CONTINUOUS
10
116.89
20
-96.7743
11
116.89
21
-96.7743
0
LINE
8
BLACK
6
CONTINUOUS
10
116.89
20
-96.7743
11
116.89
21
-96.7744
0
LINE
8
BLACK
6
CONTINUOUS
10
116.89
20
-96.7744
11
116.89
21
-96.7747
0
LINE
8
BLACK
6
CONTINUOUS
10
116.89
20
-96.7747
11
116.889
21
-96.7793
0
LINE
8
BLACK
6
CONTINUOUS
10
116.889
20
-96.7793
11
116.889
21
-96.7841
0
LINE
8
BLACK
6
CONTINUOUS
10
116.889
20
-96.7841
11
116.889
21
-96.7842
0
LINE
8
BLACK
6
CONTINUOUS
10
116.889
20
-96.7842
11
116.889
21
-96.7844
0
LINE
8
BLACK
6
CONTINUOUS
10
116.889
20
-96.7844
11
116.887
21
-96.7889
0
LINE
8
BLACK
6
CONTINUOUS
10
116.887
20
-96.7889
11
116.886
21
-96.7934
0
LINE
8
BLACK
6
CONTINUOUS
10
116.886
20
-96.7934
11
116.886
21
-96.7935
0
LINE
8
BLACK
6
CONTINUOUS
10
116.886
20
-96.7935
11
116.886
21
-96.7937
0
LINE
8
BLACK
6
CONTINUOUS
10
116.886
20
-96.7937
11
116.884
21
-96.7978
0
LINE
8
BLACK
6
CONTINUOUS
10
116.884
20
-96.7978
11
116.881
21
-96.802
0
LINE
8
BLACK
6
CONTINUOUS
10
116.881
20
-96.802
11
116.881
21
-96.8021
0
LINE
8
BLACK
6
CONTINUOUS
10
116.881
20
-96.8021
11
116.881
21
-96.8022
0
LINE
8
BLACK
6
CONTINUOUS
10
116.881
20
-96.8022
11
116.878
21
-96.8058
0
LINE
8
BLACK
6
CONTINUOUS
10
116.878
20
-96.8058
11
116.875
21
-96.8095
0
LINE
8
BLACK
6
CONTINUOUS
10
116.875
20
-96.8095
11
116.875
21
-96.8096
0
LINE
8
BLACK
6
CONTINUOUS
10
116.875
20
-96.8096
11
116.875
21
-96.8097
0
LINE
8
BLACK
6
CONTINUOUS
10
116.875
20
-96.8097
11
116.871
21
-96.8126
0
LINE
8
BLACK
6
CONTINUOUS
10
116.871
20
-96.8126
11
116.868
21
-96.8156
0
LINE
8
BLACK
6
CONTINUOUS
10
116.868
20
-96.8156
11
116.868
21
-96.8157
0
LINE
8
BLACK
6
CONTINUOUS
10
116.868
20
-96.8157
11
116.867
21
-96.8158
0
LINE
8
BLACK
6
CONTINUOUS
10
116.867
20
-96.8158
11
116.863
21
-96.818
0
LINE
8
BLACK
6
CONTINUOUS
10
116.863
20
-96.818
11
116.859
21
-96.8202
0
LINE
8
BLACK
6
CONTINUOUS
10
116.859
20
-96.8202
11
116.859
21
-96.8203
0
LINE
8
BLACK
6
CONTINUOUS
10
116.859
20
-96.8203
11
116.859
21
-96.8204
0
LINE
8
BLACK
6
CONTINUOUS
10
116.859
20
-96.8204
11
116.854
21
-96.8217
0
LINE
8
BLACK
6
CONTINUOUS
10
116.854
20
-96.8217
11
116.85
21
-96.823
0
LINE
8
BLACK
6
CONTINUOUS
10
116.85
20
-96.823
11
116.85
21
-96.8231
0
LINE
8
BLACK
6
CONTINUOUS
10
116.85
20
-96.8231
11
116.849
21
-96.8231
0
LINE
8
BLACK
6
CONTINUOUS
10
116.849
20
-96.8231
11
116.845
21
-96.8235
0
LINE
8
BLACK
6
CONTINUOUS
10
116.845
20
-96.8235
11
116.84
21
-96.824
0
LINE
8
BLACK
6
CONTINUOUS
10
116.84
20
-96.824
11
116.205
21
-96.824
0
LINE
8
BLACK
6
CONTINUOUS
10
116.205
20
-96.824
11
116.205
21
-96.824
0
LINE
8
BLACK
6
CONTINUOUS
10
116.205
20
-96.824
11
116.205
21
-96.824
0
LINE
8
BLACK
6
CONTINUOUS
10
116.205
20
-96.824
11
116.205
21
-96.824
0
LINE
8
BLACK
6
CONTINUOUS
10
116.205
20
-96.824
11
116.204
21
-96.824
0
LINE
8
BLACK
6
CONTINUOUS
10
116.204
20
-96.824
11
116.2
21
-96.8235
0
LINE
8
BLACK
6
CONTINUOUS
10
116.2
20
-96.8235
11
116.195
21
-96.823
0
LINE
8
BLACK
6
CONTINUOUS
10
116.195
20
-96.823
11
116.195
21
-96.8229
0
LINE
8
BLACK
6
CONTINUOUS
10
116.195
20
-96.8229
11
116.195
21
-96.8229
0
LINE
8
BLACK
6
CONTINUOUS
10
116.195
20
-96.8229
11
116.19
21
-96.8215
0
LINE
8
BLACK
6
CONTINUOUS
10
116.19
20
-96.8215
11
116.186
21
-96.8201
0
LINE
8
BLACK
6
CONTINUOUS
10
116.186
20
-96.8201
11
116.185
21
-96.82
0
LINE
8
BLACK
6
CONTINUOUS
10
116.185
20
-96.82
11
116.185
21
-96.82
0
LINE
8
BLACK
6
CONTINUOUS
10
116.185
20
-96.82
11
116.181
21
-96.8177
0
LINE
8
BLACK
6
CONTINUOUS
10
116.181
20
-96.8177
11
116.177
21
-96.8155
0
LINE
8
BLACK
6
CONTINUOUS
10
116.177
20
-96.8155
11
116.177
21
-96.8153
0
LINE
8
BLACK
6
CONTINUOUS
10
116.177
20
-96.8153
11
116.177
21
-96.8153
0
LINE
8
BLACK
6
CONTINUOUS
10
116.177
20
-96.8153
11
116.173
21
-96.8123
0
LINE
8
BLACK
6
CONTINUOUS
10
116.173
20
-96.8123
11
116.17
21
-96.8092
0
LINE
8
BLACK
6
CONTINUOUS
10
116.17
20
-96.8092
11
116.169
21
-96.8091
0
LINE
8
BLACK
6
CONTINUOUS
10
116.169
20
-96.8091
11
116.169
21
-96.809
0
LINE
8
BLACK
6
CONTINUOUS
10
116.169
20
-96.809
11
116.166
21
-96.8054
0
LINE
8
BLACK
6
CONTINUOUS
10
116.166
20
-96.8054
11
116.163
21
-96.8017
0
LINE
8
BLACK
6
CONTINUOUS
10
116.163
20
-96.8017
11
116.163
21
-96.8015
0
LINE
8
BLACK
6
CONTINUOUS
10
116.163
20
-96.8015
11
116.163
21
-96.8014
0
LINE
8
BLACK
6
CONTINUOUS
10
116.163
20
-96.8014
11
116.161
21
-96.7973
0
LINE
8
BLACK
6
CONTINUOUS
10
116.161
20
-96.7973
11
116.159
21
-96.7931
0
LINE
8
BLACK
6
CONTINUOUS
10
116.159
20
-96.7931
11
116.159
21
-96.7929
0
LINE
8
BLACK
6
CONTINUOUS
10
116.159
20
-96.7929
11
116.159
21
-96.7927
0
LINE
8
BLACK
6
CONTINUOUS
10
116.159
20
-96.7927
11
116.157
21
-96.7883
0
LINE
8
BLACK
6
CONTINUOUS
10
116.157
20
-96.7883
11
116.156
21
-96.7837
0
LINE
8
BLACK
6
CONTINUOUS
10
116.156
20
-96.7837
11
116.156
21
-96.7835
0
LINE
8
BLACK
6
CONTINUOUS
10
116.156
20
-96.7835
11
116.156
21
-96.7834
0
LINE
8
BLACK
6
CONTINUOUS
10
116.156
20
-96.7834
11
116.155
21
-96.7787
0
LINE
8
BLACK
6
CONTINUOUS
10
116.155
20
-96.7787
11
116.155
21
-96.774
0
LINE
8
BLACK
6
CONTINUOUS
10
116.155
20
-96.774
11
116.155
21
-96.139
0
LINE
8
BLACK
6
CONTINUOUS
10
116.155
20
-96.139
11
116.155
21
-96.1387
0
LINE
8
BLACK
6
CONTINUOUS
10
116.155
20
-96.1387
11
116.155
21
-96.1387
0
LINE
8
BLACK
6
CONTINUOUS
10
116.155
20
-96.1387
11
116.155
21
-96.1386
0
LINE
8
BLACK
6
CONTINUOUS
10
116.155
20
-96.1386
11
116.155
21
-96.1383
0
LINE
8
BLACK
6
CONTINUOUS
10
116.155
20
-96.1383
11
116.156
21
-96.1337
0
LINE
8
BLACK
6
CONTINUOUS
10
116.156
20
-96.1337
11
116.156
21
-96.1289
0
LINE
8
BLACK
6
CONTINUOUS
10
116.156
20
-96.1289
11
116.156
21
-96.1288
0
LINE
8
BLACK
6
CONTINUOUS
10
116.156
20
-96.1288
11
116.156
21
-96.1286
0
LINE
8
BLACK
6
CONTINUOUS
10
116.156
20
-96.1286
11
116.158
21
-96.1241
0
LINE
8
BLACK
6
CONTINUOUS
10
116.158
20
-96.1241
11
116.159
21
-96.1196
0
LINE
8
BLACK
6
CONTINUOUS
10
116.159
20
-96.1196
11
116.159
21
-96.1195
0
LINE
8
BLACK
6
CONTINUOUS
10
116.159
20
-96.1195
11
116.159
21
-96.1193
0
LINE
8
BLACK
6
CONTINUOUS
10
116.159
20
-96.1193
11
116.161
21
-96.1152
0
LINE
8
BLACK
6
CONTINUOUS
10
116.161
20
-96.1152
11
116.164
21
-96.111
0
LINE
8
BLACK
6
CONTINUOUS
10
116.164
20
-96.111
11
116.164
21
-96.1109
0
LINE
8
BLACK
6
CONTINUOUS
10
116.164
20
-96.1109
11
116.164
21
-96.1108
0
LINE
8
BLACK
6
CONTINUOUS
10
116.164
20
-96.1108
11
116.167
21
-96.1072
0
LINE
8
BLACK
6
CONTINUOUS
10
116.167
20
-96.1072
11
116.17
21
-96.1035
0
LINE
8
BLACK
6
CONTINUOUS
10
116.17
20
-96.1035
11
116.17
21
-96.1034
0
LINE
8
BLACK
6
CONTINUOUS
10
116.17
20
-96.1034
11
116.17
21
-96.1033
0
LINE
8
BLACK
6
CONTINUOUS
10
116.17
20
-96.1033
11
116.174
21
-96.1004
0
LINE
8
BLACK
6
CONTINUOUS
10
116.174
20
-96.1004
11
116.177
21
-96.0974
0
LINE
8
BLACK
6
CONTINUOUS
10
116.177
20
-96.0974
11
116.177
21
-96.0973
0
LINE
8
BLACK
6
CONTINUOUS
10
116.177
20
-96.0973
11
116.178
21
-96.0972
0
LINE
8
BLACK
6
CONTINUOUS
10
116.178
20
-96.0972
11
116.182
21
-96.095
0
LINE
8
BLACK
6
CONTINUOUS
10
116.182
20
-96.095
11
116.186
21
-96.0928
0
LINE
8
BLACK
6
CONTINUOUS
10
116.186
20
-96.0928
11
116.186
21
-96.0927
0
LINE
8
BLACK
6
CONTINUOUS
10
116.186
20
-96.0927
11
116.186
21
-96.0926
0
LINE
8
BLACK
6
CONTINUOUS
10
116.186
20
-96.0926
11
116.191
21
-96.0913
0
LINE
8
BLACK
6
CONTINUOUS
10
116.191
20
-96.0913
11
116.195
21
-96.09
0
LINE
8
BLACK
6
CONTINUOUS
10
116.195
20
-96.09
11
116.195
21
-96.0899
0
LINE
8
BLACK
6
CONTINUOUS
10
116.195
20
-96.0899
11
116.196
21
-96.0899
0
LINE
8
BLACK
6
CONTINUOUS
10
116.196
20
-96.0899
11
116.2
21
-96.0895
0
LINE
8
BLACK
6
CONTINUOUS
10
116.2
20
-96.0895
11
116.205
21
-96.089
0
LINE
8
BLACK
6
CONTINUOUS
10
116.205
20
-96.089
11
116.84
21
-96.089
0
LINE
8
BLACK
6
CONTINUOUS
10
116.84
20
-96.089
11
116.84
21
-96.089
0
LINE
8
BLACK
6
CONTINUOUS
10
149.946
20
-93.6353
11
150.237
21
-93.7559
0
LINE
8
BLACK
6
CONTINUOUS
10
150.237
20
-93.7559
11
150.499
21
-93.931
0
LINE
8
BLACK
6
CONTINUOUS
10
150.499
20
-93.931
11
150.722
21
-94.1539
0
LINE
8
BLACK
6
CONTINUOUS
10
150.722
20
-94.1539
11
150.897
21
-94.4159
0
LINE
8
BLACK
6
CONTINUOUS
10
150.897
20
-94.4159
11
151.018
21
-94.7071
0
LINE
8
BLACK
6
CONTINUOUS
10
151.018
20
-94.7071
11
151.079
21
-95.0162
0
LINE
8
BLACK
6
CONTINUOUS
10
151.079
20
-95.0162
11
151.079
21
-95.3314
0
LINE
8
BLACK
6
CONTINUOUS
10
151.079
20
-95.3314
11
151.018
21
-95.6405
0
LINE
8
BLACK
6
CONTINUOUS
10
151.018
20
-95.6405
11
150.897
21
-95.9317
0
LINE
8
BLACK
6
CONTINUOUS
10
150.897
20
-95.9317
11
150.722
21
-96.1937
0
LINE
8
BLACK
6
CONTINUOUS
10
150.722
20
-96.1937
11
150.499
21
-96.4166
0
LINE
8
BLACK
6
CONTINUOUS
10
150.499
20
-96.4166
11
150.237
21
-96.5917
0
LINE
8
BLACK
6
CONTINUOUS
10
150.237
20
-96.5917
11
149.946
21
-96.7123
0
LINE
8
BLACK
6
CONTINUOUS
10
149.946
20
-96.7123
11
149.637
21
-96.7738
0
LINE
8
BLACK
6
CONTINUOUS
10
149.637
20
-96.7738
11
149.321
21
-96.7738
0
LINE
8
BLACK
6
CONTINUOUS
10
149.321
20
-96.7738
11
149.012
21
-96.7123
0
LINE
8
BLACK
6
CONTINUOUS
10
149.012
20
-96.7123
11
148.721
21
-96.5917
0
LINE
8
BLACK
6
CONTINUOUS
10
148.721
20
-96.5917
11
148.459
21
-96.4166
0
LINE
8
BLACK
6
CONTINUOUS
10
148.459
20
-96.4166
11
148.236
21
-96.1937
0
LINE
8
BLACK
6
CONTINUOUS
10
148.236
20
-96.1937
11
148.061
21
-95.9317
0
LINE
8
BLACK
6
CONTINUOUS
10
148.061
20
-95.9317
11
147.94
21
-95.6405
0
LINE
8
BLACK
6
CONTINUOUS
10
147.94
20
-95.6405
11
147.879
21
-95.3314
0
LINE
8
BLACK
6
CONTINUOUS
10
147.879
20
-95.3314
11
147.879
21
-95.0162
0
LINE
8
BLACK
6
CONTINUOUS
10
147.879
20
-95.0162
11
147.94
21
-94.7071
0
LINE
8
BLACK
6
CONTINUOUS
10
147.94
20
-94.7071
11
148.061
21
-94.4159
0
LINE
8
BLACK
6
CONTINUOUS
10
148.061
20
-94.4159
11
148.236
21
-94.1539
0
LINE
8
BLACK
6
CONTINUOUS
10
148.236
20
-94.1539
11
148.459
21
-93.931
0
LINE
8
BLACK
6
CONTINUOUS
10
148.459
20
-93.931
11
148.721
21
-93.7559
0
LINE
8
BLACK
6
CONTINUOUS
10
148.721
20
-93.7559
11
149.012
21
-93.6353
0
LINE
8
BLACK
6
CONTINUOUS
10
149.012
20
-93.6353
11
149.321
21
-93.5738
0
LINE
8
BLACK
6
CONTINUOUS
10
149.321
20
-93.5738
11
149.637
21
-93.5738
0
LINE
8
BLACK
6
CONTINUOUS
10
149.637
20
-93.5738
11
149.946
21
-93.6353
0
LINE
8
BLACK
6
CONTINUOUS
10
89.9763
20
-93.5972
11
90.2675
21
-93.7178
0
LINE
8
BLACK
6
CONTINUOUS
10
90.2675
20
-93.7178
11
90.5295
21
-93.8929
0
LINE
8
BLACK
6
CONTINUOUS
10
90.5295
20
-93.8929
11
90.7524
21
-94.1158
0
LINE
8
BLACK
6
CONTINUOUS
10
90.7524
20
-94.1158
11
90.9275
21
-94.3778
0
LINE
8
BLACK
6
CONTINUOUS
10
90.9275
20
-94.3778
11
91.0481
21
-94.669
0
LINE
8
BLACK
6
CONTINUOUS
10
91.0481
20
-94.669
11
91.1096
21
-94.9781
0
LINE
8
BLACK
6
CONTINUOUS
10
91.1096
20
-94.9781
11
91.1096
21
-95.2933
0
LINE
8
BLACK
6
CONTINUOUS
10
91.1096
20
-95.2933
11
91.0481
21
-95.6024
0
LINE
8
BLACK
6
CONTINUOUS
10
91.0481
20
-95.6024
11
90.9275
21
-95.8936
0
LINE
8
BLACK
6
CONTINUOUS
10
90.9275
20
-95.8936
11
90.7524
21
-96.1556
0
LINE
8
BLACK
6
CONTINUOUS
10
90.7524
20
-96.1556
11
90.5295
21
-96.3785
0
LINE
8
BLACK
6
CONTINUOUS
10
90.5295
20
-96.3785
11
90.2675
21
-96.5536
0
LINE
8
BLACK
6
CONTINUOUS
10
90.2675
20
-96.5536
11
89.9763
21
-96.6742
0
LINE
8
BLACK
6
CONTINUOUS
10
89.9763
20
-96.6742
11
89.6672
21
-96.7357
0
LINE
8
BLACK
6
CONTINUOUS
10
89.6672
20
-96.7357
11
89.352
21
-96.7357
0
LINE
8
BLACK
6
CONTINUOUS
10
89.352
20
-96.7357
11
89.0429
21
-96.6742
0
LINE
8
BLACK
6
CONTINUOUS
10
89.0429
20
-96.6742
11
88.7517
21
-96.5536
0
LINE
8
BLACK
6
CONTINUOUS
10
88.7517
20
-96.5536
11
88.4897
21
-96.3785
0
LINE
8
BLACK
6
CONTINUOUS
10
88.4897
20
-96.3785
11
88.2668
21
-96.1556
0
LINE
8
BLACK
6
CONTINUOUS
10
88.2668
20
-96.1556
11
88.0917
21
-95.8936
0
LINE
8
BLACK
6
CONTINUOUS
10
88.0917
20
-95.8936
11
87.9711
21
-95.6024
0
LINE
8
BLACK
6
CONTINUOUS
10
87.9711
20
-95.6024
11
87.9096
21
-95.2933
0
LINE
8
BLACK
6
CONTINUOUS
10
87.9096
20
-95.2933
11
87.9096
21
-94.9781
0
LINE
8
BLACK
6
CONTINUOUS
10
87.9096
20
-94.9781
11
87.9711
21
-94.669
0
LINE
8
BLACK
6
CONTINUOUS
10
87.9711
20
-94.669
11
88.0917
21
-94.3778
0
LINE
8
BLACK
6
CONTINUOUS
10
88.0917
20
-94.3778
11
88.2668
21
-94.1158
0
LINE
8
BLACK
6
CONTINUOUS
10
88.2668
20
-94.1158
11
88.4897
21
-93.8929
0
LINE
8
BLACK
6
CONTINUOUS
10
88.4897
20
-93.8929
11
88.7517
21
-93.7178
0
LINE
8
BLACK
6
CONTINUOUS
10
88.7517
20
-93.7178
11
89.0429
21
-93.5972
0
LINE
8
BLACK
6
CONTINUOUS
10
89.0429
20
-93.5972
11
89.352
21
-93.5357
0
LINE
8
BLACK
6
CONTINUOUS
10
89.352
20
-93.5357
11
89.6672
21
-93.5357
0
LINE
8
BLACK
6
CONTINUOUS
10
89.6672
20
-93.5357
11
89.9763
21
-93.5972
0
LINE
8
BLACK
6
CONTINUOUS
10
116.205
20
-95.554
11
116.205
21
-95.554
0
LINE
8
BLACK
6
CONTINUOUS
10
116.205
20
-95.554
11
116.205
21
-95.554
0
LINE
8
BLACK
6
CONTINUOUS
10
116.205
20
-95.554
11
116.204
21
-95.554
0
LINE
8
BLACK
6
CONTINUOUS
10
116.204
20
-95.554
11
116.2
21
-95.5535
0
LINE
8
BLACK
6
CONTINUOUS
10
116.2
20
-95.5535
11
116.195
21
-95.553
0
LINE
8
BLACK
6
CONTINUOUS
10
116.195
20
-95.553
11
116.195
21
-95.5529
0
LINE
8
BLACK
6
CONTINUOUS
10
116.195
20
-95.5529
11
116.195
21
-95.5529
0
LINE
8
BLACK
6
CONTINUOUS
10
116.195
20
-95.5529
11
116.19
21
-95.5515
0
LINE
8
BLACK
6
CONTINUOUS
10
116.19
20
-95.5515
11
116.186
21
-95.5501
0
LINE
8
BLACK
6
CONTINUOUS
10
116.186
20
-95.5501
11
116.185
21
-95.55
0
LINE
8
BLACK
6
CONTINUOUS
10
116.185
20
-95.55
11
116.185
21
-95.55
0
LINE
8
BLACK
6
CONTINUOUS
10
116.185
20
-95.55
11
116.181
21
-95.5477
0
LINE
8
BLACK
6
CONTINUOUS
10
116.181
20
-95.5477
11
116.177
21
-95.5455
0
LINE
8
BLACK
6
CONTINUOUS
10
116.177
20
-95.5455
11
116.177
21
-95.5453
0
LINE
8
BLACK
6
CONTINUOUS
10
116.177
20
-95.5453
11
116.177
21
-95.5453
0
LINE
8
BLACK
6
CONTINUOUS
10
116.177
20
-95.5453
11
116.173
21
-95.5423
0
LINE
8
BLACK
6
CONTINUOUS
10
116.173
20
-95.5423
11
116.17
21
-95.5392
0
LINE
8
BLACK
6
CONTINUOUS
10
116.17
20
-95.5392
11
116.169
21
-95.5391
0
LINE
8
BLACK
6
CONTINUOUS
10
116.169
20
-95.5391
11
116.169
21
-95.539
0
LINE
8
BLACK
6
CONTINUOUS
10
116.169
20
-95.539
11
116.166
21
-95.5354
0
LINE
8
BLACK
6
CONTINUOUS
10
116.166
20
-95.5354
11
116.163
21
-95.5317
0
LINE
8
BLACK
6
CONTINUOUS
10
116.163
20
-95.5317
11
116.163
21
-95.5315
0
LINE
8
BLACK
6
CONTINUOUS
10
116.163
20
-95.5315
11
116.163
21
-95.5314
0
LINE
8
BLACK
6
CONTINUOUS
10
116.163
20
-95.5314
11
116.161
21
-95.5273
0
LINE
8
BLACK
6
CONTINUOUS
10
116.161
20
-95.5273
11
116.159
21
-95.5231
0
LINE
8
BLACK
6
CONTINUOUS
10
116.159
20
-95.5231
11
116.159
21
-95.5229
0
LINE
8
BLACK
6
CONTINUOUS
10
116.159
20
-95.5229
11
116.159
21
-95.5227
0
LINE
8
BLACK
6
CONTINUOUS
10
116.159
20
-95.5227
11
116.157
21
-95.5183
0
LINE
8
BLACK
6
CONTINUOUS
10
116.157
20
-95.5183
11
116.156
21
-95.5137
0
LINE
8
BLACK
6
CONTINUOUS
10
116.156
20
-95.5137
11
116.156
21
-95.5135
0
LINE
8
BLACK
6
CONTINUOUS
10
116.156
20
-95.5135
11
116.156
21
-95.5134
0
LINE
8
BLACK
6
CONTINUOUS
10
116.156
20
-95.5134
11
116.155
21
-95.5087
0
LINE
8
BLACK
6
CONTINUOUS
10
116.155
20
-95.5087
11
116.155
21
-95.504
0
LINE
8
BLACK
6
CONTINUOUS
10
116.155
20
-95.504
11
116.155
21
-94.869
0
LINE
8
BLACK
6
CONTINUOUS
10
116.155
20
-94.869
11
116.155
21
-94.8687
0
LINE
8
BLACK
6
CONTINUOUS
10
116.155
20
-94.8687
11
116.155
21
-94.8687
0
LINE
8
BLACK
6
CONTINUOUS
10
116.155
20
-94.8687
11
116.155
21
-94.8686
0
LINE
8
BLACK
6
CONTINUOUS
10
116.155
20
-94.8686
11
116.155
21
-94.8683
0
LINE
8
BLACK
6
CONTINUOUS
10
116.155
20
-94.8683
11
116.156
21
-94.8637
0
LINE
8
BLACK
6
CONTINUOUS
10
116.156
20
-94.8637
11
116.156
21
-94.8589
0
LINE
8
BLACK
6
CONTINUOUS
10
116.156
20
-94.8589
11
116.156
21
-94.8588
0
LINE
8
BLACK
6
CONTINUOUS
10
116.156
20
-94.8588
11
116.156
21
-94.8586
0
LINE
8
BLACK
6
CONTINUOUS
10
116.156
20
-94.8586
11
116.158
21
-94.8541
0
LINE
8
BLACK
6
CONTINUOUS
10
116.158
20
-94.8541
11
116.159
21
-94.8496
0
LINE
8
BLACK
6
CONTINUOUS
10
116.159
20
-94.8496
11
116.159
21
-94.8495
0
LINE
8
BLACK
6
CONTINUOUS
10
116.159
20
-94.8495
11
116.159
21
-94.8493
0
LINE
8
BLACK
6
CONTINUOUS
10
116.159
20
-94.8493
11
116.161
21
-94.8452
0
LINE
8
BLACK
6
CONTINUOUS
10
116.161
20
-94.8452
11
116.164
21
-94.841
0
LINE
8
BLACK
6
CONTINUOUS
10
116.164
20
-94.841
11
116.164
21
-94.8409
0
LINE
8
BLACK
6
CONTINUOUS
10
116.164
20
-94.8409
11
116.164
21
-94.8408
0
LINE
8
BLACK
6
CONTINUOUS
10
116.164
20
-94.8408
11
116.167
21
-94.8372
0
LINE
8
BLACK
6
CONTINUOUS
10
116.167
20
-94.8372
11
116.17
21
-94.8335
0
LINE
8
BLACK
6
CONTINUOUS
10
116.17
20
-94.8335
11
116.17
21
-94.8334
0
LINE
8
BLACK
6
CONTINUOUS
10
116.17
20
-94.8334
11
116.17
21
-94.8333
0
LINE
8
BLACK
6
CONTINUOUS
10
116.17
20
-94.8333
11
116.174
21
-94.8304
0
LINE
8
BLACK
6
CONTINUOUS
10
116.174
20
-94.8304
11
116.177
21
-94.8274
0
LINE
8
BLACK
6
CONTINUOUS
10
116.177
20
-94.8274
11
116.177
21
-94.8273
0
LINE
8
BLACK
6
CONTINUOUS
10
116.177
20
-94.8273
11
116.178
21
-94.8272
0
LINE
8
BLACK
6
CONTINUOUS
10
116.178
20
-94.8272
11
116.182
21
-94.825
0
LINE
8
BLACK
6
CONTINUOUS
10
116.182
20
-94.825
11
116.186
21
-94.8228
0
LINE
8
BLACK
6
CONTINUOUS
10
116.186
20
-94.8228
11
116.186
21
-94.8227
0
LINE
8
BLACK
6
CONTINUOUS
10
116.186
20
-94.8227
11
116.186
21
-94.8226
0
LINE
8
BLACK
6
CONTINUOUS
10
116.186
20
-94.8226
11
116.191
21
-94.8213
0
LINE
8
BLACK
6
CONTINUOUS
10
116.191
20
-94.8213
11
116.195
21
-94.82
0
LINE
8
BLACK
6
CONTINUOUS
10
116.195
20
-94.82
11
116.195
21
-94.8199
0
LINE
8
BLACK
6
CONTINUOUS
10
116.195
20
-94.8199
11
116.196
21
-94.8199
0
LINE
8
BLACK
6
CONTINUOUS
10
116.196
20
-94.8199
11
116.2
21
-94.8195
0
LINE
8
BLACK
6
CONTINUOUS
10
116.2
20
-94.8195
11
116.205
21
-94.819
0
LINE
8
BLACK
6
CONTINUOUS
10
116.205
20
-94.819
11
118.11
21
-94.819
0
LINE
8
BLACK
6
CONTINUOUS
10
118.11
20
-94.819
11
118.11
21
-94.819
0
LINE
8
BLACK
6
CONTINUOUS
10
118.11
20
-94.819
11
118.11
21
-94.819
0
LINE
8
BLACK
6
CONTINUOUS
10
118.11
20
-94.819
11
118.11
21
-94.819
0
LINE
8
BLACK
6
CONTINUOUS
10
118.11
20
-94.819
11
118.111
21
-94.819
0
LINE
8
BLACK
6
CONTINUOUS
10
118.111
20
-94.819
11
118.115
21
-94.8195
0
LINE
8
BLACK
6
CONTINUOUS
10
118.115
20
-94.8195
11
118.12
21
-94.82
0
LINE
8
BLACK
6
CONTINUOUS
10
118.12
20
-94.82
11
118.12
21
-94.8201
0
LINE
8
BLACK
6
CONTINUOUS
10
118.12
20
-94.8201
11
118.12
21
-94.8201
0
LINE
8
BLACK
6
CONTINUOUS
10
118.12
20
-94.8201
11
118.125
21
-94.8215
0
LINE
8
BLACK
6
CONTINUOUS
10
118.125
20
-94.8215
11
118.129
21
-94.8229
0
LINE
8
BLACK
6
CONTINUOUS
10
118.129
20
-94.8229
11
118.13
21
-94.823
0
LINE
8
BLACK
6
CONTINUOUS
10
118.13
20
-94.823
11
118.13
21
-94.823
0
LINE
8
BLACK
6
CONTINUOUS
10
118.13
20
-94.823
11
118.134
21
-94.8253
0
LINE
8
BLACK
6
CONTINUOUS
10
118.134
20
-94.8253
11
118.138
21
-94.8275
0
LINE
8
BLACK
6
CONTINUOUS
10
118.138
20
-94.8275
11
118.138
21
-94.8277
0
LINE
8
BLACK
6
CONTINUOUS
10
118.138
20
-94.8277
11
118.138
21
-94.8277
0
LINE
8
BLACK
6
CONTINUOUS
10
118.138
20
-94.8277
11
118.142
21
-94.8307
0
LINE
8
BLACK
6
CONTINUOUS
10
118.142
20
-94.8307
11
118.145
21
-94.8338
0
LINE
8
BLACK
6
CONTINUOUS
10
118.145
20
-94.8338
11
118.146
21
-94.8339
0
LINE
8
BLACK
6
CONTINUOUS
10
118.146
20
-94.8339
11
118.146
21
-94.834
0
LINE
8
BLACK
6
CONTINUOUS
10
118.146
20
-94.834
11
118.149
21
-94.8376
0
LINE
8
BLACK
6
CONTINUOUS
10
118.149
20
-94.8376
11
118.152
21
-94.8413
0
LINE
8
BLACK
6
CONTINUOUS
10
118.152
20
-94.8413
11
118.152
21
-94.8415
0
LINE
8
BLACK
6
CONTINUOUS
10
118.152
20
-94.8415
11
118.152
21
-94.8416
0
LINE
8
BLACK
6
CONTINUOUS
10
118.152
20
-94.8416
11
118.154
21
-94.8457
0
LINE
8
BLACK
6
CONTINUOUS
10
118.154
20
-94.8457
11
118.156
21
-94.8499
0
LINE
8
BLACK
6
CONTINUOUS
10
118.156
20
-94.8499
11
118.156
21
-94.8501
0
LINE
8
BLACK
6
CONTINUOUS
10
118.156
20
-94.8501
11
118.156
21
-94.8503
0
LINE
8
BLACK
6
CONTINUOUS
10
118.156
20
-94.8503
11
118.158
21
-94.8547
0
LINE
8
BLACK
6
CONTINUOUS
10
118.158
20
-94.8547
11
118.159
21
-94.8593
0
LINE
8
BLACK
6
CONTINUOUS
10
118.159
20
-94.8593
11
118.159
21
-94.8595
0
LINE
8
BLACK
6
CONTINUOUS
10
118.159
20
-94.8595
11
118.159
21
-94.8596
0
LINE
8
BLACK
6
CONTINUOUS
10
118.159
20
-94.8596
11
118.16
21
-94.8643
0
LINE
8
BLACK
6
CONTINUOUS
10
118.16
20
-94.8643
11
118.16
21
-94.869
0
LINE
8
BLACK
6
CONTINUOUS
10
118.16
20
-94.869
11
118.16
21
-95.504
0
LINE
8
BLACK
6
CONTINUOUS
10
118.16
20
-95.504
11
118.16
21
-95.5043
0
LINE
8
BLACK
6
CONTINUOUS
10
118.16
20
-95.5043
11
118.16
21
-95.5043
0
LINE
8
BLACK
6
CONTINUOUS
10
118.16
20
-95.5043
11
118.16
21
-95.5044
0
LINE
8
BLACK
6
CONTINUOUS
10
118.16
20
-95.5044
11
118.16
21
-95.5047
0
LINE
8
BLACK
6
CONTINUOUS
10
118.16
20
-95.5047
11
118.159
21
-95.5093
0
LINE
8
BLACK
6
CONTINUOUS
10
118.159
20
-95.5093
11
118.159
21
-95.5141
0
LINE
8
BLACK
6
CONTINUOUS
10
118.159
20
-95.5141
11
118.159
21
-95.5142
0
LINE
8
BLACK
6
CONTINUOUS
10
118.159
20
-95.5142
11
118.159
21
-95.5144
0
LINE
8
BLACK
6
CONTINUOUS
10
118.159
20
-95.5144
11
118.157
21
-95.5189
0
LINE
8
BLACK
6
CONTINUOUS
10
118.157
20
-95.5189
11
118.156
21
-95.5234
0
LINE
8
BLACK
6
CONTINUOUS
10
118.156
20
-95.5234
11
118.156
21
-95.5235
0
LINE
8
BLACK
6
CONTINUOUS
10
118.156
20
-95.5235
11
118.156
21
-95.5237
0
LINE
8
BLACK
6
CONTINUOUS
10
118.156
20
-95.5237
11
118.154
21
-95.5278
0
LINE
8
BLACK
6
CONTINUOUS
10
118.154
20
-95.5278
11
118.151
21
-95.532
0
LINE
8
BLACK
6
CONTINUOUS
10
118.151
20
-95.532
11
118.151
21
-95.5321
0
LINE
8
BLACK
6
CONTINUOUS
10
118.151
20
-95.5321
11
118.151
21
-95.5322
0
LINE
8
BLACK
6
CONTINUOUS
10
118.151
20
-95.5322
11
118.148
21
-95.5358
0
LINE
8
BLACK
6
CONTINUOUS
10
118.148
20
-95.5358
11
118.145
21
-95.5395
0
LINE
8
BLACK
6
CONTINUOUS
10
118.145
20
-95.5395
11
118.145
21
-95.5396
0
LINE
8
BLACK
6
CONTINUOUS
10
118.145
20
-95.5396
11
118.145
21
-95.5397
0
LINE
8
BLACK
6
CONTINUOUS
10
118.145
20
-95.5397
11
118.141
21
-95.5426
0
LINE
8
BLACK
6
CONTINUOUS
10
118.141
20
-95.5426
11
118.138
21
-95.5456
0
LINE
8
BLACK
6
CONTINUOUS
10
118.138
20
-95.5456
11
118.138
21
-95.5457
0
LINE
8
BLACK
6
CONTINUOUS
10
118.138
20
-95.5457
11
118.137
21
-95.5458
0
LINE
8
BLACK
6
CONTINUOUS
10
118.137
20
-95.5458
11
118.133
21
-95.548
0
LINE
8
BLACK
6
CONTINUOUS
10
118.133
20
-95.548
11
118.129
21
-95.5502
0
LINE
8
BLACK
6
CONTINUOUS
10
118.129
20
-95.5502
11
118.129
21
-95.5503
0
LINE
8
BLACK
6
CONTINUOUS
10
118.129
20
-95.5503
11
118.129
21
-95.5504
0
LINE
8
BLACK
6
CONTINUOUS
10
118.129
20
-95.5504
11
118.124
21
-95.5517
0
LINE
8
BLACK
6
CONTINUOUS
10
118.124
20
-95.5517
11
118.12
21
-95.553
0
LINE
8
BLACK
6
CONTINUOUS
10
118.12
20
-95.553
11
118.12
21
-95.5531
0
LINE
8
BLACK
6
CONTINUOUS
10
118.12
20
-95.5531
11
118.119
21
-95.5531
0
LINE
8
BLACK
6
CONTINUOUS
10
118.119
20
-95.5531
11
118.115
21
-95.5535
0
LINE
8
BLACK
6
CONTINUOUS
10
118.115
20
-95.5535
11
118.11
21
-95.554
0
LINE
8
BLACK
6
CONTINUOUS
10
118.11
20
-95.554
11
116.205
21
-95.554
0
LINE
8
BLACK
6
CONTINUOUS
10
116.205
20
-95.554
11
116.205
21
-95.554
0
LINE
8
BLACK
6
CONTINUOUS
10
119.38
20
-94.819
11
119.38
21
-94.819
0
LINE
8
BLACK
6
CONTINUOUS
10
119.38
20
-94.819
11
119.38
21
-94.819
0
LINE
8
BLACK
6
CONTINUOUS
10
119.38
20
-94.819
11
119.381
21
-94.819
0
LINE
8
BLACK
6
CONTINUOUS
10
119.381
20
-94.819
11
119.385
21
-94.8195
0
LINE
8
BLACK
6
CONTINUOUS
10
119.385
20
-94.8195
11
119.39
21
-94.82
0
LINE
8
BLACK
6
CONTINUOUS
10
119.39
20
-94.82
11
119.39
21
-94.8201
0
LINE
8
BLACK
6
CONTINUOUS
10
119.39
20
-94.8201
11
119.39
21
-94.8201
0
LINE
8
BLACK
6
CONTINUOUS
10
119.39
20
-94.8201
11
119.395
21
-94.8215
0
LINE
8
BLACK
6
CONTINUOUS
10
119.395
20
-94.8215
11
119.399
21
-94.8229
0
LINE
8
BLACK
6
CONTINUOUS
10
119.399
20
-94.8229
11
119.4
21
-94.823
0
LINE
8
BLACK
6
CONTINUOUS
10
119.4
20
-94.823
11
119.4
21
-94.823
0
LINE
8
BLACK
6
CONTINUOUS
10
119.4
20
-94.823
11
119.404
21
-94.8253
0
LINE
8
BLACK
6
CONTINUOUS
10
119.404
20
-94.8253
11
119.408
21
-94.8275
0
LINE
8
BLACK
6
CONTINUOUS
10
119.408
20
-94.8275
11
119.408
21
-94.8277
0
LINE
8
BLACK
6
CONTINUOUS
10
119.408
20
-94.8277
11
119.408
21
-94.8277
0
LINE
8
BLACK
6
CONTINUOUS
10
119.408
20
-94.8277
11
119.412
21
-94.8307
0
LINE
8
BLACK
6
CONTINUOUS
10
119.412
20
-94.8307
11
119.415
21
-94.8338
0
LINE
8
BLACK
6
CONTINUOUS
10
119.415
20
-94.8338
11
119.416
21
-94.8339
0
LINE
8
BLACK
6
CONTINUOUS
10
119.416
20
-94.8339
11
119.416
21
-94.834
0
LINE
8
BLACK
6
CONTINUOUS
10
119.416
20
-94.834
11
119.419
21
-94.8376
0
LINE
8
BLACK
6
CONTINUOUS
10
119.419
20
-94.8376
11
119.422
21
-94.8413
0
LINE
8
BLACK
6
CONTINUOUS
10
119.422
20
-94.8413
11
119.422
21
-94.8415
0
LINE
8
BLACK
6
CONTINUOUS
10
119.422
20
-94.8415
11
119.422
21
-94.8416
0
LINE
8
BLACK
6
CONTINUOUS
10
119.422
20
-94.8416
11
119.424
21
-94.8457
0
LINE
8
BLACK
6
CONTINUOUS
10
119.424
20
-94.8457
11
119.426
21
-94.8499
0
LINE
8
BLACK
6
CONTINUOUS
10
119.426
20
-94.8499
11
119.426
21
-94.8501
0
LINE
8
BLACK
6
CONTINUOUS
10
119.426
20
-94.8501
11
119.426
21
-94.8503
0
LINE
8
BLACK
6
CONTINUOUS
10
119.426
20
-94.8503
11
119.428
21
-94.8547
0
LINE
8
BLACK
6
CONTINUOUS
10
119.428
20
-94.8547
11
119.429
21
-94.8593
0
LINE
8
BLACK
6
CONTINUOUS
10
119.429
20
-94.8593
11
119.429
21
-94.8595
0
LINE
8
BLACK
6
CONTINUOUS
10
119.429
20
-94.8595
11
119.429
21
-94.8596
0
LINE
8
BLACK
6
CONTINUOUS
10
119.429
20
-94.8596
11
119.43
21
-94.8643
0
LINE
8
BLACK
6
CONTINUOUS
10
119.43
20
-94.8643
11
119.43
21
-94.869
0
LINE
8
BLACK
6
CONTINUOUS
10
119.43
20
-94.869
11
119.43
21
-95.504
0
LINE
8
BLACK
6
CONTINUOUS
10
119.43
20
-95.504
11
119.43
21
-95.5043
0
LINE
8
BLACK
6
CONTINUOUS
10
119.43
20
-95.5043
11
119.43
21
-95.5043
0
LINE
8
BLACK
6
CONTINUOUS
10
119.43
20
-95.5043
11
119.43
21
-95.5044
0
LINE
8
BLACK
6
CONTINUOUS
10
119.43
20
-95.5044
11
119.43
21
-95.5047
0
LINE
8
BLACK
6
CONTINUOUS
10
119.43
20
-95.5047
11
119.429
21
-95.5093
0
LINE
8
BLACK
6
CONTINUOUS
10
119.429
20
-95.5093
11
119.429
21
-95.5141
0
LINE
8
BLACK
6
CONTINUOUS
10
119.429
20
-95.5141
11
119.429
21
-95.5142
0
LINE
8
BLACK
6
CONTINUOUS
10
119.429
20
-95.5142
11
119.429
21
-95.5144
0
LINE
8
BLACK
6
CONTINUOUS
10
119.429
20
-95.5144
11
119.427
21
-95.5189
0
LINE
8
BLACK
6
CONTINUOUS
10
119.427
20
-95.5189
11
119.426
21
-95.5234
0
LINE
8
BLACK
6
CONTINUOUS
10
119.426
20
-95.5234
11
119.426
21
-95.5235
0
LINE
8
BLACK
6
CONTINUOUS
10
119.426
20
-95.5235
11
119.426
21
-95.5237
0
LINE
8
BLACK
6
CONTINUOUS
10
119.426
20
-95.5237
11
119.424
21
-95.5278
0
LINE
8
BLACK
6
CONTINUOUS
10
119.424
20
-95.5278
11
119.421
21
-95.532
0
LINE
8
BLACK
6
CONTINUOUS
10
119.421
20
-95.532
11
119.421
21
-95.5321
0
LINE
8
BLACK
6
CONTINUOUS
10
119.421
20
-95.5321
11
119.421
21
-95.5322
0
LINE
8
BLACK
6
CONTINUOUS
10
119.421
20
-95.5322
11
119.418
21
-95.5358
0
LINE
8
BLACK
6
CONTINUOUS
10
119.418
20
-95.5358
11
119.415
21
-95.5395
0
LINE
8
BLACK
6
CONTINUOUS
10
119.415
20
-95.5395
11
119.415
21
-95.5396
0
LINE
8
BLACK
6
CONTINUOUS
10
119.415
20
-95.5396
11
119.415
21
-95.5397
0
LINE
8
BLACK
6
CONTINUOUS
10
119.415
20
-95.5397
11
119.411
21
-95.5426
0
LINE
8
BLACK
6
CONTINUOUS
10
119.411
20
-95.5426
11
119.408
21
-95.5456
0
LINE
8
BLACK
6
CONTINUOUS
10
119.408
20
-95.5456
11
119.408
21
-95.5457
0
LINE
8
BLACK
6
CONTINUOUS
10
119.408
20
-95.5457
11
119.407
21
-95.5458
0
LINE
8
BLACK
6
CONTINUOUS
10
119.407
20
-95.5458
11
119.403
21
-95.548
0
LINE
8
BLACK
6
CONTINUOUS
10
119.403
20
-95.548
11
119.399
21
-95.5502
0
LINE
8
BLACK
6
CONTINUOUS
10
119.399
20
-95.5502
11
119.399
21
-95.5503
0
LINE
8
BLACK
6
CONTINUOUS
10
119.399
20
-95.5503
11
119.399
21
-95.5504
0
LINE
8
BLACK
6
CONTINUOUS
10
119.399
20
-95.5504
11
119.394
21
-95.5517
0
LINE
8
BLACK
6
CONTINUOUS
10
119.394
20
-95.5517
11
119.39
21
-95.553
0
LINE
8
BLACK
6
CONTINUOUS
10
119.39
20
-95.553
11
119.39
21
-95.5531
0
LINE
8
BLACK
6
CONTINUOUS
10
119.39
20
-95.5531
11
119.389
21
-95.5531
0
LINE
8
BLACK
6
CONTINUOUS
10
119.389
20
-95.5531
11
119.385
21
-95.5535
0
LINE
8
BLACK
6
CONTINUOUS
10
119.385
20
-95.5535
11
119.38
21
-95.554
0
LINE
8
BLACK
6
CONTINUOUS
10
119.38
20
-95.554
11
118.745
21
-95.554
0
LINE
8
BLACK
6
CONTINUOUS
10
118.745
20
-95.554
11
118.745
21
-95.554
0
LINE
8
BLACK
6
CONTINUOUS
10
118.745
20
-95.554
11
118.745
21
-95.554
0
LINE
8
BLACK
6
CONTINUOUS
10
118.745
20
-95.554
11
118.745
21
-95.554
0
LINE
8
BLACK
6
CONTINUOUS
10
118.745
20
-95.554
11
118.744
21
-95.554
0
LINE
8
BLACK
6
CONTINUOUS
10
118.744
20
-95.554
11
118.74
21
-95.5535
0
LINE
8
BLACK
6
CONTINUOUS
10
118.74
20
-95.5535
11
118.735
21
-95.553
0
LINE
8
BLACK
6
CONTINUOUS
10
118.735
20
-95.553
11
118.735
21
-95.5529
0
LINE
8
BLACK
6
CONTINUOUS
10
118.735
20
-95.5529
11
118.735
21
-95.5529
0
LINE
8
BLACK
6
CONTINUOUS
10
118.735
20
-95.5529
11
118.73
21
-95.5515
0
LINE
8
BLACK
6
CONTINUOUS
10
118.73
20
-95.5515
11
118.726
21
-95.5501
0
LINE
8
BLACK
6
CONTINUOUS
10
118.726
20
-95.5501
11
118.725
21
-95.55
0
LINE
8
BLACK
6
CONTINUOUS
10
118.725
20
-95.55
11
118.725
21
-95.55
0
LINE
8
BLACK
6
CONTINUOUS
10
118.725
20
-95.55
11
118.721
21
-95.5477
0
LINE
8
BLACK
6
CONTINUOUS
10
118.721
20
-95.5477
11
118.717
21
-95.5455
0
LINE
8
BLACK
6
CONTINUOUS
10
118.717
20
-95.5455
11
118.717
21
-95.5453
0
LINE
8
BLACK
6
CONTINUOUS
10
118.717
20
-95.5453
11
118.717
21
-95.5453
0
LINE
8
BLACK
6
CONTINUOUS
10
118.717
20
-95.5453
11
118.713
21
-95.5423
0
LINE
8
BLACK
6
CONTINUOUS
10
118.713
20
-95.5423
11
118.71
21
-95.5392
0
LINE
8
BLACK
6
CONTINUOUS
10
118.71
20
-95.5392
11
118.709
21
-95.5391
0
LINE
8
BLACK
6
CONTINUOUS
10
118.709
20
-95.5391
11
118.709
21
-95.539
0
LINE
8
BLACK
6
CONTINUOUS
10
118.709
20
-95.539
11
118.706
21
-95.5354
0
LINE
8
BLACK
6
CONTINUOUS
10
118.706
20
-95.5354
11
118.703
21
-95.5317
0
LINE
8
BLACK
6
CONTINUOUS
10
118.703
20
-95.5317
11
118.703
21
-95.5315
0
LINE
8
BLACK
6
CONTINUOUS
10
118.703
20
-95.5315
11
118.703
21
-95.5314
0
LINE
8
BLACK
6
CONTINUOUS
10
118.703
20
-95.5314
11
118.701
21
-95.5273
0
LINE
8
BLACK
6
CONTINUOUS
10
118.701
20
-95.5273
11
118.699
21
-95.5231
0
LINE
8
BLACK
6
CONTINUOUS
10
118.699
20
-95.5231
11
118.699
21
-95.5229
0
LINE
8
BLACK
6
CONTINUOUS
10
118.699
20
-95.5229
11
118.699
21
-95.5227
0
LINE
8
BLACK
6
CONTINUOUS
10
118.699
20
-95.5227
11
118.697
21
-95.5183
0
LINE
8
BLACK
6
CONTINUOUS
10
118.697
20
-95.5183
11
118.696
21
-95.5137
0
LINE
8
BLACK
6
CONTINUOUS
10
118.696
20
-95.5137
11
118.696
21
-95.5135
0
LINE
8
BLACK
6
CONTINUOUS
10
118.696
20
-95.5135
11
118.696
21
-95.5134
0
LINE
8
BLACK
6
CONTINUOUS
10
118.696
20
-95.5134
11
118.695
21
-95.5087
0
LINE
8
BLACK
6
CONTINUOUS
10
118.695
20
-95.5087
11
118.695
21
-95.504
0
LINE
8
BLACK
6
CONTINUOUS
10
118.695
20
-95.504
11
118.695
21
-94.869
0
LINE
8
BLACK
6
CONTINUOUS
10
118.695
20
-94.869
11
118.695
21
-94.8687
0
LINE
8
BLACK
6
CONTINUOUS
10
118.695
20
-94.8687
11
118.695
21
-94.8687
0
LINE
8
BLACK
6
CONTINUOUS
10
118.695
20
-94.8687
11
118.695
21
-94.8686
0
LINE
8
BLACK
6
CONTINUOUS
10
118.695
20
-94.8686
11
118.695
21
-94.8683
0
LINE
8
BLACK
6
CONTINUOUS
10
118.695
20
-94.8683
11
118.696
21
-94.8637
0
LINE
8
BLACK
6
CONTINUOUS
10
118.696
20
-94.8637
11
118.696
21
-94.8589
0
LINE
8
BLACK
6
CONTINUOUS
10
118.696
20
-94.8589
11
118.696
21
-94.8588
0
LINE
8
BLACK
6
CONTINUOUS
10
118.696
20
-94.8588
11
118.696
21
-94.8586
0
LINE
8
BLACK
6
CONTINUOUS
10
118.696
20
-94.8586
11
118.698
21
-94.8541
0
LINE
8
BLACK
6
CONTINUOUS
10
118.698
20
-94.8541
11
118.699
21
-94.8496
0
LINE
8
BLACK
6
CONTINUOUS
10
118.699
20
-94.8496
11
118.699
21
-94.8495
0
LINE
8
BLACK
6
CONTINUOUS
10
118.699
20
-94.8495
11
118.699
21
-94.8493
0
LINE
8
BLACK
6
CONTINUOUS
10
118.699
20
-94.8493
11
118.701
21
-94.8452
0
LINE
8
BLACK
6
CONTINUOUS
10
118.701
20
-94.8452
11
118.704
21
-94.841
0
LINE
8
BLACK
6
CONTINUOUS
10
118.704
20
-94.841
11
118.704
21
-94.8409
0
LINE
8
BLACK
6
CONTINUOUS
10
118.704
20
-94.8409
11
118.704
21
-94.8408
0
LINE
8
BLACK
6
CONTINUOUS
10
118.704
20
-94.8408
11
118.707
21
-94.8372
0
LINE
8
BLACK
6
CONTINUOUS
10
118.707
20
-94.8372
11
118.71
21
-94.8335
0
LINE
8
BLACK
6
CONTINUOUS
10
118.71
20
-94.8335
11
118.71
21
-94.8334
0
LINE
8
BLACK
6
CONTINUOUS
10
118.71
20
-94.8334
11
118.71
21
-94.8333
0
LINE
8
BLACK
6
CONTINUOUS
10
118.71
20
-94.8333
11
118.714
21
-94.8304
0
LINE
8
BLACK
6
CONTINUOUS
10
118.714
20
-94.8304
11
118.717
21
-94.8274
0
LINE
8
BLACK
6
CONTINUOUS
10
118.717
20
-94.8274
11
118.717
21
-94.8273
0
LINE
8
BLACK
6
CONTINUOUS
10
118.717
20
-94.8273
11
118.718
21
-94.8272
0
LINE
8
BLACK
6
CONTINUOUS
10
118.718
20
-94.8272
11
118.722
21
-94.825
0
LINE
8
BLACK
6
CONTINUOUS
10
118.722
20
-94.825
11
118.726
21
-94.8228
0
LINE
8
BLACK
6
CONTINUOUS
10
118.726
20
-94.8228
11
118.726
21
-94.8227
0
LINE
8
BLACK
6
CONTINUOUS
10
118.726
20
-94.8227
11
118.726
21
-94.8226
0
LINE
8
BLACK
6
CONTINUOUS
10
118.726
20
-94.8226
11
118.731
21
-94.8213
0
LINE
8
BLACK
6
CONTINUOUS
10
118.731
20
-94.8213
11
118.735
21
-94.82
0
LINE
8
BLACK
6
CONTINUOUS
10
118.735
20
-94.82
11
118.735
21
-94.8199
0
LINE
8
BLACK
6
CONTINUOUS
10
118.735
20
-94.8199
11
118.736
21
-94.8199
0
LINE
8
BLACK
6
CONTINUOUS
10
118.736
20
-94.8199
11
118.74
21
-94.8195
0
LINE
8
BLACK
6
CONTINUOUS
10
118.74
20
-94.8195
11
118.745
21
-94.819
0
LINE
8
BLACK
6
CONTINUOUS
10
118.745
20
-94.819
11
119.38
21
-94.819
0
LINE
8
BLACK
6
CONTINUOUS
10
119.38
20
-94.819
11
119.38
21
-94.819
0
LINE
8
BLACK
6
CONTINUOUS
10
119.43
20
-92.9643
11
119.43
21
-92.9643
0
LINE
8
BLACK
6
CONTINUOUS
10
119.43
20
-92.9643
11
119.43
21
-92.9644
0
LINE
8
BLACK
6
CONTINUOUS
10
119.43
20
-92.9644
11
119.43
21
-92.9647
0
LINE
8
BLACK
6
CONTINUOUS
10
119.43
20
-92.9647
11
119.429
21
-92.9693
0
LINE
8
BLACK
6
CONTINUOUS
10
119.429
20
-92.9693
11
119.429
21
-92.9741
0
LINE
8
BLACK
6
CONTINUOUS
10
119.429
20
-92.9741
11
119.429
21
-92.9742
0
LINE
8
BLACK
6
CONTINUOUS
10
119.429
20
-92.9742
11
119.429
21
-92.9744
0
LINE
8
BLACK
6
CONTINUOUS
10
119.429
20
-92.9744
11
119.427
21
-92.9789
0
LINE
8
BLACK
6
CONTINUOUS
10
119.427
20
-92.9789
11
119.426
21
-92.9834
0
LINE
8
BLACK
6
CONTINUOUS
10
119.426
20
-92.9834
11
119.426
21
-92.9835
0
LINE
8
BLACK
6
CONTINUOUS
10
119.426
20
-92.9835
11
119.426
21
-92.9837
0
LINE
8
BLACK
6
CONTINUOUS
10
119.426
20
-92.9837
11
119.424
21
-92.9878
0
LINE
8
BLACK
6
CONTINUOUS
10
119.424
20
-92.9878
11
119.421
21
-92.992
0
LINE
8
BLACK
6
CONTINUOUS
10
119.421
20
-92.992
11
119.421
21
-92.9921
0
LINE
8
BLACK
6
CONTINUOUS
10
119.421
20
-92.9921
11
119.421
21
-92.9922
0
LINE
8
BLACK
6
CONTINUOUS
10
119.421
20
-92.9922
11
119.418
21
-92.9958
0
LINE
8
BLACK
6
CONTINUOUS
10
119.418
20
-92.9958
11
119.415
21
-92.9995
0
LINE
8
BLACK
6
CONTINUOUS
10
119.415
20
-92.9995
11
119.415
21
-92.9996
0
LINE
8
BLACK
6
CONTINUOUS
10
119.415
20
-92.9996
11
119.415
21
-92.9997
0
LINE
8
BLACK
6
CONTINUOUS
10
119.415
20
-92.9997
11
119.411
21
-93.0026
0
LINE
8
BLACK
6
CONTINUOUS
10
119.411
20
-93.0026
11
119.408
21
-93.0056
0
LINE
8
BLACK
6
CONTINUOUS
10
119.408
20
-93.0056
11
119.408
21
-93.0057
0
LINE
8
BLACK
6
CONTINUOUS
10
119.408
20
-93.0057
11
119.407
21
-93.0058
0
LINE
8
BLACK
6
CONTINUOUS
10
119.407
20
-93.0058
11
119.403
21
-93.008
0
LINE
8
BLACK
6
CONTINUOUS
10
119.403
20
-93.008
11
119.399
21
-93.0102
0
LINE
8
BLACK
6
CONTINUOUS
10
119.399
20
-93.0102
11
119.399
21
-93.0103
0
LINE
8
BLACK
6
CONTINUOUS
10
119.399
20
-93.0103
11
119.399
21
-93.0104
0
LINE
8
BLACK
6
CONTINUOUS
10
119.399
20
-93.0104
11
119.394
21
-93.0117
0
LINE
8
BLACK
6
CONTINUOUS
10
119.394
20
-93.0117
11
119.39
21
-93.013
0
LINE
8
BLACK
6
CONTINUOUS
10
119.39
20
-93.013
11
119.39
21
-93.0131
0
LINE
8
BLACK
6
CONTINUOUS
10
119.39
20
-93.0131
11
119.389
21
-93.0131
0
LINE
8
BLACK
6
CONTINUOUS
10
119.389
20
-93.0131
11
119.385
21
-93.0135
0
LINE
8
BLACK
6
CONTINUOUS
10
119.385
20
-93.0135
11
119.38
21
-93.014
0
LINE
8
BLACK
6
CONTINUOUS
10
119.38
20
-93.014
11
116.205
21
-93.014
0
LINE
8
BLACK
6
CONTINUOUS
10
116.205
20
-93.014
11
116.205
21
-93.014
0
LINE
8
BLACK
6
CONTINUOUS
10
116.205
20
-93.014
11
116.205
21
-93.014
0
LINE
8
BLACK
6
CONTINUOUS
10
116.205
20
-93.014
11
116.205
21
-93.014
0
LINE
8
BLACK
6
CONTINUOUS
10
116.205
20
-93.014
11
116.204
21
-93.014
0
LINE
8
BLACK
6
CONTINUOUS
10
116.204
20
-93.014
11
116.2
21
-93.0135
0
LINE
8
BLACK
6
CONTINUOUS
10
116.2
20
-93.0135
11
116.195
21
-93.013
0
LINE
8
BLACK
6
CONTINUOUS
10
116.195
20
-93.013
11
116.195
21
-93.0129
0
LINE
8
BLACK
6
CONTINUOUS
10
116.195
20
-93.0129
11
116.195
21
-93.0129
0
LINE
8
BLACK
6
CONTINUOUS
10
116.195
20
-93.0129
11
116.19
21
-93.0115
0
LINE
8
BLACK
6
CONTINUOUS
10
116.19
20
-93.0115
11
116.186
21
-93.0101
0
LINE
8
BLACK
6
CONTINUOUS
10
116.186
20
-93.0101
11
116.185
21
-93.01
0
LINE
8
BLACK
6
CONTINUOUS
10
116.185
20
-93.01
11
116.185
21
-93.01
0
LINE
8
BLACK
6
CONTINUOUS
10
116.185
20
-93.01
11
116.181
21
-93.0077
0
LINE
8
BLACK
6
CONTINUOUS
10
116.181
20
-93.0077
11
116.177
21
-93.0055
0
LINE
8
BLACK
6
CONTINUOUS
10
116.177
20
-93.0055
11
116.177
21
-93.0053
0
LINE
8
BLACK
6
CONTINUOUS
10
116.177
20
-93.0053
11
116.177
21
-93.0053
0
LINE
8
BLACK
6
CONTINUOUS
10
116.177
20
-93.0053
11
116.173
21
-93.0023
0
LINE
8
BLACK
6
CONTINUOUS
10
116.173
20
-93.0023
11
116.17
21
-92.9992
0
LINE
8
BLACK
6
CONTINUOUS
10
116.17
20
-92.9992
11
116.169
21
-92.9991
0
LINE
8
BLACK
6
CONTINUOUS
10
116.169
20
-92.9991
11
116.169
21
-92.999
0
LINE
8
BLACK
6
CONTINUOUS
10
116.169
20
-92.999
11
116.166
21
-92.9954
0
LINE
8
BLACK
6
CONTINUOUS
10
116.166
20
-92.9954
11
116.163
21
-92.9917
0
LINE
8
BLACK
6
CONTINUOUS
10
116.163
20
-92.9917
11
116.163
21
-92.9915
0
LINE
8
BLACK
6
CONTINUOUS
10
116.163
20
-92.9915
11
116.163
21
-92.9914
0
LINE
8
BLACK
6
CONTINUOUS
10
116.163
20
-92.9914
11
116.161
21
-92.9873
0
LINE
8
BLACK
6
CONTINUOUS
10
116.161
20
-92.9873
11
116.159
21
-92.9831
0
LINE
8
BLACK
6
CONTINUOUS
10
116.159
20
-92.9831
11
116.159
21
-92.9829
0
LINE
8
BLACK
6
CONTINUOUS
10
116.159
20
-92.9829
11
116.159
21
-92.9827
0
LINE
8
BLACK
6
CONTINUOUS
10
116.159
20
-92.9827
11
116.157
21
-92.9783
0
LINE
8
BLACK
6
CONTINUOUS
10
116.157
20
-92.9783
11
116.156
21
-92.9737
0
LINE
8
BLACK
6
CONTINUOUS
10
116.156
20
-92.9737
11
116.156
21
-92.9735
0
LINE
8
BLACK
6
CONTINUOUS
10
116.156
20
-92.9735
11
116.156
21
-92.9734
0
LINE
8
BLACK
6
CONTINUOUS
10
116.156
20
-92.9734
11
116.155
21
-92.9687
0
LINE
8
BLACK
6
CONTINUOUS
10
116.155
20
-92.9687
11
116.155
21
-92.964
0
LINE
8
BLACK
6
CONTINUOUS
10
116.155
20
-92.964
11
116.155
21
-92.329
0
LINE
8
BLACK
6
CONTINUOUS
10
116.155
20
-92.329
11
116.155
21
-92.3287
0
LINE
8
BLACK
6
CONTINUOUS
10
116.155
20
-92.3287
11
116.155
21
-92.3287
0
LINE
8
BLACK
6
CONTINUOUS
10
116.155
20
-92.3287
11
116.155
21
-92.3286
0
LINE
8
BLACK
6
CONTINUOUS
10
116.155
20
-92.3286
11
116.155
21
-92.3283
0
LINE
8
BLACK
6
CONTINUOUS
10
116.155
20
-92.3283
11
116.156
21
-92.3237
0
LINE
8
BLACK
6
CONTINUOUS
10
116.156
20
-92.3237
11
116.156
21
-92.3189
0
LINE
8
BLACK
6
CONTINUOUS
10
116.156
20
-92.3189
11
116.156
21
-92.3188
0
LINE
8
BLACK
6
CONTINUOUS
10
116.156
20
-92.3188
11
116.156
21
-92.3186
0
LINE
8
BLACK
6
CONTINUOUS
10
116.156
20
-92.3186
11
116.158
21
-92.3141
0
LINE
8
BLACK
6
CONTINUOUS
10
116.158
20
-92.3141
11
116.159
21
-92.3096
0
LINE
8
BLACK
6
CONTINUOUS
10
116.159
20
-92.3096
11
116.159
21
-92.3095
0
LINE
8
BLACK
6
CONTINUOUS
10
116.159
20
-92.3095
11
116.159
21
-92.3093
0
LINE
8
BLACK
6
CONTINUOUS
10
116.159
20
-92.3093
11
116.161
21
-92.3052
0
LINE
8
BLACK
6
CONTINUOUS
10
116.161
20
-92.3052
11
116.164
21
-92.301
0
LINE
8
BLACK
6
CONTINUOUS
10
116.164
20
-92.301
11
116.164
21
-92.3009
0
LINE
8
BLACK
6
CONTINUOUS
10
116.164
20
-92.3009
11
116.164
21
-92.3008
0
LINE
8
BLACK
6
CONTINUOUS
10
116.164
20
-92.3008
11
116.167
21
-92.2972
0
LINE
8
BLACK
6
CONTINUOUS
10
116.167
20
-92.2972
11
116.17
21
-92.2935
0
LINE
8
BLACK
6
CONTINUOUS
10
116.17
20
-92.2935
11
116.17
21
-92.2934
0
LINE
8
BLACK
6
CONTINUOUS
10
116.17
20
-92.2934
11
116.17
21
-92.2933
0
LINE
8
BLACK
6
CONTINUOUS
10
116.17
20
-92.2933
11
116.174
21
-92.2904
0
LINE
8
BLACK
6
CONTINUOUS
10
116.174
20
-92.2904
11
116.177
21
-92.2874
0
LINE
8
BLACK
6
CONTINUOUS
10
116.177
20
-92.2874
11
116.177
21
-92.2873
0
LINE
8
BLACK
6
CONTINUOUS
10
116.177
20
-92.2873
11
116.178
21
-92.2872
0
LINE
8
BLACK
6
CONTINUOUS
10
116.178
20
-92.2872
11
116.182
21
-92.285
0
LINE
8
BLACK
6
CONTINUOUS
10
116.182
20
-92.285
11
116.186
21
-92.2828
0
LINE
8
BLACK
6
CONTINUOUS
10
116.186
20
-92.2828
11
116.186
21
-92.2827
0
LINE
8
BLACK
6
CONTINUOUS
10
116.186
20
-92.2827
11
116.186
21
-92.2826
0
LINE
8
BLACK
6
CONTINUOUS
10
116.186
20
-92.2826
11
116.191
21
-92.2813
0
LINE
8
BLACK
6
CONTINUOUS
10
116.191
20
-92.2813
11
116.195
21
-92.28
0
LINE
8
BLACK
6
CONTINUOUS
10
116.195
20
-92.28
11
116.195
21
-92.2799
0
LINE
8
BLACK
6
CONTINUOUS
10
116.195
20
-92.2799
11
116.196
21
-92.2799
0
LINE
8
BLACK
6
CONTINUOUS
10
116.196
20
-92.2799
11
116.2
21
-92.2795
0
LINE
8
BLACK
6
CONTINUOUS
10
116.2
20
-92.2795
11
116.205
21
-92.279
0
LINE
8
BLACK
6
CONTINUOUS
10
116.205
20
-92.279
11
117.425
21
-92.279
0
LINE
8
BLACK
6
CONTINUOUS
10
117.425
20
-92.279
11
117.425
21
-91.694
0
LINE
8
BLACK
6
CONTINUOUS
10
117.425
20
-91.694
11
117.425
21
-91.6937
0
LINE
8
BLACK
6
CONTINUOUS
10
117.425
20
-91.6937
11
117.425
21
-91.6937
0
LINE
8
BLACK
6
CONTINUOUS
10
117.425
20
-91.6937
11
117.425
21
-91.6936
0
LINE
8
BLACK
6
CONTINUOUS
10
117.425
20
-91.6936
11
117.425
21
-91.6933
0
LINE
8
BLACK
6
CONTINUOUS
10
117.425
20
-91.6933
11
117.426
21
-91.6887
0
LINE
8
BLACK
6
CONTINUOUS
10
117.426
20
-91.6887
11
117.426
21
-91.6839
0
LINE
8
BLACK
6
CONTINUOUS
10
117.426
20
-91.6839
11
117.426
21
-91.6838
0
LINE
8
BLACK
6
CONTINUOUS
10
117.426
20
-91.6838
11
117.426
21
-91.6836
0
LINE
8
BLACK
6
CONTINUOUS
10
117.426
20
-91.6836
11
117.428
21
-91.6791
0
LINE
8
BLACK
6
CONTINUOUS
10
117.428
20
-91.6791
11
117.429
21
-91.6746
0
LINE
8
BLACK
6
CONTINUOUS
10
117.429
20
-91.6746
11
117.429
21
-91.6745
0
LINE
8
BLACK
6
CONTINUOUS
10
117.429
20
-91.6745
11
117.429
21
-91.6743
0
LINE
8
BLACK
6
CONTINUOUS
10
117.429
20
-91.6743
11
117.431
21
-91.6702
0
LINE
8
BLACK
6
CONTINUOUS
10
117.431
20
-91.6702
11
117.434
21
-91.666
0
LINE
8
BLACK
6
CONTINUOUS
10
117.434
20
-91.666
11
117.434
21
-91.6659
0
LINE
8
BLACK
6
CONTINUOUS
10
117.434
20
-91.6659
11
117.434
21
-91.6658
0
LINE
8
BLACK
6
CONTINUOUS
10
117.434
20
-91.6658
11
117.437
21
-91.6622
0
LINE
8
BLACK
6
CONTINUOUS
10
117.437
20
-91.6622
11
117.44
21
-91.6585
0
LINE
8
BLACK
6
CONTINUOUS
10
117.44
20
-91.6585
11
117.44
21
-91.6584
0
LINE
8
BLACK
6
CONTINUOUS
10
117.44
20
-91.6584
11
117.44
21
-91.6583
0
LINE
8
BLACK
6
CONTINUOUS
10
117.44
20
-91.6583
11
117.444
21
-91.6554
0
LINE
8
BLACK
6
CONTINUOUS
10
117.444
20
-91.6554
11
117.447
21
-91.6524
0
LINE
8
BLACK
6
CONTINUOUS
10
117.447
20
-91.6524
11
117.447
21
-91.6523
0
LINE
8
BLACK
6
CONTINUOUS
10
117.447
20
-91.6523
11
117.448
21
-91.6522
0
LINE
8
BLACK
6
CONTINUOUS
10
117.448
20
-91.6522
11
117.452
21
-91.65
0
LINE
8
BLACK
6
CONTINUOUS
10
117.452
20
-91.65
11
117.456
21
-91.6478
0
LINE
8
BLACK
6
CONTINUOUS
10
117.456
20
-91.6478
11
117.456
21
-91.6477
0
LINE
8
BLACK
6
CONTINUOUS
10
117.456
20
-91.6477
11
117.456
21
-91.6476
0
LINE
8
BLACK
6
CONTINUOUS
10
117.456
20
-91.6476
11
117.461
21
-91.6463
0
LINE
8
BLACK
6
CONTINUOUS
10
117.461
20
-91.6463
11
117.465
21
-91.645
0
LINE
8
BLACK
6
CONTINUOUS
10
117.465
20
-91.645
11
117.465
21
-91.6449
0
LINE
8
BLACK
6
CONTINUOUS
10
117.465
20
-91.6449
11
117.466
21
-91.6449
0
LINE
8
BLACK
6
CONTINUOUS
10
117.466
20
-91.6449
11
117.47
21
-91.6445
0
LINE
8
BLACK
6
CONTINUOUS
10
117.47
20
-91.6445
11
117.475
21
-91.644
0
LINE
8
BLACK
6
CONTINUOUS
10
117.475
20
-91.644
11
118.11
21
-91.644
0
LINE
8
BLACK
6
CONTINUOUS
10
118.11
20
-91.644
11
118.11
21
-91.644
0
LINE
8
BLACK
6
CONTINUOUS
10
118.11
20
-91.644
11
118.11
21
-91.644
0
LINE
8
BLACK
6
CONTINUOUS
10
118.11
20
-91.644
11
118.11
21
-91.644
0
LINE
8
BLACK
6
CONTINUOUS
10
118.11
20
-91.644
11
118.111
21
-91.644
0
LINE
8
BLACK
6
CONTINUOUS
10
118.111
20
-91.644
11
118.115
21
-91.6445
0
LINE
8
BLACK
6
CONTINUOUS
10
118.115
20
-91.6445
11
118.12
21
-91.645
0
LINE
8
BLACK
6
CONTINUOUS
10
118.12
20
-91.645
11
118.12
21
-91.6451
0
LINE
8
BLACK
6
CONTINUOUS
10
118.12
20
-91.6451
11
118.12
21
-91.6451
0
LINE
8
BLACK
6
CONTINUOUS
10
118.12
20
-91.6451
11
118.125
21
-91.6465
0
LINE
8
BLACK
6
CONTINUOUS
10
118.125
20
-91.6465
11
118.129
21
-91.6479
0
LINE
8
BLACK
6
CONTINUOUS
10
118.129
20
-91.6479
11
118.13
21
-91.648
0
LINE
8
BLACK
6
CONTINUOUS
10
118.13
20
-91.648
11
118.13
21
-91.648
0
LINE
8
BLACK
6
CONTINUOUS
10
118.13
20
-91.648
11
118.134
21
-91.6503
0
LINE
8
BLACK
6
CONTINUOUS
10
118.134
20
-91.6503
11
118.138
21
-91.6525
0
LINE
8
BLACK
6
CONTINUOUS
10
118.138
20
-91.6525
11
118.138
21
-91.6527
0
LINE
8
BLACK
6
CONTINUOUS
10
118.138
20
-91.6527
11
118.138
21
-91.6527
0
LINE
8
BLACK
6
CONTINUOUS
10
118.138
20
-91.6527
11
118.142
21
-91.6557
0
LINE
8
BLACK
6
CONTINUOUS
10
118.142
20
-91.6557
11
118.145
21
-91.6588
0
LINE
8
BLACK
6
CONTINUOUS
10
118.145
20
-91.6588
11
118.146
21
-91.6589
0
LINE
8
BLACK
6
CONTINUOUS
10
118.146
20
-91.6589
11
118.146
21
-91.659
0
LINE
8
BLACK
6
CONTINUOUS
10
118.146
20
-91.659
11
118.149
21
-91.6626
0
LINE
8
BLACK
6
CONTINUOUS
10
118.149
20
-91.6626
11
118.152
21
-91.6663
0
LINE
8
BLACK
6
CONTINUOUS
10
118.152
20
-91.6663
11
118.152
21
-91.6665
0
LINE
8
BLACK
6
CONTINUOUS
10
118.152
20
-91.6665
11
118.152
21
-91.6666
0
LINE
8
BLACK
6
CONTINUOUS
10
118.152
20
-91.6666
11
118.154
21
-91.6707
0
LINE
8
BLACK
6
CONTINUOUS
10
118.154
20
-91.6707
11
118.156
21
-91.6749
0
LINE
8
BLACK
6
CONTINUOUS
10
118.156
20
-91.6749
11
118.156
21
-91.6751
0
LINE
8
BLACK
6
CONTINUOUS
10
118.156
20
-91.6751
11
118.156
21
-91.6753
0
LINE
8
BLACK
6
CONTINUOUS
10
118.156
20
-91.6753
11
118.158
21
-91.6797
0
LINE
8
BLACK
6
CONTINUOUS
10
118.158
20
-91.6797
11
118.159
21
-91.6843
0
LINE
8
BLACK
6
CONTINUOUS
10
118.159
20
-91.6843
11
118.159
21
-91.6845
0
LINE
8
BLACK
6
CONTINUOUS
10
118.159
20
-91.6845
11
118.159
21
-91.6846
0
LINE
8
BLACK
6
CONTINUOUS
10
118.159
20
-91.6846
11
118.16
21
-91.6893
0
LINE
8
BLACK
6
CONTINUOUS
10
118.16
20
-91.6893
11
118.16
21
-91.694
0
LINE
8
BLACK
6
CONTINUOUS
10
118.16
20
-91.694
11
118.16
21
-92.279
0
LINE
8
BLACK
6
CONTINUOUS
10
118.16
20
-92.279
11
118.695
21
-92.279
0
LINE
8
BLACK
6
CONTINUOUS
10
118.695
20
-92.279
11
118.695
21
-91.694
0
LINE
8
BLACK
6
CONTINUOUS
10
118.695
20
-91.694
11
118.695
21
-91.6937
0
LINE
8
BLACK
6
CONTINUOUS
10
118.695
20
-91.6937
11
118.695
21
-91.6937
0
LINE
8
BLACK
6
CONTINUOUS
10
118.695
20
-91.6937
11
118.695
21
-91.6936
0
LINE
8
BLACK
6
CONTINUOUS
10
118.695
20
-91.6936
11
118.695
21
-91.6933
0
LINE
8
BLACK
6
CONTINUOUS
10
118.695
20
-91.6933
11
118.696
21
-91.6887
0
LINE
8
BLACK
6
CONTINUOUS
10
118.696
20
-91.6887
11
118.696
21
-91.6839
0
LINE
8
BLACK
6
CONTINUOUS
10
118.696
20
-91.6839
11
118.696
21
-91.6838
0
LINE
8
BLACK
6
CONTINUOUS
10
118.696
20
-91.6838
11
118.696
21
-91.6836
0
LINE
8
BLACK
6
CONTINUOUS
10
118.696
20
-91.6836
11
118.698
21
-91.6791
0
LINE
8
BLACK
6
CONTINUOUS
10
118.698
20
-91.6791
11
118.699
21
-91.6746
0
LINE
8
BLACK
6
CONTINUOUS
10
118.699
20
-91.6746
11
118.699
21
-91.6745
0
LINE
8
BLACK
6
CONTINUOUS
10
118.699
20
-91.6745
11
118.699
21
-91.6743
0
LINE
8
BLACK
6
CONTINUOUS
10
118.699
20
-91.6743
11
118.701
21
-91.6702
0
LINE
8
BLACK
6
CONTINUOUS
10
118.701
20
-91.6702
11
118.704
21
-91.666
0
LINE
8
BLACK
6
CONTINUOUS
10
118.704
20
-91.666
11
118.704
21
-91.6659
0
LINE
8
BLACK
6
CONTINUOUS
10
118.704
20
-91.6659
11
118.704
21
-91.6658
0
LINE
8
BLACK
6
CONTINUOUS
10
118.704
20
-91.6658
11
118.707
21
-91.6622
0
LINE
8
BLACK
6
CONTINUOUS
10
118.707
20
-91.6622
11
118.71
21
-91.6585
0
LINE
8
BLACK
6
CONTINUOUS
10
118.71
20
-91.6585
11
118.71
21
-91.6584
0
LINE
8
BLACK
6
CONTINUOUS
10
118.71
20
-91.6584
11
118.71
21
-91.6583
0
LINE
8
BLACK
6
CONTINUOUS
10
118.71
20
-91.6583
11
118.714
21
-91.6554
0
LINE
8
BLACK
6
CONTINUOUS
10
118.714
20
-91.6554
11
118.717
21
-91.6524
0
LINE
8
BLACK
6
CONTINUOUS
10
118.717
20
-91.6524
11
118.717
21
-91.6523
0
LINE
8
BLACK
6
CONTINUOUS
10
118.717
20
-91.6523
11
118.718
21
-91.6522
0
LINE
8
BLACK
6
CONTINUOUS
10
118.718
20
-91.6522
11
118.722
21
-91.65
0
LINE
8
BLACK
6
CONTINUOUS
10
118.722
20
-91.65
11
118.726
21
-91.6478
0
LINE
8
BLACK
6
CONTINUOUS
10
118.726
20
-91.6478
11
118.726
21
-91.6477
0
LINE
8
BLACK
6
CONTINUOUS
10
118.726
20
-91.6477
11
118.726
21
-91.6476
0
LINE
8
BLACK
6
CONTINUOUS
10
118.726
20
-91.6476
11
118.731
21
-91.6463
0
LINE
8
BLACK
6
CONTINUOUS
10
118.731
20
-91.6463
11
118.735
21
-91.645
0
LINE
8
BLACK
6
CONTINUOUS
10
118.735
20
-91.645
11
118.735
21
-91.6449
0
LINE
8
BLACK
6
CONTINUOUS
10
118.735
20
-91.6449
11
118.736
21
-91.6449
0
LINE
8
BLACK
6
CONTINUOUS
10
118.736
20
-91.6449
11
118.74
21
-91.6445
0
LINE
8
BLACK
6
CONTINUOUS
10
118.74
20
-91.6445
11
118.745
21
-91.644
0
LINE
8
BLACK
6
CONTINUOUS
10
118.745
20
-91.644
11
119.38
21
-91.644
0
LINE
8
BLACK
6
CONTINUOUS
10
119.38
20
-91.644
11
119.38
21
-91.644
0
LINE
8
BLACK
6
CONTINUOUS
10
119.38
20
-91.644
11
119.38
21
-91.644
0
LINE
8
BLACK
6
CONTINUOUS
10
119.38
20
-91.644
11
119.38
21
-91.644
0
LINE
8
BLACK
6
CONTINUOUS
10
119.38
20
-91.644
11
119.381
21
-91.644
0
LINE
8
BLACK
6
CONTINUOUS
10
119.381
20
-91.644
11
119.385
21
-91.6445
0
LINE
8
BLACK
6
CONTINUOUS
10
119.385
20
-91.6445
11
119.39
21
-91.645
0
LINE
8
BLACK
6
CONTINUOUS
10
119.39
20
-91.645
11
119.39
21
-91.6451
0
LINE
8
BLACK
6
CONTINUOUS
10
119.39
20
-91.6451
11
119.39
21
-91.6451
0
LINE
8
BLACK
6
CONTINUOUS
10
119.39
20
-91.6451
11
119.395
21
-91.6465
0
LINE
8
BLACK
6
CONTINUOUS
10
119.395
20
-91.6465
11
119.399
21
-91.6479
0
LINE
8
BLACK
6
CONTINUOUS
10
119.399
20
-91.6479
11
119.4
21
-91.648
0
LINE
8
BLACK
6
CONTINUOUS
10
119.4
20
-91.648
11
119.4
21
-91.648
0
LINE
8
BLACK
6
CONTINUOUS
10
119.4
20
-91.648
11
119.404
21
-91.6503
0
LINE
8
BLACK
6
CONTINUOUS
10
119.404
20
-91.6503
11
119.408
21
-91.6525
0
LINE
8
BLACK
6
CONTINUOUS
10
119.408
20
-91.6525
11
119.408
21
-91.6527
0
LINE
8
BLACK
6
CONTINUOUS
10
119.408
20
-91.6527
11
119.408
21
-91.6527
0
LINE
8
BLACK
6
CONTINUOUS
10
119.408
20
-91.6527
11
119.412
21
-91.6557
0
LINE
8
BLACK
6
CONTINUOUS
10
119.412
20
-91.6557
11
119.415
21
-91.6588
0
LINE
8
BLACK
6
CONTINUOUS
10
119.415
20
-91.6588
11
119.416
21
-91.6589
0
LINE
8
BLACK
6
CONTINUOUS
10
119.416
20
-91.6589
11
119.416
21
-91.659
0
LINE
8
BLACK
6
CONTINUOUS
10
119.416
20
-91.659
11
119.419
21
-91.6626
0
LINE
8
BLACK
6
CONTINUOUS
10
119.419
20
-91.6626
11
119.422
21
-91.6663
0
LINE
8
BLACK
6
CONTINUOUS
10
119.422
20
-91.6663
11
119.422
21
-91.6665
0
LINE
8
BLACK
6
CONTINUOUS
10
119.422
20
-91.6665
11
119.422
21
-91.6666
0
LINE
8
BLACK
6
CONTINUOUS
10
119.422
20
-91.6666
11
119.424
21
-91.6707
0
LINE
8
BLACK
6
CONTINUOUS
10
119.424
20
-91.6707
11
119.426
21
-91.6749
0
LINE
8
BLACK
6
CONTINUOUS
10
119.426
20
-91.6749
11
119.426
21
-91.6751
0
LINE
8
BLACK
6
CONTINUOUS
10
119.426
20
-91.6751
11
119.426
21
-91.6753
0
LINE
8
BLACK
6
CONTINUOUS
10
119.426
20
-91.6753
11
119.428
21
-91.6797
0
LINE
8
BLACK
6
CONTINUOUS
10
119.428
20
-91.6797
11
119.429
21
-91.6843
0
LINE
8
BLACK
6
CONTINUOUS
10
119.429
20
-91.6843
11
119.429
21
-91.6845
0
LINE
8
BLACK
6
CONTINUOUS
10
119.429
20
-91.6845
11
119.429
21
-91.6846
0
LINE
8
BLACK
6
CONTINUOUS
10
119.429
20
-91.6846
11
119.43
21
-91.6893
0
LINE
8
BLACK
6
CONTINUOUS
10
119.43
20
-91.6893
11
119.43
21
-91.694
0
LINE
8
BLACK
6
CONTINUOUS
10
119.43
20
-91.694
11
119.43
21
-92.964
0
LINE
8
BLACK
6
CONTINUOUS
10
119.43
20
-92.964
11
119.43
21
-92.9643
0
LINE
8
BLACK
6
CONTINUOUS
10
120.65
20
-92.279
11
120.65
21
-92.279
0
LINE
8
BLACK
6
CONTINUOUS
10
120.65
20
-92.279
11
120.65
21
-92.279
0
LINE
8
BLACK
6
CONTINUOUS
10
120.65
20
-92.279
11
120.651
21
-92.279
0
LINE
8
BLACK
6
CONTINUOUS
10
120.651
20
-92.279
11
120.655
21
-92.2795
0
LINE
8
BLACK
6
CONTINUOUS
10
120.655
20
-92.2795
11
120.66
21
-92.28
0
LINE
8
BLACK
6
CONTINUOUS
10
120.66
20
-92.28
11
120.66
21
-92.2801
0
LINE
8
BLACK
6
CONTINUOUS
10
120.66
20
-92.2801
11
120.66
21
-92.2801
0
LINE
8
BLACK
6
CONTINUOUS
10
120.66
20
-92.2801
11
120.665
21
-92.2815
0
LINE
8
BLACK
6
CONTINUOUS
10
120.665
20
-92.2815
11
120.669
21
-92.2829
0
LINE
8
BLACK
6
CONTINUOUS
10
120.669
20
-92.2829
11
120.67
21
-92.283
0
LINE
8
BLACK
6
CONTINUOUS
10
120.67
20
-92.283
11
120.67
21
-92.283
0
LINE
8
BLACK
6
CONTINUOUS
10
120.67
20
-92.283
11
120.674
21
-92.2853
0
LINE
8
BLACK
6
CONTINUOUS
10
120.674
20
-92.2853
11
120.678
21
-92.2875
0
LINE
8
BLACK
6
CONTINUOUS
10
120.678
20
-92.2875
11
120.678
21
-92.2877
0
LINE
8
BLACK
6
CONTINUOUS
10
120.678
20
-92.2877
11
120.678
21
-92.2877
0
LINE
8
BLACK
6
CONTINUOUS
10
120.678
20
-92.2877
11
120.682
21
-92.2907
0
LINE
8
BLACK
6
CONTINUOUS
10
120.682
20
-92.2907
11
120.685
21
-92.2938
0
LINE
8
BLACK
6
CONTINUOUS
10
120.685
20
-92.2938
11
120.686
21
-92.2939
0
LINE
8
BLACK
6
CONTINUOUS
10
120.686
20
-92.2939
11
120.686
21
-92.294
0
LINE
8
BLACK
6
CONTINUOUS
10
120.686
20
-92.294
11
120.689
21
-92.2976
0
LINE
8
BLACK
6
CONTINUOUS
10
120.689
20
-92.2976
11
120.692
21
-92.3013
0
LINE
8
BLACK
6
CONTINUOUS
10
120.692
20
-92.3013
11
120.692
21
-92.3015
0
LINE
8
BLACK
6
CONTINUOUS
10
120.692
20
-92.3015
11
120.692
21
-92.3016
0
LINE
8
BLACK
6
CONTINUOUS
10
120.692
20
-92.3016
11
120.694
21
-92.3057
0
LINE
8
BLACK
6
CONTINUOUS
10
120.694
20
-92.3057
11
120.696
21
-92.3099
0
LINE
8
BLACK
6
CONTINUOUS
10
120.696
20
-92.3099
11
120.696
21
-92.3101
0
LINE
8
BLACK
6
CONTINUOUS
10
120.696
20
-92.3101
11
120.696
21
-92.3103
0
LINE
8
BLACK
6
CONTINUOUS
10
120.696
20
-92.3103
11
120.698
21
-92.3147
0
LINE
8
BLACK
6
CONTINUOUS
10
120.698
20
-92.3147
11
120.699
21
-92.3193
0
LINE
8
BLACK
6
CONTINUOUS
10
120.699
20
-92.3193
11
120.699
21
-92.3195
0
LINE
8
BLACK
6
CONTINUOUS
10
120.699
20
-92.3195
11
120.699
21
-92.3196
0
LINE
8
BLACK
6
CONTINUOUS
10
120.699
20
-92.3196
11
120.7
21
-92.3243
0
LINE
8
BLACK
6
CONTINUOUS
10
120.7
20
-92.3243
11
120.7
21
-92.329
0
LINE
8
BLACK
6
CONTINUOUS
10
120.7
20
-92.329
11
120.7
21
-92.964
0
LINE
8
BLACK
6
CONTINUOUS
10
120.7
20
-92.964
11
120.7
21
-92.9643
0
LINE
8
BLACK
6
CONTINUOUS
10
120.7
20
-92.9643
11
120.7
21
-92.9643
0
LINE
8
BLACK
6
CONTINUOUS
10
120.7
20
-92.9643
11
120.7
21
-92.9644
0
LINE
8
BLACK
6
CONTINUOUS
10
120.7
20
-92.9644
11
120.7
21
-92.9647
0
LINE
8
BLACK
6
CONTINUOUS
10
120.7
20
-92.9647
11
120.699
21
-92.9693
0
LINE
8
BLACK
6
CONTINUOUS
10
120.699
20
-92.9693
11
120.699
21
-92.9741
0
LINE
8
BLACK
6
CONTINUOUS
10
120.699
20
-92.9741
11
120.699
21
-92.9742
0
LINE
8
BLACK
6
CONTINUOUS
10
120.699
20
-92.9742
11
120.699
21
-92.9744
0
LINE
8
BLACK
6
CONTINUOUS
10
120.699
20
-92.9744
11
120.697
21
-92.9789
0
LINE
8
BLACK
6
CONTINUOUS
10
120.697
20
-92.9789
11
120.696
21
-92.9834
0
LINE
8
BLACK
6
CONTINUOUS
10
120.696
20
-92.9834
11
120.696
21
-92.9835
0
LINE
8
BLACK
6
CONTINUOUS
10
120.696
20
-92.9835
11
120.696
21
-92.9837
0
LINE
8
BLACK
6
CONTINUOUS
10
120.696
20
-92.9837
11
120.694
21
-92.9878
0
LINE
8
BLACK
6
CONTINUOUS
10
120.694
20
-92.9878
11
120.691
21
-92.992
0
LINE
8
BLACK
6
CONTINUOUS
10
120.691
20
-92.992
11
120.691
21
-92.9921
0
LINE
8
BLACK
6
CONTINUOUS
10
120.691
20
-92.9921
11
120.691
21
-92.9922
0
LINE
8
BLACK
6
CONTINUOUS
10
120.691
20
-92.9922
11
120.688
21
-92.9958
0
LINE
8
BLACK
6
CONTINUOUS
10
120.688
20
-92.9958
11
120.685
21
-92.9995
0
LINE
8
BLACK
6
CONTINUOUS
10
120.685
20
-92.9995
11
120.685
21
-92.9996
0
LINE
8
BLACK
6
CONTINUOUS
10
120.685
20
-92.9996
11
120.685
21
-92.9997
0
LINE
8
BLACK
6
CONTINUOUS
10
120.685
20
-92.9997
11
120.681
21
-93.0026
0
LINE
8
BLACK
6
CONTINUOUS
10
120.681
20
-93.0026
11
120.678
21
-93.0056
0
LINE
8
BLACK
6
CONTINUOUS
10
120.678
20
-93.0056
11
120.678
21
-93.0057
0
LINE
8
BLACK
6
CONTINUOUS
10
120.678
20
-93.0057
11
120.677
21
-93.0058
0
LINE
8
BLACK
6
CONTINUOUS
10
120.677
20
-93.0058
11
120.673
21
-93.008
0
LINE
8
BLACK
6
CONTINUOUS
10
120.673
20
-93.008
11
120.669
21
-93.0102
0
LINE
8
BLACK
6
CONTINUOUS
10
120.669
20
-93.0102
11
120.669
21
-93.0103
0
LINE
8
BLACK
6
CONTINUOUS
10
120.669
20
-93.0103
11
120.669
21
-93.0104
0
LINE
8
BLACK
6
CONTINUOUS
10
120.669
20
-93.0104
11
120.664
21
-93.0117
0
LINE
8
BLACK
6
CONTINUOUS
10
120.664
20
-93.0117
11
120.66
21
-93.013
0
LINE
8
BLACK
6
CONTINUOUS
10
120.66
20
-93.013
11
120.66
21
-93.0131
0
LINE
8
BLACK
6
CONTINUOUS
10
120.66
20
-93.0131
11
120.659
21
-93.0131
0
LINE
8
BLACK
6
CONTINUOUS
10
120.659
20
-93.0131
11
120.655
21
-93.0135
0
LINE
8
BLACK
6
CONTINUOUS
10
120.655
20
-93.0135
11
120.65
21
-93.014
0
LINE
8
BLACK
6
CONTINUOUS
10
120.65
20
-93.014
11
120.015
21
-93.014
0
LINE
8
BLACK
6
CONTINUOUS
10
120.015
20
-93.014
11
120.015
21
-93.014
0
LINE
8
BLACK
6
CONTINUOUS
10
120.015
20
-93.014
11
120.015
21
-93.014
0
LINE
8
BLACK
6
CONTINUOUS
10
120.015
20
-93.014
11
120.015
21
-93.014
0
LINE
8
BLACK
6
CONTINUOUS
10
120.015
20
-93.014
11
120.014
21
-93.014
0
LINE
8
BLACK
6
CONTINUOUS
10
120.014
20
-93.014
11
120.01
21
-93.0135
0
LINE
8
BLACK
6
CONTINUOUS
10
120.01
20
-93.0135
11
120.005
21
-93.013
0
LINE
8
BLACK
6
CONTINUOUS
10
120.005
20
-93.013
11
120.005
21
-93.0129
0
LINE
8
BLACK
6
CONTINUOUS
10
120.005
20
-93.0129
11
120.005
21
-93.0129
0
LINE
8
BLACK
6
CONTINUOUS
10
120.005
20
-93.0129
11
120
21
-93.0115
0
LINE
8
BLACK
6
CONTINUOUS
10
120
20
-93.0115
11
119.996
21
-93.0101
0
LINE
8
BLACK
6
CONTINUOUS
10
119.996
20
-93.0101
11
119.995
21
-93.01
0
LINE
8
BLACK
6
CONTINUOUS
10
119.995
20
-93.01
11
119.995
21
-93.01
0
LINE
8
BLACK
6
CONTINUOUS
10
119.995
20
-93.01
11
119.991
21
-93.0077
0
LINE
8
BLACK
6
CONTINUOUS
10
119.991
20
-93.0077
11
119.987
21
-93.0055
0
LINE
8
BLACK
6
CONTINUOUS
10
119.987
20
-93.0055
11
119.987
21
-93.0053
0
LINE
8
BLACK
6
CONTINUOUS
10
119.987
20
-93.0053
11
119.987
21
-93.0053
0
LINE
8
BLACK
6
CONTINUOUS
10
119.987
20
-93.0053
11
119.983
21
-93.0023
0
LINE
8
BLACK
6
CONTINUOUS
10
119.983
20
-93.0023
11
119.98
21
-92.9992
0
LINE
8
BLACK
6
CONTINUOUS
10
119.98
20
-92.9992
11
119.979
21
-92.9991
0
LINE
8
BLACK
6
CONTINUOUS
10
119.979
20
-92.9991
11
119.979
21
-92.999
0
LINE
8
BLACK
6
CONTINUOUS
10
119.979
20
-92.999
11
119.976
21
-92.9954
0
LINE
8
BLACK
6
CONTINUOUS
10
119.976
20
-92.9954
11
119.973
21
-92.9917
0
LINE
8
BLACK
6
CONTINUOUS
10
119.973
20
-92.9917
11
119.973
21
-92.9915
0
LINE
8
BLACK
6
CONTINUOUS
10
119.973
20
-92.9915
11
119.973
21
-92.9914
0
LINE
8
BLACK
6
CONTINUOUS
10
119.973
20
-92.9914
11
119.971
21
-92.9873
0
LINE
8
BLACK
6
CONTINUOUS
10
119.971
20
-92.9873
11
119.969
21
-92.9831
0
LINE
8
BLACK
6
CONTINUOUS
10
119.969
20
-92.9831
11
119.969
21
-92.9829
0
LINE
8
BLACK
6
CONTINUOUS
10
119.969
20
-92.9829
11
119.969
21
-92.9827
0
LINE
8
BLACK
6
CONTINUOUS
10
119.969
20
-92.9827
11
119.967
21
-92.9783
0
LINE
8
BLACK
6
CONTINUOUS
10
119.967
20
-92.9783
11
119.966
21
-92.9737
0
LINE
8
BLACK
6
CONTINUOUS
10
119.966
20
-92.9737
11
119.966
21
-92.9735
0
LINE
8
BLACK
6
CONTINUOUS
10
119.966
20
-92.9735
11
119.966
21
-92.9734
0
LINE
8
BLACK
6
CONTINUOUS
10
119.966
20
-92.9734
11
119.965
21
-92.9687
0
LINE
8
BLACK
6
CONTINUOUS
10
119.965
20
-92.9687
11
119.965
21
-92.964
0
LINE
8
BLACK
6
CONTINUOUS
10
119.965
20
-92.964
11
119.965
21
-92.329
0
LINE
8
BLACK
6
CONTINUOUS
10
119.965
20
-92.329
11
119.965
21
-92.3287
0
LINE
8
BLACK
6
CONTINUOUS
10
119.965
20
-92.3287
11
119.965
21
-92.3287
0
LINE
8
BLACK
6
CONTINUOUS
10
119.965
20
-92.3287
11
119.965
21
-92.3286
0
LINE
8
BLACK
6
CONTINUOUS
10
119.965
20
-92.3286
11
119.965
21
-92.3283
0
LINE
8
BLACK
6
CONTINUOUS
10
119.965
20
-92.3283
11
119.966
21
-92.3237
0
LINE
8
BLACK
6
CONTINUOUS
10
119.966
20
-92.3237
11
119.966
21
-92.3189
0
LINE
8
BLACK
6
CONTINUOUS
10
119.966
20
-92.3189
11
119.966
21
-92.3188
0
LINE
8
BLACK
6
CONTINUOUS
10
119.966
20
-92.3188
11
119.966
21
-92.3186
0
LINE
8
BLACK
6
CONTINUOUS
10
119.966
20
-92.3186
11
119.968
21
-92.3141
0
LINE
8
BLACK
6
CONTINUOUS
10
119.968
20
-92.3141
11
119.969
21
-92.3096
0
LINE
8
BLACK
6
CONTINUOUS
10
119.969
20
-92.3096
11
119.969
21
-92.3095
0
LINE
8
BLACK
6
CONTINUOUS
10
119.969
20
-92.3095
11
119.969
21
-92.3093
0
LINE
8
BLACK
6
CONTINUOUS
10
119.969
20
-92.3093
11
119.971
21
-92.3052
0
LINE
8
BLACK
6
CONTINUOUS
10
119.971
20
-92.3052
11
119.974
21
-92.301
0
LINE
8
BLACK
6
CONTINUOUS
10
119.974
20
-92.301
11
119.974
21
-92.3009
0
LINE
8
BLACK
6
CONTINUOUS
10
119.974
20
-92.3009
11
119.974
21
-92.3008
0
LINE
8
BLACK
6
CONTINUOUS
10
119.974
20
-92.3008
11
119.977
21
-92.2972
0
LINE
8
BLACK
6
CONTINUOUS
10
119.977
20
-92.2972
11
119.98
21
-92.2935
0
LINE
8
BLACK
6
CONTINUOUS
10
119.98
20
-92.2935
11
119.98
21
-92.2934
0
LINE
8
BLACK
6
CONTINUOUS
10
119.98
20
-92.2934
11
119.98
21
-92.2933
0
LINE
8
BLACK
6
CONTINUOUS
10
119.98
20
-92.2933
11
119.984
21
-92.2904
0
LINE
8
BLACK
6
CONTINUOUS
10
119.984
20
-92.2904
11
119.987
21
-92.2874
0
LINE
8
BLACK
6
CONTINUOUS
10
119.987
20
-92.2874
11
119.987
21
-92.2873
0
LINE
8
BLACK
6
CONTINUOUS
10
119.987
20
-92.2873
11
119.988
21
-92.2872
0
LINE
8
BLACK
6
CONTINUOUS
10
119.988
20
-92.2872
11
119.992
21
-92.285
0
LINE
8
BLACK
6
CONTINUOUS
10
119.992
20
-92.285
11
119.996
21
-92.2828
0
LINE
8
BLACK
6
CONTINUOUS
10
119.996
20
-92.2828
11
119.996
21
-92.2827
0
LINE
8
BLACK
6
CONTINUOUS
10
119.996
20
-92.2827
11
119.996
21
-92.2826
0
LINE
8
BLACK
6
CONTINUOUS
10
119.996
20
-92.2826
11
120.001
21
-92.2813
0
LINE
8
BLACK
6
CONTINUOUS
10
120.001
20
-92.2813
11
120.005
21
-92.28
0
LINE
8
BLACK
6
CONTINUOUS
10
120.005
20
-92.28
11
120.005
21
-92.2799
0
LINE
8
BLACK
6
CONTINUOUS
10
120.005
20
-92.2799
11
120.006
21
-92.2799
0
LINE
8
BLACK
6
CONTINUOUS
10
120.006
20
-92.2799
11
120.01
21
-92.2795
0
LINE
8
BLACK
6
CONTINUOUS
10
120.01
20
-92.2795
11
120.015
21
-92.279
0
LINE
8
BLACK
6
CONTINUOUS
10
120.015
20
-92.279
11
120.65
21
-92.279
0
LINE
8
BLACK
6
CONTINUOUS
10
120.65
20
-92.279
11
120.65
21
-92.279
0
LINE
8
BLACK
6
CONTINUOUS
10
139.692
20
-72.4816
11
140.083
21
-72.6437
0
LINE
8
BLACK
6
CONTINUOUS
10
140.083
20
-72.6437
11
140.436
21
-72.879
0
LINE
8
BLACK
6
CONTINUOUS
10
140.436
20
-72.879
11
140.735
21
-73.1785
0
LINE
8
BLACK
6
CONTINUOUS
10
140.735
20
-73.1785
11
140.97
21
-73.5306
0
LINE
8
BLACK
6
CONTINUOUS
10
140.97
20
-73.5306
11
141.132
21
-73.9219
0
LINE
8
BLACK
6
CONTINUOUS
10
141.132
20
-73.9219
11
141.215
21
-74.3372
0
LINE
8
BLACK
6
CONTINUOUS
10
141.215
20
-74.3372
11
141.215
21
-74.7608
0
LINE
8
BLACK
6
CONTINUOUS
10
141.215
20
-74.7608
11
141.132
21
-75.1761
0
LINE
8
BLACK
6
CONTINUOUS
10
141.132
20
-75.1761
11
140.97
21
-75.5674
0
LINE
8
BLACK
6
CONTINUOUS
10
140.97
20
-75.5674
11
140.735
21
-75.9195
0
LINE
8
BLACK
6
CONTINUOUS
10
140.735
20
-75.9195
11
140.436
21
-76.219
0
LINE
8
BLACK
6
CONTINUOUS
10
140.436
20
-76.219
11
140.083
21
-76.4543
0
LINE
8
BLACK
6
CONTINUOUS
10
140.083
20
-76.4543
11
139.692
21
-76.6164
0
LINE
8
BLACK
6
CONTINUOUS
10
139.692
20
-76.6164
11
139.277
21
-76.699
0
LINE
8
BLACK
6
CONTINUOUS
10
139.277
20
-76.699
11
138.853
21
-76.699
0
LINE
8
BLACK
6
CONTINUOUS
10
138.853
20
-76.699
11
138.438
21
-76.6164
0
LINE
8
BLACK
6
CONTINUOUS
10
138.438
20
-76.6164
11
138.047
21
-76.4543
0
LINE
8
BLACK
6
CONTINUOUS
10
138.047
20
-76.4543
11
137.694
21
-76.219
0
LINE
8
BLACK
6
CONTINUOUS
10
137.694
20
-76.219
11
137.395
21
-75.9195
0
LINE
8
BLACK
6
CONTINUOUS
10
137.395
20
-75.9195
11
137.16
21
-75.5674
0
LINE
8
BLACK
6
CONTINUOUS
10
137.16
20
-75.5674
11
136.998
21
-75.1761
0
LINE
8
BLACK
6
CONTINUOUS
10
136.998
20
-75.1761
11
136.915
21
-74.7608
0
LINE
8
BLACK
6
CONTINUOUS
10
136.915
20
-74.7608
11
136.915
21
-74.3372
0
LINE
8
BLACK
6
CONTINUOUS
10
136.915
20
-74.3372
11
136.998
21
-73.9219
0
LINE
8
BLACK
6
CONTINUOUS
10
136.998
20
-73.9219
11
137.16
21
-73.5306
0
LINE
8
BLACK
6
CONTINUOUS
10
137.16
20
-73.5306
11
137.395
21
-73.1785
0
LINE
8
BLACK
6
CONTINUOUS
10
137.395
20
-73.1785
11
137.694
21
-72.879
0
LINE
8
BLACK
6
CONTINUOUS
10
137.694
20
-72.879
11
138.047
21
-72.6437
0
LINE
8
BLACK
6
CONTINUOUS
10
138.047
20
-72.6437
11
138.438
21
-72.4816
0
LINE
8
BLACK
6
CONTINUOUS
10
138.438
20
-72.4816
11
138.853
21
-72.399
0
LINE
8
BLACK
6
CONTINUOUS
10
138.853
20
-72.399
11
139.277
21
-72.399
0
LINE
8
BLACK
6
CONTINUOUS
10
139.277
20
-72.399
11
139.692
21
-72.4816
0
LINE
8
BLACK
6
CONTINUOUS
10
127.754
20
-72.4816
11
128.145
21
-72.6437
0
LINE
8
BLACK
6
CONTINUOUS
10
128.145
20
-72.6437
11
128.498
21
-72.879
0
LINE
8
BLACK
6
CONTINUOUS
10
128.498
20
-72.879
11
128.797
21
-73.1785
0
LINE
8
BLACK
6
CONTINUOUS
10
128.797
20
-73.1785
11
129.032
21
-73.5306
0
LINE
8
BLACK
6
CONTINUOUS
10
129.032
20
-73.5306
11
129.194
21
-73.9219
0
LINE
8
BLACK
6
CONTINUOUS
10
129.194
20
-73.9219
11
129.277
21
-74.3372
0
LINE
8
BLACK
6
CONTINUOUS
10
129.277
20
-74.3372
11
129.277
21
-74.7608
0
LINE
8
BLACK
6
CONTINUOUS
10
129.277
20
-74.7608
11
129.194
21
-75.1761
0
LINE
8
BLACK
6
CONTINUOUS
10
129.194
20
-75.1761
11
129.032
21
-75.5674
0
LINE
8
BLACK
6
CONTINUOUS
10
129.032
20
-75.5674
11
128.797
21
-75.9195
0
LINE
8
BLACK
6
CONTINUOUS
10
128.797
20
-75.9195
11
128.498
21
-76.219
0
LINE
8
BLACK
6
CONTINUOUS
10
128.498
20
-76.219
11
128.145
21
-76.4543
0
LINE
8
BLACK
6
CONTINUOUS
10
128.145
20
-76.4543
11
127.754
21
-76.6164
0
LINE
8
BLACK
6
CONTINUOUS
10
127.754
20
-76.6164
11
127.339
21
-76.699
0
LINE
8
BLACK
6
CONTINUOUS
10
127.339
20
-76.699
11
126.915
21
-76.699
0
LINE
8
BLACK
6
CONTINUOUS
10
126.915
20
-76.699
11
126.5
21
-76.6164
0
LINE
8
BLACK
6
CONTINUOUS
10
126.5
20
-76.6164
11
126.109
21
-76.4543
0
LINE
8
BLACK
6
CONTINUOUS
10
126.109
20
-76.4543
11
125.756
21
-76.219
0
LINE
8
BLACK
6
CONTINUOUS
10
125.756
20
-76.219
11
125.457
21
-75.9195
0
LINE
8
BLACK
6
CONTINUOUS
10
125.457
20
-75.9195
11
125.222
21
-75.5674
0
LINE
8
BLACK
6
CONTINUOUS
10
125.222
20
-75.5674
11
125.06
21
-75.1761
0
LINE
8
BLACK
6
CONTINUOUS
10
125.06
20
-75.1761
11
124.977
21
-74.7608
0
LINE
8
BLACK
6
CONTINUOUS
10
124.977
20
-74.7608
11
124.977
21
-74.3372
0
LINE
8
BLACK
6
CONTINUOUS
10
124.977
20
-74.3372
11
125.06
21
-73.9219
0
LINE
8
BLACK
6
CONTINUOUS
10
125.06
20
-73.9219
11
125.222
21
-73.5306
0
LINE
8
BLACK
6
CONTINUOUS
10
125.222
20
-73.5306
11
125.457
21
-73.1785
0
LINE
8
BLACK
6
CONTINUOUS
10
125.457
20
-73.1785
11
125.756
21
-72.879
0
LINE
8
BLACK
6
CONTINUOUS
10
125.756
20
-72.879
11
126.109
21
-72.6437
0
LINE
8
BLACK
6
CONTINUOUS
10
126.109
20
-72.6437
11
126.5
21
-72.4816
0
LINE
8
BLACK
6
CONTINUOUS
10
126.5
20
-72.4816
11
126.915
21
-72.399
0
LINE
8
BLACK
6
CONTINUOUS
10
126.915
20
-72.399
11
127.339
21
-72.399
0
LINE
8
BLACK
6
CONTINUOUS
10
127.339
20
-72.399
11
127.754
21
-72.4816
0
LINE
8
BLACK
6
CONTINUOUS
10
115.816
20
-72.4816
11
116.207
21
-72.6437
0
LINE
8
BLACK
6
CONTINUOUS
10
116.207
20
-72.6437
11
116.56
21
-72.879
0
LINE
8
BLACK
6
CONTINUOUS
10
116.56
20
-72.879
11
116.859
21
-73.1785
0
LINE
8
BLACK
6
CONTINUOUS
10
116.859
20
-73.1785
11
117.094
21
-73.5306
0
LINE
8
BLACK
6
CONTINUOUS
10
117.094
20
-73.5306
11
117.256
21
-73.9219
0
LINE
8
BLACK
6
CONTINUOUS
10
117.256
20
-73.9219
11
117.339
21
-74.3372
0
LINE
8
BLACK
6
CONTINUOUS
10
117.339
20
-74.3372
11
117.339
21
-74.7608
0
LINE
8
BLACK
6
CONTINUOUS
10
117.339
20
-74.7608
11
117.256
21
-75.1761
0
LINE
8
BLACK
6
CONTINUOUS
10
117.256
20
-75.1761
11
117.094
21
-75.5674
0
LINE
8
BLACK
6
CONTINUOUS
10
117.094
20
-75.5674
11
116.859
21
-75.9195
0
LINE
8
BLACK
6
CONTINUOUS
10
116.859
20
-75.9195
11
116.56
21
-76.219
0
LINE
8
BLACK
6
CONTINUOUS
10
116.56
20
-76.219
11
116.207
21
-76.4543
0
LINE
8
BLACK
6
CONTINUOUS
10
116.207
20
-76.4543
11
115.816
21
-76.6164
0
LINE
8
BLACK
6
CONTINUOUS
10
115.816
20
-76.6164
11
115.401
21
-76.699
0
LINE
8
BLACK
6
CONTINUOUS
10
115.401
20
-76.699
11
114.977
21
-76.699
0
LINE
8
BLACK
6
CONTINUOUS
10
114.977
20
-76.699
11
114.562
21
-76.6164
0
LINE
8
BLACK
6
CONTINUOUS
10
114.562
20
-76.6164
11
114.171
21
-76.4543
0
LINE
8
BLACK
6
CONTINUOUS
10
114.171
20
-76.4543
11
113.818
21
-76.219
0
LINE
8
BLACK
6
CONTINUOUS
10
113.818
20
-76.219
11
113.519
21
-75.9195
0
LINE
8
BLACK
6
CONTINUOUS
10
113.519
20
-75.9195
11
113.284
21
-75.5674
0
LINE
8
BLACK
6
CONTINUOUS
10
113.284
20
-75.5674
11
113.122
21
-75.1761
0
LINE
8
BLACK
6
CONTINUOUS
10
113.122
20
-75.1761
11
113.039
21
-74.7608
0
LINE
8
BLACK
6
CONTINUOUS
10
113.039
20
-74.7608
11
113.039
21
-74.3372
0
LINE
8
BLACK
6
CONTINUOUS
10
113.039
20
-74.3372
11
113.122
21
-73.9219
0
LINE
8
BLACK
6
CONTINUOUS
10
113.122
20
-73.9219
11
113.284
21
-73.5306
0
LINE
8
BLACK
6
CONTINUOUS
10
113.284
20
-73.5306
11
113.519
21
-73.1785
0
LINE
8
BLACK
6
CONTINUOUS
10
113.519
20
-73.1785
11
113.818
21
-72.879
0
LINE
8
BLACK
6
CONTINUOUS
10
113.818
20
-72.879
11
114.171
21
-72.6437
0
LINE
8
BLACK
6
CONTINUOUS
10
114.171
20
-72.6437
11
114.562
21
-72.4816
0
LINE
8
BLACK
6
CONTINUOUS
10
114.562
20
-72.4816
11
114.977
21
-72.399
0
LINE
8
BLACK
6
CONTINUOUS
10
114.977
20
-72.399
11
115.401
21
-72.399
0
LINE
8
BLACK
6
CONTINUOUS
10
115.401
20
-72.399
11
115.816
21
-72.4816
  0
ENDSEC
  0
EOF
