%TF.GenerationSoftware,KiCad,Pcbnew,(5.1.12)-1*%
%TF.CreationDate,2021-12-10T07:52:41+00:00*%
%TF.ProjectId,RGBtoHDMI Amiga Denise CPLD FFC - CDTV Video Slot - Face Plate,52474274-6f48-4444-9d49-20416d696761,1*%
%TF.SameCoordinates,Original*%
%TF.FileFunction,Copper,L2,Bot*%
%TF.FilePolarity,Positive*%
%FSLAX46Y46*%
G04 Gerber Fmt 4.6, Leading zero omitted, Abs format (unit mm)*
G04 Created by KiCad (PCBNEW (5.1.12)-1) date 2021-12-10 07:52:41*
%MOMM*%
%LPD*%
G01*
G04 APERTURE LIST*
%TA.AperFunction,NonConductor*%
%ADD10C,0.254000*%
%TD*%
%TA.AperFunction,NonConductor*%
%ADD11C,0.100000*%
%TD*%
G04 APERTURE END LIST*
D10*
X168592900Y-61276461D02*
X168592901Y-98747990D01*
X167717240Y-99593800D01*
X71254209Y-99593800D01*
X70408400Y-98718140D01*
X70408400Y-94940589D01*
X87528600Y-94940589D01*
X87528600Y-95330811D01*
X87604729Y-95713536D01*
X87754061Y-96074055D01*
X87970857Y-96398514D01*
X88246786Y-96674443D01*
X88571245Y-96891239D01*
X88931764Y-97040571D01*
X89314489Y-97116700D01*
X89704711Y-97116700D01*
X90087436Y-97040571D01*
X90447955Y-96891239D01*
X90772414Y-96674443D01*
X91048343Y-96398514D01*
X91265139Y-96074055D01*
X91414471Y-95713536D01*
X91490600Y-95330811D01*
X91490600Y-94978689D01*
X147498000Y-94978689D01*
X147498000Y-95368911D01*
X147574129Y-95751636D01*
X147723461Y-96112155D01*
X147940257Y-96436614D01*
X148216186Y-96712543D01*
X148540645Y-96929339D01*
X148901164Y-97078671D01*
X149283889Y-97154800D01*
X149674111Y-97154800D01*
X150056836Y-97078671D01*
X150417355Y-96929339D01*
X150741814Y-96712543D01*
X151017743Y-96436614D01*
X151234539Y-96112155D01*
X151383871Y-95751636D01*
X151460000Y-95368911D01*
X151460000Y-94978689D01*
X151383871Y-94595964D01*
X151234539Y-94235445D01*
X151017743Y-93910986D01*
X150741814Y-93635057D01*
X150417355Y-93418261D01*
X150056836Y-93268929D01*
X149674111Y-93192800D01*
X149283889Y-93192800D01*
X148901164Y-93268929D01*
X148540645Y-93418261D01*
X148216186Y-93635057D01*
X147940257Y-93910986D01*
X147723461Y-94235445D01*
X147574129Y-94595964D01*
X147498000Y-94978689D01*
X91490600Y-94978689D01*
X91490600Y-94940589D01*
X91414471Y-94557864D01*
X91265139Y-94197345D01*
X91048343Y-93872886D01*
X90772414Y-93596957D01*
X90447955Y-93380161D01*
X90087436Y-93230829D01*
X89704711Y-93154700D01*
X89314489Y-93154700D01*
X88931764Y-93230829D01*
X88571245Y-93380161D01*
X88246786Y-93596957D01*
X87970857Y-93872886D01*
X87754061Y-94197345D01*
X87604729Y-94557864D01*
X87528600Y-94940589D01*
X70408400Y-94940589D01*
X70408400Y-75234800D01*
X90524036Y-75234800D01*
X90526001Y-75254751D01*
X90526000Y-82453867D01*
X90524037Y-82473800D01*
X90526000Y-82493733D01*
X90526000Y-82493740D01*
X90531875Y-82553389D01*
X90555090Y-82629920D01*
X90592790Y-82700452D01*
X90643526Y-82762274D01*
X90659024Y-82774993D01*
X92027816Y-84143786D01*
X92040526Y-84159274D01*
X92102347Y-84210010D01*
X92172879Y-84247710D01*
X92226194Y-84263883D01*
X92249409Y-84270925D01*
X92256904Y-84271663D01*
X92309059Y-84276800D01*
X92309066Y-84276800D01*
X92328999Y-84278763D01*
X92348932Y-84276800D01*
X103476212Y-84276800D01*
X103487280Y-84278378D01*
X103516095Y-84276800D01*
X103524941Y-84276800D01*
X103536018Y-84275709D01*
X103567134Y-84274005D01*
X103575746Y-84271796D01*
X103584590Y-84270925D01*
X103614417Y-84261877D01*
X103644602Y-84254135D01*
X103652612Y-84250291D01*
X103661121Y-84247710D01*
X103688626Y-84233008D01*
X103716704Y-84219534D01*
X103723807Y-84214204D01*
X103731653Y-84210010D01*
X103755758Y-84190227D01*
X103764644Y-84183559D01*
X103771150Y-84177595D01*
X103793474Y-84159274D01*
X103800573Y-84150624D01*
X105295162Y-82780586D01*
X105317474Y-82762274D01*
X105337243Y-82738186D01*
X105358044Y-82714974D01*
X105362570Y-82707325D01*
X105368210Y-82700453D01*
X105382903Y-82672965D01*
X105398772Y-82646147D01*
X105401719Y-82637762D01*
X105405910Y-82629921D01*
X105414958Y-82600095D01*
X105425290Y-82570696D01*
X105426544Y-82561897D01*
X105429125Y-82553390D01*
X105432181Y-82522361D01*
X105436578Y-82491521D01*
X105435000Y-82462712D01*
X105435000Y-75254741D01*
X105436964Y-75234800D01*
X105429125Y-75155210D01*
X105405910Y-75078679D01*
X105368210Y-75008147D01*
X105317474Y-74946326D01*
X105255653Y-74895590D01*
X105185121Y-74857890D01*
X105108590Y-74834675D01*
X105048941Y-74828800D01*
X105048940Y-74828800D01*
X105029000Y-74826836D01*
X105009059Y-74828800D01*
X90951941Y-74828800D01*
X90932000Y-74826836D01*
X90912060Y-74828800D01*
X90912059Y-74828800D01*
X90852410Y-74834675D01*
X90775879Y-74857890D01*
X90705347Y-74895590D01*
X90643526Y-74946326D01*
X90592790Y-75008147D01*
X90555090Y-75078679D01*
X90531875Y-75155210D01*
X90524036Y-75234800D01*
X70408400Y-75234800D01*
X70408400Y-74299718D01*
X112658000Y-74299718D01*
X112658000Y-74798282D01*
X112755265Y-75287265D01*
X112946057Y-75747878D01*
X113223044Y-76162418D01*
X113575582Y-76514956D01*
X113990122Y-76791943D01*
X114450735Y-76982735D01*
X114939718Y-77080000D01*
X115438282Y-77080000D01*
X115927265Y-76982735D01*
X116387878Y-76791943D01*
X116802418Y-76514956D01*
X117154956Y-76162418D01*
X117431943Y-75747878D01*
X117622735Y-75287265D01*
X117720000Y-74798282D01*
X117720000Y-74299718D01*
X124596000Y-74299718D01*
X124596000Y-74798282D01*
X124693265Y-75287265D01*
X124884057Y-75747878D01*
X125161044Y-76162418D01*
X125513582Y-76514956D01*
X125928122Y-76791943D01*
X126388735Y-76982735D01*
X126877718Y-77080000D01*
X127376282Y-77080000D01*
X127865265Y-76982735D01*
X128325878Y-76791943D01*
X128740418Y-76514956D01*
X129092956Y-76162418D01*
X129369943Y-75747878D01*
X129560735Y-75287265D01*
X129658000Y-74798282D01*
X129658000Y-74299718D01*
X136534000Y-74299718D01*
X136534000Y-74798282D01*
X136631265Y-75287265D01*
X136822057Y-75747878D01*
X137099044Y-76162418D01*
X137451582Y-76514956D01*
X137866122Y-76791943D01*
X138326735Y-76982735D01*
X138815718Y-77080000D01*
X139314282Y-77080000D01*
X139803265Y-76982735D01*
X140263878Y-76791943D01*
X140678418Y-76514956D01*
X141030956Y-76162418D01*
X141307943Y-75747878D01*
X141498735Y-75287265D01*
X141596000Y-74798282D01*
X141596000Y-74299718D01*
X141498735Y-73810735D01*
X141307943Y-73350122D01*
X141030956Y-72935582D01*
X140678418Y-72583044D01*
X140263878Y-72306057D01*
X139803265Y-72115265D01*
X139314282Y-72018000D01*
X138815718Y-72018000D01*
X138326735Y-72115265D01*
X137866122Y-72306057D01*
X137451582Y-72583044D01*
X137099044Y-72935582D01*
X136822057Y-73350122D01*
X136631265Y-73810735D01*
X136534000Y-74299718D01*
X129658000Y-74299718D01*
X129560735Y-73810735D01*
X129369943Y-73350122D01*
X129092956Y-72935582D01*
X128740418Y-72583044D01*
X128325878Y-72306057D01*
X127865265Y-72115265D01*
X127376282Y-72018000D01*
X126877718Y-72018000D01*
X126388735Y-72115265D01*
X125928122Y-72306057D01*
X125513582Y-72583044D01*
X125161044Y-72935582D01*
X124884057Y-73350122D01*
X124693265Y-73810735D01*
X124596000Y-74299718D01*
X117720000Y-74299718D01*
X117622735Y-73810735D01*
X117431943Y-73350122D01*
X117154956Y-72935582D01*
X116802418Y-72583044D01*
X116387878Y-72306057D01*
X115927265Y-72115265D01*
X115438282Y-72018000D01*
X114939718Y-72018000D01*
X114450735Y-72115265D01*
X113990122Y-72306057D01*
X113575582Y-72583044D01*
X113223044Y-72935582D01*
X112946057Y-73350122D01*
X112755265Y-73810735D01*
X112658000Y-74299718D01*
X70408400Y-74299718D01*
X70408400Y-68808600D01*
X78586036Y-68808600D01*
X78588000Y-68828541D01*
X78588001Y-70388849D01*
X78586036Y-70408800D01*
X78593875Y-70488390D01*
X78617090Y-70564921D01*
X78654790Y-70635453D01*
X78705526Y-70697274D01*
X78767347Y-70748010D01*
X78837879Y-70785710D01*
X78914410Y-70808925D01*
X78974059Y-70814800D01*
X78974060Y-70814800D01*
X78994000Y-70816764D01*
X79013941Y-70814800D01*
X85120859Y-70814800D01*
X85140800Y-70816764D01*
X85160740Y-70814800D01*
X85160741Y-70814800D01*
X85220390Y-70808925D01*
X85296921Y-70785710D01*
X85367453Y-70748010D01*
X85429274Y-70697274D01*
X85480010Y-70635453D01*
X85517710Y-70564921D01*
X85526543Y-70535800D01*
X90905036Y-70535800D01*
X90907000Y-70555741D01*
X90907001Y-73055849D01*
X90905036Y-73075800D01*
X90912875Y-73155390D01*
X90936090Y-73231921D01*
X90973790Y-73302453D01*
X91024526Y-73364274D01*
X91086347Y-73415010D01*
X91156879Y-73452710D01*
X91233410Y-73475925D01*
X91293059Y-73481800D01*
X91293060Y-73481800D01*
X91313000Y-73483764D01*
X91332941Y-73481800D01*
X104628060Y-73481800D01*
X104648000Y-73483764D01*
X104727590Y-73475925D01*
X104804121Y-73452710D01*
X104874653Y-73415010D01*
X104936474Y-73364274D01*
X104987210Y-73302453D01*
X105024910Y-73231921D01*
X105048125Y-73155390D01*
X105054000Y-73095741D01*
X105055964Y-73075800D01*
X105054000Y-73055859D01*
X105054000Y-70555741D01*
X105055964Y-70535800D01*
X105048125Y-70456210D01*
X105024910Y-70379679D01*
X104987210Y-70309147D01*
X104936474Y-70247326D01*
X104874653Y-70196590D01*
X104804121Y-70158890D01*
X104727590Y-70135675D01*
X104667941Y-70129800D01*
X104667940Y-70129800D01*
X104648000Y-70127836D01*
X104628059Y-70129800D01*
X91332940Y-70129800D01*
X91313000Y-70127836D01*
X91293059Y-70129800D01*
X91233410Y-70135675D01*
X91156879Y-70158890D01*
X91086347Y-70196590D01*
X91024526Y-70247326D01*
X90973790Y-70309147D01*
X90936090Y-70379679D01*
X90912875Y-70456210D01*
X90905036Y-70535800D01*
X85526543Y-70535800D01*
X85540925Y-70488390D01*
X85548764Y-70408800D01*
X85546800Y-70388859D01*
X85546800Y-68828541D01*
X85548764Y-68808600D01*
X85540925Y-68729010D01*
X85517710Y-68652479D01*
X85480010Y-68581947D01*
X85429274Y-68520126D01*
X85367453Y-68469390D01*
X85296921Y-68431690D01*
X85220390Y-68408475D01*
X85160741Y-68402600D01*
X85140800Y-68400636D01*
X85120860Y-68402600D01*
X79013940Y-68402600D01*
X78994000Y-68400636D01*
X78974059Y-68402600D01*
X78914410Y-68408475D01*
X78837879Y-68431690D01*
X78767347Y-68469390D01*
X78705526Y-68520126D01*
X78654790Y-68581947D01*
X78617090Y-68652479D01*
X78593875Y-68729010D01*
X78586036Y-68808600D01*
X70408400Y-68808600D01*
X70408400Y-66725800D01*
X90917736Y-66725800D01*
X90919700Y-66745741D01*
X90919701Y-68712449D01*
X90917736Y-68732400D01*
X90925575Y-68811990D01*
X90948790Y-68888521D01*
X90986490Y-68959053D01*
X91037226Y-69020874D01*
X91099047Y-69071610D01*
X91169579Y-69109310D01*
X91246110Y-69132525D01*
X91305759Y-69138400D01*
X91305760Y-69138400D01*
X91325700Y-69140364D01*
X91345641Y-69138400D01*
X96296859Y-69138400D01*
X96316800Y-69140364D01*
X96336740Y-69138400D01*
X96336741Y-69138400D01*
X96396390Y-69132525D01*
X96472921Y-69109310D01*
X96543453Y-69071610D01*
X96605274Y-69020874D01*
X96656010Y-68959053D01*
X96693710Y-68888521D01*
X96716925Y-68811990D01*
X96724764Y-68732400D01*
X96722800Y-68712459D01*
X96722800Y-66745741D01*
X96723513Y-66738500D01*
X99287036Y-66738500D01*
X99289000Y-66758441D01*
X99289001Y-68725149D01*
X99287036Y-68745100D01*
X99294875Y-68824690D01*
X99318090Y-68901221D01*
X99355790Y-68971753D01*
X99406526Y-69033574D01*
X99468347Y-69084310D01*
X99538879Y-69122010D01*
X99615410Y-69145225D01*
X99675059Y-69151100D01*
X99675060Y-69151100D01*
X99695000Y-69153064D01*
X99714941Y-69151100D01*
X104678859Y-69151100D01*
X104698800Y-69153064D01*
X104718740Y-69151100D01*
X104718741Y-69151100D01*
X104778390Y-69145225D01*
X104854921Y-69122010D01*
X104925453Y-69084310D01*
X104987274Y-69033574D01*
X105038010Y-68971753D01*
X105075710Y-68901221D01*
X105098925Y-68824690D01*
X105101760Y-68795900D01*
X150518836Y-68795900D01*
X150520800Y-68815841D01*
X150520801Y-70376149D01*
X150518836Y-70396100D01*
X150526675Y-70475690D01*
X150549890Y-70552221D01*
X150587590Y-70622753D01*
X150638326Y-70684574D01*
X150700147Y-70735310D01*
X150770679Y-70773010D01*
X150847210Y-70796225D01*
X150906859Y-70802100D01*
X150906860Y-70802100D01*
X150926800Y-70804064D01*
X150946741Y-70802100D01*
X157066359Y-70802100D01*
X157086300Y-70804064D01*
X157106240Y-70802100D01*
X157106241Y-70802100D01*
X157165890Y-70796225D01*
X157242421Y-70773010D01*
X157312953Y-70735310D01*
X157374774Y-70684574D01*
X157425510Y-70622753D01*
X157463210Y-70552221D01*
X157486425Y-70475690D01*
X157494264Y-70396100D01*
X157492300Y-70376159D01*
X157492300Y-68815841D01*
X157494264Y-68795900D01*
X157486425Y-68716310D01*
X157463210Y-68639779D01*
X157425510Y-68569247D01*
X157374774Y-68507426D01*
X157312953Y-68456690D01*
X157242421Y-68418990D01*
X157165890Y-68395775D01*
X157106241Y-68389900D01*
X157086300Y-68387936D01*
X157066360Y-68389900D01*
X150946740Y-68389900D01*
X150926800Y-68387936D01*
X150906859Y-68389900D01*
X150847210Y-68395775D01*
X150770679Y-68418990D01*
X150700147Y-68456690D01*
X150638326Y-68507426D01*
X150587590Y-68569247D01*
X150549890Y-68639779D01*
X150526675Y-68716310D01*
X150518836Y-68795900D01*
X105101760Y-68795900D01*
X105106764Y-68745100D01*
X105104800Y-68725159D01*
X105104800Y-66758441D01*
X105106764Y-66738500D01*
X105098925Y-66658910D01*
X105075710Y-66582379D01*
X105038010Y-66511847D01*
X104987274Y-66450026D01*
X104925453Y-66399290D01*
X104854921Y-66361590D01*
X104778390Y-66338375D01*
X104718741Y-66332500D01*
X104698800Y-66330536D01*
X104678860Y-66332500D01*
X99714940Y-66332500D01*
X99695000Y-66330536D01*
X99675059Y-66332500D01*
X99615410Y-66338375D01*
X99538879Y-66361590D01*
X99468347Y-66399290D01*
X99406526Y-66450026D01*
X99355790Y-66511847D01*
X99318090Y-66582379D01*
X99294875Y-66658910D01*
X99287036Y-66738500D01*
X96723513Y-66738500D01*
X96724764Y-66725800D01*
X96716925Y-66646210D01*
X96693710Y-66569679D01*
X96656010Y-66499147D01*
X96605274Y-66437326D01*
X96543453Y-66386590D01*
X96472921Y-66348890D01*
X96396390Y-66325675D01*
X96336741Y-66319800D01*
X96316800Y-66317836D01*
X96296860Y-66319800D01*
X91345640Y-66319800D01*
X91325700Y-66317836D01*
X91305759Y-66319800D01*
X91246110Y-66325675D01*
X91169579Y-66348890D01*
X91099047Y-66386590D01*
X91037226Y-66437326D01*
X90986490Y-66499147D01*
X90948790Y-66569679D01*
X90925575Y-66646210D01*
X90917736Y-66725800D01*
X70408400Y-66725800D01*
X70408400Y-61259308D01*
X71284084Y-60413478D01*
X167747113Y-60400822D01*
X168592900Y-61276461D01*
%TA.AperFunction,NonConductor*%
D11*
G36*
X168592900Y-61276461D02*
G01*
X168592901Y-98747990D01*
X167717240Y-99593800D01*
X71254209Y-99593800D01*
X70408400Y-98718140D01*
X70408400Y-94940589D01*
X87528600Y-94940589D01*
X87528600Y-95330811D01*
X87604729Y-95713536D01*
X87754061Y-96074055D01*
X87970857Y-96398514D01*
X88246786Y-96674443D01*
X88571245Y-96891239D01*
X88931764Y-97040571D01*
X89314489Y-97116700D01*
X89704711Y-97116700D01*
X90087436Y-97040571D01*
X90447955Y-96891239D01*
X90772414Y-96674443D01*
X91048343Y-96398514D01*
X91265139Y-96074055D01*
X91414471Y-95713536D01*
X91490600Y-95330811D01*
X91490600Y-94978689D01*
X147498000Y-94978689D01*
X147498000Y-95368911D01*
X147574129Y-95751636D01*
X147723461Y-96112155D01*
X147940257Y-96436614D01*
X148216186Y-96712543D01*
X148540645Y-96929339D01*
X148901164Y-97078671D01*
X149283889Y-97154800D01*
X149674111Y-97154800D01*
X150056836Y-97078671D01*
X150417355Y-96929339D01*
X150741814Y-96712543D01*
X151017743Y-96436614D01*
X151234539Y-96112155D01*
X151383871Y-95751636D01*
X151460000Y-95368911D01*
X151460000Y-94978689D01*
X151383871Y-94595964D01*
X151234539Y-94235445D01*
X151017743Y-93910986D01*
X150741814Y-93635057D01*
X150417355Y-93418261D01*
X150056836Y-93268929D01*
X149674111Y-93192800D01*
X149283889Y-93192800D01*
X148901164Y-93268929D01*
X148540645Y-93418261D01*
X148216186Y-93635057D01*
X147940257Y-93910986D01*
X147723461Y-94235445D01*
X147574129Y-94595964D01*
X147498000Y-94978689D01*
X91490600Y-94978689D01*
X91490600Y-94940589D01*
X91414471Y-94557864D01*
X91265139Y-94197345D01*
X91048343Y-93872886D01*
X90772414Y-93596957D01*
X90447955Y-93380161D01*
X90087436Y-93230829D01*
X89704711Y-93154700D01*
X89314489Y-93154700D01*
X88931764Y-93230829D01*
X88571245Y-93380161D01*
X88246786Y-93596957D01*
X87970857Y-93872886D01*
X87754061Y-94197345D01*
X87604729Y-94557864D01*
X87528600Y-94940589D01*
X70408400Y-94940589D01*
X70408400Y-75234800D01*
X90524036Y-75234800D01*
X90526001Y-75254751D01*
X90526000Y-82453867D01*
X90524037Y-82473800D01*
X90526000Y-82493733D01*
X90526000Y-82493740D01*
X90531875Y-82553389D01*
X90555090Y-82629920D01*
X90592790Y-82700452D01*
X90643526Y-82762274D01*
X90659024Y-82774993D01*
X92027816Y-84143786D01*
X92040526Y-84159274D01*
X92102347Y-84210010D01*
X92172879Y-84247710D01*
X92226194Y-84263883D01*
X92249409Y-84270925D01*
X92256904Y-84271663D01*
X92309059Y-84276800D01*
X92309066Y-84276800D01*
X92328999Y-84278763D01*
X92348932Y-84276800D01*
X103476212Y-84276800D01*
X103487280Y-84278378D01*
X103516095Y-84276800D01*
X103524941Y-84276800D01*
X103536018Y-84275709D01*
X103567134Y-84274005D01*
X103575746Y-84271796D01*
X103584590Y-84270925D01*
X103614417Y-84261877D01*
X103644602Y-84254135D01*
X103652612Y-84250291D01*
X103661121Y-84247710D01*
X103688626Y-84233008D01*
X103716704Y-84219534D01*
X103723807Y-84214204D01*
X103731653Y-84210010D01*
X103755758Y-84190227D01*
X103764644Y-84183559D01*
X103771150Y-84177595D01*
X103793474Y-84159274D01*
X103800573Y-84150624D01*
X105295162Y-82780586D01*
X105317474Y-82762274D01*
X105337243Y-82738186D01*
X105358044Y-82714974D01*
X105362570Y-82707325D01*
X105368210Y-82700453D01*
X105382903Y-82672965D01*
X105398772Y-82646147D01*
X105401719Y-82637762D01*
X105405910Y-82629921D01*
X105414958Y-82600095D01*
X105425290Y-82570696D01*
X105426544Y-82561897D01*
X105429125Y-82553390D01*
X105432181Y-82522361D01*
X105436578Y-82491521D01*
X105435000Y-82462712D01*
X105435000Y-75254741D01*
X105436964Y-75234800D01*
X105429125Y-75155210D01*
X105405910Y-75078679D01*
X105368210Y-75008147D01*
X105317474Y-74946326D01*
X105255653Y-74895590D01*
X105185121Y-74857890D01*
X105108590Y-74834675D01*
X105048941Y-74828800D01*
X105048940Y-74828800D01*
X105029000Y-74826836D01*
X105009059Y-74828800D01*
X90951941Y-74828800D01*
X90932000Y-74826836D01*
X90912060Y-74828800D01*
X90912059Y-74828800D01*
X90852410Y-74834675D01*
X90775879Y-74857890D01*
X90705347Y-74895590D01*
X90643526Y-74946326D01*
X90592790Y-75008147D01*
X90555090Y-75078679D01*
X90531875Y-75155210D01*
X90524036Y-75234800D01*
X70408400Y-75234800D01*
X70408400Y-74299718D01*
X112658000Y-74299718D01*
X112658000Y-74798282D01*
X112755265Y-75287265D01*
X112946057Y-75747878D01*
X113223044Y-76162418D01*
X113575582Y-76514956D01*
X113990122Y-76791943D01*
X114450735Y-76982735D01*
X114939718Y-77080000D01*
X115438282Y-77080000D01*
X115927265Y-76982735D01*
X116387878Y-76791943D01*
X116802418Y-76514956D01*
X117154956Y-76162418D01*
X117431943Y-75747878D01*
X117622735Y-75287265D01*
X117720000Y-74798282D01*
X117720000Y-74299718D01*
X124596000Y-74299718D01*
X124596000Y-74798282D01*
X124693265Y-75287265D01*
X124884057Y-75747878D01*
X125161044Y-76162418D01*
X125513582Y-76514956D01*
X125928122Y-76791943D01*
X126388735Y-76982735D01*
X126877718Y-77080000D01*
X127376282Y-77080000D01*
X127865265Y-76982735D01*
X128325878Y-76791943D01*
X128740418Y-76514956D01*
X129092956Y-76162418D01*
X129369943Y-75747878D01*
X129560735Y-75287265D01*
X129658000Y-74798282D01*
X129658000Y-74299718D01*
X136534000Y-74299718D01*
X136534000Y-74798282D01*
X136631265Y-75287265D01*
X136822057Y-75747878D01*
X137099044Y-76162418D01*
X137451582Y-76514956D01*
X137866122Y-76791943D01*
X138326735Y-76982735D01*
X138815718Y-77080000D01*
X139314282Y-77080000D01*
X139803265Y-76982735D01*
X140263878Y-76791943D01*
X140678418Y-76514956D01*
X141030956Y-76162418D01*
X141307943Y-75747878D01*
X141498735Y-75287265D01*
X141596000Y-74798282D01*
X141596000Y-74299718D01*
X141498735Y-73810735D01*
X141307943Y-73350122D01*
X141030956Y-72935582D01*
X140678418Y-72583044D01*
X140263878Y-72306057D01*
X139803265Y-72115265D01*
X139314282Y-72018000D01*
X138815718Y-72018000D01*
X138326735Y-72115265D01*
X137866122Y-72306057D01*
X137451582Y-72583044D01*
X137099044Y-72935582D01*
X136822057Y-73350122D01*
X136631265Y-73810735D01*
X136534000Y-74299718D01*
X129658000Y-74299718D01*
X129560735Y-73810735D01*
X129369943Y-73350122D01*
X129092956Y-72935582D01*
X128740418Y-72583044D01*
X128325878Y-72306057D01*
X127865265Y-72115265D01*
X127376282Y-72018000D01*
X126877718Y-72018000D01*
X126388735Y-72115265D01*
X125928122Y-72306057D01*
X125513582Y-72583044D01*
X125161044Y-72935582D01*
X124884057Y-73350122D01*
X124693265Y-73810735D01*
X124596000Y-74299718D01*
X117720000Y-74299718D01*
X117622735Y-73810735D01*
X117431943Y-73350122D01*
X117154956Y-72935582D01*
X116802418Y-72583044D01*
X116387878Y-72306057D01*
X115927265Y-72115265D01*
X115438282Y-72018000D01*
X114939718Y-72018000D01*
X114450735Y-72115265D01*
X113990122Y-72306057D01*
X113575582Y-72583044D01*
X113223044Y-72935582D01*
X112946057Y-73350122D01*
X112755265Y-73810735D01*
X112658000Y-74299718D01*
X70408400Y-74299718D01*
X70408400Y-68808600D01*
X78586036Y-68808600D01*
X78588000Y-68828541D01*
X78588001Y-70388849D01*
X78586036Y-70408800D01*
X78593875Y-70488390D01*
X78617090Y-70564921D01*
X78654790Y-70635453D01*
X78705526Y-70697274D01*
X78767347Y-70748010D01*
X78837879Y-70785710D01*
X78914410Y-70808925D01*
X78974059Y-70814800D01*
X78974060Y-70814800D01*
X78994000Y-70816764D01*
X79013941Y-70814800D01*
X85120859Y-70814800D01*
X85140800Y-70816764D01*
X85160740Y-70814800D01*
X85160741Y-70814800D01*
X85220390Y-70808925D01*
X85296921Y-70785710D01*
X85367453Y-70748010D01*
X85429274Y-70697274D01*
X85480010Y-70635453D01*
X85517710Y-70564921D01*
X85526543Y-70535800D01*
X90905036Y-70535800D01*
X90907000Y-70555741D01*
X90907001Y-73055849D01*
X90905036Y-73075800D01*
X90912875Y-73155390D01*
X90936090Y-73231921D01*
X90973790Y-73302453D01*
X91024526Y-73364274D01*
X91086347Y-73415010D01*
X91156879Y-73452710D01*
X91233410Y-73475925D01*
X91293059Y-73481800D01*
X91293060Y-73481800D01*
X91313000Y-73483764D01*
X91332941Y-73481800D01*
X104628060Y-73481800D01*
X104648000Y-73483764D01*
X104727590Y-73475925D01*
X104804121Y-73452710D01*
X104874653Y-73415010D01*
X104936474Y-73364274D01*
X104987210Y-73302453D01*
X105024910Y-73231921D01*
X105048125Y-73155390D01*
X105054000Y-73095741D01*
X105055964Y-73075800D01*
X105054000Y-73055859D01*
X105054000Y-70555741D01*
X105055964Y-70535800D01*
X105048125Y-70456210D01*
X105024910Y-70379679D01*
X104987210Y-70309147D01*
X104936474Y-70247326D01*
X104874653Y-70196590D01*
X104804121Y-70158890D01*
X104727590Y-70135675D01*
X104667941Y-70129800D01*
X104667940Y-70129800D01*
X104648000Y-70127836D01*
X104628059Y-70129800D01*
X91332940Y-70129800D01*
X91313000Y-70127836D01*
X91293059Y-70129800D01*
X91233410Y-70135675D01*
X91156879Y-70158890D01*
X91086347Y-70196590D01*
X91024526Y-70247326D01*
X90973790Y-70309147D01*
X90936090Y-70379679D01*
X90912875Y-70456210D01*
X90905036Y-70535800D01*
X85526543Y-70535800D01*
X85540925Y-70488390D01*
X85548764Y-70408800D01*
X85546800Y-70388859D01*
X85546800Y-68828541D01*
X85548764Y-68808600D01*
X85540925Y-68729010D01*
X85517710Y-68652479D01*
X85480010Y-68581947D01*
X85429274Y-68520126D01*
X85367453Y-68469390D01*
X85296921Y-68431690D01*
X85220390Y-68408475D01*
X85160741Y-68402600D01*
X85140800Y-68400636D01*
X85120860Y-68402600D01*
X79013940Y-68402600D01*
X78994000Y-68400636D01*
X78974059Y-68402600D01*
X78914410Y-68408475D01*
X78837879Y-68431690D01*
X78767347Y-68469390D01*
X78705526Y-68520126D01*
X78654790Y-68581947D01*
X78617090Y-68652479D01*
X78593875Y-68729010D01*
X78586036Y-68808600D01*
X70408400Y-68808600D01*
X70408400Y-66725800D01*
X90917736Y-66725800D01*
X90919700Y-66745741D01*
X90919701Y-68712449D01*
X90917736Y-68732400D01*
X90925575Y-68811990D01*
X90948790Y-68888521D01*
X90986490Y-68959053D01*
X91037226Y-69020874D01*
X91099047Y-69071610D01*
X91169579Y-69109310D01*
X91246110Y-69132525D01*
X91305759Y-69138400D01*
X91305760Y-69138400D01*
X91325700Y-69140364D01*
X91345641Y-69138400D01*
X96296859Y-69138400D01*
X96316800Y-69140364D01*
X96336740Y-69138400D01*
X96336741Y-69138400D01*
X96396390Y-69132525D01*
X96472921Y-69109310D01*
X96543453Y-69071610D01*
X96605274Y-69020874D01*
X96656010Y-68959053D01*
X96693710Y-68888521D01*
X96716925Y-68811990D01*
X96724764Y-68732400D01*
X96722800Y-68712459D01*
X96722800Y-66745741D01*
X96723513Y-66738500D01*
X99287036Y-66738500D01*
X99289000Y-66758441D01*
X99289001Y-68725149D01*
X99287036Y-68745100D01*
X99294875Y-68824690D01*
X99318090Y-68901221D01*
X99355790Y-68971753D01*
X99406526Y-69033574D01*
X99468347Y-69084310D01*
X99538879Y-69122010D01*
X99615410Y-69145225D01*
X99675059Y-69151100D01*
X99675060Y-69151100D01*
X99695000Y-69153064D01*
X99714941Y-69151100D01*
X104678859Y-69151100D01*
X104698800Y-69153064D01*
X104718740Y-69151100D01*
X104718741Y-69151100D01*
X104778390Y-69145225D01*
X104854921Y-69122010D01*
X104925453Y-69084310D01*
X104987274Y-69033574D01*
X105038010Y-68971753D01*
X105075710Y-68901221D01*
X105098925Y-68824690D01*
X105101760Y-68795900D01*
X150518836Y-68795900D01*
X150520800Y-68815841D01*
X150520801Y-70376149D01*
X150518836Y-70396100D01*
X150526675Y-70475690D01*
X150549890Y-70552221D01*
X150587590Y-70622753D01*
X150638326Y-70684574D01*
X150700147Y-70735310D01*
X150770679Y-70773010D01*
X150847210Y-70796225D01*
X150906859Y-70802100D01*
X150906860Y-70802100D01*
X150926800Y-70804064D01*
X150946741Y-70802100D01*
X157066359Y-70802100D01*
X157086300Y-70804064D01*
X157106240Y-70802100D01*
X157106241Y-70802100D01*
X157165890Y-70796225D01*
X157242421Y-70773010D01*
X157312953Y-70735310D01*
X157374774Y-70684574D01*
X157425510Y-70622753D01*
X157463210Y-70552221D01*
X157486425Y-70475690D01*
X157494264Y-70396100D01*
X157492300Y-70376159D01*
X157492300Y-68815841D01*
X157494264Y-68795900D01*
X157486425Y-68716310D01*
X157463210Y-68639779D01*
X157425510Y-68569247D01*
X157374774Y-68507426D01*
X157312953Y-68456690D01*
X157242421Y-68418990D01*
X157165890Y-68395775D01*
X157106241Y-68389900D01*
X157086300Y-68387936D01*
X157066360Y-68389900D01*
X150946740Y-68389900D01*
X150926800Y-68387936D01*
X150906859Y-68389900D01*
X150847210Y-68395775D01*
X150770679Y-68418990D01*
X150700147Y-68456690D01*
X150638326Y-68507426D01*
X150587590Y-68569247D01*
X150549890Y-68639779D01*
X150526675Y-68716310D01*
X150518836Y-68795900D01*
X105101760Y-68795900D01*
X105106764Y-68745100D01*
X105104800Y-68725159D01*
X105104800Y-66758441D01*
X105106764Y-66738500D01*
X105098925Y-66658910D01*
X105075710Y-66582379D01*
X105038010Y-66511847D01*
X104987274Y-66450026D01*
X104925453Y-66399290D01*
X104854921Y-66361590D01*
X104778390Y-66338375D01*
X104718741Y-66332500D01*
X104698800Y-66330536D01*
X104678860Y-66332500D01*
X99714940Y-66332500D01*
X99695000Y-66330536D01*
X99675059Y-66332500D01*
X99615410Y-66338375D01*
X99538879Y-66361590D01*
X99468347Y-66399290D01*
X99406526Y-66450026D01*
X99355790Y-66511847D01*
X99318090Y-66582379D01*
X99294875Y-66658910D01*
X99287036Y-66738500D01*
X96723513Y-66738500D01*
X96724764Y-66725800D01*
X96716925Y-66646210D01*
X96693710Y-66569679D01*
X96656010Y-66499147D01*
X96605274Y-66437326D01*
X96543453Y-66386590D01*
X96472921Y-66348890D01*
X96396390Y-66325675D01*
X96336741Y-66319800D01*
X96316800Y-66317836D01*
X96296860Y-66319800D01*
X91345640Y-66319800D01*
X91325700Y-66317836D01*
X91305759Y-66319800D01*
X91246110Y-66325675D01*
X91169579Y-66348890D01*
X91099047Y-66386590D01*
X91037226Y-66437326D01*
X90986490Y-66499147D01*
X90948790Y-66569679D01*
X90925575Y-66646210D01*
X90917736Y-66725800D01*
X70408400Y-66725800D01*
X70408400Y-61259308D01*
X71284084Y-60413478D01*
X167747113Y-60400822D01*
X168592900Y-61276461D01*
G37*
%TD.AperFunction*%
M02*
