  0
SECTION
  2
HEADER
  9
$ANGBASE
  50
0.0
  9
$ANGDIR
  70
1
  9
$MEASUREMENT
  70
1
  0
ENDSEC
  0
SECTION
  2
TABLES
  0
TABLE
  2
LTYPE
  70
4
  0
LTYPE
  5
40F
  2
CONTINUOUS
  70
0
  3
Solid line
  72
65
  73
0
  40
0.0
  0
LTYPE
  5
410
  2
DASHDOT
 70
0
  3
Dash Dot ____ _ ____ _
 72
65
 73
4
 40
2.0
 49
1.25
 49
-0.25
 49
0.25
 49
-0.25
  0
LTYPE
  5
411
  2
DASHED
 70
0
  3
Dashed __ __ __ __ __
 72
65
 73
2
 40
0.75
 49
0.5
 49
-0.25
  0
LTYPE
  5
43B
  2
DOTTED
 70
0
  3
Dotted .  .  .  .
 72
65
 73
2
 40
0.2
 49
0.0
 49
-0.2
  0
ENDTAB
  0
TABLE
  2
STYLE
  70
4
  0
STYLE
  2
KICAD
  70
0
  40
0
  41
1
  42
1
  50
0
  71
0
  3
isocp.shx
  0
STYLE
  2
KICADB
  70
0
  40
0
  41
1
  42
1
  50
0
  71
0
  3
isocp.shx
  0
STYLE
  2
KICADI
  70
0
  40
0
  41
1
  42
1
  50
15
  71
0
  3
isocp.shx
  0
STYLE
  2
KICADBI
  70
0
  40
0
  41
1
  42
1
  50
15
  71
0
  3
isocp.shx
  0
ENDTAB
  0
TABLE
  2
LAYER
  70
1
  0
LAYER
  2
BLACK
  70
0
  62
7
  6
CONTINUOUS
  0
ENDTAB
  0
ENDSEC
  0
SECTION
  2
ENTITIES
0
LINE
8
BLACK
6
CONTINUOUS
10
167.922
20
-59.9699
11
167.924
21
-59.9702
0
LINE
8
BLACK
6
CONTINUOUS
10
167.924
20
-59.9702
11
167.925
21
-59.9702
0
LINE
8
BLACK
6
CONTINUOUS
10
167.925
20
-59.9702
11
167.925
21
-59.9703
0
LINE
8
BLACK
6
CONTINUOUS
10
167.925
20
-59.9703
11
167.927
21
-59.9709
0
LINE
8
BLACK
6
CONTINUOUS
10
167.927
20
-59.9709
11
167.929
21
-59.9716
0
LINE
8
BLACK
6
CONTINUOUS
10
167.929
20
-59.9716
11
167.929
21
-59.9717
0
LINE
8
BLACK
6
CONTINUOUS
10
167.929
20
-59.9717
11
167.929
21
-59.9718
0
LINE
8
BLACK
6
CONTINUOUS
10
167.929
20
-59.9718
11
167.931
21
-59.9728
0
LINE
8
BLACK
6
CONTINUOUS
10
167.931
20
-59.9728
11
167.933
21
-59.9739
0
LINE
8
BLACK
6
CONTINUOUS
10
167.933
20
-59.9739
11
167.934
21
-59.9741
0
LINE
8
BLACK
6
CONTINUOUS
10
167.934
20
-59.9741
11
167.934
21
-59.9742
0
LINE
8
BLACK
6
CONTINUOUS
10
167.934
20
-59.9742
11
167.935
21
-59.9756
0
LINE
8
BLACK
6
CONTINUOUS
10
167.935
20
-59.9756
11
167.937
21
-59.977
0
LINE
8
BLACK
6
CONTINUOUS
10
167.937
20
-59.977
11
167.938
21
-59.9782
0
LINE
8
BLACK
6
CONTINUOUS
10
167.938
20
-59.9782
11
169.016
21
-61.094
0
LINE
8
BLACK
6
CONTINUOUS
10
169.016
20
-61.094
11
169.017
21
-61.0946
0
LINE
8
BLACK
6
CONTINUOUS
10
169.017
20
-61.0946
11
169.018
21
-61.0958
0
LINE
8
BLACK
6
CONTINUOUS
10
169.018
20
-61.0958
11
169.018
21
-61.0959
0
LINE
8
BLACK
6
CONTINUOUS
10
169.018
20
-61.0959
11
169.018
21
-61.0967
0
LINE
8
BLACK
6
CONTINUOUS
10
169.018
20
-61.0967
11
169.02
21
-61.0984
0
LINE
8
BLACK
6
CONTINUOUS
10
169.02
20
-61.0984
11
169.02
21
-61.0986
0
LINE
8
BLACK
6
CONTINUOUS
10
169.02
20
-61.0986
11
169.02
21
-61.0988
0
LINE
8
BLACK
6
CONTINUOUS
10
169.02
20
-61.0988
11
169.021
21
-61.1008
0
LINE
8
BLACK
6
CONTINUOUS
10
169.021
20
-61.1008
11
169.022
21
-61.1028
0
LINE
8
BLACK
6
CONTINUOUS
10
169.022
20
-61.1028
11
169.022
21
-61.103
0
LINE
8
BLACK
6
CONTINUOUS
10
169.022
20
-61.103
11
169.022
21
-61.1032
0
LINE
8
BLACK
6
CONTINUOUS
10
169.022
20
-61.1032
11
169.023
21
-61.1054
0
LINE
8
BLACK
6
CONTINUOUS
10
169.023
20
-61.1054
11
169.024
21
-61.1075
0
LINE
8
BLACK
6
CONTINUOUS
10
169.024
20
-61.1075
11
169.024
21
-61.1077
0
LINE
8
BLACK
6
CONTINUOUS
10
169.024
20
-61.1077
11
169.024
21
-61.1079
0
LINE
8
BLACK
6
CONTINUOUS
10
169.024
20
-61.1079
11
169.024
21
-61.1102
0
LINE
8
BLACK
6
CONTINUOUS
10
169.024
20
-61.1102
11
169.024
21
-61.1112
0
LINE
8
BLACK
6
CONTINUOUS
10
169.024
20
-61.1112
11
169.024
21
-61.1114
0
LINE
8
BLACK
6
CONTINUOUS
10
169.024
20
-61.1114
11
169.024
21
-61.1128
0
LINE
8
BLACK
6
CONTINUOUS
10
169.024
20
-61.1128
11
169.024
21
-61.1138
0
LINE
8
BLACK
6
CONTINUOUS
10
169.024
20
-61.1138
11
169.024
21
-98.9193
0
LINE
8
BLACK
6
CONTINUOUS
10
169.024
20
-98.9193
11
169.024
21
-98.9207
0
LINE
8
BLACK
6
CONTINUOUS
10
169.024
20
-98.9207
11
169.024
21
-98.923
0
LINE
8
BLACK
6
CONTINUOUS
10
169.024
20
-98.923
11
169.024
21
-98.9252
0
LINE
8
BLACK
6
CONTINUOUS
10
169.024
20
-98.9252
11
169.023
21
-98.9254
0
LINE
8
BLACK
6
CONTINUOUS
10
169.023
20
-98.9254
11
169.023
21
-98.9256
0
LINE
8
BLACK
6
CONTINUOUS
10
169.023
20
-98.9256
11
169.023
21
-98.9278
0
LINE
8
BLACK
6
CONTINUOUS
10
169.023
20
-98.9278
11
169.022
21
-98.9299
0
LINE
8
BLACK
6
CONTINUOUS
10
169.022
20
-98.9299
11
169.022
21
-98.9301
0
LINE
8
BLACK
6
CONTINUOUS
10
169.022
20
-98.9301
11
169.022
21
-98.9303
0
LINE
8
BLACK
6
CONTINUOUS
10
169.022
20
-98.9303
11
169.021
21
-98.9322
0
LINE
8
BLACK
6
CONTINUOUS
10
169.021
20
-98.9322
11
169.02
21
-98.9343
0
LINE
8
BLACK
6
CONTINUOUS
10
169.02
20
-98.9343
11
169.02
21
-98.9344
0
LINE
8
BLACK
6
CONTINUOUS
10
169.02
20
-98.9344
11
169.02
21
-98.9346
0
LINE
8
BLACK
6
CONTINUOUS
10
169.02
20
-98.9346
11
169.018
21
-98.9363
0
LINE
8
BLACK
6
CONTINUOUS
10
169.018
20
-98.9363
11
169.017
21
-98.9381
0
LINE
8
BLACK
6
CONTINUOUS
10
169.017
20
-98.9381
11
169.016
21
-98.939
0
LINE
8
BLACK
6
CONTINUOUS
10
169.016
20
-98.939
11
167.9
21
-100.017
0
LINE
8
BLACK
6
CONTINUOUS
10
167.9
20
-100.017
11
167.899
21
-100.018
0
LINE
8
BLACK
6
CONTINUOUS
10
167.899
20
-100.018
11
167.898
21
-100.018
0
LINE
8
BLACK
6
CONTINUOUS
10
167.898
20
-100.018
11
167.898
21
-100.019
0
LINE
8
BLACK
6
CONTINUOUS
10
167.898
20
-100.019
11
167.897
21
-100.019
0
LINE
8
BLACK
6
CONTINUOUS
10
167.897
20
-100.019
11
167.895
21
-100.021
0
LINE
8
BLACK
6
CONTINUOUS
10
167.895
20
-100.021
11
167.895
21
-100.021
0
LINE
8
BLACK
6
CONTINUOUS
10
167.895
20
-100.021
11
167.895
21
-100.021
0
LINE
8
BLACK
6
CONTINUOUS
10
167.895
20
-100.021
11
167.893
21
-100.022
0
LINE
8
BLACK
6
CONTINUOUS
10
167.893
20
-100.022
11
167.891
21
-100.023
0
LINE
8
BLACK
6
CONTINUOUS
10
167.891
20
-100.023
11
167.891
21
-100.023
0
LINE
8
BLACK
6
CONTINUOUS
10
167.891
20
-100.023
11
167.891
21
-100.023
0
LINE
8
BLACK
6
CONTINUOUS
10
167.891
20
-100.023
11
167.888
21
-100.024
0
LINE
8
BLACK
6
CONTINUOUS
10
167.888
20
-100.024
11
167.886
21
-100.024
0
LINE
8
BLACK
6
CONTINUOUS
10
167.886
20
-100.024
11
167.886
21
-100.024
0
LINE
8
BLACK
6
CONTINUOUS
10
167.886
20
-100.024
11
167.886
21
-100.025
0
LINE
8
BLACK
6
CONTINUOUS
10
167.886
20
-100.025
11
167.884
21
-100.025
0
LINE
8
BLACK
6
CONTINUOUS
10
167.884
20
-100.025
11
167.883
21
-100.025
0
LINE
8
BLACK
6
CONTINUOUS
10
167.883
20
-100.025
11
167.882
21
-100.025
0
LINE
8
BLACK
6
CONTINUOUS
10
167.882
20
-100.025
11
167.881
21
-100.025
0
LINE
8
BLACK
6
CONTINUOUS
10
167.881
20
-100.025
11
167.88
21
-100.025
0
LINE
8
BLACK
6
CONTINUOUS
10
167.88
20
-100.025
11
71.0829
21
-100.025
0
LINE
8
BLACK
6
CONTINUOUS
10
71.0829
20
-100.025
11
71.0815
21
-100.025
0
LINE
8
BLACK
6
CONTINUOUS
10
71.0815
20
-100.025
11
71.0792
21
-100.025
0
LINE
8
BLACK
6
CONTINUOUS
10
71.0792
20
-100.025
11
71.077
21
-100.024
0
LINE
8
BLACK
6
CONTINUOUS
10
71.077
20
-100.024
11
71.0768
21
-100.024
0
LINE
8
BLACK
6
CONTINUOUS
10
71.0768
20
-100.024
11
71.0766
21
-100.024
0
LINE
8
BLACK
6
CONTINUOUS
10
71.0766
20
-100.024
11
71.0744
21
-100.024
0
LINE
8
BLACK
6
CONTINUOUS
10
71.0744
20
-100.024
11
71.0723
21
-100.023
0
LINE
8
BLACK
6
CONTINUOUS
10
71.0723
20
-100.023
11
71.0721
21
-100.023
0
LINE
8
BLACK
6
CONTINUOUS
10
71.0721
20
-100.023
11
71.0719
21
-100.023
0
LINE
8
BLACK
6
CONTINUOUS
10
71.0719
20
-100.023
11
71.07
21
-100.022
0
LINE
8
BLACK
6
CONTINUOUS
10
71.07
20
-100.022
11
71.0679
21
-100.021
0
LINE
8
BLACK
6
CONTINUOUS
10
71.0679
20
-100.021
11
71.0678
21
-100.021
0
LINE
8
BLACK
6
CONTINUOUS
10
71.0678
20
-100.021
11
71.0676
21
-100.02
0
LINE
8
BLACK
6
CONTINUOUS
10
71.0676
20
-100.02
11
71.0659
21
-100.019
0
LINE
8
BLACK
6
CONTINUOUS
10
71.0659
20
-100.019
11
71.0641
21
-100.018
0
LINE
8
BLACK
6
CONTINUOUS
10
71.0641
20
-100.018
11
71.0632
21
-100.016
0
LINE
8
BLACK
6
CONTINUOUS
10
71.0632
20
-100.016
11
69.9854
21
-98.9006
0
LINE
8
BLACK
6
CONTINUOUS
10
69.9854
20
-98.9006
11
69.9846
21
-98.9
0
LINE
8
BLACK
6
CONTINUOUS
10
69.9846
20
-98.9
11
69.9837
21
-98.8988
0
LINE
8
BLACK
6
CONTINUOUS
10
69.9837
20
-98.8988
11
69.9836
21
-98.8987
0
LINE
8
BLACK
6
CONTINUOUS
10
69.9836
20
-98.8987
11
69.983
21
-98.8979
0
LINE
8
BLACK
6
CONTINUOUS
10
69.983
20
-98.8979
11
69.9815
21
-98.8962
0
LINE
8
BLACK
6
CONTINUOUS
10
69.9815
20
-98.8962
11
69.9814
21
-98.896
0
LINE
8
BLACK
6
CONTINUOUS
10
69.9814
20
-98.896
11
69.9813
21
-98.8958
0
LINE
8
BLACK
6
CONTINUOUS
10
69.9813
20
-98.8958
11
69.9802
21
-98.8938
0
LINE
8
BLACK
6
CONTINUOUS
10
69.9802
20
-98.8938
11
69.9792
21
-98.8918
0
LINE
8
BLACK
6
CONTINUOUS
10
69.9792
20
-98.8918
11
69.9791
21
-98.8916
0
LINE
8
BLACK
6
CONTINUOUS
10
69.9791
20
-98.8916
11
69.979
21
-98.8914
0
LINE
8
BLACK
6
CONTINUOUS
10
69.979
20
-98.8914
11
69.9784
21
-98.8892
0
LINE
8
BLACK
6
CONTINUOUS
10
69.9784
20
-98.8892
11
69.9778
21
-98.8871
0
LINE
8
BLACK
6
CONTINUOUS
10
69.9778
20
-98.8871
11
69.9777
21
-98.8869
0
LINE
8
BLACK
6
CONTINUOUS
10
69.9777
20
-98.8869
11
69.9777
21
-98.8867
0
LINE
8
BLACK
6
CONTINUOUS
10
69.9777
20
-98.8867
11
69.9775
21
-98.8844
0
LINE
8
BLACK
6
CONTINUOUS
10
69.9775
20
-98.8844
11
69.9774
21
-98.8834
0
LINE
8
BLACK
6
CONTINUOUS
10
69.9774
20
-98.8834
11
69.9774
21
-98.8832
0
LINE
8
BLACK
6
CONTINUOUS
10
69.9774
20
-98.8832
11
69.9773
21
-98.8818
0
LINE
8
BLACK
6
CONTINUOUS
10
69.9773
20
-98.8818
11
69.9774
21
-98.8808
0
LINE
8
BLACK
6
CONTINUOUS
10
69.9774
20
-98.8808
11
69.9774
21
-61.088
0
LINE
8
BLACK
6
CONTINUOUS
10
69.9774
20
-61.088
11
69.9773
21
-61.0866
0
LINE
8
BLACK
6
CONTINUOUS
10
69.9773
20
-61.0866
11
69.9775
21
-61.0843
0
LINE
8
BLACK
6
CONTINUOUS
10
69.9775
20
-61.0843
11
69.9778
21
-61.0821
0
LINE
8
BLACK
6
CONTINUOUS
10
69.9778
20
-61.0821
11
69.9778
21
-61.0819
0
LINE
8
BLACK
6
CONTINUOUS
10
69.9778
20
-61.0819
11
69.9779
21
-61.0817
0
LINE
8
BLACK
6
CONTINUOUS
10
69.9779
20
-61.0817
11
69.9785
21
-61.0795
0
LINE
8
BLACK
6
CONTINUOUS
10
69.9785
20
-61.0795
11
69.9792
21
-61.0774
0
LINE
8
BLACK
6
CONTINUOUS
10
69.9792
20
-61.0774
11
69.9793
21
-61.0772
0
LINE
8
BLACK
6
CONTINUOUS
10
69.9793
20
-61.0772
11
69.9794
21
-61.077
0
LINE
8
BLACK
6
CONTINUOUS
10
69.9794
20
-61.077
11
69.9804
21
-61.0751
0
LINE
8
BLACK
6
CONTINUOUS
10
69.9804
20
-61.0751
11
69.9815
21
-61.073
0
LINE
8
BLACK
6
CONTINUOUS
10
69.9815
20
-61.073
11
69.9817
21
-61.0729
0
LINE
8
BLACK
6
CONTINUOUS
10
69.9817
20
-61.0729
11
69.9818
21
-61.0727
0
LINE
8
BLACK
6
CONTINUOUS
10
69.9818
20
-61.0727
11
69.9832
21
-61.071
0
LINE
8
BLACK
6
CONTINUOUS
10
69.9832
20
-61.071
11
69.9846
21
-61.0692
0
LINE
8
BLACK
6
CONTINUOUS
10
69.9846
20
-61.0692
11
69.9858
21
-61.0683
0
LINE
8
BLACK
6
CONTINUOUS
10
69.9858
20
-61.0683
11
71.1016
21
-59.9905
0
LINE
8
BLACK
6
CONTINUOUS
10
71.1016
20
-59.9905
11
71.1022
21
-59.9897
0
LINE
8
BLACK
6
CONTINUOUS
10
71.1022
20
-59.9897
11
71.1033
21
-59.9888
0
LINE
8
BLACK
6
CONTINUOUS
10
71.1033
20
-59.9888
11
71.1035
21
-59.9887
0
LINE
8
BLACK
6
CONTINUOUS
10
71.1035
20
-59.9887
11
71.1043
21
-59.988
0
LINE
8
BLACK
6
CONTINUOUS
10
71.1043
20
-59.988
11
71.106
21
-59.9866
0
LINE
8
BLACK
6
CONTINUOUS
10
71.106
20
-59.9866
11
71.1062
21
-59.9865
0
LINE
8
BLACK
6
CONTINUOUS
10
71.1062
20
-59.9865
11
71.1064
21
-59.9864
0
LINE
8
BLACK
6
CONTINUOUS
10
71.1064
20
-59.9864
11
71.1084
21
-59.9853
0
LINE
8
BLACK
6
CONTINUOUS
10
71.1084
20
-59.9853
11
71.1104
21
-59.9843
0
LINE
8
BLACK
6
CONTINUOUS
10
71.1104
20
-59.9843
11
71.1106
21
-59.9842
0
LINE
8
BLACK
6
CONTINUOUS
10
71.1106
20
-59.9842
11
71.1108
21
-59.9841
0
LINE
8
BLACK
6
CONTINUOUS
10
71.1108
20
-59.9841
11
71.113
21
-59.9835
0
LINE
8
BLACK
6
CONTINUOUS
10
71.113
20
-59.9835
11
71.1151
21
-59.9829
0
LINE
8
BLACK
6
CONTINUOUS
10
71.1151
20
-59.9829
11
71.1153
21
-59.9828
0
LINE
8
BLACK
6
CONTINUOUS
10
71.1153
20
-59.9828
11
71.1155
21
-59.9828
0
LINE
8
BLACK
6
CONTINUOUS
10
71.1155
20
-59.9828
11
71.1178
21
-59.9826
0
LINE
8
BLACK
6
CONTINUOUS
10
71.1178
20
-59.9826
11
71.1188
21
-59.9825
0
LINE
8
BLACK
6
CONTINUOUS
10
71.1188
20
-59.9825
11
71.119
21
-59.9825
0
LINE
8
BLACK
6
CONTINUOUS
10
71.119
20
-59.9825
11
71.1204
21
-59.9824
0
LINE
8
BLACK
6
CONTINUOUS
10
71.1204
20
-59.9824
11
71.1214
21
-59.9825
0
LINE
8
BLACK
6
CONTINUOUS
10
71.1214
20
-59.9825
11
167.918
21
-59.9698
0
LINE
8
BLACK
6
CONTINUOUS
10
167.918
20
-59.9698
11
167.92
21
-59.9697
0
LINE
8
BLACK
6
CONTINUOUS
10
167.92
20
-59.9697
11
167.922
21
-59.9699
0
LINE
8
BLACK
6
CONTINUOUS
10
71.1301
20
-60.0325
11
70.0274
21
-61.0976
0
LINE
8
BLACK
6
CONTINUOUS
10
70.0274
20
-61.0976
11
70.0274
21
-98.8721
0
LINE
8
BLACK
6
CONTINUOUS
10
70.0274
20
-98.8721
11
71.0925
21
-99.9748
0
LINE
8
BLACK
6
CONTINUOUS
10
71.0925
20
-99.9748
11
167.871
21
-99.9748
0
LINE
8
BLACK
6
CONTINUOUS
10
167.871
20
-99.9748
11
168.974
21
-98.9097
0
LINE
8
BLACK
6
CONTINUOUS
10
168.974
20
-98.9097
11
168.974
21
-61.1225
0
LINE
8
BLACK
6
CONTINUOUS
10
168.974
20
-61.1225
11
167.909
21
-60.0198
0
LINE
8
BLACK
6
CONTINUOUS
10
167.909
20
-60.0198
11
71.1301
21
-60.0325
0
LINE
8
BLACK
6
CONTINUOUS
10
105.03
20
-75.2098
11
105.03
21
-75.2098
0
LINE
8
BLACK
6
CONTINUOUS
10
105.03
20
-75.2098
11
105.034
21
-75.2102
0
LINE
8
BLACK
6
CONTINUOUS
10
105.034
20
-75.2102
11
105.039
21
-75.2116
0
LINE
8
BLACK
6
CONTINUOUS
10
105.039
20
-75.2116
11
105.043
21
-75.2139
0
LINE
8
BLACK
6
CONTINUOUS
10
105.043
20
-75.2139
11
105.047
21
-75.217
0
LINE
8
BLACK
6
CONTINUOUS
10
105.047
20
-75.217
11
105.05
21
-75.2208
0
LINE
8
BLACK
6
CONTINUOUS
10
105.05
20
-75.2208
11
105.052
21
-75.2252
0
LINE
8
BLACK
6
CONTINUOUS
10
105.052
20
-75.2252
11
105.054
21
-75.2299
0
LINE
8
BLACK
6
CONTINUOUS
10
105.054
20
-75.2299
11
105.054
21
-75.2348
0
LINE
8
BLACK
6
CONTINUOUS
10
105.054
20
-75.2348
11
105.054
21
-75.236
0
LINE
8
BLACK
6
CONTINUOUS
10
105.054
20
-75.236
11
105.054
21
-82.4731
0
LINE
8
BLACK
6
CONTINUOUS
10
105.054
20
-82.4731
11
105.054
21
-82.4749
0
LINE
8
BLACK
6
CONTINUOUS
10
105.054
20
-82.4749
11
105.054
21
-82.4768
0
LINE
8
BLACK
6
CONTINUOUS
10
105.054
20
-82.4768
11
105.054
21
-82.4787
0
LINE
8
BLACK
6
CONTINUOUS
10
105.054
20
-82.4787
11
105.053
21
-82.4792
0
LINE
8
BLACK
6
CONTINUOUS
10
105.053
20
-82.4792
11
105.053
21
-82.4798
0
LINE
8
BLACK
6
CONTINUOUS
10
105.053
20
-82.4798
11
105.053
21
-82.4816
0
LINE
8
BLACK
6
CONTINUOUS
10
105.053
20
-82.4816
11
105.052
21
-82.4834
0
LINE
8
BLACK
6
CONTINUOUS
10
105.052
20
-82.4834
11
105.052
21
-82.4839
0
LINE
8
BLACK
6
CONTINUOUS
10
105.052
20
-82.4839
11
105.052
21
-82.4844
0
LINE
8
BLACK
6
CONTINUOUS
10
105.052
20
-82.4844
11
105.051
21
-82.4861
0
LINE
8
BLACK
6
CONTINUOUS
10
105.051
20
-82.4861
11
105.05
21
-82.4878
0
LINE
8
BLACK
6
CONTINUOUS
10
105.05
20
-82.4878
11
105.05
21
-82.4882
0
LINE
8
BLACK
6
CONTINUOUS
10
105.05
20
-82.4882
11
105.049
21
-82.4886
0
LINE
8
BLACK
6
CONTINUOUS
10
105.049
20
-82.4886
11
105.048
21
-82.4901
0
LINE
8
BLACK
6
CONTINUOUS
10
105.048
20
-82.4901
11
105.047
21
-82.4916
0
LINE
8
BLACK
6
CONTINUOUS
10
105.047
20
-82.4916
11
105.045
21
-82.4927
0
LINE
8
BLACK
6
CONTINUOUS
10
105.045
20
-82.4927
11
103.523
21
-83.888
0
LINE
8
BLACK
6
CONTINUOUS
10
103.523
20
-83.888
11
103.523
21
-83.8886
0
LINE
8
BLACK
6
CONTINUOUS
10
103.523
20
-83.8886
11
103.521
21
-83.8897
0
LINE
8
BLACK
6
CONTINUOUS
10
103.521
20
-83.8897
11
103.521
21
-83.8901
0
LINE
8
BLACK
6
CONTINUOUS
10
103.521
20
-83.8901
11
103.52
21
-83.8904
0
LINE
8
BLACK
6
CONTINUOUS
10
103.52
20
-83.8904
11
103.519
21
-83.8917
0
LINE
8
BLACK
6
CONTINUOUS
10
103.519
20
-83.8917
11
103.518
21
-83.8919
0
LINE
8
BLACK
6
CONTINUOUS
10
103.518
20
-83.8919
11
103.518
21
-83.8923
0
LINE
8
BLACK
6
CONTINUOUS
10
103.518
20
-83.8923
11
103.516
21
-83.8931
0
LINE
8
BLACK
6
CONTINUOUS
10
103.516
20
-83.8931
11
103.515
21
-83.894
0
LINE
8
BLACK
6
CONTINUOUS
10
103.515
20
-83.894
11
103.514
21
-83.8942
0
LINE
8
BLACK
6
CONTINUOUS
10
103.514
20
-83.8942
11
103.514
21
-83.8944
0
LINE
8
BLACK
6
CONTINUOUS
10
103.514
20
-83.8944
11
103.512
21
-83.8949
0
LINE
8
BLACK
6
CONTINUOUS
10
103.512
20
-83.8949
11
103.51
21
-83.8954
0
LINE
8
BLACK
6
CONTINUOUS
10
103.51
20
-83.8954
11
103.509
21
-83.8955
0
LINE
8
BLACK
6
CONTINUOUS
10
103.509
20
-83.8955
11
103.509
21
-83.8956
0
LINE
8
BLACK
6
CONTINUOUS
10
103.509
20
-83.8956
11
103.507
21
-83.8957
0
LINE
8
BLACK
6
CONTINUOUS
10
103.507
20
-83.8957
11
103.506
21
-83.8958
0
LINE
8
BLACK
6
CONTINUOUS
10
103.506
20
-83.8958
11
103.506
21
-83.8958
0
LINE
8
BLACK
6
CONTINUOUS
10
103.506
20
-83.8958
11
103.504
21
-83.8959
0
LINE
8
BLACK
6
CONTINUOUS
10
103.504
20
-83.8959
11
103.503
21
-83.8958
0
LINE
8
BLACK
6
CONTINUOUS
10
103.503
20
-83.8958
11
92.3302
21
-83.8958
0
LINE
8
BLACK
6
CONTINUOUS
10
92.3302
20
-83.8958
11
92.329
21
-83.8959
0
LINE
8
BLACK
6
CONTINUOUS
10
92.329
20
-83.8959
11
92.3241
21
-83.8954
0
LINE
8
BLACK
6
CONTINUOUS
10
92.3241
20
-83.8954
11
92.3227
21
-83.895
0
LINE
8
BLACK
6
CONTINUOUS
10
92.3227
20
-83.895
11
92.3194
21
-83.894
0
LINE
8
BLACK
6
CONTINUOUS
10
92.3194
20
-83.894
11
92.315
21
-83.8917
0
LINE
8
BLACK
6
CONTINUOUS
10
92.315
20
-83.8917
11
92.3112
21
-83.8886
0
LINE
8
BLACK
6
CONTINUOUS
10
92.3112
20
-83.8886
11
92.3105
21
-83.8876
0
LINE
8
BLACK
6
CONTINUOUS
10
92.3105
20
-83.8876
11
90.9152
21
-82.4924
0
LINE
8
BLACK
6
CONTINUOUS
10
90.9152
20
-82.4924
11
90.9142
21
-82.4916
0
LINE
8
BLACK
6
CONTINUOUS
10
90.9142
20
-82.4916
11
90.9111
21
-82.4878
0
LINE
8
BLACK
6
CONTINUOUS
10
90.9111
20
-82.4878
11
90.9088
21
-82.4834
0
LINE
8
BLACK
6
CONTINUOUS
10
90.9088
20
-82.4834
11
90.9074
21
-82.4787
0
LINE
8
BLACK
6
CONTINUOUS
10
90.9074
20
-82.4787
11
90.907
21
-82.475
0
LINE
8
BLACK
6
CONTINUOUS
10
90.907
20
-82.475
11
90.9069
21
-82.4738
0
LINE
8
BLACK
6
CONTINUOUS
10
90.9069
20
-82.4738
11
90.907
21
-82.4726
0
LINE
8
BLACK
6
CONTINUOUS
10
90.907
20
-82.4726
11
90.907
21
-75.236
0
LINE
8
BLACK
6
CONTINUOUS
10
90.907
20
-75.236
11
90.9069
21
-75.2348
0
LINE
8
BLACK
6
CONTINUOUS
10
90.9069
20
-75.2348
11
90.9074
21
-75.2299
0
LINE
8
BLACK
6
CONTINUOUS
10
90.9074
20
-75.2299
11
90.9088
21
-75.2252
0
LINE
8
BLACK
6
CONTINUOUS
10
90.9088
20
-75.2252
11
90.9111
21
-75.2208
0
LINE
8
BLACK
6
CONTINUOUS
10
90.9111
20
-75.2208
11
90.9142
21
-75.217
0
LINE
8
BLACK
6
CONTINUOUS
10
90.9142
20
-75.217
11
90.918
21
-75.2139
0
LINE
8
BLACK
6
CONTINUOUS
10
90.918
20
-75.2139
11
90.9224
21
-75.2116
0
LINE
8
BLACK
6
CONTINUOUS
10
90.9224
20
-75.2116
11
90.9271
21
-75.2102
0
LINE
8
BLACK
6
CONTINUOUS
10
90.9271
20
-75.2102
11
90.9308
21
-75.2098
0
LINE
8
BLACK
6
CONTINUOUS
10
90.9308
20
-75.2098
11
90.9308
21
-75.2098
0
LINE
8
BLACK
6
CONTINUOUS
10
90.9308
20
-75.2098
11
90.932
21
-75.2097
0
LINE
8
BLACK
6
CONTINUOUS
10
90.932
20
-75.2097
11
90.9332
21
-75.2098
0
LINE
8
BLACK
6
CONTINUOUS
10
90.9332
20
-75.2098
11
105.028
21
-75.2098
0
LINE
8
BLACK
6
CONTINUOUS
10
105.028
20
-75.2098
11
105.029
21
-75.2097
0
LINE
8
BLACK
6
CONTINUOUS
10
105.029
20
-75.2097
11
105.03
21
-75.2098
0
LINE
8
BLACK
6
CONTINUOUS
10
90.957
20
-75.2598
11
90.957
21
-82.4634
0
LINE
8
BLACK
6
CONTINUOUS
10
90.957
20
-82.4634
11
92.3394
21
-83.8458
0
LINE
8
BLACK
6
CONTINUOUS
10
92.3394
20
-83.8458
11
103.495
21
-83.8458
0
LINE
8
BLACK
6
CONTINUOUS
10
103.495
20
-83.8458
11
105.004
21
-82.4628
0
LINE
8
BLACK
6
CONTINUOUS
10
105.004
20
-82.4628
11
105.004
21
-75.2598
0
LINE
8
BLACK
6
CONTINUOUS
10
105.004
20
-75.2598
11
90.957
21
-75.2598
0
LINE
8
BLACK
6
CONTINUOUS
10
104.649
20
-70.5108
11
104.649
21
-70.5108
0
LINE
8
BLACK
6
CONTINUOUS
10
104.649
20
-70.5108
11
104.653
21
-70.5112
0
LINE
8
BLACK
6
CONTINUOUS
10
104.653
20
-70.5112
11
104.658
21
-70.5126
0
LINE
8
BLACK
6
CONTINUOUS
10
104.658
20
-70.5126
11
104.662
21
-70.5149
0
LINE
8
BLACK
6
CONTINUOUS
10
104.662
20
-70.5149
11
104.666
21
-70.518
0
LINE
8
BLACK
6
CONTINUOUS
10
104.666
20
-70.518
11
104.669
21
-70.5218
0
LINE
8
BLACK
6
CONTINUOUS
10
104.669
20
-70.5218
11
104.671
21
-70.5262
0
LINE
8
BLACK
6
CONTINUOUS
10
104.671
20
-70.5262
11
104.673
21
-70.5309
0
LINE
8
BLACK
6
CONTINUOUS
10
104.673
20
-70.5309
11
104.673
21
-70.5358
0
LINE
8
BLACK
6
CONTINUOUS
10
104.673
20
-70.5358
11
104.673
21
-70.537
0
LINE
8
BLACK
6
CONTINUOUS
10
104.673
20
-70.537
11
104.673
21
-73.0746
0
LINE
8
BLACK
6
CONTINUOUS
10
104.673
20
-73.0746
11
104.673
21
-73.0758
0
LINE
8
BLACK
6
CONTINUOUS
10
104.673
20
-73.0758
11
104.673
21
-73.077
0
LINE
8
BLACK
6
CONTINUOUS
10
104.673
20
-73.077
11
104.673
21
-73.0807
0
LINE
8
BLACK
6
CONTINUOUS
10
104.673
20
-73.0807
11
104.671
21
-73.0854
0
LINE
8
BLACK
6
CONTINUOUS
10
104.671
20
-73.0854
11
104.669
21
-73.0898
0
LINE
8
BLACK
6
CONTINUOUS
10
104.669
20
-73.0898
11
104.666
21
-73.0936
0
LINE
8
BLACK
6
CONTINUOUS
10
104.666
20
-73.0936
11
104.662
21
-73.0967
0
LINE
8
BLACK
6
CONTINUOUS
10
104.662
20
-73.0967
11
104.658
21
-73.099
0
LINE
8
BLACK
6
CONTINUOUS
10
104.658
20
-73.099
11
104.653
21
-73.1004
0
LINE
8
BLACK
6
CONTINUOUS
10
104.653
20
-73.1004
11
104.648
21
-73.1009
0
LINE
8
BLACK
6
CONTINUOUS
10
104.648
20
-73.1009
11
104.647
21
-73.1008
0
LINE
8
BLACK
6
CONTINUOUS
10
104.647
20
-73.1008
11
91.3142
21
-73.1008
0
LINE
8
BLACK
6
CONTINUOUS
10
91.3142
20
-73.1008
11
91.313
21
-73.1009
0
LINE
8
BLACK
6
CONTINUOUS
10
91.313
20
-73.1009
11
91.3118
21
-73.1008
0
LINE
8
BLACK
6
CONTINUOUS
10
91.3118
20
-73.1008
11
91.3118
21
-73.1008
0
LINE
8
BLACK
6
CONTINUOUS
10
91.3118
20
-73.1008
11
91.3081
21
-73.1004
0
LINE
8
BLACK
6
CONTINUOUS
10
91.3081
20
-73.1004
11
91.3034
21
-73.099
0
LINE
8
BLACK
6
CONTINUOUS
10
91.3034
20
-73.099
11
91.299
21
-73.0967
0
LINE
8
BLACK
6
CONTINUOUS
10
91.299
20
-73.0967
11
91.2952
21
-73.0936
0
LINE
8
BLACK
6
CONTINUOUS
10
91.2952
20
-73.0936
11
91.2921
21
-73.0898
0
LINE
8
BLACK
6
CONTINUOUS
10
91.2921
20
-73.0898
11
91.2898
21
-73.0854
0
LINE
8
BLACK
6
CONTINUOUS
10
91.2898
20
-73.0854
11
91.2884
21
-73.0807
0
LINE
8
BLACK
6
CONTINUOUS
10
91.2884
20
-73.0807
11
91.2879
21
-73.0758
0
LINE
8
BLACK
6
CONTINUOUS
10
91.2879
20
-73.0758
11
91.288
21
-73.0746
0
LINE
8
BLACK
6
CONTINUOUS
10
91.288
20
-73.0746
11
91.288
21
-70.537
0
LINE
8
BLACK
6
CONTINUOUS
10
91.288
20
-70.537
11
91.2879
21
-70.5358
0
LINE
8
BLACK
6
CONTINUOUS
10
91.2879
20
-70.5358
11
91.2884
21
-70.5309
0
LINE
8
BLACK
6
CONTINUOUS
10
91.2884
20
-70.5309
11
91.2898
21
-70.5262
0
LINE
8
BLACK
6
CONTINUOUS
10
91.2898
20
-70.5262
11
91.2921
21
-70.5218
0
LINE
8
BLACK
6
CONTINUOUS
10
91.2921
20
-70.5218
11
91.2952
21
-70.518
0
LINE
8
BLACK
6
CONTINUOUS
10
91.2952
20
-70.518
11
91.299
21
-70.5149
0
LINE
8
BLACK
6
CONTINUOUS
10
91.299
20
-70.5149
11
91.3034
21
-70.5126
0
LINE
8
BLACK
6
CONTINUOUS
10
91.3034
20
-70.5126
11
91.3081
21
-70.5112
0
LINE
8
BLACK
6
CONTINUOUS
10
91.3081
20
-70.5112
11
91.3118
21
-70.5108
0
LINE
8
BLACK
6
CONTINUOUS
10
91.3118
20
-70.5108
11
91.313
21
-70.5107
0
LINE
8
BLACK
6
CONTINUOUS
10
91.313
20
-70.5107
11
91.3142
21
-70.5108
0
LINE
8
BLACK
6
CONTINUOUS
10
91.3142
20
-70.5108
11
104.647
21
-70.5108
0
LINE
8
BLACK
6
CONTINUOUS
10
104.647
20
-70.5108
11
104.648
21
-70.5107
0
LINE
8
BLACK
6
CONTINUOUS
10
104.648
20
-70.5107
11
104.649
21
-70.5108
0
LINE
8
BLACK
6
CONTINUOUS
10
91.338
20
-70.5608
11
91.338
21
-73.0508
0
LINE
8
BLACK
6
CONTINUOUS
10
91.338
20
-73.0508
11
104.623
21
-73.0508
0
LINE
8
BLACK
6
CONTINUOUS
10
104.623
20
-73.0508
11
104.623
21
-70.5608
0
LINE
8
BLACK
6
CONTINUOUS
10
104.623
20
-70.5608
11
91.338
21
-70.5608
0
LINE
8
BLACK
6
CONTINUOUS
10
85.142
20
-68.7836
11
85.1457
21
-68.784
0
LINE
8
BLACK
6
CONTINUOUS
10
85.1457
20
-68.784
11
85.1504
21
-68.7854
0
LINE
8
BLACK
6
CONTINUOUS
10
85.1504
20
-68.7854
11
85.1548
21
-68.7877
0
LINE
8
BLACK
6
CONTINUOUS
10
85.1548
20
-68.7877
11
85.1586
21
-68.7908
0
LINE
8
BLACK
6
CONTINUOUS
10
85.1586
20
-68.7908
11
85.1617
21
-68.7946
0
LINE
8
BLACK
6
CONTINUOUS
10
85.1617
20
-68.7946
11
85.164
21
-68.799
0
LINE
8
BLACK
6
CONTINUOUS
10
85.164
20
-68.799
11
85.1654
21
-68.8037
0
LINE
8
BLACK
6
CONTINUOUS
10
85.1654
20
-68.8037
11
85.1659
21
-68.8086
0
LINE
8
BLACK
6
CONTINUOUS
10
85.1659
20
-68.8086
11
85.1658
21
-68.8098
0
LINE
8
BLACK
6
CONTINUOUS
10
85.1658
20
-68.8098
11
85.1658
21
-70.4076
0
LINE
8
BLACK
6
CONTINUOUS
10
85.1658
20
-70.4076
11
85.1659
21
-70.4088
0
LINE
8
BLACK
6
CONTINUOUS
10
85.1659
20
-70.4088
11
85.1654
21
-70.4137
0
LINE
8
BLACK
6
CONTINUOUS
10
85.1654
20
-70.4137
11
85.164
21
-70.4184
0
LINE
8
BLACK
6
CONTINUOUS
10
85.164
20
-70.4184
11
85.1617
21
-70.4228
0
LINE
8
BLACK
6
CONTINUOUS
10
85.1617
20
-70.4228
11
85.1586
21
-70.4266
0
LINE
8
BLACK
6
CONTINUOUS
10
85.1586
20
-70.4266
11
85.1548
21
-70.4297
0
LINE
8
BLACK
6
CONTINUOUS
10
85.1548
20
-70.4297
11
85.1504
21
-70.432
0
LINE
8
BLACK
6
CONTINUOUS
10
85.1504
20
-70.432
11
85.1457
21
-70.4334
0
LINE
8
BLACK
6
CONTINUOUS
10
85.1457
20
-70.4334
11
85.142
21
-70.4338
0
LINE
8
BLACK
6
CONTINUOUS
10
85.142
20
-70.4338
11
85.142
21
-70.4338
0
LINE
8
BLACK
6
CONTINUOUS
10
85.142
20
-70.4338
11
85.1408
21
-70.4339
0
LINE
8
BLACK
6
CONTINUOUS
10
85.1408
20
-70.4339
11
85.1396
21
-70.4338
0
LINE
8
BLACK
6
CONTINUOUS
10
85.1396
20
-70.4338
11
78.9952
21
-70.4338
0
LINE
8
BLACK
6
CONTINUOUS
10
78.9952
20
-70.4338
11
78.994
21
-70.4339
0
LINE
8
BLACK
6
CONTINUOUS
10
78.994
20
-70.4339
11
78.9928
21
-70.4338
0
LINE
8
BLACK
6
CONTINUOUS
10
78.9928
20
-70.4338
11
78.9928
21
-70.4338
0
LINE
8
BLACK
6
CONTINUOUS
10
78.9928
20
-70.4338
11
78.9891
21
-70.4334
0
LINE
8
BLACK
6
CONTINUOUS
10
78.9891
20
-70.4334
11
78.9844
21
-70.432
0
LINE
8
BLACK
6
CONTINUOUS
10
78.9844
20
-70.432
11
78.98
21
-70.4297
0
LINE
8
BLACK
6
CONTINUOUS
10
78.98
20
-70.4297
11
78.9762
21
-70.4266
0
LINE
8
BLACK
6
CONTINUOUS
10
78.9762
20
-70.4266
11
78.9731
21
-70.4228
0
LINE
8
BLACK
6
CONTINUOUS
10
78.9731
20
-70.4228
11
78.9708
21
-70.4184
0
LINE
8
BLACK
6
CONTINUOUS
10
78.9708
20
-70.4184
11
78.9694
21
-70.4137
0
LINE
8
BLACK
6
CONTINUOUS
10
78.9694
20
-70.4137
11
78.9689
21
-70.4088
0
LINE
8
BLACK
6
CONTINUOUS
10
78.9689
20
-70.4088
11
78.969
21
-70.4076
0
LINE
8
BLACK
6
CONTINUOUS
10
78.969
20
-70.4076
11
78.969
21
-68.8098
0
LINE
8
BLACK
6
CONTINUOUS
10
78.969
20
-68.8098
11
78.9689
21
-68.8086
0
LINE
8
BLACK
6
CONTINUOUS
10
78.9689
20
-68.8086
11
78.9694
21
-68.8037
0
LINE
8
BLACK
6
CONTINUOUS
10
78.9694
20
-68.8037
11
78.9708
21
-68.799
0
LINE
8
BLACK
6
CONTINUOUS
10
78.9708
20
-68.799
11
78.9731
21
-68.7946
0
LINE
8
BLACK
6
CONTINUOUS
10
78.9731
20
-68.7946
11
78.9762
21
-68.7908
0
LINE
8
BLACK
6
CONTINUOUS
10
78.9762
20
-68.7908
11
78.98
21
-68.7877
0
LINE
8
BLACK
6
CONTINUOUS
10
78.98
20
-68.7877
11
78.9844
21
-68.7854
0
LINE
8
BLACK
6
CONTINUOUS
10
78.9844
20
-68.7854
11
78.9891
21
-68.784
0
LINE
8
BLACK
6
CONTINUOUS
10
78.9891
20
-68.784
11
78.9928
21
-68.7836
0
LINE
8
BLACK
6
CONTINUOUS
10
78.9928
20
-68.7836
11
78.994
21
-68.7835
0
LINE
8
BLACK
6
CONTINUOUS
10
78.994
20
-68.7835
11
78.9952
21
-68.7836
0
LINE
8
BLACK
6
CONTINUOUS
10
78.9952
20
-68.7836
11
85.1396
21
-68.7836
0
LINE
8
BLACK
6
CONTINUOUS
10
85.1396
20
-68.7836
11
85.1408
21
-68.7835
0
LINE
8
BLACK
6
CONTINUOUS
10
85.1408
20
-68.7835
11
85.142
21
-68.7836
0
LINE
8
BLACK
6
CONTINUOUS
10
79.019
20
-68.8336
11
79.019
21
-70.3838
0
LINE
8
BLACK
6
CONTINUOUS
10
79.019
20
-70.3838
11
85.1158
21
-70.3838
0
LINE
8
BLACK
6
CONTINUOUS
10
85.1158
20
-70.3838
11
85.1158
21
-68.8336
0
LINE
8
BLACK
6
CONTINUOUS
10
85.1158
20
-68.8336
11
79.019
21
-68.8336
0
LINE
8
BLACK
6
CONTINUOUS
10
157.088
20
-68.7709
11
157.091
21
-68.7713
0
LINE
8
BLACK
6
CONTINUOUS
10
157.091
20
-68.7713
11
157.096
21
-68.7727
0
LINE
8
BLACK
6
CONTINUOUS
10
157.096
20
-68.7727
11
157.1
21
-68.775
0
LINE
8
BLACK
6
CONTINUOUS
10
157.1
20
-68.775
11
157.104
21
-68.7781
0
LINE
8
BLACK
6
CONTINUOUS
10
157.104
20
-68.7781
11
157.107
21
-68.7819
0
LINE
8
BLACK
6
CONTINUOUS
10
157.107
20
-68.7819
11
157.11
21
-68.7863
0
LINE
8
BLACK
6
CONTINUOUS
10
157.11
20
-68.7863
11
157.111
21
-68.791
0
LINE
8
BLACK
6
CONTINUOUS
10
157.111
20
-68.791
11
157.111
21
-68.7959
0
LINE
8
BLACK
6
CONTINUOUS
10
157.111
20
-68.7959
11
157.111
21
-68.7971
0
LINE
8
BLACK
6
CONTINUOUS
10
157.111
20
-68.7971
11
157.111
21
-70.3949
0
LINE
8
BLACK
6
CONTINUOUS
10
157.111
20
-70.3949
11
157.111
21
-70.3961
0
LINE
8
BLACK
6
CONTINUOUS
10
157.111
20
-70.3961
11
157.111
21
-70.401
0
LINE
8
BLACK
6
CONTINUOUS
10
157.111
20
-70.401
11
157.11
21
-70.4057
0
LINE
8
BLACK
6
CONTINUOUS
10
157.11
20
-70.4057
11
157.107
21
-70.4101
0
LINE
8
BLACK
6
CONTINUOUS
10
157.107
20
-70.4101
11
157.104
21
-70.4139
0
LINE
8
BLACK
6
CONTINUOUS
10
157.104
20
-70.4139
11
157.1
21
-70.417
0
LINE
8
BLACK
6
CONTINUOUS
10
157.1
20
-70.417
11
157.096
21
-70.4193
0
LINE
8
BLACK
6
CONTINUOUS
10
157.096
20
-70.4193
11
157.091
21
-70.4207
0
LINE
8
BLACK
6
CONTINUOUS
10
157.091
20
-70.4207
11
157.088
21
-70.4211
0
LINE
8
BLACK
6
CONTINUOUS
10
157.088
20
-70.4211
11
157.088
21
-70.4211
0
LINE
8
BLACK
6
CONTINUOUS
10
157.088
20
-70.4211
11
157.086
21
-70.4212
0
LINE
8
BLACK
6
CONTINUOUS
10
157.086
20
-70.4212
11
157.085
21
-70.4211
0
LINE
8
BLACK
6
CONTINUOUS
10
157.085
20
-70.4211
11
150.928
21
-70.4211
0
LINE
8
BLACK
6
CONTINUOUS
10
150.928
20
-70.4211
11
150.927
21
-70.4212
0
LINE
8
BLACK
6
CONTINUOUS
10
150.927
20
-70.4212
11
150.926
21
-70.4211
0
LINE
8
BLACK
6
CONTINUOUS
10
150.926
20
-70.4211
11
150.926
21
-70.4211
0
LINE
8
BLACK
6
CONTINUOUS
10
150.926
20
-70.4211
11
150.922
21
-70.4207
0
LINE
8
BLACK
6
CONTINUOUS
10
150.922
20
-70.4207
11
150.917
21
-70.4193
0
LINE
8
BLACK
6
CONTINUOUS
10
150.917
20
-70.4193
11
150.913
21
-70.417
0
LINE
8
BLACK
6
CONTINUOUS
10
150.913
20
-70.417
11
150.909
21
-70.4139
0
LINE
8
BLACK
6
CONTINUOUS
10
150.909
20
-70.4139
11
150.906
21
-70.4101
0
LINE
8
BLACK
6
CONTINUOUS
10
150.906
20
-70.4101
11
150.904
21
-70.4057
0
LINE
8
BLACK
6
CONTINUOUS
10
150.904
20
-70.4057
11
150.902
21
-70.401
0
LINE
8
BLACK
6
CONTINUOUS
10
150.902
20
-70.401
11
150.902
21
-70.3961
0
LINE
8
BLACK
6
CONTINUOUS
10
150.902
20
-70.3961
11
150.902
21
-70.3949
0
LINE
8
BLACK
6
CONTINUOUS
10
150.902
20
-70.3949
11
150.902
21
-68.7971
0
LINE
8
BLACK
6
CONTINUOUS
10
150.902
20
-68.7971
11
150.902
21
-68.7959
0
LINE
8
BLACK
6
CONTINUOUS
10
150.902
20
-68.7959
11
150.902
21
-68.791
0
LINE
8
BLACK
6
CONTINUOUS
10
150.902
20
-68.791
11
150.904
21
-68.7863
0
LINE
8
BLACK
6
CONTINUOUS
10
150.904
20
-68.7863
11
150.906
21
-68.7819
0
LINE
8
BLACK
6
CONTINUOUS
10
150.906
20
-68.7819
11
150.909
21
-68.7781
0
LINE
8
BLACK
6
CONTINUOUS
10
150.909
20
-68.7781
11
150.913
21
-68.775
0
LINE
8
BLACK
6
CONTINUOUS
10
150.913
20
-68.775
11
150.917
21
-68.7727
0
LINE
8
BLACK
6
CONTINUOUS
10
150.917
20
-68.7727
11
150.922
21
-68.7713
0
LINE
8
BLACK
6
CONTINUOUS
10
150.922
20
-68.7713
11
150.926
21
-68.7709
0
LINE
8
BLACK
6
CONTINUOUS
10
150.926
20
-68.7709
11
150.927
21
-68.7708
0
LINE
8
BLACK
6
CONTINUOUS
10
150.927
20
-68.7708
11
150.928
21
-68.7709
0
LINE
8
BLACK
6
CONTINUOUS
10
150.928
20
-68.7709
11
157.085
21
-68.7709
0
LINE
8
BLACK
6
CONTINUOUS
10
157.085
20
-68.7709
11
157.086
21
-68.7708
0
LINE
8
BLACK
6
CONTINUOUS
10
157.086
20
-68.7708
11
157.088
21
-68.7709
0
LINE
8
BLACK
6
CONTINUOUS
10
150.952
20
-68.8209
11
150.952
21
-70.3711
0
LINE
8
BLACK
6
CONTINUOUS
10
150.952
20
-70.3711
11
157.061
21
-70.3711
0
LINE
8
BLACK
6
CONTINUOUS
10
157.061
20
-70.3711
11
157.061
21
-68.8209
0
LINE
8
BLACK
6
CONTINUOUS
10
157.061
20
-68.8209
11
150.952
21
-68.8209
0
LINE
8
BLACK
6
CONTINUOUS
10
104.7
20
-66.7135
11
104.704
21
-66.7139
0
LINE
8
BLACK
6
CONTINUOUS
10
104.704
20
-66.7139
11
104.708
21
-66.7153
0
LINE
8
BLACK
6
CONTINUOUS
10
104.708
20
-66.7153
11
104.713
21
-66.7176
0
LINE
8
BLACK
6
CONTINUOUS
10
104.713
20
-66.7176
11
104.717
21
-66.7207
0
LINE
8
BLACK
6
CONTINUOUS
10
104.717
20
-66.7207
11
104.72
21
-66.7245
0
LINE
8
BLACK
6
CONTINUOUS
10
104.72
20
-66.7245
11
104.722
21
-66.7289
0
LINE
8
BLACK
6
CONTINUOUS
10
104.722
20
-66.7289
11
104.723
21
-66.7336
0
LINE
8
BLACK
6
CONTINUOUS
10
104.723
20
-66.7336
11
104.724
21
-66.7385
0
LINE
8
BLACK
6
CONTINUOUS
10
104.724
20
-66.7385
11
104.724
21
-66.7397
0
LINE
8
BLACK
6
CONTINUOUS
10
104.724
20
-66.7397
11
104.724
21
-68.7439
0
LINE
8
BLACK
6
CONTINUOUS
10
104.724
20
-68.7439
11
104.724
21
-68.7451
0
LINE
8
BLACK
6
CONTINUOUS
10
104.724
20
-68.7451
11
104.723
21
-68.75
0
LINE
8
BLACK
6
CONTINUOUS
10
104.723
20
-68.75
11
104.722
21
-68.7547
0
LINE
8
BLACK
6
CONTINUOUS
10
104.722
20
-68.7547
11
104.72
21
-68.7591
0
LINE
8
BLACK
6
CONTINUOUS
10
104.72
20
-68.7591
11
104.717
21
-68.7629
0
LINE
8
BLACK
6
CONTINUOUS
10
104.717
20
-68.7629
11
104.713
21
-68.766
0
LINE
8
BLACK
6
CONTINUOUS
10
104.713
20
-68.766
11
104.708
21
-68.7683
0
LINE
8
BLACK
6
CONTINUOUS
10
104.708
20
-68.7683
11
104.704
21
-68.7697
0
LINE
8
BLACK
6
CONTINUOUS
10
104.704
20
-68.7697
11
104.7
21
-68.7701
0
LINE
8
BLACK
6
CONTINUOUS
10
104.7
20
-68.7701
11
104.7
21
-68.7701
0
LINE
8
BLACK
6
CONTINUOUS
10
104.7
20
-68.7701
11
104.699
21
-68.7702
0
LINE
8
BLACK
6
CONTINUOUS
10
104.699
20
-68.7702
11
104.698
21
-68.7701
0
LINE
8
BLACK
6
CONTINUOUS
10
104.698
20
-68.7701
11
99.6962
21
-68.7701
0
LINE
8
BLACK
6
CONTINUOUS
10
99.6962
20
-68.7701
11
99.695
21
-68.7702
0
LINE
8
BLACK
6
CONTINUOUS
10
99.695
20
-68.7702
11
99.6938
21
-68.7701
0
LINE
8
BLACK
6
CONTINUOUS
10
99.6938
20
-68.7701
11
99.6938
21
-68.7701
0
LINE
8
BLACK
6
CONTINUOUS
10
99.6938
20
-68.7701
11
99.6901
21
-68.7697
0
LINE
8
BLACK
6
CONTINUOUS
10
99.6901
20
-68.7697
11
99.6854
21
-68.7683
0
LINE
8
BLACK
6
CONTINUOUS
10
99.6854
20
-68.7683
11
99.681
21
-68.766
0
LINE
8
BLACK
6
CONTINUOUS
10
99.681
20
-68.766
11
99.6772
21
-68.7629
0
LINE
8
BLACK
6
CONTINUOUS
10
99.6772
20
-68.7629
11
99.6741
21
-68.7591
0
LINE
8
BLACK
6
CONTINUOUS
10
99.6741
20
-68.7591
11
99.6718
21
-68.7547
0
LINE
8
BLACK
6
CONTINUOUS
10
99.6718
20
-68.7547
11
99.6704
21
-68.75
0
LINE
8
BLACK
6
CONTINUOUS
10
99.6704
20
-68.75
11
99.6699
21
-68.7451
0
LINE
8
BLACK
6
CONTINUOUS
10
99.6699
20
-68.7451
11
99.67
21
-68.7439
0
LINE
8
BLACK
6
CONTINUOUS
10
99.67
20
-68.7439
11
99.67
21
-66.7397
0
LINE
8
BLACK
6
CONTINUOUS
10
99.67
20
-66.7397
11
99.6699
21
-66.7385
0
LINE
8
BLACK
6
CONTINUOUS
10
99.6699
20
-66.7385
11
99.6704
21
-66.7336
0
LINE
8
BLACK
6
CONTINUOUS
10
99.6704
20
-66.7336
11
99.6718
21
-66.7289
0
LINE
8
BLACK
6
CONTINUOUS
10
99.6718
20
-66.7289
11
99.6741
21
-66.7245
0
LINE
8
BLACK
6
CONTINUOUS
10
99.6741
20
-66.7245
11
99.6772
21
-66.7207
0
LINE
8
BLACK
6
CONTINUOUS
10
99.6772
20
-66.7207
11
99.681
21
-66.7176
0
LINE
8
BLACK
6
CONTINUOUS
10
99.681
20
-66.7176
11
99.6854
21
-66.7153
0
LINE
8
BLACK
6
CONTINUOUS
10
99.6854
20
-66.7153
11
99.6901
21
-66.7139
0
LINE
8
BLACK
6
CONTINUOUS
10
99.6901
20
-66.7139
11
99.6938
21
-66.7135
0
LINE
8
BLACK
6
CONTINUOUS
10
99.6938
20
-66.7135
11
99.695
21
-66.7134
0
LINE
8
BLACK
6
CONTINUOUS
10
99.695
20
-66.7134
11
99.6962
21
-66.7135
0
LINE
8
BLACK
6
CONTINUOUS
10
99.6962
20
-66.7135
11
104.698
21
-66.7135
0
LINE
8
BLACK
6
CONTINUOUS
10
104.698
20
-66.7135
11
104.699
21
-66.7134
0
LINE
8
BLACK
6
CONTINUOUS
10
104.699
20
-66.7134
11
104.7
21
-66.7135
0
LINE
8
BLACK
6
CONTINUOUS
10
99.72
20
-66.7635
11
99.72
21
-68.7201
0
LINE
8
BLACK
6
CONTINUOUS
10
99.72
20
-68.7201
11
104.674
21
-68.7201
0
LINE
8
BLACK
6
CONTINUOUS
10
104.674
20
-68.7201
11
104.674
21
-66.7635
0
LINE
8
BLACK
6
CONTINUOUS
10
104.674
20
-66.7635
11
99.72
21
-66.7635
0
LINE
8
BLACK
6
CONTINUOUS
10
96.318
20
-66.7008
11
96.3217
21
-66.7012
0
LINE
8
BLACK
6
CONTINUOUS
10
96.3217
20
-66.7012
11
96.3264
21
-66.7026
0
LINE
8
BLACK
6
CONTINUOUS
10
96.3264
20
-66.7026
11
96.3308
21
-66.7049
0
LINE
8
BLACK
6
CONTINUOUS
10
96.3308
20
-66.7049
11
96.3346
21
-66.708
0
LINE
8
BLACK
6
CONTINUOUS
10
96.3346
20
-66.708
11
96.3377
21
-66.7118
0
LINE
8
BLACK
6
CONTINUOUS
10
96.3377
20
-66.7118
11
96.34
21
-66.7162
0
LINE
8
BLACK
6
CONTINUOUS
10
96.34
20
-66.7162
11
96.3414
21
-66.7209
0
LINE
8
BLACK
6
CONTINUOUS
10
96.3414
20
-66.7209
11
96.3419
21
-66.7258
0
LINE
8
BLACK
6
CONTINUOUS
10
96.3419
20
-66.7258
11
96.3418
21
-66.727
0
LINE
8
BLACK
6
CONTINUOUS
10
96.3418
20
-66.727
11
96.3418
21
-68.7312
0
LINE
8
BLACK
6
CONTINUOUS
10
96.3418
20
-68.7312
11
96.3419
21
-68.7324
0
LINE
8
BLACK
6
CONTINUOUS
10
96.3419
20
-68.7324
11
96.3414
21
-68.7373
0
LINE
8
BLACK
6
CONTINUOUS
10
96.3414
20
-68.7373
11
96.34
21
-68.742
0
LINE
8
BLACK
6
CONTINUOUS
10
96.34
20
-68.742
11
96.3377
21
-68.7464
0
LINE
8
BLACK
6
CONTINUOUS
10
96.3377
20
-68.7464
11
96.3346
21
-68.7502
0
LINE
8
BLACK
6
CONTINUOUS
10
96.3346
20
-68.7502
11
96.3308
21
-68.7533
0
LINE
8
BLACK
6
CONTINUOUS
10
96.3308
20
-68.7533
11
96.3264
21
-68.7556
0
LINE
8
BLACK
6
CONTINUOUS
10
96.3264
20
-68.7556
11
96.3217
21
-68.757
0
LINE
8
BLACK
6
CONTINUOUS
10
96.3217
20
-68.757
11
96.318
21
-68.7574
0
LINE
8
BLACK
6
CONTINUOUS
10
96.318
20
-68.7574
11
96.318
21
-68.7574
0
LINE
8
BLACK
6
CONTINUOUS
10
96.318
20
-68.7574
11
96.3168
21
-68.7575
0
LINE
8
BLACK
6
CONTINUOUS
10
96.3168
20
-68.7575
11
96.3156
21
-68.7574
0
LINE
8
BLACK
6
CONTINUOUS
10
96.3156
20
-68.7574
11
91.3269
21
-68.7574
0
LINE
8
BLACK
6
CONTINUOUS
10
91.3269
20
-68.7574
11
91.3257
21
-68.7575
0
LINE
8
BLACK
6
CONTINUOUS
10
91.3257
20
-68.7575
11
91.3245
21
-68.7574
0
LINE
8
BLACK
6
CONTINUOUS
10
91.3245
20
-68.7574
11
91.3245
21
-68.7574
0
LINE
8
BLACK
6
CONTINUOUS
10
91.3245
20
-68.7574
11
91.3208
21
-68.757
0
LINE
8
BLACK
6
CONTINUOUS
10
91.3208
20
-68.757
11
91.3161
21
-68.7556
0
LINE
8
BLACK
6
CONTINUOUS
10
91.3161
20
-68.7556
11
91.3117
21
-68.7533
0
LINE
8
BLACK
6
CONTINUOUS
10
91.3117
20
-68.7533
11
91.3079
21
-68.7502
0
LINE
8
BLACK
6
CONTINUOUS
10
91.3079
20
-68.7502
11
91.3048
21
-68.7464
0
LINE
8
BLACK
6
CONTINUOUS
10
91.3048
20
-68.7464
11
91.3025
21
-68.742
0
LINE
8
BLACK
6
CONTINUOUS
10
91.3025
20
-68.742
11
91.3011
21
-68.7373
0
LINE
8
BLACK
6
CONTINUOUS
10
91.3011
20
-68.7373
11
91.3006
21
-68.7324
0
LINE
8
BLACK
6
CONTINUOUS
10
91.3006
20
-68.7324
11
91.3007
21
-68.7312
0
LINE
8
BLACK
6
CONTINUOUS
10
91.3007
20
-68.7312
11
91.3007
21
-66.727
0
LINE
8
BLACK
6
CONTINUOUS
10
91.3007
20
-66.727
11
91.3006
21
-66.7258
0
LINE
8
BLACK
6
CONTINUOUS
10
91.3006
20
-66.7258
11
91.3011
21
-66.7209
0
LINE
8
BLACK
6
CONTINUOUS
10
91.3011
20
-66.7209
11
91.3025
21
-66.7162
0
LINE
8
BLACK
6
CONTINUOUS
10
91.3025
20
-66.7162
11
91.3048
21
-66.7118
0
LINE
8
BLACK
6
CONTINUOUS
10
91.3048
20
-66.7118
11
91.3079
21
-66.708
0
LINE
8
BLACK
6
CONTINUOUS
10
91.3079
20
-66.708
11
91.3117
21
-66.7049
0
LINE
8
BLACK
6
CONTINUOUS
10
91.3117
20
-66.7049
11
91.3161
21
-66.7026
0
LINE
8
BLACK
6
CONTINUOUS
10
91.3161
20
-66.7026
11
91.3208
21
-66.7012
0
LINE
8
BLACK
6
CONTINUOUS
10
91.3208
20
-66.7012
11
91.3245
21
-66.7008
0
LINE
8
BLACK
6
CONTINUOUS
10
91.3245
20
-66.7008
11
91.3257
21
-66.7007
0
LINE
8
BLACK
6
CONTINUOUS
10
91.3257
20
-66.7007
11
91.3269
21
-66.7008
0
LINE
8
BLACK
6
CONTINUOUS
10
91.3269
20
-66.7008
11
96.3156
21
-66.7008
0
LINE
8
BLACK
6
CONTINUOUS
10
96.3156
20
-66.7008
11
96.3168
21
-66.7007
0
LINE
8
BLACK
6
CONTINUOUS
10
96.3168
20
-66.7007
11
96.318
21
-66.7008
0
LINE
8
BLACK
6
CONTINUOUS
10
91.3507
20
-66.7508
11
91.3507
21
-68.7074
0
LINE
8
BLACK
6
CONTINUOUS
10
91.3507
20
-68.7074
11
96.2918
21
-68.7074
0
LINE
8
BLACK
6
CONTINUOUS
10
96.2918
20
-68.7074
11
96.2918
21
-66.7508
0
LINE
8
BLACK
6
CONTINUOUS
10
96.2918
20
-66.7508
11
91.3507
21
-66.7508
  0
ENDSEC
  0
EOF
