  0
SECTION
  2
HEADER
  9
$ANGBASE
  50
0.0
  9
$ANGDIR
  70
1
  9
$MEASUREMENT
  70
1
  0
ENDSEC
  0
SECTION
  2
TABLES
  0
TABLE
  2
LTYPE
  70
4
  0
LTYPE
  5
40F
  2
CONTINUOUS
  70
0
  3
Solid line
  72
65
  73
0
  40
0.0
  0
LTYPE
  5
410
  2
DASHDOT
 70
0
  3
Dash Dot ____ _ ____ _
 72
65
 73
4
 40
2.0
 49
1.25
 49
-0.25
 49
0.25
 49
-0.25
  0
LTYPE
  5
411
  2
DASHED
 70
0
  3
Dashed __ __ __ __ __
 72
65
 73
2
 40
0.75
 49
0.5
 49
-0.25
  0
LTYPE
  5
43B
  2
DOTTED
 70
0
  3
Dotted .  .  .  .
 72
65
 73
2
 40
0.2
 49
0.0
 49
-0.2
  0
ENDTAB
  0
TABLE
  2
STYLE
  70
4
  0
STYLE
  2
KICAD
  70
0
  40
0
  41
1
  42
1
  50
0
  71
0
  3
isocp.shx
  0
STYLE
  2
KICADB
  70
0
  40
0
  41
1
  42
1
  50
0
  71
0
  3
isocp.shx
  0
STYLE
  2
KICADI
  70
0
  40
0
  41
1
  42
1
  50
15
  71
0
  3
isocp.shx
  0
STYLE
  2
KICADBI
  70
0
  40
0
  41
1
  42
1
  50
15
  71
0
  3
isocp.shx
  0
ENDTAB
  0
TABLE
  2
LAYER
  70
1
  0
LAYER
  2
BLACK
  70
0
  62
7
  6
CONTINUOUS
  0
ENDTAB
  0
ENDSEC
  0
SECTION
  2
ENTITIES
0
LINE
8
BLACK
6
CONTINUOUS
10
70.2814
20
-61.2575
11
70.2815
21
-61.2571
0
LINE
8
BLACK
6
CONTINUOUS
10
70.2815
20
-61.2571
11
70.2814
21
-61.2567
0
LINE
8
BLACK
6
CONTINUOUS
10
70.2814
20
-61.2567
11
70.2828
21
-61.2448
0
LINE
8
BLACK
6
CONTINUOUS
10
70.2828
20
-61.2448
11
70.2842
21
-61.2329
0
LINE
8
BLACK
6
CONTINUOUS
10
70.2842
20
-61.2329
11
70.2843
21
-61.2325
0
LINE
8
BLACK
6
CONTINUOUS
10
70.2843
20
-61.2325
11
70.2844
21
-61.2321
0
LINE
8
BLACK
6
CONTINUOUS
10
70.2844
20
-61.2321
11
70.2881
21
-61.2207
0
LINE
8
BLACK
6
CONTINUOUS
10
70.2881
20
-61.2207
11
70.2917
21
-61.2093
0
LINE
8
BLACK
6
CONTINUOUS
10
70.2917
20
-61.2093
11
70.2919
21
-61.2089
0
LINE
8
BLACK
6
CONTINUOUS
10
70.2919
20
-61.2089
11
70.292
21
-61.2085
0
LINE
8
BLACK
6
CONTINUOUS
10
70.292
20
-61.2085
11
70.2978
21
-61.198
0
LINE
8
BLACK
6
CONTINUOUS
10
70.2978
20
-61.198
11
70.3036
21
-61.1876
0
LINE
8
BLACK
6
CONTINUOUS
10
70.3036
20
-61.1876
11
70.3039
21
-61.1872
0
LINE
8
BLACK
6
CONTINUOUS
10
70.3039
20
-61.1872
11
70.3041
21
-61.1868
0
LINE
8
BLACK
6
CONTINUOUS
10
70.3041
20
-61.1868
11
70.3118
21
-61.1777
0
LINE
8
BLACK
6
CONTINUOUS
10
70.3118
20
-61.1777
11
70.3195
21
-61.1686
0
LINE
8
BLACK
6
CONTINUOUS
10
70.3195
20
-61.1686
11
70.3199
21
-61.1683
0
LINE
8
BLACK
6
CONTINUOUS
10
70.3199
20
-61.1683
11
70.3202
21
-61.168
0
LINE
8
BLACK
6
CONTINUOUS
10
70.3202
20
-61.168
11
71.1959
21
-60.3221
0
LINE
8
BLACK
6
CONTINUOUS
10
71.1959
20
-60.3221
11
71.1971
21
-60.3209
0
LINE
8
BLACK
6
CONTINUOUS
10
71.1971
20
-60.3209
11
71.2056
21
-60.3144
0
LINE
8
BLACK
6
CONTINUOUS
10
71.2056
20
-60.3144
11
71.2138
21
-60.3077
0
LINE
8
BLACK
6
CONTINUOUS
10
71.2138
20
-60.3077
11
71.2154
21
-60.3069
0
LINE
8
BLACK
6
CONTINUOUS
10
71.2154
20
-60.3069
11
71.2168
21
-60.3058
0
LINE
8
BLACK
6
CONTINUOUS
10
71.2168
20
-60.3058
11
71.2263
21
-60.3011
0
LINE
8
BLACK
6
CONTINUOUS
10
71.2263
20
-60.3011
11
71.2357
21
-60.2961
0
LINE
8
BLACK
6
CONTINUOUS
10
71.2357
20
-60.2961
11
71.2374
21
-60.2956
0
LINE
8
BLACK
6
CONTINUOUS
10
71.2374
20
-60.2956
11
71.239
21
-60.2948
0
LINE
8
BLACK
6
CONTINUOUS
10
71.239
20
-60.2948
11
71.2492
21
-60.292
0
LINE
8
BLACK
6
CONTINUOUS
10
71.2492
20
-60.292
11
71.2594
21
-60.2889
0
LINE
8
BLACK
6
CONTINUOUS
10
71.2594
20
-60.2889
11
71.2612
21
-60.2887
0
LINE
8
BLACK
6
CONTINUOUS
10
71.2612
20
-60.2887
11
71.2629
21
-60.2883
0
LINE
8
BLACK
6
CONTINUOUS
10
71.2629
20
-60.2883
11
71.2735
21
-60.2875
0
LINE
8
BLACK
6
CONTINUOUS
10
71.2735
20
-60.2875
11
71.2841
21
-60.2865
0
LINE
8
BLACK
6
CONTINUOUS
10
71.2841
20
-60.2865
11
167.747
21
-60.2738
0
LINE
8
BLACK
6
CONTINUOUS
10
167.747
20
-60.2738
11
167.749
21
-60.2738
0
LINE
8
BLACK
6
CONTINUOUS
10
167.749
20
-60.2738
11
167.749
21
-60.2739
0
LINE
8
BLACK
6
CONTINUOUS
10
167.749
20
-60.2739
11
167.75
21
-60.2738
0
LINE
8
BLACK
6
CONTINUOUS
10
167.75
20
-60.2738
11
167.762
21
-60.2753
0
LINE
8
BLACK
6
CONTINUOUS
10
167.762
20
-60.2753
11
167.774
21
-60.2766
0
LINE
8
BLACK
6
CONTINUOUS
10
167.774
20
-60.2766
11
167.774
21
-60.2767
0
LINE
8
BLACK
6
CONTINUOUS
10
167.774
20
-60.2767
11
167.774
21
-60.2768
0
LINE
8
BLACK
6
CONTINUOUS
10
167.774
20
-60.2768
11
167.786
21
-60.2805
0
LINE
8
BLACK
6
CONTINUOUS
10
167.786
20
-60.2805
11
167.797
21
-60.2841
0
LINE
8
BLACK
6
CONTINUOUS
10
167.797
20
-60.2841
11
167.798
21
-60.2843
0
LINE
8
BLACK
6
CONTINUOUS
10
167.798
20
-60.2843
11
167.798
21
-60.2844
0
LINE
8
BLACK
6
CONTINUOUS
10
167.798
20
-60.2844
11
167.808
21
-60.2903
0
LINE
8
BLACK
6
CONTINUOUS
10
167.808
20
-60.2903
11
167.819
21
-60.296
0
LINE
8
BLACK
6
CONTINUOUS
10
167.819
20
-60.296
11
167.819
21
-60.2963
0
LINE
8
BLACK
6
CONTINUOUS
10
167.819
20
-60.2963
11
167.82
21
-60.2965
0
LINE
8
BLACK
6
CONTINUOUS
10
167.82
20
-60.2965
11
167.829
21
-60.3043
0
LINE
8
BLACK
6
CONTINUOUS
10
167.829
20
-60.3043
11
167.838
21
-60.312
0
LINE
8
BLACK
6
CONTINUOUS
10
167.838
20
-60.312
11
167.838
21
-60.3123
0
LINE
8
BLACK
6
CONTINUOUS
10
167.838
20
-60.3123
11
167.838
21
-60.3126
0
LINE
8
BLACK
6
CONTINUOUS
10
167.838
20
-60.3126
11
168.684
21
-61.1882
0
LINE
8
BLACK
6
CONTINUOUS
10
168.684
20
-61.1882
11
168.685
21
-61.1895
0
LINE
8
BLACK
6
CONTINUOUS
10
168.685
20
-61.1895
11
168.692
21
-61.1979
0
LINE
8
BLACK
6
CONTINUOUS
10
168.692
20
-61.1979
11
168.699
21
-61.2062
0
LINE
8
BLACK
6
CONTINUOUS
10
168.699
20
-61.2062
11
168.7
21
-61.2077
0
LINE
8
BLACK
6
CONTINUOUS
10
168.7
20
-61.2077
11
168.701
21
-61.2091
0
LINE
8
BLACK
6
CONTINUOUS
10
168.701
20
-61.2091
11
168.705
21
-61.2187
0
LINE
8
BLACK
6
CONTINUOUS
10
168.705
20
-61.2187
11
168.71
21
-61.2281
0
LINE
8
BLACK
6
CONTINUOUS
10
168.71
20
-61.2281
11
168.711
21
-61.2298
0
LINE
8
BLACK
6
CONTINUOUS
10
168.711
20
-61.2298
11
168.712
21
-61.2313
0
LINE
8
BLACK
6
CONTINUOUS
10
168.712
20
-61.2313
11
168.714
21
-61.2416
0
LINE
8
BLACK
6
CONTINUOUS
10
168.714
20
-61.2416
11
168.717
21
-61.2518
0
LINE
8
BLACK
6
CONTINUOUS
10
168.717
20
-61.2518
11
168.718
21
-61.2536
0
LINE
8
BLACK
6
CONTINUOUS
10
168.718
20
-61.2536
11
168.718
21
-61.2553
0
LINE
8
BLACK
6
CONTINUOUS
10
168.718
20
-61.2553
11
168.719
21
-61.2659
0
LINE
8
BLACK
6
CONTINUOUS
10
168.719
20
-61.2659
11
168.72
21
-61.2765
0
LINE
8
BLACK
6
CONTINUOUS
10
168.72
20
-61.2765
11
168.72
21
-98.748
0
LINE
8
BLACK
6
CONTINUOUS
10
168.72
20
-98.748
11
168.72
21
-98.7498
0
LINE
8
BLACK
6
CONTINUOUS
10
168.72
20
-98.7498
11
168.72
21
-98.7502
0
LINE
8
BLACK
6
CONTINUOUS
10
168.72
20
-98.7502
11
168.72
21
-98.7506
0
LINE
8
BLACK
6
CONTINUOUS
10
168.72
20
-98.7506
11
168.718
21
-98.7625
0
LINE
8
BLACK
6
CONTINUOUS
10
168.718
20
-98.7625
11
168.717
21
-98.7744
0
LINE
8
BLACK
6
CONTINUOUS
10
168.717
20
-98.7744
11
168.717
21
-98.7748
0
LINE
8
BLACK
6
CONTINUOUS
10
168.717
20
-98.7748
11
168.717
21
-98.7752
0
LINE
8
BLACK
6
CONTINUOUS
10
168.717
20
-98.7752
11
168.713
21
-98.7866
0
LINE
8
BLACK
6
CONTINUOUS
10
168.713
20
-98.7866
11
168.71
21
-98.798
0
LINE
8
BLACK
6
CONTINUOUS
10
168.71
20
-98.798
11
168.709
21
-98.7984
0
LINE
8
BLACK
6
CONTINUOUS
10
168.709
20
-98.7984
11
168.709
21
-98.7988
0
LINE
8
BLACK
6
CONTINUOUS
10
168.709
20
-98.7988
11
168.703
21
-98.8092
0
LINE
8
BLACK
6
CONTINUOUS
10
168.703
20
-98.8092
11
168.698
21
-98.8197
0
LINE
8
BLACK
6
CONTINUOUS
10
168.698
20
-98.8197
11
168.697
21
-98.8201
0
LINE
8
BLACK
6
CONTINUOUS
10
168.697
20
-98.8201
11
168.697
21
-98.8205
0
LINE
8
BLACK
6
CONTINUOUS
10
168.697
20
-98.8205
11
168.689
21
-98.8295
0
LINE
8
BLACK
6
CONTINUOUS
10
168.689
20
-98.8295
11
168.682
21
-98.8387
0
LINE
8
BLACK
6
CONTINUOUS
10
168.682
20
-98.8387
11
168.681
21
-98.839
0
LINE
8
BLACK
6
CONTINUOUS
10
168.681
20
-98.839
11
168.681
21
-98.8393
0
LINE
8
BLACK
6
CONTINUOUS
10
168.681
20
-98.8393
11
167.805
21
-99.6851
0
LINE
8
BLACK
6
CONTINUOUS
10
167.805
20
-99.6851
11
167.804
21
-99.6864
0
LINE
8
BLACK
6
CONTINUOUS
10
167.804
20
-99.6864
11
167.796
21
-99.6929
0
LINE
8
BLACK
6
CONTINUOUS
10
167.796
20
-99.6929
11
167.788
21
-99.6996
0
LINE
8
BLACK
6
CONTINUOUS
10
167.788
20
-99.6996
11
167.786
21
-99.7004
0
LINE
8
BLACK
6
CONTINUOUS
10
167.786
20
-99.7004
11
167.785
21
-99.7015
0
LINE
8
BLACK
6
CONTINUOUS
10
167.785
20
-99.7015
11
167.775
21
-99.7062
0
LINE
8
BLACK
6
CONTINUOUS
10
167.775
20
-99.7062
11
167.766
21
-99.7112
0
LINE
8
BLACK
6
CONTINUOUS
10
167.766
20
-99.7112
11
167.764
21
-99.7117
0
LINE
8
BLACK
6
CONTINUOUS
10
167.764
20
-99.7117
11
167.762
21
-99.7125
0
LINE
8
BLACK
6
CONTINUOUS
10
167.762
20
-99.7125
11
167.752
21
-99.7153
0
LINE
8
BLACK
6
CONTINUOUS
10
167.752
20
-99.7153
11
167.742
21
-99.7184
0
LINE
8
BLACK
6
CONTINUOUS
10
167.742
20
-99.7184
11
167.74
21
-99.7186
0
LINE
8
BLACK
6
CONTINUOUS
10
167.74
20
-99.7186
11
167.738
21
-99.719
0
LINE
8
BLACK
6
CONTINUOUS
10
167.738
20
-99.719
11
167.728
21
-99.7198
0
LINE
8
BLACK
6
CONTINUOUS
10
167.728
20
-99.7198
11
167.717
21
-99.7208
0
LINE
8
BLACK
6
CONTINUOUS
10
167.717
20
-99.7208
11
71.2542
21
-99.7208
0
LINE
8
BLACK
6
CONTINUOUS
10
71.2542
20
-99.7208
11
71.2524
21
-99.7208
0
LINE
8
BLACK
6
CONTINUOUS
10
71.2524
20
-99.7208
11
71.252
21
-99.7207
0
LINE
8
BLACK
6
CONTINUOUS
10
71.252
20
-99.7207
11
71.2516
21
-99.7208
0
LINE
8
BLACK
6
CONTINUOUS
10
71.2516
20
-99.7208
11
71.2398
21
-99.7194
0
LINE
8
BLACK
6
CONTINUOUS
10
71.2398
20
-99.7194
11
71.2278
21
-99.718
0
LINE
8
BLACK
6
CONTINUOUS
10
71.2278
20
-99.718
11
71.2274
21
-99.7179
0
LINE
8
BLACK
6
CONTINUOUS
10
71.2274
20
-99.7179
11
71.227
21
-99.7178
0
LINE
8
BLACK
6
CONTINUOUS
10
71.227
20
-99.7178
11
71.2157
21
-99.7142
0
LINE
8
BLACK
6
CONTINUOUS
10
71.2157
20
-99.7142
11
71.2042
21
-99.7105
0
LINE
8
BLACK
6
CONTINUOUS
10
71.2042
20
-99.7105
11
71.2038
21
-99.7103
0
LINE
8
BLACK
6
CONTINUOUS
10
71.2038
20
-99.7103
11
71.2034
21
-99.7102
0
LINE
8
BLACK
6
CONTINUOUS
10
71.2034
20
-99.7102
11
71.193
21
-99.7044
0
LINE
8
BLACK
6
CONTINUOUS
10
71.193
20
-99.7044
11
71.1825
21
-99.6986
0
LINE
8
BLACK
6
CONTINUOUS
10
71.1825
20
-99.6986
11
71.1821
21
-99.6983
0
LINE
8
BLACK
6
CONTINUOUS
10
71.1821
20
-99.6983
11
71.1817
21
-99.6981
0
LINE
8
BLACK
6
CONTINUOUS
10
71.1817
20
-99.6981
11
71.1726
21
-99.6903
0
LINE
8
BLACK
6
CONTINUOUS
10
71.1726
20
-99.6903
11
71.1635
21
-99.6827
0
LINE
8
BLACK
6
CONTINUOUS
10
71.1635
20
-99.6827
11
71.1632
21
-99.6823
0
LINE
8
BLACK
6
CONTINUOUS
10
71.1632
20
-99.6823
11
71.1629
21
-99.682
0
LINE
8
BLACK
6
CONTINUOUS
10
71.1629
20
-99.682
11
70.3171
21
-98.8064
0
LINE
8
BLACK
6
CONTINUOUS
10
70.3171
20
-98.8064
11
70.3158
21
-98.8051
0
LINE
8
BLACK
6
CONTINUOUS
10
70.3158
20
-98.8051
11
70.3093
21
-98.7967
0
LINE
8
BLACK
6
CONTINUOUS
10
70.3093
20
-98.7967
11
70.3026
21
-98.7884
0
LINE
8
BLACK
6
CONTINUOUS
10
70.3026
20
-98.7884
11
70.3018
21
-98.7869
0
LINE
8
BLACK
6
CONTINUOUS
10
70.3018
20
-98.7869
11
70.3007
21
-98.7855
0
LINE
8
BLACK
6
CONTINUOUS
10
70.3007
20
-98.7855
11
70.296
21
-98.7759
0
LINE
8
BLACK
6
CONTINUOUS
10
70.296
20
-98.7759
11
70.291
21
-98.7665
0
LINE
8
BLACK
6
CONTINUOUS
10
70.291
20
-98.7665
11
70.2905
21
-98.7648
0
LINE
8
BLACK
6
CONTINUOUS
10
70.2905
20
-98.7648
11
70.2897
21
-98.7633
0
LINE
8
BLACK
6
CONTINUOUS
10
70.2897
20
-98.7633
11
70.2869
21
-98.753
0
LINE
8
BLACK
6
CONTINUOUS
10
70.2869
20
-98.753
11
70.2838
21
-98.7428
0
LINE
8
BLACK
6
CONTINUOUS
10
70.2838
20
-98.7428
11
70.2836
21
-98.741
0
LINE
8
BLACK
6
CONTINUOUS
10
70.2836
20
-98.741
11
70.2832
21
-98.7393
0
LINE
8
BLACK
6
CONTINUOUS
10
70.2832
20
-98.7393
11
70.2824
21
-98.7287
0
LINE
8
BLACK
6
CONTINUOUS
10
70.2824
20
-98.7287
11
70.2814
21
-98.7181
0
LINE
8
BLACK
6
CONTINUOUS
10
70.2814
20
-98.7181
11
70.2814
21
-61.2593
0
LINE
8
BLACK
6
CONTINUOUS
10
70.2814
20
-61.2593
11
70.2814
21
-61.2575
0
LINE
8
BLACK
6
CONTINUOUS
10
149.296
20
-93.3198
11
148.938
21
-93.391
0
LINE
8
BLACK
6
CONTINUOUS
10
148.938
20
-93.391
11
148.601
21
-93.5308
0
LINE
8
BLACK
6
CONTINUOUS
10
148.601
20
-93.5308
11
148.297
21
-93.7337
0
LINE
8
BLACK
6
CONTINUOUS
10
148.297
20
-93.7337
11
148.039
21
-93.9919
0
LINE
8
BLACK
6
CONTINUOUS
10
148.039
20
-93.9919
11
147.836
21
-94.2956
0
LINE
8
BLACK
6
CONTINUOUS
10
147.836
20
-94.2956
11
147.696
21
-94.633
0
LINE
8
BLACK
6
CONTINUOUS
10
147.696
20
-94.633
11
147.625
21
-94.9912
0
LINE
8
BLACK
6
CONTINUOUS
10
147.625
20
-94.9912
11
147.625
21
-95.3564
0
LINE
8
BLACK
6
CONTINUOUS
10
147.625
20
-95.3564
11
147.696
21
-95.7146
0
LINE
8
BLACK
6
CONTINUOUS
10
147.696
20
-95.7146
11
147.836
21
-96.052
0
LINE
8
BLACK
6
CONTINUOUS
10
147.836
20
-96.052
11
148.039
21
-96.3557
0
LINE
8
BLACK
6
CONTINUOUS
10
148.039
20
-96.3557
11
148.297
21
-96.6139
0
LINE
8
BLACK
6
CONTINUOUS
10
148.297
20
-96.6139
11
148.601
21
-96.8168
0
LINE
8
BLACK
6
CONTINUOUS
10
148.601
20
-96.8168
11
148.938
21
-96.9566
0
LINE
8
BLACK
6
CONTINUOUS
10
148.938
20
-96.9566
11
149.296
21
-97.0278
0
LINE
8
BLACK
6
CONTINUOUS
10
149.296
20
-97.0278
11
149.662
21
-97.0278
0
LINE
8
BLACK
6
CONTINUOUS
10
149.662
20
-97.0278
11
150.02
21
-96.9566
0
LINE
8
BLACK
6
CONTINUOUS
10
150.02
20
-96.9566
11
150.357
21
-96.8168
0
LINE
8
BLACK
6
CONTINUOUS
10
150.357
20
-96.8168
11
150.661
21
-96.6139
0
LINE
8
BLACK
6
CONTINUOUS
10
150.661
20
-96.6139
11
150.919
21
-96.3557
0
LINE
8
BLACK
6
CONTINUOUS
10
150.919
20
-96.3557
11
151.122
21
-96.052
0
LINE
8
BLACK
6
CONTINUOUS
10
151.122
20
-96.052
11
151.262
21
-95.7146
0
LINE
8
BLACK
6
CONTINUOUS
10
151.262
20
-95.7146
11
151.333
21
-95.3564
0
LINE
8
BLACK
6
CONTINUOUS
10
151.333
20
-95.3564
11
151.333
21
-94.9912
0
LINE
8
BLACK
6
CONTINUOUS
10
151.333
20
-94.9912
11
151.262
21
-94.633
0
LINE
8
BLACK
6
CONTINUOUS
10
151.262
20
-94.633
11
151.122
21
-94.2956
0
LINE
8
BLACK
6
CONTINUOUS
10
151.122
20
-94.2956
11
150.919
21
-93.9919
0
LINE
8
BLACK
6
CONTINUOUS
10
150.919
20
-93.9919
11
150.661
21
-93.7337
0
LINE
8
BLACK
6
CONTINUOUS
10
150.661
20
-93.7337
11
150.357
21
-93.5308
0
LINE
8
BLACK
6
CONTINUOUS
10
150.357
20
-93.5308
11
150.02
21
-93.391
0
LINE
8
BLACK
6
CONTINUOUS
10
150.02
20
-93.391
11
149.662
21
-93.3198
0
LINE
8
BLACK
6
CONTINUOUS
10
149.662
20
-93.3198
11
149.296
21
-93.3198
0
LINE
8
BLACK
6
CONTINUOUS
10
91.2924
20
-94.5949
11
91.1526
21
-94.2575
0
LINE
8
BLACK
6
CONTINUOUS
10
91.1526
20
-94.2575
11
90.9497
21
-93.9538
0
LINE
8
BLACK
6
CONTINUOUS
10
90.9497
20
-93.9538
11
90.6915
21
-93.6956
0
LINE
8
BLACK
6
CONTINUOUS
10
90.6915
20
-93.6956
11
90.3878
21
-93.4927
0
LINE
8
BLACK
6
CONTINUOUS
10
90.3878
20
-93.4927
11
90.0504
21
-93.3529
0
LINE
8
BLACK
6
CONTINUOUS
10
90.0504
20
-93.3529
11
89.6922
21
-93.2817
0
LINE
8
BLACK
6
CONTINUOUS
10
89.6922
20
-93.2817
11
89.327
21
-93.2817
0
LINE
8
BLACK
6
CONTINUOUS
10
89.327
20
-93.2817
11
88.9688
21
-93.3529
0
LINE
8
BLACK
6
CONTINUOUS
10
88.9688
20
-93.3529
11
88.6314
21
-93.4927
0
LINE
8
BLACK
6
CONTINUOUS
10
88.6314
20
-93.4927
11
88.3277
21
-93.6956
0
LINE
8
BLACK
6
CONTINUOUS
10
88.3277
20
-93.6956
11
88.0695
21
-93.9538
0
LINE
8
BLACK
6
CONTINUOUS
10
88.0695
20
-93.9538
11
87.8666
21
-94.2575
0
LINE
8
BLACK
6
CONTINUOUS
10
87.8666
20
-94.2575
11
87.7268
21
-94.5949
0
LINE
8
BLACK
6
CONTINUOUS
10
87.7268
20
-94.5949
11
87.6556
21
-94.9531
0
LINE
8
BLACK
6
CONTINUOUS
10
87.6556
20
-94.9531
11
87.6556
21
-95.3183
0
LINE
8
BLACK
6
CONTINUOUS
10
87.6556
20
-95.3183
11
87.7268
21
-95.6765
0
LINE
8
BLACK
6
CONTINUOUS
10
87.7268
20
-95.6765
11
87.8666
21
-96.0139
0
LINE
8
BLACK
6
CONTINUOUS
10
87.8666
20
-96.0139
11
88.0695
21
-96.3176
0
LINE
8
BLACK
6
CONTINUOUS
10
88.0695
20
-96.3176
11
88.3277
21
-96.5758
0
LINE
8
BLACK
6
CONTINUOUS
10
88.3277
20
-96.5758
11
88.6314
21
-96.7787
0
LINE
8
BLACK
6
CONTINUOUS
10
88.6314
20
-96.7787
11
88.9688
21
-96.9185
0
LINE
8
BLACK
6
CONTINUOUS
10
88.9688
20
-96.9185
11
89.327
21
-96.9897
0
LINE
8
BLACK
6
CONTINUOUS
10
89.327
20
-96.9897
11
89.6922
21
-96.9897
0
LINE
8
BLACK
6
CONTINUOUS
10
89.6922
20
-96.9897
11
90.0504
21
-96.9185
0
LINE
8
BLACK
6
CONTINUOUS
10
90.0504
20
-96.9185
11
90.3878
21
-96.7787
0
LINE
8
BLACK
6
CONTINUOUS
10
90.3878
20
-96.7787
11
90.6915
21
-96.5758
0
LINE
8
BLACK
6
CONTINUOUS
10
90.6915
20
-96.5758
11
90.9497
21
-96.3176
0
LINE
8
BLACK
6
CONTINUOUS
10
90.9497
20
-96.3176
11
91.1526
21
-96.0139
0
LINE
8
BLACK
6
CONTINUOUS
10
91.1526
20
-96.0139
11
91.2924
21
-95.6765
0
LINE
8
BLACK
6
CONTINUOUS
10
91.2924
20
-95.6765
11
91.3636
21
-95.3183
0
LINE
8
BLACK
6
CONTINUOUS
10
91.3636
20
-95.3183
11
91.3636
21
-94.9531
0
LINE
8
BLACK
6
CONTINUOUS
10
91.3636
20
-94.9531
11
91.2924
21
-94.5949
0
LINE
8
BLACK
6
CONTINUOUS
10
105.022
20
-74.9552
11
105.02
21
-74.9553
0
LINE
8
BLACK
6
CONTINUOUS
10
105.02
20
-74.9553
11
105.014
21
-74.9553
0
LINE
8
BLACK
6
CONTINUOUS
10
105.014
20
-74.9553
11
105.009
21
-74.9558
0
LINE
8
BLACK
6
CONTINUOUS
10
105.009
20
-74.9558
11
90.9519
21
-74.9558
0
LINE
8
BLACK
6
CONTINUOUS
10
90.9519
20
-74.9558
11
90.9502
21
-74.9558
0
LINE
8
BLACK
6
CONTINUOUS
10
90.9502
20
-74.9558
11
90.9448
21
-74.9552
0
LINE
8
BLACK
6
CONTINUOUS
10
90.9448
20
-74.9552
11
90.9395
21
-74.9552
0
LINE
8
BLACK
6
CONTINUOUS
10
90.9395
20
-74.9552
11
90.932
21
-74.9544
0
LINE
8
BLACK
6
CONTINUOUS
10
90.932
20
-74.9544
11
90.9245
21
-74.9552
0
LINE
8
BLACK
6
CONTINUOUS
10
90.9245
20
-74.9552
11
90.9245
21
-74.9552
0
LINE
8
BLACK
6
CONTINUOUS
10
90.9245
20
-74.9552
11
90.8773
21
-74.9598
0
LINE
8
BLACK
6
CONTINUOUS
10
90.8773
20
-74.9598
11
90.8247
21
-74.9758
0
LINE
8
BLACK
6
CONTINUOUS
10
90.8247
20
-74.9758
11
90.7762
21
-75.0017
0
LINE
8
BLACK
6
CONTINUOUS
10
90.7762
20
-75.0017
11
90.7338
21
-75.0366
0
LINE
8
BLACK
6
CONTINUOUS
10
90.7338
20
-75.0366
11
90.6989
21
-75.079
0
LINE
8
BLACK
6
CONTINUOUS
10
90.6989
20
-75.079
11
90.673
21
-75.1275
0
LINE
8
BLACK
6
CONTINUOUS
10
90.673
20
-75.1275
11
90.657
21
-75.1801
0
LINE
8
BLACK
6
CONTINUOUS
10
90.657
20
-75.1801
11
90.6516
21
-75.2348
0
LINE
8
BLACK
6
CONTINUOUS
10
90.6516
20
-75.2348
11
90.6524
21
-75.2423
0
LINE
8
BLACK
6
CONTINUOUS
10
90.6524
20
-75.2423
11
90.6526
21
-75.2441
0
LINE
8
BLACK
6
CONTINUOUS
10
90.6526
20
-75.2441
11
90.6525
21
-75.2494
0
LINE
8
BLACK
6
CONTINUOUS
10
90.6525
20
-75.2494
11
90.653
21
-75.2548
0
LINE
8
BLACK
6
CONTINUOUS
10
90.653
20
-75.2548
11
90.653
21
-82.4539
0
LINE
8
BLACK
6
CONTINUOUS
10
90.653
20
-82.4539
11
90.653
21
-82.4556
0
LINE
8
BLACK
6
CONTINUOUS
10
90.653
20
-82.4556
11
90.6524
21
-82.461
0
LINE
8
BLACK
6
CONTINUOUS
10
90.6524
20
-82.461
11
90.6524
21
-82.4663
0
LINE
8
BLACK
6
CONTINUOUS
10
90.6524
20
-82.4663
11
90.6517
21
-82.4738
0
LINE
8
BLACK
6
CONTINUOUS
10
90.6517
20
-82.4738
11
90.6524
21
-82.4813
0
LINE
8
BLACK
6
CONTINUOUS
10
90.6524
20
-82.4813
11
90.6524
21
-82.4815
0
LINE
8
BLACK
6
CONTINUOUS
10
90.6524
20
-82.4815
11
90.657
21
-82.5285
0
LINE
8
BLACK
6
CONTINUOUS
10
90.657
20
-82.5285
11
90.673
21
-82.5811
0
LINE
8
BLACK
6
CONTINUOUS
10
90.673
20
-82.5811
11
90.6989
21
-82.6296
0
LINE
8
BLACK
6
CONTINUOUS
10
90.6989
20
-82.6296
11
90.7338
21
-82.672
0
LINE
8
BLACK
6
CONTINUOUS
10
90.7338
20
-82.672
11
90.7396
21
-82.6768
0
LINE
8
BLACK
6
CONTINUOUS
10
90.7396
20
-82.6768
11
90.741
21
-82.678
0
LINE
8
BLACK
6
CONTINUOUS
10
90.741
20
-82.678
11
90.7447
21
-82.6818
0
LINE
8
BLACK
6
CONTINUOUS
10
90.7447
20
-82.6818
11
90.7488
21
-82.6852
0
LINE
8
BLACK
6
CONTINUOUS
10
90.7488
20
-82.6852
11
92.1176
21
-84.054
0
LINE
8
BLACK
6
CONTINUOUS
10
92.1176
20
-84.054
11
92.1189
21
-84.0552
0
LINE
8
BLACK
6
CONTINUOUS
10
92.1189
20
-84.0552
11
92.1222
21
-84.0594
0
LINE
8
BLACK
6
CONTINUOUS
10
92.1222
20
-84.0594
11
92.126
21
-84.0632
0
LINE
8
BLACK
6
CONTINUOUS
10
92.126
20
-84.0632
11
92.1308
21
-84.069
0
LINE
8
BLACK
6
CONTINUOUS
10
92.1308
20
-84.069
11
92.1732
21
-84.1039
0
LINE
8
BLACK
6
CONTINUOUS
10
92.1732
20
-84.1039
11
92.2217
21
-84.1298
0
LINE
8
BLACK
6
CONTINUOUS
10
92.2217
20
-84.1298
11
92.2631
21
-84.1423
0
LINE
8
BLACK
6
CONTINUOUS
10
92.2631
20
-84.1423
11
92.2631
21
-84.1424
0
LINE
8
BLACK
6
CONTINUOUS
10
92.2631
20
-84.1424
11
92.2743
21
-84.1458
0
LINE
8
BLACK
6
CONTINUOUS
10
92.2743
20
-84.1458
11
92.3215
21
-84.1504
0
LINE
8
BLACK
6
CONTINUOUS
10
92.3215
20
-84.1504
11
92.3215
21
-84.1504
0
LINE
8
BLACK
6
CONTINUOUS
10
92.3215
20
-84.1504
11
92.329
21
-84.1511
0
LINE
8
BLACK
6
CONTINUOUS
10
92.329
20
-84.1511
11
92.3365
21
-84.1504
0
LINE
8
BLACK
6
CONTINUOUS
10
92.3365
20
-84.1504
11
92.3383
21
-84.1502
0
LINE
8
BLACK
6
CONTINUOUS
10
92.3383
20
-84.1502
11
92.3436
21
-84.1503
0
LINE
8
BLACK
6
CONTINUOUS
10
92.3436
20
-84.1503
11
92.3489
21
-84.1498
0
LINE
8
BLACK
6
CONTINUOUS
10
92.3489
20
-84.1498
11
103.476
21
-84.1498
0
LINE
8
BLACK
6
CONTINUOUS
10
103.476
20
-84.1498
11
103.478
21
-84.1498
0
LINE
8
BLACK
6
CONTINUOUS
10
103.478
20
-84.1498
11
103.486
21
-84.1507
0
LINE
8
BLACK
6
CONTINUOUS
10
103.486
20
-84.1507
11
103.492
21
-84.151
0
LINE
8
BLACK
6
CONTINUOUS
10
103.492
20
-84.151
11
103.509
21
-84.15
0
LINE
8
BLACK
6
CONTINUOUS
10
103.509
20
-84.15
11
103.511
21
-84.1499
0
LINE
8
BLACK
6
CONTINUOUS
10
103.511
20
-84.1499
11
103.514
21
-84.1501
0
LINE
8
BLACK
6
CONTINUOUS
10
103.514
20
-84.1501
11
103.516
21
-84.1498
0
LINE
8
BLACK
6
CONTINUOUS
10
103.516
20
-84.1498
11
103.519
21
-84.1498
0
LINE
8
BLACK
6
CONTINUOUS
10
103.519
20
-84.1498
11
103.524
21
-84.1493
0
LINE
8
BLACK
6
CONTINUOUS
10
103.524
20
-84.1493
11
103.525
21
-84.1492
0
LINE
8
BLACK
6
CONTINUOUS
10
103.525
20
-84.1492
11
103.527
21
-84.1492
0
LINE
8
BLACK
6
CONTINUOUS
10
103.527
20
-84.1492
11
103.529
21
-84.1489
0
LINE
8
BLACK
6
CONTINUOUS
10
103.529
20
-84.1489
11
103.55
21
-84.1477
0
LINE
8
BLACK
6
CONTINUOUS
10
103.55
20
-84.1477
11
103.555
21
-84.1471
0
LINE
8
BLACK
6
CONTINUOUS
10
103.555
20
-84.1471
11
103.556
21
-84.1468
0
LINE
8
BLACK
6
CONTINUOUS
10
103.556
20
-84.1468
11
103.578
21
-84.1403
0
LINE
8
BLACK
6
CONTINUOUS
10
103.578
20
-84.1403
11
103.579
21
-84.1398
0
LINE
8
BLACK
6
CONTINUOUS
10
103.579
20
-84.1398
11
103.581
21
-84.1395
0
LINE
8
BLACK
6
CONTINUOUS
10
103.581
20
-84.1395
11
103.583
21
-84.1389
0
LINE
8
BLACK
6
CONTINUOUS
10
103.583
20
-84.1389
11
103.603
21
-84.1336
0
LINE
8
BLACK
6
CONTINUOUS
10
103.603
20
-84.1336
11
103.608
21
-84.1321
0
LINE
8
BLACK
6
CONTINUOUS
10
103.608
20
-84.1321
11
103.609
21
-84.1315
0
LINE
8
BLACK
6
CONTINUOUS
10
103.609
20
-84.1315
11
103.629
21
-84.121
0
LINE
8
BLACK
6
CONTINUOUS
10
103.629
20
-84.121
11
103.63
21
-84.1202
0
LINE
8
BLACK
6
CONTINUOUS
10
103.63
20
-84.1202
11
103.632
21
-84.1195
0
LINE
8
BLACK
6
CONTINUOUS
10
103.632
20
-84.1195
11
103.634
21
-84.1185
0
LINE
8
BLACK
6
CONTINUOUS
10
103.634
20
-84.1185
11
103.653
21
-84.1093
0
LINE
8
BLACK
6
CONTINUOUS
10
103.653
20
-84.1093
11
103.657
21
-84.1071
0
LINE
8
BLACK
6
CONTINUOUS
10
103.657
20
-84.1071
11
103.658
21
-84.1062
0
LINE
8
BLACK
6
CONTINUOUS
10
103.658
20
-84.1062
11
103.675
21
-84.0921
0
LINE
8
BLACK
6
CONTINUOUS
10
103.675
20
-84.0921
11
103.677
21
-84.0909
0
LINE
8
BLACK
6
CONTINUOUS
10
103.677
20
-84.0909
11
103.678
21
-84.0899
0
LINE
8
BLACK
6
CONTINUOUS
10
103.678
20
-84.0899
11
103.68
21
-84.0886
0
LINE
8
BLACK
6
CONTINUOUS
10
103.68
20
-84.0886
11
103.683
21
-84.0857
0
LINE
8
BLACK
6
CONTINUOUS
10
103.683
20
-84.0857
11
103.685
21
-84.084
0
LINE
8
BLACK
6
CONTINUOUS
10
103.685
20
-84.084
11
103.687
21
-84.0828
0
LINE
8
BLACK
6
CONTINUOUS
10
103.687
20
-84.0828
11
103.689
21
-84.0813
0
LINE
8
BLACK
6
CONTINUOUS
10
103.689
20
-84.0813
11
103.691
21
-84.0794
0
LINE
8
BLACK
6
CONTINUOUS
10
103.691
20
-84.0794
11
103.703
21
-84.069
0
LINE
8
BLACK
6
CONTINUOUS
10
103.703
20
-84.069
11
103.704
21
-84.0687
0
LINE
8
BLACK
6
CONTINUOUS
10
103.704
20
-84.0687
11
103.709
21
-84.063
0
LINE
8
BLACK
6
CONTINUOUS
10
103.709
20
-84.063
11
103.715
21
-84.057
0
LINE
8
BLACK
6
CONTINUOUS
10
103.715
20
-84.057
11
105.209
21
-82.687
0
LINE
8
BLACK
6
CONTINUOUS
10
105.209
20
-82.687
11
105.211
21
-82.6858
0
LINE
8
BLACK
6
CONTINUOUS
10
105.211
20
-82.6858
11
105.213
21
-82.6842
0
LINE
8
BLACK
6
CONTINUOUS
10
105.213
20
-82.6842
11
105.215
21
-82.6824
0
LINE
8
BLACK
6
CONTINUOUS
10
105.215
20
-82.6824
11
105.227
21
-82.672
0
LINE
8
BLACK
6
CONTINUOUS
10
105.227
20
-82.672
11
105.239
21
-82.6576
0
LINE
8
BLACK
6
CONTINUOUS
10
105.239
20
-82.6576
11
105.24
21
-82.6563
0
LINE
8
BLACK
6
CONTINUOUS
10
105.24
20
-82.6563
11
105.242
21
-82.6549
0
LINE
8
BLACK
6
CONTINUOUS
10
105.242
20
-82.6549
11
105.243
21
-82.6534
0
LINE
8
BLACK
6
CONTINUOUS
10
105.243
20
-82.6534
11
105.257
21
-82.6376
0
LINE
8
BLACK
6
CONTINUOUS
10
105.257
20
-82.6376
11
105.26
21
-82.6341
0
LINE
8
BLACK
6
CONTINUOUS
10
105.26
20
-82.6341
11
105.26
21
-82.6327
0
LINE
8
BLACK
6
CONTINUOUS
10
105.26
20
-82.6327
11
105.271
21
-82.6131
0
LINE
8
BLACK
6
CONTINUOUS
10
105.271
20
-82.6131
11
105.272
21
-82.6115
0
LINE
8
BLACK
6
CONTINUOUS
10
105.272
20
-82.6115
11
105.273
21
-82.61
0
LINE
8
BLACK
6
CONTINUOUS
10
105.273
20
-82.61
11
105.274
21
-82.6083
0
LINE
8
BLACK
6
CONTINUOUS
10
105.274
20
-82.6083
11
105.284
21
-82.59
0
LINE
8
BLACK
6
CONTINUOUS
10
105.284
20
-82.59
11
105.286
21
-82.586
0
LINE
8
BLACK
6
CONTINUOUS
10
105.286
20
-82.586
11
105.287
21
-82.5845
0
LINE
8
BLACK
6
CONTINUOUS
10
105.287
20
-82.5845
11
105.293
21
-82.5632
0
LINE
8
BLACK
6
CONTINUOUS
10
105.293
20
-82.5632
11
105.294
21
-82.5615
0
LINE
8
BLACK
6
CONTINUOUS
10
105.294
20
-82.5615
11
105.295
21
-82.5598
0
LINE
8
BLACK
6
CONTINUOUS
10
105.295
20
-82.5598
11
105.295
21
-82.558
0
LINE
8
BLACK
6
CONTINUOUS
10
105.295
20
-82.558
11
105.302
21
-82.538
0
LINE
8
BLACK
6
CONTINUOUS
10
105.302
20
-82.538
11
105.303
21
-82.5337
0
LINE
8
BLACK
6
CONTINUOUS
10
105.303
20
-82.5337
11
105.304
21
-82.5321
0
LINE
8
BLACK
6
CONTINUOUS
10
105.304
20
-82.5321
11
105.306
21
-82.5099
0
LINE
8
BLACK
6
CONTINUOUS
10
105.306
20
-82.5099
11
105.306
21
-82.5082
0
LINE
8
BLACK
6
CONTINUOUS
10
105.306
20
-82.5082
11
105.306
21
-82.5063
0
LINE
8
BLACK
6
CONTINUOUS
10
105.306
20
-82.5063
11
105.306
21
-82.5044
0
LINE
8
BLACK
6
CONTINUOUS
10
105.306
20
-82.5044
11
105.309
21
-82.486
0
LINE
8
BLACK
6
CONTINUOUS
10
105.309
20
-82.486
11
105.308
21
-82.4697
0
LINE
8
BLACK
6
CONTINUOUS
10
105.308
20
-82.4697
11
105.308
21
-82.4679
0
LINE
8
BLACK
6
CONTINUOUS
10
105.308
20
-82.4679
11
105.308
21
-82.4653
0
LINE
8
BLACK
6
CONTINUOUS
10
105.308
20
-82.4653
11
105.308
21
-82.4627
0
LINE
8
BLACK
6
CONTINUOUS
10
105.308
20
-82.4627
11
105.308
21
-75.2547
0
LINE
8
BLACK
6
CONTINUOUS
10
105.308
20
-75.2547
11
105.308
21
-75.253
0
LINE
8
BLACK
6
CONTINUOUS
10
105.308
20
-75.253
11
105.309
21
-75.2476
0
LINE
8
BLACK
6
CONTINUOUS
10
105.309
20
-75.2476
11
105.309
21
-75.2423
0
LINE
8
BLACK
6
CONTINUOUS
10
105.309
20
-75.2423
11
105.309
21
-75.2348
0
LINE
8
BLACK
6
CONTINUOUS
10
105.309
20
-75.2348
11
105.304
21
-75.1801
0
LINE
8
BLACK
6
CONTINUOUS
10
105.304
20
-75.1801
11
105.288
21
-75.1275
0
LINE
8
BLACK
6
CONTINUOUS
10
105.288
20
-75.1275
11
105.262
21
-75.079
0
LINE
8
BLACK
6
CONTINUOUS
10
105.262
20
-75.079
11
105.227
21
-75.0366
0
LINE
8
BLACK
6
CONTINUOUS
10
105.227
20
-75.0366
11
105.185
21
-75.0017
0
LINE
8
BLACK
6
CONTINUOUS
10
105.185
20
-75.0017
11
105.136
21
-74.9758
0
LINE
8
BLACK
6
CONTINUOUS
10
105.136
20
-74.9758
11
105.084
21
-74.9598
0
LINE
8
BLACK
6
CONTINUOUS
10
105.084
20
-74.9598
11
105.036
21
-74.9552
0
LINE
8
BLACK
6
CONTINUOUS
10
105.036
20
-74.9552
11
105.036
21
-74.9552
0
LINE
8
BLACK
6
CONTINUOUS
10
105.036
20
-74.9552
11
105.029
21
-74.9544
0
LINE
8
BLACK
6
CONTINUOUS
10
105.029
20
-74.9544
11
105.022
21
-74.9552
0
LINE
8
BLACK
6
CONTINUOUS
10
138.828
20
-72.145
11
138.364
21
-72.2374
0
LINE
8
BLACK
6
CONTINUOUS
10
138.364
20
-72.2374
11
137.926
21
-72.4186
0
LINE
8
BLACK
6
CONTINUOUS
10
137.926
20
-72.4186
11
137.533
21
-72.6817
0
LINE
8
BLACK
6
CONTINUOUS
10
137.533
20
-72.6817
11
137.198
21
-73.0165
0
LINE
8
BLACK
6
CONTINUOUS
10
137.198
20
-73.0165
11
136.935
21
-73.4103
0
LINE
8
BLACK
6
CONTINUOUS
10
136.935
20
-73.4103
11
136.753
21
-73.8478
0
LINE
8
BLACK
6
CONTINUOUS
10
136.753
20
-73.8478
11
136.661
21
-74.3122
0
LINE
8
BLACK
6
CONTINUOUS
10
136.661
20
-74.3122
11
136.661
21
-74.7858
0
LINE
8
BLACK
6
CONTINUOUS
10
136.661
20
-74.7858
11
136.753
21
-75.2502
0
LINE
8
BLACK
6
CONTINUOUS
10
136.753
20
-75.2502
11
136.935
21
-75.6877
0
LINE
8
BLACK
6
CONTINUOUS
10
136.935
20
-75.6877
11
137.198
21
-76.0815
0
LINE
8
BLACK
6
CONTINUOUS
10
137.198
20
-76.0815
11
137.533
21
-76.4163
0
LINE
8
BLACK
6
CONTINUOUS
10
137.533
20
-76.4163
11
137.926
21
-76.6794
0
LINE
8
BLACK
6
CONTINUOUS
10
137.926
20
-76.6794
11
138.364
21
-76.8606
0
LINE
8
BLACK
6
CONTINUOUS
10
138.364
20
-76.8606
11
138.828
21
-76.953
0
LINE
8
BLACK
6
CONTINUOUS
10
138.828
20
-76.953
11
139.302
21
-76.953
0
LINE
8
BLACK
6
CONTINUOUS
10
139.302
20
-76.953
11
139.766
21
-76.8606
0
LINE
8
BLACK
6
CONTINUOUS
10
139.766
20
-76.8606
11
140.204
21
-76.6794
0
LINE
8
BLACK
6
CONTINUOUS
10
140.204
20
-76.6794
11
140.597
21
-76.4163
0
LINE
8
BLACK
6
CONTINUOUS
10
140.597
20
-76.4163
11
140.932
21
-76.0815
0
LINE
8
BLACK
6
CONTINUOUS
10
140.932
20
-76.0815
11
141.195
21
-75.6877
0
LINE
8
BLACK
6
CONTINUOUS
10
141.195
20
-75.6877
11
141.377
21
-75.2502
0
LINE
8
BLACK
6
CONTINUOUS
10
141.377
20
-75.2502
11
141.469
21
-74.7858
0
LINE
8
BLACK
6
CONTINUOUS
10
141.469
20
-74.7858
11
141.469
21
-74.3122
0
LINE
8
BLACK
6
CONTINUOUS
10
141.469
20
-74.3122
11
141.377
21
-73.8478
0
LINE
8
BLACK
6
CONTINUOUS
10
141.377
20
-73.8478
11
141.195
21
-73.4103
0
LINE
8
BLACK
6
CONTINUOUS
10
141.195
20
-73.4103
11
140.932
21
-73.0165
0
LINE
8
BLACK
6
CONTINUOUS
10
140.932
20
-73.0165
11
140.597
21
-72.6817
0
LINE
8
BLACK
6
CONTINUOUS
10
140.597
20
-72.6817
11
140.204
21
-72.4186
0
LINE
8
BLACK
6
CONTINUOUS
10
140.204
20
-72.4186
11
139.766
21
-72.2374
0
LINE
8
BLACK
6
CONTINUOUS
10
139.766
20
-72.2374
11
139.302
21
-72.145
0
LINE
8
BLACK
6
CONTINUOUS
10
139.302
20
-72.145
11
138.828
21
-72.145
0
LINE
8
BLACK
6
CONTINUOUS
10
126.89
20
-72.145
11
126.426
21
-72.2374
0
LINE
8
BLACK
6
CONTINUOUS
10
126.426
20
-72.2374
11
125.988
21
-72.4186
0
LINE
8
BLACK
6
CONTINUOUS
10
125.988
20
-72.4186
11
125.595
21
-72.6817
0
LINE
8
BLACK
6
CONTINUOUS
10
125.595
20
-72.6817
11
125.26
21
-73.0165
0
LINE
8
BLACK
6
CONTINUOUS
10
125.26
20
-73.0165
11
124.997
21
-73.4103
0
LINE
8
BLACK
6
CONTINUOUS
10
124.997
20
-73.4103
11
124.815
21
-73.8478
0
LINE
8
BLACK
6
CONTINUOUS
10
124.815
20
-73.8478
11
124.723
21
-74.3122
0
LINE
8
BLACK
6
CONTINUOUS
10
124.723
20
-74.3122
11
124.723
21
-74.7858
0
LINE
8
BLACK
6
CONTINUOUS
10
124.723
20
-74.7858
11
124.815
21
-75.2502
0
LINE
8
BLACK
6
CONTINUOUS
10
124.815
20
-75.2502
11
124.997
21
-75.6877
0
LINE
8
BLACK
6
CONTINUOUS
10
124.997
20
-75.6877
11
125.26
21
-76.0815
0
LINE
8
BLACK
6
CONTINUOUS
10
125.26
20
-76.0815
11
125.595
21
-76.4163
0
LINE
8
BLACK
6
CONTINUOUS
10
125.595
20
-76.4163
11
125.988
21
-76.6794
0
LINE
8
BLACK
6
CONTINUOUS
10
125.988
20
-76.6794
11
126.426
21
-76.8606
0
LINE
8
BLACK
6
CONTINUOUS
10
126.426
20
-76.8606
11
126.89
21
-76.953
0
LINE
8
BLACK
6
CONTINUOUS
10
126.89
20
-76.953
11
127.364
21
-76.953
0
LINE
8
BLACK
6
CONTINUOUS
10
127.364
20
-76.953
11
127.828
21
-76.8606
0
LINE
8
BLACK
6
CONTINUOUS
10
127.828
20
-76.8606
11
128.266
21
-76.6794
0
LINE
8
BLACK
6
CONTINUOUS
10
128.266
20
-76.6794
11
128.659
21
-76.4163
0
LINE
8
BLACK
6
CONTINUOUS
10
128.659
20
-76.4163
11
128.994
21
-76.0815
0
LINE
8
BLACK
6
CONTINUOUS
10
128.994
20
-76.0815
11
129.257
21
-75.6877
0
LINE
8
BLACK
6
CONTINUOUS
10
129.257
20
-75.6877
11
129.439
21
-75.2502
0
LINE
8
BLACK
6
CONTINUOUS
10
129.439
20
-75.2502
11
129.531
21
-74.7858
0
LINE
8
BLACK
6
CONTINUOUS
10
129.531
20
-74.7858
11
129.531
21
-74.3122
0
LINE
8
BLACK
6
CONTINUOUS
10
129.531
20
-74.3122
11
129.439
21
-73.8478
0
LINE
8
BLACK
6
CONTINUOUS
10
129.439
20
-73.8478
11
129.257
21
-73.4103
0
LINE
8
BLACK
6
CONTINUOUS
10
129.257
20
-73.4103
11
128.994
21
-73.0165
0
LINE
8
BLACK
6
CONTINUOUS
10
128.994
20
-73.0165
11
128.659
21
-72.6817
0
LINE
8
BLACK
6
CONTINUOUS
10
128.659
20
-72.6817
11
128.266
21
-72.4186
0
LINE
8
BLACK
6
CONTINUOUS
10
128.266
20
-72.4186
11
127.828
21
-72.2374
0
LINE
8
BLACK
6
CONTINUOUS
10
127.828
20
-72.2374
11
127.364
21
-72.145
0
LINE
8
BLACK
6
CONTINUOUS
10
127.364
20
-72.145
11
126.89
21
-72.145
0
LINE
8
BLACK
6
CONTINUOUS
10
114.952
20
-72.145
11
114.488
21
-72.2374
0
LINE
8
BLACK
6
CONTINUOUS
10
114.488
20
-72.2374
11
114.05
21
-72.4186
0
LINE
8
BLACK
6
CONTINUOUS
10
114.05
20
-72.4186
11
113.657
21
-72.6817
0
LINE
8
BLACK
6
CONTINUOUS
10
113.657
20
-72.6817
11
113.322
21
-73.0165
0
LINE
8
BLACK
6
CONTINUOUS
10
113.322
20
-73.0165
11
113.059
21
-73.4103
0
LINE
8
BLACK
6
CONTINUOUS
10
113.059
20
-73.4103
11
112.877
21
-73.8478
0
LINE
8
BLACK
6
CONTINUOUS
10
112.877
20
-73.8478
11
112.785
21
-74.3122
0
LINE
8
BLACK
6
CONTINUOUS
10
112.785
20
-74.3122
11
112.785
21
-74.7858
0
LINE
8
BLACK
6
CONTINUOUS
10
112.785
20
-74.7858
11
112.877
21
-75.2502
0
LINE
8
BLACK
6
CONTINUOUS
10
112.877
20
-75.2502
11
113.059
21
-75.6877
0
LINE
8
BLACK
6
CONTINUOUS
10
113.059
20
-75.6877
11
113.322
21
-76.0815
0
LINE
8
BLACK
6
CONTINUOUS
10
113.322
20
-76.0815
11
113.657
21
-76.4163
0
LINE
8
BLACK
6
CONTINUOUS
10
113.657
20
-76.4163
11
114.05
21
-76.6794
0
LINE
8
BLACK
6
CONTINUOUS
10
114.05
20
-76.6794
11
114.488
21
-76.8606
0
LINE
8
BLACK
6
CONTINUOUS
10
114.488
20
-76.8606
11
114.952
21
-76.953
0
LINE
8
BLACK
6
CONTINUOUS
10
114.952
20
-76.953
11
115.426
21
-76.953
0
LINE
8
BLACK
6
CONTINUOUS
10
115.426
20
-76.953
11
115.89
21
-76.8606
0
LINE
8
BLACK
6
CONTINUOUS
10
115.89
20
-76.8606
11
116.328
21
-76.6794
0
LINE
8
BLACK
6
CONTINUOUS
10
116.328
20
-76.6794
11
116.721
21
-76.4163
0
LINE
8
BLACK
6
CONTINUOUS
10
116.721
20
-76.4163
11
117.056
21
-76.0815
0
LINE
8
BLACK
6
CONTINUOUS
10
117.056
20
-76.0815
11
117.319
21
-75.6877
0
LINE
8
BLACK
6
CONTINUOUS
10
117.319
20
-75.6877
11
117.501
21
-75.2502
0
LINE
8
BLACK
6
CONTINUOUS
10
117.501
20
-75.2502
11
117.593
21
-74.7858
0
LINE
8
BLACK
6
CONTINUOUS
10
117.593
20
-74.7858
11
117.593
21
-74.3122
0
LINE
8
BLACK
6
CONTINUOUS
10
117.593
20
-74.3122
11
117.501
21
-73.8478
0
LINE
8
BLACK
6
CONTINUOUS
10
117.501
20
-73.8478
11
117.319
21
-73.4103
0
LINE
8
BLACK
6
CONTINUOUS
10
117.319
20
-73.4103
11
117.056
21
-73.0165
0
LINE
8
BLACK
6
CONTINUOUS
10
117.056
20
-73.0165
11
116.721
21
-72.6817
0
LINE
8
BLACK
6
CONTINUOUS
10
116.721
20
-72.6817
11
116.328
21
-72.4186
0
LINE
8
BLACK
6
CONTINUOUS
10
116.328
20
-72.4186
11
115.89
21
-72.2374
0
LINE
8
BLACK
6
CONTINUOUS
10
115.89
20
-72.2374
11
115.426
21
-72.145
0
LINE
8
BLACK
6
CONTINUOUS
10
115.426
20
-72.145
11
114.952
21
-72.145
0
LINE
8
BLACK
6
CONTINUOUS
10
104.641
20
-70.2562
11
104.639
21
-70.2563
0
LINE
8
BLACK
6
CONTINUOUS
10
104.639
20
-70.2563
11
104.633
21
-70.2563
0
LINE
8
BLACK
6
CONTINUOUS
10
104.633
20
-70.2563
11
104.628
21
-70.2568
0
LINE
8
BLACK
6
CONTINUOUS
10
104.628
20
-70.2568
11
91.3329
21
-70.2568
0
LINE
8
BLACK
6
CONTINUOUS
10
91.3329
20
-70.2568
11
91.3312
21
-70.2568
0
LINE
8
BLACK
6
CONTINUOUS
10
91.3312
20
-70.2568
11
91.3258
21
-70.2562
0
LINE
8
BLACK
6
CONTINUOUS
10
91.3258
20
-70.2562
11
91.3205
21
-70.2562
0
LINE
8
BLACK
6
CONTINUOUS
10
91.3205
20
-70.2562
11
91.313
21
-70.2554
0
LINE
8
BLACK
6
CONTINUOUS
10
91.313
20
-70.2554
11
91.3055
21
-70.2562
0
LINE
8
BLACK
6
CONTINUOUS
10
91.3055
20
-70.2562
11
91.3055
21
-70.2562
0
LINE
8
BLACK
6
CONTINUOUS
10
91.3055
20
-70.2562
11
91.2583
21
-70.2608
0
LINE
8
BLACK
6
CONTINUOUS
10
91.2583
20
-70.2608
11
91.2057
21
-70.2768
0
LINE
8
BLACK
6
CONTINUOUS
10
91.2057
20
-70.2768
11
91.1572
21
-70.3027
0
LINE
8
BLACK
6
CONTINUOUS
10
91.1572
20
-70.3027
11
91.1148
21
-70.3376
0
LINE
8
BLACK
6
CONTINUOUS
10
91.1148
20
-70.3376
11
91.0799
21
-70.38
0
LINE
8
BLACK
6
CONTINUOUS
10
91.0799
20
-70.38
11
91.054
21
-70.4285
0
LINE
8
BLACK
6
CONTINUOUS
10
91.054
20
-70.4285
11
91.038
21
-70.4811
0
LINE
8
BLACK
6
CONTINUOUS
10
91.038
20
-70.4811
11
91.0326
21
-70.5358
0
LINE
8
BLACK
6
CONTINUOUS
10
91.0326
20
-70.5358
11
91.0334
21
-70.5433
0
LINE
8
BLACK
6
CONTINUOUS
10
91.0334
20
-70.5433
11
91.0335
21
-70.5451
0
LINE
8
BLACK
6
CONTINUOUS
10
91.0335
20
-70.5451
11
91.0335
21
-70.5504
0
LINE
8
BLACK
6
CONTINUOUS
10
91.0335
20
-70.5504
11
91.034
21
-70.5557
0
LINE
8
BLACK
6
CONTINUOUS
10
91.034
20
-70.5557
11
91.034
21
-73.0558
0
LINE
8
BLACK
6
CONTINUOUS
10
91.034
20
-73.0558
11
91.034
21
-73.0576
0
LINE
8
BLACK
6
CONTINUOUS
10
91.034
20
-73.0576
11
91.0334
21
-73.0629
0
LINE
8
BLACK
6
CONTINUOUS
10
91.0334
20
-73.0629
11
91.0334
21
-73.0683
0
LINE
8
BLACK
6
CONTINUOUS
10
91.0334
20
-73.0683
11
91.0326
21
-73.0758
0
LINE
8
BLACK
6
CONTINUOUS
10
91.0326
20
-73.0758
11
91.038
21
-73.1305
0
LINE
8
BLACK
6
CONTINUOUS
10
91.038
20
-73.1305
11
91.054
21
-73.1831
0
LINE
8
BLACK
6
CONTINUOUS
10
91.054
20
-73.1831
11
91.0799
21
-73.2316
0
LINE
8
BLACK
6
CONTINUOUS
10
91.0799
20
-73.2316
11
91.1148
21
-73.274
0
LINE
8
BLACK
6
CONTINUOUS
10
91.1148
20
-73.274
11
91.1572
21
-73.3089
0
LINE
8
BLACK
6
CONTINUOUS
10
91.1572
20
-73.3089
11
91.2057
21
-73.3348
0
LINE
8
BLACK
6
CONTINUOUS
10
91.2057
20
-73.3348
11
91.2583
21
-73.3508
0
LINE
8
BLACK
6
CONTINUOUS
10
91.2583
20
-73.3508
11
91.3055
21
-73.3554
0
LINE
8
BLACK
6
CONTINUOUS
10
91.3055
20
-73.3554
11
91.3055
21
-73.3554
0
LINE
8
BLACK
6
CONTINUOUS
10
91.3055
20
-73.3554
11
91.313
21
-73.3561
0
LINE
8
BLACK
6
CONTINUOUS
10
91.313
20
-73.3561
11
91.3205
21
-73.3554
0
LINE
8
BLACK
6
CONTINUOUS
10
91.3205
20
-73.3554
11
91.3223
21
-73.3552
0
LINE
8
BLACK
6
CONTINUOUS
10
91.3223
20
-73.3552
11
91.3276
21
-73.3553
0
LINE
8
BLACK
6
CONTINUOUS
10
91.3276
20
-73.3553
11
91.3329
21
-73.3548
0
LINE
8
BLACK
6
CONTINUOUS
10
91.3329
20
-73.3548
11
104.628
21
-73.3548
0
LINE
8
BLACK
6
CONTINUOUS
10
104.628
20
-73.3548
11
104.63
21
-73.3548
0
LINE
8
BLACK
6
CONTINUOUS
10
104.63
20
-73.3548
11
104.635
21
-73.3554
0
LINE
8
BLACK
6
CONTINUOUS
10
104.635
20
-73.3554
11
104.641
21
-73.3554
0
LINE
8
BLACK
6
CONTINUOUS
10
104.641
20
-73.3554
11
104.648
21
-73.3561
0
LINE
8
BLACK
6
CONTINUOUS
10
104.648
20
-73.3561
11
104.703
21
-73.3508
0
LINE
8
BLACK
6
CONTINUOUS
10
104.703
20
-73.3508
11
104.755
21
-73.3348
0
LINE
8
BLACK
6
CONTINUOUS
10
104.755
20
-73.3348
11
104.804
21
-73.3089
0
LINE
8
BLACK
6
CONTINUOUS
10
104.804
20
-73.3089
11
104.846
21
-73.274
0
LINE
8
BLACK
6
CONTINUOUS
10
104.846
20
-73.274
11
104.881
21
-73.2316
0
LINE
8
BLACK
6
CONTINUOUS
10
104.881
20
-73.2316
11
104.907
21
-73.1831
0
LINE
8
BLACK
6
CONTINUOUS
10
104.907
20
-73.1831
11
104.923
21
-73.1305
0
LINE
8
BLACK
6
CONTINUOUS
10
104.923
20
-73.1305
11
104.928
21
-73.0833
0
LINE
8
BLACK
6
CONTINUOUS
10
104.928
20
-73.0833
11
104.928
21
-73.0833
0
LINE
8
BLACK
6
CONTINUOUS
10
104.928
20
-73.0833
11
104.928
21
-73.0758
0
LINE
8
BLACK
6
CONTINUOUS
10
104.928
20
-73.0758
11
104.928
21
-73.0683
0
LINE
8
BLACK
6
CONTINUOUS
10
104.928
20
-73.0683
11
104.927
21
-73.0665
0
LINE
8
BLACK
6
CONTINUOUS
10
104.927
20
-73.0665
11
104.928
21
-73.0612
0
LINE
8
BLACK
6
CONTINUOUS
10
104.928
20
-73.0612
11
104.927
21
-73.0559
0
LINE
8
BLACK
6
CONTINUOUS
10
104.927
20
-73.0559
11
104.927
21
-70.5557
0
LINE
8
BLACK
6
CONTINUOUS
10
104.927
20
-70.5557
11
104.927
21
-70.554
0
LINE
8
BLACK
6
CONTINUOUS
10
104.927
20
-70.554
11
104.928
21
-70.5486
0
LINE
8
BLACK
6
CONTINUOUS
10
104.928
20
-70.5486
11
104.928
21
-70.5433
0
LINE
8
BLACK
6
CONTINUOUS
10
104.928
20
-70.5433
11
104.928
21
-70.5358
0
LINE
8
BLACK
6
CONTINUOUS
10
104.928
20
-70.5358
11
104.923
21
-70.4811
0
LINE
8
BLACK
6
CONTINUOUS
10
104.923
20
-70.4811
11
104.907
21
-70.4285
0
LINE
8
BLACK
6
CONTINUOUS
10
104.907
20
-70.4285
11
104.881
21
-70.38
0
LINE
8
BLACK
6
CONTINUOUS
10
104.881
20
-70.38
11
104.846
21
-70.3376
0
LINE
8
BLACK
6
CONTINUOUS
10
104.846
20
-70.3376
11
104.804
21
-70.3027
0
LINE
8
BLACK
6
CONTINUOUS
10
104.804
20
-70.3027
11
104.755
21
-70.2768
0
LINE
8
BLACK
6
CONTINUOUS
10
104.755
20
-70.2768
11
104.703
21
-70.2608
0
LINE
8
BLACK
6
CONTINUOUS
10
104.703
20
-70.2608
11
104.655
21
-70.2562
0
LINE
8
BLACK
6
CONTINUOUS
10
104.655
20
-70.2562
11
104.655
21
-70.2562
0
LINE
8
BLACK
6
CONTINUOUS
10
104.655
20
-70.2562
11
104.648
21
-70.2554
0
LINE
8
BLACK
6
CONTINUOUS
10
104.648
20
-70.2554
11
104.641
21
-70.2562
0
LINE
8
BLACK
6
CONTINUOUS
10
85.1333
20
-68.529
11
85.1315
21
-68.5292
0
LINE
8
BLACK
6
CONTINUOUS
10
85.1315
20
-68.5292
11
85.1262
21
-68.5291
0
LINE
8
BLACK
6
CONTINUOUS
10
85.1262
20
-68.5291
11
85.1209
21
-68.5296
0
LINE
8
BLACK
6
CONTINUOUS
10
85.1209
20
-68.5296
11
79.0139
21
-68.5296
0
LINE
8
BLACK
6
CONTINUOUS
10
79.0139
20
-68.5296
11
79.0122
21
-68.5296
0
LINE
8
BLACK
6
CONTINUOUS
10
79.0122
20
-68.5296
11
79.0068
21
-68.529
0
LINE
8
BLACK
6
CONTINUOUS
10
79.0068
20
-68.529
11
79.0015
21
-68.529
0
LINE
8
BLACK
6
CONTINUOUS
10
79.0015
20
-68.529
11
78.994
21
-68.5282
0
LINE
8
BLACK
6
CONTINUOUS
10
78.994
20
-68.5282
11
78.9865
21
-68.529
0
LINE
8
BLACK
6
CONTINUOUS
10
78.9865
20
-68.529
11
78.9865
21
-68.529
0
LINE
8
BLACK
6
CONTINUOUS
10
78.9865
20
-68.529
11
78.9393
21
-68.5336
0
LINE
8
BLACK
6
CONTINUOUS
10
78.9393
20
-68.5336
11
78.8867
21
-68.5496
0
LINE
8
BLACK
6
CONTINUOUS
10
78.8867
20
-68.5496
11
78.8382
21
-68.5755
0
LINE
8
BLACK
6
CONTINUOUS
10
78.8382
20
-68.5755
11
78.7958
21
-68.6104
0
LINE
8
BLACK
6
CONTINUOUS
10
78.7958
20
-68.6104
11
78.7609
21
-68.6528
0
LINE
8
BLACK
6
CONTINUOUS
10
78.7609
20
-68.6528
11
78.735
21
-68.7013
0
LINE
8
BLACK
6
CONTINUOUS
10
78.735
20
-68.7013
11
78.719
21
-68.7539
0
LINE
8
BLACK
6
CONTINUOUS
10
78.719
20
-68.7539
11
78.7137
21
-68.8086
0
LINE
8
BLACK
6
CONTINUOUS
10
78.7137
20
-68.8086
11
78.7144
21
-68.8161
0
LINE
8
BLACK
6
CONTINUOUS
10
78.7144
20
-68.8161
11
78.7146
21
-68.8179
0
LINE
8
BLACK
6
CONTINUOUS
10
78.7146
20
-68.8179
11
78.7145
21
-68.8232
0
LINE
8
BLACK
6
CONTINUOUS
10
78.7145
20
-68.8232
11
78.715
21
-68.8285
0
LINE
8
BLACK
6
CONTINUOUS
10
78.715
20
-68.8285
11
78.715
21
-70.3888
0
LINE
8
BLACK
6
CONTINUOUS
10
78.715
20
-70.3888
11
78.715
21
-70.3906
0
LINE
8
BLACK
6
CONTINUOUS
10
78.715
20
-70.3906
11
78.7144
21
-70.3959
0
LINE
8
BLACK
6
CONTINUOUS
10
78.7144
20
-70.3959
11
78.7144
21
-70.4013
0
LINE
8
BLACK
6
CONTINUOUS
10
78.7144
20
-70.4013
11
78.7137
21
-70.4088
0
LINE
8
BLACK
6
CONTINUOUS
10
78.7137
20
-70.4088
11
78.719
21
-70.4635
0
LINE
8
BLACK
6
CONTINUOUS
10
78.719
20
-70.4635
11
78.735
21
-70.5161
0
LINE
8
BLACK
6
CONTINUOUS
10
78.735
20
-70.5161
11
78.7609
21
-70.5646
0
LINE
8
BLACK
6
CONTINUOUS
10
78.7609
20
-70.5646
11
78.7958
21
-70.607
0
LINE
8
BLACK
6
CONTINUOUS
10
78.7958
20
-70.607
11
78.8382
21
-70.6419
0
LINE
8
BLACK
6
CONTINUOUS
10
78.8382
20
-70.6419
11
78.8867
21
-70.6678
0
LINE
8
BLACK
6
CONTINUOUS
10
78.8867
20
-70.6678
11
78.9393
21
-70.6838
0
LINE
8
BLACK
6
CONTINUOUS
10
78.9393
20
-70.6838
11
78.9865
21
-70.6884
0
LINE
8
BLACK
6
CONTINUOUS
10
78.9865
20
-70.6884
11
78.9865
21
-70.6884
0
LINE
8
BLACK
6
CONTINUOUS
10
78.9865
20
-70.6884
11
78.994
21
-70.6891
0
LINE
8
BLACK
6
CONTINUOUS
10
78.994
20
-70.6891
11
79.0015
21
-70.6884
0
LINE
8
BLACK
6
CONTINUOUS
10
79.0015
20
-70.6884
11
79.0033
21
-70.6882
0
LINE
8
BLACK
6
CONTINUOUS
10
79.0033
20
-70.6882
11
79.0086
21
-70.6883
0
LINE
8
BLACK
6
CONTINUOUS
10
79.0086
20
-70.6883
11
79.0139
21
-70.6878
0
LINE
8
BLACK
6
CONTINUOUS
10
79.0139
20
-70.6878
11
85.1209
21
-70.6878
0
LINE
8
BLACK
6
CONTINUOUS
10
85.1209
20
-70.6878
11
85.1226
21
-70.6878
0
LINE
8
BLACK
6
CONTINUOUS
10
85.1226
20
-70.6878
11
85.128
21
-70.6884
0
LINE
8
BLACK
6
CONTINUOUS
10
85.128
20
-70.6884
11
85.1333
21
-70.6884
0
LINE
8
BLACK
6
CONTINUOUS
10
85.1333
20
-70.6884
11
85.1408
21
-70.6891
0
LINE
8
BLACK
6
CONTINUOUS
10
85.1408
20
-70.6891
11
85.1483
21
-70.6884
0
LINE
8
BLACK
6
CONTINUOUS
10
85.1483
20
-70.6884
11
85.1483
21
-70.6884
0
LINE
8
BLACK
6
CONTINUOUS
10
85.1483
20
-70.6884
11
85.1955
21
-70.6838
0
LINE
8
BLACK
6
CONTINUOUS
10
85.1955
20
-70.6838
11
85.2481
21
-70.6678
0
LINE
8
BLACK
6
CONTINUOUS
10
85.2481
20
-70.6678
11
85.2966
21
-70.6419
0
LINE
8
BLACK
6
CONTINUOUS
10
85.2966
20
-70.6419
11
85.339
21
-70.607
0
LINE
8
BLACK
6
CONTINUOUS
10
85.339
20
-70.607
11
85.3739
21
-70.5646
0
LINE
8
BLACK
6
CONTINUOUS
10
85.3739
20
-70.5646
11
85.3998
21
-70.5161
0
LINE
8
BLACK
6
CONTINUOUS
10
85.3998
20
-70.5161
11
85.405
21
-70.4989
0
LINE
8
BLACK
6
CONTINUOUS
10
85.405
20
-70.4989
11
85.405
21
-70.4989
0
LINE
8
BLACK
6
CONTINUOUS
10
85.405
20
-70.4989
11
85.4158
21
-70.4635
0
LINE
8
BLACK
6
CONTINUOUS
10
85.4158
20
-70.4635
11
85.4211
21
-70.4088
0
LINE
8
BLACK
6
CONTINUOUS
10
85.4211
20
-70.4088
11
85.4204
21
-70.4013
0
LINE
8
BLACK
6
CONTINUOUS
10
85.4204
20
-70.4013
11
85.4202
21
-70.3995
0
LINE
8
BLACK
6
CONTINUOUS
10
85.4202
20
-70.3995
11
85.4203
21
-70.3942
0
LINE
8
BLACK
6
CONTINUOUS
10
85.4203
20
-70.3942
11
85.4198
21
-70.3889
0
LINE
8
BLACK
6
CONTINUOUS
10
85.4198
20
-70.3889
11
85.4198
21
-68.8285
0
LINE
8
BLACK
6
CONTINUOUS
10
85.4198
20
-68.8285
11
85.4198
21
-68.8268
0
LINE
8
BLACK
6
CONTINUOUS
10
85.4198
20
-68.8268
11
85.4204
21
-68.8214
0
LINE
8
BLACK
6
CONTINUOUS
10
85.4204
20
-68.8214
11
85.4204
21
-68.8161
0
LINE
8
BLACK
6
CONTINUOUS
10
85.4204
20
-68.8161
11
85.4211
21
-68.8086
0
LINE
8
BLACK
6
CONTINUOUS
10
85.4211
20
-68.8086
11
85.4158
21
-68.7539
0
LINE
8
BLACK
6
CONTINUOUS
10
85.4158
20
-68.7539
11
85.3998
21
-68.7013
0
LINE
8
BLACK
6
CONTINUOUS
10
85.3998
20
-68.7013
11
85.3739
21
-68.6528
0
LINE
8
BLACK
6
CONTINUOUS
10
85.3739
20
-68.6528
11
85.339
21
-68.6104
0
LINE
8
BLACK
6
CONTINUOUS
10
85.339
20
-68.6104
11
85.2966
21
-68.5755
0
LINE
8
BLACK
6
CONTINUOUS
10
85.2966
20
-68.5755
11
85.2481
21
-68.5496
0
LINE
8
BLACK
6
CONTINUOUS
10
85.2481
20
-68.5496
11
85.1955
21
-68.5336
0
LINE
8
BLACK
6
CONTINUOUS
10
85.1955
20
-68.5336
11
85.1483
21
-68.529
0
LINE
8
BLACK
6
CONTINUOUS
10
85.1483
20
-68.529
11
85.1483
21
-68.529
0
LINE
8
BLACK
6
CONTINUOUS
10
85.1483
20
-68.529
11
85.1408
21
-68.5282
0
LINE
8
BLACK
6
CONTINUOUS
10
85.1408
20
-68.5282
11
85.1333
21
-68.529
0
LINE
8
BLACK
6
CONTINUOUS
10
157.079
20
-68.5163
11
157.077
21
-68.5164
0
LINE
8
BLACK
6
CONTINUOUS
10
157.077
20
-68.5164
11
157.072
21
-68.5164
0
LINE
8
BLACK
6
CONTINUOUS
10
157.072
20
-68.5164
11
157.066
21
-68.5169
0
LINE
8
BLACK
6
CONTINUOUS
10
157.066
20
-68.5169
11
150.947
21
-68.5169
0
LINE
8
BLACK
6
CONTINUOUS
10
150.947
20
-68.5169
11
150.945
21
-68.5169
0
LINE
8
BLACK
6
CONTINUOUS
10
150.945
20
-68.5169
11
150.94
21
-68.5163
0
LINE
8
BLACK
6
CONTINUOUS
10
150.94
20
-68.5163
11
150.934
21
-68.5163
0
LINE
8
BLACK
6
CONTINUOUS
10
150.934
20
-68.5163
11
150.927
21
-68.5155
0
LINE
8
BLACK
6
CONTINUOUS
10
150.927
20
-68.5155
11
150.919
21
-68.5163
0
LINE
8
BLACK
6
CONTINUOUS
10
150.919
20
-68.5163
11
150.919
21
-68.5163
0
LINE
8
BLACK
6
CONTINUOUS
10
150.919
20
-68.5163
11
150.872
21
-68.5209
0
LINE
8
BLACK
6
CONTINUOUS
10
150.872
20
-68.5209
11
150.82
21
-68.5369
0
LINE
8
BLACK
6
CONTINUOUS
10
150.82
20
-68.5369
11
150.771
21
-68.5628
0
LINE
8
BLACK
6
CONTINUOUS
10
150.771
20
-68.5628
11
150.729
21
-68.5977
0
LINE
8
BLACK
6
CONTINUOUS
10
150.729
20
-68.5977
11
150.694
21
-68.6401
0
LINE
8
BLACK
6
CONTINUOUS
10
150.694
20
-68.6401
11
150.668
21
-68.6886
0
LINE
8
BLACK
6
CONTINUOUS
10
150.668
20
-68.6886
11
150.652
21
-68.7412
0
LINE
8
BLACK
6
CONTINUOUS
10
150.652
20
-68.7412
11
150.646
21
-68.7959
0
LINE
8
BLACK
6
CONTINUOUS
10
150.646
20
-68.7959
11
150.647
21
-68.8034
0
LINE
8
BLACK
6
CONTINUOUS
10
150.647
20
-68.8034
11
150.647
21
-68.8052
0
LINE
8
BLACK
6
CONTINUOUS
10
150.647
20
-68.8052
11
150.647
21
-68.8105
0
LINE
8
BLACK
6
CONTINUOUS
10
150.647
20
-68.8105
11
150.648
21
-68.8158
0
LINE
8
BLACK
6
CONTINUOUS
10
150.648
20
-68.8158
11
150.648
21
-70.3761
0
LINE
8
BLACK
6
CONTINUOUS
10
150.648
20
-70.3761
11
150.648
21
-70.3779
0
LINE
8
BLACK
6
CONTINUOUS
10
150.648
20
-70.3779
11
150.647
21
-70.3832
0
LINE
8
BLACK
6
CONTINUOUS
10
150.647
20
-70.3832
11
150.647
21
-70.3886
0
LINE
8
BLACK
6
CONTINUOUS
10
150.647
20
-70.3886
11
150.646
21
-70.3961
0
LINE
8
BLACK
6
CONTINUOUS
10
150.646
20
-70.3961
11
150.652
21
-70.4508
0
LINE
8
BLACK
6
CONTINUOUS
10
150.652
20
-70.4508
11
150.668
21
-70.5034
0
LINE
8
BLACK
6
CONTINUOUS
10
150.668
20
-70.5034
11
150.694
21
-70.5519
0
LINE
8
BLACK
6
CONTINUOUS
10
150.694
20
-70.5519
11
150.729
21
-70.5943
0
LINE
8
BLACK
6
CONTINUOUS
10
150.729
20
-70.5943
11
150.771
21
-70.6292
0
LINE
8
BLACK
6
CONTINUOUS
10
150.771
20
-70.6292
11
150.82
21
-70.6551
0
LINE
8
BLACK
6
CONTINUOUS
10
150.82
20
-70.6551
11
150.872
21
-70.6711
0
LINE
8
BLACK
6
CONTINUOUS
10
150.872
20
-70.6711
11
150.919
21
-70.6757
0
LINE
8
BLACK
6
CONTINUOUS
10
150.919
20
-70.6757
11
150.919
21
-70.6757
0
LINE
8
BLACK
6
CONTINUOUS
10
150.919
20
-70.6757
11
150.927
21
-70.6765
0
LINE
8
BLACK
6
CONTINUOUS
10
150.927
20
-70.6765
11
150.934
21
-70.6757
0
LINE
8
BLACK
6
CONTINUOUS
10
150.934
20
-70.6757
11
150.936
21
-70.6756
0
LINE
8
BLACK
6
CONTINUOUS
10
150.936
20
-70.6756
11
150.941
21
-70.6756
0
LINE
8
BLACK
6
CONTINUOUS
10
150.941
20
-70.6756
11
150.947
21
-70.6751
0
LINE
8
BLACK
6
CONTINUOUS
10
150.947
20
-70.6751
11
157.066
21
-70.6751
0
LINE
8
BLACK
6
CONTINUOUS
10
157.066
20
-70.6751
11
157.068
21
-70.6751
0
LINE
8
BLACK
6
CONTINUOUS
10
157.068
20
-70.6751
11
157.073
21
-70.6757
0
LINE
8
BLACK
6
CONTINUOUS
10
157.073
20
-70.6757
11
157.079
21
-70.6757
0
LINE
8
BLACK
6
CONTINUOUS
10
157.079
20
-70.6757
11
157.086
21
-70.6765
0
LINE
8
BLACK
6
CONTINUOUS
10
157.086
20
-70.6765
11
157.094
21
-70.6757
0
LINE
8
BLACK
6
CONTINUOUS
10
157.094
20
-70.6757
11
157.094
21
-70.6757
0
LINE
8
BLACK
6
CONTINUOUS
10
157.094
20
-70.6757
11
157.141
21
-70.6711
0
LINE
8
BLACK
6
CONTINUOUS
10
157.141
20
-70.6711
11
157.194
21
-70.6551
0
LINE
8
BLACK
6
CONTINUOUS
10
157.194
20
-70.6551
11
157.242
21
-70.6292
0
LINE
8
BLACK
6
CONTINUOUS
10
157.242
20
-70.6292
11
157.285
21
-70.5943
0
LINE
8
BLACK
6
CONTINUOUS
10
157.285
20
-70.5943
11
157.319
21
-70.5519
0
LINE
8
BLACK
6
CONTINUOUS
10
157.319
20
-70.5519
11
157.345
21
-70.5034
0
LINE
8
BLACK
6
CONTINUOUS
10
157.345
20
-70.5034
11
157.361
21
-70.4508
0
LINE
8
BLACK
6
CONTINUOUS
10
157.361
20
-70.4508
11
157.367
21
-70.3961
0
LINE
8
BLACK
6
CONTINUOUS
10
157.367
20
-70.3961
11
157.366
21
-70.3886
0
LINE
8
BLACK
6
CONTINUOUS
10
157.366
20
-70.3886
11
157.366
21
-70.3868
0
LINE
8
BLACK
6
CONTINUOUS
10
157.366
20
-70.3868
11
157.366
21
-70.3815
0
LINE
8
BLACK
6
CONTINUOUS
10
157.366
20
-70.3815
11
157.365
21
-70.3762
0
LINE
8
BLACK
6
CONTINUOUS
10
157.365
20
-70.3762
11
157.365
21
-68.8158
0
LINE
8
BLACK
6
CONTINUOUS
10
157.365
20
-68.8158
11
157.365
21
-68.8141
0
LINE
8
BLACK
6
CONTINUOUS
10
157.365
20
-68.8141
11
157.366
21
-68.8087
0
LINE
8
BLACK
6
CONTINUOUS
10
157.366
20
-68.8087
11
157.366
21
-68.8034
0
LINE
8
BLACK
6
CONTINUOUS
10
157.366
20
-68.8034
11
157.367
21
-68.7959
0
LINE
8
BLACK
6
CONTINUOUS
10
157.367
20
-68.7959
11
157.361
21
-68.7412
0
LINE
8
BLACK
6
CONTINUOUS
10
157.361
20
-68.7412
11
157.345
21
-68.6886
0
LINE
8
BLACK
6
CONTINUOUS
10
157.345
20
-68.6886
11
157.319
21
-68.6401
0
LINE
8
BLACK
6
CONTINUOUS
10
157.319
20
-68.6401
11
157.285
21
-68.5977
0
LINE
8
BLACK
6
CONTINUOUS
10
157.285
20
-68.5977
11
157.242
21
-68.5628
0
LINE
8
BLACK
6
CONTINUOUS
10
157.242
20
-68.5628
11
157.194
21
-68.5369
0
LINE
8
BLACK
6
CONTINUOUS
10
157.194
20
-68.5369
11
157.141
21
-68.5209
0
LINE
8
BLACK
6
CONTINUOUS
10
157.141
20
-68.5209
11
157.094
21
-68.5163
0
LINE
8
BLACK
6
CONTINUOUS
10
157.094
20
-68.5163
11
157.094
21
-68.5163
0
LINE
8
BLACK
6
CONTINUOUS
10
157.094
20
-68.5163
11
157.086
21
-68.5155
0
LINE
8
BLACK
6
CONTINUOUS
10
157.086
20
-68.5155
11
157.079
21
-68.5163
0
LINE
8
BLACK
6
CONTINUOUS
10
104.691
20
-66.4589
11
104.69
21
-66.459
0
LINE
8
BLACK
6
CONTINUOUS
10
104.69
20
-66.459
11
104.684
21
-66.459
0
LINE
8
BLACK
6
CONTINUOUS
10
104.684
20
-66.459
11
104.679
21
-66.4595
0
LINE
8
BLACK
6
CONTINUOUS
10
104.679
20
-66.4595
11
99.7149
21
-66.4595
0
LINE
8
BLACK
6
CONTINUOUS
10
99.7149
20
-66.4595
11
99.7132
21
-66.4595
0
LINE
8
BLACK
6
CONTINUOUS
10
99.7132
20
-66.4595
11
99.7078
21
-66.4589
0
LINE
8
BLACK
6
CONTINUOUS
10
99.7078
20
-66.4589
11
99.7025
21
-66.4589
0
LINE
8
BLACK
6
CONTINUOUS
10
99.7025
20
-66.4589
11
99.695
21
-66.4582
0
LINE
8
BLACK
6
CONTINUOUS
10
99.695
20
-66.4582
11
99.6875
21
-66.4589
0
LINE
8
BLACK
6
CONTINUOUS
10
99.6875
20
-66.4589
11
99.6875
21
-66.4589
0
LINE
8
BLACK
6
CONTINUOUS
10
99.6875
20
-66.4589
11
99.6403
21
-66.4635
0
LINE
8
BLACK
6
CONTINUOUS
10
99.6403
20
-66.4635
11
99.5877
21
-66.4795
0
LINE
8
BLACK
6
CONTINUOUS
10
99.5877
20
-66.4795
11
99.5392
21
-66.5054
0
LINE
8
BLACK
6
CONTINUOUS
10
99.5392
20
-66.5054
11
99.4968
21
-66.5403
0
LINE
8
BLACK
6
CONTINUOUS
10
99.4968
20
-66.5403
11
99.4619
21
-66.5827
0
LINE
8
BLACK
6
CONTINUOUS
10
99.4619
20
-66.5827
11
99.436
21
-66.6312
0
LINE
8
BLACK
6
CONTINUOUS
10
99.436
20
-66.6312
11
99.42
21
-66.6838
0
LINE
8
BLACK
6
CONTINUOUS
10
99.42
20
-66.6838
11
99.4146
21
-66.7385
0
LINE
8
BLACK
6
CONTINUOUS
10
99.4146
20
-66.7385
11
99.4154
21
-66.746
0
LINE
8
BLACK
6
CONTINUOUS
10
99.4154
20
-66.746
11
99.4155
21
-66.7478
0
LINE
8
BLACK
6
CONTINUOUS
10
99.4155
20
-66.7478
11
99.4155
21
-66.7531
0
LINE
8
BLACK
6
CONTINUOUS
10
99.4155
20
-66.7531
11
99.416
21
-66.7584
0
LINE
8
BLACK
6
CONTINUOUS
10
99.416
20
-66.7584
11
99.416
21
-68.7251
0
LINE
8
BLACK
6
CONTINUOUS
10
99.416
20
-68.7251
11
99.416
21
-68.7269
0
LINE
8
BLACK
6
CONTINUOUS
10
99.416
20
-68.7269
11
99.4154
21
-68.7322
0
LINE
8
BLACK
6
CONTINUOUS
10
99.4154
20
-68.7322
11
99.4154
21
-68.7376
0
LINE
8
BLACK
6
CONTINUOUS
10
99.4154
20
-68.7376
11
99.4146
21
-68.7451
0
LINE
8
BLACK
6
CONTINUOUS
10
99.4146
20
-68.7451
11
99.42
21
-68.7998
0
LINE
8
BLACK
6
CONTINUOUS
10
99.42
20
-68.7998
11
99.436
21
-68.8524
0
LINE
8
BLACK
6
CONTINUOUS
10
99.436
20
-68.8524
11
99.4619
21
-68.9009
0
LINE
8
BLACK
6
CONTINUOUS
10
99.4619
20
-68.9009
11
99.4968
21
-68.9433
0
LINE
8
BLACK
6
CONTINUOUS
10
99.4968
20
-68.9433
11
99.5392
21
-68.9782
0
LINE
8
BLACK
6
CONTINUOUS
10
99.5392
20
-68.9782
11
99.5877
21
-69.0041
0
LINE
8
BLACK
6
CONTINUOUS
10
99.5877
20
-69.0041
11
99.6403
21
-69.0201
0
LINE
8
BLACK
6
CONTINUOUS
10
99.6403
20
-69.0201
11
99.6875
21
-69.0247
0
LINE
8
BLACK
6
CONTINUOUS
10
99.6875
20
-69.0247
11
99.6875
21
-69.0247
0
LINE
8
BLACK
6
CONTINUOUS
10
99.6875
20
-69.0247
11
99.695
21
-69.0254
0
LINE
8
BLACK
6
CONTINUOUS
10
99.695
20
-69.0254
11
99.7025
21
-69.0247
0
LINE
8
BLACK
6
CONTINUOUS
10
99.7025
20
-69.0247
11
99.7043
21
-69.0245
0
LINE
8
BLACK
6
CONTINUOUS
10
99.7043
20
-69.0245
11
99.7096
21
-69.0246
0
LINE
8
BLACK
6
CONTINUOUS
10
99.7096
20
-69.0246
11
99.7149
21
-69.0241
0
LINE
8
BLACK
6
CONTINUOUS
10
99.7149
20
-69.0241
11
104.679
21
-69.0241
0
LINE
8
BLACK
6
CONTINUOUS
10
104.679
20
-69.0241
11
104.681
21
-69.0241
0
LINE
8
BLACK
6
CONTINUOUS
10
104.681
20
-69.0241
11
104.686
21
-69.0247
0
LINE
8
BLACK
6
CONTINUOUS
10
104.686
20
-69.0247
11
104.691
21
-69.0247
0
LINE
8
BLACK
6
CONTINUOUS
10
104.691
20
-69.0247
11
104.699
21
-69.0254
0
LINE
8
BLACK
6
CONTINUOUS
10
104.699
20
-69.0254
11
104.706
21
-69.0247
0
LINE
8
BLACK
6
CONTINUOUS
10
104.706
20
-69.0247
11
104.706
21
-69.0247
0
LINE
8
BLACK
6
CONTINUOUS
10
104.706
20
-69.0247
11
104.753
21
-69.0201
0
LINE
8
BLACK
6
CONTINUOUS
10
104.753
20
-69.0201
11
104.806
21
-69.0041
0
LINE
8
BLACK
6
CONTINUOUS
10
104.806
20
-69.0041
11
104.855
21
-68.9782
0
LINE
8
BLACK
6
CONTINUOUS
10
104.855
20
-68.9782
11
104.897
21
-68.9433
0
LINE
8
BLACK
6
CONTINUOUS
10
104.897
20
-68.9433
11
104.932
21
-68.9009
0
LINE
8
BLACK
6
CONTINUOUS
10
104.932
20
-68.9009
11
104.958
21
-68.8524
0
LINE
8
BLACK
6
CONTINUOUS
10
104.958
20
-68.8524
11
104.974
21
-68.7998
0
LINE
8
BLACK
6
CONTINUOUS
10
104.974
20
-68.7998
11
104.975
21
-68.7835
0
LINE
8
BLACK
6
CONTINUOUS
10
104.975
20
-68.7835
11
104.975
21
-68.7834
0
LINE
8
BLACK
6
CONTINUOUS
10
104.975
20
-68.7834
11
104.979
21
-68.7451
0
LINE
8
BLACK
6
CONTINUOUS
10
104.979
20
-68.7451
11
104.978
21
-68.7376
0
LINE
8
BLACK
6
CONTINUOUS
10
104.978
20
-68.7376
11
104.978
21
-68.7358
0
LINE
8
BLACK
6
CONTINUOUS
10
104.978
20
-68.7358
11
104.978
21
-68.7305
0
LINE
8
BLACK
6
CONTINUOUS
10
104.978
20
-68.7305
11
104.978
21
-68.7252
0
LINE
8
BLACK
6
CONTINUOUS
10
104.978
20
-68.7252
11
104.978
21
-66.7584
0
LINE
8
BLACK
6
CONTINUOUS
10
104.978
20
-66.7584
11
104.978
21
-66.7567
0
LINE
8
BLACK
6
CONTINUOUS
10
104.978
20
-66.7567
11
104.978
21
-66.7513
0
LINE
8
BLACK
6
CONTINUOUS
10
104.978
20
-66.7513
11
104.978
21
-66.746
0
LINE
8
BLACK
6
CONTINUOUS
10
104.978
20
-66.746
11
104.979
21
-66.7385
0
LINE
8
BLACK
6
CONTINUOUS
10
104.979
20
-66.7385
11
104.974
21
-66.6838
0
LINE
8
BLACK
6
CONTINUOUS
10
104.974
20
-66.6838
11
104.958
21
-66.6312
0
LINE
8
BLACK
6
CONTINUOUS
10
104.958
20
-66.6312
11
104.932
21
-66.5827
0
LINE
8
BLACK
6
CONTINUOUS
10
104.932
20
-66.5827
11
104.897
21
-66.5403
0
LINE
8
BLACK
6
CONTINUOUS
10
104.897
20
-66.5403
11
104.855
21
-66.5054
0
LINE
8
BLACK
6
CONTINUOUS
10
104.855
20
-66.5054
11
104.806
21
-66.4795
0
LINE
8
BLACK
6
CONTINUOUS
10
104.806
20
-66.4795
11
104.753
21
-66.4635
0
LINE
8
BLACK
6
CONTINUOUS
10
104.753
20
-66.4635
11
104.706
21
-66.4589
0
LINE
8
BLACK
6
CONTINUOUS
10
104.706
20
-66.4589
11
104.706
21
-66.4589
0
LINE
8
BLACK
6
CONTINUOUS
10
104.706
20
-66.4589
11
104.699
21
-66.4582
0
LINE
8
BLACK
6
CONTINUOUS
10
104.699
20
-66.4582
11
104.691
21
-66.4589
0
LINE
8
BLACK
6
CONTINUOUS
10
96.3093
20
-66.4462
11
96.3075
21
-66.4463
0
LINE
8
BLACK
6
CONTINUOUS
10
96.3075
20
-66.4463
11
96.3022
21
-66.4463
0
LINE
8
BLACK
6
CONTINUOUS
10
96.3022
20
-66.4463
11
96.2969
21
-66.4468
0
LINE
8
BLACK
6
CONTINUOUS
10
96.2969
20
-66.4468
11
91.3456
21
-66.4468
0
LINE
8
BLACK
6
CONTINUOUS
10
91.3456
20
-66.4468
11
91.3439
21
-66.4468
0
LINE
8
BLACK
6
CONTINUOUS
10
91.3439
20
-66.4468
11
91.3385
21
-66.4462
0
LINE
8
BLACK
6
CONTINUOUS
10
91.3385
20
-66.4462
11
91.3332
21
-66.4462
0
LINE
8
BLACK
6
CONTINUOUS
10
91.3332
20
-66.4462
11
91.3257
21
-66.4454
0
LINE
8
BLACK
6
CONTINUOUS
10
91.3257
20
-66.4454
11
91.3182
21
-66.4462
0
LINE
8
BLACK
6
CONTINUOUS
10
91.3182
20
-66.4462
11
91.3182
21
-66.4462
0
LINE
8
BLACK
6
CONTINUOUS
10
91.3182
20
-66.4462
11
91.271
21
-66.4508
0
LINE
8
BLACK
6
CONTINUOUS
10
91.271
20
-66.4508
11
91.2184
21
-66.4668
0
LINE
8
BLACK
6
CONTINUOUS
10
91.2184
20
-66.4668
11
91.1699
21
-66.4927
0
LINE
8
BLACK
6
CONTINUOUS
10
91.1699
20
-66.4927
11
91.1275
21
-66.5276
0
LINE
8
BLACK
6
CONTINUOUS
10
91.1275
20
-66.5276
11
91.0926
21
-66.57
0
LINE
8
BLACK
6
CONTINUOUS
10
91.0926
20
-66.57
11
91.0667
21
-66.6185
0
LINE
8
BLACK
6
CONTINUOUS
10
91.0667
20
-66.6185
11
91.0507
21
-66.6711
0
LINE
8
BLACK
6
CONTINUOUS
10
91.0507
20
-66.6711
11
91.0453
21
-66.7258
0
LINE
8
BLACK
6
CONTINUOUS
10
91.0453
20
-66.7258
11
91.0461
21
-66.7333
0
LINE
8
BLACK
6
CONTINUOUS
10
91.0461
20
-66.7333
11
91.0463
21
-66.7351
0
LINE
8
BLACK
6
CONTINUOUS
10
91.0463
20
-66.7351
11
91.0462
21
-66.7404
0
LINE
8
BLACK
6
CONTINUOUS
10
91.0462
20
-66.7404
11
91.0467
21
-66.7457
0
LINE
8
BLACK
6
CONTINUOUS
10
91.0467
20
-66.7457
11
91.0467
21
-68.7124
0
LINE
8
BLACK
6
CONTINUOUS
10
91.0467
20
-68.7124
11
91.0467
21
-68.7142
0
LINE
8
BLACK
6
CONTINUOUS
10
91.0467
20
-68.7142
11
91.0461
21
-68.7195
0
LINE
8
BLACK
6
CONTINUOUS
10
91.0461
20
-68.7195
11
91.0461
21
-68.7249
0
LINE
8
BLACK
6
CONTINUOUS
10
91.0461
20
-68.7249
11
91.0453
21
-68.7324
0
LINE
8
BLACK
6
CONTINUOUS
10
91.0453
20
-68.7324
11
91.0507
21
-68.7871
0
LINE
8
BLACK
6
CONTINUOUS
10
91.0507
20
-68.7871
11
91.0667
21
-68.8397
0
LINE
8
BLACK
6
CONTINUOUS
10
91.0667
20
-68.8397
11
91.0926
21
-68.8882
0
LINE
8
BLACK
6
CONTINUOUS
10
91.0926
20
-68.8882
11
91.1275
21
-68.9306
0
LINE
8
BLACK
6
CONTINUOUS
10
91.1275
20
-68.9306
11
91.1699
21
-68.9655
0
LINE
8
BLACK
6
CONTINUOUS
10
91.1699
20
-68.9655
11
91.2184
21
-68.9914
0
LINE
8
BLACK
6
CONTINUOUS
10
91.2184
20
-68.9914
11
91.271
21
-69.0074
0
LINE
8
BLACK
6
CONTINUOUS
10
91.271
20
-69.0074
11
91.3182
21
-69.012
0
LINE
8
BLACK
6
CONTINUOUS
10
91.3182
20
-69.012
11
91.3182
21
-69.012
0
LINE
8
BLACK
6
CONTINUOUS
10
91.3182
20
-69.012
11
91.3257
21
-69.0127
0
LINE
8
BLACK
6
CONTINUOUS
10
91.3257
20
-69.0127
11
91.3332
21
-69.012
0
LINE
8
BLACK
6
CONTINUOUS
10
91.3332
20
-69.012
11
91.335
21
-69.0118
0
LINE
8
BLACK
6
CONTINUOUS
10
91.335
20
-69.0118
11
91.3403
21
-69.0119
0
LINE
8
BLACK
6
CONTINUOUS
10
91.3403
20
-69.0119
11
91.3456
21
-69.0114
0
LINE
8
BLACK
6
CONTINUOUS
10
91.3456
20
-69.0114
11
96.2969
21
-69.0114
0
LINE
8
BLACK
6
CONTINUOUS
10
96.2969
20
-69.0114
11
96.2986
21
-69.0114
0
LINE
8
BLACK
6
CONTINUOUS
10
96.2986
20
-69.0114
11
96.304
21
-69.012
0
LINE
8
BLACK
6
CONTINUOUS
10
96.304
20
-69.012
11
96.3093
21
-69.012
0
LINE
8
BLACK
6
CONTINUOUS
10
96.3093
20
-69.012
11
96.3168
21
-69.0127
0
LINE
8
BLACK
6
CONTINUOUS
10
96.3168
20
-69.0127
11
96.3243
21
-69.012
0
LINE
8
BLACK
6
CONTINUOUS
10
96.3243
20
-69.012
11
96.3243
21
-69.012
0
LINE
8
BLACK
6
CONTINUOUS
10
96.3243
20
-69.012
11
96.3715
21
-69.0074
0
LINE
8
BLACK
6
CONTINUOUS
10
96.3715
20
-69.0074
11
96.4241
21
-68.9914
0
LINE
8
BLACK
6
CONTINUOUS
10
96.4241
20
-68.9914
11
96.4726
21
-68.9655
0
LINE
8
BLACK
6
CONTINUOUS
10
96.4726
20
-68.9655
11
96.515
21
-68.9306
0
LINE
8
BLACK
6
CONTINUOUS
10
96.515
20
-68.9306
11
96.5499
21
-68.8882
0
LINE
8
BLACK
6
CONTINUOUS
10
96.5499
20
-68.8882
11
96.5758
21
-68.8397
0
LINE
8
BLACK
6
CONTINUOUS
10
96.5758
20
-68.8397
11
96.5918
21
-68.7871
0
LINE
8
BLACK
6
CONTINUOUS
10
96.5918
20
-68.7871
11
96.5971
21
-68.7324
0
LINE
8
BLACK
6
CONTINUOUS
10
96.5971
20
-68.7324
11
96.5964
21
-68.7249
0
LINE
8
BLACK
6
CONTINUOUS
10
96.5964
20
-68.7249
11
96.5962
21
-68.7231
0
LINE
8
BLACK
6
CONTINUOUS
10
96.5962
20
-68.7231
11
96.5963
21
-68.7178
0
LINE
8
BLACK
6
CONTINUOUS
10
96.5963
20
-68.7178
11
96.5958
21
-68.7125
0
LINE
8
BLACK
6
CONTINUOUS
10
96.5958
20
-68.7125
11
96.5958
21
-66.7457
0
LINE
8
BLACK
6
CONTINUOUS
10
96.5958
20
-66.7457
11
96.5958
21
-66.744
0
LINE
8
BLACK
6
CONTINUOUS
10
96.5958
20
-66.744
11
96.5964
21
-66.7386
0
LINE
8
BLACK
6
CONTINUOUS
10
96.5964
20
-66.7386
11
96.5964
21
-66.7333
0
LINE
8
BLACK
6
CONTINUOUS
10
96.5964
20
-66.7333
11
96.5971
21
-66.7261
0
LINE
8
BLACK
6
CONTINUOUS
10
96.5971
20
-66.7261
11
96.5971
21
-66.726
0
LINE
8
BLACK
6
CONTINUOUS
10
96.5971
20
-66.726
11
96.5971
21
-66.7258
0
LINE
8
BLACK
6
CONTINUOUS
10
96.5971
20
-66.7258
11
96.5918
21
-66.6711
0
LINE
8
BLACK
6
CONTINUOUS
10
96.5918
20
-66.6711
11
96.5758
21
-66.6185
0
LINE
8
BLACK
6
CONTINUOUS
10
96.5758
20
-66.6185
11
96.5499
21
-66.57
0
LINE
8
BLACK
6
CONTINUOUS
10
96.5499
20
-66.57
11
96.515
21
-66.5276
0
LINE
8
BLACK
6
CONTINUOUS
10
96.515
20
-66.5276
11
96.4726
21
-66.4927
0
LINE
8
BLACK
6
CONTINUOUS
10
96.4726
20
-66.4927
11
96.4241
21
-66.4668
0
LINE
8
BLACK
6
CONTINUOUS
10
96.4241
20
-66.4668
11
96.3715
21
-66.4508
0
LINE
8
BLACK
6
CONTINUOUS
10
96.3715
20
-66.4508
11
96.3243
21
-66.4462
0
LINE
8
BLACK
6
CONTINUOUS
10
96.3243
20
-66.4462
11
96.3243
21
-66.4462
0
LINE
8
BLACK
6
CONTINUOUS
10
96.3243
20
-66.4462
11
96.3168
21
-66.4454
0
LINE
8
BLACK
6
CONTINUOUS
10
96.3168
20
-66.4454
11
96.3093
21
-66.4462
0
LINE
8
BLACK
6
CONTINUOUS
10
149.946
20
-93.6353
11
150.237
21
-93.7559
0
LINE
8
BLACK
6
CONTINUOUS
10
150.237
20
-93.7559
11
150.499
21
-93.931
0
LINE
8
BLACK
6
CONTINUOUS
10
150.499
20
-93.931
11
150.722
21
-94.1539
0
LINE
8
BLACK
6
CONTINUOUS
10
150.722
20
-94.1539
11
150.897
21
-94.4159
0
LINE
8
BLACK
6
CONTINUOUS
10
150.897
20
-94.4159
11
151.018
21
-94.7071
0
LINE
8
BLACK
6
CONTINUOUS
10
151.018
20
-94.7071
11
151.079
21
-95.0162
0
LINE
8
BLACK
6
CONTINUOUS
10
151.079
20
-95.0162
11
151.079
21
-95.3314
0
LINE
8
BLACK
6
CONTINUOUS
10
151.079
20
-95.3314
11
151.018
21
-95.6405
0
LINE
8
BLACK
6
CONTINUOUS
10
151.018
20
-95.6405
11
150.897
21
-95.9317
0
LINE
8
BLACK
6
CONTINUOUS
10
150.897
20
-95.9317
11
150.722
21
-96.1937
0
LINE
8
BLACK
6
CONTINUOUS
10
150.722
20
-96.1937
11
150.499
21
-96.4166
0
LINE
8
BLACK
6
CONTINUOUS
10
150.499
20
-96.4166
11
150.237
21
-96.5917
0
LINE
8
BLACK
6
CONTINUOUS
10
150.237
20
-96.5917
11
149.946
21
-96.7123
0
LINE
8
BLACK
6
CONTINUOUS
10
149.946
20
-96.7123
11
149.637
21
-96.7738
0
LINE
8
BLACK
6
CONTINUOUS
10
149.637
20
-96.7738
11
149.321
21
-96.7738
0
LINE
8
BLACK
6
CONTINUOUS
10
149.321
20
-96.7738
11
149.012
21
-96.7123
0
LINE
8
BLACK
6
CONTINUOUS
10
149.012
20
-96.7123
11
148.721
21
-96.5917
0
LINE
8
BLACK
6
CONTINUOUS
10
148.721
20
-96.5917
11
148.459
21
-96.4166
0
LINE
8
BLACK
6
CONTINUOUS
10
148.459
20
-96.4166
11
148.236
21
-96.1937
0
LINE
8
BLACK
6
CONTINUOUS
10
148.236
20
-96.1937
11
148.061
21
-95.9317
0
LINE
8
BLACK
6
CONTINUOUS
10
148.061
20
-95.9317
11
147.94
21
-95.6405
0
LINE
8
BLACK
6
CONTINUOUS
10
147.94
20
-95.6405
11
147.879
21
-95.3314
0
LINE
8
BLACK
6
CONTINUOUS
10
147.879
20
-95.3314
11
147.879
21
-95.0162
0
LINE
8
BLACK
6
CONTINUOUS
10
147.879
20
-95.0162
11
147.94
21
-94.7071
0
LINE
8
BLACK
6
CONTINUOUS
10
147.94
20
-94.7071
11
148.061
21
-94.4159
0
LINE
8
BLACK
6
CONTINUOUS
10
148.061
20
-94.4159
11
148.236
21
-94.1539
0
LINE
8
BLACK
6
CONTINUOUS
10
148.236
20
-94.1539
11
148.459
21
-93.931
0
LINE
8
BLACK
6
CONTINUOUS
10
148.459
20
-93.931
11
148.721
21
-93.7559
0
LINE
8
BLACK
6
CONTINUOUS
10
148.721
20
-93.7559
11
149.012
21
-93.6353
0
LINE
8
BLACK
6
CONTINUOUS
10
149.012
20
-93.6353
11
149.321
21
-93.5738
0
LINE
8
BLACK
6
CONTINUOUS
10
149.321
20
-93.5738
11
149.637
21
-93.5738
0
LINE
8
BLACK
6
CONTINUOUS
10
149.637
20
-93.5738
11
149.946
21
-93.6353
0
LINE
8
BLACK
6
CONTINUOUS
10
89.9763
20
-93.5972
11
90.2675
21
-93.7178
0
LINE
8
BLACK
6
CONTINUOUS
10
90.2675
20
-93.7178
11
90.5295
21
-93.8929
0
LINE
8
BLACK
6
CONTINUOUS
10
90.5295
20
-93.8929
11
90.7524
21
-94.1158
0
LINE
8
BLACK
6
CONTINUOUS
10
90.7524
20
-94.1158
11
90.9275
21
-94.3778
0
LINE
8
BLACK
6
CONTINUOUS
10
90.9275
20
-94.3778
11
91.0481
21
-94.669
0
LINE
8
BLACK
6
CONTINUOUS
10
91.0481
20
-94.669
11
91.1096
21
-94.9781
0
LINE
8
BLACK
6
CONTINUOUS
10
91.1096
20
-94.9781
11
91.1096
21
-95.2933
0
LINE
8
BLACK
6
CONTINUOUS
10
91.1096
20
-95.2933
11
91.0481
21
-95.6024
0
LINE
8
BLACK
6
CONTINUOUS
10
91.0481
20
-95.6024
11
90.9275
21
-95.8936
0
LINE
8
BLACK
6
CONTINUOUS
10
90.9275
20
-95.8936
11
90.7524
21
-96.1556
0
LINE
8
BLACK
6
CONTINUOUS
10
90.7524
20
-96.1556
11
90.5295
21
-96.3785
0
LINE
8
BLACK
6
CONTINUOUS
10
90.5295
20
-96.3785
11
90.2675
21
-96.5536
0
LINE
8
BLACK
6
CONTINUOUS
10
90.2675
20
-96.5536
11
89.9763
21
-96.6742
0
LINE
8
BLACK
6
CONTINUOUS
10
89.9763
20
-96.6742
11
89.6672
21
-96.7357
0
LINE
8
BLACK
6
CONTINUOUS
10
89.6672
20
-96.7357
11
89.352
21
-96.7357
0
LINE
8
BLACK
6
CONTINUOUS
10
89.352
20
-96.7357
11
89.0429
21
-96.6742
0
LINE
8
BLACK
6
CONTINUOUS
10
89.0429
20
-96.6742
11
88.7517
21
-96.5536
0
LINE
8
BLACK
6
CONTINUOUS
10
88.7517
20
-96.5536
11
88.4897
21
-96.3785
0
LINE
8
BLACK
6
CONTINUOUS
10
88.4897
20
-96.3785
11
88.2668
21
-96.1556
0
LINE
8
BLACK
6
CONTINUOUS
10
88.2668
20
-96.1556
11
88.0917
21
-95.8936
0
LINE
8
BLACK
6
CONTINUOUS
10
88.0917
20
-95.8936
11
87.9711
21
-95.6024
0
LINE
8
BLACK
6
CONTINUOUS
10
87.9711
20
-95.6024
11
87.9096
21
-95.2933
0
LINE
8
BLACK
6
CONTINUOUS
10
87.9096
20
-95.2933
11
87.9096
21
-94.9781
0
LINE
8
BLACK
6
CONTINUOUS
10
87.9096
20
-94.9781
11
87.9711
21
-94.669
0
LINE
8
BLACK
6
CONTINUOUS
10
87.9711
20
-94.669
11
88.0917
21
-94.3778
0
LINE
8
BLACK
6
CONTINUOUS
10
88.0917
20
-94.3778
11
88.2668
21
-94.1158
0
LINE
8
BLACK
6
CONTINUOUS
10
88.2668
20
-94.1158
11
88.4897
21
-93.8929
0
LINE
8
BLACK
6
CONTINUOUS
10
88.4897
20
-93.8929
11
88.7517
21
-93.7178
0
LINE
8
BLACK
6
CONTINUOUS
10
88.7517
20
-93.7178
11
89.0429
21
-93.5972
0
LINE
8
BLACK
6
CONTINUOUS
10
89.0429
20
-93.5972
11
89.352
21
-93.5357
0
LINE
8
BLACK
6
CONTINUOUS
10
89.352
20
-93.5357
11
89.6672
21
-93.5357
0
LINE
8
BLACK
6
CONTINUOUS
10
89.6672
20
-93.5357
11
89.9763
21
-93.5972
0
LINE
8
BLACK
6
CONTINUOUS
10
139.692
20
-72.4816
11
140.083
21
-72.6437
0
LINE
8
BLACK
6
CONTINUOUS
10
140.083
20
-72.6437
11
140.436
21
-72.879
0
LINE
8
BLACK
6
CONTINUOUS
10
140.436
20
-72.879
11
140.735
21
-73.1785
0
LINE
8
BLACK
6
CONTINUOUS
10
140.735
20
-73.1785
11
140.97
21
-73.5306
0
LINE
8
BLACK
6
CONTINUOUS
10
140.97
20
-73.5306
11
141.132
21
-73.9219
0
LINE
8
BLACK
6
CONTINUOUS
10
141.132
20
-73.9219
11
141.215
21
-74.3372
0
LINE
8
BLACK
6
CONTINUOUS
10
141.215
20
-74.3372
11
141.215
21
-74.7608
0
LINE
8
BLACK
6
CONTINUOUS
10
141.215
20
-74.7608
11
141.132
21
-75.1761
0
LINE
8
BLACK
6
CONTINUOUS
10
141.132
20
-75.1761
11
140.97
21
-75.5674
0
LINE
8
BLACK
6
CONTINUOUS
10
140.97
20
-75.5674
11
140.735
21
-75.9195
0
LINE
8
BLACK
6
CONTINUOUS
10
140.735
20
-75.9195
11
140.436
21
-76.219
0
LINE
8
BLACK
6
CONTINUOUS
10
140.436
20
-76.219
11
140.083
21
-76.4543
0
LINE
8
BLACK
6
CONTINUOUS
10
140.083
20
-76.4543
11
139.692
21
-76.6164
0
LINE
8
BLACK
6
CONTINUOUS
10
139.692
20
-76.6164
11
139.277
21
-76.699
0
LINE
8
BLACK
6
CONTINUOUS
10
139.277
20
-76.699
11
138.853
21
-76.699
0
LINE
8
BLACK
6
CONTINUOUS
10
138.853
20
-76.699
11
138.438
21
-76.6164
0
LINE
8
BLACK
6
CONTINUOUS
10
138.438
20
-76.6164
11
138.047
21
-76.4543
0
LINE
8
BLACK
6
CONTINUOUS
10
138.047
20
-76.4543
11
137.694
21
-76.219
0
LINE
8
BLACK
6
CONTINUOUS
10
137.694
20
-76.219
11
137.395
21
-75.9195
0
LINE
8
BLACK
6
CONTINUOUS
10
137.395
20
-75.9195
11
137.16
21
-75.5674
0
LINE
8
BLACK
6
CONTINUOUS
10
137.16
20
-75.5674
11
136.998
21
-75.1761
0
LINE
8
BLACK
6
CONTINUOUS
10
136.998
20
-75.1761
11
136.915
21
-74.7608
0
LINE
8
BLACK
6
CONTINUOUS
10
136.915
20
-74.7608
11
136.915
21
-74.3372
0
LINE
8
BLACK
6
CONTINUOUS
10
136.915
20
-74.3372
11
136.998
21
-73.9219
0
LINE
8
BLACK
6
CONTINUOUS
10
136.998
20
-73.9219
11
137.16
21
-73.5306
0
LINE
8
BLACK
6
CONTINUOUS
10
137.16
20
-73.5306
11
137.395
21
-73.1785
0
LINE
8
BLACK
6
CONTINUOUS
10
137.395
20
-73.1785
11
137.694
21
-72.879
0
LINE
8
BLACK
6
CONTINUOUS
10
137.694
20
-72.879
11
138.047
21
-72.6437
0
LINE
8
BLACK
6
CONTINUOUS
10
138.047
20
-72.6437
11
138.438
21
-72.4816
0
LINE
8
BLACK
6
CONTINUOUS
10
138.438
20
-72.4816
11
138.853
21
-72.399
0
LINE
8
BLACK
6
CONTINUOUS
10
138.853
20
-72.399
11
139.277
21
-72.399
0
LINE
8
BLACK
6
CONTINUOUS
10
139.277
20
-72.399
11
139.692
21
-72.4816
0
LINE
8
BLACK
6
CONTINUOUS
10
127.754
20
-72.4816
11
128.145
21
-72.6437
0
LINE
8
BLACK
6
CONTINUOUS
10
128.145
20
-72.6437
11
128.498
21
-72.879
0
LINE
8
BLACK
6
CONTINUOUS
10
128.498
20
-72.879
11
128.797
21
-73.1785
0
LINE
8
BLACK
6
CONTINUOUS
10
128.797
20
-73.1785
11
129.032
21
-73.5306
0
LINE
8
BLACK
6
CONTINUOUS
10
129.032
20
-73.5306
11
129.194
21
-73.9219
0
LINE
8
BLACK
6
CONTINUOUS
10
129.194
20
-73.9219
11
129.277
21
-74.3372
0
LINE
8
BLACK
6
CONTINUOUS
10
129.277
20
-74.3372
11
129.277
21
-74.7608
0
LINE
8
BLACK
6
CONTINUOUS
10
129.277
20
-74.7608
11
129.194
21
-75.1761
0
LINE
8
BLACK
6
CONTINUOUS
10
129.194
20
-75.1761
11
129.032
21
-75.5674
0
LINE
8
BLACK
6
CONTINUOUS
10
129.032
20
-75.5674
11
128.797
21
-75.9195
0
LINE
8
BLACK
6
CONTINUOUS
10
128.797
20
-75.9195
11
128.498
21
-76.219
0
LINE
8
BLACK
6
CONTINUOUS
10
128.498
20
-76.219
11
128.145
21
-76.4543
0
LINE
8
BLACK
6
CONTINUOUS
10
128.145
20
-76.4543
11
127.754
21
-76.6164
0
LINE
8
BLACK
6
CONTINUOUS
10
127.754
20
-76.6164
11
127.339
21
-76.699
0
LINE
8
BLACK
6
CONTINUOUS
10
127.339
20
-76.699
11
126.915
21
-76.699
0
LINE
8
BLACK
6
CONTINUOUS
10
126.915
20
-76.699
11
126.5
21
-76.6164
0
LINE
8
BLACK
6
CONTINUOUS
10
126.5
20
-76.6164
11
126.109
21
-76.4543
0
LINE
8
BLACK
6
CONTINUOUS
10
126.109
20
-76.4543
11
125.756
21
-76.219
0
LINE
8
BLACK
6
CONTINUOUS
10
125.756
20
-76.219
11
125.457
21
-75.9195
0
LINE
8
BLACK
6
CONTINUOUS
10
125.457
20
-75.9195
11
125.222
21
-75.5674
0
LINE
8
BLACK
6
CONTINUOUS
10
125.222
20
-75.5674
11
125.06
21
-75.1761
0
LINE
8
BLACK
6
CONTINUOUS
10
125.06
20
-75.1761
11
124.977
21
-74.7608
0
LINE
8
BLACK
6
CONTINUOUS
10
124.977
20
-74.7608
11
124.977
21
-74.3372
0
LINE
8
BLACK
6
CONTINUOUS
10
124.977
20
-74.3372
11
125.06
21
-73.9219
0
LINE
8
BLACK
6
CONTINUOUS
10
125.06
20
-73.9219
11
125.222
21
-73.5306
0
LINE
8
BLACK
6
CONTINUOUS
10
125.222
20
-73.5306
11
125.457
21
-73.1785
0
LINE
8
BLACK
6
CONTINUOUS
10
125.457
20
-73.1785
11
125.756
21
-72.879
0
LINE
8
BLACK
6
CONTINUOUS
10
125.756
20
-72.879
11
126.109
21
-72.6437
0
LINE
8
BLACK
6
CONTINUOUS
10
126.109
20
-72.6437
11
126.5
21
-72.4816
0
LINE
8
BLACK
6
CONTINUOUS
10
126.5
20
-72.4816
11
126.915
21
-72.399
0
LINE
8
BLACK
6
CONTINUOUS
10
126.915
20
-72.399
11
127.339
21
-72.399
0
LINE
8
BLACK
6
CONTINUOUS
10
127.339
20
-72.399
11
127.754
21
-72.4816
0
LINE
8
BLACK
6
CONTINUOUS
10
115.816
20
-72.4816
11
116.207
21
-72.6437
0
LINE
8
BLACK
6
CONTINUOUS
10
116.207
20
-72.6437
11
116.56
21
-72.879
0
LINE
8
BLACK
6
CONTINUOUS
10
116.56
20
-72.879
11
116.859
21
-73.1785
0
LINE
8
BLACK
6
CONTINUOUS
10
116.859
20
-73.1785
11
117.094
21
-73.5306
0
LINE
8
BLACK
6
CONTINUOUS
10
117.094
20
-73.5306
11
117.256
21
-73.9219
0
LINE
8
BLACK
6
CONTINUOUS
10
117.256
20
-73.9219
11
117.339
21
-74.3372
0
LINE
8
BLACK
6
CONTINUOUS
10
117.339
20
-74.3372
11
117.339
21
-74.7608
0
LINE
8
BLACK
6
CONTINUOUS
10
117.339
20
-74.7608
11
117.256
21
-75.1761
0
LINE
8
BLACK
6
CONTINUOUS
10
117.256
20
-75.1761
11
117.094
21
-75.5674
0
LINE
8
BLACK
6
CONTINUOUS
10
117.094
20
-75.5674
11
116.859
21
-75.9195
0
LINE
8
BLACK
6
CONTINUOUS
10
116.859
20
-75.9195
11
116.56
21
-76.219
0
LINE
8
BLACK
6
CONTINUOUS
10
116.56
20
-76.219
11
116.207
21
-76.4543
0
LINE
8
BLACK
6
CONTINUOUS
10
116.207
20
-76.4543
11
115.816
21
-76.6164
0
LINE
8
BLACK
6
CONTINUOUS
10
115.816
20
-76.6164
11
115.401
21
-76.699
0
LINE
8
BLACK
6
CONTINUOUS
10
115.401
20
-76.699
11
114.977
21
-76.699
0
LINE
8
BLACK
6
CONTINUOUS
10
114.977
20
-76.699
11
114.562
21
-76.6164
0
LINE
8
BLACK
6
CONTINUOUS
10
114.562
20
-76.6164
11
114.171
21
-76.4543
0
LINE
8
BLACK
6
CONTINUOUS
10
114.171
20
-76.4543
11
113.818
21
-76.219
0
LINE
8
BLACK
6
CONTINUOUS
10
113.818
20
-76.219
11
113.519
21
-75.9195
0
LINE
8
BLACK
6
CONTINUOUS
10
113.519
20
-75.9195
11
113.284
21
-75.5674
0
LINE
8
BLACK
6
CONTINUOUS
10
113.284
20
-75.5674
11
113.122
21
-75.1761
0
LINE
8
BLACK
6
CONTINUOUS
10
113.122
20
-75.1761
11
113.039
21
-74.7608
0
LINE
8
BLACK
6
CONTINUOUS
10
113.039
20
-74.7608
11
113.039
21
-74.3372
0
LINE
8
BLACK
6
CONTINUOUS
10
113.039
20
-74.3372
11
113.122
21
-73.9219
0
LINE
8
BLACK
6
CONTINUOUS
10
113.122
20
-73.9219
11
113.284
21
-73.5306
0
LINE
8
BLACK
6
CONTINUOUS
10
113.284
20
-73.5306
11
113.519
21
-73.1785
0
LINE
8
BLACK
6
CONTINUOUS
10
113.519
20
-73.1785
11
113.818
21
-72.879
0
LINE
8
BLACK
6
CONTINUOUS
10
113.818
20
-72.879
11
114.171
21
-72.6437
0
LINE
8
BLACK
6
CONTINUOUS
10
114.171
20
-72.6437
11
114.562
21
-72.4816
0
LINE
8
BLACK
6
CONTINUOUS
10
114.562
20
-72.4816
11
114.977
21
-72.399
0
LINE
8
BLACK
6
CONTINUOUS
10
114.977
20
-72.399
11
115.401
21
-72.399
0
LINE
8
BLACK
6
CONTINUOUS
10
115.401
20
-72.399
11
115.816
21
-72.4816
  0
ENDSEC
  0
EOF
