%TF.GenerationSoftware,KiCad,Pcbnew,(5.1.9)-1*%
%TF.CreationDate,2021-12-04T16:06:40+00:00*%
%TF.ProjectId,RGBtoHDMI Amiga Denise CPLD FFC - CDTV Video Slot,52474274-6f48-4444-9d49-20416d696761,1*%
%TF.SameCoordinates,Original*%
%TF.FileFunction,Paste,Top*%
%TF.FilePolarity,Positive*%
%FSLAX46Y46*%
G04 Gerber Fmt 4.6, Leading zero omitted, Abs format (unit mm)*
G04 Created by KiCad (PCBNEW (5.1.9)-1) date 2021-12-04 16:06:40*
%MOMM*%
%LPD*%
G01*
G04 APERTURE LIST*
%ADD10R,3.000000X2.500000*%
%ADD11R,2.000000X0.600000*%
%ADD12R,0.550000X1.500000*%
%ADD13R,1.500000X0.550000*%
G04 APERTURE END LIST*
%TO.C,R5*%
G36*
G01*
X129394000Y-53016999D02*
X129394000Y-53917001D01*
G75*
G02*
X129144001Y-54167000I-249999J0D01*
G01*
X128443999Y-54167000D01*
G75*
G02*
X128194000Y-53917001I0J249999D01*
G01*
X128194000Y-53016999D01*
G75*
G02*
X128443999Y-52767000I249999J0D01*
G01*
X129144001Y-52767000D01*
G75*
G02*
X129394000Y-53016999I0J-249999D01*
G01*
G37*
G36*
G01*
X131394000Y-53016999D02*
X131394000Y-53917001D01*
G75*
G02*
X131144001Y-54167000I-249999J0D01*
G01*
X130443999Y-54167000D01*
G75*
G02*
X130194000Y-53917001I0J249999D01*
G01*
X130194000Y-53016999D01*
G75*
G02*
X130443999Y-52767000I249999J0D01*
G01*
X131144001Y-52767000D01*
G75*
G02*
X131394000Y-53016999I0J-249999D01*
G01*
G37*
%TD*%
%TO.C,R4*%
G36*
G01*
X111525000Y-58235001D02*
X111525000Y-57334999D01*
G75*
G02*
X111774999Y-57085000I249999J0D01*
G01*
X112475001Y-57085000D01*
G75*
G02*
X112725000Y-57334999I0J-249999D01*
G01*
X112725000Y-58235001D01*
G75*
G02*
X112475001Y-58485000I-249999J0D01*
G01*
X111774999Y-58485000D01*
G75*
G02*
X111525000Y-58235001I0J249999D01*
G01*
G37*
G36*
G01*
X109525000Y-58235001D02*
X109525000Y-57334999D01*
G75*
G02*
X109774999Y-57085000I249999J0D01*
G01*
X110475001Y-57085000D01*
G75*
G02*
X110725000Y-57334999I0J-249999D01*
G01*
X110725000Y-58235001D01*
G75*
G02*
X110475001Y-58485000I-249999J0D01*
G01*
X109774999Y-58485000D01*
G75*
G02*
X109525000Y-58235001I0J249999D01*
G01*
G37*
%TD*%
D10*
%TO.C,FFC18*%
X124415000Y-95070000D03*
X124415000Y-72570000D03*
D11*
X121965000Y-75320000D03*
X121965000Y-76320000D03*
X121965000Y-77320000D03*
X121965000Y-78320000D03*
X121965000Y-79320000D03*
X121965000Y-80320000D03*
X121965000Y-81320000D03*
X121965000Y-82320000D03*
X121965000Y-83320000D03*
X121965000Y-84320000D03*
X121965000Y-85320000D03*
X121965000Y-86320000D03*
X121965000Y-87320000D03*
X121965000Y-88320000D03*
X121965000Y-89320000D03*
X121965000Y-90320000D03*
X121965000Y-91320000D03*
X121965000Y-92320000D03*
%TD*%
%TO.C,R7*%
G36*
G01*
X77031001Y-57385000D02*
X76130999Y-57385000D01*
G75*
G02*
X75881000Y-57135001I0J249999D01*
G01*
X75881000Y-56434999D01*
G75*
G02*
X76130999Y-56185000I249999J0D01*
G01*
X77031001Y-56185000D01*
G75*
G02*
X77281000Y-56434999I0J-249999D01*
G01*
X77281000Y-57135001D01*
G75*
G02*
X77031001Y-57385000I-249999J0D01*
G01*
G37*
G36*
G01*
X77031001Y-59385000D02*
X76130999Y-59385000D01*
G75*
G02*
X75881000Y-59135001I0J249999D01*
G01*
X75881000Y-58434999D01*
G75*
G02*
X76130999Y-58185000I249999J0D01*
G01*
X77031001Y-58185000D01*
G75*
G02*
X77281000Y-58434999I0J-249999D01*
G01*
X77281000Y-59135001D01*
G75*
G02*
X77031001Y-59385000I-249999J0D01*
G01*
G37*
%TD*%
%TO.C,R6*%
G36*
G01*
X89096001Y-57385000D02*
X88195999Y-57385000D01*
G75*
G02*
X87946000Y-57135001I0J249999D01*
G01*
X87946000Y-56434999D01*
G75*
G02*
X88195999Y-56185000I249999J0D01*
G01*
X89096001Y-56185000D01*
G75*
G02*
X89346000Y-56434999I0J-249999D01*
G01*
X89346000Y-57135001D01*
G75*
G02*
X89096001Y-57385000I-249999J0D01*
G01*
G37*
G36*
G01*
X89096001Y-59385000D02*
X88195999Y-59385000D01*
G75*
G02*
X87946000Y-59135001I0J249999D01*
G01*
X87946000Y-58434999D01*
G75*
G02*
X88195999Y-58185000I249999J0D01*
G01*
X89096001Y-58185000D01*
G75*
G02*
X89346000Y-58434999I0J-249999D01*
G01*
X89346000Y-59135001D01*
G75*
G02*
X89096001Y-59385000I-249999J0D01*
G01*
G37*
%TD*%
%TO.C,C1*%
G36*
G01*
X120744000Y-57335000D02*
X119794000Y-57335000D01*
G75*
G02*
X119544000Y-57085000I0J250000D01*
G01*
X119544000Y-56410000D01*
G75*
G02*
X119794000Y-56160000I250000J0D01*
G01*
X120744000Y-56160000D01*
G75*
G02*
X120994000Y-56410000I0J-250000D01*
G01*
X120994000Y-57085000D01*
G75*
G02*
X120744000Y-57335000I-250000J0D01*
G01*
G37*
G36*
G01*
X120744000Y-59410000D02*
X119794000Y-59410000D01*
G75*
G02*
X119544000Y-59160000I0J250000D01*
G01*
X119544000Y-58485000D01*
G75*
G02*
X119794000Y-58235000I250000J0D01*
G01*
X120744000Y-58235000D01*
G75*
G02*
X120994000Y-58485000I0J-250000D01*
G01*
X120994000Y-59160000D01*
G75*
G02*
X120744000Y-59410000I-250000J0D01*
G01*
G37*
%TD*%
%TO.C,R3*%
G36*
G01*
X99129800Y-104971001D02*
X99129800Y-104070999D01*
G75*
G02*
X99379799Y-103821000I249999J0D01*
G01*
X100079801Y-103821000D01*
G75*
G02*
X100329800Y-104070999I0J-249999D01*
G01*
X100329800Y-104971001D01*
G75*
G02*
X100079801Y-105221000I-249999J0D01*
G01*
X99379799Y-105221000D01*
G75*
G02*
X99129800Y-104971001I0J249999D01*
G01*
G37*
G36*
G01*
X97129800Y-104971001D02*
X97129800Y-104070999D01*
G75*
G02*
X97379799Y-103821000I249999J0D01*
G01*
X98079801Y-103821000D01*
G75*
G02*
X98329800Y-104070999I0J-249999D01*
G01*
X98329800Y-104971001D01*
G75*
G02*
X98079801Y-105221000I-249999J0D01*
G01*
X97379799Y-105221000D01*
G75*
G02*
X97129800Y-104971001I0J249999D01*
G01*
G37*
%TD*%
%TO.C,R2*%
G36*
G01*
X84893999Y-97301000D02*
X85794001Y-97301000D01*
G75*
G02*
X86044000Y-97550999I0J-249999D01*
G01*
X86044000Y-98251001D01*
G75*
G02*
X85794001Y-98501000I-249999J0D01*
G01*
X84893999Y-98501000D01*
G75*
G02*
X84644000Y-98251001I0J249999D01*
G01*
X84644000Y-97550999D01*
G75*
G02*
X84893999Y-97301000I249999J0D01*
G01*
G37*
G36*
G01*
X84893999Y-95301000D02*
X85794001Y-95301000D01*
G75*
G02*
X86044000Y-95550999I0J-249999D01*
G01*
X86044000Y-96251001D01*
G75*
G02*
X85794001Y-96501000I-249999J0D01*
G01*
X84893999Y-96501000D01*
G75*
G02*
X84644000Y-96251001I0J249999D01*
G01*
X84644000Y-95550999D01*
G75*
G02*
X84893999Y-95301000I249999J0D01*
G01*
G37*
%TD*%
%TO.C,R1*%
G36*
G01*
X101034001Y-57385000D02*
X100133999Y-57385000D01*
G75*
G02*
X99884000Y-57135001I0J249999D01*
G01*
X99884000Y-56434999D01*
G75*
G02*
X100133999Y-56185000I249999J0D01*
G01*
X101034001Y-56185000D01*
G75*
G02*
X101284000Y-56434999I0J-249999D01*
G01*
X101284000Y-57135001D01*
G75*
G02*
X101034001Y-57385000I-249999J0D01*
G01*
G37*
G36*
G01*
X101034001Y-59385000D02*
X100133999Y-59385000D01*
G75*
G02*
X99884000Y-59135001I0J249999D01*
G01*
X99884000Y-58434999D01*
G75*
G02*
X100133999Y-58185000I249999J0D01*
G01*
X101034001Y-58185000D01*
G75*
G02*
X101284000Y-58434999I0J-249999D01*
G01*
X101284000Y-59135001D01*
G75*
G02*
X101034001Y-59385000I-249999J0D01*
G01*
G37*
%TD*%
%TO.C,C4*%
G36*
G01*
X93022000Y-104046000D02*
X93022000Y-104996000D01*
G75*
G02*
X92772000Y-105246000I-250000J0D01*
G01*
X92097000Y-105246000D01*
G75*
G02*
X91847000Y-104996000I0J250000D01*
G01*
X91847000Y-104046000D01*
G75*
G02*
X92097000Y-103796000I250000J0D01*
G01*
X92772000Y-103796000D01*
G75*
G02*
X93022000Y-104046000I0J-250000D01*
G01*
G37*
G36*
G01*
X95097000Y-104046000D02*
X95097000Y-104996000D01*
G75*
G02*
X94847000Y-105246000I-250000J0D01*
G01*
X94172000Y-105246000D01*
G75*
G02*
X93922000Y-104996000I0J250000D01*
G01*
X93922000Y-104046000D01*
G75*
G02*
X94172000Y-103796000I250000J0D01*
G01*
X94847000Y-103796000D01*
G75*
G02*
X95097000Y-104046000I0J-250000D01*
G01*
G37*
%TD*%
%TO.C,C3*%
G36*
G01*
X106713000Y-96665200D02*
X107663000Y-96665200D01*
G75*
G02*
X107913000Y-96915200I0J-250000D01*
G01*
X107913000Y-97590200D01*
G75*
G02*
X107663000Y-97840200I-250000J0D01*
G01*
X106713000Y-97840200D01*
G75*
G02*
X106463000Y-97590200I0J250000D01*
G01*
X106463000Y-96915200D01*
G75*
G02*
X106713000Y-96665200I250000J0D01*
G01*
G37*
G36*
G01*
X106713000Y-94590200D02*
X107663000Y-94590200D01*
G75*
G02*
X107913000Y-94840200I0J-250000D01*
G01*
X107913000Y-95515200D01*
G75*
G02*
X107663000Y-95765200I-250000J0D01*
G01*
X106713000Y-95765200D01*
G75*
G02*
X106463000Y-95515200I0J250000D01*
G01*
X106463000Y-94840200D01*
G75*
G02*
X106713000Y-94590200I250000J0D01*
G01*
G37*
%TD*%
%TO.C,C2*%
G36*
G01*
X97848000Y-83167200D02*
X97848000Y-84117200D01*
G75*
G02*
X97598000Y-84367200I-250000J0D01*
G01*
X96923000Y-84367200D01*
G75*
G02*
X96673000Y-84117200I0J250000D01*
G01*
X96673000Y-83167200D01*
G75*
G02*
X96923000Y-82917200I250000J0D01*
G01*
X97598000Y-82917200D01*
G75*
G02*
X97848000Y-83167200I0J-250000D01*
G01*
G37*
G36*
G01*
X99923000Y-83167200D02*
X99923000Y-84117200D01*
G75*
G02*
X99673000Y-84367200I-250000J0D01*
G01*
X98998000Y-84367200D01*
G75*
G02*
X98748000Y-84117200I0J250000D01*
G01*
X98748000Y-83167200D01*
G75*
G02*
X98998000Y-82917200I250000J0D01*
G01*
X99673000Y-82917200D01*
G75*
G02*
X99923000Y-83167200I0J-250000D01*
G01*
G37*
%TD*%
D12*
%TO.C,U1*%
X92139000Y-87848200D03*
X92939000Y-87848200D03*
X93739000Y-87848200D03*
X94539000Y-87848200D03*
X95339000Y-87848200D03*
X96139000Y-87848200D03*
X96939000Y-87848200D03*
X97739000Y-87848200D03*
X98539000Y-87848200D03*
X99339000Y-87848200D03*
X100139000Y-87848200D03*
D13*
X101839000Y-89548200D03*
X101839000Y-90348200D03*
X101839000Y-91148200D03*
X101839000Y-91948200D03*
X101839000Y-92748200D03*
X101839000Y-93548200D03*
X101839000Y-94348200D03*
X101839000Y-95148200D03*
X101839000Y-95948200D03*
X101839000Y-96748200D03*
X101839000Y-97548200D03*
D12*
X100139000Y-99248200D03*
X99339000Y-99248200D03*
X98539000Y-99248200D03*
X97739000Y-99248200D03*
X96939000Y-99248200D03*
X96139000Y-99248200D03*
X95339000Y-99248200D03*
X94539000Y-99248200D03*
X93739000Y-99248200D03*
X92939000Y-99248200D03*
X92139000Y-99248200D03*
D13*
X90439000Y-97548200D03*
X90439000Y-96748200D03*
X90439000Y-95948200D03*
X90439000Y-95148200D03*
X90439000Y-94348200D03*
X90439000Y-93548200D03*
X90439000Y-92748200D03*
X90439000Y-91948200D03*
X90439000Y-91148200D03*
X90439000Y-90348200D03*
X90439000Y-89548200D03*
%TD*%
M02*
