%TF.GenerationSoftware,KiCad,Pcbnew,(5.1.9)-1*%
%TF.CreationDate,2021-11-07T21:12:53+00:00*%
%TF.ProjectId,RGBtoHDMI Amiga Denise CPLD FFC - CDTV Video Slot,52474274-6f48-4444-9d49-20416d696761,1*%
%TF.SameCoordinates,Original*%
%TF.FileFunction,Soldermask,Bot*%
%TF.FilePolarity,Negative*%
%FSLAX46Y46*%
G04 Gerber Fmt 4.6, Leading zero omitted, Abs format (unit mm)*
G04 Created by KiCad (PCBNEW (5.1.9)-1) date 2021-11-07 21:12:53*
%MOMM*%
%LPD*%
G01*
G04 APERTURE LIST*
%ADD10C,0.100000*%
%ADD11O,2.000000X2.000000*%
%ADD12C,1.100000*%
%ADD13C,5.300000*%
%ADD14C,3.500000*%
%ADD15C,1.808000*%
%ADD16C,2.250000*%
G04 APERTURE END LIST*
D10*
G36*
X116713000Y-159258000D02*
G01*
X74803000Y-159258000D01*
X74803000Y-149352000D01*
X116713000Y-149352000D01*
X116713000Y-159258000D01*
G37*
X116713000Y-159258000D02*
X74803000Y-159258000D01*
X74803000Y-149352000D01*
X116713000Y-149352000D01*
X116713000Y-159258000D01*
G36*
X63246000Y-44450000D02*
G01*
X59055000Y-44450000D01*
X59055000Y-48260000D01*
X53340000Y-48260000D01*
X53340000Y-37592000D01*
X63246000Y-37592000D01*
X63246000Y-44450000D01*
G37*
X63246000Y-44450000D02*
X59055000Y-44450000D01*
X59055000Y-48260000D01*
X53340000Y-48260000D01*
X53340000Y-37592000D01*
X63246000Y-37592000D01*
X63246000Y-44450000D01*
G36*
X139065000Y-48260000D02*
G01*
X133350000Y-48260000D01*
X133350000Y-44196000D01*
X129032000Y-44196000D01*
X129032000Y-37592000D01*
X139065000Y-37592000D01*
X139065000Y-48260000D01*
G37*
X139065000Y-48260000D02*
X133350000Y-48260000D01*
X133350000Y-44196000D01*
X129032000Y-44196000D01*
X129032000Y-37592000D01*
X139065000Y-37592000D01*
X139065000Y-48260000D01*
%TO.C,SERIAL1*%
G36*
G01*
X120865000Y-49133000D02*
X119165000Y-49133000D01*
G75*
G02*
X119015000Y-48983000I0J150000D01*
G01*
X119015000Y-47283000D01*
G75*
G02*
X119165000Y-47133000I150000J0D01*
G01*
X120865000Y-47133000D01*
G75*
G02*
X121015000Y-47283000I0J-150000D01*
G01*
X121015000Y-48983000D01*
G75*
G02*
X120865000Y-49133000I-150000J0D01*
G01*
G37*
D11*
X117475000Y-48133000D03*
X114935000Y-48133000D03*
X112395000Y-48133000D03*
%TD*%
D12*
%TO.C,H4*%
X126700225Y-65476175D03*
X125374400Y-64927000D03*
X124048575Y-65476175D03*
X123499400Y-66802000D03*
X124048575Y-68127825D03*
X125374400Y-68677000D03*
X126700225Y-68127825D03*
X127249400Y-66802000D03*
D13*
X125374400Y-66802000D03*
%TD*%
D12*
%TO.C,H3*%
X68280225Y-65476175D03*
X66954400Y-64927000D03*
X65628575Y-65476175D03*
X65079400Y-66802000D03*
X65628575Y-68127825D03*
X66954400Y-68677000D03*
X68280225Y-68127825D03*
X68829400Y-66802000D03*
D13*
X66954400Y-66802000D03*
%TD*%
D12*
%TO.C,H2*%
X126700225Y-42616175D03*
X125374400Y-42067000D03*
X124048575Y-42616175D03*
X123499400Y-43942000D03*
X124048575Y-45267825D03*
X125374400Y-45817000D03*
X126700225Y-45267825D03*
X127249400Y-43942000D03*
D13*
X125374400Y-43942000D03*
%TD*%
D12*
%TO.C,H1*%
X68280225Y-42616175D03*
X66954400Y-42067000D03*
X65628575Y-42616175D03*
X65079400Y-43942000D03*
X65628575Y-45267825D03*
X66954400Y-45817000D03*
X68280225Y-45267825D03*
X68829400Y-43942000D03*
D13*
X66954400Y-43942000D03*
%TD*%
D11*
%TO.C,D2*%
X118745000Y-53467000D03*
G36*
G01*
X120435000Y-52467000D02*
X122135000Y-52467000D01*
G75*
G02*
X122285000Y-52617000I0J-150000D01*
G01*
X122285000Y-54317000D01*
G75*
G02*
X122135000Y-54467000I-150000J0D01*
G01*
X120435000Y-54467000D01*
G75*
G02*
X120285000Y-54317000I0J150000D01*
G01*
X120285000Y-52617000D01*
G75*
G02*
X120435000Y-52467000I150000J0D01*
G01*
G37*
%TD*%
%TO.C,D1*%
X111125000Y-53467000D03*
G36*
G01*
X112815000Y-52467000D02*
X114515000Y-52467000D01*
G75*
G02*
X114665000Y-52617000I0J-150000D01*
G01*
X114665000Y-54317000D01*
G75*
G02*
X114515000Y-54467000I-150000J0D01*
G01*
X112815000Y-54467000D01*
G75*
G02*
X112665000Y-54317000I0J150000D01*
G01*
X112665000Y-52617000D01*
G75*
G02*
X112815000Y-52467000I150000J0D01*
G01*
G37*
%TD*%
D14*
%TO.C,H6*%
X136118600Y-44246800D03*
%TD*%
%TO.C,H5*%
X56159400Y-44246800D03*
%TD*%
D11*
%TO.C,BT3*%
X76581000Y-53340000D03*
G36*
G01*
X74891000Y-54340000D02*
X73191000Y-54340000D01*
G75*
G02*
X73041000Y-54190000I0J150000D01*
G01*
X73041000Y-52490000D01*
G75*
G02*
X73191000Y-52340000I150000J0D01*
G01*
X74891000Y-52340000D01*
G75*
G02*
X75041000Y-52490000I0J-150000D01*
G01*
X75041000Y-54190000D01*
G75*
G02*
X74891000Y-54340000I-150000J0D01*
G01*
G37*
%TD*%
%TO.C,BT2*%
X88646000Y-53340000D03*
G36*
G01*
X86956000Y-54340000D02*
X85256000Y-54340000D01*
G75*
G02*
X85106000Y-54190000I0J150000D01*
G01*
X85106000Y-52490000D01*
G75*
G02*
X85256000Y-52340000I150000J0D01*
G01*
X86956000Y-52340000D01*
G75*
G02*
X87106000Y-52490000I0J-150000D01*
G01*
X87106000Y-54190000D01*
G75*
G02*
X86956000Y-54340000I-150000J0D01*
G01*
G37*
%TD*%
%TO.C,BT1*%
X100584000Y-53340000D03*
G36*
G01*
X98894000Y-54340000D02*
X97194000Y-54340000D01*
G75*
G02*
X97044000Y-54190000I0J150000D01*
G01*
X97044000Y-52490000D01*
G75*
G02*
X97194000Y-52340000I150000J0D01*
G01*
X98894000Y-52340000D01*
G75*
G02*
X99044000Y-52490000I0J-150000D01*
G01*
X99044000Y-54190000D01*
G75*
G02*
X98894000Y-54340000I-150000J0D01*
G01*
G37*
%TD*%
D15*
%TO.C,BT13*%
X73036000Y-43434000D03*
X77586000Y-43434000D03*
D16*
X71811000Y-45934000D03*
X78811000Y-45934000D03*
%TD*%
D15*
%TO.C,BT12*%
X84999400Y-43434000D03*
X89549400Y-43434000D03*
D16*
X83774400Y-45934000D03*
X90774400Y-45934000D03*
%TD*%
D15*
%TO.C,BT11*%
X96912000Y-43434000D03*
X101462000Y-43434000D03*
D16*
X95687000Y-45934000D03*
X102687000Y-45934000D03*
%TD*%
D11*
%TO.C,JP1*%
X111760000Y-76327000D03*
G36*
G01*
X108370000Y-75327000D02*
X110070000Y-75327000D01*
G75*
G02*
X110220000Y-75477000I0J-150000D01*
G01*
X110220000Y-77177000D01*
G75*
G02*
X110070000Y-77327000I-150000J0D01*
G01*
X108370000Y-77327000D01*
G75*
G02*
X108220000Y-77177000I0J150000D01*
G01*
X108220000Y-75477000D01*
G75*
G02*
X108370000Y-75327000I150000J0D01*
G01*
G37*
%TD*%
%TO.C,JTAG1*%
X89433400Y-111836200D03*
X91973400Y-111836200D03*
X94513400Y-111836200D03*
X97053400Y-111836200D03*
X99593400Y-111836200D03*
G36*
G01*
X102983400Y-112836200D02*
X101283400Y-112836200D01*
G75*
G02*
X101133400Y-112686200I0J150000D01*
G01*
X101133400Y-110986200D01*
G75*
G02*
X101283400Y-110836200I150000J0D01*
G01*
X102983400Y-110836200D01*
G75*
G02*
X103133400Y-110986200I0J-150000D01*
G01*
X103133400Y-112686200D01*
G75*
G02*
X102983400Y-112836200I-150000J0D01*
G01*
G37*
%TD*%
%TO.C,J1*%
X72034400Y-68072000D03*
X72034400Y-65532000D03*
X74574400Y-68072000D03*
X74574400Y-65532000D03*
X77114400Y-68072000D03*
X77114400Y-65532000D03*
X79654400Y-68072000D03*
X79654400Y-65532000D03*
X82194400Y-68072000D03*
X82194400Y-65532000D03*
X84734400Y-68072000D03*
X84734400Y-65532000D03*
X87274400Y-68072000D03*
X87274400Y-65532000D03*
X89814400Y-68072000D03*
X89814400Y-65532000D03*
X92354400Y-68072000D03*
X92354400Y-65532000D03*
X94894400Y-68072000D03*
X94894400Y-65532000D03*
X97434400Y-68072000D03*
X97434400Y-65532000D03*
X99974400Y-68072000D03*
X99974400Y-65532000D03*
X102514400Y-68072000D03*
X102514400Y-65532000D03*
X105054400Y-68072000D03*
X105054400Y-65532000D03*
X107594400Y-68072000D03*
X107594400Y-65532000D03*
X110134400Y-68072000D03*
X110134400Y-65532000D03*
X112674400Y-68072000D03*
X112674400Y-65532000D03*
X115214400Y-68072000D03*
X115214400Y-65532000D03*
X117754400Y-68072000D03*
X117754400Y-65532000D03*
X120294400Y-68072000D03*
G36*
G01*
X121144400Y-66532000D02*
X119444400Y-66532000D01*
G75*
G02*
X119294400Y-66382000I0J150000D01*
G01*
X119294400Y-64682000D01*
G75*
G02*
X119444400Y-64532000I150000J0D01*
G01*
X121144400Y-64532000D01*
G75*
G02*
X121294400Y-64682000I0J-150000D01*
G01*
X121294400Y-66382000D01*
G75*
G02*
X121144400Y-66532000I-150000J0D01*
G01*
G37*
%TD*%
M02*
