%TF.GenerationSoftware,KiCad,Pcbnew,(5.1.9)-1*%
%TF.CreationDate,2021-12-04T16:06:40+00:00*%
%TF.ProjectId,RGBtoHDMI Amiga Denise CPLD FFC - CDTV Video Slot,52474274-6f48-4444-9d49-20416d696761,1*%
%TF.SameCoordinates,Original*%
%TF.FileFunction,Legend,Bot*%
%TF.FilePolarity,Positive*%
%FSLAX46Y46*%
G04 Gerber Fmt 4.6, Leading zero omitted, Abs format (unit mm)*
G04 Created by KiCad (PCBNEW (5.1.9)-1) date 2021-12-04 16:06:40*
%MOMM*%
%LPD*%
G01*
G04 APERTURE LIST*
%ADD10C,0.100000*%
%ADD11C,0.150000*%
%ADD12C,0.120000*%
%ADD13C,0.127000*%
G04 APERTURE END LIST*
D10*
X105625828Y-69729000D02*
X105697257Y-69693285D01*
X105804400Y-69693285D01*
X105911542Y-69729000D01*
X105982971Y-69800428D01*
X106018685Y-69871857D01*
X106054400Y-70014714D01*
X106054400Y-70121857D01*
X106018685Y-70264714D01*
X105982971Y-70336142D01*
X105911542Y-70407571D01*
X105804400Y-70443285D01*
X105732971Y-70443285D01*
X105625828Y-70407571D01*
X105590114Y-70371857D01*
X105590114Y-70121857D01*
X105732971Y-70121857D01*
X105268685Y-70443285D02*
X105268685Y-69693285D01*
X104840114Y-70443285D01*
X104840114Y-69693285D01*
X104482971Y-70443285D02*
X104482971Y-69693285D01*
X104304400Y-69693285D01*
X104197257Y-69729000D01*
X104125828Y-69800428D01*
X104090114Y-69871857D01*
X104054400Y-70014714D01*
X104054400Y-70121857D01*
X104090114Y-70264714D01*
X104125828Y-70336142D01*
X104197257Y-70407571D01*
X104304400Y-70443285D01*
X104482971Y-70443285D01*
X120090285Y-70157571D02*
X119518857Y-70157571D01*
X119804571Y-70443285D02*
X119804571Y-69871857D01*
X118804571Y-69693285D02*
X119161714Y-69693285D01*
X119197428Y-70050428D01*
X119161714Y-70014714D01*
X119090285Y-69979000D01*
X118911714Y-69979000D01*
X118840285Y-70014714D01*
X118804571Y-70050428D01*
X118768857Y-70121857D01*
X118768857Y-70300428D01*
X118804571Y-70371857D01*
X118840285Y-70407571D01*
X118911714Y-70443285D01*
X119090285Y-70443285D01*
X119161714Y-70407571D01*
X119197428Y-70371857D01*
X118554571Y-69693285D02*
X118304571Y-70443285D01*
X118054571Y-69693285D01*
X113093428Y-69693285D02*
X112664857Y-69693285D01*
X112879142Y-70443285D02*
X112879142Y-69693285D01*
X112486285Y-69693285D02*
X111986285Y-70443285D01*
X111986285Y-69693285D02*
X112486285Y-70443285D01*
X110361000Y-70443285D02*
X110611000Y-70086142D01*
X110789571Y-70443285D02*
X110789571Y-69693285D01*
X110503857Y-69693285D01*
X110432428Y-69729000D01*
X110396714Y-69764714D01*
X110361000Y-69836142D01*
X110361000Y-69943285D01*
X110396714Y-70014714D01*
X110432428Y-70050428D01*
X110503857Y-70086142D01*
X110789571Y-70086142D01*
X110111000Y-69693285D02*
X109611000Y-70443285D01*
X109611000Y-69693285D02*
X110111000Y-70443285D01*
D11*
X134921047Y-146518380D02*
X134921047Y-147232666D01*
X134968666Y-147375523D01*
X135063904Y-147470761D01*
X135206761Y-147518380D01*
X135302000Y-147518380D01*
X133968666Y-147518380D02*
X134444857Y-147518380D01*
X134444857Y-146518380D01*
X133063904Y-147423142D02*
X133111523Y-147470761D01*
X133254380Y-147518380D01*
X133349619Y-147518380D01*
X133492476Y-147470761D01*
X133587714Y-147375523D01*
X133635333Y-147280285D01*
X133682952Y-147089809D01*
X133682952Y-146946952D01*
X133635333Y-146756476D01*
X133587714Y-146661238D01*
X133492476Y-146566000D01*
X133349619Y-146518380D01*
X133254380Y-146518380D01*
X133111523Y-146566000D01*
X133063904Y-146613619D01*
X132349619Y-146518380D02*
X132349619Y-147232666D01*
X132397238Y-147375523D01*
X132492476Y-147470761D01*
X132635333Y-147518380D01*
X132730571Y-147518380D01*
X131397238Y-147518380D02*
X131873428Y-147518380D01*
X131873428Y-146518380D01*
X130492476Y-147423142D02*
X130540095Y-147470761D01*
X130682952Y-147518380D01*
X130778190Y-147518380D01*
X130921047Y-147470761D01*
X131016285Y-147375523D01*
X131063904Y-147280285D01*
X131111523Y-147089809D01*
X131111523Y-146946952D01*
X131063904Y-146756476D01*
X131016285Y-146661238D01*
X130921047Y-146566000D01*
X130778190Y-146518380D01*
X130682952Y-146518380D01*
X130540095Y-146566000D01*
X130492476Y-146613619D01*
X129778190Y-146518380D02*
X129778190Y-147232666D01*
X129825809Y-147375523D01*
X129921047Y-147470761D01*
X130063904Y-147518380D01*
X130159142Y-147518380D01*
X128825809Y-147518380D02*
X129302000Y-147518380D01*
X129302000Y-146518380D01*
X127921047Y-147423142D02*
X127968666Y-147470761D01*
X128111523Y-147518380D01*
X128206761Y-147518380D01*
X128349619Y-147470761D01*
X128444857Y-147375523D01*
X128492476Y-147280285D01*
X128540095Y-147089809D01*
X128540095Y-146946952D01*
X128492476Y-146756476D01*
X128444857Y-146661238D01*
X128349619Y-146566000D01*
X128206761Y-146518380D01*
X128111523Y-146518380D01*
X127968666Y-146566000D01*
X127921047Y-146613619D01*
X127206761Y-146518380D02*
X127206761Y-147232666D01*
X127254380Y-147375523D01*
X127349619Y-147470761D01*
X127492476Y-147518380D01*
X127587714Y-147518380D01*
X126254380Y-147518380D02*
X126730571Y-147518380D01*
X126730571Y-146518380D01*
X125349619Y-147423142D02*
X125397238Y-147470761D01*
X125540095Y-147518380D01*
X125635333Y-147518380D01*
X125778190Y-147470761D01*
X125873428Y-147375523D01*
X125921047Y-147280285D01*
X125968666Y-147089809D01*
X125968666Y-146946952D01*
X125921047Y-146756476D01*
X125873428Y-146661238D01*
X125778190Y-146566000D01*
X125635333Y-146518380D01*
X125540095Y-146518380D01*
X125397238Y-146566000D01*
X125349619Y-146613619D01*
D10*
X104952142Y-75199285D02*
X104952142Y-75735000D01*
X104987857Y-75842142D01*
X105059285Y-75913571D01*
X105166428Y-75949285D01*
X105237857Y-75949285D01*
X104273571Y-75449285D02*
X104273571Y-75949285D01*
X104595000Y-75449285D02*
X104595000Y-75842142D01*
X104559285Y-75913571D01*
X104487857Y-75949285D01*
X104380714Y-75949285D01*
X104309285Y-75913571D01*
X104273571Y-75877857D01*
X103916428Y-75949285D02*
X103916428Y-75449285D01*
X103916428Y-75520714D02*
X103880714Y-75485000D01*
X103809285Y-75449285D01*
X103702142Y-75449285D01*
X103630714Y-75485000D01*
X103595000Y-75556428D01*
X103595000Y-75949285D01*
X103595000Y-75556428D02*
X103559285Y-75485000D01*
X103487857Y-75449285D01*
X103380714Y-75449285D01*
X103309285Y-75485000D01*
X103273571Y-75556428D01*
X103273571Y-75949285D01*
X102916428Y-75449285D02*
X102916428Y-76199285D01*
X102916428Y-75485000D02*
X102845000Y-75449285D01*
X102702142Y-75449285D01*
X102630714Y-75485000D01*
X102595000Y-75520714D01*
X102559285Y-75592142D01*
X102559285Y-75806428D01*
X102595000Y-75877857D01*
X102630714Y-75913571D01*
X102702142Y-75949285D01*
X102845000Y-75949285D01*
X102916428Y-75913571D01*
X101952142Y-75913571D02*
X102023571Y-75949285D01*
X102166428Y-75949285D01*
X102237857Y-75913571D01*
X102273571Y-75842142D01*
X102273571Y-75556428D01*
X102237857Y-75485000D01*
X102166428Y-75449285D01*
X102023571Y-75449285D01*
X101952142Y-75485000D01*
X101916428Y-75556428D01*
X101916428Y-75627857D01*
X102273571Y-75699285D01*
X101595000Y-75949285D02*
X101595000Y-75449285D01*
X101595000Y-75592142D02*
X101559285Y-75520714D01*
X101523571Y-75485000D01*
X101452142Y-75449285D01*
X101380714Y-75449285D01*
X100345000Y-75199285D02*
X100345000Y-75735000D01*
X100380714Y-75842142D01*
X100452142Y-75913571D01*
X100559285Y-75949285D01*
X100630714Y-75949285D01*
X99987857Y-75949285D02*
X99987857Y-75199285D01*
X99702142Y-75199285D01*
X99630714Y-75235000D01*
X99595000Y-75270714D01*
X99559285Y-75342142D01*
X99559285Y-75449285D01*
X99595000Y-75520714D01*
X99630714Y-75556428D01*
X99702142Y-75592142D01*
X99987857Y-75592142D01*
X98845000Y-75949285D02*
X99273571Y-75949285D01*
X99059285Y-75949285D02*
X99059285Y-75199285D01*
X99130714Y-75306428D01*
X99202142Y-75377857D01*
X99273571Y-75413571D01*
X104702142Y-76674285D02*
X104416428Y-76674285D01*
X104595000Y-77174285D02*
X104595000Y-76531428D01*
X104559285Y-76460000D01*
X104487857Y-76424285D01*
X104416428Y-76424285D01*
X104059285Y-77174285D02*
X104130714Y-77138571D01*
X104166428Y-77102857D01*
X104202142Y-77031428D01*
X104202142Y-76817142D01*
X104166428Y-76745714D01*
X104130714Y-76710000D01*
X104059285Y-76674285D01*
X103952142Y-76674285D01*
X103880714Y-76710000D01*
X103845000Y-76745714D01*
X103809285Y-76817142D01*
X103809285Y-77031428D01*
X103845000Y-77102857D01*
X103880714Y-77138571D01*
X103952142Y-77174285D01*
X104059285Y-77174285D01*
X103487857Y-77174285D02*
X103487857Y-76674285D01*
X103487857Y-76817142D02*
X103452142Y-76745714D01*
X103416428Y-76710000D01*
X103345000Y-76674285D01*
X103273571Y-76674285D01*
X102452142Y-76888571D02*
X101880714Y-76888571D01*
X102166428Y-77174285D02*
X102166428Y-76602857D01*
X101166428Y-76424285D02*
X101523571Y-76424285D01*
X101559285Y-76781428D01*
X101523571Y-76745714D01*
X101452142Y-76710000D01*
X101273571Y-76710000D01*
X101202142Y-76745714D01*
X101166428Y-76781428D01*
X101130714Y-76852857D01*
X101130714Y-77031428D01*
X101166428Y-77102857D01*
X101202142Y-77138571D01*
X101273571Y-77174285D01*
X101452142Y-77174285D01*
X101523571Y-77138571D01*
X101559285Y-77102857D01*
X100916428Y-76424285D02*
X100666428Y-77174285D01*
X100416428Y-76424285D01*
X105273571Y-77899285D02*
X104987857Y-77899285D01*
X105166428Y-78399285D02*
X105166428Y-77756428D01*
X105130714Y-77685000D01*
X105059285Y-77649285D01*
X104987857Y-77649285D01*
X104737857Y-78399285D02*
X104737857Y-77899285D01*
X104737857Y-78042142D02*
X104702142Y-77970714D01*
X104666428Y-77935000D01*
X104595000Y-77899285D01*
X104523571Y-77899285D01*
X104166428Y-78399285D02*
X104237857Y-78363571D01*
X104273571Y-78327857D01*
X104309285Y-78256428D01*
X104309285Y-78042142D01*
X104273571Y-77970714D01*
X104237857Y-77935000D01*
X104166428Y-77899285D01*
X104059285Y-77899285D01*
X103987857Y-77935000D01*
X103952142Y-77970714D01*
X103916428Y-78042142D01*
X103916428Y-78256428D01*
X103952142Y-78327857D01*
X103987857Y-78363571D01*
X104059285Y-78399285D01*
X104166428Y-78399285D01*
X103595000Y-78399285D02*
X103595000Y-77899285D01*
X103595000Y-77970714D02*
X103559285Y-77935000D01*
X103487857Y-77899285D01*
X103380714Y-77899285D01*
X103309285Y-77935000D01*
X103273571Y-78006428D01*
X103273571Y-78399285D01*
X103273571Y-78006428D02*
X103237857Y-77935000D01*
X103166428Y-77899285D01*
X103059285Y-77899285D01*
X102987857Y-77935000D01*
X102952142Y-78006428D01*
X102952142Y-78399285D01*
X101773571Y-78006428D02*
X102023571Y-78006428D01*
X102023571Y-78399285D02*
X102023571Y-77649285D01*
X101666428Y-77649285D01*
X101130714Y-78006428D02*
X101380714Y-78006428D01*
X101380714Y-78399285D02*
X101380714Y-77649285D01*
X101023571Y-77649285D01*
X100309285Y-78327857D02*
X100345000Y-78363571D01*
X100452142Y-78399285D01*
X100523571Y-78399285D01*
X100630714Y-78363571D01*
X100702142Y-78292142D01*
X100737857Y-78220714D01*
X100773571Y-78077857D01*
X100773571Y-77970714D01*
X100737857Y-77827857D01*
X100702142Y-77756428D01*
X100630714Y-77685000D01*
X100523571Y-77649285D01*
X100452142Y-77649285D01*
X100345000Y-77685000D01*
X100309285Y-77720714D01*
D11*
X89149685Y-113785057D02*
X89149685Y-114213628D01*
X89899685Y-113999342D02*
X89149685Y-113999342D01*
X89899685Y-114463628D02*
X89149685Y-114463628D01*
X89685400Y-114713628D01*
X89149685Y-114963628D01*
X89899685Y-114963628D01*
X89863971Y-115285057D02*
X89899685Y-115392199D01*
X89899685Y-115570771D01*
X89863971Y-115642199D01*
X89828257Y-115677914D01*
X89756828Y-115713628D01*
X89685400Y-115713628D01*
X89613971Y-115677914D01*
X89578257Y-115642199D01*
X89542542Y-115570771D01*
X89506828Y-115427914D01*
X89471114Y-115356485D01*
X89435400Y-115320771D01*
X89363971Y-115285057D01*
X89292542Y-115285057D01*
X89221114Y-115320771D01*
X89185400Y-115356485D01*
X89149685Y-115427914D01*
X89149685Y-115606485D01*
X89185400Y-115713628D01*
X91689685Y-113785056D02*
X91689685Y-114213628D01*
X92439685Y-113999342D02*
X91689685Y-113999342D01*
X92439685Y-114463628D02*
X91689685Y-114463628D01*
X91689685Y-114642199D01*
X91725400Y-114749342D01*
X91796828Y-114820771D01*
X91868257Y-114856485D01*
X92011114Y-114892199D01*
X92118257Y-114892199D01*
X92261114Y-114856485D01*
X92332542Y-114820771D01*
X92403971Y-114749342D01*
X92439685Y-114642199D01*
X92439685Y-114463628D01*
X92439685Y-115213628D02*
X91689685Y-115213628D01*
X94229685Y-113785057D02*
X94229685Y-114213628D01*
X94979685Y-113999342D02*
X94229685Y-113999342D01*
X94979685Y-114463628D02*
X94229685Y-114463628D01*
X94229685Y-114642200D01*
X94265400Y-114749342D01*
X94336828Y-114820771D01*
X94408257Y-114856485D01*
X94551114Y-114892200D01*
X94658257Y-114892200D01*
X94801114Y-114856485D01*
X94872542Y-114820771D01*
X94943971Y-114749342D01*
X94979685Y-114642200D01*
X94979685Y-114463628D01*
X94229685Y-115356485D02*
X94229685Y-115499342D01*
X94265400Y-115570771D01*
X94336828Y-115642200D01*
X94479685Y-115677914D01*
X94729685Y-115677914D01*
X94872542Y-115642200D01*
X94943971Y-115570771D01*
X94979685Y-115499342D01*
X94979685Y-115356485D01*
X94943971Y-115285057D01*
X94872542Y-115213628D01*
X94729685Y-115177914D01*
X94479685Y-115177914D01*
X94336828Y-115213628D01*
X94265400Y-115285057D01*
X94229685Y-115356485D01*
X96769685Y-113785057D02*
X96769685Y-114213628D01*
X97519685Y-113999343D02*
X96769685Y-113999343D01*
X97448257Y-114892200D02*
X97483971Y-114856485D01*
X97519685Y-114749343D01*
X97519685Y-114677914D01*
X97483971Y-114570771D01*
X97412542Y-114499343D01*
X97341114Y-114463628D01*
X97198257Y-114427914D01*
X97091114Y-114427914D01*
X96948257Y-114463628D01*
X96876828Y-114499343D01*
X96805400Y-114570771D01*
X96769685Y-114677914D01*
X96769685Y-114749343D01*
X96805400Y-114856485D01*
X96841114Y-114892200D01*
X97519685Y-115213628D02*
X96769685Y-115213628D01*
X97519685Y-115642200D02*
X97091114Y-115320771D01*
X96769685Y-115642200D02*
X97198257Y-115213628D01*
X99345400Y-114285056D02*
X99309685Y-114213627D01*
X99309685Y-114106485D01*
X99345400Y-113999342D01*
X99416828Y-113927913D01*
X99488257Y-113892199D01*
X99631114Y-113856485D01*
X99738257Y-113856485D01*
X99881114Y-113892199D01*
X99952542Y-113927913D01*
X100023971Y-113999342D01*
X100059685Y-114106485D01*
X100059685Y-114177913D01*
X100023971Y-114285056D01*
X99988257Y-114320770D01*
X99738257Y-114320770D01*
X99738257Y-114177913D01*
X100059685Y-114642199D02*
X99309685Y-114642199D01*
X100059685Y-115070770D01*
X99309685Y-115070770D01*
X100059685Y-115427913D02*
X99309685Y-115427913D01*
X99309685Y-115606485D01*
X99345400Y-115713627D01*
X99416828Y-115785056D01*
X99488257Y-115820770D01*
X99631114Y-115856485D01*
X99738257Y-115856485D01*
X99881114Y-115820770D01*
X99952542Y-115785056D01*
X100023971Y-115713627D01*
X100059685Y-115606485D01*
X100059685Y-115427913D01*
X102313971Y-113892200D02*
X102313971Y-114463628D01*
X102599685Y-114177914D02*
X102028257Y-114177914D01*
X101849685Y-114749342D02*
X101849685Y-115213628D01*
X102135400Y-114963628D01*
X102135400Y-115070771D01*
X102171114Y-115142200D01*
X102206828Y-115177914D01*
X102278257Y-115213628D01*
X102456828Y-115213628D01*
X102528257Y-115177914D01*
X102563971Y-115142200D01*
X102599685Y-115070771D01*
X102599685Y-114856485D01*
X102563971Y-114785057D01*
X102528257Y-114749342D01*
X102528257Y-115535057D02*
X102563971Y-115570771D01*
X102599685Y-115535057D01*
X102563971Y-115499342D01*
X102528257Y-115535057D01*
X102599685Y-115535057D01*
X101849685Y-115820771D02*
X101849685Y-116285057D01*
X102135400Y-116035057D01*
X102135400Y-116142200D01*
X102171114Y-116213628D01*
X102206828Y-116249342D01*
X102278257Y-116285057D01*
X102456828Y-116285057D01*
X102528257Y-116249342D01*
X102563971Y-116213628D01*
X102599685Y-116142200D01*
X102599685Y-115927914D01*
X102563971Y-115856485D01*
X102528257Y-115820771D01*
X101849685Y-116499342D02*
X102599685Y-116749342D01*
X101849685Y-116999342D01*
D12*
%TO.C,SERIAL1*%
X121285000Y-49403000D02*
X121285000Y-48133000D01*
X120015000Y-49403000D02*
X121285000Y-49403000D01*
X112015000Y-47090071D02*
X112015000Y-46693000D01*
X112775000Y-47090071D02*
X112775000Y-46693000D01*
X112015000Y-38033000D02*
X112015000Y-44033000D01*
X112775000Y-38033000D02*
X112015000Y-38033000D01*
X112775000Y-44033000D02*
X112775000Y-38033000D01*
X113665000Y-46693000D02*
X113665000Y-44033000D01*
X114555000Y-47090071D02*
X114555000Y-46693000D01*
X115315000Y-47090071D02*
X115315000Y-46693000D01*
X114555000Y-38033000D02*
X114555000Y-44033000D01*
X115315000Y-38033000D02*
X114555000Y-38033000D01*
X115315000Y-44033000D02*
X115315000Y-38033000D01*
X116205000Y-46693000D02*
X116205000Y-44033000D01*
X117095000Y-47090071D02*
X117095000Y-46693000D01*
X117855000Y-47090071D02*
X117855000Y-46693000D01*
X117095000Y-38033000D02*
X117095000Y-44033000D01*
X117855000Y-38033000D02*
X117095000Y-38033000D01*
X117855000Y-44033000D02*
X117855000Y-38033000D01*
X118745000Y-46693000D02*
X118745000Y-44033000D01*
X119635000Y-47023000D02*
X119635000Y-46693000D01*
X120395000Y-47023000D02*
X120395000Y-46693000D01*
X119735000Y-44033000D02*
X119735000Y-38033000D01*
X119855000Y-44033000D02*
X119855000Y-38033000D01*
X119975000Y-44033000D02*
X119975000Y-38033000D01*
X120095000Y-44033000D02*
X120095000Y-38033000D01*
X120215000Y-44033000D02*
X120215000Y-38033000D01*
X120335000Y-44033000D02*
X120335000Y-38033000D01*
X119635000Y-38033000D02*
X119635000Y-44033000D01*
X120395000Y-38033000D02*
X119635000Y-38033000D01*
X120395000Y-44033000D02*
X120395000Y-38033000D01*
X121345000Y-44033000D02*
X121345000Y-46693000D01*
X111065000Y-44033000D02*
X121345000Y-44033000D01*
X111065000Y-46693000D02*
X111065000Y-44033000D01*
X121345000Y-46693000D02*
X111065000Y-46693000D01*
D13*
%TO.C,BT13*%
X78911000Y-47434000D02*
X78911000Y-47234000D01*
X71711000Y-47434000D02*
X71711000Y-47234000D01*
X78911000Y-40934000D02*
X78911000Y-44634000D01*
X71711000Y-40934000D02*
X71711000Y-44634000D01*
X78911000Y-40934000D02*
X71711000Y-40934000D01*
X71711000Y-47434000D02*
X78911000Y-47434000D01*
%TO.C,BT12*%
X90874400Y-47434000D02*
X90874400Y-47234000D01*
X83674400Y-47434000D02*
X83674400Y-47234000D01*
X90874400Y-40934000D02*
X90874400Y-44634000D01*
X83674400Y-40934000D02*
X83674400Y-44634000D01*
X90874400Y-40934000D02*
X83674400Y-40934000D01*
X83674400Y-47434000D02*
X90874400Y-47434000D01*
%TO.C,BT11*%
X95587000Y-47434000D02*
X102787000Y-47434000D01*
X102787000Y-40934000D02*
X95587000Y-40934000D01*
X95587000Y-40934000D02*
X95587000Y-44634000D01*
X102787000Y-40934000D02*
X102787000Y-44634000D01*
X95587000Y-47434000D02*
X95587000Y-47234000D01*
X102787000Y-47434000D02*
X102787000Y-47234000D01*
D12*
%TO.C,JP1*%
X107950000Y-75057000D02*
X107950000Y-76327000D01*
X109220000Y-75057000D02*
X107950000Y-75057000D01*
X112140000Y-77369929D02*
X112140000Y-77767000D01*
X111380000Y-77369929D02*
X111380000Y-77767000D01*
X112140000Y-86427000D02*
X112140000Y-80427000D01*
X111380000Y-86427000D02*
X112140000Y-86427000D01*
X111380000Y-80427000D02*
X111380000Y-86427000D01*
X110490000Y-77767000D02*
X110490000Y-80427000D01*
X109600000Y-77437000D02*
X109600000Y-77767000D01*
X108840000Y-77437000D02*
X108840000Y-77767000D01*
X109500000Y-80427000D02*
X109500000Y-86427000D01*
X109380000Y-80427000D02*
X109380000Y-86427000D01*
X109260000Y-80427000D02*
X109260000Y-86427000D01*
X109140000Y-80427000D02*
X109140000Y-86427000D01*
X109020000Y-80427000D02*
X109020000Y-86427000D01*
X108900000Y-80427000D02*
X108900000Y-86427000D01*
X109600000Y-86427000D02*
X109600000Y-80427000D01*
X108840000Y-86427000D02*
X109600000Y-86427000D01*
X108840000Y-80427000D02*
X108840000Y-86427000D01*
X107890000Y-80427000D02*
X107890000Y-77767000D01*
X113090000Y-80427000D02*
X107890000Y-80427000D01*
X113090000Y-77767000D02*
X113090000Y-80427000D01*
X107890000Y-77767000D02*
X113090000Y-77767000D01*
%TO.C,JTAG1*%
X88103400Y-113166200D02*
X88103400Y-110506200D01*
X100863400Y-113166200D02*
X88103400Y-113166200D01*
X100863400Y-110506200D02*
X88103400Y-110506200D01*
X100863400Y-113166200D02*
X100863400Y-110506200D01*
X102133400Y-113166200D02*
X103463400Y-113166200D01*
X103463400Y-113166200D02*
X103463400Y-111836200D01*
%TO.C,J1*%
X121624400Y-69402000D02*
X121624400Y-66802000D01*
X121624400Y-69402000D02*
X70704400Y-69402000D01*
X70704400Y-69402000D02*
X70704400Y-64202000D01*
X119024400Y-64202000D02*
X70704400Y-64202000D01*
X119024400Y-66802000D02*
X119024400Y-64202000D01*
X121624400Y-66802000D02*
X119024400Y-66802000D01*
X121624400Y-64202000D02*
X120294400Y-64202000D01*
X121624400Y-65532000D02*
X121624400Y-64202000D01*
%TO.C,SERIAL1*%
D11*
X110132761Y-41156285D02*
X110180380Y-41299142D01*
X110180380Y-41537238D01*
X110132761Y-41632476D01*
X110085142Y-41680095D01*
X109989904Y-41727714D01*
X109894666Y-41727714D01*
X109799428Y-41680095D01*
X109751809Y-41632476D01*
X109704190Y-41537238D01*
X109656571Y-41346761D01*
X109608952Y-41251523D01*
X109561333Y-41203904D01*
X109466095Y-41156285D01*
X109370857Y-41156285D01*
X109275619Y-41203904D01*
X109228000Y-41251523D01*
X109180380Y-41346761D01*
X109180380Y-41584857D01*
X109228000Y-41727714D01*
X109656571Y-42156285D02*
X109656571Y-42489619D01*
X110180380Y-42632476D02*
X110180380Y-42156285D01*
X109180380Y-42156285D01*
X109180380Y-42632476D01*
X110180380Y-43632476D02*
X109704190Y-43299142D01*
X110180380Y-43061047D02*
X109180380Y-43061047D01*
X109180380Y-43442000D01*
X109228000Y-43537238D01*
X109275619Y-43584857D01*
X109370857Y-43632476D01*
X109513714Y-43632476D01*
X109608952Y-43584857D01*
X109656571Y-43537238D01*
X109704190Y-43442000D01*
X109704190Y-43061047D01*
X110180380Y-44061047D02*
X109180380Y-44061047D01*
X109894666Y-44489619D02*
X109894666Y-44965809D01*
X110180380Y-44394380D02*
X109180380Y-44727714D01*
X110180380Y-45061047D01*
X110180380Y-45870571D02*
X110180380Y-45394380D01*
X109180380Y-45394380D01*
X110180380Y-46727714D02*
X110180380Y-46156285D01*
X110180380Y-46442000D02*
X109180380Y-46442000D01*
X109323238Y-46346761D01*
X109418476Y-46251523D01*
X109466095Y-46156285D01*
%TO.C,BT13*%
D10*
X76574078Y-49712505D02*
X76431088Y-49760168D01*
X76383425Y-49807831D01*
X76335761Y-49903158D01*
X76335761Y-50046148D01*
X76383425Y-50141475D01*
X76431088Y-50189138D01*
X76526415Y-50236801D01*
X76907721Y-50236801D01*
X76907721Y-49235871D01*
X76574078Y-49235871D01*
X76478751Y-49283535D01*
X76431088Y-49331198D01*
X76383425Y-49426525D01*
X76383425Y-49521851D01*
X76431088Y-49617178D01*
X76478751Y-49664841D01*
X76574078Y-49712505D01*
X76907721Y-49712505D01*
X76049781Y-49235871D02*
X75477821Y-49235871D01*
X75763801Y-50236801D02*
X75763801Y-49235871D01*
X74619881Y-50236801D02*
X75191841Y-50236801D01*
X74905861Y-50236801D02*
X74905861Y-49235871D01*
X75001188Y-49378861D01*
X75096515Y-49474188D01*
X75191841Y-49521851D01*
X74286238Y-49235871D02*
X73666615Y-49235871D01*
X74000258Y-49617178D01*
X73857268Y-49617178D01*
X73761941Y-49664841D01*
X73714278Y-49712505D01*
X73666615Y-49807831D01*
X73666615Y-50046148D01*
X73714278Y-50141475D01*
X73761941Y-50189138D01*
X73857268Y-50236801D01*
X74143248Y-50236801D01*
X74238575Y-50189138D01*
X74286238Y-50141475D01*
%TO.C,BT12*%
X88537478Y-49712505D02*
X88394488Y-49760168D01*
X88346825Y-49807831D01*
X88299161Y-49903158D01*
X88299161Y-50046148D01*
X88346825Y-50141475D01*
X88394488Y-50189138D01*
X88489815Y-50236801D01*
X88871121Y-50236801D01*
X88871121Y-49235871D01*
X88537478Y-49235871D01*
X88442151Y-49283535D01*
X88394488Y-49331198D01*
X88346825Y-49426525D01*
X88346825Y-49521851D01*
X88394488Y-49617178D01*
X88442151Y-49664841D01*
X88537478Y-49712505D01*
X88871121Y-49712505D01*
X88013181Y-49235871D02*
X87441221Y-49235871D01*
X87727201Y-50236801D02*
X87727201Y-49235871D01*
X86583281Y-50236801D02*
X87155241Y-50236801D01*
X86869261Y-50236801D02*
X86869261Y-49235871D01*
X86964588Y-49378861D01*
X87059915Y-49474188D01*
X87155241Y-49521851D01*
X86201975Y-49331198D02*
X86154311Y-49283535D01*
X86058985Y-49235871D01*
X85820668Y-49235871D01*
X85725341Y-49283535D01*
X85677678Y-49331198D01*
X85630015Y-49426525D01*
X85630015Y-49521851D01*
X85677678Y-49664841D01*
X86249638Y-50236801D01*
X85630015Y-50236801D01*
%TO.C,BT11*%
D11*
X100196523Y-49726857D02*
X100082238Y-49764952D01*
X100044142Y-49803047D01*
X100006047Y-49879238D01*
X100006047Y-49993523D01*
X100044142Y-50069714D01*
X100082238Y-50107809D01*
X100158428Y-50145904D01*
X100463190Y-50145904D01*
X100463190Y-49345904D01*
X100196523Y-49345904D01*
X100120333Y-49384000D01*
X100082238Y-49422095D01*
X100044142Y-49498285D01*
X100044142Y-49574476D01*
X100082238Y-49650666D01*
X100120333Y-49688761D01*
X100196523Y-49726857D01*
X100463190Y-49726857D01*
X99777476Y-49345904D02*
X99320333Y-49345904D01*
X99548904Y-50145904D02*
X99548904Y-49345904D01*
X98634619Y-50145904D02*
X99091761Y-50145904D01*
X98863190Y-50145904D02*
X98863190Y-49345904D01*
X98939380Y-49460190D01*
X99015571Y-49536380D01*
X99091761Y-49574476D01*
X97872714Y-50145904D02*
X98329857Y-50145904D01*
X98101285Y-50145904D02*
X98101285Y-49345904D01*
X98177476Y-49460190D01*
X98253666Y-49536380D01*
X98329857Y-49574476D01*
%TO.C,JP1*%
X111323333Y-73112380D02*
X111323333Y-73826666D01*
X111370952Y-73969523D01*
X111466190Y-74064761D01*
X111609047Y-74112380D01*
X111704285Y-74112380D01*
X110847142Y-74112380D02*
X110847142Y-73112380D01*
X110466190Y-73112380D01*
X110370952Y-73160000D01*
X110323333Y-73207619D01*
X110275714Y-73302857D01*
X110275714Y-73445714D01*
X110323333Y-73540952D01*
X110370952Y-73588571D01*
X110466190Y-73636190D01*
X110847142Y-73636190D01*
X109323333Y-74112380D02*
X109894761Y-74112380D01*
X109609047Y-74112380D02*
X109609047Y-73112380D01*
X109704285Y-73255238D01*
X109799523Y-73350476D01*
X109894761Y-73398095D01*
%TO.C,JTAG1*%
X97527857Y-108672380D02*
X97527857Y-109386666D01*
X97575476Y-109529523D01*
X97670714Y-109624761D01*
X97813571Y-109672380D01*
X97908809Y-109672380D01*
X97194523Y-108672380D02*
X96623095Y-108672380D01*
X96908809Y-109672380D02*
X96908809Y-108672380D01*
X96337380Y-109386666D02*
X95861190Y-109386666D01*
X96432619Y-109672380D02*
X96099285Y-108672380D01*
X95765952Y-109672380D01*
X94908809Y-108720000D02*
X95004047Y-108672380D01*
X95146904Y-108672380D01*
X95289761Y-108720000D01*
X95385000Y-108815238D01*
X95432619Y-108910476D01*
X95480238Y-109100952D01*
X95480238Y-109243809D01*
X95432619Y-109434285D01*
X95385000Y-109529523D01*
X95289761Y-109624761D01*
X95146904Y-109672380D01*
X95051666Y-109672380D01*
X94908809Y-109624761D01*
X94861190Y-109577142D01*
X94861190Y-109243809D01*
X95051666Y-109243809D01*
X93908809Y-109672380D02*
X94480238Y-109672380D01*
X94194523Y-109672380D02*
X94194523Y-108672380D01*
X94289761Y-108815238D01*
X94385000Y-108910476D01*
X94480238Y-108958095D01*
%TD*%
M02*
