  0
SECTION
  2
HEADER
  9
$ANGBASE
  50
0.0
  9
$ANGDIR
  70
1
  9
$MEASUREMENT
  70
1
  0
ENDSEC
  0
SECTION
  2
TABLES
  0
TABLE
  2
LTYPE
  70
4
  0
LTYPE
  5
40F
  2
CONTINUOUS
  70
0
  3
Solid line
  72
65
  73
0
  40
0.0
  0
LTYPE
  5
410
  2
DASHDOT
 70
0
  3
Dash Dot ____ _ ____ _
 72
65
 73
4
 40
2.0
 49
1.25
 49
-0.25
 49
0.25
 49
-0.25
  0
LTYPE
  5
411
  2
DASHED
 70
0
  3
Dashed __ __ __ __ __
 72
65
 73
2
 40
0.75
 49
0.5
 49
-0.25
  0
LTYPE
  5
43B
  2
DOTTED
 70
0
  3
Dotted .  .  .  .
 72
65
 73
2
 40
0.2
 49
0.0
 49
-0.2
  0
ENDTAB
  0
TABLE
  2
STYLE
  70
4
  0
STYLE
  2
KICAD
  70
0
  40
0
  41
1
  42
1
  50
0
  71
0
  3
isocp.shx
  0
STYLE
  2
KICADB
  70
0
  40
0
  41
1
  42
1
  50
0
  71
0
  3
isocp.shx
  0
STYLE
  2
KICADI
  70
0
  40
0
  41
1
  42
1
  50
15
  71
0
  3
isocp.shx
  0
STYLE
  2
KICADBI
  70
0
  40
0
  41
1
  42
1
  50
15
  71
0
  3
isocp.shx
  0
ENDTAB
  0
TABLE
  2
LAYER
  70
1
  0
LAYER
  2
BLACK
  70
0
  62
7
  6
CONTINUOUS
  0
ENDTAB
  0
ENDSEC
  0
SECTION
  2
ENTITIES
0
LINE
8
BLACK
6
CONTINUOUS
10
94.8958
20
-103.801
11
94.9427
21
-103.815
0
LINE
8
BLACK
6
CONTINUOUS
10
94.9427
20
-103.815
11
94.9859
21
-103.838
0
LINE
8
BLACK
6
CONTINUOUS
10
94.9859
20
-103.838
11
95.0238
21
-103.869
0
LINE
8
BLACK
6
CONTINUOUS
10
95.0238
20
-103.869
11
95.0549
21
-103.907
0
LINE
8
BLACK
6
CONTINUOUS
10
95.0549
20
-103.907
11
95.078
21
-103.95
0
LINE
8
BLACK
6
CONTINUOUS
10
95.078
20
-103.95
11
95.0922
21
-103.997
0
LINE
8
BLACK
6
CONTINUOUS
10
95.0922
20
-103.997
11
95.097
21
-104.046
0
LINE
8
BLACK
6
CONTINUOUS
10
95.097
20
-104.046
11
95.097
21
-104.996
0
LINE
8
BLACK
6
CONTINUOUS
10
95.097
20
-104.996
11
95.0922
21
-105.045
0
LINE
8
BLACK
6
CONTINUOUS
10
95.0922
20
-105.045
11
95.078
21
-105.092
0
LINE
8
BLACK
6
CONTINUOUS
10
95.078
20
-105.092
11
95.0549
21
-105.135
0
LINE
8
BLACK
6
CONTINUOUS
10
95.0549
20
-105.135
11
95.0238
21
-105.173
0
LINE
8
BLACK
6
CONTINUOUS
10
95.0238
20
-105.173
11
94.9859
21
-105.204
0
LINE
8
BLACK
6
CONTINUOUS
10
94.9859
20
-105.204
11
94.9427
21
-105.227
0
LINE
8
BLACK
6
CONTINUOUS
10
94.9427
20
-105.227
11
94.8958
21
-105.241
0
LINE
8
BLACK
6
CONTINUOUS
10
94.8958
20
-105.241
11
94.847
21
-105.246
0
LINE
8
BLACK
6
CONTINUOUS
10
94.847
20
-105.246
11
94.172
21
-105.246
0
LINE
8
BLACK
6
CONTINUOUS
10
94.172
20
-105.246
11
94.1232
21
-105.241
0
LINE
8
BLACK
6
CONTINUOUS
10
94.1232
20
-105.241
11
94.0763
21
-105.227
0
LINE
8
BLACK
6
CONTINUOUS
10
94.0763
20
-105.227
11
94.0331
21
-105.204
0
LINE
8
BLACK
6
CONTINUOUS
10
94.0331
20
-105.204
11
93.9952
21
-105.173
0
LINE
8
BLACK
6
CONTINUOUS
10
93.9952
20
-105.173
11
93.9641
21
-105.135
0
LINE
8
BLACK
6
CONTINUOUS
10
93.9641
20
-105.135
11
93.941
21
-105.092
0
LINE
8
BLACK
6
CONTINUOUS
10
93.941
20
-105.092
11
93.9268
21
-105.045
0
LINE
8
BLACK
6
CONTINUOUS
10
93.9268
20
-105.045
11
93.922
21
-104.996
0
LINE
8
BLACK
6
CONTINUOUS
10
93.922
20
-104.996
11
93.922
21
-104.046
0
LINE
8
BLACK
6
CONTINUOUS
10
93.922
20
-104.046
11
93.9268
21
-103.997
0
LINE
8
BLACK
6
CONTINUOUS
10
93.9268
20
-103.997
11
93.941
21
-103.95
0
LINE
8
BLACK
6
CONTINUOUS
10
93.941
20
-103.95
11
93.9641
21
-103.907
0
LINE
8
BLACK
6
CONTINUOUS
10
93.9641
20
-103.907
11
93.9952
21
-103.869
0
LINE
8
BLACK
6
CONTINUOUS
10
93.9952
20
-103.869
11
94.0331
21
-103.838
0
LINE
8
BLACK
6
CONTINUOUS
10
94.0331
20
-103.838
11
94.0763
21
-103.815
0
LINE
8
BLACK
6
CONTINUOUS
10
94.0763
20
-103.815
11
94.1232
21
-103.801
0
LINE
8
BLACK
6
CONTINUOUS
10
94.1232
20
-103.801
11
94.172
21
-103.796
0
LINE
8
BLACK
6
CONTINUOUS
10
94.172
20
-103.796
11
94.847
21
-103.796
0
LINE
8
BLACK
6
CONTINUOUS
10
94.847
20
-103.796
11
94.8958
21
-103.801
0
LINE
8
BLACK
6
CONTINUOUS
10
92.8208
20
-103.801
11
92.8677
21
-103.815
0
LINE
8
BLACK
6
CONTINUOUS
10
92.8677
20
-103.815
11
92.9109
21
-103.838
0
LINE
8
BLACK
6
CONTINUOUS
10
92.9109
20
-103.838
11
92.9488
21
-103.869
0
LINE
8
BLACK
6
CONTINUOUS
10
92.9488
20
-103.869
11
92.9799
21
-103.907
0
LINE
8
BLACK
6
CONTINUOUS
10
92.9799
20
-103.907
11
93.003
21
-103.95
0
LINE
8
BLACK
6
CONTINUOUS
10
93.003
20
-103.95
11
93.0172
21
-103.997
0
LINE
8
BLACK
6
CONTINUOUS
10
93.0172
20
-103.997
11
93.022
21
-104.046
0
LINE
8
BLACK
6
CONTINUOUS
10
93.022
20
-104.046
11
93.022
21
-104.996
0
LINE
8
BLACK
6
CONTINUOUS
10
93.022
20
-104.996
11
93.0172
21
-105.045
0
LINE
8
BLACK
6
CONTINUOUS
10
93.0172
20
-105.045
11
93.003
21
-105.092
0
LINE
8
BLACK
6
CONTINUOUS
10
93.003
20
-105.092
11
92.9799
21
-105.135
0
LINE
8
BLACK
6
CONTINUOUS
10
92.9799
20
-105.135
11
92.9488
21
-105.173
0
LINE
8
BLACK
6
CONTINUOUS
10
92.9488
20
-105.173
11
92.9109
21
-105.204
0
LINE
8
BLACK
6
CONTINUOUS
10
92.9109
20
-105.204
11
92.8677
21
-105.227
0
LINE
8
BLACK
6
CONTINUOUS
10
92.8677
20
-105.227
11
92.8208
21
-105.241
0
LINE
8
BLACK
6
CONTINUOUS
10
92.8208
20
-105.241
11
92.772
21
-105.246
0
LINE
8
BLACK
6
CONTINUOUS
10
92.772
20
-105.246
11
92.097
21
-105.246
0
LINE
8
BLACK
6
CONTINUOUS
10
92.097
20
-105.246
11
92.0482
21
-105.241
0
LINE
8
BLACK
6
CONTINUOUS
10
92.0482
20
-105.241
11
92.0013
21
-105.227
0
LINE
8
BLACK
6
CONTINUOUS
10
92.0013
20
-105.227
11
91.9581
21
-105.204
0
LINE
8
BLACK
6
CONTINUOUS
10
91.9581
20
-105.204
11
91.9202
21
-105.173
0
LINE
8
BLACK
6
CONTINUOUS
10
91.9202
20
-105.173
11
91.8891
21
-105.135
0
LINE
8
BLACK
6
CONTINUOUS
10
91.8891
20
-105.135
11
91.866
21
-105.092
0
LINE
8
BLACK
6
CONTINUOUS
10
91.866
20
-105.092
11
91.8518
21
-105.045
0
LINE
8
BLACK
6
CONTINUOUS
10
91.8518
20
-105.045
11
91.847
21
-104.996
0
LINE
8
BLACK
6
CONTINUOUS
10
91.847
20
-104.996
11
91.847
21
-104.046
0
LINE
8
BLACK
6
CONTINUOUS
10
91.847
20
-104.046
11
91.8518
21
-103.997
0
LINE
8
BLACK
6
CONTINUOUS
10
91.8518
20
-103.997
11
91.866
21
-103.95
0
LINE
8
BLACK
6
CONTINUOUS
10
91.866
20
-103.95
11
91.8891
21
-103.907
0
LINE
8
BLACK
6
CONTINUOUS
10
91.8891
20
-103.907
11
91.9202
21
-103.869
0
LINE
8
BLACK
6
CONTINUOUS
10
91.9202
20
-103.869
11
91.9581
21
-103.838
0
LINE
8
BLACK
6
CONTINUOUS
10
91.9581
20
-103.838
11
92.0013
21
-103.815
0
LINE
8
BLACK
6
CONTINUOUS
10
92.0013
20
-103.815
11
92.0482
21
-103.801
0
LINE
8
BLACK
6
CONTINUOUS
10
92.0482
20
-103.801
11
92.097
21
-103.796
0
LINE
8
BLACK
6
CONTINUOUS
10
92.097
20
-103.796
11
92.772
21
-103.796
0
LINE
8
BLACK
6
CONTINUOUS
10
92.772
20
-103.796
11
92.8208
21
-103.801
0
LINE
8
BLACK
6
CONTINUOUS
10
100.129
20
-103.826
11
100.175
21
-103.84
0
LINE
8
BLACK
6
CONTINUOUS
10
100.175
20
-103.84
11
100.219
21
-103.863
0
LINE
8
BLACK
6
CONTINUOUS
10
100.219
20
-103.863
11
100.257
21
-103.894
0
LINE
8
BLACK
6
CONTINUOUS
10
100.257
20
-103.894
11
100.288
21
-103.932
0
LINE
8
BLACK
6
CONTINUOUS
10
100.288
20
-103.932
11
100.311
21
-103.975
0
LINE
8
BLACK
6
CONTINUOUS
10
100.311
20
-103.975
11
100.325
21
-104.022
0
LINE
8
BLACK
6
CONTINUOUS
10
100.325
20
-104.022
11
100.33
21
-104.071
0
LINE
8
BLACK
6
CONTINUOUS
10
100.33
20
-104.071
11
100.33
21
-104.971
0
LINE
8
BLACK
6
CONTINUOUS
10
100.33
20
-104.971
11
100.325
21
-105.02
0
LINE
8
BLACK
6
CONTINUOUS
10
100.325
20
-105.02
11
100.311
21
-105.067
0
LINE
8
BLACK
6
CONTINUOUS
10
100.311
20
-105.067
11
100.288
21
-105.11
0
LINE
8
BLACK
6
CONTINUOUS
10
100.288
20
-105.11
11
100.257
21
-105.148
0
LINE
8
BLACK
6
CONTINUOUS
10
100.257
20
-105.148
11
100.219
21
-105.179
0
LINE
8
BLACK
6
CONTINUOUS
10
100.219
20
-105.179
11
100.175
21
-105.202
0
LINE
8
BLACK
6
CONTINUOUS
10
100.175
20
-105.202
11
100.129
21
-105.216
0
LINE
8
BLACK
6
CONTINUOUS
10
100.129
20
-105.216
11
100.08
21
-105.221
0
LINE
8
BLACK
6
CONTINUOUS
10
100.08
20
-105.221
11
99.3798
21
-105.221
0
LINE
8
BLACK
6
CONTINUOUS
10
99.3798
20
-105.221
11
99.331
21
-105.216
0
LINE
8
BLACK
6
CONTINUOUS
10
99.331
20
-105.216
11
99.2841
21
-105.202
0
LINE
8
BLACK
6
CONTINUOUS
10
99.2841
20
-105.202
11
99.2409
21
-105.179
0
LINE
8
BLACK
6
CONTINUOUS
10
99.2409
20
-105.179
11
99.203
21
-105.148
0
LINE
8
BLACK
6
CONTINUOUS
10
99.203
20
-105.148
11
99.1719
21
-105.11
0
LINE
8
BLACK
6
CONTINUOUS
10
99.1719
20
-105.11
11
99.1488
21
-105.067
0
LINE
8
BLACK
6
CONTINUOUS
10
99.1488
20
-105.067
11
99.1346
21
-105.02
0
LINE
8
BLACK
6
CONTINUOUS
10
99.1346
20
-105.02
11
99.1298
21
-104.971
0
LINE
8
BLACK
6
CONTINUOUS
10
99.1298
20
-104.971
11
99.1298
21
-104.071
0
LINE
8
BLACK
6
CONTINUOUS
10
99.1298
20
-104.071
11
99.1346
21
-104.022
0
LINE
8
BLACK
6
CONTINUOUS
10
99.1346
20
-104.022
11
99.1488
21
-103.975
0
LINE
8
BLACK
6
CONTINUOUS
10
99.1488
20
-103.975
11
99.1719
21
-103.932
0
LINE
8
BLACK
6
CONTINUOUS
10
99.1719
20
-103.932
11
99.203
21
-103.894
0
LINE
8
BLACK
6
CONTINUOUS
10
99.203
20
-103.894
11
99.2409
21
-103.863
0
LINE
8
BLACK
6
CONTINUOUS
10
99.2409
20
-103.863
11
99.2841
21
-103.84
0
LINE
8
BLACK
6
CONTINUOUS
10
99.2841
20
-103.84
11
99.331
21
-103.826
0
LINE
8
BLACK
6
CONTINUOUS
10
99.331
20
-103.826
11
99.3798
21
-103.821
0
LINE
8
BLACK
6
CONTINUOUS
10
99.3798
20
-103.821
11
100.08
21
-103.821
0
LINE
8
BLACK
6
CONTINUOUS
10
100.08
20
-103.821
11
100.129
21
-103.826
0
LINE
8
BLACK
6
CONTINUOUS
10
98.1286
20
-103.826
11
98.1755
21
-103.84
0
LINE
8
BLACK
6
CONTINUOUS
10
98.1755
20
-103.84
11
98.2187
21
-103.863
0
LINE
8
BLACK
6
CONTINUOUS
10
98.2187
20
-103.863
11
98.2566
21
-103.894
0
LINE
8
BLACK
6
CONTINUOUS
10
98.2566
20
-103.894
11
98.2877
21
-103.932
0
LINE
8
BLACK
6
CONTINUOUS
10
98.2877
20
-103.932
11
98.3108
21
-103.975
0
LINE
8
BLACK
6
CONTINUOUS
10
98.3108
20
-103.975
11
98.325
21
-104.022
0
LINE
8
BLACK
6
CONTINUOUS
10
98.325
20
-104.022
11
98.3298
21
-104.071
0
LINE
8
BLACK
6
CONTINUOUS
10
98.3298
20
-104.071
11
98.3298
21
-104.971
0
LINE
8
BLACK
6
CONTINUOUS
10
98.3298
20
-104.971
11
98.325
21
-105.02
0
LINE
8
BLACK
6
CONTINUOUS
10
98.325
20
-105.02
11
98.3108
21
-105.067
0
LINE
8
BLACK
6
CONTINUOUS
10
98.3108
20
-105.067
11
98.2877
21
-105.11
0
LINE
8
BLACK
6
CONTINUOUS
10
98.2877
20
-105.11
11
98.2566
21
-105.148
0
LINE
8
BLACK
6
CONTINUOUS
10
98.2566
20
-105.148
11
98.2187
21
-105.179
0
LINE
8
BLACK
6
CONTINUOUS
10
98.2187
20
-105.179
11
98.1755
21
-105.202
0
LINE
8
BLACK
6
CONTINUOUS
10
98.1755
20
-105.202
11
98.1286
21
-105.216
0
LINE
8
BLACK
6
CONTINUOUS
10
98.1286
20
-105.216
11
98.0798
21
-105.221
0
LINE
8
BLACK
6
CONTINUOUS
10
98.0798
20
-105.221
11
97.3798
21
-105.221
0
LINE
8
BLACK
6
CONTINUOUS
10
97.3798
20
-105.221
11
97.331
21
-105.216
0
LINE
8
BLACK
6
CONTINUOUS
10
97.331
20
-105.216
11
97.2841
21
-105.202
0
LINE
8
BLACK
6
CONTINUOUS
10
97.2841
20
-105.202
11
97.2409
21
-105.179
0
LINE
8
BLACK
6
CONTINUOUS
10
97.2409
20
-105.179
11
97.203
21
-105.148
0
LINE
8
BLACK
6
CONTINUOUS
10
97.203
20
-105.148
11
97.1719
21
-105.11
0
LINE
8
BLACK
6
CONTINUOUS
10
97.1719
20
-105.11
11
97.1488
21
-105.067
0
LINE
8
BLACK
6
CONTINUOUS
10
97.1488
20
-105.067
11
97.1346
21
-105.02
0
LINE
8
BLACK
6
CONTINUOUS
10
97.1346
20
-105.02
11
97.1298
21
-104.971
0
LINE
8
BLACK
6
CONTINUOUS
10
97.1298
20
-104.971
11
97.1298
21
-104.071
0
LINE
8
BLACK
6
CONTINUOUS
10
97.1298
20
-104.071
11
97.1346
21
-104.022
0
LINE
8
BLACK
6
CONTINUOUS
10
97.1346
20
-104.022
11
97.1488
21
-103.975
0
LINE
8
BLACK
6
CONTINUOUS
10
97.1488
20
-103.975
11
97.1719
21
-103.932
0
LINE
8
BLACK
6
CONTINUOUS
10
97.1719
20
-103.932
11
97.203
21
-103.894
0
LINE
8
BLACK
6
CONTINUOUS
10
97.203
20
-103.894
11
97.2409
21
-103.863
0
LINE
8
BLACK
6
CONTINUOUS
10
97.2409
20
-103.863
11
97.2841
21
-103.84
0
LINE
8
BLACK
6
CONTINUOUS
10
97.2841
20
-103.84
11
97.331
21
-103.826
0
LINE
8
BLACK
6
CONTINUOUS
10
97.331
20
-103.826
11
97.3798
21
-103.821
0
LINE
8
BLACK
6
CONTINUOUS
10
97.3798
20
-103.821
11
98.0798
21
-103.821
0
LINE
8
BLACK
6
CONTINUOUS
10
98.0798
20
-103.821
11
98.1286
21
-103.826
0
LINE
8
BLACK
6
CONTINUOUS
10
100.414
20
-99.9982
11
99.864
21
-99.9982
0
LINE
8
BLACK
6
CONTINUOUS
10
99.864
20
-99.9982
11
99.864
21
-98.4982
0
LINE
8
BLACK
6
CONTINUOUS
10
99.864
20
-98.4982
11
100.414
21
-98.4982
0
LINE
8
BLACK
6
CONTINUOUS
10
100.414
20
-98.4982
11
100.414
21
-99.9982
0
LINE
8
BLACK
6
CONTINUOUS
10
99.614
20
-99.9982
11
99.064
21
-99.9982
0
LINE
8
BLACK
6
CONTINUOUS
10
99.064
20
-99.9982
11
99.064
21
-98.4982
0
LINE
8
BLACK
6
CONTINUOUS
10
99.064
20
-98.4982
11
99.614
21
-98.4982
0
LINE
8
BLACK
6
CONTINUOUS
10
99.614
20
-98.4982
11
99.614
21
-99.9982
0
LINE
8
BLACK
6
CONTINUOUS
10
98.814
20
-99.9982
11
98.264
21
-99.9982
0
LINE
8
BLACK
6
CONTINUOUS
10
98.264
20
-99.9982
11
98.264
21
-98.4982
0
LINE
8
BLACK
6
CONTINUOUS
10
98.264
20
-98.4982
11
98.814
21
-98.4982
0
LINE
8
BLACK
6
CONTINUOUS
10
98.814
20
-98.4982
11
98.814
21
-99.9982
0
LINE
8
BLACK
6
CONTINUOUS
10
98.014
20
-99.9982
11
97.464
21
-99.9982
0
LINE
8
BLACK
6
CONTINUOUS
10
97.464
20
-99.9982
11
97.464
21
-98.4982
0
LINE
8
BLACK
6
CONTINUOUS
10
97.464
20
-98.4982
11
98.014
21
-98.4982
0
LINE
8
BLACK
6
CONTINUOUS
10
98.014
20
-98.4982
11
98.014
21
-99.9982
0
LINE
8
BLACK
6
CONTINUOUS
10
97.214
20
-99.9982
11
96.664
21
-99.9982
0
LINE
8
BLACK
6
CONTINUOUS
10
96.664
20
-99.9982
11
96.664
21
-98.4982
0
LINE
8
BLACK
6
CONTINUOUS
10
96.664
20
-98.4982
11
97.214
21
-98.4982
0
LINE
8
BLACK
6
CONTINUOUS
10
97.214
20
-98.4982
11
97.214
21
-99.9982
0
LINE
8
BLACK
6
CONTINUOUS
10
96.414
20
-99.9982
11
95.864
21
-99.9982
0
LINE
8
BLACK
6
CONTINUOUS
10
95.864
20
-99.9982
11
95.864
21
-98.4982
0
LINE
8
BLACK
6
CONTINUOUS
10
95.864
20
-98.4982
11
96.414
21
-98.4982
0
LINE
8
BLACK
6
CONTINUOUS
10
96.414
20
-98.4982
11
96.414
21
-99.9982
0
LINE
8
BLACK
6
CONTINUOUS
10
95.614
20
-99.9982
11
95.064
21
-99.9982
0
LINE
8
BLACK
6
CONTINUOUS
10
95.064
20
-99.9982
11
95.064
21
-98.4982
0
LINE
8
BLACK
6
CONTINUOUS
10
95.064
20
-98.4982
11
95.614
21
-98.4982
0
LINE
8
BLACK
6
CONTINUOUS
10
95.614
20
-98.4982
11
95.614
21
-99.9982
0
LINE
8
BLACK
6
CONTINUOUS
10
94.814
20
-99.9982
11
94.264
21
-99.9982
0
LINE
8
BLACK
6
CONTINUOUS
10
94.264
20
-99.9982
11
94.264
21
-98.4982
0
LINE
8
BLACK
6
CONTINUOUS
10
94.264
20
-98.4982
11
94.814
21
-98.4982
0
LINE
8
BLACK
6
CONTINUOUS
10
94.814
20
-98.4982
11
94.814
21
-99.9982
0
LINE
8
BLACK
6
CONTINUOUS
10
94.014
20
-99.9982
11
93.464
21
-99.9982
0
LINE
8
BLACK
6
CONTINUOUS
10
93.464
20
-99.9982
11
93.464
21
-98.4982
0
LINE
8
BLACK
6
CONTINUOUS
10
93.464
20
-98.4982
11
94.014
21
-98.4982
0
LINE
8
BLACK
6
CONTINUOUS
10
94.014
20
-98.4982
11
94.014
21
-99.9982
0
LINE
8
BLACK
6
CONTINUOUS
10
93.214
20
-99.9982
11
92.664
21
-99.9982
0
LINE
8
BLACK
6
CONTINUOUS
10
92.664
20
-99.9982
11
92.664
21
-98.4982
0
LINE
8
BLACK
6
CONTINUOUS
10
92.664
20
-98.4982
11
93.214
21
-98.4982
0
LINE
8
BLACK
6
CONTINUOUS
10
93.214
20
-98.4982
11
93.214
21
-99.9982
0
LINE
8
BLACK
6
CONTINUOUS
10
92.414
20
-99.9982
11
91.864
21
-99.9982
0
LINE
8
BLACK
6
CONTINUOUS
10
91.864
20
-99.9982
11
91.864
21
-98.4982
0
LINE
8
BLACK
6
CONTINUOUS
10
91.864
20
-98.4982
11
92.414
21
-98.4982
0
LINE
8
BLACK
6
CONTINUOUS
10
92.414
20
-98.4982
11
92.414
21
-99.9982
0
LINE
8
BLACK
6
CONTINUOUS
10
85.8428
20
-97.3058
11
85.8897
21
-97.32
0
LINE
8
BLACK
6
CONTINUOUS
10
85.8897
20
-97.32
11
85.9329
21
-97.3431
0
LINE
8
BLACK
6
CONTINUOUS
10
85.9329
20
-97.3431
11
85.9708
21
-97.3742
0
LINE
8
BLACK
6
CONTINUOUS
10
85.9708
20
-97.3742
11
86.0019
21
-97.4121
0
LINE
8
BLACK
6
CONTINUOUS
10
86.0019
20
-97.4121
11
86.025
21
-97.4553
0
LINE
8
BLACK
6
CONTINUOUS
10
86.025
20
-97.4553
11
86.0392
21
-97.5022
0
LINE
8
BLACK
6
CONTINUOUS
10
86.0392
20
-97.5022
11
86.044
21
-97.551
0
LINE
8
BLACK
6
CONTINUOUS
10
86.044
20
-97.551
11
86.044
21
-98.251
0
LINE
8
BLACK
6
CONTINUOUS
10
86.044
20
-98.251
11
86.0392
21
-98.2998
0
LINE
8
BLACK
6
CONTINUOUS
10
86.0392
20
-98.2998
11
86.025
21
-98.3467
0
LINE
8
BLACK
6
CONTINUOUS
10
86.025
20
-98.3467
11
86.0019
21
-98.3899
0
LINE
8
BLACK
6
CONTINUOUS
10
86.0019
20
-98.3899
11
85.9708
21
-98.4278
0
LINE
8
BLACK
6
CONTINUOUS
10
85.9708
20
-98.4278
11
85.9329
21
-98.4589
0
LINE
8
BLACK
6
CONTINUOUS
10
85.9329
20
-98.4589
11
85.8897
21
-98.482
0
LINE
8
BLACK
6
CONTINUOUS
10
85.8897
20
-98.482
11
85.8428
21
-98.4962
0
LINE
8
BLACK
6
CONTINUOUS
10
85.8428
20
-98.4962
11
85.794
21
-98.501
0
LINE
8
BLACK
6
CONTINUOUS
10
85.794
20
-98.501
11
84.894
21
-98.501
0
LINE
8
BLACK
6
CONTINUOUS
10
84.894
20
-98.501
11
84.8452
21
-98.4962
0
LINE
8
BLACK
6
CONTINUOUS
10
84.8452
20
-98.4962
11
84.7983
21
-98.482
0
LINE
8
BLACK
6
CONTINUOUS
10
84.7983
20
-98.482
11
84.7551
21
-98.4589
0
LINE
8
BLACK
6
CONTINUOUS
10
84.7551
20
-98.4589
11
84.7172
21
-98.4278
0
LINE
8
BLACK
6
CONTINUOUS
10
84.7172
20
-98.4278
11
84.6861
21
-98.3899
0
LINE
8
BLACK
6
CONTINUOUS
10
84.6861
20
-98.3899
11
84.663
21
-98.3467
0
LINE
8
BLACK
6
CONTINUOUS
10
84.663
20
-98.3467
11
84.6488
21
-98.2998
0
LINE
8
BLACK
6
CONTINUOUS
10
84.6488
20
-98.2998
11
84.644
21
-98.251
0
LINE
8
BLACK
6
CONTINUOUS
10
84.644
20
-98.251
11
84.644
21
-97.551
0
LINE
8
BLACK
6
CONTINUOUS
10
84.644
20
-97.551
11
84.6488
21
-97.5022
0
LINE
8
BLACK
6
CONTINUOUS
10
84.6488
20
-97.5022
11
84.663
21
-97.4553
0
LINE
8
BLACK
6
CONTINUOUS
10
84.663
20
-97.4553
11
84.6861
21
-97.4121
0
LINE
8
BLACK
6
CONTINUOUS
10
84.6861
20
-97.4121
11
84.7172
21
-97.3742
0
LINE
8
BLACK
6
CONTINUOUS
10
84.7172
20
-97.3742
11
84.7551
21
-97.3431
0
LINE
8
BLACK
6
CONTINUOUS
10
84.7551
20
-97.3431
11
84.7983
21
-97.32
0
LINE
8
BLACK
6
CONTINUOUS
10
84.7983
20
-97.32
11
84.8452
21
-97.3058
0
LINE
8
BLACK
6
CONTINUOUS
10
84.8452
20
-97.3058
11
84.894
21
-97.301
0
LINE
8
BLACK
6
CONTINUOUS
10
84.894
20
-97.301
11
85.794
21
-97.301
0
LINE
8
BLACK
6
CONTINUOUS
10
85.794
20
-97.301
11
85.8428
21
-97.3058
0
LINE
8
BLACK
6
CONTINUOUS
10
107.712
20
-96.67
11
107.759
21
-96.6842
0
LINE
8
BLACK
6
CONTINUOUS
10
107.759
20
-96.6842
11
107.802
21
-96.7073
0
LINE
8
BLACK
6
CONTINUOUS
10
107.802
20
-96.7073
11
107.84
21
-96.7384
0
LINE
8
BLACK
6
CONTINUOUS
10
107.84
20
-96.7384
11
107.871
21
-96.7763
0
LINE
8
BLACK
6
CONTINUOUS
10
107.871
20
-96.7763
11
107.894
21
-96.8195
0
LINE
8
BLACK
6
CONTINUOUS
10
107.894
20
-96.8195
11
107.908
21
-96.8664
0
LINE
8
BLACK
6
CONTINUOUS
10
107.908
20
-96.8664
11
107.913
21
-96.9152
0
LINE
8
BLACK
6
CONTINUOUS
10
107.913
20
-96.9152
11
107.913
21
-97.5902
0
LINE
8
BLACK
6
CONTINUOUS
10
107.913
20
-97.5902
11
107.908
21
-97.639
0
LINE
8
BLACK
6
CONTINUOUS
10
107.908
20
-97.639
11
107.894
21
-97.6859
0
LINE
8
BLACK
6
CONTINUOUS
10
107.894
20
-97.6859
11
107.871
21
-97.7291
0
LINE
8
BLACK
6
CONTINUOUS
10
107.871
20
-97.7291
11
107.84
21
-97.767
0
LINE
8
BLACK
6
CONTINUOUS
10
107.84
20
-97.767
11
107.802
21
-97.7981
0
LINE
8
BLACK
6
CONTINUOUS
10
107.802
20
-97.7981
11
107.759
21
-97.8212
0
LINE
8
BLACK
6
CONTINUOUS
10
107.759
20
-97.8212
11
107.712
21
-97.8354
0
LINE
8
BLACK
6
CONTINUOUS
10
107.712
20
-97.8354
11
107.663
21
-97.8402
0
LINE
8
BLACK
6
CONTINUOUS
10
107.663
20
-97.8402
11
106.713
21
-97.8402
0
LINE
8
BLACK
6
CONTINUOUS
10
106.713
20
-97.8402
11
106.664
21
-97.8354
0
LINE
8
BLACK
6
CONTINUOUS
10
106.664
20
-97.8354
11
106.617
21
-97.8212
0
LINE
8
BLACK
6
CONTINUOUS
10
106.617
20
-97.8212
11
106.574
21
-97.7981
0
LINE
8
BLACK
6
CONTINUOUS
10
106.574
20
-97.7981
11
106.536
21
-97.767
0
LINE
8
BLACK
6
CONTINUOUS
10
106.536
20
-97.767
11
106.505
21
-97.7291
0
LINE
8
BLACK
6
CONTINUOUS
10
106.505
20
-97.7291
11
106.482
21
-97.6859
0
LINE
8
BLACK
6
CONTINUOUS
10
106.482
20
-97.6859
11
106.468
21
-97.639
0
LINE
8
BLACK
6
CONTINUOUS
10
106.468
20
-97.639
11
106.463
21
-97.5902
0
LINE
8
BLACK
6
CONTINUOUS
10
106.463
20
-97.5902
11
106.463
21
-96.9152
0
LINE
8
BLACK
6
CONTINUOUS
10
106.463
20
-96.9152
11
106.468
21
-96.8664
0
LINE
8
BLACK
6
CONTINUOUS
10
106.468
20
-96.8664
11
106.482
21
-96.8195
0
LINE
8
BLACK
6
CONTINUOUS
10
106.482
20
-96.8195
11
106.505
21
-96.7763
0
LINE
8
BLACK
6
CONTINUOUS
10
106.505
20
-96.7763
11
106.536
21
-96.7384
0
LINE
8
BLACK
6
CONTINUOUS
10
106.536
20
-96.7384
11
106.574
21
-96.7073
0
LINE
8
BLACK
6
CONTINUOUS
10
106.574
20
-96.7073
11
106.617
21
-96.6842
0
LINE
8
BLACK
6
CONTINUOUS
10
106.617
20
-96.6842
11
106.664
21
-96.67
0
LINE
8
BLACK
6
CONTINUOUS
10
106.664
20
-96.67
11
106.713
21
-96.6652
0
LINE
8
BLACK
6
CONTINUOUS
10
106.713
20
-96.6652
11
107.663
21
-96.6652
0
LINE
8
BLACK
6
CONTINUOUS
10
107.663
20
-96.6652
11
107.712
21
-96.67
0
LINE
8
BLACK
6
CONTINUOUS
10
91.189
20
-97.8232
11
89.689
21
-97.8232
0
LINE
8
BLACK
6
CONTINUOUS
10
89.689
20
-97.8232
11
89.689
21
-97.2732
0
LINE
8
BLACK
6
CONTINUOUS
10
89.689
20
-97.2732
11
91.189
21
-97.2732
0
LINE
8
BLACK
6
CONTINUOUS
10
91.189
20
-97.2732
11
91.189
21
-97.8232
0
LINE
8
BLACK
6
CONTINUOUS
10
102.589
20
-97.8232
11
101.089
21
-97.8232
0
LINE
8
BLACK
6
CONTINUOUS
10
101.089
20
-97.8232
11
101.089
21
-97.2732
0
LINE
8
BLACK
6
CONTINUOUS
10
101.089
20
-97.2732
11
102.589
21
-97.2732
0
LINE
8
BLACK
6
CONTINUOUS
10
102.589
20
-97.2732
11
102.589
21
-97.8232
0
LINE
8
BLACK
6
CONTINUOUS
10
91.189
20
-97.0232
11
89.689
21
-97.0232
0
LINE
8
BLACK
6
CONTINUOUS
10
89.689
20
-97.0232
11
89.689
21
-96.4732
0
LINE
8
BLACK
6
CONTINUOUS
10
89.689
20
-96.4732
11
91.189
21
-96.4732
0
LINE
8
BLACK
6
CONTINUOUS
10
91.189
20
-96.4732
11
91.189
21
-97.0232
0
LINE
8
BLACK
6
CONTINUOUS
10
102.589
20
-97.0232
11
101.089
21
-97.0232
0
LINE
8
BLACK
6
CONTINUOUS
10
101.089
20
-97.0232
11
101.089
21
-96.4732
0
LINE
8
BLACK
6
CONTINUOUS
10
101.089
20
-96.4732
11
102.589
21
-96.4732
0
LINE
8
BLACK
6
CONTINUOUS
10
102.589
20
-96.4732
11
102.589
21
-97.0232
0
LINE
8
BLACK
6
CONTINUOUS
10
85.8428
20
-95.3058
11
85.8897
21
-95.32
0
LINE
8
BLACK
6
CONTINUOUS
10
85.8897
20
-95.32
11
85.9329
21
-95.3431
0
LINE
8
BLACK
6
CONTINUOUS
10
85.9329
20
-95.3431
11
85.9708
21
-95.3742
0
LINE
8
BLACK
6
CONTINUOUS
10
85.9708
20
-95.3742
11
86.0019
21
-95.4121
0
LINE
8
BLACK
6
CONTINUOUS
10
86.0019
20
-95.4121
11
86.025
21
-95.4553
0
LINE
8
BLACK
6
CONTINUOUS
10
86.025
20
-95.4553
11
86.0392
21
-95.5022
0
LINE
8
BLACK
6
CONTINUOUS
10
86.0392
20
-95.5022
11
86.044
21
-95.551
0
LINE
8
BLACK
6
CONTINUOUS
10
86.044
20
-95.551
11
86.044
21
-96.251
0
LINE
8
BLACK
6
CONTINUOUS
10
86.044
20
-96.251
11
86.0392
21
-96.2998
0
LINE
8
BLACK
6
CONTINUOUS
10
86.0392
20
-96.2998
11
86.025
21
-96.3467
0
LINE
8
BLACK
6
CONTINUOUS
10
86.025
20
-96.3467
11
86.0019
21
-96.3899
0
LINE
8
BLACK
6
CONTINUOUS
10
86.0019
20
-96.3899
11
85.9708
21
-96.4278
0
LINE
8
BLACK
6
CONTINUOUS
10
85.9708
20
-96.4278
11
85.9329
21
-96.4589
0
LINE
8
BLACK
6
CONTINUOUS
10
85.9329
20
-96.4589
11
85.8897
21
-96.482
0
LINE
8
BLACK
6
CONTINUOUS
10
85.8897
20
-96.482
11
85.8428
21
-96.4962
0
LINE
8
BLACK
6
CONTINUOUS
10
85.8428
20
-96.4962
11
85.794
21
-96.501
0
LINE
8
BLACK
6
CONTINUOUS
10
85.794
20
-96.501
11
84.894
21
-96.501
0
LINE
8
BLACK
6
CONTINUOUS
10
84.894
20
-96.501
11
84.8452
21
-96.4962
0
LINE
8
BLACK
6
CONTINUOUS
10
84.8452
20
-96.4962
11
84.7983
21
-96.482
0
LINE
8
BLACK
6
CONTINUOUS
10
84.7983
20
-96.482
11
84.7551
21
-96.4589
0
LINE
8
BLACK
6
CONTINUOUS
10
84.7551
20
-96.4589
11
84.7172
21
-96.4278
0
LINE
8
BLACK
6
CONTINUOUS
10
84.7172
20
-96.4278
11
84.6861
21
-96.3899
0
LINE
8
BLACK
6
CONTINUOUS
10
84.6861
20
-96.3899
11
84.663
21
-96.3467
0
LINE
8
BLACK
6
CONTINUOUS
10
84.663
20
-96.3467
11
84.6488
21
-96.2998
0
LINE
8
BLACK
6
CONTINUOUS
10
84.6488
20
-96.2998
11
84.644
21
-96.251
0
LINE
8
BLACK
6
CONTINUOUS
10
84.644
20
-96.251
11
84.644
21
-95.551
0
LINE
8
BLACK
6
CONTINUOUS
10
84.644
20
-95.551
11
84.6488
21
-95.5022
0
LINE
8
BLACK
6
CONTINUOUS
10
84.6488
20
-95.5022
11
84.663
21
-95.4553
0
LINE
8
BLACK
6
CONTINUOUS
10
84.663
20
-95.4553
11
84.6861
21
-95.4121
0
LINE
8
BLACK
6
CONTINUOUS
10
84.6861
20
-95.4121
11
84.7172
21
-95.3742
0
LINE
8
BLACK
6
CONTINUOUS
10
84.7172
20
-95.3742
11
84.7551
21
-95.3431
0
LINE
8
BLACK
6
CONTINUOUS
10
84.7551
20
-95.3431
11
84.7983
21
-95.32
0
LINE
8
BLACK
6
CONTINUOUS
10
84.7983
20
-95.32
11
84.8452
21
-95.3058
0
LINE
8
BLACK
6
CONTINUOUS
10
84.8452
20
-95.3058
11
84.894
21
-95.301
0
LINE
8
BLACK
6
CONTINUOUS
10
84.894
20
-95.301
11
85.794
21
-95.301
0
LINE
8
BLACK
6
CONTINUOUS
10
85.794
20
-95.301
11
85.8428
21
-95.3058
0
LINE
8
BLACK
6
CONTINUOUS
10
125.915
20
-96.32
11
122.915
21
-96.32
0
LINE
8
BLACK
6
CONTINUOUS
10
122.915
20
-96.32
11
122.915
21
-93.82
0
LINE
8
BLACK
6
CONTINUOUS
10
122.915
20
-93.82
11
125.915
21
-93.82
0
LINE
8
BLACK
6
CONTINUOUS
10
125.915
20
-93.82
11
125.915
21
-96.32
0
LINE
8
BLACK
6
CONTINUOUS
10
91.189
20
-96.2232
11
89.689
21
-96.2232
0
LINE
8
BLACK
6
CONTINUOUS
10
89.689
20
-96.2232
11
89.689
21
-95.6732
0
LINE
8
BLACK
6
CONTINUOUS
10
89.689
20
-95.6732
11
91.189
21
-95.6732
0
LINE
8
BLACK
6
CONTINUOUS
10
91.189
20
-95.6732
11
91.189
21
-96.2232
0
LINE
8
BLACK
6
CONTINUOUS
10
102.589
20
-96.2232
11
101.089
21
-96.2232
0
LINE
8
BLACK
6
CONTINUOUS
10
101.089
20
-96.2232
11
101.089
21
-95.6732
0
LINE
8
BLACK
6
CONTINUOUS
10
101.089
20
-95.6732
11
102.589
21
-95.6732
0
LINE
8
BLACK
6
CONTINUOUS
10
102.589
20
-95.6732
11
102.589
21
-96.2232
0
LINE
8
BLACK
6
CONTINUOUS
10
107.712
20
-94.595
11
107.759
21
-94.6092
0
LINE
8
BLACK
6
CONTINUOUS
10
107.759
20
-94.6092
11
107.802
21
-94.6323
0
LINE
8
BLACK
6
CONTINUOUS
10
107.802
20
-94.6323
11
107.84
21
-94.6634
0
LINE
8
BLACK
6
CONTINUOUS
10
107.84
20
-94.6634
11
107.871
21
-94.7013
0
LINE
8
BLACK
6
CONTINUOUS
10
107.871
20
-94.7013
11
107.894
21
-94.7445
0
LINE
8
BLACK
6
CONTINUOUS
10
107.894
20
-94.7445
11
107.908
21
-94.7914
0
LINE
8
BLACK
6
CONTINUOUS
10
107.908
20
-94.7914
11
107.913
21
-94.8402
0
LINE
8
BLACK
6
CONTINUOUS
10
107.913
20
-94.8402
11
107.913
21
-95.5152
0
LINE
8
BLACK
6
CONTINUOUS
10
107.913
20
-95.5152
11
107.908
21
-95.564
0
LINE
8
BLACK
6
CONTINUOUS
10
107.908
20
-95.564
11
107.894
21
-95.6109
0
LINE
8
BLACK
6
CONTINUOUS
10
107.894
20
-95.6109
11
107.871
21
-95.6541
0
LINE
8
BLACK
6
CONTINUOUS
10
107.871
20
-95.6541
11
107.84
21
-95.692
0
LINE
8
BLACK
6
CONTINUOUS
10
107.84
20
-95.692
11
107.802
21
-95.7231
0
LINE
8
BLACK
6
CONTINUOUS
10
107.802
20
-95.7231
11
107.759
21
-95.7462
0
LINE
8
BLACK
6
CONTINUOUS
10
107.759
20
-95.7462
11
107.712
21
-95.7604
0
LINE
8
BLACK
6
CONTINUOUS
10
107.712
20
-95.7604
11
107.663
21
-95.7652
0
LINE
8
BLACK
6
CONTINUOUS
10
107.663
20
-95.7652
11
106.713
21
-95.7652
0
LINE
8
BLACK
6
CONTINUOUS
10
106.713
20
-95.7652
11
106.664
21
-95.7604
0
LINE
8
BLACK
6
CONTINUOUS
10
106.664
20
-95.7604
11
106.617
21
-95.7462
0
LINE
8
BLACK
6
CONTINUOUS
10
106.617
20
-95.7462
11
106.574
21
-95.7231
0
LINE
8
BLACK
6
CONTINUOUS
10
106.574
20
-95.7231
11
106.536
21
-95.692
0
LINE
8
BLACK
6
CONTINUOUS
10
106.536
20
-95.692
11
106.505
21
-95.6541
0
LINE
8
BLACK
6
CONTINUOUS
10
106.505
20
-95.6541
11
106.482
21
-95.6109
0
LINE
8
BLACK
6
CONTINUOUS
10
106.482
20
-95.6109
11
106.468
21
-95.564
0
LINE
8
BLACK
6
CONTINUOUS
10
106.468
20
-95.564
11
106.463
21
-95.5152
0
LINE
8
BLACK
6
CONTINUOUS
10
106.463
20
-95.5152
11
106.463
21
-94.8402
0
LINE
8
BLACK
6
CONTINUOUS
10
106.463
20
-94.8402
11
106.468
21
-94.7914
0
LINE
8
BLACK
6
CONTINUOUS
10
106.468
20
-94.7914
11
106.482
21
-94.7445
0
LINE
8
BLACK
6
CONTINUOUS
10
106.482
20
-94.7445
11
106.505
21
-94.7013
0
LINE
8
BLACK
6
CONTINUOUS
10
106.505
20
-94.7013
11
106.536
21
-94.6634
0
LINE
8
BLACK
6
CONTINUOUS
10
106.536
20
-94.6634
11
106.574
21
-94.6323
0
LINE
8
BLACK
6
CONTINUOUS
10
106.574
20
-94.6323
11
106.617
21
-94.6092
0
LINE
8
BLACK
6
CONTINUOUS
10
106.617
20
-94.6092
11
106.664
21
-94.595
0
LINE
8
BLACK
6
CONTINUOUS
10
106.664
20
-94.595
11
106.713
21
-94.5902
0
LINE
8
BLACK
6
CONTINUOUS
10
106.713
20
-94.5902
11
107.663
21
-94.5902
0
LINE
8
BLACK
6
CONTINUOUS
10
107.663
20
-94.5902
11
107.712
21
-94.595
0
LINE
8
BLACK
6
CONTINUOUS
10
91.189
20
-95.4232
11
89.689
21
-95.4232
0
LINE
8
BLACK
6
CONTINUOUS
10
89.689
20
-95.4232
11
89.689
21
-94.8732
0
LINE
8
BLACK
6
CONTINUOUS
10
89.689
20
-94.8732
11
91.189
21
-94.8732
0
LINE
8
BLACK
6
CONTINUOUS
10
91.189
20
-94.8732
11
91.189
21
-95.4232
0
LINE
8
BLACK
6
CONTINUOUS
10
102.589
20
-95.4232
11
101.089
21
-95.4232
0
LINE
8
BLACK
6
CONTINUOUS
10
101.089
20
-95.4232
11
101.089
21
-94.8732
0
LINE
8
BLACK
6
CONTINUOUS
10
101.089
20
-94.8732
11
102.589
21
-94.8732
0
LINE
8
BLACK
6
CONTINUOUS
10
102.589
20
-94.8732
11
102.589
21
-95.4232
0
LINE
8
BLACK
6
CONTINUOUS
10
102.589
20
-94.6232
11
101.089
21
-94.6232
0
LINE
8
BLACK
6
CONTINUOUS
10
101.089
20
-94.6232
11
101.089
21
-94.0732
0
LINE
8
BLACK
6
CONTINUOUS
10
101.089
20
-94.0732
11
102.589
21
-94.0732
0
LINE
8
BLACK
6
CONTINUOUS
10
102.589
20
-94.0732
11
102.589
21
-94.6232
0
LINE
8
BLACK
6
CONTINUOUS
10
91.189
20
-94.6232
11
89.689
21
-94.6232
0
LINE
8
BLACK
6
CONTINUOUS
10
89.689
20
-94.6232
11
89.689
21
-94.0732
0
LINE
8
BLACK
6
CONTINUOUS
10
89.689
20
-94.0732
11
91.189
21
-94.0732
0
LINE
8
BLACK
6
CONTINUOUS
10
91.189
20
-94.0732
11
91.189
21
-94.6232
0
LINE
8
BLACK
6
CONTINUOUS
10
91.189
20
-93.8232
11
89.689
21
-93.8232
0
LINE
8
BLACK
6
CONTINUOUS
10
89.689
20
-93.8232
11
89.689
21
-93.2732
0
LINE
8
BLACK
6
CONTINUOUS
10
89.689
20
-93.2732
11
91.189
21
-93.2732
0
LINE
8
BLACK
6
CONTINUOUS
10
91.189
20
-93.2732
11
91.189
21
-93.8232
0
LINE
8
BLACK
6
CONTINUOUS
10
102.589
20
-93.8232
11
101.089
21
-93.8232
0
LINE
8
BLACK
6
CONTINUOUS
10
101.089
20
-93.8232
11
101.089
21
-93.2732
0
LINE
8
BLACK
6
CONTINUOUS
10
101.089
20
-93.2732
11
102.589
21
-93.2732
0
LINE
8
BLACK
6
CONTINUOUS
10
102.589
20
-93.2732
11
102.589
21
-93.8232
0
LINE
8
BLACK
6
CONTINUOUS
10
91.189
20
-93.0232
11
89.689
21
-93.0232
0
LINE
8
BLACK
6
CONTINUOUS
10
89.689
20
-93.0232
11
89.689
21
-92.4732
0
LINE
8
BLACK
6
CONTINUOUS
10
89.689
20
-92.4732
11
91.189
21
-92.4732
0
LINE
8
BLACK
6
CONTINUOUS
10
91.189
20
-92.4732
11
91.189
21
-93.0232
0
LINE
8
BLACK
6
CONTINUOUS
10
102.589
20
-93.0232
11
101.089
21
-93.0232
0
LINE
8
BLACK
6
CONTINUOUS
10
101.089
20
-93.0232
11
101.089
21
-92.4732
0
LINE
8
BLACK
6
CONTINUOUS
10
101.089
20
-92.4732
11
102.589
21
-92.4732
0
LINE
8
BLACK
6
CONTINUOUS
10
102.589
20
-92.4732
11
102.589
21
-93.0232
0
LINE
8
BLACK
6
CONTINUOUS
10
122.965
20
-92.62
11
120.965
21
-92.62
0
LINE
8
BLACK
6
CONTINUOUS
10
120.965
20
-92.62
11
120.965
21
-92.02
0
LINE
8
BLACK
6
CONTINUOUS
10
120.965
20
-92.02
11
122.965
21
-92.02
0
LINE
8
BLACK
6
CONTINUOUS
10
122.965
20
-92.02
11
122.965
21
-92.62
0
LINE
8
BLACK
6
CONTINUOUS
10
91.189
20
-92.2232
11
89.689
21
-92.2232
0
LINE
8
BLACK
6
CONTINUOUS
10
89.689
20
-92.2232
11
89.689
21
-91.6732
0
LINE
8
BLACK
6
CONTINUOUS
10
89.689
20
-91.6732
11
91.189
21
-91.6732
0
LINE
8
BLACK
6
CONTINUOUS
10
91.189
20
-91.6732
11
91.189
21
-92.2232
0
LINE
8
BLACK
6
CONTINUOUS
10
102.589
20
-92.2232
11
101.089
21
-92.2232
0
LINE
8
BLACK
6
CONTINUOUS
10
101.089
20
-92.2232
11
101.089
21
-91.6732
0
LINE
8
BLACK
6
CONTINUOUS
10
101.089
20
-91.6732
11
102.589
21
-91.6732
0
LINE
8
BLACK
6
CONTINUOUS
10
102.589
20
-91.6732
11
102.589
21
-92.2232
0
LINE
8
BLACK
6
CONTINUOUS
10
122.965
20
-91.62
11
120.965
21
-91.62
0
LINE
8
BLACK
6
CONTINUOUS
10
120.965
20
-91.62
11
120.965
21
-91.02
0
LINE
8
BLACK
6
CONTINUOUS
10
120.965
20
-91.02
11
122.965
21
-91.02
0
LINE
8
BLACK
6
CONTINUOUS
10
122.965
20
-91.02
11
122.965
21
-91.62
0
LINE
8
BLACK
6
CONTINUOUS
10
102.589
20
-91.4232
11
101.089
21
-91.4232
0
LINE
8
BLACK
6
CONTINUOUS
10
101.089
20
-91.4232
11
101.089
21
-90.8732
0
LINE
8
BLACK
6
CONTINUOUS
10
101.089
20
-90.8732
11
102.589
21
-90.8732
0
LINE
8
BLACK
6
CONTINUOUS
10
102.589
20
-90.8732
11
102.589
21
-91.4232
0
LINE
8
BLACK
6
CONTINUOUS
10
91.189
20
-91.4232
11
89.689
21
-91.4232
0
LINE
8
BLACK
6
CONTINUOUS
10
89.689
20
-91.4232
11
89.689
21
-90.8732
0
LINE
8
BLACK
6
CONTINUOUS
10
89.689
20
-90.8732
11
91.189
21
-90.8732
0
LINE
8
BLACK
6
CONTINUOUS
10
91.189
20
-90.8732
11
91.189
21
-91.4232
0
LINE
8
BLACK
6
CONTINUOUS
10
102.589
20
-90.6232
11
101.089
21
-90.6232
0
LINE
8
BLACK
6
CONTINUOUS
10
101.089
20
-90.6232
11
101.089
21
-90.0732
0
LINE
8
BLACK
6
CONTINUOUS
10
101.089
20
-90.0732
11
102.589
21
-90.0732
0
LINE
8
BLACK
6
CONTINUOUS
10
102.589
20
-90.0732
11
102.589
21
-90.6232
0
LINE
8
BLACK
6
CONTINUOUS
10
91.189
20
-90.6232
11
89.689
21
-90.6232
0
LINE
8
BLACK
6
CONTINUOUS
10
89.689
20
-90.6232
11
89.689
21
-90.0732
0
LINE
8
BLACK
6
CONTINUOUS
10
89.689
20
-90.0732
11
91.189
21
-90.0732
0
LINE
8
BLACK
6
CONTINUOUS
10
91.189
20
-90.0732
11
91.189
21
-90.6232
0
LINE
8
BLACK
6
CONTINUOUS
10
122.965
20
-90.62
11
120.965
21
-90.62
0
LINE
8
BLACK
6
CONTINUOUS
10
120.965
20
-90.62
11
120.965
21
-90.02
0
LINE
8
BLACK
6
CONTINUOUS
10
120.965
20
-90.02
11
122.965
21
-90.02
0
LINE
8
BLACK
6
CONTINUOUS
10
122.965
20
-90.02
11
122.965
21
-90.62
0
LINE
8
BLACK
6
CONTINUOUS
10
91.189
20
-89.8232
11
89.689
21
-89.8232
0
LINE
8
BLACK
6
CONTINUOUS
10
89.689
20
-89.8232
11
89.689
21
-89.2732
0
LINE
8
BLACK
6
CONTINUOUS
10
89.689
20
-89.2732
11
91.189
21
-89.2732
0
LINE
8
BLACK
6
CONTINUOUS
10
91.189
20
-89.2732
11
91.189
21
-89.8232
0
LINE
8
BLACK
6
CONTINUOUS
10
102.589
20
-89.8232
11
101.089
21
-89.8232
0
LINE
8
BLACK
6
CONTINUOUS
10
101.089
20
-89.8232
11
101.089
21
-89.2732
0
LINE
8
BLACK
6
CONTINUOUS
10
101.089
20
-89.2732
11
102.589
21
-89.2732
0
LINE
8
BLACK
6
CONTINUOUS
10
102.589
20
-89.2732
11
102.589
21
-89.8232
0
LINE
8
BLACK
6
CONTINUOUS
10
122.965
20
-89.62
11
120.965
21
-89.62
0
LINE
8
BLACK
6
CONTINUOUS
10
120.965
20
-89.62
11
120.965
21
-89.02
0
LINE
8
BLACK
6
CONTINUOUS
10
120.965
20
-89.02
11
122.965
21
-89.02
0
LINE
8
BLACK
6
CONTINUOUS
10
122.965
20
-89.02
11
122.965
21
-89.62
0
LINE
8
BLACK
6
CONTINUOUS
10
122.965
20
-88.62
11
120.965
21
-88.62
0
LINE
8
BLACK
6
CONTINUOUS
10
120.965
20
-88.62
11
120.965
21
-88.02
0
LINE
8
BLACK
6
CONTINUOUS
10
120.965
20
-88.02
11
122.965
21
-88.02
0
LINE
8
BLACK
6
CONTINUOUS
10
122.965
20
-88.02
11
122.965
21
-88.62
0
LINE
8
BLACK
6
CONTINUOUS
10
93.214
20
-88.5982
11
92.664
21
-88.5982
0
LINE
8
BLACK
6
CONTINUOUS
10
92.664
20
-88.5982
11
92.664
21
-87.0982
0
LINE
8
BLACK
6
CONTINUOUS
10
92.664
20
-87.0982
11
93.214
21
-87.0982
0
LINE
8
BLACK
6
CONTINUOUS
10
93.214
20
-87.0982
11
93.214
21
-88.5982
0
LINE
8
BLACK
6
CONTINUOUS
10
100.414
20
-88.5982
11
99.864
21
-88.5982
0
LINE
8
BLACK
6
CONTINUOUS
10
99.864
20
-88.5982
11
99.864
21
-87.0982
0
LINE
8
BLACK
6
CONTINUOUS
10
99.864
20
-87.0982
11
100.414
21
-87.0982
0
LINE
8
BLACK
6
CONTINUOUS
10
100.414
20
-87.0982
11
100.414
21
-88.5982
0
LINE
8
BLACK
6
CONTINUOUS
10
99.614
20
-88.5982
11
99.064
21
-88.5982
0
LINE
8
BLACK
6
CONTINUOUS
10
99.064
20
-88.5982
11
99.064
21
-87.0982
0
LINE
8
BLACK
6
CONTINUOUS
10
99.064
20
-87.0982
11
99.614
21
-87.0982
0
LINE
8
BLACK
6
CONTINUOUS
10
99.614
20
-87.0982
11
99.614
21
-88.5982
0
LINE
8
BLACK
6
CONTINUOUS
10
98.014
20
-88.5982
11
97.464
21
-88.5982
0
LINE
8
BLACK
6
CONTINUOUS
10
97.464
20
-88.5982
11
97.464
21
-87.0982
0
LINE
8
BLACK
6
CONTINUOUS
10
97.464
20
-87.0982
11
98.014
21
-87.0982
0
LINE
8
BLACK
6
CONTINUOUS
10
98.014
20
-87.0982
11
98.014
21
-88.5982
0
LINE
8
BLACK
6
CONTINUOUS
10
97.214
20
-88.5982
11
96.664
21
-88.5982
0
LINE
8
BLACK
6
CONTINUOUS
10
96.664
20
-88.5982
11
96.664
21
-87.0982
0
LINE
8
BLACK
6
CONTINUOUS
10
96.664
20
-87.0982
11
97.214
21
-87.0982
0
LINE
8
BLACK
6
CONTINUOUS
10
97.214
20
-87.0982
11
97.214
21
-88.5982
0
LINE
8
BLACK
6
CONTINUOUS
10
96.414
20
-88.5982
11
95.864
21
-88.5982
0
LINE
8
BLACK
6
CONTINUOUS
10
95.864
20
-88.5982
11
95.864
21
-87.0982
0
LINE
8
BLACK
6
CONTINUOUS
10
95.864
20
-87.0982
11
96.414
21
-87.0982
0
LINE
8
BLACK
6
CONTINUOUS
10
96.414
20
-87.0982
11
96.414
21
-88.5982
0
LINE
8
BLACK
6
CONTINUOUS
10
95.614
20
-88.5982
11
95.064
21
-88.5982
0
LINE
8
BLACK
6
CONTINUOUS
10
95.064
20
-88.5982
11
95.064
21
-87.0982
0
LINE
8
BLACK
6
CONTINUOUS
10
95.064
20
-87.0982
11
95.614
21
-87.0982
0
LINE
8
BLACK
6
CONTINUOUS
10
95.614
20
-87.0982
11
95.614
21
-88.5982
0
LINE
8
BLACK
6
CONTINUOUS
10
94.814
20
-88.5982
11
94.264
21
-88.5982
0
LINE
8
BLACK
6
CONTINUOUS
10
94.264
20
-88.5982
11
94.264
21
-87.0982
0
LINE
8
BLACK
6
CONTINUOUS
10
94.264
20
-87.0982
11
94.814
21
-87.0982
0
LINE
8
BLACK
6
CONTINUOUS
10
94.814
20
-87.0982
11
94.814
21
-88.5982
0
LINE
8
BLACK
6
CONTINUOUS
10
94.014
20
-88.5982
11
93.464
21
-88.5982
0
LINE
8
BLACK
6
CONTINUOUS
10
93.464
20
-88.5982
11
93.464
21
-87.0982
0
LINE
8
BLACK
6
CONTINUOUS
10
93.464
20
-87.0982
11
94.014
21
-87.0982
0
LINE
8
BLACK
6
CONTINUOUS
10
94.014
20
-87.0982
11
94.014
21
-88.5982
0
LINE
8
BLACK
6
CONTINUOUS
10
92.414
20
-88.5982
11
91.864
21
-88.5982
0
LINE
8
BLACK
6
CONTINUOUS
10
91.864
20
-88.5982
11
91.864
21
-87.0982
0
LINE
8
BLACK
6
CONTINUOUS
10
91.864
20
-87.0982
11
92.414
21
-87.0982
0
LINE
8
BLACK
6
CONTINUOUS
10
92.414
20
-87.0982
11
92.414
21
-88.5982
0
LINE
8
BLACK
6
CONTINUOUS
10
98.814
20
-88.5982
11
98.264
21
-88.5982
0
LINE
8
BLACK
6
CONTINUOUS
10
98.264
20
-88.5982
11
98.264
21
-87.0982
0
LINE
8
BLACK
6
CONTINUOUS
10
98.264
20
-87.0982
11
98.814
21
-87.0982
0
LINE
8
BLACK
6
CONTINUOUS
10
98.814
20
-87.0982
11
98.814
21
-88.5982
0
LINE
8
BLACK
6
CONTINUOUS
10
122.965
20
-87.62
11
120.965
21
-87.62
0
LINE
8
BLACK
6
CONTINUOUS
10
120.965
20
-87.62
11
120.965
21
-87.02
0
LINE
8
BLACK
6
CONTINUOUS
10
120.965
20
-87.02
11
122.965
21
-87.02
0
LINE
8
BLACK
6
CONTINUOUS
10
122.965
20
-87.02
11
122.965
21
-87.62
0
LINE
8
BLACK
6
CONTINUOUS
10
122.965
20
-86.62
11
120.965
21
-86.62
0
LINE
8
BLACK
6
CONTINUOUS
10
120.965
20
-86.62
11
120.965
21
-86.02
0
LINE
8
BLACK
6
CONTINUOUS
10
120.965
20
-86.02
11
122.965
21
-86.02
0
LINE
8
BLACK
6
CONTINUOUS
10
122.965
20
-86.02
11
122.965
21
-86.62
0
LINE
8
BLACK
6
CONTINUOUS
10
122.965
20
-85.62
11
120.965
21
-85.62
0
LINE
8
BLACK
6
CONTINUOUS
10
120.965
20
-85.62
11
120.965
21
-85.02
0
LINE
8
BLACK
6
CONTINUOUS
10
120.965
20
-85.02
11
122.965
21
-85.02
0
LINE
8
BLACK
6
CONTINUOUS
10
122.965
20
-85.02
11
122.965
21
-85.62
0
LINE
8
BLACK
6
CONTINUOUS
10
122.965
20
-84.62
11
120.965
21
-84.62
0
LINE
8
BLACK
6
CONTINUOUS
10
120.965
20
-84.62
11
120.965
21
-84.02
0
LINE
8
BLACK
6
CONTINUOUS
10
120.965
20
-84.02
11
122.965
21
-84.02
0
LINE
8
BLACK
6
CONTINUOUS
10
122.965
20
-84.02
11
122.965
21
-84.62
0
LINE
8
BLACK
6
CONTINUOUS
10
97.6468
20
-82.922
11
97.6937
21
-82.9362
0
LINE
8
BLACK
6
CONTINUOUS
10
97.6937
20
-82.9362
11
97.7369
21
-82.9593
0
LINE
8
BLACK
6
CONTINUOUS
10
97.7369
20
-82.9593
11
97.7748
21
-82.9904
0
LINE
8
BLACK
6
CONTINUOUS
10
97.7748
20
-82.9904
11
97.8059
21
-83.0283
0
LINE
8
BLACK
6
CONTINUOUS
10
97.8059
20
-83.0283
11
97.829
21
-83.0715
0
LINE
8
BLACK
6
CONTINUOUS
10
97.829
20
-83.0715
11
97.8432
21
-83.1184
0
LINE
8
BLACK
6
CONTINUOUS
10
97.8432
20
-83.1184
11
97.848
21
-83.1672
0
LINE
8
BLACK
6
CONTINUOUS
10
97.848
20
-83.1672
11
97.848
21
-84.1172
0
LINE
8
BLACK
6
CONTINUOUS
10
97.848
20
-84.1172
11
97.8432
21
-84.166
0
LINE
8
BLACK
6
CONTINUOUS
10
97.8432
20
-84.166
11
97.829
21
-84.2129
0
LINE
8
BLACK
6
CONTINUOUS
10
97.829
20
-84.2129
11
97.8059
21
-84.2561
0
LINE
8
BLACK
6
CONTINUOUS
10
97.8059
20
-84.2561
11
97.7748
21
-84.294
0
LINE
8
BLACK
6
CONTINUOUS
10
97.7748
20
-84.294
11
97.7369
21
-84.3251
0
LINE
8
BLACK
6
CONTINUOUS
10
97.7369
20
-84.3251
11
97.6937
21
-84.3482
0
LINE
8
BLACK
6
CONTINUOUS
10
97.6937
20
-84.3482
11
97.6468
21
-84.3624
0
LINE
8
BLACK
6
CONTINUOUS
10
97.6468
20
-84.3624
11
97.598
21
-84.3672
0
LINE
8
BLACK
6
CONTINUOUS
10
97.598
20
-84.3672
11
96.923
21
-84.3672
0
LINE
8
BLACK
6
CONTINUOUS
10
96.923
20
-84.3672
11
96.8742
21
-84.3624
0
LINE
8
BLACK
6
CONTINUOUS
10
96.8742
20
-84.3624
11
96.8273
21
-84.3482
0
LINE
8
BLACK
6
CONTINUOUS
10
96.8273
20
-84.3482
11
96.7841
21
-84.3251
0
LINE
8
BLACK
6
CONTINUOUS
10
96.7841
20
-84.3251
11
96.7462
21
-84.294
0
LINE
8
BLACK
6
CONTINUOUS
10
96.7462
20
-84.294
11
96.7151
21
-84.2561
0
LINE
8
BLACK
6
CONTINUOUS
10
96.7151
20
-84.2561
11
96.692
21
-84.2129
0
LINE
8
BLACK
6
CONTINUOUS
10
96.692
20
-84.2129
11
96.6778
21
-84.166
0
LINE
8
BLACK
6
CONTINUOUS
10
96.6778
20
-84.166
11
96.673
21
-84.1172
0
LINE
8
BLACK
6
CONTINUOUS
10
96.673
20
-84.1172
11
96.673
21
-83.1672
0
LINE
8
BLACK
6
CONTINUOUS
10
96.673
20
-83.1672
11
96.6778
21
-83.1184
0
LINE
8
BLACK
6
CONTINUOUS
10
96.6778
20
-83.1184
11
96.692
21
-83.0715
0
LINE
8
BLACK
6
CONTINUOUS
10
96.692
20
-83.0715
11
96.7151
21
-83.0283
0
LINE
8
BLACK
6
CONTINUOUS
10
96.7151
20
-83.0283
11
96.7462
21
-82.9904
0
LINE
8
BLACK
6
CONTINUOUS
10
96.7462
20
-82.9904
11
96.7841
21
-82.9593
0
LINE
8
BLACK
6
CONTINUOUS
10
96.7841
20
-82.9593
11
96.8273
21
-82.9362
0
LINE
8
BLACK
6
CONTINUOUS
10
96.8273
20
-82.9362
11
96.8742
21
-82.922
0
LINE
8
BLACK
6
CONTINUOUS
10
96.8742
20
-82.922
11
96.923
21
-82.9172
0
LINE
8
BLACK
6
CONTINUOUS
10
96.923
20
-82.9172
11
97.598
21
-82.9172
0
LINE
8
BLACK
6
CONTINUOUS
10
97.598
20
-82.9172
11
97.6468
21
-82.922
0
LINE
8
BLACK
6
CONTINUOUS
10
99.7218
20
-82.922
11
99.7687
21
-82.9362
0
LINE
8
BLACK
6
CONTINUOUS
10
99.7687
20
-82.9362
11
99.8119
21
-82.9593
0
LINE
8
BLACK
6
CONTINUOUS
10
99.8119
20
-82.9593
11
99.8498
21
-82.9904
0
LINE
8
BLACK
6
CONTINUOUS
10
99.8498
20
-82.9904
11
99.8809
21
-83.0283
0
LINE
8
BLACK
6
CONTINUOUS
10
99.8809
20
-83.0283
11
99.904
21
-83.0715
0
LINE
8
BLACK
6
CONTINUOUS
10
99.904
20
-83.0715
11
99.9182
21
-83.1184
0
LINE
8
BLACK
6
CONTINUOUS
10
99.9182
20
-83.1184
11
99.923
21
-83.1672
0
LINE
8
BLACK
6
CONTINUOUS
10
99.923
20
-83.1672
11
99.923
21
-84.1172
0
LINE
8
BLACK
6
CONTINUOUS
10
99.923
20
-84.1172
11
99.9182
21
-84.166
0
LINE
8
BLACK
6
CONTINUOUS
10
99.9182
20
-84.166
11
99.904
21
-84.2129
0
LINE
8
BLACK
6
CONTINUOUS
10
99.904
20
-84.2129
11
99.8809
21
-84.2561
0
LINE
8
BLACK
6
CONTINUOUS
10
99.8809
20
-84.2561
11
99.8498
21
-84.294
0
LINE
8
BLACK
6
CONTINUOUS
10
99.8498
20
-84.294
11
99.8119
21
-84.3251
0
LINE
8
BLACK
6
CONTINUOUS
10
99.8119
20
-84.3251
11
99.7687
21
-84.3482
0
LINE
8
BLACK
6
CONTINUOUS
10
99.7687
20
-84.3482
11
99.7218
21
-84.3624
0
LINE
8
BLACK
6
CONTINUOUS
10
99.7218
20
-84.3624
11
99.673
21
-84.3672
0
LINE
8
BLACK
6
CONTINUOUS
10
99.673
20
-84.3672
11
98.998
21
-84.3672
0
LINE
8
BLACK
6
CONTINUOUS
10
98.998
20
-84.3672
11
98.9492
21
-84.3624
0
LINE
8
BLACK
6
CONTINUOUS
10
98.9492
20
-84.3624
11
98.9023
21
-84.3482
0
LINE
8
BLACK
6
CONTINUOUS
10
98.9023
20
-84.3482
11
98.8591
21
-84.3251
0
LINE
8
BLACK
6
CONTINUOUS
10
98.8591
20
-84.3251
11
98.8212
21
-84.294
0
LINE
8
BLACK
6
CONTINUOUS
10
98.8212
20
-84.294
11
98.7901
21
-84.2561
0
LINE
8
BLACK
6
CONTINUOUS
10
98.7901
20
-84.2561
11
98.767
21
-84.2129
0
LINE
8
BLACK
6
CONTINUOUS
10
98.767
20
-84.2129
11
98.7528
21
-84.166
0
LINE
8
BLACK
6
CONTINUOUS
10
98.7528
20
-84.166
11
98.748
21
-84.1172
0
LINE
8
BLACK
6
CONTINUOUS
10
98.748
20
-84.1172
11
98.748
21
-83.1672
0
LINE
8
BLACK
6
CONTINUOUS
10
98.748
20
-83.1672
11
98.7528
21
-83.1184
0
LINE
8
BLACK
6
CONTINUOUS
10
98.7528
20
-83.1184
11
98.767
21
-83.0715
0
LINE
8
BLACK
6
CONTINUOUS
10
98.767
20
-83.0715
11
98.7901
21
-83.0283
0
LINE
8
BLACK
6
CONTINUOUS
10
98.7901
20
-83.0283
11
98.8212
21
-82.9904
0
LINE
8
BLACK
6
CONTINUOUS
10
98.8212
20
-82.9904
11
98.8591
21
-82.9593
0
LINE
8
BLACK
6
CONTINUOUS
10
98.8591
20
-82.9593
11
98.9023
21
-82.9362
0
LINE
8
BLACK
6
CONTINUOUS
10
98.9023
20
-82.9362
11
98.9492
21
-82.922
0
LINE
8
BLACK
6
CONTINUOUS
10
98.9492
20
-82.922
11
98.998
21
-82.9172
0
LINE
8
BLACK
6
CONTINUOUS
10
98.998
20
-82.9172
11
99.673
21
-82.9172
0
LINE
8
BLACK
6
CONTINUOUS
10
99.673
20
-82.9172
11
99.7218
21
-82.922
0
LINE
8
BLACK
6
CONTINUOUS
10
122.965
20
-83.62
11
120.965
21
-83.62
0
LINE
8
BLACK
6
CONTINUOUS
10
120.965
20
-83.62
11
120.965
21
-83.02
0
LINE
8
BLACK
6
CONTINUOUS
10
120.965
20
-83.02
11
122.965
21
-83.02
0
LINE
8
BLACK
6
CONTINUOUS
10
122.965
20
-83.02
11
122.965
21
-83.62
0
LINE
8
BLACK
6
CONTINUOUS
10
122.965
20
-82.62
11
120.965
21
-82.62
0
LINE
8
BLACK
6
CONTINUOUS
10
120.965
20
-82.62
11
120.965
21
-82.02
0
LINE
8
BLACK
6
CONTINUOUS
10
120.965
20
-82.02
11
122.965
21
-82.02
0
LINE
8
BLACK
6
CONTINUOUS
10
122.965
20
-82.02
11
122.965
21
-82.62
0
LINE
8
BLACK
6
CONTINUOUS
10
122.965
20
-81.62
11
120.965
21
-81.62
0
LINE
8
BLACK
6
CONTINUOUS
10
120.965
20
-81.62
11
120.965
21
-81.02
0
LINE
8
BLACK
6
CONTINUOUS
10
120.965
20
-81.02
11
122.965
21
-81.02
0
LINE
8
BLACK
6
CONTINUOUS
10
122.965
20
-81.02
11
122.965
21
-81.62
0
LINE
8
BLACK
6
CONTINUOUS
10
122.965
20
-80.62
11
120.965
21
-80.62
0
LINE
8
BLACK
6
CONTINUOUS
10
120.965
20
-80.62
11
120.965
21
-80.02
0
LINE
8
BLACK
6
CONTINUOUS
10
120.965
20
-80.02
11
122.965
21
-80.02
0
LINE
8
BLACK
6
CONTINUOUS
10
122.965
20
-80.02
11
122.965
21
-80.62
0
LINE
8
BLACK
6
CONTINUOUS
10
122.965
20
-79.62
11
120.965
21
-79.62
0
LINE
8
BLACK
6
CONTINUOUS
10
120.965
20
-79.62
11
120.965
21
-79.02
0
LINE
8
BLACK
6
CONTINUOUS
10
120.965
20
-79.02
11
122.965
21
-79.02
0
LINE
8
BLACK
6
CONTINUOUS
10
122.965
20
-79.02
11
122.965
21
-79.62
0
LINE
8
BLACK
6
CONTINUOUS
10
122.965
20
-78.62
11
120.965
21
-78.62
0
LINE
8
BLACK
6
CONTINUOUS
10
120.965
20
-78.62
11
120.965
21
-78.02
0
LINE
8
BLACK
6
CONTINUOUS
10
120.965
20
-78.02
11
122.965
21
-78.02
0
LINE
8
BLACK
6
CONTINUOUS
10
122.965
20
-78.02
11
122.965
21
-78.62
0
LINE
8
BLACK
6
CONTINUOUS
10
122.965
20
-77.62
11
120.965
21
-77.62
0
LINE
8
BLACK
6
CONTINUOUS
10
120.965
20
-77.62
11
120.965
21
-77.02
0
LINE
8
BLACK
6
CONTINUOUS
10
120.965
20
-77.02
11
122.965
21
-77.02
0
LINE
8
BLACK
6
CONTINUOUS
10
122.965
20
-77.02
11
122.965
21
-77.62
0
LINE
8
BLACK
6
CONTINUOUS
10
122.965
20
-76.62
11
120.965
21
-76.62
0
LINE
8
BLACK
6
CONTINUOUS
10
120.965
20
-76.62
11
120.965
21
-76.02
0
LINE
8
BLACK
6
CONTINUOUS
10
120.965
20
-76.02
11
122.965
21
-76.02
0
LINE
8
BLACK
6
CONTINUOUS
10
122.965
20
-76.02
11
122.965
21
-76.62
0
LINE
8
BLACK
6
CONTINUOUS
10
122.965
20
-75.62
11
120.965
21
-75.62
0
LINE
8
BLACK
6
CONTINUOUS
10
120.965
20
-75.62
11
120.965
21
-75.02
0
LINE
8
BLACK
6
CONTINUOUS
10
120.965
20
-75.02
11
122.965
21
-75.02
0
LINE
8
BLACK
6
CONTINUOUS
10
122.965
20
-75.02
11
122.965
21
-75.62
0
LINE
8
BLACK
6
CONTINUOUS
10
125.915
20
-73.82
11
122.915
21
-73.82
0
LINE
8
BLACK
6
CONTINUOUS
10
122.915
20
-73.82
11
122.915
21
-71.32
0
LINE
8
BLACK
6
CONTINUOUS
10
122.915
20
-71.32
11
125.915
21
-71.32
0
LINE
8
BLACK
6
CONTINUOUS
10
125.915
20
-71.32
11
125.915
21
-73.82
0
LINE
8
BLACK
6
CONTINUOUS
10
120.793
20
-58.2398
11
120.84
21
-58.254
0
LINE
8
BLACK
6
CONTINUOUS
10
120.84
20
-58.254
11
120.883
21
-58.2771
0
LINE
8
BLACK
6
CONTINUOUS
10
120.883
20
-58.2771
11
120.921
21
-58.3082
0
LINE
8
BLACK
6
CONTINUOUS
10
120.921
20
-58.3082
11
120.952
21
-58.3461
0
LINE
8
BLACK
6
CONTINUOUS
10
120.952
20
-58.3461
11
120.975
21
-58.3893
0
LINE
8
BLACK
6
CONTINUOUS
10
120.975
20
-58.3893
11
120.989
21
-58.4362
0
LINE
8
BLACK
6
CONTINUOUS
10
120.989
20
-58.4362
11
120.994
21
-58.485
0
LINE
8
BLACK
6
CONTINUOUS
10
120.994
20
-58.485
11
120.994
21
-59.16
0
LINE
8
BLACK
6
CONTINUOUS
10
120.994
20
-59.16
11
120.989
21
-59.2088
0
LINE
8
BLACK
6
CONTINUOUS
10
120.989
20
-59.2088
11
120.975
21
-59.2557
0
LINE
8
BLACK
6
CONTINUOUS
10
120.975
20
-59.2557
11
120.952
21
-59.2989
0
LINE
8
BLACK
6
CONTINUOUS
10
120.952
20
-59.2989
11
120.921
21
-59.3368
0
LINE
8
BLACK
6
CONTINUOUS
10
120.921
20
-59.3368
11
120.883
21
-59.3679
0
LINE
8
BLACK
6
CONTINUOUS
10
120.883
20
-59.3679
11
120.84
21
-59.391
0
LINE
8
BLACK
6
CONTINUOUS
10
120.84
20
-59.391
11
120.793
21
-59.4052
0
LINE
8
BLACK
6
CONTINUOUS
10
120.793
20
-59.4052
11
120.744
21
-59.41
0
LINE
8
BLACK
6
CONTINUOUS
10
120.744
20
-59.41
11
119.794
21
-59.41
0
LINE
8
BLACK
6
CONTINUOUS
10
119.794
20
-59.41
11
119.745
21
-59.4052
0
LINE
8
BLACK
6
CONTINUOUS
10
119.745
20
-59.4052
11
119.698
21
-59.391
0
LINE
8
BLACK
6
CONTINUOUS
10
119.698
20
-59.391
11
119.655
21
-59.3679
0
LINE
8
BLACK
6
CONTINUOUS
10
119.655
20
-59.3679
11
119.617
21
-59.3368
0
LINE
8
BLACK
6
CONTINUOUS
10
119.617
20
-59.3368
11
119.586
21
-59.2989
0
LINE
8
BLACK
6
CONTINUOUS
10
119.586
20
-59.2989
11
119.563
21
-59.2557
0
LINE
8
BLACK
6
CONTINUOUS
10
119.563
20
-59.2557
11
119.549
21
-59.2088
0
LINE
8
BLACK
6
CONTINUOUS
10
119.549
20
-59.2088
11
119.544
21
-59.16
0
LINE
8
BLACK
6
CONTINUOUS
10
119.544
20
-59.16
11
119.544
21
-58.485
0
LINE
8
BLACK
6
CONTINUOUS
10
119.544
20
-58.485
11
119.549
21
-58.4362
0
LINE
8
BLACK
6
CONTINUOUS
10
119.549
20
-58.4362
11
119.563
21
-58.3893
0
LINE
8
BLACK
6
CONTINUOUS
10
119.563
20
-58.3893
11
119.586
21
-58.3461
0
LINE
8
BLACK
6
CONTINUOUS
10
119.586
20
-58.3461
11
119.617
21
-58.3082
0
LINE
8
BLACK
6
CONTINUOUS
10
119.617
20
-58.3082
11
119.655
21
-58.2771
0
LINE
8
BLACK
6
CONTINUOUS
10
119.655
20
-58.2771
11
119.698
21
-58.254
0
LINE
8
BLACK
6
CONTINUOUS
10
119.698
20
-58.254
11
119.745
21
-58.2398
0
LINE
8
BLACK
6
CONTINUOUS
10
119.745
20
-58.2398
11
119.794
21
-58.235
0
LINE
8
BLACK
6
CONTINUOUS
10
119.794
20
-58.235
11
120.744
21
-58.235
0
LINE
8
BLACK
6
CONTINUOUS
10
120.744
20
-58.235
11
120.793
21
-58.2398
0
LINE
8
BLACK
6
CONTINUOUS
10
77.0798
20
-58.1898
11
77.1267
21
-58.204
0
LINE
8
BLACK
6
CONTINUOUS
10
77.1267
20
-58.204
11
77.1699
21
-58.2271
0
LINE
8
BLACK
6
CONTINUOUS
10
77.1699
20
-58.2271
11
77.2078
21
-58.2582
0
LINE
8
BLACK
6
CONTINUOUS
10
77.2078
20
-58.2582
11
77.2389
21
-58.2961
0
LINE
8
BLACK
6
CONTINUOUS
10
77.2389
20
-58.2961
11
77.262
21
-58.3393
0
LINE
8
BLACK
6
CONTINUOUS
10
77.262
20
-58.3393
11
77.2762
21
-58.3862
0
LINE
8
BLACK
6
CONTINUOUS
10
77.2762
20
-58.3862
11
77.281
21
-58.435
0
LINE
8
BLACK
6
CONTINUOUS
10
77.281
20
-58.435
11
77.281
21
-59.135
0
LINE
8
BLACK
6
CONTINUOUS
10
77.281
20
-59.135
11
77.2762
21
-59.1838
0
LINE
8
BLACK
6
CONTINUOUS
10
77.2762
20
-59.1838
11
77.262
21
-59.2307
0
LINE
8
BLACK
6
CONTINUOUS
10
77.262
20
-59.2307
11
77.2389
21
-59.2739
0
LINE
8
BLACK
6
CONTINUOUS
10
77.2389
20
-59.2739
11
77.2078
21
-59.3118
0
LINE
8
BLACK
6
CONTINUOUS
10
77.2078
20
-59.3118
11
77.1699
21
-59.3429
0
LINE
8
BLACK
6
CONTINUOUS
10
77.1699
20
-59.3429
11
77.1267
21
-59.366
0
LINE
8
BLACK
6
CONTINUOUS
10
77.1267
20
-59.366
11
77.0798
21
-59.3802
0
LINE
8
BLACK
6
CONTINUOUS
10
77.0798
20
-59.3802
11
77.031
21
-59.385
0
LINE
8
BLACK
6
CONTINUOUS
10
77.031
20
-59.385
11
76.131
21
-59.385
0
LINE
8
BLACK
6
CONTINUOUS
10
76.131
20
-59.385
11
76.0822
21
-59.3802
0
LINE
8
BLACK
6
CONTINUOUS
10
76.0822
20
-59.3802
11
76.0353
21
-59.366
0
LINE
8
BLACK
6
CONTINUOUS
10
76.0353
20
-59.366
11
75.9921
21
-59.3429
0
LINE
8
BLACK
6
CONTINUOUS
10
75.9921
20
-59.3429
11
75.9542
21
-59.3118
0
LINE
8
BLACK
6
CONTINUOUS
10
75.9542
20
-59.3118
11
75.9231
21
-59.2739
0
LINE
8
BLACK
6
CONTINUOUS
10
75.9231
20
-59.2739
11
75.9
21
-59.2307
0
LINE
8
BLACK
6
CONTINUOUS
10
75.9
20
-59.2307
11
75.8858
21
-59.1838
0
LINE
8
BLACK
6
CONTINUOUS
10
75.8858
20
-59.1838
11
75.881
21
-59.135
0
LINE
8
BLACK
6
CONTINUOUS
10
75.881
20
-59.135
11
75.881
21
-58.435
0
LINE
8
BLACK
6
CONTINUOUS
10
75.881
20
-58.435
11
75.8858
21
-58.3862
0
LINE
8
BLACK
6
CONTINUOUS
10
75.8858
20
-58.3862
11
75.9
21
-58.3393
0
LINE
8
BLACK
6
CONTINUOUS
10
75.9
20
-58.3393
11
75.9231
21
-58.2961
0
LINE
8
BLACK
6
CONTINUOUS
10
75.9231
20
-58.2961
11
75.9542
21
-58.2582
0
LINE
8
BLACK
6
CONTINUOUS
10
75.9542
20
-58.2582
11
75.9921
21
-58.2271
0
LINE
8
BLACK
6
CONTINUOUS
10
75.9921
20
-58.2271
11
76.0353
21
-58.204
0
LINE
8
BLACK
6
CONTINUOUS
10
76.0353
20
-58.204
11
76.0822
21
-58.1898
0
LINE
8
BLACK
6
CONTINUOUS
10
76.0822
20
-58.1898
11
76.131
21
-58.185
0
LINE
8
BLACK
6
CONTINUOUS
10
76.131
20
-58.185
11
77.031
21
-58.185
0
LINE
8
BLACK
6
CONTINUOUS
10
77.031
20
-58.185
11
77.0798
21
-58.1898
0
LINE
8
BLACK
6
CONTINUOUS
10
89.1448
20
-58.1898
11
89.1917
21
-58.204
0
LINE
8
BLACK
6
CONTINUOUS
10
89.1917
20
-58.204
11
89.2349
21
-58.2271
0
LINE
8
BLACK
6
CONTINUOUS
10
89.2349
20
-58.2271
11
89.2728
21
-58.2582
0
LINE
8
BLACK
6
CONTINUOUS
10
89.2728
20
-58.2582
11
89.3039
21
-58.2961
0
LINE
8
BLACK
6
CONTINUOUS
10
89.3039
20
-58.2961
11
89.327
21
-58.3393
0
LINE
8
BLACK
6
CONTINUOUS
10
89.327
20
-58.3393
11
89.3412
21
-58.3862
0
LINE
8
BLACK
6
CONTINUOUS
10
89.3412
20
-58.3862
11
89.346
21
-58.435
0
LINE
8
BLACK
6
CONTINUOUS
10
89.346
20
-58.435
11
89.346
21
-59.135
0
LINE
8
BLACK
6
CONTINUOUS
10
89.346
20
-59.135
11
89.3412
21
-59.1838
0
LINE
8
BLACK
6
CONTINUOUS
10
89.3412
20
-59.1838
11
89.327
21
-59.2307
0
LINE
8
BLACK
6
CONTINUOUS
10
89.327
20
-59.2307
11
89.3039
21
-59.2739
0
LINE
8
BLACK
6
CONTINUOUS
10
89.3039
20
-59.2739
11
89.2728
21
-59.3118
0
LINE
8
BLACK
6
CONTINUOUS
10
89.2728
20
-59.3118
11
89.2349
21
-59.3429
0
LINE
8
BLACK
6
CONTINUOUS
10
89.2349
20
-59.3429
11
89.1917
21
-59.366
0
LINE
8
BLACK
6
CONTINUOUS
10
89.1917
20
-59.366
11
89.1448
21
-59.3802
0
LINE
8
BLACK
6
CONTINUOUS
10
89.1448
20
-59.3802
11
89.096
21
-59.385
0
LINE
8
BLACK
6
CONTINUOUS
10
89.096
20
-59.385
11
88.196
21
-59.385
0
LINE
8
BLACK
6
CONTINUOUS
10
88.196
20
-59.385
11
88.1472
21
-59.3802
0
LINE
8
BLACK
6
CONTINUOUS
10
88.1472
20
-59.3802
11
88.1003
21
-59.366
0
LINE
8
BLACK
6
CONTINUOUS
10
88.1003
20
-59.366
11
88.0571
21
-59.3429
0
LINE
8
BLACK
6
CONTINUOUS
10
88.0571
20
-59.3429
11
88.0192
21
-59.3118
0
LINE
8
BLACK
6
CONTINUOUS
10
88.0192
20
-59.3118
11
87.9881
21
-59.2739
0
LINE
8
BLACK
6
CONTINUOUS
10
87.9881
20
-59.2739
11
87.965
21
-59.2307
0
LINE
8
BLACK
6
CONTINUOUS
10
87.965
20
-59.2307
11
87.9508
21
-59.1838
0
LINE
8
BLACK
6
CONTINUOUS
10
87.9508
20
-59.1838
11
87.946
21
-59.135
0
LINE
8
BLACK
6
CONTINUOUS
10
87.946
20
-59.135
11
87.946
21
-58.435
0
LINE
8
BLACK
6
CONTINUOUS
10
87.946
20
-58.435
11
87.9508
21
-58.3862
0
LINE
8
BLACK
6
CONTINUOUS
10
87.9508
20
-58.3862
11
87.965
21
-58.3393
0
LINE
8
BLACK
6
CONTINUOUS
10
87.965
20
-58.3393
11
87.9881
21
-58.2961
0
LINE
8
BLACK
6
CONTINUOUS
10
87.9881
20
-58.2961
11
88.0192
21
-58.2582
0
LINE
8
BLACK
6
CONTINUOUS
10
88.0192
20
-58.2582
11
88.0571
21
-58.2271
0
LINE
8
BLACK
6
CONTINUOUS
10
88.0571
20
-58.2271
11
88.1003
21
-58.204
0
LINE
8
BLACK
6
CONTINUOUS
10
88.1003
20
-58.204
11
88.1472
21
-58.1898
0
LINE
8
BLACK
6
CONTINUOUS
10
88.1472
20
-58.1898
11
88.196
21
-58.185
0
LINE
8
BLACK
6
CONTINUOUS
10
88.196
20
-58.185
11
89.096
21
-58.185
0
LINE
8
BLACK
6
CONTINUOUS
10
89.096
20
-58.185
11
89.1448
21
-58.1898
0
LINE
8
BLACK
6
CONTINUOUS
10
101.083
20
-58.1898
11
101.13
21
-58.204
0
LINE
8
BLACK
6
CONTINUOUS
10
101.13
20
-58.204
11
101.173
21
-58.2271
0
LINE
8
BLACK
6
CONTINUOUS
10
101.173
20
-58.2271
11
101.211
21
-58.2582
0
LINE
8
BLACK
6
CONTINUOUS
10
101.211
20
-58.2582
11
101.242
21
-58.2961
0
LINE
8
BLACK
6
CONTINUOUS
10
101.242
20
-58.2961
11
101.265
21
-58.3393
0
LINE
8
BLACK
6
CONTINUOUS
10
101.265
20
-58.3393
11
101.279
21
-58.3862
0
LINE
8
BLACK
6
CONTINUOUS
10
101.279
20
-58.3862
11
101.284
21
-58.435
0
LINE
8
BLACK
6
CONTINUOUS
10
101.284
20
-58.435
11
101.284
21
-59.135
0
LINE
8
BLACK
6
CONTINUOUS
10
101.284
20
-59.135
11
101.279
21
-59.1838
0
LINE
8
BLACK
6
CONTINUOUS
10
101.279
20
-59.1838
11
101.265
21
-59.2307
0
LINE
8
BLACK
6
CONTINUOUS
10
101.265
20
-59.2307
11
101.242
21
-59.2739
0
LINE
8
BLACK
6
CONTINUOUS
10
101.242
20
-59.2739
11
101.211
21
-59.3118
0
LINE
8
BLACK
6
CONTINUOUS
10
101.211
20
-59.3118
11
101.173
21
-59.3429
0
LINE
8
BLACK
6
CONTINUOUS
10
101.173
20
-59.3429
11
101.13
21
-59.366
0
LINE
8
BLACK
6
CONTINUOUS
10
101.13
20
-59.366
11
101.083
21
-59.3802
0
LINE
8
BLACK
6
CONTINUOUS
10
101.083
20
-59.3802
11
101.034
21
-59.385
0
LINE
8
BLACK
6
CONTINUOUS
10
101.034
20
-59.385
11
100.134
21
-59.385
0
LINE
8
BLACK
6
CONTINUOUS
10
100.134
20
-59.385
11
100.085
21
-59.3802
0
LINE
8
BLACK
6
CONTINUOUS
10
100.085
20
-59.3802
11
100.038
21
-59.366
0
LINE
8
BLACK
6
CONTINUOUS
10
100.038
20
-59.366
11
99.9951
21
-59.3429
0
LINE
8
BLACK
6
CONTINUOUS
10
99.9951
20
-59.3429
11
99.9572
21
-59.3118
0
LINE
8
BLACK
6
CONTINUOUS
10
99.9572
20
-59.3118
11
99.9261
21
-59.2739
0
LINE
8
BLACK
6
CONTINUOUS
10
99.9261
20
-59.2739
11
99.903
21
-59.2307
0
LINE
8
BLACK
6
CONTINUOUS
10
99.903
20
-59.2307
11
99.8888
21
-59.1838
0
LINE
8
BLACK
6
CONTINUOUS
10
99.8888
20
-59.1838
11
99.884
21
-59.135
0
LINE
8
BLACK
6
CONTINUOUS
10
99.884
20
-59.135
11
99.884
21
-58.435
0
LINE
8
BLACK
6
CONTINUOUS
10
99.884
20
-58.435
11
99.8888
21
-58.3862
0
LINE
8
BLACK
6
CONTINUOUS
10
99.8888
20
-58.3862
11
99.903
21
-58.3393
0
LINE
8
BLACK
6
CONTINUOUS
10
99.903
20
-58.3393
11
99.9261
21
-58.2961
0
LINE
8
BLACK
6
CONTINUOUS
10
99.9261
20
-58.2961
11
99.9572
21
-58.2582
0
LINE
8
BLACK
6
CONTINUOUS
10
99.9572
20
-58.2582
11
99.9951
21
-58.2271
0
LINE
8
BLACK
6
CONTINUOUS
10
99.9951
20
-58.2271
11
100.038
21
-58.204
0
LINE
8
BLACK
6
CONTINUOUS
10
100.038
20
-58.204
11
100.085
21
-58.1898
0
LINE
8
BLACK
6
CONTINUOUS
10
100.085
20
-58.1898
11
100.134
21
-58.185
0
LINE
8
BLACK
6
CONTINUOUS
10
100.134
20
-58.185
11
101.034
21
-58.185
0
LINE
8
BLACK
6
CONTINUOUS
10
101.034
20
-58.185
11
101.083
21
-58.1898
0
LINE
8
BLACK
6
CONTINUOUS
10
110.524
20
-57.0898
11
110.571
21
-57.104
0
LINE
8
BLACK
6
CONTINUOUS
10
110.571
20
-57.104
11
110.614
21
-57.1271
0
LINE
8
BLACK
6
CONTINUOUS
10
110.614
20
-57.1271
11
110.652
21
-57.1582
0
LINE
8
BLACK
6
CONTINUOUS
10
110.652
20
-57.1582
11
110.683
21
-57.1961
0
LINE
8
BLACK
6
CONTINUOUS
10
110.683
20
-57.1961
11
110.706
21
-57.2393
0
LINE
8
BLACK
6
CONTINUOUS
10
110.706
20
-57.2393
11
110.72
21
-57.2862
0
LINE
8
BLACK
6
CONTINUOUS
10
110.72
20
-57.2862
11
110.725
21
-57.335
0
LINE
8
BLACK
6
CONTINUOUS
10
110.725
20
-57.335
11
110.725
21
-58.235
0
LINE
8
BLACK
6
CONTINUOUS
10
110.725
20
-58.235
11
110.72
21
-58.2838
0
LINE
8
BLACK
6
CONTINUOUS
10
110.72
20
-58.2838
11
110.706
21
-58.3307
0
LINE
8
BLACK
6
CONTINUOUS
10
110.706
20
-58.3307
11
110.683
21
-58.3739
0
LINE
8
BLACK
6
CONTINUOUS
10
110.683
20
-58.3739
11
110.652
21
-58.4118
0
LINE
8
BLACK
6
CONTINUOUS
10
110.652
20
-58.4118
11
110.614
21
-58.4429
0
LINE
8
BLACK
6
CONTINUOUS
10
110.614
20
-58.4429
11
110.571
21
-58.466
0
LINE
8
BLACK
6
CONTINUOUS
10
110.571
20
-58.466
11
110.524
21
-58.4802
0
LINE
8
BLACK
6
CONTINUOUS
10
110.524
20
-58.4802
11
110.475
21
-58.485
0
LINE
8
BLACK
6
CONTINUOUS
10
110.475
20
-58.485
11
109.775
21
-58.485
0
LINE
8
BLACK
6
CONTINUOUS
10
109.775
20
-58.485
11
109.726
21
-58.4802
0
LINE
8
BLACK
6
CONTINUOUS
10
109.726
20
-58.4802
11
109.679
21
-58.466
0
LINE
8
BLACK
6
CONTINUOUS
10
109.679
20
-58.466
11
109.636
21
-58.4429
0
LINE
8
BLACK
6
CONTINUOUS
10
109.636
20
-58.4429
11
109.598
21
-58.4118
0
LINE
8
BLACK
6
CONTINUOUS
10
109.598
20
-58.4118
11
109.567
21
-58.3739
0
LINE
8
BLACK
6
CONTINUOUS
10
109.567
20
-58.3739
11
109.544
21
-58.3307
0
LINE
8
BLACK
6
CONTINUOUS
10
109.544
20
-58.3307
11
109.53
21
-58.2838
0
LINE
8
BLACK
6
CONTINUOUS
10
109.53
20
-58.2838
11
109.525
21
-58.235
0
LINE
8
BLACK
6
CONTINUOUS
10
109.525
20
-58.235
11
109.525
21
-57.335
0
LINE
8
BLACK
6
CONTINUOUS
10
109.525
20
-57.335
11
109.53
21
-57.2862
0
LINE
8
BLACK
6
CONTINUOUS
10
109.53
20
-57.2862
11
109.544
21
-57.2393
0
LINE
8
BLACK
6
CONTINUOUS
10
109.544
20
-57.2393
11
109.567
21
-57.1961
0
LINE
8
BLACK
6
CONTINUOUS
10
109.567
20
-57.1961
11
109.598
21
-57.1582
0
LINE
8
BLACK
6
CONTINUOUS
10
109.598
20
-57.1582
11
109.636
21
-57.1271
0
LINE
8
BLACK
6
CONTINUOUS
10
109.636
20
-57.1271
11
109.679
21
-57.104
0
LINE
8
BLACK
6
CONTINUOUS
10
109.679
20
-57.104
11
109.726
21
-57.0898
0
LINE
8
BLACK
6
CONTINUOUS
10
109.726
20
-57.0898
11
109.775
21
-57.085
0
LINE
8
BLACK
6
CONTINUOUS
10
109.775
20
-57.085
11
110.475
21
-57.085
0
LINE
8
BLACK
6
CONTINUOUS
10
110.475
20
-57.085
11
110.524
21
-57.0898
0
LINE
8
BLACK
6
CONTINUOUS
10
112.524
20
-57.0898
11
112.571
21
-57.104
0
LINE
8
BLACK
6
CONTINUOUS
10
112.571
20
-57.104
11
112.614
21
-57.1271
0
LINE
8
BLACK
6
CONTINUOUS
10
112.614
20
-57.1271
11
112.652
21
-57.1582
0
LINE
8
BLACK
6
CONTINUOUS
10
112.652
20
-57.1582
11
112.683
21
-57.1961
0
LINE
8
BLACK
6
CONTINUOUS
10
112.683
20
-57.1961
11
112.706
21
-57.2393
0
LINE
8
BLACK
6
CONTINUOUS
10
112.706
20
-57.2393
11
112.72
21
-57.2862
0
LINE
8
BLACK
6
CONTINUOUS
10
112.72
20
-57.2862
11
112.725
21
-57.335
0
LINE
8
BLACK
6
CONTINUOUS
10
112.725
20
-57.335
11
112.725
21
-58.235
0
LINE
8
BLACK
6
CONTINUOUS
10
112.725
20
-58.235
11
112.72
21
-58.2838
0
LINE
8
BLACK
6
CONTINUOUS
10
112.72
20
-58.2838
11
112.706
21
-58.3307
0
LINE
8
BLACK
6
CONTINUOUS
10
112.706
20
-58.3307
11
112.683
21
-58.3739
0
LINE
8
BLACK
6
CONTINUOUS
10
112.683
20
-58.3739
11
112.652
21
-58.4118
0
LINE
8
BLACK
6
CONTINUOUS
10
112.652
20
-58.4118
11
112.614
21
-58.4429
0
LINE
8
BLACK
6
CONTINUOUS
10
112.614
20
-58.4429
11
112.571
21
-58.466
0
LINE
8
BLACK
6
CONTINUOUS
10
112.571
20
-58.466
11
112.524
21
-58.4802
0
LINE
8
BLACK
6
CONTINUOUS
10
112.524
20
-58.4802
11
112.475
21
-58.485
0
LINE
8
BLACK
6
CONTINUOUS
10
112.475
20
-58.485
11
111.775
21
-58.485
0
LINE
8
BLACK
6
CONTINUOUS
10
111.775
20
-58.485
11
111.726
21
-58.4802
0
LINE
8
BLACK
6
CONTINUOUS
10
111.726
20
-58.4802
11
111.679
21
-58.466
0
LINE
8
BLACK
6
CONTINUOUS
10
111.679
20
-58.466
11
111.636
21
-58.4429
0
LINE
8
BLACK
6
CONTINUOUS
10
111.636
20
-58.4429
11
111.598
21
-58.4118
0
LINE
8
BLACK
6
CONTINUOUS
10
111.598
20
-58.4118
11
111.567
21
-58.3739
0
LINE
8
BLACK
6
CONTINUOUS
10
111.567
20
-58.3739
11
111.544
21
-58.3307
0
LINE
8
BLACK
6
CONTINUOUS
10
111.544
20
-58.3307
11
111.53
21
-58.2838
0
LINE
8
BLACK
6
CONTINUOUS
10
111.53
20
-58.2838
11
111.525
21
-58.235
0
LINE
8
BLACK
6
CONTINUOUS
10
111.525
20
-58.235
11
111.525
21
-57.335
0
LINE
8
BLACK
6
CONTINUOUS
10
111.525
20
-57.335
11
111.53
21
-57.2862
0
LINE
8
BLACK
6
CONTINUOUS
10
111.53
20
-57.2862
11
111.544
21
-57.2393
0
LINE
8
BLACK
6
CONTINUOUS
10
111.544
20
-57.2393
11
111.567
21
-57.1961
0
LINE
8
BLACK
6
CONTINUOUS
10
111.567
20
-57.1961
11
111.598
21
-57.1582
0
LINE
8
BLACK
6
CONTINUOUS
10
111.598
20
-57.1582
11
111.636
21
-57.1271
0
LINE
8
BLACK
6
CONTINUOUS
10
111.636
20
-57.1271
11
111.679
21
-57.104
0
LINE
8
BLACK
6
CONTINUOUS
10
111.679
20
-57.104
11
111.726
21
-57.0898
0
LINE
8
BLACK
6
CONTINUOUS
10
111.726
20
-57.0898
11
111.775
21
-57.085
0
LINE
8
BLACK
6
CONTINUOUS
10
111.775
20
-57.085
11
112.475
21
-57.085
0
LINE
8
BLACK
6
CONTINUOUS
10
112.475
20
-57.085
11
112.524
21
-57.0898
0
LINE
8
BLACK
6
CONTINUOUS
10
77.0798
20
-56.1898
11
77.1267
21
-56.204
0
LINE
8
BLACK
6
CONTINUOUS
10
77.1267
20
-56.204
11
77.1699
21
-56.2271
0
LINE
8
BLACK
6
CONTINUOUS
10
77.1699
20
-56.2271
11
77.2078
21
-56.2582
0
LINE
8
BLACK
6
CONTINUOUS
10
77.2078
20
-56.2582
11
77.2389
21
-56.2961
0
LINE
8
BLACK
6
CONTINUOUS
10
77.2389
20
-56.2961
11
77.262
21
-56.3393
0
LINE
8
BLACK
6
CONTINUOUS
10
77.262
20
-56.3393
11
77.2762
21
-56.3862
0
LINE
8
BLACK
6
CONTINUOUS
10
77.2762
20
-56.3862
11
77.281
21
-56.435
0
LINE
8
BLACK
6
CONTINUOUS
10
77.281
20
-56.435
11
77.281
21
-57.135
0
LINE
8
BLACK
6
CONTINUOUS
10
77.281
20
-57.135
11
77.2762
21
-57.1838
0
LINE
8
BLACK
6
CONTINUOUS
10
77.2762
20
-57.1838
11
77.262
21
-57.2307
0
LINE
8
BLACK
6
CONTINUOUS
10
77.262
20
-57.2307
11
77.2389
21
-57.2739
0
LINE
8
BLACK
6
CONTINUOUS
10
77.2389
20
-57.2739
11
77.2078
21
-57.3118
0
LINE
8
BLACK
6
CONTINUOUS
10
77.2078
20
-57.3118
11
77.1699
21
-57.3429
0
LINE
8
BLACK
6
CONTINUOUS
10
77.1699
20
-57.3429
11
77.1267
21
-57.366
0
LINE
8
BLACK
6
CONTINUOUS
10
77.1267
20
-57.366
11
77.0798
21
-57.3802
0
LINE
8
BLACK
6
CONTINUOUS
10
77.0798
20
-57.3802
11
77.031
21
-57.385
0
LINE
8
BLACK
6
CONTINUOUS
10
77.031
20
-57.385
11
76.131
21
-57.385
0
LINE
8
BLACK
6
CONTINUOUS
10
76.131
20
-57.385
11
76.0822
21
-57.3802
0
LINE
8
BLACK
6
CONTINUOUS
10
76.0822
20
-57.3802
11
76.0353
21
-57.366
0
LINE
8
BLACK
6
CONTINUOUS
10
76.0353
20
-57.366
11
75.9921
21
-57.3429
0
LINE
8
BLACK
6
CONTINUOUS
10
75.9921
20
-57.3429
11
75.9542
21
-57.3118
0
LINE
8
BLACK
6
CONTINUOUS
10
75.9542
20
-57.3118
11
75.9231
21
-57.2739
0
LINE
8
BLACK
6
CONTINUOUS
10
75.9231
20
-57.2739
11
75.9
21
-57.2307
0
LINE
8
BLACK
6
CONTINUOUS
10
75.9
20
-57.2307
11
75.8858
21
-57.1838
0
LINE
8
BLACK
6
CONTINUOUS
10
75.8858
20
-57.1838
11
75.881
21
-57.135
0
LINE
8
BLACK
6
CONTINUOUS
10
75.881
20
-57.135
11
75.881
21
-56.435
0
LINE
8
BLACK
6
CONTINUOUS
10
75.881
20
-56.435
11
75.8858
21
-56.3862
0
LINE
8
BLACK
6
CONTINUOUS
10
75.8858
20
-56.3862
11
75.9
21
-56.3393
0
LINE
8
BLACK
6
CONTINUOUS
10
75.9
20
-56.3393
11
75.9231
21
-56.2961
0
LINE
8
BLACK
6
CONTINUOUS
10
75.9231
20
-56.2961
11
75.9542
21
-56.2582
0
LINE
8
BLACK
6
CONTINUOUS
10
75.9542
20
-56.2582
11
75.9921
21
-56.2271
0
LINE
8
BLACK
6
CONTINUOUS
10
75.9921
20
-56.2271
11
76.0353
21
-56.204
0
LINE
8
BLACK
6
CONTINUOUS
10
76.0353
20
-56.204
11
76.0822
21
-56.1898
0
LINE
8
BLACK
6
CONTINUOUS
10
76.0822
20
-56.1898
11
76.131
21
-56.185
0
LINE
8
BLACK
6
CONTINUOUS
10
76.131
20
-56.185
11
77.031
21
-56.185
0
LINE
8
BLACK
6
CONTINUOUS
10
77.031
20
-56.185
11
77.0798
21
-56.1898
0
LINE
8
BLACK
6
CONTINUOUS
10
89.1448
20
-56.1898
11
89.1917
21
-56.204
0
LINE
8
BLACK
6
CONTINUOUS
10
89.1917
20
-56.204
11
89.2349
21
-56.2271
0
LINE
8
BLACK
6
CONTINUOUS
10
89.2349
20
-56.2271
11
89.2728
21
-56.2582
0
LINE
8
BLACK
6
CONTINUOUS
10
89.2728
20
-56.2582
11
89.3039
21
-56.2961
0
LINE
8
BLACK
6
CONTINUOUS
10
89.3039
20
-56.2961
11
89.327
21
-56.3393
0
LINE
8
BLACK
6
CONTINUOUS
10
89.327
20
-56.3393
11
89.3412
21
-56.3862
0
LINE
8
BLACK
6
CONTINUOUS
10
89.3412
20
-56.3862
11
89.346
21
-56.435
0
LINE
8
BLACK
6
CONTINUOUS
10
89.346
20
-56.435
11
89.346
21
-57.135
0
LINE
8
BLACK
6
CONTINUOUS
10
89.346
20
-57.135
11
89.3412
21
-57.1838
0
LINE
8
BLACK
6
CONTINUOUS
10
89.3412
20
-57.1838
11
89.327
21
-57.2307
0
LINE
8
BLACK
6
CONTINUOUS
10
89.327
20
-57.2307
11
89.3039
21
-57.2739
0
LINE
8
BLACK
6
CONTINUOUS
10
89.3039
20
-57.2739
11
89.2728
21
-57.3118
0
LINE
8
BLACK
6
CONTINUOUS
10
89.2728
20
-57.3118
11
89.2349
21
-57.3429
0
LINE
8
BLACK
6
CONTINUOUS
10
89.2349
20
-57.3429
11
89.1917
21
-57.366
0
LINE
8
BLACK
6
CONTINUOUS
10
89.1917
20
-57.366
11
89.1448
21
-57.3802
0
LINE
8
BLACK
6
CONTINUOUS
10
89.1448
20
-57.3802
11
89.096
21
-57.385
0
LINE
8
BLACK
6
CONTINUOUS
10
89.096
20
-57.385
11
88.196
21
-57.385
0
LINE
8
BLACK
6
CONTINUOUS
10
88.196
20
-57.385
11
88.1472
21
-57.3802
0
LINE
8
BLACK
6
CONTINUOUS
10
88.1472
20
-57.3802
11
88.1003
21
-57.366
0
LINE
8
BLACK
6
CONTINUOUS
10
88.1003
20
-57.366
11
88.0571
21
-57.3429
0
LINE
8
BLACK
6
CONTINUOUS
10
88.0571
20
-57.3429
11
88.0192
21
-57.3118
0
LINE
8
BLACK
6
CONTINUOUS
10
88.0192
20
-57.3118
11
87.9881
21
-57.2739
0
LINE
8
BLACK
6
CONTINUOUS
10
87.9881
20
-57.2739
11
87.965
21
-57.2307
0
LINE
8
BLACK
6
CONTINUOUS
10
87.965
20
-57.2307
11
87.9508
21
-57.1838
0
LINE
8
BLACK
6
CONTINUOUS
10
87.9508
20
-57.1838
11
87.946
21
-57.135
0
LINE
8
BLACK
6
CONTINUOUS
10
87.946
20
-57.135
11
87.946
21
-56.435
0
LINE
8
BLACK
6
CONTINUOUS
10
87.946
20
-56.435
11
87.9508
21
-56.3862
0
LINE
8
BLACK
6
CONTINUOUS
10
87.9508
20
-56.3862
11
87.965
21
-56.3393
0
LINE
8
BLACK
6
CONTINUOUS
10
87.965
20
-56.3393
11
87.9881
21
-56.2961
0
LINE
8
BLACK
6
CONTINUOUS
10
87.9881
20
-56.2961
11
88.0192
21
-56.2582
0
LINE
8
BLACK
6
CONTINUOUS
10
88.0192
20
-56.2582
11
88.0571
21
-56.2271
0
LINE
8
BLACK
6
CONTINUOUS
10
88.0571
20
-56.2271
11
88.1003
21
-56.204
0
LINE
8
BLACK
6
CONTINUOUS
10
88.1003
20
-56.204
11
88.1472
21
-56.1898
0
LINE
8
BLACK
6
CONTINUOUS
10
88.1472
20
-56.1898
11
88.196
21
-56.185
0
LINE
8
BLACK
6
CONTINUOUS
10
88.196
20
-56.185
11
89.096
21
-56.185
0
LINE
8
BLACK
6
CONTINUOUS
10
89.096
20
-56.185
11
89.1448
21
-56.1898
0
LINE
8
BLACK
6
CONTINUOUS
10
101.083
20
-56.1898
11
101.13
21
-56.204
0
LINE
8
BLACK
6
CONTINUOUS
10
101.13
20
-56.204
11
101.173
21
-56.2271
0
LINE
8
BLACK
6
CONTINUOUS
10
101.173
20
-56.2271
11
101.211
21
-56.2582
0
LINE
8
BLACK
6
CONTINUOUS
10
101.211
20
-56.2582
11
101.242
21
-56.2961
0
LINE
8
BLACK
6
CONTINUOUS
10
101.242
20
-56.2961
11
101.265
21
-56.3393
0
LINE
8
BLACK
6
CONTINUOUS
10
101.265
20
-56.3393
11
101.279
21
-56.3862
0
LINE
8
BLACK
6
CONTINUOUS
10
101.279
20
-56.3862
11
101.284
21
-56.435
0
LINE
8
BLACK
6
CONTINUOUS
10
101.284
20
-56.435
11
101.284
21
-57.135
0
LINE
8
BLACK
6
CONTINUOUS
10
101.284
20
-57.135
11
101.279
21
-57.1838
0
LINE
8
BLACK
6
CONTINUOUS
10
101.279
20
-57.1838
11
101.265
21
-57.2307
0
LINE
8
BLACK
6
CONTINUOUS
10
101.265
20
-57.2307
11
101.242
21
-57.2739
0
LINE
8
BLACK
6
CONTINUOUS
10
101.242
20
-57.2739
11
101.211
21
-57.3118
0
LINE
8
BLACK
6
CONTINUOUS
10
101.211
20
-57.3118
11
101.173
21
-57.3429
0
LINE
8
BLACK
6
CONTINUOUS
10
101.173
20
-57.3429
11
101.13
21
-57.366
0
LINE
8
BLACK
6
CONTINUOUS
10
101.13
20
-57.366
11
101.083
21
-57.3802
0
LINE
8
BLACK
6
CONTINUOUS
10
101.083
20
-57.3802
11
101.034
21
-57.385
0
LINE
8
BLACK
6
CONTINUOUS
10
101.034
20
-57.385
11
100.134
21
-57.385
0
LINE
8
BLACK
6
CONTINUOUS
10
100.134
20
-57.385
11
100.085
21
-57.3802
0
LINE
8
BLACK
6
CONTINUOUS
10
100.085
20
-57.3802
11
100.038
21
-57.366
0
LINE
8
BLACK
6
CONTINUOUS
10
100.038
20
-57.366
11
99.9951
21
-57.3429
0
LINE
8
BLACK
6
CONTINUOUS
10
99.9951
20
-57.3429
11
99.9572
21
-57.3118
0
LINE
8
BLACK
6
CONTINUOUS
10
99.9572
20
-57.3118
11
99.9261
21
-57.2739
0
LINE
8
BLACK
6
CONTINUOUS
10
99.9261
20
-57.2739
11
99.903
21
-57.2307
0
LINE
8
BLACK
6
CONTINUOUS
10
99.903
20
-57.2307
11
99.8888
21
-57.1838
0
LINE
8
BLACK
6
CONTINUOUS
10
99.8888
20
-57.1838
11
99.884
21
-57.135
0
LINE
8
BLACK
6
CONTINUOUS
10
99.884
20
-57.135
11
99.884
21
-56.435
0
LINE
8
BLACK
6
CONTINUOUS
10
99.884
20
-56.435
11
99.8888
21
-56.3862
0
LINE
8
BLACK
6
CONTINUOUS
10
99.8888
20
-56.3862
11
99.903
21
-56.3393
0
LINE
8
BLACK
6
CONTINUOUS
10
99.903
20
-56.3393
11
99.9261
21
-56.2961
0
LINE
8
BLACK
6
CONTINUOUS
10
99.9261
20
-56.2961
11
99.9572
21
-56.2582
0
LINE
8
BLACK
6
CONTINUOUS
10
99.9572
20
-56.2582
11
99.9951
21
-56.2271
0
LINE
8
BLACK
6
CONTINUOUS
10
99.9951
20
-56.2271
11
100.038
21
-56.204
0
LINE
8
BLACK
6
CONTINUOUS
10
100.038
20
-56.204
11
100.085
21
-56.1898
0
LINE
8
BLACK
6
CONTINUOUS
10
100.085
20
-56.1898
11
100.134
21
-56.185
0
LINE
8
BLACK
6
CONTINUOUS
10
100.134
20
-56.185
11
101.034
21
-56.185
0
LINE
8
BLACK
6
CONTINUOUS
10
101.034
20
-56.185
11
101.083
21
-56.1898
0
LINE
8
BLACK
6
CONTINUOUS
10
120.793
20
-56.1648
11
120.84
21
-56.179
0
LINE
8
BLACK
6
CONTINUOUS
10
120.84
20
-56.179
11
120.883
21
-56.2021
0
LINE
8
BLACK
6
CONTINUOUS
10
120.883
20
-56.2021
11
120.921
21
-56.2332
0
LINE
8
BLACK
6
CONTINUOUS
10
120.921
20
-56.2332
11
120.952
21
-56.2711
0
LINE
8
BLACK
6
CONTINUOUS
10
120.952
20
-56.2711
11
120.975
21
-56.3143
0
LINE
8
BLACK
6
CONTINUOUS
10
120.975
20
-56.3143
11
120.989
21
-56.3612
0
LINE
8
BLACK
6
CONTINUOUS
10
120.989
20
-56.3612
11
120.994
21
-56.41
0
LINE
8
BLACK
6
CONTINUOUS
10
120.994
20
-56.41
11
120.994
21
-57.085
0
LINE
8
BLACK
6
CONTINUOUS
10
120.994
20
-57.085
11
120.989
21
-57.1338
0
LINE
8
BLACK
6
CONTINUOUS
10
120.989
20
-57.1338
11
120.975
21
-57.1807
0
LINE
8
BLACK
6
CONTINUOUS
10
120.975
20
-57.1807
11
120.952
21
-57.2239
0
LINE
8
BLACK
6
CONTINUOUS
10
120.952
20
-57.2239
11
120.921
21
-57.2618
0
LINE
8
BLACK
6
CONTINUOUS
10
120.921
20
-57.2618
11
120.883
21
-57.2929
0
LINE
8
BLACK
6
CONTINUOUS
10
120.883
20
-57.2929
11
120.84
21
-57.316
0
LINE
8
BLACK
6
CONTINUOUS
10
120.84
20
-57.316
11
120.793
21
-57.3302
0
LINE
8
BLACK
6
CONTINUOUS
10
120.793
20
-57.3302
11
120.744
21
-57.335
0
LINE
8
BLACK
6
CONTINUOUS
10
120.744
20
-57.335
11
119.794
21
-57.335
0
LINE
8
BLACK
6
CONTINUOUS
10
119.794
20
-57.335
11
119.745
21
-57.3302
0
LINE
8
BLACK
6
CONTINUOUS
10
119.745
20
-57.3302
11
119.698
21
-57.316
0
LINE
8
BLACK
6
CONTINUOUS
10
119.698
20
-57.316
11
119.655
21
-57.2929
0
LINE
8
BLACK
6
CONTINUOUS
10
119.655
20
-57.2929
11
119.617
21
-57.2618
0
LINE
8
BLACK
6
CONTINUOUS
10
119.617
20
-57.2618
11
119.586
21
-57.2239
0
LINE
8
BLACK
6
CONTINUOUS
10
119.586
20
-57.2239
11
119.563
21
-57.1807
0
LINE
8
BLACK
6
CONTINUOUS
10
119.563
20
-57.1807
11
119.549
21
-57.1338
0
LINE
8
BLACK
6
CONTINUOUS
10
119.549
20
-57.1338
11
119.544
21
-57.085
0
LINE
8
BLACK
6
CONTINUOUS
10
119.544
20
-57.085
11
119.544
21
-56.41
0
LINE
8
BLACK
6
CONTINUOUS
10
119.544
20
-56.41
11
119.549
21
-56.3612
0
LINE
8
BLACK
6
CONTINUOUS
10
119.549
20
-56.3612
11
119.563
21
-56.3143
0
LINE
8
BLACK
6
CONTINUOUS
10
119.563
20
-56.3143
11
119.586
21
-56.2711
0
LINE
8
BLACK
6
CONTINUOUS
10
119.586
20
-56.2711
11
119.617
21
-56.2332
0
LINE
8
BLACK
6
CONTINUOUS
10
119.617
20
-56.2332
11
119.655
21
-56.2021
0
LINE
8
BLACK
6
CONTINUOUS
10
119.655
20
-56.2021
11
119.698
21
-56.179
0
LINE
8
BLACK
6
CONTINUOUS
10
119.698
20
-56.179
11
119.745
21
-56.1648
0
LINE
8
BLACK
6
CONTINUOUS
10
119.745
20
-56.1648
11
119.794
21
-56.16
0
LINE
8
BLACK
6
CONTINUOUS
10
119.794
20
-56.16
11
120.744
21
-56.16
0
LINE
8
BLACK
6
CONTINUOUS
10
120.744
20
-56.16
11
120.793
21
-56.1648
0
LINE
8
BLACK
6
CONTINUOUS
10
129.193
20
-52.7718
11
129.24
21
-52.786
0
LINE
8
BLACK
6
CONTINUOUS
10
129.24
20
-52.786
11
129.283
21
-52.8091
0
LINE
8
BLACK
6
CONTINUOUS
10
129.283
20
-52.8091
11
129.321
21
-52.8402
0
LINE
8
BLACK
6
CONTINUOUS
10
129.321
20
-52.8402
11
129.352
21
-52.8781
0
LINE
8
BLACK
6
CONTINUOUS
10
129.352
20
-52.8781
11
129.375
21
-52.9213
0
LINE
8
BLACK
6
CONTINUOUS
10
129.375
20
-52.9213
11
129.389
21
-52.9682
0
LINE
8
BLACK
6
CONTINUOUS
10
129.389
20
-52.9682
11
129.394
21
-53.017
0
LINE
8
BLACK
6
CONTINUOUS
10
129.394
20
-53.017
11
129.394
21
-53.917
0
LINE
8
BLACK
6
CONTINUOUS
10
129.394
20
-53.917
11
129.389
21
-53.9658
0
LINE
8
BLACK
6
CONTINUOUS
10
129.389
20
-53.9658
11
129.375
21
-54.0127
0
LINE
8
BLACK
6
CONTINUOUS
10
129.375
20
-54.0127
11
129.352
21
-54.0559
0
LINE
8
BLACK
6
CONTINUOUS
10
129.352
20
-54.0559
11
129.321
21
-54.0938
0
LINE
8
BLACK
6
CONTINUOUS
10
129.321
20
-54.0938
11
129.283
21
-54.1249
0
LINE
8
BLACK
6
CONTINUOUS
10
129.283
20
-54.1249
11
129.24
21
-54.148
0
LINE
8
BLACK
6
CONTINUOUS
10
129.24
20
-54.148
11
129.193
21
-54.1622
0
LINE
8
BLACK
6
CONTINUOUS
10
129.193
20
-54.1622
11
129.144
21
-54.167
0
LINE
8
BLACK
6
CONTINUOUS
10
129.144
20
-54.167
11
128.444
21
-54.167
0
LINE
8
BLACK
6
CONTINUOUS
10
128.444
20
-54.167
11
128.395
21
-54.1622
0
LINE
8
BLACK
6
CONTINUOUS
10
128.395
20
-54.1622
11
128.348
21
-54.148
0
LINE
8
BLACK
6
CONTINUOUS
10
128.348
20
-54.148
11
128.305
21
-54.1249
0
LINE
8
BLACK
6
CONTINUOUS
10
128.305
20
-54.1249
11
128.267
21
-54.0938
0
LINE
8
BLACK
6
CONTINUOUS
10
128.267
20
-54.0938
11
128.236
21
-54.0559
0
LINE
8
BLACK
6
CONTINUOUS
10
128.236
20
-54.0559
11
128.213
21
-54.0127
0
LINE
8
BLACK
6
CONTINUOUS
10
128.213
20
-54.0127
11
128.199
21
-53.9658
0
LINE
8
BLACK
6
CONTINUOUS
10
128.199
20
-53.9658
11
128.194
21
-53.917
0
LINE
8
BLACK
6
CONTINUOUS
10
128.194
20
-53.917
11
128.194
21
-53.017
0
LINE
8
BLACK
6
CONTINUOUS
10
128.194
20
-53.017
11
128.199
21
-52.9682
0
LINE
8
BLACK
6
CONTINUOUS
10
128.199
20
-52.9682
11
128.213
21
-52.9213
0
LINE
8
BLACK
6
CONTINUOUS
10
128.213
20
-52.9213
11
128.236
21
-52.8781
0
LINE
8
BLACK
6
CONTINUOUS
10
128.236
20
-52.8781
11
128.267
21
-52.8402
0
LINE
8
BLACK
6
CONTINUOUS
10
128.267
20
-52.8402
11
128.305
21
-52.8091
0
LINE
8
BLACK
6
CONTINUOUS
10
128.305
20
-52.8091
11
128.348
21
-52.786
0
LINE
8
BLACK
6
CONTINUOUS
10
128.348
20
-52.786
11
128.395
21
-52.7718
0
LINE
8
BLACK
6
CONTINUOUS
10
128.395
20
-52.7718
11
128.444
21
-52.767
0
LINE
8
BLACK
6
CONTINUOUS
10
128.444
20
-52.767
11
129.144
21
-52.767
0
LINE
8
BLACK
6
CONTINUOUS
10
129.144
20
-52.767
11
129.193
21
-52.7718
0
LINE
8
BLACK
6
CONTINUOUS
10
131.193
20
-52.7718
11
131.24
21
-52.786
0
LINE
8
BLACK
6
CONTINUOUS
10
131.24
20
-52.786
11
131.283
21
-52.8091
0
LINE
8
BLACK
6
CONTINUOUS
10
131.283
20
-52.8091
11
131.321
21
-52.8402
0
LINE
8
BLACK
6
CONTINUOUS
10
131.321
20
-52.8402
11
131.352
21
-52.8781
0
LINE
8
BLACK
6
CONTINUOUS
10
131.352
20
-52.8781
11
131.375
21
-52.9213
0
LINE
8
BLACK
6
CONTINUOUS
10
131.375
20
-52.9213
11
131.389
21
-52.9682
0
LINE
8
BLACK
6
CONTINUOUS
10
131.389
20
-52.9682
11
131.394
21
-53.017
0
LINE
8
BLACK
6
CONTINUOUS
10
131.394
20
-53.017
11
131.394
21
-53.917
0
LINE
8
BLACK
6
CONTINUOUS
10
131.394
20
-53.917
11
131.389
21
-53.9658
0
LINE
8
BLACK
6
CONTINUOUS
10
131.389
20
-53.9658
11
131.375
21
-54.0127
0
LINE
8
BLACK
6
CONTINUOUS
10
131.375
20
-54.0127
11
131.352
21
-54.0559
0
LINE
8
BLACK
6
CONTINUOUS
10
131.352
20
-54.0559
11
131.321
21
-54.0938
0
LINE
8
BLACK
6
CONTINUOUS
10
131.321
20
-54.0938
11
131.283
21
-54.1249
0
LINE
8
BLACK
6
CONTINUOUS
10
131.283
20
-54.1249
11
131.24
21
-54.148
0
LINE
8
BLACK
6
CONTINUOUS
10
131.24
20
-54.148
11
131.193
21
-54.1622
0
LINE
8
BLACK
6
CONTINUOUS
10
131.193
20
-54.1622
11
131.144
21
-54.167
0
LINE
8
BLACK
6
CONTINUOUS
10
131.144
20
-54.167
11
130.444
21
-54.167
0
LINE
8
BLACK
6
CONTINUOUS
10
130.444
20
-54.167
11
130.395
21
-54.1622
0
LINE
8
BLACK
6
CONTINUOUS
10
130.395
20
-54.1622
11
130.348
21
-54.148
0
LINE
8
BLACK
6
CONTINUOUS
10
130.348
20
-54.148
11
130.305
21
-54.1249
0
LINE
8
BLACK
6
CONTINUOUS
10
130.305
20
-54.1249
11
130.267
21
-54.0938
0
LINE
8
BLACK
6
CONTINUOUS
10
130.267
20
-54.0938
11
130.236
21
-54.0559
0
LINE
8
BLACK
6
CONTINUOUS
10
130.236
20
-54.0559
11
130.213
21
-54.0127
0
LINE
8
BLACK
6
CONTINUOUS
10
130.213
20
-54.0127
11
130.199
21
-53.9658
0
LINE
8
BLACK
6
CONTINUOUS
10
130.199
20
-53.9658
11
130.194
21
-53.917
0
LINE
8
BLACK
6
CONTINUOUS
10
130.194
20
-53.917
11
130.194
21
-53.017
0
LINE
8
BLACK
6
CONTINUOUS
10
130.194
20
-53.017
11
130.199
21
-52.9682
0
LINE
8
BLACK
6
CONTINUOUS
10
130.199
20
-52.9682
11
130.213
21
-52.9213
0
LINE
8
BLACK
6
CONTINUOUS
10
130.213
20
-52.9213
11
130.236
21
-52.8781
0
LINE
8
BLACK
6
CONTINUOUS
10
130.236
20
-52.8781
11
130.267
21
-52.8402
0
LINE
8
BLACK
6
CONTINUOUS
10
130.267
20
-52.8402
11
130.305
21
-52.8091
0
LINE
8
BLACK
6
CONTINUOUS
10
130.305
20
-52.8091
11
130.348
21
-52.786
0
LINE
8
BLACK
6
CONTINUOUS
10
130.348
20
-52.786
11
130.395
21
-52.7718
0
LINE
8
BLACK
6
CONTINUOUS
10
130.395
20
-52.7718
11
130.444
21
-52.767
0
LINE
8
BLACK
6
CONTINUOUS
10
130.444
20
-52.767
11
131.144
21
-52.767
0
LINE
8
BLACK
6
CONTINUOUS
10
131.144
20
-52.767
11
131.193
21
-52.7718
  0
ENDSEC
  0
EOF
