M48
; DRILL file {KiCad (5.1.9)-1} date 12/04/21 16:06:38
; FORMAT={-:-/ absolute / inch / decimal}
; #@! TF.CreationDate,2021-12-04T16:06:38+00:00
; #@! TF.GenerationSoftware,Kicad,Pcbnew,(5.1.9)-1
; #@! TF.FileFunction,Plated,1,2,PTH
FMAT,2
INCH
T1C0.0157
T2C0.0197
T3C0.0394
T4C0.0512
T5C0.0984
%
G90
G05
T1
X2.836Y-2.941
X2.936Y-3.006
X3.03Y-3.92
X3.075Y-2.4
X3.085Y-3.08
X3.085Y-5.55
X3.085Y-5.64
X3.085Y-5.36
X3.085Y-5.455
X3.105Y-3.97
X3.18Y-4.04
X3.185Y-3.195
X3.235Y-3.65
X3.235Y-3.38
X3.236Y-3.146
X3.29Y-3.555
X3.315Y-3.855
X3.335Y-3.59
X3.36Y-3.205
X3.36Y-3.735
X3.385Y-5.55
X3.385Y-5.64
X3.405Y-3.855
X3.415Y-3.73
X3.423Y-3.683
X3.436Y-3.146
X3.461Y-3.746
X3.49Y-3.195
X3.495Y-3.84
X3.505Y-3.395
X3.52Y-3.49
X3.5571Y-3.449
X3.585Y-3.0
X3.59Y-3.315
X3.61Y-3.62
X3.6275Y-3.8475
X3.63Y-3.405
X3.636Y-3.071
X3.64Y-4.065
X3.64Y-4.16
X3.6611Y-3.37
X3.675Y-3.97
X3.72Y-3.78
X3.72Y-4.22
X3.735Y-2.775
X3.755Y-4.005
X3.785Y-3.4
X3.785Y-3.855
X3.815Y-3.57
X3.83Y-3.25
X3.83Y-3.335
X3.845Y-3.4
X3.85Y-3.62
X3.87Y-3.68
X3.88Y-3.835
X3.89Y-3.09
X3.91Y-3.16
X3.9108Y-3.51
X3.925Y-4.07
X3.925Y-4.16
X3.96Y-3.78
X3.977Y-3.293
X4.02Y-3.11
X4.02Y-4.22
X4.025Y-3.325
X4.065Y-3.275
X4.08Y-3.62
X4.095Y-3.555
X4.115Y-3.31
X4.12Y-3.81
X4.17Y-3.275
X4.175Y-3.83
X4.185Y-3.005
X4.195Y-3.125
X4.23Y-3.33
X4.23Y-3.555
X4.265Y-3.83
X4.2975Y-3.7475
X4.3695Y-3.5255
X4.4Y-3.115
X4.435Y-2.92
X4.4524Y-3.9074
X4.482Y-5.64
X4.4825Y-5.55
X4.49Y-3.75
X4.54Y-2.955
X4.54Y-3.68
X4.61Y-3.63
X4.615Y-2.96
X4.645Y-3.515
X4.67Y-3.485
X4.67Y-3.81
X4.6772Y-3.1228
X4.685Y-3.205
X4.735Y-2.39
X4.74Y-3.515
X4.74Y-3.595
X4.74Y-3.635
X4.865Y-3.515
X4.865Y-3.595
X4.865Y-3.635
X4.87Y-2.835
X4.87Y-2.88
X4.87Y-3.72
X4.87Y-3.765
X4.875Y-3.0441
X4.925Y-2.835
X4.925Y-2.88
X4.925Y-3.72
X4.925Y-3.765
T2
X2.5622Y-1.73
X2.5622Y-2.63
X2.5838Y-1.6778
X2.5838Y-1.7822
X2.5838Y-2.5778
X2.5838Y-2.6822
X2.636Y-1.6562
X2.636Y-1.8038
X2.636Y-2.5562
X2.636Y-2.7038
X2.6882Y-1.6778
X2.6882Y-1.7822
X2.6882Y-2.5778
X2.6882Y-2.6822
X2.7098Y-1.73
X2.7098Y-2.63
X4.8622Y-1.73
X4.8622Y-2.63
X4.8838Y-1.6778
X4.8838Y-1.7822
X4.8838Y-2.5778
X4.8838Y-2.6822
X4.936Y-1.6562
X4.936Y-1.8038
X4.936Y-2.5562
X4.936Y-2.7038
X4.9882Y-1.6778
X4.9882Y-1.7822
X4.9882Y-2.5778
X4.9882Y-2.6822
X5.0098Y-1.73
X5.0098Y-2.63
T3
X2.836Y-2.58
X2.836Y-2.68
X2.8754Y-1.71
X2.915Y-2.1
X2.936Y-2.58
X2.936Y-2.68
X3.015Y-2.1
X3.036Y-2.58
X3.036Y-2.68
X3.0546Y-1.71
X3.136Y-2.58
X3.136Y-2.68
X3.236Y-2.58
X3.236Y-2.68
X3.336Y-2.58
X3.336Y-2.68
X3.3464Y-1.71
X3.39Y-2.1
X3.436Y-2.58
X3.436Y-2.68
X3.49Y-2.1
X3.521Y-4.403
X3.5256Y-1.71
X3.536Y-2.58
X3.536Y-2.68
X3.621Y-4.403
X3.636Y-2.58
X3.636Y-2.68
X3.721Y-4.403
X3.736Y-2.58
X3.736Y-2.68
X3.8154Y-1.71
X3.821Y-4.403
X3.836Y-2.58
X3.836Y-2.68
X3.86Y-2.1
X3.921Y-4.403
X3.936Y-2.58
X3.936Y-2.68
X3.96Y-2.1
X3.9946Y-1.71
X4.021Y-4.403
X4.036Y-2.58
X4.036Y-2.68
X4.136Y-2.58
X4.136Y-2.68
X4.236Y-2.58
X4.236Y-2.68
X4.3Y-3.005
X4.336Y-2.58
X4.336Y-2.68
X4.375Y-2.105
X4.4Y-3.005
X4.425Y-1.895
X4.436Y-2.58
X4.436Y-2.68
X4.475Y-2.105
X4.525Y-1.895
X4.536Y-2.58
X4.536Y-2.68
X4.625Y-1.895
X4.636Y-2.58
X4.636Y-2.68
X4.675Y-2.105
X4.725Y-1.895
X4.736Y-2.58
X4.736Y-2.68
X4.775Y-2.105
T4
X2.8272Y-1.8084
X3.1028Y-1.8084
X3.2982Y-1.8084
X3.5738Y-1.8084
X3.7672Y-1.8084
X4.0428Y-1.8084
T5
X2.636Y-1.73
X2.636Y-2.63
X4.936Y-1.73
X4.936Y-2.63
T0
M30
