  0
SECTION
  2
HEADER
  9
$ANGBASE
  50
0.0
  9
$ANGDIR
  70
1
  9
$MEASUREMENT
  70
1
  0
ENDSEC
  0
SECTION
  2
TABLES
  0
TABLE
  2
LTYPE
  70
4
  0
LTYPE
  5
40F
  2
CONTINUOUS
  70
0
  3
Solid line
  72
65
  73
0
  40
0.0
  0
LTYPE
  5
410
  2
DASHDOT
 70
0
  3
Dash Dot ____ _ ____ _
 72
65
 73
4
 40
2.0
 49
1.25
 49
-0.25
 49
0.25
 49
-0.25
  0
LTYPE
  5
411
  2
DASHED
 70
0
  3
Dashed __ __ __ __ __
 72
65
 73
2
 40
0.75
 49
0.5
 49
-0.25
  0
LTYPE
  5
43B
  2
DOTTED
 70
0
  3
Dotted .  .  .  .
 72
65
 73
2
 40
0.2
 49
0.0
 49
-0.2
  0
ENDTAB
  0
TABLE
  2
STYLE
  70
4
  0
STYLE
  2
KICAD
  70
0
  40
0
  41
1
  42
1
  50
0
  71
0
  3
isocp.shx
  0
STYLE
  2
KICADB
  70
0
  40
0
  41
1
  42
1
  50
0
  71
0
  3
isocp.shx
  0
STYLE
  2
KICADI
  70
0
  40
0
  41
1
  42
1
  50
15
  71
0
  3
isocp.shx
  0
STYLE
  2
KICADBI
  70
0
  40
0
  41
1
  42
1
  50
15
  71
0
  3
isocp.shx
  0
ENDTAB
  0
TABLE
  2
LAYER
  70
1
  0
LAYER
  2
BLACK
  70
0
  62
7
  6
CONTINUOUS
  0
ENDTAB
  0
ENDSEC
  0
SECTION
  2
ENTITIES
0
LINE
8
BLACK
6
CONTINUOUS
10
57.3165
20
-37.6178
11
63.0167
21
-37.6178
0
LINE
8
BLACK
6
CONTINUOUS
10
63.0167
20
-37.6178
11
63.0183
21
-37.6177
0
LINE
8
BLACK
6
CONTINUOUS
10
63.0183
20
-37.6177
11
63.0203
21
-37.618
0
LINE
8
BLACK
6
CONTINUOUS
10
63.0203
20
-37.618
11
63.0223
21
-37.6182
0
LINE
8
BLACK
6
CONTINUOUS
10
63.0223
20
-37.6182
11
63.0227
21
-37.6183
0
LINE
8
BLACK
6
CONTINUOUS
10
63.0227
20
-37.6183
11
63.0232
21
-37.6184
0
LINE
8
BLACK
6
CONTINUOUS
10
63.0232
20
-37.6184
11
63.0251
21
-37.619
0
LINE
8
BLACK
6
CONTINUOUS
10
63.0251
20
-37.619
11
63.027
21
-37.6196
0
LINE
8
BLACK
6
CONTINUOUS
10
63.027
20
-37.6196
11
63.0274
21
-37.6198
0
LINE
8
BLACK
6
CONTINUOUS
10
63.0274
20
-37.6198
11
63.0279
21
-37.62
0
LINE
8
BLACK
6
CONTINUOUS
10
63.0279
20
-37.62
11
63.0296
21
-37.621
0
LINE
8
BLACK
6
CONTINUOUS
10
63.0296
20
-37.621
11
63.0314
21
-37.6219
0
LINE
8
BLACK
6
CONTINUOUS
10
63.0314
20
-37.6219
11
63.0317
21
-37.6222
0
LINE
8
BLACK
6
CONTINUOUS
10
63.0317
20
-37.6222
11
63.0321
21
-37.6225
0
LINE
8
BLACK
6
CONTINUOUS
10
63.0321
20
-37.6225
11
63.0336
21
-37.6238
0
LINE
8
BLACK
6
CONTINUOUS
10
63.0336
20
-37.6238
11
63.0352
21
-37.625
0
LINE
8
BLACK
6
CONTINUOUS
10
63.0352
20
-37.625
11
63.0355
21
-37.6254
0
LINE
8
BLACK
6
CONTINUOUS
10
63.0355
20
-37.6254
11
63.0358
21
-37.6257
0
LINE
8
BLACK
6
CONTINUOUS
10
63.0358
20
-37.6257
11
63.037
21
-37.6273
0
LINE
8
BLACK
6
CONTINUOUS
10
63.037
20
-37.6273
11
63.0383
21
-37.6288
0
LINE
8
BLACK
6
CONTINUOUS
10
63.0383
20
-37.6288
11
63.0391
21
-37.6303
0
LINE
8
BLACK
6
CONTINUOUS
10
63.0391
20
-37.6303
11
63.241
21
-37.9585
0
LINE
8
BLACK
6
CONTINUOUS
10
63.241
20
-37.9585
11
63.2415
21
-37.959
0
LINE
8
BLACK
6
CONTINUOUS
10
63.2415
20
-37.959
11
63.2423
21
-37.9605
0
LINE
8
BLACK
6
CONTINUOUS
10
63.2423
20
-37.9605
11
63.2425
21
-37.9609
0
LINE
8
BLACK
6
CONTINUOUS
10
63.2425
20
-37.9609
11
63.2429
21
-37.9616
0
LINE
8
BLACK
6
CONTINUOUS
10
63.2429
20
-37.9616
11
63.2438
21
-37.9634
0
LINE
8
BLACK
6
CONTINUOUS
10
63.2438
20
-37.9634
11
63.2439
21
-37.9638
0
LINE
8
BLACK
6
CONTINUOUS
10
63.2439
20
-37.9638
11
63.2441
21
-37.9643
0
LINE
8
BLACK
6
CONTINUOUS
10
63.2441
20
-37.9643
11
63.2447
21
-37.9662
0
LINE
8
BLACK
6
CONTINUOUS
10
63.2447
20
-37.9662
11
63.2452
21
-37.9681
0
LINE
8
BLACK
6
CONTINUOUS
10
63.2452
20
-37.9681
11
63.2453
21
-37.9686
0
LINE
8
BLACK
6
CONTINUOUS
10
63.2453
20
-37.9686
11
63.2454
21
-37.969
0
LINE
8
BLACK
6
CONTINUOUS
10
63.2454
20
-37.969
11
63.2455
21
-37.971
0
LINE
8
BLACK
6
CONTINUOUS
10
63.2455
20
-37.971
11
63.2456
21
-37.9718
0
LINE
8
BLACK
6
CONTINUOUS
10
63.2456
20
-37.9718
11
63.2456
21
-37.9723
0
LINE
8
BLACK
6
CONTINUOUS
10
63.2456
20
-37.9723
11
63.2457
21
-37.9739
0
LINE
8
BLACK
6
CONTINUOUS
10
63.2457
20
-37.9739
11
63.2456
21
-37.9747
0
LINE
8
BLACK
6
CONTINUOUS
10
63.2456
20
-37.9747
11
63.2456
21
-39.218
0
LINE
8
BLACK
6
CONTINUOUS
10
63.2456
20
-39.218
11
129.032
21
-39.218
0
LINE
8
BLACK
6
CONTINUOUS
10
129.032
20
-39.218
11
129.032
21
-38.1003
0
LINE
8
BLACK
6
CONTINUOUS
10
129.032
20
-38.1003
11
129.032
21
-38.0982
0
LINE
8
BLACK
6
CONTINUOUS
10
129.032
20
-38.0982
11
129.033
21
-38.0966
0
LINE
8
BLACK
6
CONTINUOUS
10
129.033
20
-38.0966
11
129.033
21
-38.0951
0
LINE
8
BLACK
6
CONTINUOUS
10
129.033
20
-38.0951
11
129.033
21
-38.0942
0
LINE
8
BLACK
6
CONTINUOUS
10
129.033
20
-38.0942
11
129.033
21
-38.0933
0
LINE
8
BLACK
6
CONTINUOUS
10
129.033
20
-38.0933
11
129.034
21
-38.0919
0
LINE
8
BLACK
6
CONTINUOUS
10
129.034
20
-38.0919
11
129.034
21
-38.0904
0
LINE
8
BLACK
6
CONTINUOUS
10
129.034
20
-38.0904
11
129.035
21
-38.0896
0
LINE
8
BLACK
6
CONTINUOUS
10
129.035
20
-38.0896
11
129.035
21
-38.0887
0
LINE
8
BLACK
6
CONTINUOUS
10
129.035
20
-38.0887
11
129.036
21
-38.0874
0
LINE
8
BLACK
6
CONTINUOUS
10
129.036
20
-38.0874
11
129.037
21
-38.086
0
LINE
8
BLACK
6
CONTINUOUS
10
129.037
20
-38.086
11
129.038
21
-38.0844
0
LINE
8
BLACK
6
CONTINUOUS
10
129.038
20
-38.0844
11
129.392
21
-37.6291
0
LINE
8
BLACK
6
CONTINUOUS
10
129.392
20
-37.6291
11
129.392
21
-37.6288
0
LINE
8
BLACK
6
CONTINUOUS
10
129.392
20
-37.6288
11
129.393
21
-37.6272
0
LINE
8
BLACK
6
CONTINUOUS
10
129.393
20
-37.6272
11
129.394
21
-37.6265
0
LINE
8
BLACK
6
CONTINUOUS
10
129.394
20
-37.6265
11
129.394
21
-37.6263
0
LINE
8
BLACK
6
CONTINUOUS
10
129.394
20
-37.6263
11
129.395
21
-37.625
0
LINE
8
BLACK
6
CONTINUOUS
10
129.395
20
-37.625
11
129.396
21
-37.6245
0
LINE
8
BLACK
6
CONTINUOUS
10
129.396
20
-37.6245
11
129.397
21
-37.6238
0
LINE
8
BLACK
6
CONTINUOUS
10
129.397
20
-37.6238
11
129.398
21
-37.6229
0
LINE
8
BLACK
6
CONTINUOUS
10
129.398
20
-37.6229
11
129.399
21
-37.6219
0
LINE
8
BLACK
6
CONTINUOUS
10
129.399
20
-37.6219
11
129.4
21
-37.6215
0
LINE
8
BLACK
6
CONTINUOUS
10
129.4
20
-37.6215
11
129.401
21
-37.621
0
LINE
8
BLACK
6
CONTINUOUS
10
129.401
20
-37.621
11
129.402
21
-37.6203
0
LINE
8
BLACK
6
CONTINUOUS
10
129.402
20
-37.6203
11
129.403
21
-37.6196
0
LINE
8
BLACK
6
CONTINUOUS
10
129.403
20
-37.6196
11
129.404
21
-37.6193
0
LINE
8
BLACK
6
CONTINUOUS
10
129.404
20
-37.6193
11
129.405
21
-37.619
0
LINE
8
BLACK
6
CONTINUOUS
10
129.405
20
-37.619
11
129.407
21
-37.6186
0
LINE
8
BLACK
6
CONTINUOUS
10
129.407
20
-37.6186
11
129.408
21
-37.6182
0
LINE
8
BLACK
6
CONTINUOUS
10
129.408
20
-37.6182
11
129.409
21
-37.6181
0
LINE
8
BLACK
6
CONTINUOUS
10
129.409
20
-37.6181
11
129.41
21
-37.6179
0
LINE
8
BLACK
6
CONTINUOUS
10
129.41
20
-37.6179
11
129.411
21
-37.6178
0
LINE
8
BLACK
6
CONTINUOUS
10
129.411
20
-37.6178
11
129.412
21
-37.6178
0
LINE
8
BLACK
6
CONTINUOUS
10
129.412
20
-37.6178
11
129.413
21
-37.6178
0
LINE
8
BLACK
6
CONTINUOUS
10
129.413
20
-37.6178
11
129.415
21
-37.6177
0
LINE
8
BLACK
6
CONTINUOUS
10
129.415
20
-37.6177
11
129.415
21
-37.6178
0
LINE
8
BLACK
6
CONTINUOUS
10
129.415
20
-37.6178
11
134.872
21
-37.6178
0
LINE
8
BLACK
6
CONTINUOUS
10
134.872
20
-37.6178
11
134.873
21
-37.6177
0
LINE
8
BLACK
6
CONTINUOUS
10
134.873
20
-37.6177
11
134.875
21
-37.6178
0
LINE
8
BLACK
6
CONTINUOUS
10
134.875
20
-37.6178
11
134.875
21
-37.6178
0
LINE
8
BLACK
6
CONTINUOUS
10
134.875
20
-37.6178
11
134.876
21
-37.6179
0
LINE
8
BLACK
6
CONTINUOUS
10
134.876
20
-37.6179
11
134.878
21
-37.6179
0
LINE
8
BLACK
6
CONTINUOUS
10
134.878
20
-37.6179
11
134.878
21
-37.6181
0
LINE
8
BLACK
6
CONTINUOUS
10
134.878
20
-37.6181
11
134.879
21
-37.6182
0
LINE
8
BLACK
6
CONTINUOUS
10
134.879
20
-37.6182
11
134.881
21
-37.6187
0
LINE
8
BLACK
6
CONTINUOUS
10
134.881
20
-37.6187
11
134.882
21
-37.6191
0
LINE
8
BLACK
6
CONTINUOUS
10
134.882
20
-37.6191
11
134.883
21
-37.6194
0
LINE
8
BLACK
6
CONTINUOUS
10
134.883
20
-37.6194
11
134.884
21
-37.6196
0
LINE
8
BLACK
6
CONTINUOUS
10
134.884
20
-37.6196
11
134.885
21
-37.6204
0
LINE
8
BLACK
6
CONTINUOUS
10
134.885
20
-37.6204
11
134.887
21
-37.6212
0
LINE
8
BLACK
6
CONTINUOUS
10
134.887
20
-37.6212
11
134.887
21
-37.6216
0
LINE
8
BLACK
6
CONTINUOUS
10
134.887
20
-37.6216
11
134.888
21
-37.6219
0
LINE
8
BLACK
6
CONTINUOUS
10
134.888
20
-37.6219
11
134.889
21
-37.6231
0
LINE
8
BLACK
6
CONTINUOUS
10
134.889
20
-37.6231
11
134.891
21
-37.6241
0
LINE
8
BLACK
6
CONTINUOUS
10
134.891
20
-37.6241
11
134.891
21
-37.6246
0
LINE
8
BLACK
6
CONTINUOUS
10
134.891
20
-37.6246
11
134.892
21
-37.625
0
LINE
8
BLACK
6
CONTINUOUS
10
134.892
20
-37.625
11
134.893
21
-37.6264
0
LINE
8
BLACK
6
CONTINUOUS
10
134.893
20
-37.6264
11
134.893
21
-37.6268
0
LINE
8
BLACK
6
CONTINUOUS
10
134.893
20
-37.6268
11
134.894
21
-37.6274
0
LINE
8
BLACK
6
CONTINUOUS
10
134.894
20
-37.6274
11
134.895
21
-37.6288
0
LINE
8
BLACK
6
CONTINUOUS
10
134.895
20
-37.6288
11
134.895
21
-37.6293
0
LINE
8
BLACK
6
CONTINUOUS
10
134.895
20
-37.6293
11
135.237
21
-38.0846
0
LINE
8
BLACK
6
CONTINUOUS
10
135.237
20
-38.0846
11
135.238
21
-38.086
0
LINE
8
BLACK
6
CONTINUOUS
10
135.238
20
-38.086
11
135.239
21
-38.0876
0
LINE
8
BLACK
6
CONTINUOUS
10
135.239
20
-38.0876
11
135.24
21
-38.0891
0
LINE
8
BLACK
6
CONTINUOUS
10
135.24
20
-38.0891
11
135.24
21
-38.0898
0
LINE
8
BLACK
6
CONTINUOUS
10
135.24
20
-38.0898
11
135.24
21
-38.0904
0
LINE
8
BLACK
6
CONTINUOUS
10
135.24
20
-38.0904
11
135.241
21
-38.0921
0
LINE
8
BLACK
6
CONTINUOUS
10
135.241
20
-38.0921
11
135.241
21
-38.0938
0
LINE
8
BLACK
6
CONTINUOUS
10
135.241
20
-38.0938
11
135.241
21
-38.0944
0
LINE
8
BLACK
6
CONTINUOUS
10
135.241
20
-38.0944
11
135.242
21
-38.0951
0
LINE
8
BLACK
6
CONTINUOUS
10
135.242
20
-38.0951
11
135.242
21
-38.0969
0
LINE
8
BLACK
6
CONTINUOUS
10
135.242
20
-38.0969
11
135.242
21
-38.0986
0
LINE
8
BLACK
6
CONTINUOUS
10
135.242
20
-38.0986
11
135.242
21
-38.1005
0
LINE
8
BLACK
6
CONTINUOUS
10
135.242
20
-38.1005
11
135.242
21
-39.218
0
LINE
8
BLACK
6
CONTINUOUS
10
135.242
20
-39.218
11
141.223
21
-39.218
0
LINE
8
BLACK
6
CONTINUOUS
10
141.223
20
-39.218
11
141.224
21
-39.2179
0
LINE
8
BLACK
6
CONTINUOUS
10
141.224
20
-39.2179
11
141.225
21
-39.218
0
LINE
8
BLACK
6
CONTINUOUS
10
141.225
20
-39.218
11
141.225
21
-39.218
0
LINE
8
BLACK
6
CONTINUOUS
10
141.225
20
-39.218
11
141.229
21
-39.2184
0
LINE
8
BLACK
6
CONTINUOUS
10
141.229
20
-39.2184
11
141.234
21
-39.2198
0
LINE
8
BLACK
6
CONTINUOUS
10
141.234
20
-39.2198
11
141.238
21
-39.2221
0
LINE
8
BLACK
6
CONTINUOUS
10
141.238
20
-39.2221
11
141.242
21
-39.2252
0
LINE
8
BLACK
6
CONTINUOUS
10
141.242
20
-39.2252
11
141.243
21
-39.2262
0
LINE
8
BLACK
6
CONTINUOUS
10
141.243
20
-39.2262
11
143.146
21
-41.1295
0
LINE
8
BLACK
6
CONTINUOUS
10
143.146
20
-41.1295
11
143.147
21
-41.1302
0
LINE
8
BLACK
6
CONTINUOUS
10
143.147
20
-41.1302
11
143.15
21
-41.134
0
LINE
8
BLACK
6
CONTINUOUS
10
143.15
20
-41.134
11
143.151
21
-41.1369
0
LINE
8
BLACK
6
CONTINUOUS
10
143.151
20
-41.1369
11
143.152
21
-41.1384
0
LINE
8
BLACK
6
CONTINUOUS
10
143.152
20
-41.1384
11
143.152
21
-41.1384
0
LINE
8
BLACK
6
CONTINUOUS
10
143.152
20
-41.1384
11
143.154
21
-41.1431
0
LINE
8
BLACK
6
CONTINUOUS
10
143.154
20
-41.1431
11
143.154
21
-41.1468
0
LINE
8
BLACK
6
CONTINUOUS
10
143.154
20
-41.1468
11
143.154
21
-41.148
0
LINE
8
BLACK
6
CONTINUOUS
10
143.154
20
-41.148
11
143.154
21
-41.1492
0
LINE
8
BLACK
6
CONTINUOUS
10
143.154
20
-41.1492
11
143.154
21
-147.344
0
LINE
8
BLACK
6
CONTINUOUS
10
143.154
20
-147.344
11
143.154
21
-147.345
0
LINE
8
BLACK
6
CONTINUOUS
10
143.154
20
-147.345
11
143.154
21
-147.347
0
LINE
8
BLACK
6
CONTINUOUS
10
143.154
20
-147.347
11
143.154
21
-147.35
0
LINE
8
BLACK
6
CONTINUOUS
10
143.154
20
-147.35
11
143.154
21
-147.35
0
LINE
8
BLACK
6
CONTINUOUS
10
143.154
20
-147.35
11
143.152
21
-147.355
0
LINE
8
BLACK
6
CONTINUOUS
10
143.152
20
-147.355
11
143.151
21
-147.357
0
LINE
8
BLACK
6
CONTINUOUS
10
143.151
20
-147.357
11
143.15
21
-147.359
0
LINE
8
BLACK
6
CONTINUOUS
10
143.15
20
-147.359
11
143.147
21
-147.363
0
LINE
8
BLACK
6
CONTINUOUS
10
143.147
20
-147.363
11
143.146
21
-147.364
0
LINE
8
BLACK
6
CONTINUOUS
10
143.146
20
-147.364
11
141.243
21
-149.267
0
LINE
8
BLACK
6
CONTINUOUS
10
141.243
20
-149.267
11
141.242
21
-149.268
0
LINE
8
BLACK
6
CONTINUOUS
10
141.242
20
-149.268
11
141.238
21
-149.271
0
LINE
8
BLACK
6
CONTINUOUS
10
141.238
20
-149.271
11
141.234
21
-149.274
0
LINE
8
BLACK
6
CONTINUOUS
10
141.234
20
-149.274
11
141.229
21
-149.275
0
LINE
8
BLACK
6
CONTINUOUS
10
141.229
20
-149.275
11
141.225
21
-149.275
0
LINE
8
BLACK
6
CONTINUOUS
10
141.225
20
-149.275
11
141.225
21
-149.275
0
LINE
8
BLACK
6
CONTINUOUS
10
141.225
20
-149.275
11
141.224
21
-149.276
0
LINE
8
BLACK
6
CONTINUOUS
10
141.224
20
-149.276
11
141.223
21
-149.275
0
LINE
8
BLACK
6
CONTINUOUS
10
141.223
20
-149.275
11
116.154
21
-149.275
0
LINE
8
BLACK
6
CONTINUOUS
10
116.154
20
-149.275
11
116.154
21
-158.622
0
LINE
8
BLACK
6
CONTINUOUS
10
116.154
20
-158.622
11
116.154
21
-158.624
0
LINE
8
BLACK
6
CONTINUOUS
10
116.154
20
-158.624
11
116.154
21
-158.626
0
LINE
8
BLACK
6
CONTINUOUS
10
116.154
20
-158.626
11
116.153
21
-158.628
0
LINE
8
BLACK
6
CONTINUOUS
10
116.153
20
-158.628
11
116.153
21
-158.628
0
LINE
8
BLACK
6
CONTINUOUS
10
116.153
20
-158.628
11
116.153
21
-158.628
0
LINE
8
BLACK
6
CONTINUOUS
10
116.153
20
-158.628
11
116.153
21
-158.63
0
LINE
8
BLACK
6
CONTINUOUS
10
116.153
20
-158.63
11
116.152
21
-158.633
0
LINE
8
BLACK
6
CONTINUOUS
10
116.152
20
-158.633
11
116.152
21
-158.633
0
LINE
8
BLACK
6
CONTINUOUS
10
116.152
20
-158.633
11
116.152
21
-158.633
0
LINE
8
BLACK
6
CONTINUOUS
10
116.152
20
-158.633
11
116.151
21
-158.635
0
LINE
8
BLACK
6
CONTINUOUS
10
116.151
20
-158.635
11
116.15
21
-158.637
0
LINE
8
BLACK
6
CONTINUOUS
10
116.15
20
-158.637
11
116.15
21
-158.637
0
LINE
8
BLACK
6
CONTINUOUS
10
116.15
20
-158.637
11
116.149
21
-158.637
0
LINE
8
BLACK
6
CONTINUOUS
10
116.149
20
-158.637
11
116.148
21
-158.639
0
LINE
8
BLACK
6
CONTINUOUS
10
116.148
20
-158.639
11
116.147
21
-158.641
0
LINE
8
BLACK
6
CONTINUOUS
10
116.147
20
-158.641
11
116.145
21
-158.642
0
LINE
8
BLACK
6
CONTINUOUS
10
116.145
20
-158.642
11
115.512
21
-159.25
0
LINE
8
BLACK
6
CONTINUOUS
10
115.512
20
-159.25
11
115.512
21
-159.25
0
LINE
8
BLACK
6
CONTINUOUS
10
115.512
20
-159.25
11
115.51
21
-159.251
0
LINE
8
BLACK
6
CONTINUOUS
10
115.51
20
-159.251
11
115.51
21
-159.251
0
LINE
8
BLACK
6
CONTINUOUS
10
115.51
20
-159.251
11
115.51
21
-159.252
0
LINE
8
BLACK
6
CONTINUOUS
10
115.51
20
-159.252
11
115.508
21
-159.253
0
LINE
8
BLACK
6
CONTINUOUS
10
115.508
20
-159.253
11
115.508
21
-159.254
0
LINE
8
BLACK
6
CONTINUOUS
10
115.508
20
-159.254
11
115.507
21
-159.254
0
LINE
8
BLACK
6
CONTINUOUS
10
115.507
20
-159.254
11
115.505
21
-159.255
0
LINE
8
BLACK
6
CONTINUOUS
10
115.505
20
-159.255
11
115.503
21
-159.256
0
LINE
8
BLACK
6
CONTINUOUS
10
115.503
20
-159.256
11
115.503
21
-159.256
0
LINE
8
BLACK
6
CONTINUOUS
10
115.503
20
-159.256
11
115.503
21
-159.256
0
LINE
8
BLACK
6
CONTINUOUS
10
115.503
20
-159.256
11
115.501
21
-159.257
0
LINE
8
BLACK
6
CONTINUOUS
10
115.501
20
-159.257
11
115.499
21
-159.257
0
LINE
8
BLACK
6
CONTINUOUS
10
115.499
20
-159.257
11
115.498
21
-159.257
0
LINE
8
BLACK
6
CONTINUOUS
10
115.498
20
-159.257
11
115.498
21
-159.257
0
LINE
8
BLACK
6
CONTINUOUS
10
115.498
20
-159.257
11
115.496
21
-159.258
0
LINE
8
BLACK
6
CONTINUOUS
10
115.496
20
-159.258
11
115.495
21
-159.258
0
LINE
8
BLACK
6
CONTINUOUS
10
115.495
20
-159.258
11
115.495
21
-159.258
0
LINE
8
BLACK
6
CONTINUOUS
10
115.495
20
-159.258
11
115.493
21
-159.258
0
LINE
8
BLACK
6
CONTINUOUS
10
115.493
20
-159.258
11
115.492
21
-159.258
0
LINE
8
BLACK
6
CONTINUOUS
10
115.492
20
-159.258
11
76.8108
21
-159.258
0
LINE
8
BLACK
6
CONTINUOUS
10
76.8108
20
-159.258
11
76.8096
21
-159.258
0
LINE
8
BLACK
6
CONTINUOUS
10
76.8096
20
-159.258
11
76.8047
21
-159.257
0
LINE
8
BLACK
6
CONTINUOUS
10
76.8047
20
-159.257
11
76.8
21
-159.256
0
LINE
8
BLACK
6
CONTINUOUS
10
76.8
20
-159.256
11
76.7996
21
-159.256
0
LINE
8
BLACK
6
CONTINUOUS
10
76.7996
20
-159.256
11
76.7956
21
-159.253
0
LINE
8
BLACK
6
CONTINUOUS
10
76.7956
20
-159.253
11
76.7918
21
-159.25
0
LINE
8
BLACK
6
CONTINUOUS
10
76.7918
20
-159.25
11
76.7911
21
-159.249
0
LINE
8
BLACK
6
CONTINUOUS
10
76.7911
20
-159.249
11
76.1578
21
-158.616
0
LINE
8
BLACK
6
CONTINUOUS
10
76.1578
20
-158.616
11
76.1568
21
-158.615
0
LINE
8
BLACK
6
CONTINUOUS
10
76.1568
20
-158.615
11
76.1537
21
-158.612
0
LINE
8
BLACK
6
CONTINUOUS
10
76.1537
20
-158.612
11
76.1514
21
-158.607
0
LINE
8
BLACK
6
CONTINUOUS
10
76.1514
20
-158.607
11
76.15
21
-158.602
0
LINE
8
BLACK
6
CONTINUOUS
10
76.15
20
-158.602
11
76.1496
21
-158.599
0
LINE
8
BLACK
6
CONTINUOUS
10
76.1496
20
-158.599
11
76.1495
21
-158.598
0
LINE
8
BLACK
6
CONTINUOUS
10
76.1495
20
-158.598
11
76.1496
21
-158.596
0
LINE
8
BLACK
6
CONTINUOUS
10
76.1496
20
-158.596
11
76.1496
21
-149.25
0
LINE
8
BLACK
6
CONTINUOUS
10
76.1496
20
-149.25
11
51.0806
21
-149.275
0
LINE
8
BLACK
6
CONTINUOUS
10
51.0806
20
-149.275
11
51.0794
21
-149.276
0
LINE
8
BLACK
6
CONTINUOUS
10
51.0794
20
-149.276
11
51.0764
21
-149.275
0
LINE
8
BLACK
6
CONTINUOUS
10
51.0764
20
-149.275
11
51.0745
21
-149.275
0
LINE
8
BLACK
6
CONTINUOUS
10
51.0745
20
-149.275
11
51.0745
21
-149.275
0
LINE
8
BLACK
6
CONTINUOUS
10
51.0745
20
-149.275
11
51.0745
21
-149.275
0
LINE
8
BLACK
6
CONTINUOUS
10
51.0745
20
-149.275
11
51.0711
21
-149.274
0
LINE
8
BLACK
6
CONTINUOUS
10
51.0711
20
-149.274
11
51.0698
21
-149.274
0
LINE
8
BLACK
6
CONTINUOUS
10
51.0698
20
-149.274
11
51.0698
21
-149.274
0
LINE
8
BLACK
6
CONTINUOUS
10
51.0698
20
-149.274
11
51.0698
21
-149.274
0
LINE
8
BLACK
6
CONTINUOUS
10
51.0698
20
-149.274
11
51.0673
21
-149.272
0
LINE
8
BLACK
6
CONTINUOUS
10
51.0673
20
-149.272
11
51.0655
21
-149.271
0
LINE
8
BLACK
6
CONTINUOUS
10
51.0655
20
-149.271
11
51.0655
21
-149.271
0
LINE
8
BLACK
6
CONTINUOUS
10
51.0655
20
-149.271
11
51.0654
21
-149.271
0
LINE
8
BLACK
6
CONTINUOUS
10
51.0654
20
-149.271
11
51.0633
21
-149.27
0
LINE
8
BLACK
6
CONTINUOUS
10
51.0633
20
-149.27
11
51.0617
21
-149.268
0
LINE
8
BLACK
6
CONTINUOUS
10
51.0617
20
-149.268
11
51.0609
21
-149.267
0
LINE
8
BLACK
6
CONTINUOUS
10
51.0609
20
-149.267
11
49.1576
21
-147.364
0
LINE
8
BLACK
6
CONTINUOUS
10
49.1576
20
-147.364
11
49.1566
21
-147.363
0
LINE
8
BLACK
6
CONTINUOUS
10
49.1566
20
-147.363
11
49.1535
21
-147.359
0
LINE
8
BLACK
6
CONTINUOUS
10
49.1535
20
-147.359
11
49.1512
21
-147.355
0
LINE
8
BLACK
6
CONTINUOUS
10
49.1512
20
-147.355
11
49.1498
21
-147.35
0
LINE
8
BLACK
6
CONTINUOUS
10
49.1498
20
-147.35
11
49.1498
21
-147.35
0
LINE
8
BLACK
6
CONTINUOUS
10
49.1498
20
-147.35
11
49.1498
21
-147.35
0
LINE
8
BLACK
6
CONTINUOUS
10
49.1498
20
-147.35
11
49.1496
21
-147.349
0
LINE
8
BLACK
6
CONTINUOUS
10
49.1496
20
-147.349
11
49.1494
21
-147.347
0
LINE
8
BLACK
6
CONTINUOUS
10
49.1494
20
-147.347
11
49.1494
21
-147.347
0
LINE
8
BLACK
6
CONTINUOUS
10
49.1494
20
-147.347
11
49.1493
21
-147.345
0
LINE
8
BLACK
6
CONTINUOUS
10
49.1493
20
-147.345
11
49.1494
21
-147.344
0
LINE
8
BLACK
6
CONTINUOUS
10
49.1494
20
-147.344
11
49.124
21
-41.1492
0
LINE
8
BLACK
6
CONTINUOUS
10
49.124
20
-41.1492
11
49.1239
21
-41.148
0
LINE
8
BLACK
6
CONTINUOUS
10
49.1239
20
-41.148
11
49.1242
21
-41.1449
0
LINE
8
BLACK
6
CONTINUOUS
10
49.1242
20
-41.1449
11
49.1244
21
-41.1431
0
LINE
8
BLACK
6
CONTINUOUS
10
49.1244
20
-41.1431
11
49.1244
21
-41.1431
0
LINE
8
BLACK
6
CONTINUOUS
10
49.1244
20
-41.1431
11
49.1244
21
-41.1431
0
LINE
8
BLACK
6
CONTINUOUS
10
49.1244
20
-41.1431
11
49.1248
21
-41.1417
0
LINE
8
BLACK
6
CONTINUOUS
10
49.1248
20
-41.1417
11
49.1258
21
-41.1384
0
LINE
8
BLACK
6
CONTINUOUS
10
49.1258
20
-41.1384
11
49.1281
21
-41.134
0
LINE
8
BLACK
6
CONTINUOUS
10
49.1281
20
-41.134
11
49.1312
21
-41.1302
0
LINE
8
BLACK
6
CONTINUOUS
10
49.1312
20
-41.1302
11
49.1322
21
-41.1295
0
LINE
8
BLACK
6
CONTINUOUS
10
49.1322
20
-41.1295
11
51.0355
21
-39.2262
0
LINE
8
BLACK
6
CONTINUOUS
10
51.0355
20
-39.2262
11
51.0362
21
-39.2252
0
LINE
8
BLACK
6
CONTINUOUS
10
51.0362
20
-39.2252
11
51.04
21
-39.2221
0
LINE
8
BLACK
6
CONTINUOUS
10
51.04
20
-39.2221
11
51.0429
21
-39.2206
0
LINE
8
BLACK
6
CONTINUOUS
10
51.0429
20
-39.2206
11
51.0444
21
-39.2198
0
LINE
8
BLACK
6
CONTINUOUS
10
51.0444
20
-39.2198
11
51.0491
21
-39.2184
0
LINE
8
BLACK
6
CONTINUOUS
10
51.0491
20
-39.2184
11
51.054
21
-39.2179
0
LINE
8
BLACK
6
CONTINUOUS
10
51.054
20
-39.2179
11
51.0552
21
-39.218
0
LINE
8
BLACK
6
CONTINUOUS
10
51.0552
20
-39.218
11
57.0615
21
-39.218
0
LINE
8
BLACK
6
CONTINUOUS
10
57.0615
20
-39.218
11
57.0615
21
-37.974
0
LINE
8
BLACK
6
CONTINUOUS
10
57.0615
20
-37.974
11
57.0614
21
-37.9726
0
LINE
8
BLACK
6
CONTINUOUS
10
57.0614
20
-37.9726
11
57.0617
21
-37.9703
0
LINE
8
BLACK
6
CONTINUOUS
10
57.0617
20
-37.9703
11
57.0619
21
-37.9681
0
LINE
8
BLACK
6
CONTINUOUS
10
57.0619
20
-37.9681
11
57.0619
21
-37.9679
0
LINE
8
BLACK
6
CONTINUOUS
10
57.0619
20
-37.9679
11
57.0619
21
-37.9677
0
LINE
8
BLACK
6
CONTINUOUS
10
57.0619
20
-37.9677
11
57.0627
21
-37.9655
0
LINE
8
BLACK
6
CONTINUOUS
10
57.0627
20
-37.9655
11
57.0633
21
-37.9634
0
LINE
8
BLACK
6
CONTINUOUS
10
57.0633
20
-37.9634
11
57.0634
21
-37.9632
0
LINE
8
BLACK
6
CONTINUOUS
10
57.0634
20
-37.9632
11
57.0635
21
-37.963
0
LINE
8
BLACK
6
CONTINUOUS
10
57.0635
20
-37.963
11
57.0646
21
-37.961
0
LINE
8
BLACK
6
CONTINUOUS
10
57.0646
20
-37.961
11
57.0656
21
-37.959
0
LINE
8
BLACK
6
CONTINUOUS
10
57.0656
20
-37.959
11
57.0665
21
-37.9579
0
LINE
8
BLACK
6
CONTINUOUS
10
57.0665
20
-37.9579
11
57.2937
21
-37.6297
0
LINE
8
BLACK
6
CONTINUOUS
10
57.2937
20
-37.6297
11
57.2942
21
-37.6288
0
LINE
8
BLACK
6
CONTINUOUS
10
57.2942
20
-37.6288
11
57.2951
21
-37.6277
0
LINE
8
BLACK
6
CONTINUOUS
10
57.2951
20
-37.6277
11
57.2952
21
-37.6276
0
LINE
8
BLACK
6
CONTINUOUS
10
57.2952
20
-37.6276
11
57.2959
21
-37.6268
0
LINE
8
BLACK
6
CONTINUOUS
10
57.2959
20
-37.6268
11
57.2973
21
-37.625
0
LINE
8
BLACK
6
CONTINUOUS
10
57.2973
20
-37.625
11
57.2975
21
-37.6249
0
LINE
8
BLACK
6
CONTINUOUS
10
57.2975
20
-37.6249
11
57.2976
21
-37.6247
0
LINE
8
BLACK
6
CONTINUOUS
10
57.2976
20
-37.6247
11
57.2993
21
-37.6234
0
LINE
8
BLACK
6
CONTINUOUS
10
57.2993
20
-37.6234
11
57.3011
21
-37.6219
0
LINE
8
BLACK
6
CONTINUOUS
10
57.3011
20
-37.6219
11
57.3013
21
-37.6218
0
LINE
8
BLACK
6
CONTINUOUS
10
57.3013
20
-37.6218
11
57.3015
21
-37.6217
0
LINE
8
BLACK
6
CONTINUOUS
10
57.3015
20
-37.6217
11
57.3035
21
-37.6207
0
LINE
8
BLACK
6
CONTINUOUS
10
57.3035
20
-37.6207
11
57.3055
21
-37.6196
0
LINE
8
BLACK
6
CONTINUOUS
10
57.3055
20
-37.6196
11
57.3057
21
-37.6195
0
LINE
8
BLACK
6
CONTINUOUS
10
57.3057
20
-37.6195
11
57.3059
21
-37.6194
0
LINE
8
BLACK
6
CONTINUOUS
10
57.3059
20
-37.6194
11
57.3081
21
-37.6188
0
LINE
8
BLACK
6
CONTINUOUS
10
57.3081
20
-37.6188
11
57.3102
21
-37.6182
0
LINE
8
BLACK
6
CONTINUOUS
10
57.3102
20
-37.6182
11
57.3104
21
-37.6181
0
LINE
8
BLACK
6
CONTINUOUS
10
57.3104
20
-37.6181
11
57.3106
21
-37.6181
0
LINE
8
BLACK
6
CONTINUOUS
10
57.3106
20
-37.6181
11
57.3129
21
-37.6179
0
LINE
8
BLACK
6
CONTINUOUS
10
57.3129
20
-37.6179
11
57.3139
21
-37.6178
0
LINE
8
BLACK
6
CONTINUOUS
10
57.3139
20
-37.6178
11
57.3141
21
-37.6178
0
LINE
8
BLACK
6
CONTINUOUS
10
57.3141
20
-37.6178
11
57.3155
21
-37.6177
0
LINE
8
BLACK
6
CONTINUOUS
10
57.3155
20
-37.6177
11
57.3165
21
-37.6178
0
LINE
8
BLACK
6
CONTINUOUS
10
57.3282
20
-37.6678
11
57.1115
21
-37.9808
0
LINE
8
BLACK
6
CONTINUOUS
10
57.1115
20
-37.9808
11
57.1115
21
-39.2418
0
LINE
8
BLACK
6
CONTINUOUS
10
57.1115
20
-39.2418
11
57.1116
21
-39.243
0
LINE
8
BLACK
6
CONTINUOUS
10
57.1116
20
-39.243
11
57.1111
21
-39.2479
0
LINE
8
BLACK
6
CONTINUOUS
10
57.1111
20
-39.2479
11
57.1097
21
-39.2526
0
LINE
8
BLACK
6
CONTINUOUS
10
57.1097
20
-39.2526
11
57.1074
21
-39.257
0
LINE
8
BLACK
6
CONTINUOUS
10
57.1074
20
-39.257
11
57.1043
21
-39.2608
0
LINE
8
BLACK
6
CONTINUOUS
10
57.1043
20
-39.2608
11
57.1005
21
-39.2639
0
LINE
8
BLACK
6
CONTINUOUS
10
57.1005
20
-39.2639
11
57.0961
21
-39.2662
0
LINE
8
BLACK
6
CONTINUOUS
10
57.0961
20
-39.2662
11
57.0914
21
-39.2676
0
LINE
8
BLACK
6
CONTINUOUS
10
57.0914
20
-39.2676
11
57.0877
21
-39.268
0
LINE
8
BLACK
6
CONTINUOUS
10
57.0877
20
-39.268
11
57.0877
21
-39.268
0
LINE
8
BLACK
6
CONTINUOUS
10
57.0877
20
-39.268
11
57.0865
21
-39.2681
0
LINE
8
BLACK
6
CONTINUOUS
10
57.0865
20
-39.2681
11
57.0853
21
-39.268
0
LINE
8
BLACK
6
CONTINUOUS
10
57.0853
20
-39.268
11
51.0644
21
-39.268
0
LINE
8
BLACK
6
CONTINUOUS
10
51.0644
20
-39.268
11
49.174
21
-41.1584
0
LINE
8
BLACK
6
CONTINUOUS
10
49.174
20
-41.1584
11
49.1994
21
-147.335
0
LINE
8
BLACK
6
CONTINUOUS
10
49.1994
20
-147.335
11
51.0897
21
-149.225
0
LINE
8
BLACK
6
CONTINUOUS
10
51.0897
20
-149.225
11
76.1734
21
-149.2
0
LINE
8
BLACK
6
CONTINUOUS
10
76.1734
20
-149.2
11
76.1746
21
-149.2
0
LINE
8
BLACK
6
CONTINUOUS
10
76.1746
20
-149.2
11
76.1776
21
-149.2
0
LINE
8
BLACK
6
CONTINUOUS
10
76.1776
20
-149.2
11
76.1795
21
-149.2
0
LINE
8
BLACK
6
CONTINUOUS
10
76.1795
20
-149.2
11
76.1795
21
-149.2
0
LINE
8
BLACK
6
CONTINUOUS
10
76.1795
20
-149.2
11
76.1795
21
-149.2
0
LINE
8
BLACK
6
CONTINUOUS
10
76.1795
20
-149.2
11
76.1827
21
-149.201
0
LINE
8
BLACK
6
CONTINUOUS
10
76.1827
20
-149.201
11
76.1842
21
-149.202
0
LINE
8
BLACK
6
CONTINUOUS
10
76.1842
20
-149.202
11
76.1842
21
-149.202
0
LINE
8
BLACK
6
CONTINUOUS
10
76.1842
20
-149.202
11
76.1842
21
-149.202
0
LINE
8
BLACK
6
CONTINUOUS
10
76.1842
20
-149.202
11
76.1869
21
-149.203
0
LINE
8
BLACK
6
CONTINUOUS
10
76.1869
20
-149.203
11
76.1885
21
-149.204
0
LINE
8
BLACK
6
CONTINUOUS
10
76.1885
20
-149.204
11
76.1885
21
-149.204
0
LINE
8
BLACK
6
CONTINUOUS
10
76.1885
20
-149.204
11
76.1886
21
-149.204
0
LINE
8
BLACK
6
CONTINUOUS
10
76.1886
20
-149.204
11
76.191
21
-149.206
0
LINE
8
BLACK
6
CONTINUOUS
10
76.191
20
-149.206
11
76.1923
21
-149.207
0
LINE
8
BLACK
6
CONTINUOUS
10
76.1923
20
-149.207
11
76.1924
21
-149.207
0
LINE
8
BLACK
6
CONTINUOUS
10
76.1924
20
-149.207
11
76.1924
21
-149.207
0
LINE
8
BLACK
6
CONTINUOUS
10
76.1924
20
-149.207
11
76.1941
21
-149.209
0
LINE
8
BLACK
6
CONTINUOUS
10
76.1941
20
-149.209
11
76.1955
21
-149.211
0
LINE
8
BLACK
6
CONTINUOUS
10
76.1955
20
-149.211
11
76.1955
21
-149.211
0
LINE
8
BLACK
6
CONTINUOUS
10
76.1955
20
-149.211
11
76.1955
21
-149.211
0
LINE
8
BLACK
6
CONTINUOUS
10
76.1955
20
-149.211
11
76.1967
21
-149.213
0
LINE
8
BLACK
6
CONTINUOUS
10
76.1967
20
-149.213
11
76.1978
21
-149.215
0
LINE
8
BLACK
6
CONTINUOUS
10
76.1978
20
-149.215
11
76.1978
21
-149.215
0
LINE
8
BLACK
6
CONTINUOUS
10
76.1978
20
-149.215
11
76.1978
21
-149.215
0
LINE
8
BLACK
6
CONTINUOUS
10
76.1978
20
-149.215
11
76.1986
21
-149.218
0
LINE
8
BLACK
6
CONTINUOUS
10
76.1986
20
-149.218
11
76.1992
21
-149.22
0
LINE
8
BLACK
6
CONTINUOUS
10
76.1992
20
-149.22
11
76.1992
21
-149.22
0
LINE
8
BLACK
6
CONTINUOUS
10
76.1992
20
-149.22
11
76.1992
21
-149.22
0
LINE
8
BLACK
6
CONTINUOUS
10
76.1992
20
-149.22
11
76.1995
21
-149.223
0
LINE
8
BLACK
6
CONTINUOUS
10
76.1995
20
-149.223
11
76.1997
21
-149.225
0
LINE
8
BLACK
6
CONTINUOUS
10
76.1997
20
-149.225
11
76.1996
21
-149.226
0
LINE
8
BLACK
6
CONTINUOUS
10
76.1996
20
-149.226
11
76.1996
21
-158.587
0
LINE
8
BLACK
6
CONTINUOUS
10
76.1996
20
-158.587
11
76.82
21
-159.208
0
LINE
8
BLACK
6
CONTINUOUS
10
76.82
20
-159.208
11
115.484
21
-159.208
0
LINE
8
BLACK
6
CONTINUOUS
10
115.484
20
-159.208
11
116.104
21
-158.612
0
LINE
8
BLACK
6
CONTINUOUS
10
116.104
20
-158.612
11
116.104
21
-149.252
0
LINE
8
BLACK
6
CONTINUOUS
10
116.104
20
-149.252
11
116.104
21
-149.25
0
LINE
8
BLACK
6
CONTINUOUS
10
116.104
20
-149.25
11
116.104
21
-149.245
0
LINE
8
BLACK
6
CONTINUOUS
10
116.104
20
-149.245
11
116.106
21
-149.241
0
LINE
8
BLACK
6
CONTINUOUS
10
116.106
20
-149.241
11
116.108
21
-149.236
0
LINE
8
BLACK
6
CONTINUOUS
10
116.108
20
-149.236
11
116.111
21
-149.233
0
LINE
8
BLACK
6
CONTINUOUS
10
116.111
20
-149.233
11
116.115
21
-149.23
0
LINE
8
BLACK
6
CONTINUOUS
10
116.115
20
-149.23
11
116.119
21
-149.227
0
LINE
8
BLACK
6
CONTINUOUS
10
116.119
20
-149.227
11
116.124
21
-149.226
0
LINE
8
BLACK
6
CONTINUOUS
10
116.124
20
-149.226
11
116.128
21
-149.225
0
LINE
8
BLACK
6
CONTINUOUS
10
116.128
20
-149.225
11
116.128
21
-149.225
0
LINE
8
BLACK
6
CONTINUOUS
10
116.128
20
-149.225
11
116.129
21
-149.225
0
LINE
8
BLACK
6
CONTINUOUS
10
116.129
20
-149.225
11
116.13
21
-149.225
0
LINE
8
BLACK
6
CONTINUOUS
10
116.13
20
-149.225
11
141.214
21
-149.225
0
LINE
8
BLACK
6
CONTINUOUS
10
141.214
20
-149.225
11
143.104
21
-147.335
0
LINE
8
BLACK
6
CONTINUOUS
10
143.104
20
-147.335
11
143.104
21
-41.1584
0
LINE
8
BLACK
6
CONTINUOUS
10
143.104
20
-41.1584
11
141.214
21
-39.268
0
LINE
8
BLACK
6
CONTINUOUS
10
141.214
20
-39.268
11
135.218
21
-39.268
0
LINE
8
BLACK
6
CONTINUOUS
10
135.218
20
-39.268
11
135.217
21
-39.2681
0
LINE
8
BLACK
6
CONTINUOUS
10
135.217
20
-39.2681
11
135.216
21
-39.268
0
LINE
8
BLACK
6
CONTINUOUS
10
135.216
20
-39.268
11
135.216
21
-39.268
0
LINE
8
BLACK
6
CONTINUOUS
10
135.216
20
-39.268
11
135.212
21
-39.2676
0
LINE
8
BLACK
6
CONTINUOUS
10
135.212
20
-39.2676
11
135.207
21
-39.2662
0
LINE
8
BLACK
6
CONTINUOUS
10
135.207
20
-39.2662
11
135.203
21
-39.2639
0
LINE
8
BLACK
6
CONTINUOUS
10
135.203
20
-39.2639
11
135.199
21
-39.2608
0
LINE
8
BLACK
6
CONTINUOUS
10
135.199
20
-39.2608
11
135.196
21
-39.257
0
LINE
8
BLACK
6
CONTINUOUS
10
135.196
20
-39.257
11
135.194
21
-39.2526
0
LINE
8
BLACK
6
CONTINUOUS
10
135.194
20
-39.2526
11
135.192
21
-39.2479
0
LINE
8
BLACK
6
CONTINUOUS
10
135.192
20
-39.2479
11
135.192
21
-39.243
0
LINE
8
BLACK
6
CONTINUOUS
10
135.192
20
-39.243
11
135.192
21
-39.2418
0
LINE
8
BLACK
6
CONTINUOUS
10
135.192
20
-39.2418
11
135.192
21
-38.1083
0
LINE
8
BLACK
6
CONTINUOUS
10
135.192
20
-38.1083
11
134.862
21
-37.6678
0
LINE
8
BLACK
6
CONTINUOUS
10
134.862
20
-37.6678
11
129.425
21
-37.6678
0
LINE
8
BLACK
6
CONTINUOUS
10
129.425
20
-37.6678
11
129.082
21
-38.1086
0
LINE
8
BLACK
6
CONTINUOUS
10
129.082
20
-38.1086
11
129.082
21
-39.2418
0
LINE
8
BLACK
6
CONTINUOUS
10
129.082
20
-39.2418
11
129.083
21
-39.243
0
LINE
8
BLACK
6
CONTINUOUS
10
129.083
20
-39.243
11
129.082
21
-39.2479
0
LINE
8
BLACK
6
CONTINUOUS
10
129.082
20
-39.2479
11
129.081
21
-39.2526
0
LINE
8
BLACK
6
CONTINUOUS
10
129.081
20
-39.2526
11
129.078
21
-39.257
0
LINE
8
BLACK
6
CONTINUOUS
10
129.078
20
-39.257
11
129.075
21
-39.2608
0
LINE
8
BLACK
6
CONTINUOUS
10
129.075
20
-39.2608
11
129.071
21
-39.2639
0
LINE
8
BLACK
6
CONTINUOUS
10
129.071
20
-39.2639
11
129.067
21
-39.2662
0
LINE
8
BLACK
6
CONTINUOUS
10
129.067
20
-39.2662
11
129.062
21
-39.2676
0
LINE
8
BLACK
6
CONTINUOUS
10
129.062
20
-39.2676
11
129.059
21
-39.268
0
LINE
8
BLACK
6
CONTINUOUS
10
129.059
20
-39.268
11
129.059
21
-39.268
0
LINE
8
BLACK
6
CONTINUOUS
10
129.059
20
-39.268
11
129.057
21
-39.2681
0
LINE
8
BLACK
6
CONTINUOUS
10
129.057
20
-39.2681
11
129.056
21
-39.268
0
LINE
8
BLACK
6
CONTINUOUS
10
129.056
20
-39.268
11
63.2218
21
-39.268
0
LINE
8
BLACK
6
CONTINUOUS
10
63.2218
20
-39.268
11
63.2206
21
-39.2681
0
LINE
8
BLACK
6
CONTINUOUS
10
63.2206
20
-39.2681
11
63.2194
21
-39.268
0
LINE
8
BLACK
6
CONTINUOUS
10
63.2194
20
-39.268
11
63.2194
21
-39.268
0
LINE
8
BLACK
6
CONTINUOUS
10
63.2194
20
-39.268
11
63.2157
21
-39.2676
0
LINE
8
BLACK
6
CONTINUOUS
10
63.2157
20
-39.2676
11
63.211
21
-39.2662
0
LINE
8
BLACK
6
CONTINUOUS
10
63.211
20
-39.2662
11
63.2066
21
-39.2639
0
LINE
8
BLACK
6
CONTINUOUS
10
63.2066
20
-39.2639
11
63.2028
21
-39.2608
0
LINE
8
BLACK
6
CONTINUOUS
10
63.2028
20
-39.2608
11
63.1997
21
-39.257
0
LINE
8
BLACK
6
CONTINUOUS
10
63.1997
20
-39.257
11
63.1974
21
-39.2526
0
LINE
8
BLACK
6
CONTINUOUS
10
63.1974
20
-39.2526
11
63.196
21
-39.2479
0
LINE
8
BLACK
6
CONTINUOUS
10
63.196
20
-39.2479
11
63.1955
21
-39.243
0
LINE
8
BLACK
6
CONTINUOUS
10
63.1955
20
-39.243
11
63.1956
21
-39.2418
0
LINE
8
BLACK
6
CONTINUOUS
10
63.1956
20
-39.2418
11
63.1956
21
-37.9801
0
LINE
8
BLACK
6
CONTINUOUS
10
63.1956
20
-37.9801
11
63.0034
21
-37.6678
0
LINE
8
BLACK
6
CONTINUOUS
10
63.0034
20
-37.6678
11
57.3282
21
-37.6678
0
LINE
8
BLACK
6
CONTINUOUS
10
135.891
20
-69.825
11
135.891
21
-69.825
0
LINE
8
BLACK
6
CONTINUOUS
10
135.891
20
-69.825
11
135.895
21
-69.8254
0
LINE
8
BLACK
6
CONTINUOUS
10
135.895
20
-69.8254
11
135.9
21
-69.8268
0
LINE
8
BLACK
6
CONTINUOUS
10
135.9
20
-69.8268
11
135.904
21
-69.8291
0
LINE
8
BLACK
6
CONTINUOUS
10
135.904
20
-69.8291
11
135.908
21
-69.8322
0
LINE
8
BLACK
6
CONTINUOUS
10
135.908
20
-69.8322
11
135.911
21
-69.836
0
LINE
8
BLACK
6
CONTINUOUS
10
135.911
20
-69.836
11
135.913
21
-69.8404
0
LINE
8
BLACK
6
CONTINUOUS
10
135.913
20
-69.8404
11
135.915
21
-69.8451
0
LINE
8
BLACK
6
CONTINUOUS
10
135.915
20
-69.8451
11
135.915
21
-69.85
0
LINE
8
BLACK
6
CONTINUOUS
10
135.915
20
-69.85
11
135.915
21
-69.8512
0
LINE
8
BLACK
6
CONTINUOUS
10
135.915
20
-69.8512
11
135.915
21
-97.7888
0
LINE
8
BLACK
6
CONTINUOUS
10
135.915
20
-97.7888
11
135.915
21
-97.79
0
LINE
8
BLACK
6
CONTINUOUS
10
135.915
20
-97.79
11
135.915
21
-97.7912
0
LINE
8
BLACK
6
CONTINUOUS
10
135.915
20
-97.7912
11
135.915
21
-97.7912
0
LINE
8
BLACK
6
CONTINUOUS
10
135.915
20
-97.7912
11
135.915
21
-97.7949
0
LINE
8
BLACK
6
CONTINUOUS
10
135.915
20
-97.7949
11
135.913
21
-97.7996
0
LINE
8
BLACK
6
CONTINUOUS
10
135.913
20
-97.7996
11
135.911
21
-97.804
0
LINE
8
BLACK
6
CONTINUOUS
10
135.911
20
-97.804
11
135.908
21
-97.8078
0
LINE
8
BLACK
6
CONTINUOUS
10
135.908
20
-97.8078
11
135.904
21
-97.8109
0
LINE
8
BLACK
6
CONTINUOUS
10
135.904
20
-97.8109
11
135.9
21
-97.8132
0
LINE
8
BLACK
6
CONTINUOUS
10
135.9
20
-97.8132
11
135.895
21
-97.8146
0
LINE
8
BLACK
6
CONTINUOUS
10
135.895
20
-97.8146
11
135.89
21
-97.8151
0
LINE
8
BLACK
6
CONTINUOUS
10
135.89
20
-97.8151
11
135.889
21
-97.815
0
LINE
8
BLACK
6
CONTINUOUS
10
135.889
20
-97.815
11
131.065
21
-97.815
0
LINE
8
BLACK
6
CONTINUOUS
10
131.065
20
-97.815
11
131.064
21
-97.8151
0
LINE
8
BLACK
6
CONTINUOUS
10
131.064
20
-97.8151
11
131.059
21
-97.8146
0
LINE
8
BLACK
6
CONTINUOUS
10
131.059
20
-97.8146
11
131.054
21
-97.8132
0
LINE
8
BLACK
6
CONTINUOUS
10
131.054
20
-97.8132
11
131.05
21
-97.8109
0
LINE
8
BLACK
6
CONTINUOUS
10
131.05
20
-97.8109
11
131.046
21
-97.8078
0
LINE
8
BLACK
6
CONTINUOUS
10
131.046
20
-97.8078
11
131.043
21
-97.804
0
LINE
8
BLACK
6
CONTINUOUS
10
131.043
20
-97.804
11
131.041
21
-97.7996
0
LINE
8
BLACK
6
CONTINUOUS
10
131.041
20
-97.7996
11
131.039
21
-97.7949
0
LINE
8
BLACK
6
CONTINUOUS
10
131.039
20
-97.7949
11
131.039
21
-97.79
0
LINE
8
BLACK
6
CONTINUOUS
10
131.039
20
-97.79
11
131.039
21
-97.7888
0
LINE
8
BLACK
6
CONTINUOUS
10
131.039
20
-97.7888
11
131.039
21
-69.8512
0
LINE
8
BLACK
6
CONTINUOUS
10
131.039
20
-69.8512
11
131.039
21
-69.85
0
LINE
8
BLACK
6
CONTINUOUS
10
131.039
20
-69.85
11
131.039
21
-69.8451
0
LINE
8
BLACK
6
CONTINUOUS
10
131.039
20
-69.8451
11
131.041
21
-69.8404
0
LINE
8
BLACK
6
CONTINUOUS
10
131.041
20
-69.8404
11
131.043
21
-69.836
0
LINE
8
BLACK
6
CONTINUOUS
10
131.043
20
-69.836
11
131.046
21
-69.8322
0
LINE
8
BLACK
6
CONTINUOUS
10
131.046
20
-69.8322
11
131.05
21
-69.8291
0
LINE
8
BLACK
6
CONTINUOUS
10
131.05
20
-69.8291
11
131.054
21
-69.8268
0
LINE
8
BLACK
6
CONTINUOUS
10
131.054
20
-69.8268
11
131.059
21
-69.8254
0
LINE
8
BLACK
6
CONTINUOUS
10
131.059
20
-69.8254
11
131.063
21
-69.825
0
LINE
8
BLACK
6
CONTINUOUS
10
131.063
20
-69.825
11
131.063
21
-69.825
0
LINE
8
BLACK
6
CONTINUOUS
10
131.063
20
-69.825
11
131.064
21
-69.8249
0
LINE
8
BLACK
6
CONTINUOUS
10
131.064
20
-69.8249
11
131.065
21
-69.825
0
LINE
8
BLACK
6
CONTINUOUS
10
131.065
20
-69.825
11
135.889
21
-69.825
0
LINE
8
BLACK
6
CONTINUOUS
10
135.889
20
-69.825
11
135.89
21
-69.8249
0
LINE
8
BLACK
6
CONTINUOUS
10
135.89
20
-69.8249
11
135.891
21
-69.825
0
LINE
8
BLACK
6
CONTINUOUS
10
131.089
20
-69.875
11
131.089
21
-97.765
0
LINE
8
BLACK
6
CONTINUOUS
10
131.089
20
-97.765
11
135.865
21
-97.765
0
LINE
8
BLACK
6
CONTINUOUS
10
135.865
20
-97.765
11
135.865
21
-69.875
0
LINE
8
BLACK
6
CONTINUOUS
10
135.865
20
-69.875
11
131.089
21
-69.875
  0
ENDSEC
  0
EOF
