%TF.GenerationSoftware,KiCad,Pcbnew,(5.1.12)-1*%
%TF.CreationDate,2021-12-10T07:50:45+00:00*%
%TF.ProjectId,RGBtoHDMI Amiga Denise CPLD FFC - CDTV Video Slot,52474274-6f48-4444-9d49-20416d696761,1*%
%TF.SameCoordinates,Original*%
%TF.FileFunction,Profile,NP*%
%FSLAX46Y46*%
G04 Gerber Fmt 4.6, Leading zero omitted, Abs format (unit mm)*
G04 Created by KiCad (PCBNEW (5.1.12)-1) date 2021-12-10 07:50:45*
%MOMM*%
%LPD*%
G01*
G04 APERTURE LIST*
%TA.AperFunction,Profile*%
%ADD10C,0.050000*%
%TD*%
G04 APERTURE END LIST*
D10*
X52466666Y-147320000D02*
G75*
G03*
X52466666Y-147320000I-1666666J0D01*
G01*
X48300000Y-147320000D02*
X53300000Y-147320000D01*
X50800000Y-144820000D02*
X50800000Y-149820000D01*
X134874000Y-37642800D02*
X135216900Y-38100000D01*
X129413000Y-37642800D02*
X129057400Y-38100000D01*
X63017400Y-37642800D02*
X63220600Y-37973000D01*
X57315100Y-37642800D02*
X57086500Y-37973000D01*
X135216900Y-39243000D02*
X141224000Y-39243000D01*
X63220600Y-39243000D02*
X129057400Y-39243000D01*
X135216900Y-38100000D02*
X135216900Y-39243000D01*
X129413000Y-37642800D02*
X134874000Y-37642800D01*
X129057400Y-39243000D02*
X129057400Y-38100000D01*
X63220600Y-37973000D02*
X63220600Y-39243000D01*
X57315100Y-37642800D02*
X63017400Y-37642800D01*
X57086500Y-39243000D02*
X57086500Y-37973000D01*
X143129000Y-147345400D02*
X141224000Y-149250400D01*
X49174400Y-147345400D02*
X51079400Y-149250400D01*
X141224000Y-39243000D02*
X143129000Y-41148000D01*
X51054000Y-39243000D02*
X49149000Y-41148000D01*
X131064000Y-97790000D02*
X131064000Y-69850000D01*
X135890000Y-97790000D02*
X131064000Y-97790000D01*
X135890000Y-69850000D02*
X135890000Y-97790000D01*
X131064000Y-69850000D02*
X135890000Y-69850000D01*
X141224000Y-149250400D02*
X116128800Y-149250400D01*
X116128800Y-158623000D02*
X115493800Y-159232600D01*
X115493800Y-159232600D02*
X76809600Y-159232600D01*
X76809600Y-159232600D02*
X76174600Y-158597600D01*
X116128800Y-158623000D02*
X116128800Y-149250400D01*
X76174600Y-158597600D02*
X76174600Y-149225000D01*
X51054000Y-39243000D02*
X57086500Y-39243000D01*
X49174400Y-147345400D02*
X49149000Y-41148000D01*
X76174600Y-149225000D02*
X51079400Y-149250400D01*
X143129000Y-41148000D02*
X143129000Y-147345400D01*
M02*
